<svg xmlns="http://www.w3.org/2000/svg" xmlns:xlink="http://www.w3.org/1999/xlink" contentStyleType="text/css" data-diagram-type="DESCRIPTION" height="200px" preserveAspectRatio="none" style="width:413px;height:200px;background:#FFFFFF;" version="1.1" viewBox="0 0 413 200" width="413px" zoomAndPan="magnify"><?plantuml 1.2026.3?><defs/><g><!--entity empleado--><g class="entity" data-qualified-name="empleado" data-source-line="6" id="ent0002"><ellipse cx="33.4624" cy="122" fill="#F1F1F1" rx="8" ry="8" style="stroke:#181818;stroke-width:0.5;"/><path d="M33.4624,130 L33.4624,157 M20.4624,138 L46.4624,138 M33.4624,157 L20.4624,172 M33.4624,157 L46.4624,172" fill="none" style="stroke:#181818;stroke-width:0.5;"/><text fill="#000000" font-family="Arial" font-size="11" lengthAdjust="spacing" textLength="54.9248" x="6" y="183.7104">Empleado</text></g><!--entity manager--><g class="entity" data-qualified-name="manager" data-source-line="7" id="ent0003"><ellipse cx="145.0282" cy="122" fill="#F1F1F1" rx="8" ry="8" style="stroke:#181818;stroke-width:0.5;"/><path d="M145.0282,130 L145.0282,157 M132.0282,138 L158.0282,138 M145.0282,157 L132.0282,172 M145.0282,157 L158.0282,172" fill="none" style="stroke:#181818;stroke-width:0.5;"/><text fill="#000000" font-family="Arial" font-size="11" lengthAdjust="spacing" textLength="48.2163" x="120.92" y="183.7104">Manager</text></g><!--entity rrhh--><g class="entity" data-qualified-name="rrhh" data-source-line="8" id="ent0004"><ellipse cx="245.0546" cy="122" fill="#F1F1F1" rx="8" ry="8" style="stroke:#181818;stroke-width:0.5;"/><path d="M245.0546,130 L245.0546,157 M232.0546,138 L258.0546,138 M245.0546,157 L232.0546,172 M245.0546,157 L258.0546,172" fill="none" style="stroke:#181818;stroke-width:0.5;"/><text fill="#000000" font-family="Arial" font-size="11" lengthAdjust="spacing" textLength="31.8291" x="229.14" y="183.7104">RRHH</text></g><!--entity admin--><g class="entity" data-qualified-name="admin" data-source-line="9" id="ent0005"><ellipse cx="359.8943" cy="122" fill="#F1F1F1" rx="8" ry="8" style="stroke:#181818;stroke-width:0.5;"/><path d="M359.8943,130 L359.8943,157 M346.8943,138 L372.8943,138 M359.8943,157 L346.8943,172 M359.8943,157 L372.8943,172" fill="none" style="stroke:#181818;stroke-width:0.5;"/><text fill="#000000" font-family="Arial" font-size="11" lengthAdjust="spacing" textLength="77.8486" x="320.97" y="183.7104">Administrador</text></g><!--entity visitante--><g class="entity" data-qualified-name="visitante" data-source-line="10" id="ent0006"><ellipse cx="33.4671" cy="14" fill="#F1F1F1" rx="8" ry="8" style="stroke:#181818;stroke-width:0.5;"/><path d="M33.4671,22 L33.4671,49 M20.4671,30 L46.4671,30 M33.4671,49 L20.4671,64 M33.4671,49 L46.4671,64" fill="none" style="stroke:#181818;stroke-width:0.5;"/><text fill="#000000" font-family="Arial" font-size="11" lengthAdjust="spacing" textLength="48.4741" x="9.23" y="75.7104">Visitante</text></g><!--reverse link empleado to manager--><g class="link" data-entity-1="ent0002" data-entity-2="ent0003" data-link-type="extension" data-source-line="12" id="lnk7"><path d="M79.27,149.9 C97.39,149.9 103.09,149.9 120.48,149.9" fill="none" id="empleado-backto-manager" style="stroke:#181818;stroke-width:1;"/><polygon fill="none" points="61.27,149.9,79.27,155.9,79.27,143.9,61.27,149.9" style="stroke:#181818;stroke-width:1;"/></g><!--reverse link manager to rrhh--><g class="link" data-entity-1="ent0003" data-entity-2="ent0004" data-link-type="extension" data-source-line="13" id="lnk8"><path d="M187.26,149.9 C205.72,149.9 212.99,149.9 228.92,149.9" fill="none" id="manager-backto-rrhh" style="stroke:#181818;stroke-width:1;"/><polygon fill="none" points="169.26,149.9,187.26,155.9,187.26,143.9,169.26,149.9" style="stroke:#181818;stroke-width:1;"/></g><!--reverse link rrhh to admin--><g class="link" data-entity-1="ent0004" data-entity-2="ent0005" data-link-type="extension" data-source-line="14" id="lnk9"><path d="M279.27,149.9 C294.43,149.9 300.32,149.9 320.67,149.9" fill="none" id="rrhh-backto-admin" style="stroke:#181818;stroke-width:1;"/><polygon fill="none" points="261.27,149.9,279.27,155.9,279.27,143.9,261.27,149.9" style="stroke:#181818;stroke-width:1;"/></g><?plantuml-src ROwx3i8m34NtV8NLlKDt5WPG5nYAn6urRckHH-KQ1iJ7qoOD4naIwPnhtpWQ53I2y3WfM1RgbMCmouF3Z88UB0tuT7gEGQ_e2Ox2wFxx6xy9ciOOx3KAL2S_Eq8RAqW75w2TbCG50uuaUs1B-4nAeElQjjWS49ccOe_MS-15PLsvBbajRgJeEo-i69IgClmgn9Zo5JXywlfNkx-GQUhQhZIVK2xu0W00?></g></svg>