<svg xmlns="http://www.w3.org/2000/svg" xmlns:xlink="http://www.w3.org/1999/xlink" contentStyleType="text/css" data-diagram-type="DESCRIPTION" height="750px" preserveAspectRatio="none" style="width:1152px;height:750px;background:#FFFFFF;" version="1.1" viewBox="0 0 1152 750" width="1152px" zoomAndPan="magnify"><?plantuml 1.2026.4beta2?><defs/><g><!--cluster VISTAS--><g class="cluster" data-qualified-name="VISTAS" data-source-line="12" id="ent0002"><path d="M142.5,6 L176.8789,6 A3.75,3.75 0 0 1 179.3789,8.5 L186.3789,23.6406 L617.5,23.6406 A2.5,2.5 0 0 1 620,26.1406 L620,282.42 A2.5,2.5 0 0 1 617.5,284.92 L142.5,284.92 A2.5,2.5 0 0 1 140,282.42 L140,8.5 A2.5,2.5 0 0 1 142.5,6" fill="#ECF3FC" style="stroke:#000000;stroke-width:1.5;"/><line style="stroke:#000000;stroke-width:1.5;" x1="140" x2="186.3789" y1="23.6406" y2="23.6406"/><text fill="#000000" font-family="Arial" font-size="10" font-weight="700" lengthAdjust="spacing" textLength="33.3789" x="144" y="17.2822">vistas</text></g><!--cluster CONTROL--><g class="cluster" data-qualified-name="CONTROL" data-source-line="26" id="ent0012"><path d="M675.5,99.64 L754.8691,99.64 A3.75,3.75 0 0 1 757.3691,102.14 L764.3691,117.2806 L1134.5,117.2806 A2.5,2.5 0 0 1 1137,119.7806 L1137,416.06 A2.5,2.5 0 0 1 1134.5,418.56 L675.5,418.56 A2.5,2.5 0 0 1 673,416.06 L673,102.14 A2.5,2.5 0 0 1 675.5,99.64" fill="#E8F0DC" style="stroke:#000000;stroke-width:1.5;"/><line style="stroke:#000000;stroke-width:1.5;" x1="673" x2="764.3691" y1="117.2806" y2="117.2806"/><text fill="#000000" font-family="Arial" font-size="10" font-weight="700" lengthAdjust="spacing" textLength="78.3691" x="677" y="110.9222">controladores</text></g><!--cluster ENTIDADES--><g class="cluster" data-qualified-name="ENTIDADES" data-source-line="40" id="ent0022"><path d="M8.5,324.92 L65.4082,324.92 A3.75,3.75 0 0 1 67.9082,327.42 L74.9082,342.5606 L630.5,342.5606 A2.5,2.5 0 0 1 633,345.0606 L633,641.34 A2.5,2.5 0 0 1 630.5,643.84 L8.5,643.84 A2.5,2.5 0 0 1 6,641.34 L6,327.42 A2.5,2.5 0 0 1 8.5,324.92" fill="#FDF1DE" style="stroke:#000000;stroke-width:1.5;"/><line style="stroke:#000000;stroke-width:1.5;" x1="6" x2="74.9082" y1="342.5606" y2="342.5606"/><text fill="#000000" font-family="Arial" font-size="10" font-weight="700" lengthAdjust="spacing" textLength="55.9082" x="10" y="336.2022">entidades</text></g><!--cluster DOMINIO--><g class="cluster" data-qualified-name="DOMINIO" data-source-line="56" id="ent0034"><path d="M675.5,458.56 L721.793,458.56 A3.75,3.75 0 0 1 724.293,461.06 L731.293,476.2006 L1068.5,476.2006 A2.5,2.5 0 0 1 1071,478.7006 L1071,732.98 A2.5,2.5 0 0 1 1068.5,735.48 L675.5,735.48 A2.5,2.5 0 0 1 673,732.98 L673,461.06 A2.5,2.5 0 0 1 675.5,458.56" fill="#F5F0D5" style="stroke:#000000;stroke-width:1.5;"/><line style="stroke:#000000;stroke-width:1.5;" x1="673" x2="731.293" y1="476.2006" y2="476.2006"/><text fill="#000000" font-family="Arial" font-size="10" font-weight="700" lengthAdjust="spacing" textLength="45.293" x="677" y="469.8422">dominio</text></g><!--entity CPV--><g class="entity" data-qualified-name="VISTAS.CPV" data-source-line="13" id="ent0003"><rect fill="#629EF9" height="31.6406" rx="2.5" ry="2.5" style="stroke:#181818;stroke-width:0.5;" width="135.3369" x="170.33" y="44"/><text fill="#000000" font-family="Arial" font-size="10" lengthAdjust="spacing" textLength="115.3369" x="180.33" y="63.2822">CalendarioParkingView</text></g><!--entity CV--><g class="entity" data-qualified-name="VISTAS.CV" data-source-line="14" id="ent0004"><rect fill="#629EF9" height="31.6406" rx="2.5" ry="2.5" style="stroke:#181818;stroke-width:0.5;" width="77.5293" x="360.24" y="44"/><text fill="#000000" font-family="Arial" font-size="10" lengthAdjust="spacing" textLength="57.5293" x="370.24" y="63.2822">CesionView</text></g><!--entity VV--><g class="entity" data-qualified-name="VISTAS.VV" data-source-line="15" id="ent0005"><rect fill="#629EF9" height="31.6406" rx="2.5" ry="2.5" style="stroke:#181818;stroke-width:0.5;" width="88.0176" x="482.99" y="44"/><text fill="#000000" font-family="Arial" font-size="10" lengthAdjust="spacing" textLength="68.0176" x="492.99" y="63.2822">VisitanteView</text></g><!--entity COV--><g class="entity" data-qualified-name="VISTAS.COV" data-source-line="16" id="ent0006"><rect fill="#629EF9" height="31.6406" rx="2.5" ry="2.5" style="stroke:#181818;stroke-width:0.5;" width="137.9346" x="164.03" y="137.64"/><text fill="#000000" font-family="Arial" font-size="10" lengthAdjust="spacing" textLength="117.9346" x="174.03" y="156.9222">CalendarioOficinasView</text></g><!--entity BSV--><g class="entity" data-qualified-name="VISTAS.BSV" data-source-line="17" id="ent0007"><rect fill="#629EF9" height="31.6406" rx="2.5" ry="2.5" style="stroke:#181818;stroke-width:0.5;" width="138.9502" x="336.52" y="137.64"/><text fill="#000000" font-family="Arial" font-size="10" lengthAdjust="spacing" textLength="118.9502" x="346.52" y="156.9222">BandejaSolicitudesView</text></g><!--entity TV--><g class="entity" data-qualified-name="VISTAS.TV" data-source-line="18" id="ent0008"><rect fill="#629EF9" height="31.6406" rx="2.5" ry="2.5" style="stroke:#181818;stroke-width:0.5;" width="77.7686" x="510.12" y="137.64"/><text fill="#000000" font-family="Arial" font-size="10" lengthAdjust="spacing" textLength="57.7686" x="520.12" y="156.9222">TablonView</text></g><!--entity DV--><g class="entity" data-qualified-name="VISTAS.DV" data-source-line="19" id="ent0009"><rect fill="#629EF9" height="31.6406" rx="2.5" ry="2.5" style="stroke:#181818;stroke-width:0.5;" width="93.2373" x="175.38" y="229.28"/><text fill="#000000" font-family="Arial" font-size="10" lengthAdjust="spacing" textLength="73.2373" x="185.38" y="248.5622">DirectorioView</text></g><!--entity AV--><g class="entity" data-qualified-name="VISTAS.AV" data-source-line="20" id="ent0010"><rect fill="#629EF9" height="31.6406" rx="2.5" ry="2.5" style="stroke:#181818;stroke-width:0.5;" width="75.9961" x="304" y="229.28"/><text fill="#000000" font-family="Arial" font-size="10" lengthAdjust="spacing" textLength="55.9961" x="314" y="248.5622">AdminView</text></g><!--entity LV--><g class="entity" data-qualified-name="VISTAS.LV" data-source-line="21" id="ent0011"><rect fill="#629EF9" height="31.6406" rx="2.5" ry="2.5" style="stroke:#181818;stroke-width:0.5;" width="71.1035" x="415.45" y="229.28"/><text fill="#000000" font-family="Arial" font-size="10" lengthAdjust="spacing" textLength="51.1035" x="425.45" y="248.5622">LoginView</text></g><!--entity RC--><g class="entity" data-qualified-name="CONTROL.RC" data-source-line="27" id="ent0013"><rect fill="#B5BD68" height="31.6406" rx="2.5" ry="2.5" style="stroke:#181818;stroke-width:0.5;" width="110.0293" x="715.99" y="137.64"/><text fill="#000000" font-family="Arial" font-size="10" lengthAdjust="spacing" textLength="90.0293" x="725.99" y="156.9222">ReservaController</text></g><!--entity CC--><g class="entity" data-qualified-name="CONTROL.CC" data-source-line="28" id="ent0014"><rect fill="#B5BD68" height="31.6406" rx="2.5" ry="2.5" style="stroke:#181818;stroke-width:0.5;" width="102.9883" x="861.51" y="137.64"/><text fill="#000000" font-family="Arial" font-size="10" lengthAdjust="spacing" textLength="82.9883" x="871.51" y="156.9222">CesionController</text></g><!--entity VC--><g class="entity" data-qualified-name="CONTROL.VC" data-source-line="29" id="ent0015"><rect fill="#B5BD68" height="31.6406" rx="2.5" ry="2.5" style="stroke:#181818;stroke-width:0.5;" width="113.4766" x="999.26" y="137.64"/><text fill="#000000" font-family="Arial" font-size="10" lengthAdjust="spacing" textLength="93.4766" x="1009.26" y="156.9222">VisitanteController</text></g><!--entity OC--><g class="entity" data-qualified-name="CONTROL.OC" data-source-line="30" id="ent0016"><rect fill="#B5BD68" height="31.6406" rx="2.5" ry="2.5" style="stroke:#181818;stroke-width:0.5;" width="109.5313" x="715.23" y="229.28"/><text fill="#000000" font-family="Arial" font-size="10" lengthAdjust="spacing" textLength="89.5313" x="725.23" y="248.5622">OficinasController</text></g><!--entity AC--><g class="entity" data-qualified-name="CONTROL.AC" data-source-line="31" id="ent0017"><rect fill="#B5BD68" height="31.6406" rx="2.5" ry="2.5" style="stroke:#181818;stroke-width:0.5;" width="114.6924" x="859.65" y="229.28"/><text fill="#000000" font-family="Arial" font-size="10" lengthAdjust="spacing" textLength="94.6924" x="869.65" y="248.5622">AusenciaController</text></g><!--entity TC--><g class="entity" data-qualified-name="CONTROL.TC" data-source-line="32" id="ent0018"><rect fill="#B5BD68" height="31.6406" rx="2.5" ry="2.5" style="stroke:#181818;stroke-width:0.5;" width="103.2275" x="1009.39" y="229.28"/><text fill="#000000" font-family="Arial" font-size="10" lengthAdjust="spacing" textLength="83.2275" x="1019.39" y="248.5622">TablonController</text></g><!--entity DC--><g class="entity" data-qualified-name="CONTROL.DC" data-source-line="33" id="ent0019"><rect fill="#B5BD68" height="31.6406" rx="2.5" ry="2.5" style="stroke:#181818;stroke-width:0.5;" width="118.6963" x="714.65" y="362.92"/><text fill="#000000" font-family="Arial" font-size="10" lengthAdjust="spacing" textLength="98.6963" x="724.65" y="382.2022">DirectorioController</text></g><!--entity ADMC--><g class="entity" data-qualified-name="CONTROL.ADMC" data-source-line="34" id="ent0020"><rect fill="#B5BD68" height="31.6406" rx="2.5" ry="2.5" style="stroke:#181818;stroke-width:0.5;" width="101.4551" x="868.27" y="362.92"/><text fill="#000000" font-family="Arial" font-size="10" lengthAdjust="spacing" textLength="81.4551" x="878.27" y="382.2022">AdminController</text></g><!--entity AUC--><g class="entity" data-qualified-name="CONTROL.AUC" data-source-line="35" id="ent0021"><rect fill="#B5BD68" height="31.6406" rx="2.5" ry="2.5" style="stroke:#181818;stroke-width:0.5;" width="92.8467" x="1004.58" y="362.92"/><text fill="#000000" font-family="Arial" font-size="10" lengthAdjust="spacing" textLength="72.8467" x="1014.58" y="382.2022">AuthController</text></g><!--entity PR--><g class="entity" data-qualified-name="ENTIDADES.PR" data-source-line="41" id="ent0023"><rect fill="#F2AC4E" height="31.6406" rx="2.5" ry="2.5" style="stroke:#181818;stroke-width:0.5;" width="99.9365" x="46.03" y="362.92"/><text fill="#000000" font-family="Arial" font-size="10" lengthAdjust="spacing" textLength="79.9365" x="56.03" y="382.2022">PlazaRepository</text></g><!--entity RR--><g class="entity" data-qualified-name="ENTIDADES.RR" data-source-line="42" id="ent0024"><rect fill="#F2AC4E" height="31.6406" rx="2.5" ry="2.5" style="stroke:#181818;stroke-width:0.5;" width="114.2432" x="180.88" y="362.92"/><text fill="#000000" font-family="Arial" font-size="10" lengthAdjust="spacing" textLength="94.2432" x="190.88" y="382.2022">ReservaRepository</text></g><!--entity CR--><g class="entity" data-qualified-name="ENTIDADES.CR" data-source-line="43" id="ent0025"><rect fill="#F2AC4E" height="31.6406" rx="2.5" ry="2.5" style="stroke:#181818;stroke-width:0.5;" width="107.2021" x="330.4" y="362.92"/><text fill="#000000" font-family="Arial" font-size="10" lengthAdjust="spacing" textLength="87.2021" x="340.4" y="382.2022">CesionRepository</text></g><!--entity VR--><g class="entity" data-qualified-name="ENTIDADES.VR" data-source-line="44" id="ent0026"><rect fill="#F2AC4E" height="31.6406" rx="2.5" ry="2.5" style="stroke:#181818;stroke-width:0.5;" width="117.6904" x="472.15" y="362.92"/><text fill="#000000" font-family="Arial" font-size="10" lengthAdjust="spacing" textLength="97.6904" x="482.15" y="382.2022">VisitanteRepository</text></g><!--entity SR--><g class="entity" data-qualified-name="ENTIDADES.SR" data-source-line="45" id="ent0027"><rect fill="#F2AC4E" height="31.6406" rx="2.5" ry="2.5" style="stroke:#181818;stroke-width:0.5;" width="116.5283" x="29.74" y="496.56"/><text fill="#000000" font-family="Arial" font-size="10" lengthAdjust="spacing" textLength="96.5283" x="39.74" y="515.8422">SolicitudRepository</text></g><!--entity AR--><g class="entity" data-qualified-name="ENTIDADES.AR" data-source-line="46" id="ent0028"><rect fill="#F2AC4E" height="31.6406" rx="2.5" ry="2.5" style="stroke:#181818;stroke-width:0.5;" width="113.8721" x="181.06" y="496.56"/><text fill="#000000" font-family="Arial" font-size="10" lengthAdjust="spacing" textLength="93.8721" x="191.06" y="515.8422">AnuncioRepository</text></g><!--entity ER--><g class="entity" data-qualified-name="ENTIDADES.ER" data-source-line="47" id="ent0029"><rect fill="#F2AC4E" height="31.6406" rx="2.5" ry="2.5" style="stroke:#181818;stroke-width:0.5;" width="123.5547" x="330.22" y="496.56"/><text fill="#000000" font-family="Arial" font-size="10" lengthAdjust="spacing" textLength="103.5547" x="340.22" y="515.8422">EmpleadoRepository</text></g><!--entity ENR--><g class="entity" data-qualified-name="ENTIDADES.ENR" data-source-line="48" id="ent0030"><rect fill="#F2AC4E" height="31.6406" rx="2.5" ry="2.5" style="stroke:#181818;stroke-width:0.5;" width="111.8018" x="489.1" y="496.56"/><text fill="#000000" font-family="Arial" font-size="10" lengthAdjust="spacing" textLength="91.8018" x="499.1" y="515.8422">EntidadRepository</text></g><!--entity UR--><g class="entity" data-qualified-name="ENTIDADES.UR" data-source-line="49" id="ent0031"><rect fill="#F2AC4E" height="31.6406" rx="2.5" ry="2.5" style="stroke:#181818;stroke-width:0.5;" width="111.626" x="32.19" y="588.2"/><text fill="#000000" font-family="Arial" font-size="10" lengthAdjust="spacing" textLength="91.626" x="42.19" y="607.4822">UsuarioRepository</text></g><!--entity CFR--><g class="entity" data-qualified-name="ENTIDADES.CFR" data-source-line="50" id="ent0032"><rect fill="#F2AC4E" height="31.6406" rx="2.5" ry="2.5" style="stroke:#181818;stroke-width:0.5;" width="168.5449" x="178.73" y="588.2"/><text fill="#000000" font-family="Arial" font-size="10" lengthAdjust="spacing" textLength="148.5449" x="188.73" y="607.4822">CalendarioFestivosRepository</text></g><!--entity NS--><g class="entity" data-qualified-name="ENTIDADES.NS" data-source-line="51" id="ent0033"><rect fill="#F2AC4E" height="31.6406" rx="2.5" ry="2.5" style="stroke:#181818;stroke-width:0.5;" width="115.9131" x="382.04" y="588.2"/><text fill="#000000" font-family="Arial" font-size="10" lengthAdjust="spacing" textLength="95.9131" x="392.04" y="607.4822">NotificacionService</text></g><!--entity PZ--><g class="entity" data-qualified-name="DOMINIO.PZ" data-source-line="57" id="ent0035"><rect fill="#F2AC4E" height="31.6406" rx="2.5" ry="2.5" style="stroke:#181818;stroke-width:0.5;" width="46.3135" x="710.84" y="496.56"/><text fill="#000000" font-family="Arial" font-size="10" lengthAdjust="spacing" textLength="26.3135" x="720.84" y="515.8422">Plaza</text></g><!--entity RS--><g class="entity" data-qualified-name="DOMINIO.RS" data-source-line="58" id="ent0036"><rect fill="#F2AC4E" height="31.6406" rx="2.5" ry="2.5" style="stroke:#181818;stroke-width:0.5;" width="60.6201" x="791.69" y="496.56"/><text fill="#000000" font-family="Arial" font-size="10" lengthAdjust="spacing" textLength="40.6201" x="801.69" y="515.8422">Reserva</text></g><!--entity CS--><g class="entity" data-qualified-name="DOMINIO.CS" data-source-line="59" id="ent0037"><rect fill="#F2AC4E" height="31.6406" rx="2.5" ry="2.5" style="stroke:#181818;stroke-width:0.5;" width="53.5791" x="887.21" y="496.56"/><text fill="#000000" font-family="Arial" font-size="10" lengthAdjust="spacing" textLength="33.5791" x="897.21" y="515.8422">Cesion</text></g><!--entity RV--><g class="entity" data-qualified-name="DOMINIO.RV" data-source-line="60" id="ent0038"><rect fill="#F2AC4E" height="31.6406" rx="2.5" ry="2.5" style="stroke:#181818;stroke-width:0.5;" width="104.6875" x="696.66" y="588.2"/><text fill="#000000" font-family="Arial" font-size="10" lengthAdjust="spacing" textLength="84.6875" x="706.66" y="607.4822">ReservaVisitante</text></g><!--entity SA--><g class="entity" data-qualified-name="DOMINIO.SA" data-source-line="61" id="ent0039"><rect fill="#F2AC4E" height="31.6406" rx="2.5" ry="2.5" style="stroke:#181818;stroke-width:0.5;" width="108.1885" x="835.91" y="588.2"/><text fill="#000000" font-family="Arial" font-size="10" lengthAdjust="spacing" textLength="88.1885" x="845.91" y="607.4822">SolicitudAusencia</text></g><!--entity AN--><g class="entity" data-qualified-name="DOMINIO.AN" data-source-line="62" id="ent0040"><rect fill="#F2AC4E" height="31.6406" rx="2.5" ry="2.5" style="stroke:#181818;stroke-width:0.5;" width="60.249" x="978.88" y="588.2"/><text fill="#000000" font-family="Arial" font-size="10" lengthAdjust="spacing" textLength="40.249" x="988.88" y="607.4822">Anuncio</text></g><!--entity EM--><g class="entity" data-qualified-name="DOMINIO.EM" data-source-line="63" id="ent0041"><rect fill="#F2AC4E" height="31.6406" rx="2.5" ry="2.5" style="stroke:#181818;stroke-width:0.5;" width="69.9316" x="714.03" y="679.84"/><text fill="#000000" font-family="Arial" font-size="10" lengthAdjust="spacing" textLength="49.9316" x="724.03" y="699.1222">Empleado</text></g><!--entity EN--><g class="entity" data-qualified-name="DOMINIO.EN" data-source-line="64" id="ent0042"><rect fill="#F2AC4E" height="31.6406" rx="2.5" ry="2.5" style="stroke:#181818;stroke-width:0.5;" width="58.1787" x="818.91" y="679.84"/><text fill="#000000" font-family="Arial" font-size="10" lengthAdjust="spacing" textLength="38.1787" x="828.91" y="699.1222">Entidad</text></g><!--entity CF--><g class="entity" data-qualified-name="DOMINIO.CF" data-source-line="65" id="ent0043"><rect fill="#F2AC4E" height="31.6406" rx="2.5" ry="2.5" style="stroke:#181818;stroke-width:0.5;" width="114.9219" x="912.54" y="679.84"/><text fill="#000000" font-family="Arial" font-size="10" lengthAdjust="spacing" textLength="94.9219" x="922.54" y="699.1222">CalendarioFestivos</text></g><!--link VISTAS to CONTROL--><!--link CONTROL to ENTIDADES--><!--link ENTIDADES to DOMINIO--><?plantuml-src rPVTRjem68RFSnLMUZ09gLFRZQezcPJcHq8g0H6QWqqxCEGhU3KsYashTfgqYzWLxafcGqYJuY_TAL5EWlFa-_7xsaOzCB6c9LqHpWJevpMGjUJFzi5JzLW1ztJ3TIA5JkaAI50oojtZ6Ni1SdxM65pJ-GDTm8qi2oYdIpP_4A0KEV_ORxoabhIGJqmio3tb2hmbAu0e3IL8cvJdQRacMfAPr5gQWAo4kMPIUDu7ylVFRtEJd2bDLVLqxBVdLMqZVg_tkAsir_E9gIyVPDCW8oTnc7nAGlBJ8yJsWee51t9oUN4T9zV43oa7KT2IoJ4jJPSNEOCddzZBV2CSvmW6oZJrzTt6PJ64CfrdvZSDXw1DE7ylnT4zcpD1LOtRM2C4kw6YW1yqazn0UbD02xl946nAPnolR8fGqLPdqkHuG1egGgYWM35tA4i527Kh5ntKRUxzQeWzD5Oh9JUcAU48DT-IzxnPIwNoS9HE9wDR8_Ehv2mwaFciFoikhuW_0GNb8wswmQ7qcpsRX6vgft8Nj0sDKBNA3q6hSeJQQziHpL0ZX0es2iISKJSL8DHEurXTKuHwrVW1QJMEPMWrxWorpJ0QefNffHlRSdTXI-QnqAoW1HpvijwIE-nhggGUfzD154InMTEJA3cFuhTYJow2y7DC_36dBtG2QsbqACldDoqVJznKPH4NPos2K3kBE8DPYo1KRP53q5e4eUgbt4bb21M8ZN68HEeA42fUhJcObSQ1sQd0gDsK8R7Y5C7krCPkRmXsXxM-tXSJK9ezIjNyWEr-Wf2frCmiDzIqHMHcqjaS6erCivQrXh80BitHZPD26YypIOxCI5NQbOsYqN2G3aQc6tspO_GxJNIum-vDzBNJHBwRccHT9lAHM67M6QlsKjjwa_mT4-stZfRMig3JH4XTGTfj8jz9nSDE4o6nulH_tT0qR9XOJLT7ujFYc_dRK83uVlfbVu3mzWU9rc2zv7glYs_hXKfC_m00?></g></svg>