<?xml version="1.0" encoding="us-ascii" standalone="no"?><svg xmlns="http://www.w3.org/2000/svg" xmlns:xlink="http://www.w3.org/1999/xlink" contentStyleType="text/css" height="699px" preserveAspectRatio="none" style="width:1442px;height:699px;background:#FFFFFF;" version="1.1" viewBox="0 0 1442 699" width="1442px" zoomAndPan="magnify"><defs/><g><text fill="#000000" font-family="Arial" font-size="14" font-weight="bold" lengthAdjust="spacing" textLength="170" x="629.25" y="22.6738">Diagrama de despliegue</text><!--cluster Browser--><g id="cluster_Browser"><polygon fill="#DCE8F5" points="90,52.6406,100,42.6406,289,42.6406,289,168.6406,279,178.6406,90,178.6406,90,52.6406" style="stroke:#2D6A9F;stroke-width:1.5;"/><line style="stroke:#2D6A9F;stroke-width:1.5;" x1="279" x2="289" y1="52.6406" y2="42.6406"/><line style="stroke:#2D6A9F;stroke-width:1.5;" x1="90" x2="279" y1="52.6406" y2="52.6406"/><line style="stroke:#2D6A9F;stroke-width:1.5;" x1="279" x2="279" y1="52.6406" y2="178.6406"/><text fill="#000000" font-family="Arial" font-size="11" font-weight="bold" lengthAdjust="spacing" textLength="123" x="124" y="65.5986">Navegador del usuario</text></g><!--cluster VPS--><g id="cluster_VPS"><polygon fill="#DCE8F5" points="16,242.6406,26,232.6406,732,232.6406,732,672.6406,722,682.6406,16,682.6406,16,242.6406" style="stroke:#2D6A9F;stroke-width:1.5;"/><line style="stroke:#2D6A9F;stroke-width:1.5;" x1="722" x2="732" y1="242.6406" y2="232.6406"/><line style="stroke:#2D6A9F;stroke-width:1.5;" x1="16" x2="722" y1="242.6406" y2="242.6406"/><line style="stroke:#2D6A9F;stroke-width:1.5;" x1="722" x2="722" y1="242.6406" y2="682.6406"/><text fill="#000000" font-family="Arial" font-size="11" font-weight="bold" lengthAdjust="spacing" textLength="122" x="309" y="255.5986">Servidor VPS (Ubuntu)</text></g><!--cluster Docker--><g id="cluster_Docker"><polygon fill="#DCE8F5" points="48,294.6406,58,284.6406,552,284.6406,552,640.6406,542,650.6406,48,650.6406,48,294.6406" style="stroke:#2D6A9F;stroke-width:1.5;"/><line style="stroke:#2D6A9F;stroke-width:1.5;" x1="542" x2="552" y1="294.6406" y2="284.6406"/><line style="stroke:#2D6A9F;stroke-width:1.5;" x1="48" x2="542" y1="294.6406" y2="294.6406"/><line style="stroke:#2D6A9F;stroke-width:1.5;" x1="542" x2="542" y1="294.6406" y2="650.6406"/><text fill="#000000" font-family="Arial" font-size="11" font-weight="bold" lengthAdjust="spacing" textLength="105" x="243.5" y="307.5986">Red Docker interna</text></g><!--cluster NextJS--><g id="cluster_NextJS"><polygon fill="#DCE8F5" points="96,354.6406,106,344.6406,512,344.6406,512,494.6406,502,504.6406,96,504.6406,96,354.6406" style="stroke:#2D6A9F;stroke-width:1.5;"/><line style="stroke:#2D6A9F;stroke-width:1.5;" x1="502" x2="512" y1="354.6406" y2="344.6406"/><line style="stroke:#2D6A9F;stroke-width:1.5;" x1="96" x2="502" y1="354.6406" y2="354.6406"/><line style="stroke:#2D6A9F;stroke-width:1.5;" x1="502" x2="502" y1="354.6406" y2="504.6406"/><text fill="#000000" font-family="Arial" font-size="11" font-weight="bold" lengthAdjust="spacing" textLength="106" x="247" y="367.5986">Contenedor Next.js</text><text fill="#000000" font-family="Arial" font-size="11" font-weight="bold" lengthAdjust="spacing" textLength="134" x="233" y="379.8877">(Node.js 20, puerto 3000)</text></g><!--cluster M365--><g id="cluster_M365"><path d="M772.3753,393.0942 C778.1568,384.2686 787.911,382.7321 793.8203,392.9503 C799.3288,384.1611 809.2535,382.3435 814.4094,393.3176 C821.1605,380.3801 829.0476,379.669 837.7739,391.4507 C843.2639,382.4462 849.1991,379.9538 856.5517,389.5727 C864.5915,376.6577 872.9541,378.9906 880.7698,389.8015 C885.7273,379.6865 895.4603,379.4317 900.5672,389.656 C907.5296,380.8646 913.5526,382.756 919.5693,390.7279 C926.086,379.4049 934.9184,378.0739 942.5941,389.5578 C950.9885,379.1032 958.8315,379.9625 965.7672,391.1218 C973.3803,381.2782 979.7956,382.4212 987.0241,391.5526 C993.0466,382.7933 1002.1162,380.9743 1007.8129,391.8968 C1014.7092,381.4242 1023.3599,380.9289 1029.3364,392.7834 C1034.4801,384.3211 1043.3773,383.1713 1049.3077,391.8677 C1059.8336,380.054 1070.7818,384.1196 1075,398.1406 C1076.6565,397.0786 1077.8203,397.2946 1078.14,399.4466 C1089.4115,405.9753 1090.0903,413.032 1080.8378,422.0143 C1093.2763,425.6469 1094.8818,433.2731 1086.479,442.6132 C1097.1231,453.5545 1094.9906,461.0716 1080.7757,465.9332 C1091.1422,479.3395 1083.2195,491.2072 1068,492.1406 C1069.9647,491.6215 1071.3514,493.0554 1070.8565,494.9964 C1064.668,505.4466 1057.5714,506.5473 1050.507,495.8388 C1041.9529,504.9659 1034.6943,507.0086 1027.511,494.3892 C1019.8925,503.1211 1013.8461,502.0912 1007.4573,493.0051 C1002.451,503.0385 993.023,504.4126 986.8539,494.1877 C979.1947,504.736 970.1002,506.2738 963.2176,493.4038 C956.1353,504.1337 947.9587,503.5396 940.8097,493.4756 C935.3651,502.139 928.0112,503.9537 921.4349,494.6995 C914.3617,502.4812 907.396,504.5796 901.536,493.4247 C895.4721,503.8277 888.0745,503.1879 881.1572,494.3276 C874.6483,506.4031 862.8701,506.1687 857.6342,493.1351 C852.3495,503.7815 844.8887,503.5707 838.2908,494.418 C832.6148,507.1981 820.6291,508.4848 813.5369,495.7944 C806.7859,502.5943 800.4356,501.7837 795.3149,493.7867 C780.5424,507.5431 769.9117,503.4765 764,485.1406 C764.4369,484.5411 764.9458,484.6761 765.3043,485.2293 C755.7084,479.5706 756.1789,471.9128 765.3422,466.2915 C754.2964,459.1593 751.7109,450.0801 764.312,441.9473 C754.6525,435.6295 756.3013,425.851 766.9441,422.2455 C754.6118,411.8698 757.3417,398.1272 771,391.1406 C772.2611,391.0551 772.7844,392.0038 772.3753,393.0942 " fill="#EFEFEF" style="stroke:#888888;stroke-width:1.0;"/><text fill="#000000" font-family="Arial" font-size="11" font-weight="bold" lengthAdjust="spacing" textLength="74" x="882.5" y="406.0986">Microsoft 365</text></g><!--cluster ResendCloud--><g id="cluster_ResendCloud"><path d="M1123.6624,399.0699 C1126.9007,392.1648 1132.0188,392.5994 1136.5254,397.7124 C1139.344,391.4516 1143.8543,390.6845 1148.5469,395.7179 C1151.1932,389.3279 1154.9289,387.8087 1160.5356,392.5211 C1163.2535,385.7474 1167.7065,385.6475 1172.0313,390.9975 C1177.6412,385.8646 1182.424,385.628 1186.1593,393.0989 C1191.1452,387.7193 1196.2739,389.2588 1199.1097,395.4958 C1202.8526,390.4358 1207.7978,392.1015 1209.8698,397.2559 C1220.511,389.3418 1226.2947,391.9967 1229,404.6406 C1229.8469,404.4205 1230.3879,404.6479 1230.3614,405.6298 C1237.2391,407.8018 1236.7541,413.0054 1232.5818,417.2828 C1240.4991,419.4599 1240.9029,425.9761 1235.8745,431.2131 C1241.4264,433.3846 1242.6575,439.1905 1238.417,443.4042 C1244.188,448.5326 1242.2858,454.3409 1235.0615,456.0102 C1240.1352,460.8531 1237.9925,464.6005 1232.6993,467.2682 C1237.3586,476.3694 1232.3119,485.258 1222,485.6406 C1223.0691,484.9394 1223.9183,485.5555 1223.9303,486.729 C1220.3836,493.8987 1214.9147,492.6403 1210.9624,487.1443 C1207.8341,494.2922 1203.9371,495.3264 1197.9664,490.1392 C1194.7675,495.875 1188.4973,495.3481 1185.3415,490.0897 C1181.136,496.0848 1177.0803,496.0893 1172.2463,490.8202 C1167.8226,495.5167 1163.6723,495.7994 1160.3647,489.6028 C1156.525,495.2539 1151.1909,495.9933 1147.3853,489.5662 C1143.5289,495.8642 1138.0192,494.5717 1134.7333,488.96 C1123.0308,496.0753 1116.183,491.6413 1115,478.6406 C1115.3141,478.7926 1115.2823,479.0193 1115.0358,479.2067 C1109.2032,476.097 1107.1294,472.0887 1112.5907,466.7602 C1106.408,464.6897 1104.9543,459.3214 1108.9478,454.2803 C1103.6096,452.6271 1101.6284,447.2998 1105.8764,443.0296 C1101.0088,437.6812 1103.1261,432.9039 1109.4103,430.7701 C1103.9848,425.3548 1104.9837,419.2001 1112.9786,417.3542 C1106.9364,407.4834 1110.962,399.6951 1122,397.6406 C1123.1904,397.1079 1123.8749,397.9708 1123.6624,399.0699 " fill="#EFEFEF" style="stroke:#888888;stroke-width:1.0;"/><text fill="#000000" font-family="Arial" font-size="11" font-weight="bold" lengthAdjust="spacing" textLength="42" x="1151" y="412.5986">Resend</text></g><!--entity Client--><g id="elem_Client"><rect fill="#F1F1F1" height="47.5781" rx="2.5" ry="2.5" style="stroke:#181818;stroke-width:0.5;" width="119" x="142.5" y="106.6406"/><polygon fill="#F1F1F1" points="244.5,111.6406,244.5,125.6406,256.5,125.6406,256.5,117.6406,250.5,111.6406,244.5,111.6406" style="stroke:#181818;stroke-width:0.5;"/><line style="stroke:#181818;stroke-width:0.5;" x1="250.5" x2="250.5" y1="111.6406" y2="117.6406"/><line style="stroke:#181818;stroke-width:0.5;" x1="256.5" x2="250.5" y1="117.6406" y2="117.6406"/><text fill="#000000" font-family="Arial" font-size="11" lengthAdjust="spacing" textLength="84" x="152.5" y="129.5986">Aplicaci&#243;n cliente</text><text fill="#000000" font-family="Arial" font-size="11" lengthAdjust="spacing" textLength="89" x="152.5" y="141.8877">(Next.js hydration)</text></g><!--entity CICD--><g id="elem_CICD"><rect fill="#F1F1F1" height="35.2891" rx="2.5" ry="2.5" style="stroke:#181818;stroke-width:0.5;" width="139" x="576.5" y="582.1406"/><polygon fill="#F1F1F1" points="698.5,587.1406,698.5,601.1406,710.5,601.1406,710.5,593.1406,704.5,587.1406,698.5,587.1406" style="stroke:#181818;stroke-width:0.5;"/><line style="stroke:#181818;stroke-width:0.5;" x1="704.5" x2="704.5" y1="587.1406" y2="593.1406"/><line style="stroke:#181818;stroke-width:0.5;" x1="710.5" x2="704.5" y1="593.1406" y2="593.1406"/><text fill="#000000" font-family="Arial" font-size="11" lengthAdjust="spacing" textLength="109" x="586.5" y="605.0986">CI/CD (GitHub Actions)</text></g><!--entity PG--><g id="elem_PG"><path d="M80,582.6406 C80,572.6406 156,572.6406 156,572.6406 C156,572.6406 232,572.6406 232,582.6406 L232,616.2188 C232,626.2188 156,626.2188 156,626.2188 C156,626.2188 80,626.2188 80,616.2188 L80,582.6406 " fill="#D5ECD4" style="stroke:#2E7D32;stroke-width:0.5;"/><path d="M80,582.6406 C80,592.6406 156,592.6406 156,592.6406 C156,592.6406 232,592.6406 232,582.6406 " fill="none" style="stroke:#2E7D32;stroke-width:0.5;"/><text fill="#000000" font-family="Arial" font-size="11" lengthAdjust="spacing" textLength="132" x="90" y="606.5986">Contenedor PostgreSQL 16</text><text fill="#000000" font-family="Arial" font-size="11" lengthAdjust="spacing" textLength="117" x="90" y="618.8877">(sin exposici&#243;n exterior)</text></g><!--entity RSC--><g id="elem_RSC"><rect fill="#F1F1F1" height="35.2891" rx="2.5" ry="2.5" style="stroke:#181818;stroke-width:0.5;" width="177" x="310.5" y="439.1406"/><polygon fill="#F1F1F1" points="470.5,444.1406,470.5,458.1406,482.5,458.1406,482.5,450.1406,476.5,444.1406,470.5,444.1406" style="stroke:#181818;stroke-width:0.5;"/><line style="stroke:#181818;stroke-width:0.5;" x1="476.5" x2="476.5" y1="444.1406" y2="450.1406"/><line style="stroke:#181818;stroke-width:0.5;" x1="482.5" x2="476.5" y1="450.1406" y2="450.1406"/><text fill="#000000" font-family="Arial" font-size="11" lengthAdjust="spacing" textLength="147" x="320.5" y="462.0986">P&#225;ginas RSC + Server Actions</text></g><!--entity API--><g id="elem_API"><rect fill="#F1F1F1" height="47.5781" rx="2.5" ry="2.5" style="stroke:#181818;stroke-width:0.5;" width="136" x="139" y="432.6406"/><polygon fill="#F1F1F1" points="258,437.6406,258,451.6406,270,451.6406,270,443.6406,264,437.6406,258,437.6406" style="stroke:#181818;stroke-width:0.5;"/><line style="stroke:#181818;stroke-width:0.5;" x1="264" x2="264" y1="437.6406" y2="443.6406"/><line style="stroke:#181818;stroke-width:0.5;" x1="270" x2="264" y1="443.6406" y2="443.6406"/><text fill="#000000" font-family="Arial" font-size="11" lengthAdjust="spacing" textLength="47" x="149" y="455.5986">Rutas API</text><text fill="#000000" font-family="Arial" font-size="11" lengthAdjust="spacing" textLength="106" x="149" y="467.8877">(/api/auth, webhooks)</text></g><!--entity EntraID--><g id="elem_EntraID"><polygon fill="#DCE8F5" points="943,439.1406,953,429.1406,1067,429.1406,1067,473.7188,1057,483.7188,943,483.7188,943,439.1406" style="stroke:#2D6A9F;stroke-width:1.5;"/><line style="stroke:#2D6A9F;stroke-width:1.5;" x1="1057" x2="1067" y1="439.1406" y2="429.1406"/><line style="stroke:#2D6A9F;stroke-width:1.5;" x1="943" x2="1057" y1="439.1406" y2="439.1406"/><line style="stroke:#2D6A9F;stroke-width:1.5;" x1="1057" x2="1057" y1="439.1406" y2="483.7188"/><text fill="#000000" font-family="Arial" font-size="11" lengthAdjust="spacing" textLength="37" x="958" y="459.0986">Entra ID</text><text fill="#000000" font-family="Arial" font-size="11" lengthAdjust="spacing" textLength="84" x="958" y="471.3877">(OAuth 2.0/OIDC)</text></g><!--entity Graph--><g id="elem_Graph"><polygon fill="#DCE8F5" points="772,439.1406,782,429.1406,908,429.1406,908,473.7188,898,483.7188,772,483.7188,772,439.1406" style="stroke:#2D6A9F;stroke-width:1.5;"/><line style="stroke:#2D6A9F;stroke-width:1.5;" x1="898" x2="908" y1="439.1406" y2="429.1406"/><line style="stroke:#2D6A9F;stroke-width:1.5;" x1="772" x2="898" y1="439.1406" y2="439.1406"/><line style="stroke:#2D6A9F;stroke-width:1.5;" x1="898" x2="898" y1="439.1406" y2="483.7188"/><text fill="#000000" font-family="Arial" font-size="11" lengthAdjust="spacing" textLength="49" x="787" y="459.0986">Graph API</text><text fill="#000000" font-family="Arial" font-size="11" lengthAdjust="spacing" textLength="96" x="787" y="471.3877">(calendario, Teams)</text></g><!--entity Resend--><g id="elem_Resend"><polygon fill="#DCE8F5" points="1123,445.6406,1133,435.6406,1221,435.6406,1221,467.9297,1211,477.9297,1123,477.9297,1123,445.6406" style="stroke:#2D6A9F;stroke-width:1.5;"/><line style="stroke:#2D6A9F;stroke-width:1.5;" x1="1211" x2="1221" y1="445.6406" y2="435.6406"/><line style="stroke:#2D6A9F;stroke-width:1.5;" x1="1123" x2="1211" y1="445.6406" y2="445.6406"/><line style="stroke:#2D6A9F;stroke-width:1.5;" x1="1211" x2="1211" y1="445.6406" y2="477.9297"/><text fill="#000000" font-family="Arial" font-size="11" lengthAdjust="spacing" textLength="58" x="1138" y="465.5986">API de email</text></g><g id="elem_GMN23"><path d="M1256.5,427.1406 L1256.5,486.2969 L1435.5,486.2969 L1435.5,437.1406 L1425.5,427.1406 L1256.5,427.1406 " fill="#FEFFDD" style="stroke:#181818;stroke-width:0.5;"/><path d="M1425.5,427.1406 L1425.5,437.1406 L1435.5,437.1406 L1425.5,427.1406 " fill="#FEFFDD" style="stroke:#181818;stroke-width:1.0;"/><text fill="#000000" font-family="Arial" font-size="11" lengthAdjust="spacing" textLength="158" x="1262.5" y="442.0986">Ambos contenedores comparten</text><text fill="#000000" font-family="Arial" font-size="11" lengthAdjust="spacing" textLength="103" x="1262.5" y="454.3877">la red interna Docker.</text><text fill="#000000" font-family="Arial" font-size="11" lengthAdjust="spacing" textLength="145" x="1262.5" y="466.6768">PostgreSQL no est&#225; expuesto</text><text fill="#000000" font-family="Arial" font-size="11" lengthAdjust="spacing" textLength="51" x="1262.5" y="478.9658">al exterior.</text></g><!--link Browser to NextJS--><g id="link_Browser_NextJS"><path d="M104,179.5179 C104,179.9755 104,180.4356 104,180.898 C104,181.823 104,182.7577 104,183.7019 C104,213.9144 104,253.7856 104,293.6556 C104,303.6231 104,313.5905 104,323.407 C104,328.3152 104,333.1856 104,337.9994 C104,339.2029 104,340.4028 104,341.5989 C104,342.1969 104,342.794 104,343.3901 C104,343.6882 104,337.9859 104,338.2835 " fill="none" id="Browser-to-NextJS" style="stroke:#444444;stroke-width:1.2;"/><polygon fill="#444444" points="104,344.2835,108,335.2835,104,339.2835,100,335.2835,104,344.2835" style="stroke:#444444;stroke-width:1.2;"/><text fill="#000000" font-family="Arial" font-size="11" lengthAdjust="spacing" textLength="130" x="105" y="213.5986">HTTPS / nginx (puerto 443)</text></g><!--link NextJS to PG--><g id="link_NextJS_PG"><path d="M108.3025,504.7604 C108.2529,504.9646 108.2018,505.1682 108.1494,505.3714 C107.9398,506.1841 107.708,506.9888 107.4525,507.7837 C106.9416,509.3735 106.3361,510.9241 105.625,512.4209 C104.2027,515.4145 102.3575,518.1931 100,520.6406 C87.76,533.3506 32.83,515.5506 21,528.6406 C16.83,533.2606 17.54,537.4706 21,542.6406 C34.6,563.0006 51.4891,573.9261 74.2791,582.1861 " fill="none" id="NextJS-to-PG" style="stroke:#444444;stroke-width:1.2;"/><polygon fill="#444444" points="79.92,584.2306,72.8216,577.4033,75.2192,582.5269,70.0956,584.9245,79.92,584.2306" style="stroke:#444444;stroke-width:1.2;"/><text fill="#000000" font-family="Arial" font-size="11" lengthAdjust="spacing" textLength="122" x="22" y="539.5986">Drizzle ORM (red interna)</text></g><!--link NextJS to EntraID--><g id="link_NextJS_EntraID"><path d="M103.3689,344.1713 C103.3924,343.8502 103.4161,343.5293 103.4402,343.2088 C103.5365,341.9267 103.6377,340.6494 103.7442,339.3779 C104.5961,329.2062 105.7813,319.4067 107.3956,310.4891 C110.6244,292.6537 115.57,278.3456 123,271.6406 C189.23,211.8606 851.55,222.4806 926,271.6406 C979.48,306.9506 996.0974,380.7419 1001.6674,423.0819 " fill="none" id="NextJS-to-EntraID" style="stroke:#444444;stroke-width:1.2;"/><polygon fill="#444444" points="1002.45,429.0306,1005.242,419.5858,1001.7978,424.0733,997.3103,420.6292,1002.45,429.0306" style="stroke:#444444;stroke-width:1.2;"/><text fill="#000000" font-family="Arial" font-size="11" lengthAdjust="spacing" textLength="109" x="353.5" y="213.5986">SSO (OAuth 2.0/OIDC)</text></g><!--link NextJS to Graph--><g id="link_NextJS_Graph"><path d="M103.3689,344.1713 C103.3924,343.8502 103.4161,343.5293 103.4402,343.2088 C103.5365,341.9267 103.6377,340.6494 103.7442,339.3779 C104.5961,329.2062 105.7813,319.4067 107.3956,310.4891 C110.6244,292.6537 115.57,278.3456 123,271.6406 C248.7,158.1806 340,229.4806 504,271.6406 C623.31,302.3206 740.8359,381.6896 799.5159,425.3396 " fill="none" id="NextJS-to-Graph" style="stroke:#444444;stroke-width:1.2;"/><polygon fill="#444444" points="804.33,428.9206,799.4962,420.3396,800.3182,425.9364,794.7214,426.7584,804.33,428.9206" style="stroke:#444444;stroke-width:1.2;"/><text fill="#000000" font-family="Arial" font-size="11" lengthAdjust="spacing" textLength="62" x="681" y="213.5986">Bearer token</text></g><!--link NextJS to Resend--><g id="link_NextJS_Resend"><path d="M103.3689,344.1713 C103.3924,343.8502 103.4161,343.5293 103.4402,343.2088 C103.5365,341.9267 103.6377,340.6494 103.7442,339.3779 C104.5961,329.2062 105.7813,319.4067 107.3956,310.4891 C110.6244,292.6537 115.57,278.3456 123,271.6406 C202.18,200.1706 992.69,214.8706 1083,271.6406 C1141.39,308.3406 1161.3662,389.3435 1168.1262,429.5935 " fill="none" id="NextJS-to-Resend" style="stroke:#444444;stroke-width:1.2;"/><polygon fill="#444444" points="1169.12,435.5106,1171.5741,425.9724,1168.2918,430.5797,1163.6846,427.2975,1169.12,435.5106" style="stroke:#444444;stroke-width:1.2;"/><text fill="#000000" font-family="Arial" font-size="11" lengthAdjust="spacing" textLength="120" x="526" y="213.5986">API key (email visitantes)</text></g><!--reverse link NextJS to CICD--><g id="link_NextJS_CICD"><path d="M113.8932,510.1619 C114.2796,510.9628 112.7649,507.5013 113.1879,508.2808 C114.034,509.8399 114.955,511.3525 115.9574,512.8032 C117.9622,515.7045 120.2925,518.3581 123,520.6406 C141.02,535.8306 520.84,568.2806 544,572.6406 C557.83,575.2506 572.57,578.6406 586.41,582.1006 " fill="none" id="NextJS-backto-CICD" style="stroke:#444444;stroke-width:1.2;"/><polygon fill="#444444" points="111.4079,504.7008,111.4951,514.5493,113.479,509.2518,118.7765,511.2356,111.4079,504.7008" style="stroke:#444444;stroke-width:1.2;"/><text fill="#000000" font-family="Arial" font-size="11" lengthAdjust="spacing" textLength="96" x="250" y="539.5986">despliegue continuo</text></g><!--link Docker to GMN23--><g id="link_Docker_GMN23"><path d="M47.9661,417.6686 C44.5272,396.9347 41.2969,370.045 41.3438,342.3619 C41.4375,286.9956 54.64,228.4556 105.5,209.6406 C134.52,198.9006 1190.48,198.9006 1219.5,209.6406 C1307.61,242.2406 1334.89,368.4906 1342.88,426.8006 " fill="none" id="Docker-GMN23" style="stroke:#444444;stroke-width:1.2;stroke-dasharray:7.0,7.0;"/></g><!--SRC=[TLJRSjem47ttL-oG5p9Dk0NID0-T0TDGEasWcFQfBy9QGCL8Z2Jdrid7v1lw2VcnhYH3N48DmzZUisVFxXvXLa9kc6Phu3XdUMQlbBGtR8tGrO9baJaKJyGZGhDP2ah5iQSqHprTYdGbqHXerZeb1DDQtPM3hVrWh3AbuQZjhr9mnjBLGgjSyW9nvQzehppyZW1w-rYUuiMyuo9UNNZhhgCMFsSVvj5JcOSposRC_8-hWobl7-J2z_oizIzNcgcS7oR2kViS8hhmboEomcO8VS4MHCPe-lGrcqpW8iSeyWrNRjWjBXYdP8uPv2PdMgWAC0CzcgT1xSipRSMSfHOgNSfFMIfU_aYI9r1Q_2chDtXlQxyCB1-uPbOeUUmfOWzmKaAn1FMjSBL-Z1EeVf_bqkO1wLwuGW4tGGvzbQwekg02MZ8FAbuvt1OPavLGekCiD3Wr579gMeqJsEIehOApHgCHAZdObwGWANSsVdbU24c8IHB3Et1QgLWtTUqOdqg1DrcJt5AaEnvItJhRY3hBxV84xd2sL6fbGaqA-yGd_xjpI5dzM1cxq9Xy-mhDS-8oGWBURvGHOTQa6capEX2E1r5WUnKI3-jn7we3OJ_diwtiOWt3kE-M4EnKkHQfLaRDBPoTTppWccvAu_yahMOmx9ECKPVQWLQjKHyD-t6Wy-5XVmSVQBPP5YD8MOQIEm-Tm1JPkb3W8IK94pG42qFrj_7EwO6Js9nVSSr4Le8vYgqlJxcwawSVjmk5I_WydPADwY1fZ_TGBLRVRfyTHrlGDcay28kyXBuMZuzqJ4QJQwXgCbxXk5AE5ekbfQIYSKfAaX7ip-OjFWp65UaXqoJPgXNAjxZGcyEvjbVu05NVEDmA8omZFUOuSaiahjDyK-evjF1wgY4bHmcPAtVYB8Al06fU71qQRtSzKyR3Wl7GFQpfxuQUAPmnACsWIAjHeEHFgG2DVNbs_ipfJZaVPZk7rYBNZ2iV_GK0]--></g></svg>