<svg xmlns="http://www.w3.org/2000/svg" xmlns:xlink="http://www.w3.org/1999/xlink" contentStyleType="text/css" data-diagram-type="DESCRIPTION" height="712px" preserveAspectRatio="none" style="width:1552px;height:712px;background:#FFFFFF;" version="1.1" viewBox="0 0 1552 712" width="1552px" zoomAndPan="magnify"><?plantuml 1.2026.3?><defs/><g><g class="title" data-source-line="24"><text fill="#000000" font-family="Arial" font-size="14" font-weight="700" lengthAdjust="spacing" textLength="191.9873" x="676.6966" y="22.9951">Diagrama de despliegue</text></g><!--cluster Browser--><g class="cluster" data-qualified-name="Browser" data-source-line="26" id="ent0002"><polygon fill="#DCE8F5" points="280,53.2969,290,43.2969,496,43.2969,496,169.9069,486,179.9069,280,179.9069,280,53.2969" style="stroke:#2D6A9F;stroke-width:1.5;"/><line style="stroke:#2D6A9F;stroke-width:1.5;" x1="486" x2="496" y1="53.2969" y2="43.2969"/><line style="stroke:#2D6A9F;stroke-width:1.5;" x1="280" x2="486" y1="53.2969" y2="53.2969"/><line style="stroke:#2D6A9F;stroke-width:1.5;" x1="486" x2="486" y1="53.2969" y2="179.9069"/><text fill="#000000" font-family="Arial" font-size="11" font-weight="700" lengthAdjust="spacing" textLength="140.5615" x="313.7192" y="66.5073">Navegador del usuario</text></g><!--cluster VPS--><g class="cluster" data-qualified-name="VPS" data-source-line="30" id="ent0004"><polygon fill="#DCE8F5" points="16,243.9069,26,233.9069,776,233.9069,776,677.1269,766,687.1269,16,687.1269,16,243.9069" style="stroke:#2D6A9F;stroke-width:1.5;"/><line style="stroke:#2D6A9F;stroke-width:1.5;" x1="766" x2="776" y1="243.9069" y2="233.9069"/><line style="stroke:#2D6A9F;stroke-width:1.5;" x1="16" x2="766" y1="243.9069" y2="243.9069"/><line style="stroke:#2D6A9F;stroke-width:1.5;" x1="766" x2="766" y1="243.9069" y2="687.1269"/><text fill="#000000" font-family="Arial" font-size="11" font-weight="700" lengthAdjust="spacing" textLength="140.3735" x="321.8132" y="257.1173">Servidor VPS (Ubuntu)</text></g><!--cluster Docker--><g class="cluster" data-qualified-name="VPS.Docker" data-source-line="31" id="ent0005"><polygon fill="#DCE8F5" points="48,295.9069,58,285.9069,582,285.9069,582,645.1269,572,655.1269,48,655.1269,48,295.9069" style="stroke:#2D6A9F;stroke-width:1.5;"/><line style="stroke:#2D6A9F;stroke-width:1.5;" x1="572" x2="582" y1="295.9069" y2="285.9069"/><line style="stroke:#2D6A9F;stroke-width:1.5;" x1="48" x2="572" y1="295.9069" y2="295.9069"/><line style="stroke:#2D6A9F;stroke-width:1.5;" x1="572" x2="572" y1="295.9069" y2="655.1269"/><text fill="#000000" font-family="Arial" font-size="11" font-weight="700" lengthAdjust="spacing" textLength="119.8721" x="251.064" y="309.1173">Red Docker interna</text></g><!--cluster NextJS--><g class="cluster" data-qualified-name="VPS.Docker.NextJS" data-source-line="32" id="ent0006"><polygon fill="#DCE8F5" points="88,355.9069,98,345.9069,534,345.9069,534,498.5169,524,508.5169,88,508.5169,88,355.9069" style="stroke:#2D6A9F;stroke-width:1.5;"/><line style="stroke:#2D6A9F;stroke-width:1.5;" x1="524" x2="534" y1="355.9069" y2="345.9069"/><line style="stroke:#2D6A9F;stroke-width:1.5;" x1="88" x2="524" y1="355.9069" y2="355.9069"/><line style="stroke:#2D6A9F;stroke-width:1.5;" x1="524" x2="524" y1="355.9069" y2="508.5169"/><text fill="#000000" font-family="Arial" font-size="11" font-weight="700" lengthAdjust="spacing" textLength="119.6733" x="247.1633" y="369.1173">Contenedor Next.js</text><text fill="#000000" font-family="Arial" font-size="11" font-weight="700" lengthAdjust="spacing" textLength="159.645" x="227.1775" y="381.922">(Node.js 20, puerto 3000)</text></g><!--cluster M365--><g class="cluster" data-qualified-name="M365" data-source-line="41" id="ent0011"><path d="M819.4009,395.8954 C826.2992,385.482 836.4144,386.4976 841.7265,397.5454 C848.1748,385.6892 857.1982,383.978 865.0883,396.1431 C870.4213,385.3246 880.8281,382.8211 887.9912,394.26 C894.518,385.2675 903.2798,387.3053 908.0722,396.2064 C914.5922,384.3064 925.9665,382.9086 932.4203,396.2702 C936.7586,385.5826 948.2668,381.9924 956.0394,392.4305 C963.2619,382.7612 972.2357,383.6512 978.2865,393.7492 C983.8977,382.639 995.2178,382.7609 1001.3218,393.2231 C1007.2182,382.9206 1017.2798,382.7476 1023.5792,392.782 C1030.9774,382.7367 1039.6461,380.2144 1047.0979,392.726 C1055.9345,381.395 1064.5703,383.1494 1069.9571,395.9887 C1076.8962,386.0497 1086.9282,384.9309 1093.2464,396.6562 C1100.4168,385.6115 1108.2996,384.2525 1116.3695,395.7329 C1128.535,382.6169 1138.7714,384.5662 1145,401.4069 C1146.4866,400.6884 1147.535,401.5522 1147.1119,403.1489 C1169.8033,411.3509 1174.3598,432.4955 1153.9271,447.3471 C1171.7457,469.2132 1162.601,488.0325 1138,496.0169 C1139.5181,496.4261 1139.6389,497.654 1138.733,498.7204 C1132.857,508.5057 1126.5122,510.1961 1118.5823,500.888 C1111.9821,512.508 1102.9723,512.8308 1096.1918,501.0607 C1087.9325,513.1959 1076.5776,513.1572 1069.5605,499.7647 C1065.4492,509.6193 1055.6159,512.0183 1049.0494,502.3432 C1041.2799,516.7741 1032.5642,515.5286 1023.336,503.7757 C1017.8074,514.3443 1010.4167,513.5575 1003.9289,504.7358 C996.9853,515.2537 985.0513,517.6876 977.944,504.9184 C970.9188,513.4517 960.6864,513.3104 956.3533,501.9907 C947.4983,513.6479 940.2207,512.6758 933.0726,500.3348 C925.6349,509.8987 917.2601,510.5103 909.5131,500.7112 C901.0139,510.4977 891.7056,509.3651 884.9527,498.6222 C877.7069,507.2933 871.4731,506.7118 864.6395,498.1367 C857.5961,508.8282 848.4485,509.0429 841.2699,498.284 C827.4823,510.9865 812.4313,509.9041 808,489.0169 C808.9365,488.9593 809.5499,489.5313 809.1488,490.5058 C799.7764,484.6291 798.4393,478.9579 807.481,471.4681 C792.7997,468.3503 791.331,457.7085 799.0364,446.8968 C791.9756,437.7546 793.4426,426.422 807.1943,425.0521 C793.6934,413.0575 796.5243,398.2566 815,394.4069 C816.971,392.7356 818.8647,393.3246 819.4009,395.8954" fill="#EFEFEF" style="stroke:#888888;stroke-width:1;"/><text fill="#000000" font-family="Arial" font-size="11" font-weight="700" lengthAdjust="spacing" textLength="85.1587" x="933.9207" y="409.6173">Microsoft 365</text></g><!--cluster ResendCloud--><g class="cluster" data-qualified-name="ResendCloud" data-source-line="46" id="ent0014"><path d="M1193.2203,402.7503 C1196.6672,397.0067 1200.1522,395.5247 1204.9921,401.3304 C1207.4761,395.8276 1210.6269,394.6571 1215.4442,398.8028 C1217.7916,392.5498 1221.7139,392.0093 1225.884,397.1296 C1228.1809,390.6866 1233.4063,390.1638 1237.8096,394.8783 C1240.4972,388.6224 1245.1768,389.5679 1248.7837,393.9279 C1253.2175,390.9828 1256.4454,391.5635 1258.4141,396.8217 C1262.1452,391.3249 1265.7852,391.0385 1269.542,396.7963 C1273.366,391.1794 1278.1976,392.1704 1280.7328,398.0508 C1284.9593,394.2211 1289.798,394.518 1291.3704,400.8337 C1299.9364,393.9098 1306.9707,398.2046 1309,407.8069 C1309.463,407.5968 1309.7619,407.7513 1309.8374,408.259 C1317.6231,411.132 1318.3524,415.5594 1313.6453,421.9158 C1319.5103,425.6519 1320.5622,429.7271 1314.2576,434.076 C1321.5014,435.5796 1322.4241,439.6473 1318.394,445.3041 C1323.6871,451.3056 1322.2956,456.2327 1314.3375,458.0004 C1320.8495,462.8645 1319.2074,469.0294 1311.7952,471.2146 C1318.9176,481.0198 1312.7953,489.3489 1302,489.6169 C1302.5789,489.7972 1302.6021,490.3483 1302.2006,490.7087 C1299.0647,495.483 1294.7274,495.2823 1292.4185,489.9113 C1289.3453,495.0634 1285.4367,495.7081 1281.3008,491.1248 C1278.728,497.8683 1273.7845,498.0474 1269.6466,492.624 C1266.6832,497.371 1262.7925,498.2768 1259.5504,492.9019 C1256.0915,497.1031 1250.8353,497.1361 1249.0628,491.1634 C1246.4766,498.236 1240.1788,497.673 1236.2621,492.5612 C1233.6066,496.8194 1229.5902,497.1331 1227.164,492.331 C1223.2658,497.7123 1218.9428,498.4295 1215.095,492.2783 C1210.7447,496.4757 1207.4323,495.3932 1204.9188,490.2724 C1194.161,497.5972 1188.1139,495.1805 1185,482.6169 C1185.849,483.089 1185.9491,483.6621 1185.3038,484.3903 C1178.8709,481.5063 1178.7751,476.1347 1184.2627,472.2302 C1176.5509,469.0921 1176.5255,463.7922 1182.5558,458.8952 C1176.7771,456.1807 1175.5012,451.0831 1181.3513,447.1736 C1174.9474,442.1289 1176.9783,435.3121 1184.2543,433.0864 C1178.8866,428.6952 1180.244,424.8536 1185.7578,421.9287 C1176.6828,412.9131 1181.6102,404.0699 1192,400.8069 C1193.2531,400.832 1193.7466,401.6078 1193.2203,402.7503" fill="#EFEFEF" style="stroke:#888888;stroke-width:1;"/><text fill="#000000" font-family="Arial" font-size="11" font-weight="700" lengthAdjust="spacing" textLength="45.6436" x="1224.1782" y="416.0173">Resend</text></g><!--entity Client--><g class="entity" data-qualified-name="Browser.Client" data-source-line="27" id="ent0003"><rect fill="#F1F1F1" height="48.6094" rx="2.5" ry="2.5" style="stroke:#181818;stroke-width:0.5;" width="132.98" x="311.51" y="107.2969"/><polygon fill="#F1F1F1" points="427.49,112.2969,427.49,126.2969,439.49,126.2969,439.49,118.2969,433.49,112.2969,427.49,112.2969" style="stroke:#181818;stroke-width:0.5;"/><line style="stroke:#181818;stroke-width:0.5;" x1="433.49" x2="433.49" y1="112.2969" y2="118.2969"/><line style="stroke:#181818;stroke-width:0.5;" x1="439.49" x2="433.49" y1="118.2969" y2="118.2969"/><text fill="#000000" font-family="Arial" font-size="11" lengthAdjust="spacing" textLength="96.6904" x="321.51" y="130.5073">Aplicaci&#243;n cliente</text><text fill="#000000" font-family="Arial" font-size="11" lengthAdjust="spacing" textLength="102.98" x="321.51" y="143.312">(Next.js hydration)</text></g><!--entity CICD--><g class="entity" data-qualified-name="VPS.CICD" data-source-line="38" id="ent0010"><rect fill="#F1F1F1" height="35.8047" rx="2.5" ry="2.5" style="stroke:#181818;stroke-width:0.5;" width="154.8511" x="605.57" y="585.9169"/><polygon fill="#F1F1F1" points="743.4211,590.9169,743.4211,604.9169,755.4211,604.9169,755.4211,596.9169,749.4211,590.9169,743.4211,590.9169" style="stroke:#181818;stroke-width:0.5;"/><line style="stroke:#181818;stroke-width:0.5;" x1="749.4211" x2="749.4211" y1="590.9169" y2="596.9169"/><line style="stroke:#181818;stroke-width:0.5;" x1="755.4211" x2="749.4211" y1="596.9169" y2="596.9169"/><text fill="#000000" font-family="Arial" font-size="11" lengthAdjust="spacing" textLength="124.8511" x="615.57" y="609.1273">CI/CD (GitHub Actions)</text></g><!--entity PG--><g class="entity" data-qualified-name="VPS.Docker.PG" data-source-line="36" id="ent0009"><path d="M324.56,586.5169 C324.56,576.5169 408.998,576.5169 408.998,576.5169 C408.998,576.5169 493.436,576.5169 493.436,586.5169 L493.436,621.1263 C493.436,631.1263 408.998,631.1263 408.998,631.1263 C408.998,631.1263 324.56,631.1263 324.56,621.1263 L324.56,586.5169" fill="#D5ECD4" style="stroke:#2E7D32;stroke-width:0.5;"/><path d="M324.56,586.5169 C324.56,596.5169 408.998,596.5169 408.998,596.5169 C408.998,596.5169 493.436,596.5169 493.436,586.5169" fill="none" style="stroke:#2E7D32;stroke-width:0.5;"/><text fill="#000000" font-family="Arial" font-size="11" lengthAdjust="spacing" textLength="148.876" x="334.56" y="610.7273">Contenedor PostgreSQL 16</text><text fill="#000000" font-family="Arial" font-size="11" lengthAdjust="spacing" textLength="133.1064" x="334.56" y="623.532">(sin exposici&#243;n exterior)</text></g><!--entity RSC--><g class="entity" data-qualified-name="VPS.Docker.NextJS.RSC" data-source-line="33" id="ent0007"><rect fill="#F1F1F1" height="35.8047" rx="2.5" ry="2.5" style="stroke:#181818;stroke-width:0.5;" width="194.812" x="111.59" y="442.3069"/><polygon fill="#F1F1F1" points="289.402,447.3069,289.402,461.3069,301.402,461.3069,301.402,453.3069,295.402,447.3069,289.402,447.3069" style="stroke:#181818;stroke-width:0.5;"/><line style="stroke:#181818;stroke-width:0.5;" x1="295.402" x2="295.402" y1="447.3069" y2="453.3069"/><line style="stroke:#181818;stroke-width:0.5;" x1="301.402" x2="295.402" y1="453.3069" y2="453.3069"/><text fill="#000000" font-family="Arial" font-size="11" lengthAdjust="spacing" textLength="164.812" x="121.59" y="465.5173">P&#225;ginas RSC + Server Actions</text></g><!--entity API--><g class="entity" data-qualified-name="VPS.Docker.NextJS.API" data-source-line="34" id="ent0008"><rect fill="#F1F1F1" height="48.6094" rx="2.5" ry="2.5" style="stroke:#181818;stroke-width:0.5;" width="150.0439" x="340.98" y="435.9069"/><polygon fill="#F1F1F1" points="474.0239,440.9069,474.0239,454.9069,486.0239,454.9069,486.0239,446.9069,480.0239,440.9069,474.0239,440.9069" style="stroke:#181818;stroke-width:0.5;"/><line style="stroke:#181818;stroke-width:0.5;" x1="480.0239" x2="480.0239" y1="440.9069" y2="446.9069"/><line style="stroke:#181818;stroke-width:0.5;" x1="486.0239" x2="480.0239" y1="446.9069" y2="446.9069"/><text fill="#000000" font-family="Arial" font-size="11" lengthAdjust="spacing" textLength="52.2983" x="350.98" y="459.1173">Rutas API</text><text fill="#000000" font-family="Arial" font-size="11" lengthAdjust="spacing" textLength="120.0439" x="350.98" y="471.922">(/api/auth, webhooks)</text></g><!--entity EntraID--><g class="entity" data-qualified-name="M365.EntraID" data-source-line="42" id="ent0012"><polygon fill="#DCE8F5" points="816.11,442.4069,826.11,432.4069,951.882,432.4069,951.882,478.0163,941.882,488.0163,816.11,488.0163,816.11,442.4069" style="stroke:#2D6A9F;stroke-width:1.5;"/><line style="stroke:#2D6A9F;stroke-width:1.5;" x1="941.882" x2="951.882" y1="442.4069" y2="432.4069"/><line style="stroke:#2D6A9F;stroke-width:1.5;" x1="816.11" x2="941.882" y1="442.4069" y2="442.4069"/><line style="stroke:#2D6A9F;stroke-width:1.5;" x1="941.882" x2="941.882" y1="442.4069" y2="488.0163"/><text fill="#000000" font-family="Arial" font-size="11" lengthAdjust="spacing" textLength="44.709" x="831.11" y="462.6173">Entra ID</text><text fill="#000000" font-family="Arial" font-size="11" lengthAdjust="spacing" textLength="95.772" x="831.11" y="475.422">(OAuth 2.0/OIDC)</text></g><!--entity Graph--><g class="entity" data-qualified-name="M365.Graph" data-source-line="43" id="ent0013"><polygon fill="#DCE8F5" points="987.07,442.4069,997.07,432.4069,1136.9357,432.4069,1136.9357,478.0163,1126.9357,488.0163,987.07,488.0163,987.07,442.4069" style="stroke:#2D6A9F;stroke-width:1.5;"/><line style="stroke:#2D6A9F;stroke-width:1.5;" x1="1126.9357" x2="1136.9357" y1="442.4069" y2="432.4069"/><line style="stroke:#2D6A9F;stroke-width:1.5;" x1="987.07" x2="1126.9357" y1="442.4069" y2="442.4069"/><line style="stroke:#2D6A9F;stroke-width:1.5;" x1="1126.9357" x2="1126.9357" y1="442.4069" y2="488.0163"/><text fill="#000000" font-family="Arial" font-size="11" lengthAdjust="spacing" textLength="54.6401" x="1002.07" y="462.6173">Graph API</text><text fill="#000000" font-family="Arial" font-size="11" lengthAdjust="spacing" textLength="109.8657" x="1002.07" y="475.422">(calendario, Teams)</text></g><!--entity Resend--><g class="entity" data-qualified-name="ResendCloud.Resend" data-source-line="47" id="ent0015"><polygon fill="#DCE8F5" points="1192.76,448.8069,1202.76,438.8069,1301.2414,438.8069,1301.2414,471.6116,1291.2414,481.6116,1192.76,481.6116,1192.76,448.8069" style="stroke:#2D6A9F;stroke-width:1.5;"/><line style="stroke:#2D6A9F;stroke-width:1.5;" x1="1291.2414" x2="1301.2414" y1="448.8069" y2="438.8069"/><line style="stroke:#2D6A9F;stroke-width:1.5;" x1="1192.76" x2="1291.2414" y1="448.8069" y2="448.8069"/><line style="stroke:#2D6A9F;stroke-width:1.5;" x1="1291.2414" x2="1291.2414" y1="448.8069" y2="481.6116"/><text fill="#000000" font-family="Arial" font-size="11" lengthAdjust="spacing" textLength="68.4814" x="1207.76" y="469.0173">API de email</text></g><g class="entity" data-qualified-name="GMN23" data-source-line="58" id="ent0024"><path d="M1336.61,429.6069 L1336.61,490.8256 L1537.3805,490.8256 L1537.3805,439.6069 L1527.3805,429.6069 L1336.61,429.6069" fill="#FEFFDD" style="stroke:#181818;stroke-width:0.5;"/><path d="M1527.3805,429.6069 L1527.3805,439.6069 L1537.3805,439.6069 L1527.3805,429.6069" fill="#FEFFDD" style="stroke:#181818;stroke-width:1;"/><text fill="#000000" font-family="Arial" font-size="11" lengthAdjust="spacing" textLength="179.7705" x="1342.61" y="444.8173">Ambos contenedores comparten</text><text fill="#000000" font-family="Arial" font-size="11" lengthAdjust="spacing" textLength="120.3071" x="1342.61" y="457.622">la red interna Docker.</text><text fill="#000000" font-family="Arial" font-size="11" lengthAdjust="spacing" textLength="161.9653" x="1342.61" y="470.4267">PostgreSQL no est&#225; expuesto</text><text fill="#000000" font-family="Arial" font-size="11" lengthAdjust="spacing" textLength="59.979" x="1342.61" y="483.2314">al exterior.</text></g><!--link Browser to NextJS--><g class="link" data-entity-1="ent0002" data-entity-2="ent0006" data-link-type="dependency" data-source-line="50" id="lnk16"><path d="M472.6535,180.0666 C472.647,180.2097 472.6408,180.3528 472.6349,180.4959 C472.6114,181.0686 472.5929,181.642 472.5797,182.2159 C472.5533,183.3637 472.548,184.5135 472.5658,185.6631 C472.6014,187.9623 472.7293,190.2607 472.9655,192.5408 C473.91,201.6613 476.585,210.4894 482,217.9069 C488.88,227.3269 499.74,216.7769 507,225.9069 C514.96,235.9319 520.1531,255.1525 523.4591,278.4356 C525.112,290.0772 526.2932,302.7344 527.1125,315.7655 C527.5222,322.2811 527.8414,328.8902 528.0839,335.5126 C528.2052,338.8238 528.1538,336.1402 528.2384,339.4481" fill="none" id="Browser-to-NextJS" style="stroke:#444444;stroke-width:1.2;"/><polygon fill="#444444" points="528.3918,345.4461,532.1604,336.3468,528.264,340.4477,524.163,336.5513,528.3918,345.4461" style="stroke:#444444;stroke-width:1.2;"/><text fill="#000000" font-family="Arial" font-size="11" lengthAdjust="spacing" textLength="149.3755" x="483" y="215.1173">HTTPS / nginx (puerto 443)</text></g><!--link NextJS to PG--><g class="link" data-entity-1="ent0006" data-entity-2="ent0009" data-link-type="dependency" data-source-line="51" id="lnk17"><path d="M519.0981,508.604 C519.0518,508.7051 519.0051,508.8061 518.9582,508.9069 C518.7705,509.3102 518.5782,509.711 518.381,510.109 C517.9868,510.9051 517.5735,511.6901 517.1403,512.4622 C516.2739,514.0063 515.3277,515.4983 514.2948,516.9221 C512.2291,519.7697 509.8162,522.3444 507,524.5169 C486.84,540.0669 295.69,514.2069 278,532.5169 C255.41,555.9169 281.057,571.5368 318.757,583.1768" fill="none" id="NextJS-to-PG" style="stroke:#444444;stroke-width:1.2;"/><polygon fill="#444444" points="324.49,584.9469,317.0706,578.4698,319.7125,583.4718,314.7105,586.1137,324.49,584.9469" style="stroke:#444444;stroke-width:1.2;"/><text fill="#000000" font-family="Arial" font-size="11" lengthAdjust="spacing" textLength="139.9009" x="279" y="543.7273">Drizzle ORM (red interna)</text></g><!--link NextJS to EntraID--><g class="link" data-entity-1="ent0006" data-entity-2="ent0012" data-link-type="dependency" data-source-line="52" id="lnk18"><path d="M515.7189,345.609 C515.7121,344.3308 515.7108,343.0573 515.7155,341.7896 C515.7526,331.6477 516.1663,321.8727 517.0967,312.9602 C518.9575,295.135 522.885,280.7594 530,273.7969 C633.13,172.8569 798.2183,353.8668 858.2083,427.4368" fill="none" id="NextJS-to-EntraID" style="stroke:#444444;stroke-width:1.2;"/><polygon fill="#444444" points="862,432.0869,859.4125,422.584,858.8402,428.2118,853.2124,427.6396,862,432.0869" style="stroke:#444444;stroke-width:1.2;"/><text fill="#000000" font-family="Arial" font-size="11" lengthAdjust="spacing" textLength="121.8916" x="641.5" y="215.1173">SSO (OAuth 2.0/OIDC)</text></g><!--link NextJS to Graph--><g class="link" data-entity-1="ent0006" data-entity-2="ent0013" data-link-type="dependency" data-source-line="53" id="lnk19"><path d="M515.7189,345.609 C515.7121,344.3308 515.7108,343.0573 515.7155,341.7896 C515.7526,331.6477 516.1663,321.8727 517.0967,312.9602 C518.9575,295.135 522.885,280.7594 530,273.7969 C599.72,205.5569 886.04,222.4669 969,273.7969 C1025.44,308.7069 1047.5593,383.4762 1056.2393,426.3462" fill="none" id="NextJS-to-Graph" style="stroke:#444444;stroke-width:1.2;"/><polygon fill="#444444" points="1057.43,432.2269,1059.5644,422.6121,1056.4378,427.3263,1051.7235,424.1997,1057.43,432.2269" style="stroke:#444444;stroke-width:1.2;"/><text fill="#000000" font-family="Arial" font-size="11" lengthAdjust="spacing" textLength="71.5161" x="915.5" y="215.1173">Bearer token</text></g><!--link NextJS to Resend--><g class="link" data-entity-1="ent0006" data-entity-2="ent0015" data-link-type="dependency" data-source-line="54" id="lnk20"><path d="M515.7189,345.609 C515.7121,344.3308 515.7108,343.0573 515.7155,341.7896 C515.7526,331.6477 516.1663,321.8727 517.0967,312.9602 C518.9575,295.135 522.885,280.7594 530,273.7969 C628.94,176.9569 1035.11,201.2069 1153,273.7969 C1212.57,310.4669 1234.6225,391.9038 1242.4225,432.6738" fill="none" id="NextJS-to-Resend" style="stroke:#444444;stroke-width:1.2;"/><polygon fill="#444444" points="1243.55,438.5669,1245.7876,428.9756,1242.6105,433.6559,1237.9301,430.4788,1243.55,438.5669" style="stroke:#444444;stroke-width:1.2;"/><text fill="#000000" font-family="Arial" font-size="11" lengthAdjust="spacing" textLength="139.6484" x="769.5" y="215.1173">API key (email visitantes)</text></g><!--reverse link NextJS to CICD--><g class="link" data-entity-1="ent0006" data-entity-2="ent0010" data-link-type="dependency" data-source-line="55" id="lnk22"><path d="M523.7122,514.5677 C524.1973,516.1902 524.0242,514.4042 524.6966,515.9459 C526.0413,519.0292 527.7813,521.9231 530,524.5169 C540.65,536.9769 550.78,526.4369 566,532.5169 C600.55,546.3169 636.73,569.6269 659.54,585.5969" fill="none" id="NextJS-backto-CICD" style="stroke:#444444;stroke-width:1.2;"/><polygon fill="#444444" points="522.303,508.7355,520.5287,518.4232,523.4773,513.5957,528.3049,516.5443,522.303,508.7355" style="stroke:#444444;stroke-width:1.2;"/><text fill="#000000" font-family="Arial" font-size="11" lengthAdjust="spacing" textLength="111.3535" x="594.11" y="543.7273">despliegue continuo</text></g><!--link Docker to GMN23--><g class="link" data-entity-1="ent0005" data-entity-2="ent0024" data-link-type="association" data-source-line="58" id="lnk25"><path d="M582.0299,445.3385 C582.5062,444.4902 583.0031,443.6101 583.5203,442.6992 C584.5548,440.8775 585.6708,438.9331 586.8668,436.8752 C589.2588,432.7596 591.9709,428.1902 594.9919,423.2422 C607.0756,403.45 624.1,377.5981 645.3375,350.4794 C687.8125,296.2419 747.14,236.9369 817.5,210.9069 C867.73,192.3269 1249.27,192.3269 1299.5,210.9069 C1389.44,244.1769 1422.03,370.1969 1432.54,429.2769" fill="none" id="Docker-GMN23" style="stroke:#444444;stroke-width:1.2;stroke-dasharray:7,7;"/></g><?plantuml-src TLJRSjem47ttL-oG5p9Dk0NID0-T0TDGEasWcFQfBy9QGCL8Z2Jdrid7v1lw2VcnhYH3N48DmzZUisVFxXvXLa9kc6Phu3XdUMQlbBGtR8tGrO9baJaKJyGZGhDP2ah5iQSqHprTYdGbqHXerZeb1DDQtPM3hVrWh3AbuQZjhr9mnjBLGgjSyW9nvQzehppyZW1w-rYUuiMyuo9UNNZhhgCMFsSVvj5JcOSposRC_8-hWobl7-J2z_oizIzNcgcS7oR2kViS8hhmboEomcO8VS4MHCPe-lGrcqpW8iSeyWrNRjWjBXYdP8uPv2PdMgWAC0CzcgT1xSipRSMSfHOgNSfFMIfU_aYI9r1Q_2chDtXlQxyCB1-uPbOeUUmfOWzmKaAn1FMjSBL-Z1EeVf_bqkO1wLwuGW4tGGvzbQwekg02MZ8FAbuvt1OPavLGekCiD3Wr579gMeqJsEIehOApHgCHAZdObwGWANSsVdbU24c8IHB3Et1QgLWtTUqOdqg1DrcJt5AaEnvItJhRY3hBxV84xd2sL6fbGaqA-yGd_xjpI5dzM1cxq9Xy-mhDS-8oGWBURvGHOTQa6capEX2E1r5WUnKI3-jn7we3OJ_diwtiOWt3kE-M4EnKkHQfLaRDBPoTTppWccvAu_yahMOmx9ECKPVQWLQjKHyD-t6Wy-5XVmSVQBPP5YD8MOQIEm-Tm1JPkb3W8IK94pG42qFrj_7EwO6Js9nVSSr4Le8vYgqlJxcwawSVjmk5I_WydPADwY1fZ_TGBLRVRfyTHrlGDcay28kyXBuMZuzqJ4QJQwXgCbxXk5AE5ekbfQIYSKfAaX7ip-OjFWp65UaXqoJPgXNAjxZGcyEvjbVu05NVEDmA8omZFUOuSaiahjDyK-evjF1wgY4bHmcPAtVYB8Al06fU71qQRtSzKyR3Wl7GFQpfxuQUAPmnACsWIAjHeEHFgG2DVNbs_ipfJZaVPZk7rYBNZ2iV_GK0?></g></svg>