<svg xmlns="http://www.w3.org/2000/svg" xmlns:xlink="http://www.w3.org/1999/xlink" contentStyleType="text/css" data-diagram-type="DESCRIPTION" height="581px" preserveAspectRatio="none" style="width:384px;height:581px;background:#FFFFFF;" version="1.1" viewBox="0 0 384 581" width="384px" zoomAndPan="magnify"><?plantuml 1.2026.4beta2?><defs/><g><!--cluster Administraci?n--><g class="cluster" data-qualified-name="Administraci.n" data-source-line="10" id="ent0005"><path d="M212.6,6 L298.6488,6 A3.75,3.75 0 0 1 301.1488,8.5 L308.1488,23.6406 L366.71,23.6406 A2.5,2.5 0 0 1 369.21,26.1406 L369.21,398.5 A2.5,2.5 0 0 1 366.71,401 L212.6,401 A2.5,2.5 0 0 1 210.1,398.5 L210.1,8.5 A2.5,2.5 0 0 1 212.6,6" fill="none" style="stroke:#000000;stroke-width:1.5;"/><line style="stroke:#000000;stroke-width:1.5;" x1="210.1" x2="308.1488" y1="23.6406" y2="23.6406"/><text fill="#000000" font-family="Arial" font-size="10" font-weight="700" lengthAdjust="spacing" textLength="85.0488" x="214.1" y="17.2822">Administraci&#243;n</text></g><!--cluster Panel--><g class="cluster" data-qualified-name="Panel" data-source-line="19" id="ent0012"><path d="M212.21,425 L244.6163,425 A3.75,3.75 0 0 1 247.1163,427.5 L254.1163,442.6406 L367.1,442.6406 A2.5,2.5 0 0 1 369.6,445.1406 L369.6,563.5 A2.5,2.5 0 0 1 367.1,566 L212.21,566 A2.5,2.5 0 0 1 209.71,563.5 L209.71,427.5 A2.5,2.5 0 0 1 212.21,425" fill="none" style="stroke:#000000;stroke-width:1.5;"/><line style="stroke:#000000;stroke-width:1.5;" x1="209.71" x2="254.1163" y1="442.6406" y2="442.6406"/><text fill="#000000" font-family="Arial" font-size="10" font-weight="700" lengthAdjust="spacing" textLength="31.4063" x="213.71" y="436.2822">Panel</text></g><!--entity UC_AAD--><g class="entity" data-qualified-name="Administraci.n.UC_AAD" data-source-line="11" id="ent0006"><ellipse cx="289.6644" cy="370.0009" fill="#F1F1F1" rx="63.5544" ry="15.1109" style="stroke:#181818;stroke-width:0.5;"/><text fill="#000000" font-family="Arial" font-size="10" lengthAdjust="spacing" textLength="106.2061" x="236.5613" y="372.3212">abrirAdministracion()</text></g><!--entity UC_GE--><g class="entity" data-qualified-name="Administraci.n.UC_GE" data-source-line="12" id="ent0007"><ellipse cx="289.6551" cy="304.997" fill="#F1F1F1" rx="62.7851" ry="14.957" style="stroke:#181818;stroke-width:0.5;"/><text fill="#000000" font-family="Arial" font-size="10" lengthAdjust="spacing" textLength="104.4482" x="237.431" y="307.3173">gestionarEntidades()</text></g><!--entity UC_GP--><g class="entity" data-qualified-name="Administraci.n.UC_GP" data-source-line="13" id="ent0008"><ellipse cx="289.6605" cy="242.0001" fill="#F1F1F1" rx="55.1005" ry="13.4201" style="stroke:#181818;stroke-width:0.5;"/><text fill="#000000" font-family="Arial" font-size="10" lengthAdjust="spacing" textLength="86.4307" x="246.4452" y="244.3204">gestionarPlazas()</text></g><!--entity UC_GU--><g class="entity" data-qualified-name="Administraci.n.UC_GU" data-source-line="14" id="ent0009"><ellipse cx="289.662" cy="178.9984" fill="#F1F1F1" rx="60.042" ry="14.4084" style="stroke:#181818;stroke-width:0.5;"/><text fill="#000000" font-family="Arial" font-size="10" lengthAdjust="spacing" textLength="98.1201" x="240.6019" y="181.3187">gestionarUsuarios()</text></g><!--entity UC_CMO--><g class="entity" data-qualified-name="Administraci.n.UC_CMO" data-source-line="15" id="ent0010"><ellipse cx="289.6648" cy="115.005" fill="#F1F1F1" rx="61.1248" ry="14.625" style="stroke:#181818;stroke-width:0.5;"/><text fill="#000000" font-family="Arial" font-size="10" lengthAdjust="spacing" textLength="100.6299" x="239.3499" y="117.3253">configurarModulos()</text></g><!--entity UC_CS--><g class="entity" data-qualified-name="Administraci.n.UC_CS" data-source-line="16" id="ent0011"><ellipse cx="289.6604" cy="50.9961" fill="#F1F1F1" rx="60.5804" ry="14.5161" style="stroke:#181818;stroke-width:0.5;"/><text fill="#000000" font-family="Arial" font-size="10" lengthAdjust="spacing" textLength="99.3701" x="239.9754" y="53.3164">configurarSistema()</text></g><!--entity UC_APA--><g class="entity" data-qualified-name="Panel.UC_APA" data-source-line="20" id="ent0013"><ellipse cx="289.6587" cy="534.9997" fill="#F1F1F1" rx="63.9487" ry="15.1897" style="stroke:#181818;stroke-width:0.5;"/><text fill="#000000" font-family="Arial" font-size="10" lengthAdjust="spacing" textLength="107.1045" x="236.1065" y="537.3201">abrirPanelAnaliticas()</text></g><!--entity UC_CA--><g class="entity" data-qualified-name="Panel.UC_CA" data-source-line="21" id="ent0014"><ellipse cx="289.6627" cy="470.0005" fill="#F1F1F1" rx="60.7027" ry="14.5405" style="stroke:#181818;stroke-width:0.5;"/><text fill="#000000" font-family="Arial" font-size="10" lengthAdjust="spacing" textLength="99.6533" x="239.836" y="472.3208">consultarAnalytics()</text></g><!--entity rrhh--><g class="entity" data-qualified-name="rrhh" data-source-line="5" id="ent0002"><ellipse cx="20.4678" cy="246.68" fill="#F1F1F1" rx="8" ry="8" style="stroke:#181818;stroke-width:0.5;"/><path d="M20.4678,254.68 L20.4678,281.68 M7.4678,262.68 L33.4678,262.68 M20.4678,281.68 L7.4678,296.68 M20.4678,281.68 L33.4678,296.68" fill="none" style="stroke:#181818;stroke-width:0.5;"/><text fill="#000000" font-family="Arial" font-size="10" lengthAdjust="spacing" textLength="28.9355" x="6" y="307.4622">RRHH</text></g><!--entity admin--><g class="entity" data-qualified-name="admin" data-source-line="6" id="ent0003"><ellipse cx="130.3257" cy="246.68" fill="#F1F1F1" rx="8" ry="8" style="stroke:#181818;stroke-width:0.5;"/><path d="M130.3257,254.68 L130.3257,281.68 M117.3257,262.68 L143.3257,262.68 M130.3257,281.68 L117.3257,296.68 M130.3257,281.68 L143.3257,296.68" fill="none" style="stroke:#181818;stroke-width:0.5;"/><text fill="#000000" font-family="Arial" font-size="10" lengthAdjust="spacing" textLength="70.7715" x="94.94" y="307.4622">Administrador</text></g><!--reverse link rrhh to admin--><g class="link" data-entity-1="ent0002" data-entity-2="ent0003" data-link-type="extension" data-source-line="8" id="lnk4"><path d="M53.13,274 C67.98,274 74.3,274 94.5,274" fill="none" id="rrhh-backto-admin" style="stroke:#181818;stroke-width:1;"/><polygon fill="none" points="35.13,274,53.13,280,53.13,268,35.13,274" style="stroke:#181818;stroke-width:1;"/></g><!--link admin to UC_AAD--><g class="link" data-entity-1="ent0003" data-entity-2="ent0006" data-link-type="dependency" data-source-line="24" id="lnk15"><path d="M166.18,309.77 C176.93,319.49 189.24,329.42 201.71,337 C216.05,345.73 227.4288,350.8223 242.6088,356.1523" fill="none" id="admin-to-UC_AAD" style="stroke:#181818;stroke-width:1;"/><polygon fill="#181818" points="248.27,358.14,241.1034,351.3843,243.5524,356.4835,238.4531,358.9325,248.27,358.14" style="stroke:#181818;stroke-width:1;"/></g><!--link admin to UC_GE--><g class="link" data-entity-1="ent0003" data-entity-2="ent0007" data-link-type="dependency" data-source-line="25" id="lnk16"><path d="M165.85,280.8 C187.65,285.1 210.2533,289.5493 234.2933,294.2893" fill="none" id="admin-to-UC_GE" style="stroke:#181818;stroke-width:1;"/><polygon fill="#181818" points="240.18,295.45,232.1238,289.7845,235.2744,294.4828,230.5762,297.6334,240.18,295.45" style="stroke:#181818;stroke-width:1;"/></g><!--link admin to UC_GP--><g class="link" data-entity-1="ent0003" data-entity-2="ent0008" data-link-type="dependency" data-source-line="26" id="lnk17"><path d="M165.85,266.98 C189.55,262.16 215.2705,256.9264 240.4805,251.7964" fill="none" id="admin-to-UC_GP" style="stroke:#181818;stroke-width:1;"/><polygon fill="#181818" points="246.36,250.6,236.7431,248.475,241.4604,251.597,238.3384,256.3143,246.36,250.6" style="stroke:#181818;stroke-width:1;"/></g><!--link admin to UC_GU--><g class="link" data-entity-1="ent0003" data-entity-2="ent0009" data-link-type="dependency" data-source-line="27" id="lnk18"><path d="M166.13,238.15 C176.88,228.43 189.2,218.52 201.71,211 C216.32,202.21 228.0546,197.1373 243.4446,191.9473" fill="none" id="admin-to-UC_GU" style="stroke:#181818;stroke-width:1;"/><polygon fill="#181818" points="249.13,190.03,239.3237,189.1157,244.3922,191.6278,241.8801,196.6962,249.13,190.03" style="stroke:#181818;stroke-width:1;"/></g><!--link admin to UC_CMO--><g class="link" data-entity-1="ent0003" data-entity-2="ent0010" data-link-type="dependency" data-source-line="28" id="lnk19"><path d="M143.32,237.94 C154.41,209.67 173.48,171.2 201.71,147 C213.55,136.85 223.2083,131.6885 237.7183,126.8485" fill="none" id="admin-to-UC_CMO" style="stroke:#181818;stroke-width:1;"/><polygon fill="#181818" points="243.41,124.95,233.6067,124.0033,238.6669,126.5321,236.1381,131.5923,243.41,124.95" style="stroke:#181818;stroke-width:1;"/></g><!--link admin to UC_CS--><g class="link" data-entity-1="ent0003" data-entity-2="ent0011" data-link-type="dependency" data-source-line="29" id="lnk20"><path d="M135.49,237.82 C142.22,195.35 159.34,125.35 201.71,83 C212.51,72.2 221.5795,66.9121 235.8795,62.1321" fill="none" id="admin-to-UC_CS" style="stroke:#181818;stroke-width:1;"/><polygon fill="#181818" points="241.57,60.23,231.7661,59.2895,236.8279,61.8151,234.3023,66.8769,241.57,60.23" style="stroke:#181818;stroke-width:1;"/></g><!--link admin to UC_APA--><g class="link" data-entity-1="ent0003" data-entity-2="ent0013" data-link-type="dependency" data-source-line="30" id="lnk21"><path d="M132.92,310.04 C137.01,359.51 151.38,448.39 201.71,502 C211.87,512.83 220.3048,518.1354 234.1848,523.0554" fill="none" id="admin-to-UC_APA" style="stroke:#181818;stroke-width:1;"/><polygon fill="#181818" points="239.84,525.06,232.6936,518.283,235.1273,523.3895,230.0208,525.8233,239.84,525.06" style="stroke:#181818;stroke-width:1;"/></g><!--link admin to UC_CA--><g class="link" data-entity-1="ent0003" data-entity-2="ent0014" data-link-type="dependency" data-source-line="31" id="lnk22"><path d="M146.73,310.31 C159.17,337.09 178.4,373.5 201.71,401 C220.65,423.35 242.7671,440.1378 261.6571,452.8078" fill="none" id="admin-to-UC_CA" style="stroke:#181818;stroke-width:1;"/><polygon fill="#181818" points="266.64,456.15,261.3937,447.8148,262.4875,453.3648,256.9375,454.4587,266.64,456.15" style="stroke:#181818;stroke-width:1;"/></g><?plantuml-src RP51JiCm44NtFiKeArX4WZr2iagXcqBKA6iqE6uogcDNOsT1WLDn12v6tAPLNCMxcV_icVzjz3P0SC3Kj05gOgq2EIlyZkmU6JkezHPx4vwT3Q_OQP1CQERraWuQxk-4G1KSGxRPh5OPN0vwO6xRiohhZYpvm5WxpgAAiID4XE3XEy_FZJsg7JPwUaNHtw_Du4i0z5uhz8EA7qmyHPozkJq-N2tUfNoQietsqIVoqWQgiTO-eYFxifn52uC7F75mGOjPjF8zChaH7j5gYYfdjzJqZBnsTMzITB5-csVBmPdkC65ByJE9g42hpLmmHq5QD1H8dMoCoHJoQfWV_XCvify3csucuxJZlq2UFvwJJHf3V6bTNDLLMaUtQQEycZ1ic0Bo7m00?></g></svg>