<svg xmlns="http://www.w3.org/2000/svg" xmlns:xlink="http://www.w3.org/1999/xlink" contentStyleType="text/css" data-diagram-type="DESCRIPTION" height="659px" preserveAspectRatio="none" style="width:716px;height:659px;background:#FFFFFF;" version="1.1" viewBox="0 0 716 659" width="716px" zoomAndPan="magnify"><?plantuml 1.2026.4beta2?><defs/><g><!--cluster Vacaciones--><g class="cluster" data-qualified-name="Vacaciones" data-source-line="12" id="ent0007"><path d="M503.72,230 L567.9622,230 A3.75,3.75 0 0 1 570.4622,232.5 L577.4622,247.6406 L699.41,247.6406 A2.5,2.5 0 0 1 701.91,250.1406 L701.91,585.5 A2.5,2.5 0 0 1 699.41,588 L503.72,588 A2.5,2.5 0 0 1 501.22,585.5 L501.22,232.5 A2.5,2.5 0 0 1 503.72,230" fill="none" style="stroke:#000000;stroke-width:1.5;"/><line style="stroke:#000000;stroke-width:1.5;" x1="501.22" x2="577.4622" y1="247.6406" y2="247.6406"/><text fill="#000000" font-family="Arial" font-size="10" font-weight="700" lengthAdjust="spacing" textLength="63.2422" x="505.22" y="241.2822">Vacaciones</text></g><!--cluster Tabl?n--><g class="cluster" data-qualified-name="Tabl.n" data-source-line="20" id="ent0013"><path d="M325.42,6 L364.5645,6 A3.75,3.75 0 0 1 367.0645,8.5 L374.0645,23.6406 L464.25,23.6406 A2.5,2.5 0 0 1 466.75,26.1406 L466.75,197.5 A2.5,2.5 0 0 1 464.25,200 L325.42,200 A2.5,2.5 0 0 1 322.92,197.5 L322.92,8.5 A2.5,2.5 0 0 1 325.42,6" fill="none" style="stroke:#000000;stroke-width:1.5;"/><line style="stroke:#000000;stroke-width:1.5;" x1="322.92" x2="374.0645" y1="23.6406" y2="23.6406"/><text fill="#000000" font-family="Arial" font-size="10" font-weight="700" lengthAdjust="spacing" textLength="38.1445" x="326.92" y="17.2822">Tabl&#243;n</text></g><!--cluster Directorio--><g class="cluster" data-qualified-name="Directorio" data-source-line="26" id="ent0017"><path d="M318.95,449 L376.2,449 A3.75,3.75 0 0 1 378.7,451.5 L385.7,466.6406 L470.72,466.6406 A2.5,2.5 0 0 1 473.22,469.1406 L473.22,583.5 A2.5,2.5 0 0 1 470.72,586 L318.95,586 A2.5,2.5 0 0 1 316.45,583.5 L316.45,451.5 A2.5,2.5 0 0 1 318.95,449" fill="none" style="stroke:#000000;stroke-width:1.5;"/><line style="stroke:#000000;stroke-width:1.5;" x1="316.45" x2="385.7" y1="466.6406" y2="466.6406"/><text fill="#000000" font-family="Arial" font-size="10" font-weight="700" lengthAdjust="spacing" textLength="56.25" x="320.45" y="460.2822">Directorio</text></g><!--cluster Ajustes--><g class="cluster" data-qualified-name="Ajustes" data-source-line="31" id="ent0020"><path d="M8.5,236 L51.2529,236 A3.75,3.75 0 0 1 53.7529,238.5 L60.7529,253.6406 L176.02,253.6406 A2.5,2.5 0 0 1 178.52,256.1406 L178.52,495.5 A2.5,2.5 0 0 1 176.02,498 L8.5,498 A2.5,2.5 0 0 1 6,495.5 L6,238.5 A2.5,2.5 0 0 1 8.5,236" fill="none" style="stroke:#000000;stroke-width:1.5;"/><line style="stroke:#000000;stroke-width:1.5;" x1="6" x2="60.7529" y1="253.6406" y2="253.6406"/><text fill="#000000" font-family="Arial" font-size="10" font-weight="700" lengthAdjust="spacing" textLength="41.7529" x="10" y="247.2822">Ajustes</text></g><!--entity UC_ABS--><g class="entity" data-qualified-name="Vacaciones.UC_ABS" data-source-line="13" id="ent0008"><ellipse cx="601.5635" cy="348.0047" fill="#F1F1F1" rx="72.5235" ry="16.9047" style="stroke:#181818;stroke-width:0.5;"/><text fill="#000000" font-family="Arial" font-size="10" lengthAdjust="spacing" textLength="126.2793" x="538.4238" y="350.325">abrirBandejaSolicitudes()</text></g><!--entity UC_SA--><g class="entity" data-qualified-name="Vacaciones.UC_SA" data-source-line="14" id="ent0009"><ellipse cx="601.5647" cy="414.0009" fill="#F1F1F1" rx="57.6047" ry="13.9209" style="stroke:#181818;stroke-width:0.5;"/><text fill="#000000" font-family="Arial" font-size="10" lengthAdjust="spacing" textLength="92.4072" x="555.3611" y="416.3213">solicitarAusencia()</text></g><!--entity UC_CSA--><g class="entity" data-qualified-name="Vacaciones.UC_CSA" data-source-line="15" id="ent0010"><ellipse cx="601.5631" cy="554.0046" fill="#F1F1F1" rx="78.1731" ry="18.0346" style="stroke:#181818;stroke-width:0.5;"/><text fill="#000000" font-family="Arial" font-size="10" lengthAdjust="spacing" textLength="138.623" x="532.2515" y="556.3249">cancelarSolicitudAusencia()</text></g><!--entity UC_GSA--><g class="entity" data-qualified-name="Vacaciones.UC_GSA" data-source-line="16" id="ent0011"><ellipse cx="601.5599" cy="277.998" fill="#F1F1F1" rx="80.2399" ry="18.448" style="stroke:#181818;stroke-width:0.5;"/><text fill="#000000" font-family="Arial" font-size="10" lengthAdjust="spacing" textLength="143.0957" x="530.012" y="280.3183">gestionarSolicitudAusencia()</text></g><!--entity UC_GVA--><g class="entity" data-qualified-name="Vacaciones.UC_GVA" data-source-line="17" id="ent0012"><ellipse cx="601.5556" cy="481.9991" fill="#F1F1F1" rx="84.3456" ry="19.2691" style="stroke:#181818;stroke-width:0.5;"/><text fill="#000000" font-family="Arial" font-size="10" lengthAdjust="spacing" textLength="151.9238" x="525.5937" y="484.3194">gestionarValidacionAusencia()</text></g><!--entity UC_AT--><g class="entity" data-qualified-name="Tabl.n.UC_AT" data-source-line="21" id="ent0014"><ellipse cx="394.8315" cy="172.0023" fill="#F1F1F1" rx="46.6615" ry="11.7323" style="stroke:#181818;stroke-width:0.5;"/><text fill="#000000" font-family="Arial" font-size="10" lengthAdjust="spacing" textLength="65.0977" x="362.2827" y="174.3226">abrirTablon()</text></g><!--entity UC_CT--><g class="entity" data-qualified-name="Tabl.n.UC_CT" data-source-line="22" id="ent0015"><ellipse cx="394.8289" cy="111.9958" fill="#F1F1F1" rx="55.7789" ry="13.5558" style="stroke:#181818;stroke-width:0.5;"/><text fill="#000000" font-family="Arial" font-size="10" lengthAdjust="spacing" textLength="88.0615" x="350.7981" y="114.3161">consultarTablon()</text></g><!--entity UC_PA--><g class="entity" data-qualified-name="Tabl.n.UC_PA" data-source-line="23" id="ent0016"><ellipse cx="394.8313" cy="50.0023" fill="#F1F1F1" rx="55.9113" ry="13.5823" style="stroke:#181818;stroke-width:0.5;"/><text fill="#000000" font-family="Arial" font-size="10" lengthAdjust="spacing" textLength="88.3789" x="350.6419" y="52.3226">publicarAnuncio()</text></g><!--entity UC_AD--><g class="entity" data-qualified-name="Directorio.UC_AD" data-source-line="27" id="ent0018"><ellipse cx="394.8254" cy="556.9991" fill="#F1F1F1" rx="52.6954" ry="12.9391" style="stroke:#181818;stroke-width:0.5;"/><text fill="#000000" font-family="Arial" font-size="10" lengthAdjust="spacing" textLength="80.5664" x="354.5422" y="559.3194">abrirDirectorio()</text></g><!--entity UC_CD--><g class="entity" data-qualified-name="Directorio.UC_CD" data-source-line="28" id="ent0019"><ellipse cx="394.8346" cy="493.9969" fill="#F1F1F1" rx="62.3846" ry="14.8769" style="stroke:#181818;stroke-width:0.5;"/><text fill="#000000" font-family="Arial" font-size="10" lengthAdjust="spacing" textLength="103.5303" x="343.0695" y="496.3172">consultarDirectorio()</text></g><!--entity UC_AA--><g class="entity" data-qualified-name="Ajustes.UC_AA" data-source-line="32" id="ent0021"><ellipse cx="92.2611" cy="470.0002" fill="#F1F1F1" rx="47.6511" ry="11.9302" style="stroke:#181818;stroke-width:0.5;"/><text fill="#000000" font-family="Arial" font-size="10" lengthAdjust="spacing" textLength="67.7295" x="58.3964" y="472.3205">abrirAjustes()</text></g><!--entity UC_EP--><g class="entity" data-qualified-name="Ajustes.UC_EP" data-source-line="33" id="ent0022"><ellipse cx="92.2631" cy="411.9986" fill="#F1F1F1" rx="45.7431" ry="11.5486" style="stroke:#181818;stroke-width:0.5;"/><text fill="#000000" font-family="Arial" font-size="10" lengthAdjust="spacing" textLength="62.6123" x="60.957" y="414.3189">editarPerfil()</text></g><!--entity UC_CFP--><g class="entity" data-qualified-name="Ajustes.UC_CFP" data-source-line="34" id="ent0023"><ellipse cx="92.259" cy="349.0018" fill="#F1F1F1" rx="70.259" ry="16.4518" style="stroke:#181818;stroke-width:0.5;"/><text fill="#000000" font-family="Arial" font-size="10" lengthAdjust="spacing" textLength="121.2744" x="31.6218" y="351.3221">configurarPreferencias()</text></g><!--entity UC_CM--><g class="entity" data-qualified-name="Ajustes.UC_CM" data-source-line="35" id="ent0024"><ellipse cx="92.2608" cy="281.9982" fill="#F1F1F1" rx="68.1408" ry="16.0282" style="stroke:#181818;stroke-width:0.5;"/><text fill="#000000" font-family="Arial" font-size="10" lengthAdjust="spacing" textLength="116.5576" x="33.982" y="284.3185">conectarMicrosoft365()</text></g><!--entity empleado--><g class="entity" data-qualified-name="empleado" data-source-line="5" id="ent0002"><ellipse cx="247.4858" cy="352.68" fill="#F1F1F1" rx="8" ry="8" style="stroke:#181818;stroke-width:0.5;"/><path d="M247.4858,360.68 L247.4858,387.68 M234.4858,368.68 L260.4858,368.68 M247.4858,387.68 L234.4858,402.68 M247.4858,387.68 L260.4858,402.68" fill="none" style="stroke:#181818;stroke-width:0.5;"/><text fill="#000000" font-family="Arial" font-size="10" lengthAdjust="spacing" textLength="49.9316" x="222.52" y="413.4622">Empleado</text></g><!--entity manager--><g class="entity" data-qualified-name="manager" data-source-line="6" id="ent0003"><ellipse cx="394.8365" cy="227.68" fill="#F1F1F1" rx="8" ry="8" style="stroke:#181818;stroke-width:0.5;"/><path d="M394.8365,235.68 L394.8365,262.68 M381.8365,243.68 L407.8365,243.68 M394.8365,262.68 L381.8365,277.68 M394.8365,262.68 L407.8365,277.68" fill="none" style="stroke:#181818;stroke-width:0.5;"/><text fill="#000000" font-family="Arial" font-size="10" lengthAdjust="spacing" textLength="43.833" x="372.92" y="288.4622">Manager</text></g><!--entity rrhh--><g class="entity" data-qualified-name="rrhh" data-source-line="7" id="ent0004"><ellipse cx="601.5678" cy="150.68" fill="#F1F1F1" rx="8" ry="8" style="stroke:#181818;stroke-width:0.5;"/><path d="M601.5678,158.68 L601.5678,185.68 M588.5678,166.68 L614.5678,166.68 M601.5678,185.68 L588.5678,200.68 M601.5678,185.68 L614.5678,200.68" fill="none" style="stroke:#181818;stroke-width:0.5;"/><text fill="#000000" font-family="Arial" font-size="10" lengthAdjust="spacing" textLength="28.9355" x="587.1" y="211.4622">RRHH</text></g><!--reverse link empleado to manager--><g class="link" data-entity-1="ent0002" data-entity-2="ent0003" data-link-type="extension" data-source-line="9" id="lnk5"><path d="M285.2755,339.6714 C295.8055,328.4814 296.17,328.75 308.45,318 C329.24,299.81 354.99,281.3 372.74,269.1" fill="none" id="empleado-backto-manager" style="stroke:#181818;stroke-width:1;"/><polygon fill="none" points="272.94,352.78,289.645,343.7832,280.9059,335.5595,272.94,352.78" style="stroke:#181818;stroke-width:1;"/></g><!--reverse link manager to rrhh--><g class="link" data-entity-1="ent0003" data-entity-2="ent0004" data-link-type="extension" data-source-line="10" id="lnk6"><path d="M433.8181,240.7144 C475.8081,224.9244 551.84,196.33 586.85,183.16" fill="none" id="manager-backto-rrhh" style="stroke:#181818;stroke-width:1;"/><polygon fill="none" points="416.97,247.05,435.93,246.3304,431.7063,235.0983,416.97,247.05" style="stroke:#181818;stroke-width:1;"/></g><!--link empleado to UC_ABS--><g class="link" data-entity-1="ent0002" data-entity-2="ent0008" data-link-type="dependency" data-source-line="38" id="lnk25"><path d="M272.68,377.8 C325.74,372.98 447.9146,361.8729 527.3746,354.6529" fill="none" id="empleado-to-UC_ABS" style="stroke:#181818;stroke-width:1;"/><polygon fill="#181818" points="533.35,354.11,524.025,350.9408,528.3705,354.5625,524.7489,358.908,533.35,354.11" style="stroke:#181818;stroke-width:1;"/></g><!--link empleado to UC_SA--><g class="link" data-entity-1="ent0002" data-entity-2="ent0009" data-link-type="dependency" data-source-line="39" id="lnk26"><path d="M272.68,382.34 C329,387.78 463.9578,400.8136 541.4578,408.2936" fill="none" id="empleado-to-UC_SA" style="stroke:#181818;stroke-width:1;"/><polygon fill="#181818" points="547.43,408.87,538.8559,404.0239,542.4531,408.3897,538.0873,411.9869,547.43,408.87" style="stroke:#181818;stroke-width:1;"/></g><!--reverse link UC_CSA to empleado--><g class="link" data-entity-1="ent0010" data-entity-2="ent0002" data-link-type="dependency" data-source-line="40" id="lnk27"><path d="M562.8227,573.2281 C504.5627,600.6881 386.19,644.34 308.45,586 C281.26,565.6 262.36,469.6 253.75,416.15" fill="none" id="UC_CSA-backto-empleado" style="stroke:#181818;stroke-width:1;"/><polygon fill="#181818" points="568.25,570.67,558.4036,570.8889,563.7272,572.8018,561.8144,578.1254,568.25,570.67" style="stroke:#181818;stroke-width:1;"/></g><!--link empleado to UC_AT--><g class="link" data-entity-1="ent0002" data-entity-2="ent0014" data-link-type="dependency" data-source-line="41" id="lnk28"><path d="M251.41,343.76 C256.5,303.93 270.42,240.53 308.45,202 C320.7,189.59 332.5805,183.8381 348.6805,179.5681" fill="none" id="empleado-to-UC_AT" style="stroke:#181818;stroke-width:1;"/><polygon fill="#181818" points="354.48,178.03,344.7553,176.4709,349.6471,179.3118,346.8062,184.2035,354.48,178.03" style="stroke:#181818;stroke-width:1;"/></g><!--reverse link UC_CT to empleado--><g class="link" data-entity-1="ent0015" data-entity-2="ent0002" data-link-type="dependency" data-source-line="42" id="lnk29"><path d="M342.5267,121.5511 C328.0367,126.1111 318.82,131.54 308.45,143 C257.49,199.35 248.48,292.77 247.67,343.87" fill="none" id="UC_CT-backto-empleado" style="stroke:#181818;stroke-width:1;"/><polygon fill="#181818" points="348.25,119.75,338.4643,118.6362,343.4806,121.2509,340.8658,126.2672,348.25,119.75" style="stroke:#181818;stroke-width:1;"/></g><!--link empleado to UC_AD--><g class="link" data-entity-1="ent0002" data-entity-2="ent0018" data-link-type="dependency" data-source-line="43" id="lnk30"><path d="M254.74,416.2 C262.18,448.97 277.7,496.5 308.45,526 C320.28,537.36 330.8575,542.861 346.0475,547.461" fill="none" id="empleado-to-UC_AD" style="stroke:#181818;stroke-width:1;"/><polygon fill="#181818" points="351.79,549.2,344.3356,542.7632,347.0046,547.7508,342.017,550.4198,351.79,549.2" style="stroke:#181818;stroke-width:1;"/></g><!--reverse link UC_CD to empleado--><g class="link" data-entity-1="ent0019" data-entity-2="ent0002" data-link-type="dependency" data-source-line="44" id="lnk31"><path d="M362.8981,477.235 C345.3681,467.315 327.25,456.04 308.45,441 C295.93,430.98 283.3,418.56 272.88,407.55" fill="none" id="UC_CD-backto-empleado" style="stroke:#181818;stroke-width:1;"/><polygon fill="#181818" points="368.12,480.19,362.2572,472.2763,363.7684,477.7275,358.3172,479.2388,368.12,480.19" style="stroke:#181818;stroke-width:1;"/></g><!--link empleado to UC_AA--><g class="link" data-entity-1="ent0002" data-entity-2="ent0021" data-link-type="dependency" data-source-line="45" id="lnk32"><path d="M222.11,410.48 C212.07,421.39 199.7,432.96 186.52,441 C169.58,451.33 154.4658,456.8047 136.7258,461.3047" fill="none" id="empleado-to-UC_AA" style="stroke:#181818;stroke-width:1;"/><polygon fill="#181818" points="130.91,462.78,140.6172,464.4443,135.7565,461.5506,138.6502,456.6899,130.91,462.78" style="stroke:#181818;stroke-width:1;"/></g><!--reverse link UC_EP to empleado--><g class="link" data-entity-1="ent0022" data-entity-2="ent0002" data-link-type="dependency" data-source-line="46" id="lnk33"><path d="M134.2836,403.4347 C163.0936,397.4247 197.21,390.29 222.46,385.02" fill="none" id="UC_EP-backto-empleado" style="stroke:#181818;stroke-width:1;"/><polygon fill="#181818" points="128.41,404.66,138.0372,406.7378,133.3046,403.6389,136.4035,398.9064,128.41,404.66" style="stroke:#181818;stroke-width:1;"/></g><!--reverse link UC_CFP to empleado--><g class="link" data-entity-1="ent0023" data-entity-2="ent0002" data-link-type="dependency" data-source-line="47" id="lnk34"><path d="M152.3009,360.9494 C178.0609,366.1594 201.85,370.97 222.15,375.08" fill="none" id="UC_CFP-backto-empleado" style="stroke:#181818;stroke-width:1;"/><polygon fill="#181818" points="146.42,359.76,154.4484,365.4648,151.3208,360.7512,156.0343,357.6235,146.42,359.76" style="stroke:#181818;stroke-width:1;"/></g><!--reverse link UC_CM to empleado--><g class="link" data-entity-1="ent0024" data-entity-2="ent0002" data-link-type="dependency" data-source-line="48" id="lnk35"><path d="M146.0976,295.6508 C161.5476,300.7508 172.61,305.83 186.52,315 C199.85,323.79 212.25,336.17 222.27,347.77" fill="none" id="UC_CM-backto-empleado" style="stroke:#181818;stroke-width:1;"/><polygon fill="#181818" points="140.4,293.77,147.6926,300.3896,145.148,295.3373,150.2003,292.7927,140.4,293.77" style="stroke:#181818;stroke-width:1;"/></g><!--link manager to UC_GSA--><g class="link" data-entity-1="ent0003" data-entity-2="ent0011" data-link-type="dependency" data-source-line="50" id="lnk36"><path d="M416.97,257.38 C443.23,260.33 483.4176,264.8393 522.8876,269.2793" fill="none" id="manager-to-UC_GSA" style="stroke:#181818;stroke-width:1;"/><polygon fill="#181818" points="528.85,269.95,520.3536,264.969,523.8813,269.3911,519.4593,272.9189,528.85,269.95" style="stroke:#181818;stroke-width:1;"/></g><!--link rrhh to UC_GVA--><g class="link" data-entity-1="ent0004" data-entity-2="ent0012" data-link-type="dependency" data-source-line="52" id="lnk37"><path d="M586.7,183.23 C563.47,192.14 518.61,212.41 493.22,244 C488.07,250.41 488.57,253.39 487.22,261.5 C481.15,297.89 481.15,391.12 487.22,427.5 C488.57,435.61 487.4,439.19 493.22,445 C504.68,456.45 514.1782,462.3457 529.4982,467.8057" fill="none" id="rrhh-to-UC_GVA" style="stroke:#181818;stroke-width:1;"/><polygon fill="#181818" points="535.15,469.82,528.0152,463.0307,530.4402,468.1414,525.3295,470.5664,535.15,469.82" style="stroke:#181818;stroke-width:1;"/></g><!--link rrhh to UC_PA--><g class="link" data-entity-1="ent0004" data-entity-2="ent0016" data-link-type="dependency" data-source-line="53" id="lnk38"><path d="M586.66,164.04 C565.52,143.45 523.27,104.82 481.22,81 C466.12,72.45 453.9372,67.4119 438.4372,62.2919" fill="none" id="rrhh-to-UC_PA" style="stroke:#181818;stroke-width:1;"/><polygon fill="#181818" points="432.74,60.41,440.0312,67.031,437.4877,61.9783,442.5405,59.4347,432.74,60.41" style="stroke:#181818;stroke-width:1;"/></g><?plantuml-src XLFBRjim4BphAnOwEGS3BOhs51HGBAUvk11YrzTYJQri9ZHfBAbB7r_LJ-YFbJ8fHLGLn1U3EpFQrwoYne4pmF9uSb1B9k6aqPbzblg2Z6UegS5MkNkZtLSy4nGiKStZM_c3uFsxB4FX34E-FbyKOMroG0iK7psuGOr7uXmwy1mUFVRu-F3W0RXYpATJblLokFsrN0xy-0yX6fWN5Cy-2FaU1GhV3DaSVcO0hIM1rWDuOCbtg6jwmgrHKaZNrcGNDqFERwllnTrshB61Xrpua1OIUtRy1T6s66i4Qa4AUSWnqGRDAXKToNORU5KLH5zU4UrHoVhQTQAAedsH_HuDQ8S7zVUFdfjE1nazcSWkQSvew_UE8shi9w5TseDlmuzDjxuQyqAhqbhAg_KCIpDNpWiwAQcSBIcbnxBA95_nr5etxum8fGkE-PAfKzqPeY9kf9fZhwj9TOqyjkmLJ0tnTJjsLE3zbEvxGDv8mSQQndtuz77iWDMcwsSuY-NoS-_QQSnRPH5yTWEt_ao6I_nFl0l4tLkyCl3AjtWXyRgQy1QXsxdePX8SBZn-ilDzrjtv4F2U7h-huXy0?></g></svg>