<svg xmlns="http://www.w3.org/2000/svg" xmlns:xlink="http://www.w3.org/1999/xlink" contentStyleType="text/css" data-diagram-type="DESCRIPTION" height="772px" preserveAspectRatio="none" style="width:611px;height:772px;background:#FFFFFF;" version="1.1" viewBox="0 0 611 772" width="611px" zoomAndPan="magnify"><?plantuml 1.2026.4?><defs/><g><!--cluster Vacaciones--><g class="cluster" data-qualified-name="Vacaciones" data-source-line="15" id="ent0006"><path d="M318.95,93.32 L383.1922,93.32 A3.75,3.75 0 0 1 385.6922,95.82 L392.6922,110.9606 L506.43,110.9606 A2.5,2.5 0 0 1 508.93,113.4606 L508.93,375.82 A2.5,2.5 0 0 1 506.43,378.32 L318.95,378.32 A2.5,2.5 0 0 1 316.45,375.82 L316.45,95.82 A2.5,2.5 0 0 1 318.95,93.32" fill="none" style="stroke:#000000;stroke-width:1.5;"/><line style="stroke:#000000;stroke-width:1.5;" x1="316.45" x2="392.6922" y1="110.9606" y2="110.9606"/><text fill="#000000" font-family="Arial" font-size="10" font-weight="700" lengthAdjust="spacing" textLength="63.2422" x="320.45" y="104.6022">Vacaciones</text></g><!--cluster Tabl?n--><g class="cluster" data-qualified-name="Tabl.n" data-source-line="22" id="ent0011"><path d="M343.28,402.32 L382.4245,402.32 A3.75,3.75 0 0 1 384.9245,404.82 L391.9245,419.9606 L482.1,419.9606 A2.5,2.5 0 0 1 484.6,422.4606 L484.6,593.82 A2.5,2.5 0 0 1 482.1,596.32 L343.28,596.32 A2.5,2.5 0 0 1 340.78,593.82 L340.78,404.82 A2.5,2.5 0 0 1 343.28,402.32" fill="none" style="stroke:#000000;stroke-width:1.5;"/><line style="stroke:#000000;stroke-width:1.5;" x1="340.78" x2="391.9245" y1="419.9606" y2="419.9606"/><text fill="#000000" font-family="Arial" font-size="10" font-weight="700" lengthAdjust="spacing" textLength="38.1445" x="344.78" y="413.6022">Tabl&#243;n</text></g><!--cluster Directorio--><g class="cluster" data-qualified-name="Directorio" data-source-line="28" id="ent0015"><path d="M336.8,620.32 L394.05,620.32 A3.75,3.75 0 0 1 396.55,622.82 L403.55,637.9606 L488.57,637.9606 A2.5,2.5 0 0 1 491.07,640.4606 L491.07,754.82 A2.5,2.5 0 0 1 488.57,757.32 L336.8,757.32 A2.5,2.5 0 0 1 334.3,754.82 L334.3,622.82 A2.5,2.5 0 0 1 336.8,620.32" fill="none" style="stroke:#000000;stroke-width:1.5;"/><line style="stroke:#000000;stroke-width:1.5;" x1="334.3" x2="403.55" y1="637.9606" y2="637.9606"/><text fill="#000000" font-family="Arial" font-size="10" font-weight="700" lengthAdjust="spacing" textLength="56.25" x="338.3" y="631.6022">Directorio</text></g><!--cluster Ajustes--><g class="cluster" data-qualified-name="Ajustes" data-source-line="33" id="ent0018"><path d="M8.5,282.32 L51.2529,282.32 A3.75,3.75 0 0 1 53.7529,284.82 L60.7529,299.9606 L176.02,299.9606 A2.5,2.5 0 0 1 178.52,302.4606 L178.52,541.82 A2.5,2.5 0 0 1 176.02,544.32 L8.5,544.32 A2.5,2.5 0 0 1 6,541.82 L6,284.82 A2.5,2.5 0 0 1 8.5,282.32" fill="none" style="stroke:#000000;stroke-width:1.5;"/><line style="stroke:#000000;stroke-width:1.5;" x1="6" x2="60.7529" y1="299.9606" y2="299.9606"/><text fill="#000000" font-family="Arial" font-size="10" font-weight="700" lengthAdjust="spacing" textLength="41.7529" x="10" y="293.6022">Ajustes</text></g><!--entity UC_ABS--><g class="entity" data-qualified-name="Vacaciones.UC_ABS" data-source-line="16" id="ent0007"><ellipse cx="412.6935" cy="345.3247" fill="#F1F1F1" rx="72.5235" ry="16.9047" style="stroke:#181818;stroke-width:0.5;"/><text fill="#000000" font-family="Arial" font-size="10" lengthAdjust="spacing" textLength="126.2793" x="349.5538" y="347.645">abrirBandejaSolicitudes()</text></g><!--entity UC_SA--><g class="entity" data-qualified-name="Vacaciones.UC_SA" data-source-line="17" id="ent0008"><ellipse cx="412.6947" cy="279.3209" fill="#F1F1F1" rx="57.6047" ry="13.9209" style="stroke:#181818;stroke-width:0.5;"/><text fill="#000000" font-family="Arial" font-size="10" lengthAdjust="spacing" textLength="92.4072" x="366.4911" y="281.6413">solicitarAusencia()</text></g><!--entity UC_CSA--><g class="entity" data-qualified-name="Vacaciones.UC_CSA" data-source-line="18" id="ent0009"><ellipse cx="412.6931" cy="212.3246" fill="#F1F1F1" rx="78.1731" ry="18.0346" style="stroke:#181818;stroke-width:0.5;"/><text fill="#000000" font-family="Arial" font-size="10" lengthAdjust="spacing" textLength="138.623" x="343.3815" y="214.6449">cancelarSolicitudAusencia()</text></g><!--entity UC_GSA--><g class="entity" data-qualified-name="Vacaciones.UC_GSA" data-source-line="19" id="ent0010"><ellipse cx="412.6899" cy="141.318" fill="#F1F1F1" rx="80.2399" ry="18.448" style="stroke:#181818;stroke-width:0.5;"/><text fill="#000000" font-family="Arial" font-size="10" lengthAdjust="spacing" textLength="143.0957" x="341.142" y="143.6383">gestionarSolicitudAusencia()</text></g><!--entity UC_AT--><g class="entity" data-qualified-name="Tabl.n.UC_AT" data-source-line="23" id="ent0012"><ellipse cx="412.6915" cy="568.3223" fill="#F1F1F1" rx="46.6615" ry="11.7323" style="stroke:#181818;stroke-width:0.5;"/><text fill="#000000" font-family="Arial" font-size="10" lengthAdjust="spacing" textLength="65.0977" x="380.1427" y="570.6426">abrirTablon()</text></g><!--entity UC_CT--><g class="entity" data-qualified-name="Tabl.n.UC_CT" data-source-line="24" id="ent0013"><ellipse cx="412.6889" cy="508.3158" fill="#F1F1F1" rx="55.7789" ry="13.5558" style="stroke:#181818;stroke-width:0.5;"/><text fill="#000000" font-family="Arial" font-size="10" lengthAdjust="spacing" textLength="88.0615" x="368.6581" y="510.6361">consultarTablon()</text></g><!--entity UC_PA--><g class="entity" data-qualified-name="Tabl.n.UC_PA" data-source-line="25" id="ent0014"><ellipse cx="412.6913" cy="446.3223" fill="#F1F1F1" rx="55.9113" ry="13.5823" style="stroke:#181818;stroke-width:0.5;"/><text fill="#000000" font-family="Arial" font-size="10" lengthAdjust="spacing" textLength="88.3789" x="368.5019" y="448.6426">publicarAnuncio()</text></g><!--entity UC_AD--><g class="entity" data-qualified-name="Directorio.UC_AD" data-source-line="29" id="ent0016"><ellipse cx="412.6854" cy="728.3191" fill="#F1F1F1" rx="52.6954" ry="12.9391" style="stroke:#181818;stroke-width:0.5;"/><text fill="#000000" font-family="Arial" font-size="10" lengthAdjust="spacing" textLength="80.5664" x="372.4022" y="730.6394">abrirDirectorio()</text></g><!--entity UC_CD--><g class="entity" data-qualified-name="Directorio.UC_CD" data-source-line="30" id="ent0017"><ellipse cx="412.6946" cy="665.3169" fill="#F1F1F1" rx="62.3846" ry="14.8769" style="stroke:#181818;stroke-width:0.5;"/><text fill="#000000" font-family="Arial" font-size="10" lengthAdjust="spacing" textLength="103.5303" x="360.9295" y="667.6372">consultarDirectorio()</text></g><!--entity UC_AA--><g class="entity" data-qualified-name="Ajustes.UC_AA" data-source-line="34" id="ent0019"><ellipse cx="92.2611" cy="516.3202" fill="#F1F1F1" rx="47.6511" ry="11.9302" style="stroke:#181818;stroke-width:0.5;"/><text fill="#000000" font-family="Arial" font-size="10" lengthAdjust="spacing" textLength="67.7295" x="58.3964" y="518.6405">abrirAjustes()</text></g><!--entity UC_EP--><g class="entity" data-qualified-name="Ajustes.UC_EP" data-source-line="35" id="ent0020"><ellipse cx="92.2631" cy="458.3186" fill="#F1F1F1" rx="45.7431" ry="11.5486" style="stroke:#181818;stroke-width:0.5;"/><text fill="#000000" font-family="Arial" font-size="10" lengthAdjust="spacing" textLength="62.6123" x="60.957" y="460.6389">editarPerfil()</text></g><!--entity UC_CFP--><g class="entity" data-qualified-name="Ajustes.UC_CFP" data-source-line="36" id="ent0021"><ellipse cx="92.259" cy="395.3218" fill="#F1F1F1" rx="70.259" ry="16.4518" style="stroke:#181818;stroke-width:0.5;"/><text fill="#000000" font-family="Arial" font-size="10" lengthAdjust="spacing" textLength="121.2744" x="31.6218" y="397.6421">configurarPreferencias()</text></g><!--entity UC_CM--><g class="entity" data-qualified-name="Ajustes.UC_CM" data-source-line="37" id="ent0022"><ellipse cx="92.2608" cy="328.3182" fill="#F1F1F1" rx="68.1408" ry="16.0282" style="stroke:#181818;stroke-width:0.5;"/><text fill="#000000" font-family="Arial" font-size="10" lengthAdjust="spacing" textLength="116.5576" x="33.982" y="330.6385">conectarMicrosoft365()</text></g><!--entity empleado--><g class="entity" data-qualified-name="empleado" data-source-line="8" id="ent0001"><ellipse cx="247.4858" cy="400" fill="#F1F1F1" rx="8" ry="8" style="stroke:#181818;stroke-width:0.5;"/><path d="M247.4858,408 L247.4858,435 M234.4858,416 L260.4858,416 M247.4858,435 L234.4858,450 M247.4858,435 L260.4858,450" fill="none" style="stroke:#181818;stroke-width:0.5;"/><text fill="#000000" font-family="Arial" font-size="10" lengthAdjust="spacing" textLength="49.9316" x="222.52" y="460.7822">Empleado</text></g><!--entity rrhh--><g class="entity" data-qualified-name="rrhh" data-source-line="9" id="ent0002"><ellipse cx="412.6878" cy="14" fill="#F1F1F1" rx="8" ry="8" style="stroke:#181818;stroke-width:0.5;"/><path d="M412.6878,22 L412.6878,49 M399.6878,30 L425.6878,30 M412.6878,49 L399.6878,64 M412.6878,49 L425.6878,64" fill="none" style="stroke:#181818;stroke-width:0.5;"/><text fill="#000000" font-family="Arial" font-size="10" lengthAdjust="spacing" textLength="28.9355" x="398.22" y="74.7822">RRHH</text></g><!--entity manager--><g class="entity" data-qualified-name="manager" data-source-line="10" id="ent0003"><ellipse cx="574.8465" cy="14" fill="#F1F1F1" rx="8" ry="8" style="stroke:#181818;stroke-width:0.5;"/><path d="M574.8465,22 L574.8465,49 M561.8465,30 L587.8465,30 M574.8465,49 L561.8465,64 M574.8465,49 L587.8465,64" fill="none" style="stroke:#181818;stroke-width:0.5;"/><text fill="#000000" font-family="Arial" font-size="10" lengthAdjust="spacing" textLength="43.833" x="552.93" y="74.7822">Manager</text></g><!--reverse link empleado to rrhh--><g class="link" data-entity-1="ent0001" data-entity-2="ent0002" data-link-type="extension" data-source-line="12" id="lnk4"><path d="M253.3425,373.3207 C260.3325,299.7507 277.35,153.41 308.45,107.32 C330.7,74.34 375.53,54.33 398.08,45.93" fill="none" id="empleado-backto-rrhh" style="stroke:#181818;stroke-width:1;"/><polygon fill="none" points="251.64,391.24,259.3156,373.8882,247.3694,372.7532,251.64,391.24" style="stroke:#181818;stroke-width:1;stroke-linejoin:miter;stroke-miterlimit:10;"/></g><!--reverse link rrhh to manager--><g class="link" data-entity-1="ent0002" data-entity-2="ent0003" data-link-type="extension" data-source-line="13" id="lnk5"><path d="M445.62,41.32 C473.7,41.32 519.26,41.32 552.57,41.32" fill="none" id="rrhh-backto-manager" style="stroke:#181818;stroke-width:1;"/><polygon fill="none" points="427.62,41.32,445.62,47.32,445.62,35.32,427.62,41.32" style="stroke:#181818;stroke-width:1;stroke-linejoin:miter;stroke-miterlimit:10;"/></g><!--link empleado to UC_ABS--><g class="link" data-entity-1="ent0001" data-entity-2="ent0007" data-link-type="dependency" data-source-line="40" id="lnk23"><path d="M272.92,415.04 C301.64,400.61 344.8822,378.8846 376.1922,363.1546" fill="none" id="empleado-to-UC_ABS" style="stroke:#181818;stroke-width:1;"/><polygon fill="#181818" points="380.66,360.91,370.8222,361.376,376.1922,363.1546,374.4136,368.5246,380.66,360.91" style="stroke:#181818;stroke-width:1;stroke-linejoin:miter;stroke-miterlimit:10;"/></g><!--link empleado to UC_SA--><g class="link" data-entity-1="ent0001" data-entity-2="ent0008" data-link-type="dependency" data-source-line="41" id="lnk24"><path d="M258.88,391.09 C268.02,365.42 283.77,331.99 308.45,311.32 C323.56,298.67 338.7907,292.2282 357.2207,287.5982" fill="none" id="empleado-to-UC_SA" style="stroke:#181818;stroke-width:1;"/><polygon fill="#181818" points="362.07,286.38,352.3666,284.6934,357.2207,287.5982,354.3158,292.4523,362.07,286.38" style="stroke:#181818;stroke-width:1;stroke-linejoin:miter;stroke-miterlimit:10;"/></g><!--reverse link UC_CSA to empleado--><g class="link" data-entity-1="ent0009" data-entity-2="ent0001" data-link-type="dependency" data-source-line="42" id="lnk25"><path d="M345.7576,225.233 C330.4376,230.563 319.86,236.77 308.45,248.32 C270.1,287.14 256.27,351.18 251.29,391.22" fill="none" id="UC_CSA-backto-empleado" style="stroke:#181818;stroke-width:1;"/><polygon fill="#181818" points="350.48,223.59,340.6654,222.7694,345.7576,225.233,343.2941,230.3252,350.48,223.59" style="stroke:#181818;stroke-width:1;stroke-linejoin:miter;stroke-miterlimit:10;"/></g><!--link empleado to UC_AT--><g class="link" data-entity-1="ent0001" data-entity-2="ent0012" data-link-type="dependency" data-source-line="43" id="lnk26"><path d="M259.43,463.56 C268.7,488.3 284.37,519.99 308.45,539.32 C325.51,553.02 343.7484,559.3142 363.7984,563.1342" fill="none" id="empleado-to-UC_AT" style="stroke:#181818;stroke-width:1;"/><polygon fill="#181818" points="368.71,564.07,360.6177,558.4563,363.7984,563.1342,359.1204,566.3149,368.71,564.07" style="stroke:#181818;stroke-width:1;stroke-linejoin:miter;stroke-miterlimit:10;"/></g><!--reverse link UC_CT to empleado--><g class="link" data-entity-1="ent0013" data-entity-2="ent0001" data-link-type="dependency" data-source-line="44" id="lnk27"><path d="M363.8883,498.3017 C344.7283,493.3617 327.16,487.38 308.45,477.32 C295.68,470.45 283.1,460.59 272.8,451.44" fill="none" id="UC_CT-backto-empleado" style="stroke:#181818;stroke-width:1;"/><polygon fill="#181818" points="368.73,499.55,361.0137,493.4297,363.8883,498.3017,359.0164,501.1764,368.73,499.55" style="stroke:#181818;stroke-width:1;stroke-linejoin:miter;stroke-miterlimit:10;"/></g><!--link empleado to UC_AD--><g class="link" data-entity-1="ent0001" data-entity-2="ent0016" data-link-type="dependency" data-source-line="45" id="lnk28"><path d="M252,463.43 C259.08,528.91 277.11,663.6 308.45,697.32 C322.34,712.26 338.2177,719.0678 357.5077,723.1378" fill="none" id="empleado-to-UC_AD" style="stroke:#181818;stroke-width:1;"/><polygon fill="#181818" points="362.4,724.17,354.4197,718.3982,357.5077,723.1378,352.7681,726.2258,362.4,724.17" style="stroke:#181818;stroke-width:1;stroke-linejoin:miter;stroke-miterlimit:10;"/></g><!--reverse link UC_CD to empleado--><g class="link" data-entity-1="ent0017" data-entity-2="ent0001" data-link-type="dependency" data-source-line="46" id="lnk29"><path d="M377.6019,649.7861 C354.6019,638.1061 327.91,621.33 308.45,596.32 C277.67,556.76 261.89,500.12 254.41,463.52" fill="none" id="UC_CD-backto-empleado" style="stroke:#181818;stroke-width:1;"/><polygon fill="#181818" points="382.06,652.05,375.8466,644.4084,377.6019,649.7861,372.2243,651.5414,382.06,652.05" style="stroke:#181818;stroke-width:1;stroke-linejoin:miter;stroke-miterlimit:10;"/></g><!--link empleado to UC_AA--><g class="link" data-entity-1="ent0001" data-entity-2="ent0019" data-link-type="dependency" data-source-line="47" id="lnk30"><path d="M222.03,457.28 C211.98,468.01 199.63,479.4 186.52,487.32 C169.54,497.58 153.4457,503.2874 135.7157,507.7974" fill="none" id="empleado-to-UC_AA" style="stroke:#181818;stroke-width:1;"/><polygon fill="#181818" points="130.87,509.03,140.5783,510.6879,135.7157,507.7974,138.6062,502.9348,130.87,509.03" style="stroke:#181818;stroke-width:1;stroke-linejoin:miter;stroke-miterlimit:10;"/></g><!--reverse link UC_EP to empleado--><g class="link" data-entity-1="ent0020" data-entity-2="ent0001" data-link-type="dependency" data-source-line="48" id="lnk31"><path d="M133.7005,450.1376 C162.3405,444.3376 196.96,437.34 222.12,432.25" fill="none" id="UC_EP-backto-empleado" style="stroke:#181818;stroke-width:1;"/><polygon fill="#181818" points="128.8,451.13,138.4149,453.2641,133.7005,450.1376,136.827,445.4232,128.8,451.13" style="stroke:#181818;stroke-width:1;stroke-linejoin:miter;stroke-miterlimit:10;"/></g><!--reverse link UC_CFP to empleado--><g class="link" data-entity-1="ent0021" data-entity-2="ent0001" data-link-type="dependency" data-source-line="49" id="lnk32"><path d="M150.8842,407.3533 C176.8542,412.7833 202,418.03 222.42,422.29" fill="none" id="UC_CFP-backto-empleado" style="stroke:#181818;stroke-width:1;"/><polygon fill="#181818" points="145.99,406.33,153.9808,412.0873,150.8842,407.3533,155.6181,404.2566,145.99,406.33" style="stroke:#181818;stroke-width:1;stroke-linejoin:miter;stroke-miterlimit:10;"/></g><!--reverse link UC_CM to empleado--><g class="link" data-entity-1="ent0022" data-entity-2="ent0001" data-link-type="dependency" data-source-line="50" id="lnk33"><path d="M145.1874,341.5892 C160.6474,346.6992 172.64,352.1 186.52,361.32 C199.8,370.15 212.1,382.56 222.06,394.23" fill="none" id="UC_CM-backto-empleado" style="stroke:#181818;stroke-width:1;"/><polygon fill="#181818" points="140.44,340.02,147.73,346.6424,145.1874,341.5892,150.2406,339.0466,140.44,340.02" style="stroke:#181818;stroke-width:1;stroke-linejoin:miter;stroke-miterlimit:10;"/></g><!--link rrhh to UC_GSA--><g class="link" data-entity-1="ent0002" data-entity-2="ent0010" data-link-type="dependency" data-source-line="52" id="lnk34"><path d="M412.69,77.5 C412.69,92.52 412.69,102.55 412.69,117.57" fill="none" id="rrhh-to-UC_GSA" style="stroke:#181818;stroke-width:1;"/><polygon fill="#181818" points="412.69,122.57,416.69,113.57,412.69,117.57,408.69,113.57,412.69,122.57" style="stroke:#181818;stroke-width:1;stroke-linejoin:miter;stroke-miterlimit:10;"/></g><!--link rrhh to UC_PA--><g class="link" data-entity-1="ent0002" data-entity-2="ent0014" data-link-type="dependency" data-source-line="53" id="lnk35"><path d="M398.07,45.56 C370.05,54.62 309.85,78.89 290.45,124.82 C270.04,173.13 270.04,312.51 290.45,360.82 C306.42,398.63 344.8605,420.4867 375.3305,433.1067" fill="none" id="rrhh-to-UC_PA" style="stroke:#181818;stroke-width:1;"/><polygon fill="#181818" points="379.95,435.02,373.1656,427.8805,375.3305,433.1067,370.1044,435.2717,379.95,435.02" style="stroke:#181818;stroke-width:1;stroke-linejoin:miter;stroke-miterlimit:10;"/></g><?plantuml-src XLF1JkCm4BtdAwnmAOTA8CIUq4gXQU5ILD7kNbTJPv8QNBiQEvU5_Qhz17wCIPo490JXGnJFUy_pnZDspygSWE0ezY2V2xAboHPMMn9dgtf5aSRS2sy5gUBWHQO8fLVMHAwJPfX3gVtA6ly0HnG9AT3J-5RzHN5v4KKWFIU9byUJHiXiBC09R3Oj-FXuVn-BQZ58T3Yqm1eC54Xn3Hp39efQkRXvdSy3l_hK1zIXZddYMlbFnBz1WkHYqCNY9HAYT2Z1CG1xKdGB9iCds5gjfF9bXcvstldvjVYJt6xx6XTuG0c7Z5JGifiLHDkahv5W96gWBiT86pIBeQX0LtNWIrKGtR7eNw_M7UprstypLMW5MJCgRZVmQOtZ5aAFsbWRq4xbdXtn3PYIxTWFscRe9Qsdo9AoKtO-q96bTDBIaDxOIWVvagVI-UacDz2mLqs-mQrZLlLsWvGhFSLURaRkSbMKn0h27AbkZ-iPN8tfN0FGMacopkR-wiTrlvcBTLLFD-7p-Szs0CSnxleiZCovkE6XxnxL9_4k47VVyTB0Ix_ZXSJBpOWt2zLEHTUZO7YlpNdL_FRtF4Bl?></g></svg>