<svg xmlns="http://www.w3.org/2000/svg" xmlns:xlink="http://www.w3.org/1999/xlink" contentStyleType="text/css" data-diagram-type="DESCRIPTION" height="582px" preserveAspectRatio="none" style="width:399px;height:582px;background:#FFFFFF;" version="1.1" viewBox="0 0 399 582" width="399px" zoomAndPan="magnify"><?plantuml 1.2026.4?><defs/><g><!--cluster Administraci?n--><g class="cluster" data-qualified-name="Administraci.n" data-source-line="13" id="ent0004"><path d="M227.5,171 L313.5488,171 A3.75,3.75 0 0 1 316.0488,173.5 L323.0488,188.6406 L381.61,188.6406 A2.5,2.5 0 0 1 384.11,191.1406 L384.11,564.5 A2.5,2.5 0 0 1 381.61,567 L227.5,567 A2.5,2.5 0 0 1 225,564.5 L225,173.5 A2.5,2.5 0 0 1 227.5,171" fill="none" style="stroke:#000000;stroke-width:1.5;"/><line style="stroke:#000000;stroke-width:1.5;" x1="225" x2="323.0488" y1="188.6406" y2="188.6406"/><text fill="#000000" font-family="Arial" font-size="10" font-weight="700" lengthAdjust="spacing" textLength="85.0488" x="229" y="182.2822">Administraci&#243;n</text></g><!--cluster Panel--><g class="cluster" data-qualified-name="Panel" data-source-line="22" id="ent0011"><path d="M227.1,6 L259.5063,6 A3.75,3.75 0 0 1 262.0063,8.5 L269.0063,23.6406 L382,23.6406 A2.5,2.5 0 0 1 384.5,26.1406 L384.5,144.5 A2.5,2.5 0 0 1 382,147 L227.1,147 A2.5,2.5 0 0 1 224.6,144.5 L224.6,8.5 A2.5,2.5 0 0 1 227.1,6" fill="none" style="stroke:#000000;stroke-width:1.5;"/><line style="stroke:#000000;stroke-width:1.5;" x1="224.6" x2="269.0063" y1="23.6406" y2="23.6406"/><text fill="#000000" font-family="Arial" font-size="10" font-weight="700" lengthAdjust="spacing" textLength="31.4063" x="228.6" y="17.2822">Panel</text></g><!--entity UC_AAD--><g class="entity" data-qualified-name="Administraci.n.UC_AAD" data-source-line="14" id="ent0005"><ellipse cx="304.5544" cy="410.0009" fill="#F1F1F1" rx="63.5544" ry="15.1109" style="stroke:#181818;stroke-width:0.5;"/><text fill="#000000" font-family="Arial" font-size="10" lengthAdjust="spacing" textLength="106.2061" x="251.4513" y="412.3212">abrirAdministracion()</text></g><!--entity UC_GE--><g class="entity" data-qualified-name="Administraci.n.UC_GE" data-source-line="15" id="ent0006"><ellipse cx="304.5451" cy="344.997" fill="#F1F1F1" rx="62.7851" ry="14.957" style="stroke:#181818;stroke-width:0.5;"/><text fill="#000000" font-family="Arial" font-size="10" lengthAdjust="spacing" textLength="104.4482" x="252.321" y="347.3173">gestionarEntidades()</text></g><!--entity UC_GP--><g class="entity" data-qualified-name="Administraci.n.UC_GP" data-source-line="16" id="ent0007"><ellipse cx="304.5505" cy="474.0001" fill="#F1F1F1" rx="55.1005" ry="13.4201" style="stroke:#181818;stroke-width:0.5;"/><text fill="#000000" font-family="Arial" font-size="10" lengthAdjust="spacing" textLength="86.4307" x="261.3352" y="476.3204">gestionarPlazas()</text></g><!--entity UC_GU--><g class="entity" data-qualified-name="Administraci.n.UC_GU" data-source-line="17" id="ent0008"><ellipse cx="304.552" cy="536.9984" fill="#F1F1F1" rx="60.042" ry="14.4084" style="stroke:#181818;stroke-width:0.5;"/><text fill="#000000" font-family="Arial" font-size="10" lengthAdjust="spacing" textLength="98.1201" x="255.4919" y="539.3187">gestionarUsuarios()</text></g><!--entity UC_CMO--><g class="entity" data-qualified-name="Administraci.n.UC_CMO" data-source-line="18" id="ent0009"><ellipse cx="304.5548" cy="280.005" fill="#F1F1F1" rx="61.1248" ry="14.625" style="stroke:#181818;stroke-width:0.5;"/><text fill="#000000" font-family="Arial" font-size="10" lengthAdjust="spacing" textLength="100.6299" x="254.2399" y="282.3253">configurarModulos()</text></g><!--entity UC_CS--><g class="entity" data-qualified-name="Administraci.n.UC_CS" data-source-line="19" id="ent0010"><ellipse cx="304.5504" cy="215.9961" fill="#F1F1F1" rx="60.5804" ry="14.5161" style="stroke:#181818;stroke-width:0.5;"/><text fill="#000000" font-family="Arial" font-size="10" lengthAdjust="spacing" textLength="99.3701" x="254.8654" y="218.3164">configurarSistema()</text></g><!--entity UC_APA--><g class="entity" data-qualified-name="Panel.UC_APA" data-source-line="23" id="ent0012"><ellipse cx="304.5487" cy="115.9997" fill="#F1F1F1" rx="63.9487" ry="15.1897" style="stroke:#181818;stroke-width:0.5;"/><text fill="#000000" font-family="Arial" font-size="10" lengthAdjust="spacing" textLength="107.1045" x="250.9965" y="118.3201">abrirPanelAnaliticas()</text></g><!--entity UC_CA--><g class="entity" data-qualified-name="Panel.UC_CA" data-source-line="24" id="ent0013"><ellipse cx="304.5527" cy="51.0005" fill="#F1F1F1" rx="60.7027" ry="14.5405" style="stroke:#181818;stroke-width:0.5;"/><text fill="#000000" font-family="Arial" font-size="10" lengthAdjust="spacing" textLength="99.6533" x="254.726" y="53.3208">consultarAnalytics()</text></g><!--entity manager--><g class="entity" data-qualified-name="manager" data-source-line="8" id="ent0001"><ellipse cx="27.9165" cy="407.68" fill="#F1F1F1" rx="8" ry="8" style="stroke:#181818;stroke-width:0.5;"/><path d="M27.9165,415.68 L27.9165,442.68 M14.9165,423.68 L40.9165,423.68 M27.9165,442.68 L14.9165,457.68 M27.9165,442.68 L40.9165,457.68" fill="none" style="stroke:#181818;stroke-width:0.5;"/><text fill="#000000" font-family="Arial" font-size="10" lengthAdjust="spacing" textLength="43.833" x="6" y="468.4622">Manager</text></g><!--entity admin--><g class="entity" data-qualified-name="admin" data-source-line="9" id="ent0002"><ellipse cx="145.2157" cy="220.68" fill="#F1F1F1" rx="8" ry="8" style="stroke:#181818;stroke-width:0.5;"/><path d="M145.2157,228.68 L145.2157,255.68 M132.2157,236.68 L158.2157,236.68 M145.2157,255.68 L132.2157,270.68 M145.2157,255.68 L158.2157,270.68" fill="none" style="stroke:#181818;stroke-width:0.5;"/><text fill="#000000" font-family="Arial" font-size="10" lengthAdjust="spacing" textLength="70.7715" x="109.83" y="281.4622">Administrador</text></g><!--reverse link manager to admin--><g class="link" data-entity-1="ent0001" data-entity-2="ent0002" data-link-type="extension" data-source-line="11" id="lnk3"><path d="M59.508,385.3789 C79.858,352.3789 101.07,317.98 121.83,284.32" fill="none" id="manager-backto-admin" style="stroke:#181818;stroke-width:1;"/><polygon fill="none" points="50.06,400.7,64.615,388.5283,54.401,382.2296,50.06,400.7" style="stroke:#181818;stroke-width:1;stroke-linejoin:miter;stroke-miterlimit:10;"/></g><!--link manager to UC_AAD--><g class="link" data-entity-1="ent0001" data-entity-2="ent0005" data-link-type="dependency" data-source-line="27" id="lnk14"><path d="M50.01,433.08 C91.15,429.34 178.4106,421.3936 239.5606,415.8236" fill="none" id="manager-to-UC_AAD" style="stroke:#181818;stroke-width:1;"/><polygon fill="#181818" points="244.54,415.37,235.2143,412.2029,239.5606,415.8236,235.94,420.1699,244.54,415.37" style="stroke:#181818;stroke-width:1;stroke-linejoin:miter;stroke-miterlimit:10;"/></g><!--link manager to UC_GP--><g class="link" data-entity-1="ent0001" data-entity-2="ent0007" data-link-type="dependency" data-source-line="28" id="lnk15"><path d="M50.01,438 C93.85,444.22 190.7797,457.987 251.1997,466.567" fill="none" id="manager-to-UC_GP" style="stroke:#181818;stroke-width:1;"/><polygon fill="#181818" points="256.15,467.27,247.8018,462.0444,251.1997,466.567,246.677,469.9649,256.15,467.27" style="stroke:#181818;stroke-width:1;stroke-linejoin:miter;stroke-miterlimit:10;"/></g><!--link manager to UC_GU--><g class="link" data-entity-1="ent0001" data-entity-2="ent0008" data-link-type="dependency" data-source-line="29" id="lnk16"><path d="M50.3,443.01 C85.12,456.05 156.27,482.65 216.6,505 C234.4,511.59 249.5771,517.1848 265.8171,523.1548" fill="none" id="manager-to-UC_GU" style="stroke:#181818;stroke-width:1;"/><polygon fill="#181818" points="270.51,524.88,263.4428,518.0203,265.8171,523.1548,260.6826,525.529,270.51,524.88" style="stroke:#181818;stroke-width:1;stroke-linejoin:miter;stroke-miterlimit:10;"/></g><!--link admin to UC_GE--><g class="link" data-entity-1="ent0002" data-entity-2="ent0006" data-link-type="dependency" data-source-line="31" id="lnk17"><path d="M180.64,284.03 C191.47,294.01 203.93,304.23 216.6,312 C231.05,320.87 243.5596,326.3614 258.8496,331.7014" fill="none" id="admin-to-UC_GE" style="stroke:#181818;stroke-width:1;"/><polygon fill="#181818" points="263.57,333.35,256.3922,326.6062,258.8496,331.7014,253.7544,334.1589,263.57,333.35" style="stroke:#181818;stroke-width:1;stroke-linejoin:miter;stroke-miterlimit:10;"/></g><!--link admin to UC_CMO--><g class="link" data-entity-1="ent0002" data-entity-2="ent0009" data-link-type="dependency" data-source-line="32" id="lnk18"><path d="M180.75,255.02 C203.09,259.57 227.5605,264.5424 251.9705,269.5124" fill="none" id="admin-to-UC_CMO" style="stroke:#181818;stroke-width:1;"/><polygon fill="#181818" points="256.87,270.51,248.849,264.7948,251.9705,269.5124,247.2529,272.634,256.87,270.51" style="stroke:#181818;stroke-width:1;stroke-linejoin:miter;stroke-miterlimit:10;"/></g><!--link admin to UC_CS--><g class="link" data-entity-1="ent0002" data-entity-2="ent0010" data-link-type="dependency" data-source-line="33" id="lnk19"><path d="M180.75,240.98 C203.18,236.41 227.7904,231.4067 252.2704,226.4267" fill="none" id="admin-to-UC_CS" style="stroke:#181818;stroke-width:1;"/><polygon fill="#181818" points="257.17,225.43,247.5532,223.3044,252.2704,226.4267,249.148,231.1438,257.17,225.43" style="stroke:#181818;stroke-width:1;stroke-linejoin:miter;stroke-miterlimit:10;"/></g><!--link admin to UC_APA--><g class="link" data-entity-1="ent0002" data-entity-2="ent0012" data-link-type="dependency" data-source-line="34" id="lnk20"><path d="M180.94,216.18 C192.2,206.07 204.82,194.94 216.6,185 C239.44,165.75 262.5439,147.5677 280.3339,133.8177" fill="none" id="admin-to-UC_APA" style="stroke:#181818;stroke-width:1;"/><polygon fill="#181818" points="284.29,130.76,274.7229,133.099,280.3339,133.8177,279.6152,139.4287,284.29,130.76" style="stroke:#181818;stroke-width:1;stroke-linejoin:miter;stroke-miterlimit:10;"/></g><!--link admin to UC_CA--><g class="link" data-entity-1="ent0002" data-entity-2="ent0013" data-link-type="dependency" data-source-line="35" id="lnk21"><path d="M152.85,212 C161.45,174.95 179.93,117.87 216.6,83 C227.8,72.36 238.0753,66.7772 252.4853,61.9872" fill="none" id="admin-to-UC_CA" style="stroke:#181818;stroke-width:1;"/><polygon fill="#181818" points="257.23,60.41,247.4277,59.4532,252.4853,61.9872,249.9512,67.0447,257.23,60.41" style="stroke:#181818;stroke-width:1;stroke-linejoin:miter;stroke-miterlimit:10;"/></g><?plantuml-src RP91JiCm44NtFeLLDh2817k4P9MMLI1Ib3MQscuOrR6hiREWmAau0XV3Rf8ghkAT_pnx_F_O7z0UWQ3ZEv27bbnlrTePH_ncUrwC6RqFF3XEs7u4hf2q3EWiyvUZIk-XDs7hR7Y5JdD126QvNkD9yuTxna26s6HLWeLMqueF2ppl1cK2XEhGeWy4oaKi0f0KnaQEFtuNnQGTeuSepaz9_FkrA_x5EE-zbk1Z5NQ4D4USlRqxtzsituLudhEjziajqCO6LA2qJ-Z8lcmMqSh02GQENz1g4Mry3uHkX4UqcQFIsJssFG6LJlKcHzVbsp9RHsUwWuojsSyieWgiDal1d0l2Wi60Sh0n9bE9gsO-JXKeiP-HpLycKhTfI4NnD6Lx9SLShfKc_euqd8kmoVV9T2xK-JuzD0S4-mS0?></g></svg>