<svg xmlns="http://www.w3.org/2000/svg" xmlns:xlink="http://www.w3.org/1999/xlink" contentStyleType="text/css" data-diagram-type="DESCRIPTION" height="569px" preserveAspectRatio="none" style="width:693px;height:569px;;background:#FFFFFF" version="1.1" viewBox="0 0 693 569" width="693px" zoomAndPan="magnify"><?plantuml 1.2026.4beta2?><defs/><g><!--cluster Sesi?n--><g class="cluster" data-qualified-name="Sesi.n" data-source-line="10" id="ent0005"><path d="M322.56,93.32 L360.9135,93.32 A3.75,3.75 0 0 1 363.4135,95.82 L370.4135,110.9606 L468.56,110.9606 A2.5,2.5 0 0 1 471.06,113.4606 L471.06,223.82 A2.5,2.5 0 0 1 468.56,226.32 L322.56,226.32 A2.5,2.5 0 0 1 320.06,223.82 L320.06,95.82 A2.5,2.5 0 0 1 322.56,93.32" fill="none" style="stroke:#000000;stroke-width:1.5;"/><line style="stroke:#000000;stroke-width:1.5;" x1="320.06" x2="370.4135" y1="110.9606" y2="110.9606"/><text fill="#000000" font-family="Arial" font-size="10" font-weight="700" lengthAdjust="spacing" textLength="37.3535" x="324.06" y="104.6022">Sesi&#243;n</text></g><!--cluster Parking--><g class="cluster" data-qualified-name="Parking" data-source-line="15" id="ent0008"><path d="M501.56,32.32 L545.9243,32.32 A3.75,3.75 0 0 1 548.4243,34.82 L555.4243,49.9606 L675.7,49.9606 A2.5,2.5 0 0 1 678.2,52.4606 L678.2,551.82 A2.5,2.5 0 0 1 675.7,554.32 L501.56,554.32 A2.5,2.5 0 0 1 499.06,551.82 L499.06,34.82 A2.5,2.5 0 0 1 501.56,32.32" fill="none" style="stroke:#000000;stroke-width:1.5;"/><line style="stroke:#000000;stroke-width:1.5;" x1="499.06" x2="555.4243" y1="49.9606" y2="49.9606"/><text fill="#000000" font-family="Arial" font-size="10" font-weight="700" lengthAdjust="spacing" textLength="43.3643" x="503.06" y="43.6022">Parking</text></g><!--cluster Oficinas--><g class="cluster" data-qualified-name="Oficinas" data-source-line="26" id="ent0017"><path d="M8.5,187.32 L54.9541,187.32 A3.75,3.75 0 0 1 57.4541,189.82 L64.4541,204.9606 L179.63,204.9606 A2.5,2.5 0 0 1 182.13,207.4606 L182.13,394.82 A2.5,2.5 0 0 1 179.63,397.32 L8.5,397.32 A2.5,2.5 0 0 1 6,394.82 L6,189.82 A2.5,2.5 0 0 1 8.5,187.32" fill="none" style="stroke:#000000;stroke-width:1.5;"/><line style="stroke:#000000;stroke-width:1.5;" x1="6" x2="64.4541" y1="204.9606" y2="204.9606"/><text fill="#000000" font-family="Arial" font-size="10" font-weight="700" lengthAdjust="spacing" textLength="45.4541" x="10" y="198.6022">Oficinas</text></g><!--entity UC_LOGOUT--><g class="entity" data-qualified-name="Sesi.n.UC_LOGOUT" data-source-line="11" id="ent0006"><ellipse cx="395.5594" cy="198.3199" fill="#F1F1F1" rx="48.8494" ry="12.1699" style="stroke:#181818;stroke-width:0.5;"/><text fill="#000000" font-family="Arial" font-size="10" lengthAdjust="spacing" textLength="70.8594" x="360.1297" y="200.6402">cerrarSesion()</text></g><!--entity UC_CG--><g class="entity" data-qualified-name="Sesi.n.UC_CG" data-source-line="12" id="ent0007"><ellipse cx="395.5633" cy="137.3207" fill="#F1F1F1" rx="59.5033" ry="14.3007" style="stroke:#181818;stroke-width:0.5;"/><text fill="#000000" font-family="Arial" font-size="10" lengthAdjust="spacing" textLength="96.8652" x="347.1307" y="139.641">completarGestion()</text></g><!--entity UC_ACP--><g class="entity" data-qualified-name="Parking.UC_ACP" data-source-line="16" id="ent0009"><ellipse cx="588.627" cy="266.3174" fill="#F1F1F1" rx="70.887" ry="16.5774" style="stroke:#181818;stroke-width:0.5;"/><text fill="#000000" font-family="Arial" font-size="10" lengthAdjust="spacing" textLength="122.666" x="527.2939" y="268.6377">abrirCalendarioParking()</text></g><!--entity UC_RP--><g class="entity" data-qualified-name="Parking.UC_RP" data-source-line="17" id="ent0010"><ellipse cx="588.6276" cy="330.3235" fill="#F1F1F1" rx="50.8676" ry="12.5735" style="stroke:#181818;stroke-width:0.5;"/><text fill="#000000" font-family="Arial" font-size="10" lengthAdjust="spacing" textLength="76.0107" x="550.6223" y="332.6438">reservarPlaza()</text></g><!--entity UC_CRP--><g class="entity" data-qualified-name="Parking.UC_CRP" data-source-line="18" id="ent0011"><ellipse cx="588.6295" cy="458.3239" fill="#F1F1F1" rx="73.5695" ry="17.1139" style="stroke:#181818;stroke-width:0.5;"/><text fill="#000000" font-family="Arial" font-size="10" lengthAdjust="spacing" textLength="128.5791" x="524.3399" y="460.6442">cancelarReservaParking()</text></g><!--entity UC_CP--><g class="entity" data-qualified-name="Parking.UC_CP" data-source-line="19" id="ent0012"><ellipse cx="588.6274" cy="135.3215" fill="#F1F1F1" rx="45.6574" ry="11.5315" style="stroke:#181818;stroke-width:0.5;"/><text fill="#000000" font-family="Arial" font-size="10" lengthAdjust="spacing" textLength="62.3779" x="557.4384" y="137.6418">cederPlaza()</text></g><!--entity UC_CC--><g class="entity" data-qualified-name="Parking.UC_CC" data-source-line="20" id="ent0013"><ellipse cx="588.6326" cy="75.3205" fill="#F1F1F1" rx="54.1026" ry="13.2205" style="stroke:#181818;stroke-width:0.5;"/><text fill="#000000" font-family="Arial" font-size="10" lengthAdjust="spacing" textLength="84.0137" x="546.6258" y="77.6408">cancelarCesion()</text></g><!--entity UC_CRC--><g class="entity" data-qualified-name="Parking.UC_CRC" data-source-line="21" id="ent0014"><ellipse cx="588.6268" cy="198.3194" fill="#F1F1F1" rx="70.1468" ry="16.4294" style="stroke:#181818;stroke-width:0.5;"/><text fill="#000000" font-family="Arial" font-size="10" lengthAdjust="spacing" textLength="121.0254" x="528.1141" y="200.6397">configurarReglaCesion()</text></g><!--entity UC_RV--><g class="entity" data-qualified-name="Parking.UC_RV" data-source-line="22" id="ent0015"><ellipse cx="588.6256" cy="392.3191" fill="#F1F1F1" rx="58.5956" ry="14.1191" style="stroke:#181818;stroke-width:0.5;"/><text fill="#000000" font-family="Arial" font-size="10" lengthAdjust="spacing" textLength="94.7412" x="541.255" y="394.6394">registrarVisitante()</text></g><!--entity UC_CV--><g class="entity" data-qualified-name="Parking.UC_CV" data-source-line="23" id="ent0016"><ellipse cx="588.6337" cy="524.3187" fill="#F1F1F1" rx="58.4937" ry="14.0987" style="stroke:#181818;stroke-width:0.5;"/><text fill="#000000" font-family="Arial" font-size="10" lengthAdjust="spacing" textLength="94.502" x="541.3828" y="526.6391">cancelarVisitante()</text></g><!--entity UC_ACO--><g class="entity" data-qualified-name="Oficinas.UC_ACO" data-source-line="27" id="ent0018"><ellipse cx="94.0626" cy="364.3225" fill="#F1F1F1" rx="72.0626" ry="16.8125" style="stroke:#181818;stroke-width:0.5;"/><text fill="#000000" font-family="Arial" font-size="10" lengthAdjust="spacing" textLength="125.2637" x="31.4308" y="366.6428">abrirCalendarioOficinas()</text></g><!--entity UC_RPO--><g class="entity" data-qualified-name="Oficinas.UC_RPO" data-source-line="28" id="ent0019"><ellipse cx="94.0581" cy="299.3156" fill="#F1F1F1" rx="53.8781" ry="13.1756" style="stroke:#181818;stroke-width:0.5;"/><text fill="#000000" font-family="Arial" font-size="10" lengthAdjust="spacing" textLength="83.4668" x="52.3247" y="301.6359">reservarPuesto()</text></g><!--entity UC_CRPO--><g class="entity" data-qualified-name="Oficinas.UC_CRPO" data-source-line="29" id="ent0020"><ellipse cx="94.0634" cy="234.3227" fill="#F1F1F1" rx="71.8634" ry="16.7727" style="stroke:#181818;stroke-width:0.5;"/><text fill="#000000" font-family="Arial" font-size="10" lengthAdjust="spacing" textLength="124.8242" x="31.6513" y="236.643">cancelarReservaPuesto()</text></g><!--entity empleado--><g class="entity" data-qualified-name="empleado" data-source-line="5" id="ent0002"><ellipse cx="251.0958" cy="272" fill="#F1F1F1" rx="8" ry="8" style="stroke:#181818;stroke-width:0.5;"/><path d="M251.0958,280 L251.0958,307 M238.0958,288 L264.0958,288 M251.0958,307 L238.0958,322 M251.0958,307 L264.0958,322" fill="none" style="stroke:#181818;stroke-width:0.5;"/><text fill="#000000" font-family="Arial" font-size="10" lengthAdjust="spacing" textLength="49.9316" x="226.13" y="332.7822">Empleado</text></g><!--entity manager--><g class="entity" data-qualified-name="manager" data-source-line="6" id="ent0003"><ellipse cx="395.5565" cy="14" fill="#F1F1F1" rx="8" ry="8" style="stroke:#181818;stroke-width:0.5;"/><path d="M395.5565,22 L395.5565,49 M382.5565,30 L408.5565,30 M395.5565,49 L382.5565,64 M395.5565,49 L408.5565,64" fill="none" style="stroke:#181818;stroke-width:0.5;"/><text fill="#000000" font-family="Arial" font-size="10" lengthAdjust="spacing" textLength="43.833" x="373.64" y="74.7822">Manager</text></g><!--reverse link empleado to manager--><g class="link" data-entity-1="ent0002" data-entity-2="ent0003" data-link-type="extension" data-source-line="8" id="lnk4"><path d="M259.8257,245.5443 C266.6157,204.7543 279.16,155.47 312.06,107.32 C327.99,84 354.61,64.85 373.29,53.3" fill="none" id="empleado-backto-manager" style="stroke:#181818;stroke-width:1;"/><polygon fill="none" points="256.87,263.3,265.7442,246.5295,253.9071,244.5591,256.87,263.3" style="stroke:#181818;stroke-width:1;"/></g><!--link empleado to UC_LOGOUT--><g class="link" data-entity-1="ent0002" data-entity-2="ent0006" data-link-type="dependency" data-source-line="32" id="lnk21"><path d="M276.44,269.93 C286.66,258.79 299.15,246.57 312.06,237.32 C328.93,225.23 344.5851,217.5679 361.2651,210.7579" fill="none" id="empleado-to-UC_LOGOUT" style="stroke:#181818;stroke-width:1;"/><polygon fill="#181818" points="366.82,208.49,356.9758,208.1886,362.1909,210.3799,359.9996,215.5951,366.82,208.49" style="stroke:#181818;stroke-width:1;"/></g><!--link empleado to UC_CG--><g class="link" data-entity-1="ent0002" data-entity-2="ent0007" data-link-type="dependency" data-source-line="33" id="lnk22"><path d="M260.48,263.12 C268.96,233.94 284.8,193.74 312.06,168.32 C322.69,158.41 331.117,153.5339 344.647,148.8739" fill="none" id="empleado-to-UC_CG" style="stroke:#181818;stroke-width:1;"/><polygon fill="#181818" points="350.32,146.92,340.508,146.0688,345.5925,148.5482,343.1132,153.6328,350.32,146.92" style="stroke:#181818;stroke-width:1;"/></g><!--link empleado to UC_ACP--><g class="link" data-entity-1="ent0002" data-entity-2="ent0009" data-link-type="dependency" data-source-line="34" id="lnk23"><path d="M276.48,293.74 C287.33,291.44 300.28,288.94 312.06,287.32 C382.05,277.69 456.7083,272.5052 512.5983,269.5652" fill="none" id="empleado-to-UC_ACP" style="stroke:#181818;stroke-width:1;"/><polygon fill="#181818" points="518.59,269.25,509.3923,265.7283,513.5969,269.5127,509.8125,273.7173,518.59,269.25" style="stroke:#181818;stroke-width:1;"/></g><!--link empleado to UC_RP--><g class="link" data-entity-1="ent0002" data-entity-2="ent0010" data-link-type="dependency" data-source-line="35" id="lnk24"><path d="M276.49,301.57 C331.91,306.69 462.0955,318.7175 534.5455,325.4175" fill="none" id="empleado-to-UC_RP" style="stroke:#181818;stroke-width:1;"/><polygon fill="#181818" points="540.52,325.97,531.9266,321.1582,535.5412,325.5096,531.1899,329.1242,540.52,325.97" style="stroke:#181818;stroke-width:1;"/></g><!--reverse link UC_CRP to empleado--><g class="link" data-entity-1="ent0011" data-entity-2="ent0002" data-link-type="dependency" data-source-line="36" id="lnk25"><path d="M514.4422,450.788 C455.2022,442.188 374.75,423.64 312.06,380.32 C295.5,368.88 281.72,351.37 271.56,335.56" fill="none" id="UC_CRP-backto-empleado" style="stroke:#181818;stroke-width:1;"/><polygon fill="#181818" points="520.38,451.65,512.048,446.3985,515.4319,450.9317,510.8987,454.3155,520.38,451.65" style="stroke:#181818;stroke-width:1;"/></g><!--link empleado to UC_RV--><g class="link" data-entity-1="ent0002" data-entity-2="ent0015" data-link-type="dependency" data-source-line="37" id="lnk26"><path d="M276.36,312.58 C287.07,318.03 299.95,324.05 312.06,328.32 C389.52,355.66 477.4812,373.5577 533.2612,383.3977" fill="none" id="empleado-to-UC_RV" style="stroke:#181818;stroke-width:1;"/><polygon fill="#181818" points="539.17,384.44,531.0018,378.9373,534.246,383.5714,529.612,386.8157,539.17,384.44" style="stroke:#181818;stroke-width:1;"/></g><!--reverse link UC_CV to empleado--><g class="link" data-entity-1="ent0016" data-entity-2="ent0002" data-link-type="dependency" data-source-line="38" id="lnk27"><path d="M523.9392,523.6472 C462.7392,520.2472 372.68,506.18 312.06,452.32 C278.15,422.19 263.23,370.47 256.79,335.6" fill="none" id="UC_CV-backto-empleado" style="stroke:#181818;stroke-width:1;"/><polygon fill="#181818" points="529.93,523.98,521.1657,519.4869,524.9377,523.7026,520.722,527.4746,529.93,523.98" style="stroke:#181818;stroke-width:1;"/></g><!--reverse link UC_ACO to empleado--><g class="link" data-entity-1="ent0018" data-entity-2="ent0002" data-link-type="dependency" data-source-line="39" id="lnk28"><path d="M142.8493,348.6455 C159.5293,342.8655 173.09,337.73 190.13,330.32 C202.05,325.13 214.91,318.61 225.65,312.9" fill="none" id="UC_ACO-backto-empleado" style="stroke:#181818;stroke-width:1;"/><polygon fill="#181818" points="137.18,350.61,146.9936,351.4427,141.9044,348.9729,144.3742,343.8837,137.18,350.61" style="stroke:#181818;stroke-width:1;"/></g><!--link empleado to UC_RPO--><g class="link" data-entity-1="ent0002" data-entity-2="ent0019" data-link-type="dependency" data-source-line="40" id="lnk29"><path d="M225.75,299.32 C205.08,299.32 180.69,299.32 154.41,299.32" fill="none" id="empleado-to-UC_RPO" style="stroke:#181818;stroke-width:1;"/><polygon fill="#181818" points="148.41,299.32,157.41,303.32,153.41,299.32,157.41,295.32,148.41,299.32" style="stroke:#181818;stroke-width:1;"/></g><!--reverse link UC_CRPO to empleado--><g class="link" data-entity-1="ent0020" data-entity-2="ent0002" data-link-type="dependency" data-source-line="41" id="lnk30"><path d="M142.8493,249.9945 C159.5293,255.7745 173.09,260.91 190.13,268.32 C202.05,273.51 214.91,280.03 225.65,285.74" fill="none" id="UC_CRPO-backto-empleado" style="stroke:#181818;stroke-width:1;"/><polygon fill="#181818" points="137.18,248.03,144.3742,254.7563,141.9044,249.6671,146.9936,247.1973,137.18,248.03" style="stroke:#181818;stroke-width:1;"/></g><!--link manager to UC_CP--><g class="link" data-entity-1="ent0003" data-entity-2="ent0012" data-link-type="dependency" data-source-line="43" id="lnk31"><path d="M417.9,58.88 C436.31,73.31 464.13,93.41 491.06,106.32 C510.79,115.78 528.4667,121.4351 547.3367,126.2551" fill="none" id="manager-to-UC_CP" style="stroke:#181818;stroke-width:1;"/><polygon fill="#181818" points="553.15,127.74,545.4199,121.6371,548.3055,126.5026,543.44,129.3882,553.15,127.74" style="stroke:#181818;stroke-width:1;"/></g><!--link manager to UC_CC--><g class="link" data-entity-1="ent0003" data-entity-2="ent0013" data-link-type="dependency" data-source-line="44" id="lnk32"><path d="M417.74,45.09 C448.05,50.48 498.6027,59.4796 538.0827,66.4996" fill="none" id="manager-to-UC_CC" style="stroke:#181818;stroke-width:1;"/><polygon fill="#181818" points="543.99,67.55,535.8293,62.0362,539.0672,66.6747,534.4287,69.9126,543.99,67.55" style="stroke:#181818;stroke-width:1;"/></g><!--link manager to UC_CRC--><g class="link" data-entity-1="ent0003" data-entity-2="ent0014" data-link-type="dependency" data-source-line="45" id="lnk33"><path d="M417.63,52.51 C436.71,63.77 464.06,82.95 479.06,107.32 C492.63,129.37 474,144.85 491.06,164.32 C501.32,176.01 510.164,181.7451 524.844,186.7751" fill="none" id="manager-to-UC_CRC" style="stroke:#181818;stroke-width:1;"/><polygon fill="#181818" points="530.52,188.72,523.3025,182.0187,525.79,187.0993,520.7094,189.5867,530.52,188.72" style="stroke:#181818;stroke-width:1;"/></g><?plantuml-src XPFDJiCm3CVlVGghf-qm2UuJqXJ1Ba2dZVMAJEkMQ6aoEHc70K_58_1YfFI3VcdSMlldlvty7KMP0sU0PVxg89LCYPD61_OWzH4P2qWfmvDoTqQxHom8LYnHJUTtyanmVHK4c3Z34DuMHqMOcX3G0jK_JV81DUR48PJ9ele9WeQ2vSTYyHS-OdBmNn3koChlBnt2Um1mifIWzT64c97BdD6pkPU4NzMzUBwFrj7-gSUQieL3NfDrDL-nOXryTbfjaFqXyq4hV6790XNf55cQ6leJMObD5sUon6_86uLdR4RhpBVjqGdgX1JojgeQYOi1JYbDABVYOb9SzAwfGul-DUbCvYSkXyaLTegQKKJ_dBcqpjEnjDAXTjJtOHjFZJA26_6uvqIKoKHgj9UjQAYk5z6a5oVll9aq8xhaHgUijICg1ssNTh6uwIpTCEptQnWgjsKOynxFAl4vBFqZQ1_E28mhC1vmi-he_rNxsUi-GpIetrqx-6OK4QF8Llm0?></g></svg>