<svg xmlns="http://www.w3.org/2000/svg" xmlns:xlink="http://www.w3.org/1999/xlink" contentStyleType="text/css" data-diagram-type="DESCRIPTION" height="789px" preserveAspectRatio="none" style="width:514px;height:789px;background:#FFFFFF;" version="1.1" viewBox="0 0 514 789" width="514px" zoomAndPan="magnify"><?plantuml 1.2026.4?><defs/><g><!--cluster Sesi?n--><g class="cluster" data-qualified-name="Sesi.n" data-source-line="13" id="ent0004"><path d="M336.62,93.32 L374.9735,93.32 A3.75,3.75 0 0 1 377.4735,95.82 L384.4735,110.9606 L482.63,110.9606 A2.5,2.5 0 0 1 485.13,113.4606 L485.13,223.82 A2.5,2.5 0 0 1 482.63,226.32 L336.62,226.32 A2.5,2.5 0 0 1 334.12,223.82 L334.12,95.82 A2.5,2.5 0 0 1 336.62,93.32" fill="none" style="stroke:#000000;stroke-width:1.5;"/><line style="stroke:#000000;stroke-width:1.5;" x1="334.12" x2="384.4735" y1="110.9606" y2="110.9606"/><text fill="#000000" font-family="Arial" font-size="10" font-weight="700" lengthAdjust="spacing" textLength="37.3535" x="338.12" y="104.6022">Sesi&#243;n</text></g><!--cluster Parking--><g class="cluster" data-qualified-name="Parking" data-source-line="18" id="ent0007"><path d="M322.56,250.32 L366.9243,250.32 A3.75,3.75 0 0 1 369.4243,252.82 L376.4243,267.9606 L496.7,267.9606 A2.5,2.5 0 0 1 499.2,270.4606 L499.2,771.82 A2.5,2.5 0 0 1 496.7,774.32 L322.56,774.32 A2.5,2.5 0 0 1 320.06,771.82 L320.06,252.82 A2.5,2.5 0 0 1 322.56,250.32" fill="none" style="stroke:#000000;stroke-width:1.5;"/><line style="stroke:#000000;stroke-width:1.5;" x1="320.06" x2="376.4243" y1="267.9606" y2="267.9606"/><text fill="#000000" font-family="Arial" font-size="10" font-weight="700" lengthAdjust="spacing" textLength="43.3643" x="324.06" y="261.6022">Parking</text></g><!--cluster Oficinas--><g class="cluster" data-qualified-name="Oficinas" data-source-line="29" id="ent0016"><path d="M8.5,311.32 L54.9541,311.32 A3.75,3.75 0 0 1 57.4541,313.82 L64.4541,328.9606 L179.63,328.9606 A2.5,2.5 0 0 1 182.13,331.4606 L182.13,518.82 A2.5,2.5 0 0 1 179.63,521.32 L8.5,521.32 A2.5,2.5 0 0 1 6,518.82 L6,313.82 A2.5,2.5 0 0 1 8.5,311.32" fill="none" style="stroke:#000000;stroke-width:1.5;"/><line style="stroke:#000000;stroke-width:1.5;" x1="6" x2="64.4541" y1="328.9606" y2="328.9606"/><text fill="#000000" font-family="Arial" font-size="10" font-weight="700" lengthAdjust="spacing" textLength="45.4541" x="10" y="322.6022">Oficinas</text></g><!--entity UC_LOGOUT--><g class="entity" data-qualified-name="Sesi.n.UC_LOGOUT" data-source-line="14" id="ent0005"><ellipse cx="409.6294" cy="198.3199" fill="#F1F1F1" rx="48.8494" ry="12.1699" style="stroke:#181818;stroke-width:0.5;"/><text fill="#000000" font-family="Arial" font-size="10" lengthAdjust="spacing" textLength="70.8594" x="374.1997" y="200.6402">cerrarSesion()</text></g><!--entity UC_CG--><g class="entity" data-qualified-name="Sesi.n.UC_CG" data-source-line="15" id="ent0006"><ellipse cx="409.6333" cy="137.3207" fill="#F1F1F1" rx="59.5033" ry="14.3007" style="stroke:#181818;stroke-width:0.5;"/><text fill="#000000" font-family="Arial" font-size="10" lengthAdjust="spacing" textLength="96.8652" x="361.2007" y="139.641">completarGestion()</text></g><!--entity UC_ACP--><g class="entity" data-qualified-name="Parking.UC_ACP" data-source-line="19" id="ent0008"><ellipse cx="409.627" cy="741.3174" fill="#F1F1F1" rx="70.887" ry="16.5774" style="stroke:#181818;stroke-width:0.5;"/><text fill="#000000" font-family="Arial" font-size="10" lengthAdjust="spacing" textLength="122.666" x="348.2939" y="743.6377">abrirCalendarioParking()</text></g><!--entity UC_RP--><g class="entity" data-qualified-name="Parking.UC_RP" data-source-line="20" id="ent0009"><ellipse cx="409.6276" cy="677.3235" fill="#F1F1F1" rx="50.8676" ry="12.5735" style="stroke:#181818;stroke-width:0.5;"/><text fill="#000000" font-family="Arial" font-size="10" lengthAdjust="spacing" textLength="76.0107" x="371.6223" y="679.6438">reservarPlaza()</text></g><!--entity UC_CRP--><g class="entity" data-qualified-name="Parking.UC_CRP" data-source-line="21" id="ent0010"><ellipse cx="409.6295" cy="612.3239" fill="#F1F1F1" rx="73.5695" ry="17.1139" style="stroke:#181818;stroke-width:0.5;"/><text fill="#000000" font-family="Arial" font-size="10" lengthAdjust="spacing" textLength="128.5791" x="345.3399" y="614.6442">cancelarReservaParking()</text></g><!--entity UC_CP--><g class="entity" data-qualified-name="Parking.UC_CP" data-source-line="22" id="ent0011"><ellipse cx="409.6274" cy="548.3215" fill="#F1F1F1" rx="45.6574" ry="11.5315" style="stroke:#181818;stroke-width:0.5;"/><text fill="#000000" font-family="Arial" font-size="10" lengthAdjust="spacing" textLength="62.3779" x="378.4384" y="550.6418">cederPlaza()</text></g><!--entity UC_CC--><g class="entity" data-qualified-name="Parking.UC_CC" data-source-line="23" id="ent0012"><ellipse cx="409.6326" cy="488.3205" fill="#F1F1F1" rx="54.1026" ry="13.2205" style="stroke:#181818;stroke-width:0.5;"/><text fill="#000000" font-family="Arial" font-size="10" lengthAdjust="spacing" textLength="84.0137" x="367.6258" y="490.6408">cancelarCesion()</text></g><!--entity UC_CRC--><g class="entity" data-qualified-name="Parking.UC_CRC" data-source-line="24" id="ent0013"><ellipse cx="409.6268" cy="423.3194" fill="#F1F1F1" rx="70.1468" ry="16.4294" style="stroke:#181818;stroke-width:0.5;"/><text fill="#000000" font-family="Arial" font-size="10" lengthAdjust="spacing" textLength="121.0254" x="349.1141" y="425.6397">configurarReglaCesion()</text></g><!--entity UC_RV--><g class="entity" data-qualified-name="Parking.UC_RV" data-source-line="25" id="ent0014"><ellipse cx="409.6256" cy="357.3191" fill="#F1F1F1" rx="58.5956" ry="14.1191" style="stroke:#181818;stroke-width:0.5;"/><text fill="#000000" font-family="Arial" font-size="10" lengthAdjust="spacing" textLength="94.7412" x="362.255" y="359.6394">registrarVisitante()</text></g><!--entity UC_CV--><g class="entity" data-qualified-name="Parking.UC_CV" data-source-line="26" id="ent0015"><ellipse cx="409.6337" cy="294.3187" fill="#F1F1F1" rx="58.4937" ry="14.0987" style="stroke:#181818;stroke-width:0.5;"/><text fill="#000000" font-family="Arial" font-size="10" lengthAdjust="spacing" textLength="94.502" x="362.3828" y="296.6391">cancelarVisitante()</text></g><!--entity UC_ACO--><g class="entity" data-qualified-name="Oficinas.UC_ACO" data-source-line="30" id="ent0017"><ellipse cx="94.0626" cy="488.3225" fill="#F1F1F1" rx="72.0626" ry="16.8125" style="stroke:#181818;stroke-width:0.5;"/><text fill="#000000" font-family="Arial" font-size="10" lengthAdjust="spacing" textLength="125.2637" x="31.4308" y="490.6428">abrirCalendarioOficinas()</text></g><!--entity UC_RPO--><g class="entity" data-qualified-name="Oficinas.UC_RPO" data-source-line="31" id="ent0018"><ellipse cx="94.0581" cy="423.3156" fill="#F1F1F1" rx="53.8781" ry="13.1756" style="stroke:#181818;stroke-width:0.5;"/><text fill="#000000" font-family="Arial" font-size="10" lengthAdjust="spacing" textLength="83.4668" x="52.3247" y="425.6359">reservarPuesto()</text></g><!--entity UC_CRPO--><g class="entity" data-qualified-name="Oficinas.UC_CRPO" data-source-line="32" id="ent0019"><ellipse cx="94.0634" cy="358.3227" fill="#F1F1F1" rx="71.8634" ry="16.7727" style="stroke:#181818;stroke-width:0.5;"/><text fill="#000000" font-family="Arial" font-size="10" lengthAdjust="spacing" textLength="124.8242" x="31.6513" y="360.643">cancelarReservaPuesto()</text></g><!--entity empleado--><g class="entity" data-qualified-name="empleado" data-source-line="8" id="ent0001"><ellipse cx="251.0958" cy="396" fill="#F1F1F1" rx="8" ry="8" style="stroke:#181818;stroke-width:0.5;"/><path d="M251.0958,404 L251.0958,431 M238.0958,412 L264.0958,412 M251.0958,431 L238.0958,446 M251.0958,431 L264.0958,446" fill="none" style="stroke:#181818;stroke-width:0.5;"/><text fill="#000000" font-family="Arial" font-size="10" lengthAdjust="spacing" textLength="49.9316" x="226.13" y="456.7822">Empleado</text></g><!--entity rrhh--><g class="entity" data-qualified-name="rrhh" data-source-line="9" id="ent0002"><ellipse cx="409.6278" cy="14" fill="#F1F1F1" rx="8" ry="8" style="stroke:#181818;stroke-width:0.5;"/><path d="M409.6278,22 L409.6278,49 M396.6278,30 L422.6278,30 M409.6278,49 L396.6278,64 M409.6278,49 L422.6278,64" fill="none" style="stroke:#181818;stroke-width:0.5;"/><text fill="#000000" font-family="Arial" font-size="10" lengthAdjust="spacing" textLength="28.9355" x="395.16" y="74.7822">RRHH</text></g><!--reverse link empleado to rrhh--><g class="link" data-entity-1="ent0001" data-entity-2="ent0002" data-link-type="extension" data-source-line="11" id="lnk3"><path d="M257.2686,369.3011 C264.6186,296.5211 282.06,153.17 312.06,107.32 C332.52,76.05 373.45,55.64 394.86,46.63" fill="none" id="empleado-backto-rrhh" style="stroke:#181818;stroke-width:1;"/><polygon fill="none" points="255.46,387.21,263.2382,369.904,251.299,368.6982,255.46,387.21" style="stroke:#181818;stroke-width:1;stroke-linejoin:miter;stroke-miterlimit:10;"/></g><!--link empleado to UC_LOGOUT--><g class="link" data-entity-1="ent0001" data-entity-2="ent0005" data-link-type="dependency" data-source-line="35" id="lnk20"><path d="M259.14,387.04 C267.27,352.62 283.35,300.86 312.06,264.32 C331.63,239.41 358.7586,222.627 380.4386,211.537" fill="none" id="empleado-to-UC_LOGOUT" style="stroke:#181818;stroke-width:1;"/><polygon fill="#181818" points="384.89,209.26,375.0558,209.7975,380.4386,211.537,378.6991,216.9198,384.89,209.26" style="stroke:#181818;stroke-width:1;stroke-linejoin:miter;stroke-miterlimit:10;"/></g><!--link empleado to UC_CG--><g class="link" data-entity-1="ent0001" data-entity-2="ent0006" data-link-type="dependency" data-source-line="36" id="lnk21"><path d="M256.21,387.05 C264.01,324.49 282.82,199.98 312.06,168.32 C323.52,155.9 335.1534,149.7819 351.2334,145.3019" fill="none" id="empleado-to-UC_CG" style="stroke:#181818;stroke-width:1;"/><polygon fill="#181818" points="356.05,143.96,346.3067,142.5222,351.2334,145.3019,348.4537,150.2287,356.05,143.96" style="stroke:#181818;stroke-width:1;stroke-linejoin:miter;stroke-miterlimit:10;"/></g><!--link empleado to UC_ACP--><g class="link" data-entity-1="ent0001" data-entity-2="ent0008" data-link-type="dependency" data-source-line="37" id="lnk22"><path d="M255.35,459.55 C262.14,527.54 279.94,670.72 312.06,707.32 C322.26,718.94 331.954,724.9575 346.544,729.9975" fill="none" id="empleado-to-UC_ACP" style="stroke:#181818;stroke-width:1;"/><polygon fill="#181818" points="351.27,731.63,344.0693,724.9106,346.544,729.9975,341.4572,732.4722,351.27,731.63" style="stroke:#181818;stroke-width:1;stroke-linejoin:miter;stroke-miterlimit:10;"/></g><!--link empleado to UC_RP--><g class="link" data-entity-1="ent0001" data-entity-2="ent0009" data-link-type="dependency" data-source-line="38" id="lnk23"><path d="M251.59,459.47 C252.92,508.53 262.68,595.95 312.06,647.32 C325.2,660.99 339.5651,667.3585 357.4151,671.4285" fill="none" id="empleado-to-UC_RP" style="stroke:#181818;stroke-width:1;"/><polygon fill="#181818" points="362.29,672.54,354.4044,666.6393,357.4151,671.4285,352.626,674.4392,362.29,672.54" style="stroke:#181818;stroke-width:1;stroke-linejoin:miter;stroke-miterlimit:10;"/></g><!--reverse link UC_CRP to empleado--><g class="link" data-entity-1="ent0010" data-entity-2="ent0001" data-link-type="dependency" data-source-line="39" id="lnk24"><path d="M348.2345,599.3876 C333.4845,594.1876 323.28,588.28 312.06,577.32 C279.52,545.55 264.29,494.08 257.4,459.49" fill="none" id="UC_CRP-backto-empleado" style="stroke:#181818;stroke-width:1;"/><polygon fill="#181818" points="352.95,601.05,345.792,594.2852,348.2345,599.3876,343.1321,601.8301,352.95,601.05" style="stroke:#181818;stroke-width:1;stroke-linejoin:miter;stroke-miterlimit:10;"/></g><!--link empleado to UC_RV--><g class="link" data-entity-1="ent0001" data-entity-2="ent0014" data-link-type="dependency" data-source-line="40" id="lnk25"><path d="M276.33,408.14 C287.03,401.82 299.92,394.71 312.06,389.32 C330.78,381.01 347.5927,375.1357 365.5927,369.5757" fill="none" id="empleado-to-UC_RV" style="stroke:#181818;stroke-width:1;"/><polygon fill="#181818" points="370.37,368.1,360.5904,366.9343,365.5927,369.5757,362.9514,374.578,370.37,368.1" style="stroke:#181818;stroke-width:1;stroke-linejoin:miter;stroke-miterlimit:10;"/></g><!--reverse link UC_CV to empleado--><g class="link" data-entity-1="ent0015" data-entity-2="ent0001" data-link-type="dependency" data-source-line="41" id="lnk26"><path d="M356.3394,303.7573 C339.5594,308.3773 326.18,314.22 312.06,325.32 C291.67,341.34 276.53,366.37 266.56,387.11" fill="none" id="UC_CV-backto-empleado" style="stroke:#181818;stroke-width:1;"/><polygon fill="#181818" points="361.16,302.43,351.4211,300.9626,356.3394,303.7573,353.5447,308.6756,361.16,302.43" style="stroke:#181818;stroke-width:1;stroke-linejoin:miter;stroke-miterlimit:10;"/></g><!--reverse link UC_ACO to empleado--><g class="link" data-entity-1="ent0017" data-entity-2="ent0001" data-link-type="dependency" data-source-line="42" id="lnk27"><path d="M141.9044,472.9729 C158.5844,467.1929 173.09,461.73 190.13,454.32 C202.05,449.13 214.91,442.61 225.65,436.9" fill="none" id="UC_ACO-backto-empleado" style="stroke:#181818;stroke-width:1;"/><polygon fill="#181818" points="137.18,474.61,146.9936,475.4427,141.9044,472.9729,144.3742,467.8837,137.18,474.61" style="stroke:#181818;stroke-width:1;stroke-linejoin:miter;stroke-miterlimit:10;"/></g><!--link empleado to UC_RPO--><g class="link" data-entity-1="ent0001" data-entity-2="ent0018" data-link-type="dependency" data-source-line="43" id="lnk28"><path d="M225.75,423.32 C205.08,423.32 179.69,423.32 153.41,423.32" fill="none" id="empleado-to-UC_RPO" style="stroke:#181818;stroke-width:1;"/><polygon fill="#181818" points="148.41,423.32,157.41,427.32,153.41,423.32,157.41,419.32,148.41,423.32" style="stroke:#181818;stroke-width:1;stroke-linejoin:miter;stroke-miterlimit:10;"/></g><!--reverse link UC_CRPO to empleado--><g class="link" data-entity-1="ent0019" data-entity-2="ent0001" data-link-type="dependency" data-source-line="44" id="lnk29"><path d="M141.9044,373.6671 C158.5844,379.4471 173.09,384.91 190.13,392.32 C202.05,397.51 214.91,404.03 225.65,409.74" fill="none" id="UC_CRPO-backto-empleado" style="stroke:#181818;stroke-width:1;"/><polygon fill="#181818" points="137.18,372.03,144.3742,378.7563,141.9044,373.6671,146.9936,371.1973,137.18,372.03" style="stroke:#181818;stroke-width:1;stroke-linejoin:miter;stroke-miterlimit:10;"/></g><!--link empleado to UC_CP--><g class="link" data-entity-1="ent0001" data-entity-2="ent0011" data-link-type="dependency" data-source-line="46" id="lnk30"><path d="M266.85,459.4 C276.84,479.68 291.91,503.94 312.06,519.32 C328.34,531.75 345.0259,537.7998 363.6459,541.8798" fill="none" id="empleado-to-UC_CP" style="stroke:#181818;stroke-width:1;"/><polygon fill="#181818" points="368.53,542.95,360.5947,537.1163,363.6459,541.8798,358.8824,544.9309,368.53,542.95" style="stroke:#181818;stroke-width:1;stroke-linejoin:miter;stroke-miterlimit:10;"/></g><!--link empleado to UC_CC--><g class="link" data-entity-1="ent0001" data-entity-2="ent0012" data-link-type="dependency" data-source-line="47" id="lnk31"><path d="M276.3,438.55 C287,444.89 299.89,451.99 312.06,457.32 C331.41,465.8 349.043,471.7399 367.413,477.1399" fill="none" id="empleado-to-UC_CC" style="stroke:#181818;stroke-width:1;"/><polygon fill="#181818" points="372.21,478.55,364.7034,472.1741,367.413,477.1399,362.4472,479.8494,372.21,478.55" style="stroke:#181818;stroke-width:1;stroke-linejoin:miter;stroke-miterlimit:10;"/></g><!--link empleado to UC_CRC--><g class="link" data-entity-1="ent0001" data-entity-2="ent0013" data-link-type="dependency" data-source-line="48" id="lnk32"><path d="M276.55,423.32 C293.4,423.32 311.71,423.32 334.06,423.32" fill="none" id="empleado-to-UC_CRC" style="stroke:#181818;stroke-width:1;"/><polygon fill="#181818" points="339.06,423.32,330.06,419.32,334.06,423.32,330.06,427.32,339.06,423.32" style="stroke:#181818;stroke-width:1;stroke-linejoin:miter;stroke-miterlimit:10;"/></g><?plantuml-src XPDDJiCm48NtFeKLDksY4kmhfCg2Te58bT9iqJIPfbPTknexB0gSYYDmCHpoG_vKlCluc-TdluazIdq6WXFVGNBCoEGw5KOPuZUFluinXNl7dU4aiuFZgIHCd3IQsQOrnJtaoZqQxPxXX7n14jJu_aPUaD_TCWQ9yuS43wUpGaXDmC5oh3xgpIXQhG9UBBz9T3WmLYDy_Z6RLRMpTmuPyc23Ldv_wO2_CyvpYmbONqsG2AZOCteoRVIsulKfN8RRbmvh2dq7j4JhAhvanP9zjevQ0_dhPRsZO4UI12ZKAP0q5VGdiX3hDaveaTw0rWekK5jh-OiwT08wGGKKbLq3ST73CSKHvKPSZ8gBpZErQD5z9hsNMKw5cKn1gwcs8hhtpAHrdewbbGwqmsuEKJncPG3Nud4dYN0l4wd1Ne-YfjfPXADPv3vvCnf6U2sDLbiJHrWORIPsDhjl3Ls_xEUhNogcfL_p6KzAyIcV-p-W-MK6O5o2SO-Rb5V_hzjxhyxfeqFdGvT-MWObFn8_?></g></svg>