<svg xmlns="http://www.w3.org/2000/svg" xmlns:xlink="http://www.w3.org/1999/xlink" contentStyleType="text/css" data-diagram-type="DESCRIPTION" height="2466px" preserveAspectRatio="none" style="width:425px;height:2466px;background:#FFFFFF;" version="1.1" viewBox="0 0 425 2466" width="425px" zoomAndPan="magnify"><?plantuml 1.2026.3?><defs/><g><!--cluster Acceso--><g class="cluster" data-qualified-name="Acceso" data-source-line="9" id="ent0006"><path d="M199.06,1288 L254.9389,1288 A3.75,3.75 0 0 1 257.4389,1290.5 L264.4389,1310.2969 L360.44,1310.2969 A2.5,2.5 0 0 1 362.94,1312.7969 L362.94,1435.5 A2.5,2.5 0 0 1 360.44,1438 L199.06,1438 A2.5,2.5 0 0 1 196.56,1435.5 L196.56,1290.5 A2.5,2.5 0 0 1 199.06,1288" fill="none" style="stroke:#000000;stroke-width:1.5;"/><line style="stroke:#000000;stroke-width:1.5;" x1="196.56" x2="264.4389" y1="1310.2969" y2="1310.2969"/><text fill="#000000" font-family="sans-serif" font-size="14" font-weight="700" lengthAdjust="spacing" textLength="54.8789" x="200.56" y="1302.9951">Acceso</text></g><!--cluster Parking--><g class="cluster" data-qualified-name="Parking" data-source-line="14" id="ent0009"><path d="M164.45,483 L226.16,483 A3.75,3.75 0 0 1 228.66,485.5 L235.66,505.2969 L395.05,505.2969 A2.5,2.5 0 0 1 397.55,507.7969 L397.55,1000.5 A2.5,2.5 0 0 1 395.05,1003 L164.45,1003 A2.5,2.5 0 0 1 161.95,1000.5 L161.95,485.5 A2.5,2.5 0 0 1 164.45,483" fill="none" style="stroke:#000000;stroke-width:1.5;"/><line style="stroke:#000000;stroke-width:1.5;" x1="161.95" x2="235.66" y1="505.2969" y2="505.2969"/><text fill="#000000" font-family="sans-serif" font-size="14" font-weight="700" lengthAdjust="spacing" textLength="60.71" x="165.95" y="497.9951">Parking</text></g><!--cluster Oficinas--><g class="cluster" data-qualified-name="Oficinas" data-source-line="24" id="ent0017"><path d="M166.84,1462 L231.4757,1462 A3.75,3.75 0 0 1 233.9757,1464.5 L240.9757,1484.2969 L392.66,1484.2969 A2.5,2.5 0 0 1 395.16,1486.7969 L395.16,1624.5 A2.5,2.5 0 0 1 392.66,1627 L166.84,1627 A2.5,2.5 0 0 1 164.34,1624.5 L164.34,1464.5 A2.5,2.5 0 0 1 166.84,1462" fill="none" style="stroke:#000000;stroke-width:1.5;"/><line style="stroke:#000000;stroke-width:1.5;" x1="164.34" x2="240.9757" y1="1484.2969" y2="1484.2969"/><text fill="#000000" font-family="sans-serif" font-size="14" font-weight="700" lengthAdjust="spacing" textLength="63.6357" x="168.34" y="1476.9951">Oficinas</text></g><!--cluster Vacaciones--><g class="cluster" data-qualified-name="Vacaciones" data-source-line="29" id="ent0020"><path d="M151.58,1651 L241.1191,1651 A3.75,3.75 0 0 1 243.6191,1653.5 L250.6191,1673.2969 L407.92,1673.2969 A2.5,2.5 0 0 1 410.42,1675.7969 L410.42,2151.5 A2.5,2.5 0 0 1 407.92,2154 L151.58,2154 A2.5,2.5 0 0 1 149.08,2151.5 L149.08,1653.5 A2.5,2.5 0 0 1 151.58,1651" fill="none" style="stroke:#000000;stroke-width:1.5;"/><line style="stroke:#000000;stroke-width:1.5;" x1="149.08" x2="250.6191" y1="1673.2969" y2="1673.2969"/><text fill="#000000" font-family="sans-serif" font-size="14" font-weight="700" lengthAdjust="spacing" textLength="88.5391" x="153.08" y="1665.9951">Vacaciones</text></g><!--cluster Tabl?n--><g class="cluster" data-qualified-name="Tabl.n" data-source-line="38" id="ent0027"><path d="M189.18,2293 L243.5823,2293 A3.75,3.75 0 0 1 246.0823,2295.5 L253.0823,2315.2969 L370.33,2315.2969 A2.5,2.5 0 0 1 372.83,2317.7969 L372.83,2448.5 A2.5,2.5 0 0 1 370.33,2451 L189.18,2451 A2.5,2.5 0 0 1 186.68,2448.5 L186.68,2295.5 A2.5,2.5 0 0 1 189.18,2293" fill="none" style="stroke:#000000;stroke-width:1.5;"/><line style="stroke:#000000;stroke-width:1.5;" x1="186.68" x2="253.0823" y1="2315.2969" y2="2315.2969"/><text fill="#000000" font-family="sans-serif" font-size="14" font-weight="700" lengthAdjust="spacing" textLength="53.4023" x="190.68" y="2307.9951">Tabl&#243;n</text></g><!--cluster Directorio--><g class="cluster" data-qualified-name="Directorio" data-source-line="43" id="ent0030"><path d="M180.11,2178 L259.86,2178 A3.75,3.75 0 0 1 262.36,2180.5 L269.36,2200.2969 L379.39,2200.2969 A2.5,2.5 0 0 1 381.89,2202.7969 L381.89,2266.5 A2.5,2.5 0 0 1 379.39,2269 L180.11,2269 A2.5,2.5 0 0 1 177.61,2266.5 L177.61,2180.5 A2.5,2.5 0 0 1 180.11,2178" fill="none" style="stroke:#000000;stroke-width:1.5;"/><line style="stroke:#000000;stroke-width:1.5;" x1="177.61" x2="269.36" y1="2200.2969" y2="2200.2969"/><text fill="#000000" font-family="sans-serif" font-size="14" font-weight="700" lengthAdjust="spacing" textLength="78.75" x="181.61" y="2192.9951">Directorio</text></g><!--cluster Ajustes--><g class="cluster" data-qualified-name="Ajustes" data-source-line="47" id="ent0032"><path d="M169.09,1027 L228.5441,1027 A3.75,3.75 0 0 1 231.0441,1029.5 L238.0441,1049.2969 L390.41,1049.2969 A2.5,2.5 0 0 1 392.91,1051.7969 L392.91,1261.5 A2.5,2.5 0 0 1 390.41,1264 L169.09,1264 A2.5,2.5 0 0 1 166.59,1261.5 L166.59,1029.5 A2.5,2.5 0 0 1 169.09,1027" fill="none" style="stroke:#000000;stroke-width:1.5;"/><line style="stroke:#000000;stroke-width:1.5;" x1="166.59" x2="238.0441" y1="1049.2969" y2="1049.2969"/><text fill="#000000" font-family="sans-serif" font-size="14" font-weight="700" lengthAdjust="spacing" textLength="58.4541" x="170.59" y="1041.9951">Ajustes</text></g><!--cluster Administraci?n--><g class="cluster" data-qualified-name="Administraci.n" data-source-line="53" id="ent0036"><path d="M179.55,6 L299.6184,6 A3.75,3.75 0 0 1 302.1184,8.5 L309.1184,28.2969 L379.95,28.2969 A2.5,2.5 0 0 1 382.45,30.7969 L382.45,456.5 A2.5,2.5 0 0 1 379.95,459 L179.55,459 A2.5,2.5 0 0 1 177.05,456.5 L177.05,8.5 A2.5,2.5 0 0 1 179.55,6" fill="none" style="stroke:#000000;stroke-width:1.5;"/><line style="stroke:#000000;stroke-width:1.5;" x1="177.05" x2="309.1184" y1="28.2969" y2="28.2969"/><text fill="#000000" font-family="sans-serif" font-size="14" font-weight="700" lengthAdjust="spacing" textLength="119.0684" x="181.05" y="20.9951">Administraci&#243;n</text></g><!--entity UC_AUTH--><g class="entity" data-qualified-name="Acceso.UC_AUTH" data-source-line="10" id="ent0007"><ellipse cx="279.7533" cy="1405.9967" fill="#F1F1F1" rx="66.9833" ry="15.7967" style="stroke:#181818;stroke-width:0.5;"/><text fill="#000000" font-family="sans-serif" font-size="14" lengthAdjust="spacing" textLength="98.6699" x="230.4184" y="1410.6451">autenticarse()</text></g><!--entity UC_LOGOUT--><g class="entity" data-qualified-name="Acceso.UC_LOGOUT" data-source-line="11" id="ent0008"><ellipse cx="279.7491" cy="1338.9978" fill="#F1F1F1" rx="67.1891" ry="15.8378" style="stroke:#181818;stroke-width:0.5;"/><text fill="#000000" font-family="sans-serif" font-size="14" lengthAdjust="spacing" textLength="99.2031" x="230.1475" y="1343.6463">cerrarSesion()</text></g><!--entity UC_RP--><g class="entity" data-qualified-name="Parking.UC_RP" data-source-line="15" id="ent0010"><ellipse cx="279.7547" cy="971.0029" fill="#F1F1F1" rx="70.0147" ry="16.4029" style="stroke:#181818;stroke-width:0.5;"/><text fill="#000000" font-family="sans-serif" font-size="14" lengthAdjust="spacing" textLength="106.415" x="226.5472" y="975.6514">reservarPlaza()</text></g><!--entity UC_CRP--><g class="entity" data-qualified-name="Parking.UC_CRP" data-source-line="16" id="ent0011"><ellipse cx="279.7472" cy="896.9994" fill="#F1F1F1" rx="101.7972" ry="22.7594" style="stroke:#181818;stroke-width:0.5;"/><text fill="#000000" font-family="sans-serif" font-size="14" lengthAdjust="spacing" textLength="180.0107" x="189.7419" y="901.6479">cancelarReservaParking()</text></g><!--entity UC_RV--><g class="entity" data-qualified-name="Parking.UC_RV" data-source-line="17" id="ent0012"><ellipse cx="279.7539" cy="820.9968" fill="#F1F1F1" rx="80.8339" ry="18.5668" style="stroke:#181818;stroke-width:0.5;"/><text fill="#000000" font-family="sans-serif" font-size="14" lengthAdjust="spacing" textLength="132.6377" x="213.435" y="825.6452">registrarVisitante()</text></g><!--entity UC_CV--><g class="entity" data-qualified-name="Parking.UC_CV" data-source-line="18" id="ent0013"><ellipse cx="279.7512" cy="748.9982" fill="#F1F1F1" rx="80.6912" ry="18.5382" style="stroke:#181818;stroke-width:0.5;"/><text fill="#000000" font-family="sans-serif" font-size="14" lengthAdjust="spacing" textLength="132.3027" x="213.5999" y="753.6467">cancelarVisitante()</text></g><!--entity UC_CP--><g class="entity" data-qualified-name="Parking.UC_CP" data-source-line="19" id="ent0014"><ellipse cx="279.7503" cy="681.0041" fill="#F1F1F1" rx="62.7203" ry="14.9441" style="stroke:#181818;stroke-width:0.5;"/><text fill="#000000" font-family="sans-serif" font-size="14" lengthAdjust="spacing" textLength="87.3291" x="236.0858" y="685.6525">cederPlaza()</text></g><!--entity UC_CC--><g class="entity" data-qualified-name="Parking.UC_CC" data-source-line="20" id="ent0015"><ellipse cx="279.7536" cy="613.9987" fill="#F1F1F1" rx="74.5436" ry="17.3087" style="stroke:#181818;stroke-width:0.5;"/><text fill="#000000" font-family="sans-serif" font-size="14" lengthAdjust="spacing" textLength="117.6191" x="220.9441" y="618.6472">cancelarCesion()</text></g><!--entity UC_CRC--><g class="entity" data-qualified-name="Parking.UC_CRC" data-source-line="21" id="ent0016"><ellipse cx="279.7455" cy="540.0011" fill="#F1F1F1" rx="97.0055" ry="21.8011" style="stroke:#181818;stroke-width:0.5;"/><text fill="#000000" font-family="sans-serif" font-size="14" lengthAdjust="spacing" textLength="169.4355" x="195.0277" y="544.6495">configurarReglaCesion()</text></g><!--entity UC_RPO--><g class="entity" data-qualified-name="Oficinas.UC_RPO" data-source-line="25" id="ent0018"><ellipse cx="279.7493" cy="1593.9959" fill="#F1F1F1" rx="74.2293" ry="17.2459" style="stroke:#181818;stroke-width:0.5;"/><text fill="#000000" font-family="sans-serif" font-size="14" lengthAdjust="spacing" textLength="116.8535" x="221.3225" y="1598.6443">reservarPuesto()</text></g><!--entity UC_CRPO--><g class="entity" data-qualified-name="Oficinas.UC_CRPO" data-source-line="26" id="ent0019"><ellipse cx="279.7488" cy="1519.0018" fill="#F1F1F1" rx="99.4088" ry="22.2818" style="stroke:#181818;stroke-width:0.5;"/><text fill="#000000" font-family="sans-serif" font-size="14" lengthAdjust="spacing" textLength="174.7539" x="192.3719" y="1523.6502">cancelarReservaPuesto()</text></g><!--entity UC_SA--><g class="entity" data-qualified-name="Vacaciones.UC_SA" data-source-line="30" id="ent0021"><ellipse cx="279.7466" cy="1952.9993" fill="#F1F1F1" rx="79.4466" ry="18.2893" style="stroke:#181818;stroke-width:0.5;"/><text fill="#000000" font-family="sans-serif" font-size="14" lengthAdjust="spacing" textLength="129.3701" x="215.0615" y="1957.6478">solicitarAusencia()</text></g><!--entity UC_CSA--><g class="entity" data-qualified-name="Vacaciones.UC_CSA" data-source-line="31" id="ent0022"><ellipse cx="279.7523" cy="1875.9985" fill="#F1F1F1" rx="108.2423" ry="24.0485" style="stroke:#181818;stroke-width:0.5;"/><text fill="#000000" font-family="sans-serif" font-size="14" lengthAdjust="spacing" textLength="194.0723" x="182.7161" y="1880.6469">cancelarSolicitudAusencia()</text></g><!--entity UC_ASA--><g class="entity" data-qualified-name="Vacaciones.UC_ASA" data-source-line="32" id="ent0023"><ellipse cx="279.7507" cy="1792.9981" fill="#F1F1F1" rx="106.0907" ry="23.6181" style="stroke:#181818;stroke-width:0.5;"/><text fill="#000000" font-family="sans-serif" font-size="14" lengthAdjust="spacing" textLength="189.3965" x="185.0524" y="1797.6466">aprobarSolicitudAusencia()</text></g><!--entity UC_RSA--><g class="entity" data-qualified-name="Vacaciones.UC_RSA" data-source-line="33" id="ent0024"><ellipse cx="279.7523" cy="1709.9985" fill="#F1F1F1" rx="108.9423" ry="24.1885" style="stroke:#181818;stroke-width:0.5;"/><text fill="#000000" font-family="sans-serif" font-size="14" lengthAdjust="spacing" textLength="195.5898" x="181.9574" y="1714.6469">rechazarSolicitudAusencia()</text></g><!--entity UC_VSA--><g class="entity" data-qualified-name="Vacaciones.UC_VSA" data-source-line="34" id="ent0025"><ellipse cx="279.7496" cy="2115.0039" fill="#F1F1F1" rx="102.8196" ry="22.9639" style="stroke:#181818;stroke-width:0.5;"/><text fill="#000000" font-family="sans-serif" font-size="14" lengthAdjust="spacing" textLength="182.2529" x="188.6232" y="2119.6524">validarSolicitudAusencia()</text></g><!--entity UC_RVA--><g class="entity" data-qualified-name="Vacaciones.UC_RVA" data-source-line="35" id="ent0026"><ellipse cx="279.752" cy="2032.0044" fill="#F1F1F1" rx="114.672" ry="25.3344" style="stroke:#181818;stroke-width:0.5;"/><text fill="#000000" font-family="sans-serif" font-size="14" lengthAdjust="spacing" textLength="207.9492" x="175.7774" y="2036.6528">rechazarValidacionAusencia()</text></g><!--entity UC_CT--><g class="entity" data-qualified-name="Tabl.n.UC_CT" data-source-line="39" id="ent0028"><ellipse cx="279.7504" cy="2345.9981" fill="#F1F1F1" rx="76.8904" ry="17.7781" style="stroke:#181818;stroke-width:0.5;"/><text fill="#000000" font-family="sans-serif" font-size="14" lengthAdjust="spacing" textLength="123.2861" x="218.1073" y="2350.6465">consultarTablon()</text></g><!--entity UC_PA--><g class="entity" data-qualified-name="Tabl.n.UC_PA" data-source-line="40" id="ent0029"><ellipse cx="279.7459" cy="2416.9952" fill="#F1F1F1" rx="77.0759" ry="17.8152" style="stroke:#181818;stroke-width:0.5;"/><text fill="#000000" font-family="sans-serif" font-size="14" lengthAdjust="spacing" textLength="123.7305" x="217.8806" y="2421.6436">publicarAnuncio()</text></g><!--entity UC_CD--><g class="entity" data-qualified-name="Directorio.UC_CD" data-source-line="44" id="ent0031"><ellipse cx="279.7484" cy="2232.9977" fill="#F1F1F1" rx="86.1384" ry="19.6277" style="stroke:#181818;stroke-width:0.5;"/><text fill="#000000" font-family="sans-serif" font-size="14" lengthAdjust="spacing" textLength="144.9424" x="207.2772" y="2237.6461">consultarDirectorio()</text></g><!--entity UC_EP--><g class="entity" data-qualified-name="Ajustes.UC_EP" data-source-line="48" id="ent0033"><ellipse cx="279.7504" cy="1076.9981" fill="#F1F1F1" rx="62.8404" ry="14.9681" style="stroke:#181818;stroke-width:0.5;"/><text fill="#000000" font-family="sans-serif" font-size="14" lengthAdjust="spacing" textLength="87.6572" x="235.9218" y="1081.6465">editarPerfil()</text></g><!--entity UC_CFP--><g class="entity" data-qualified-name="Ajustes.UC_CFP" data-source-line="49" id="ent0034"><ellipse cx="279.7526" cy="1226.0025" fill="#F1F1F1" rx="97.1626" ry="21.8325" style="stroke:#181818;stroke-width:0.5;"/><text fill="#000000" font-family="sans-serif" font-size="14" lengthAdjust="spacing" textLength="169.7842" x="194.8605" y="1230.651">configurarPreferencias()</text></g><!--entity UC_CM--><g class="entity" data-qualified-name="Ajustes.UC_CM" data-source-line="50" id="ent0035"><ellipse cx="279.7471" cy="1147.9994" fill="#F1F1F1" rx="94.1971" ry="21.2394" style="stroke:#181818;stroke-width:0.5;"/><text fill="#000000" font-family="sans-serif" font-size="14" lengthAdjust="spacing" textLength="163.1807" x="198.1568" y="1152.6479">conectarMicrosoft365()</text></g><!--entity UC_GE--><g class="entity" data-qualified-name="Administraci.n.UC_GE" data-source-line="54" id="ent0037"><ellipse cx="279.7492" cy="276.9998" fill="#F1F1F1" rx="86.6992" ry="19.7398" style="stroke:#181818;stroke-width:0.5;"/><text fill="#000000" font-family="sans-serif" font-size="14" lengthAdjust="spacing" textLength="146.2275" x="206.6354" y="281.6483">gestionarEntidades()</text></g><!--entity UC_GP--><g class="entity" data-qualified-name="Administraci.n.UC_GP" data-source-line="55" id="ent0038"><ellipse cx="279.7508" cy="204.9982" fill="#F1F1F1" rx="75.9408" ry="17.5882" style="stroke:#181818;stroke-width:0.5;"/><text fill="#000000" font-family="sans-serif" font-size="14" lengthAdjust="spacing" textLength="121.0029" x="219.2493" y="209.6466">gestionarPlazas()</text></g><!--entity UC_GU--><g class="entity" data-qualified-name="Administraci.n.UC_GU" data-source-line="56" id="ent0039"><ellipse cx="279.7488" cy="133.0018" fill="#F1F1F1" rx="82.8588" ry="18.9718" style="stroke:#181818;stroke-width:0.5;"/><text fill="#000000" font-family="sans-serif" font-size="14" lengthAdjust="spacing" textLength="137.3682" x="211.0647" y="137.6502">gestionarUsuarios()</text></g><!--entity UC_CMO--><g class="entity" data-qualified-name="Administraci.n.UC_CMO" data-source-line="57" id="ent0040"><ellipse cx="279.7547" cy="60.0049" fill="#F1F1F1" rx="84.3747" ry="19.2749" style="stroke:#181818;stroke-width:0.5;"/><text fill="#000000" font-family="sans-serif" font-size="14" lengthAdjust="spacing" textLength="140.8818" x="209.3138" y="64.6534">configurarModulos()</text></g><!--entity UC_CS--><g class="entity" data-qualified-name="Administraci.n.UC_CS" data-source-line="58" id="ent0041"><ellipse cx="279.7526" cy="424.0025" fill="#F1F1F1" rx="83.6126" ry="19.1225" style="stroke:#181818;stroke-width:0.5;"/><text fill="#000000" font-family="sans-serif" font-size="14" lengthAdjust="spacing" textLength="139.1182" x="210.1935" y="428.651">configurarSistema()</text></g><!--entity UC_CA--><g class="entity" data-qualified-name="Administraci.n.UC_CA" data-source-line="59" id="ent0042"><ellipse cx="279.7537" cy="350.9967" fill="#F1F1F1" rx="83.7837" ry="19.1567" style="stroke:#181818;stroke-width:0.5;"/><text fill="#000000" font-family="sans-serif" font-size="14" lengthAdjust="spacing" textLength="139.5146" x="209.9964" y="355.6452">consultarAnalytics()</text></g><!--entity empleado--><g class="entity" data-qualified-name="empleado" data-source-line="4" id="ent0002"><ellipse cx="55.5421" cy="1309.35" fill="#F1F1F1" rx="8" ry="8" style="stroke:#181818;stroke-width:0.5;"/><path d="M55.5421,1317.35 L55.5421,1344.35 M42.5421,1325.35 L68.5421,1325.35 M55.5421,1344.35 L42.5421,1359.35 M55.5421,1344.35 L68.5421,1359.35" fill="none" style="stroke:#181818;stroke-width:0.5;"/><text fill="#000000" font-family="sans-serif" font-size="14" lengthAdjust="spacing" textLength="69.9043" x="20.59" y="1373.8451">Empleado</text></g><!--entity manager--><g class="entity" data-qualified-name="manager" data-source-line="5" id="ent0003"><ellipse cx="55.5431" cy="651.35" fill="#F1F1F1" rx="8" ry="8" style="stroke:#181818;stroke-width:0.5;"/><path d="M55.5431,659.35 L55.5431,686.35 M42.5431,667.35 L68.5431,667.35 M55.5431,686.35 L42.5431,701.35 M55.5431,686.35 L68.5431,701.35" fill="none" style="stroke:#181818;stroke-width:0.5;"/><text fill="#000000" font-family="sans-serif" font-size="14" lengthAdjust="spacing" textLength="61.3662" x="24.86" y="715.8451">Manager</text></g><!--entity rrhh--><g class="entity" data-qualified-name="rrhh" data-source-line="6" id="ent0004"><ellipse cx="55.5449" cy="2085.35" fill="#F1F1F1" rx="8" ry="8" style="stroke:#181818;stroke-width:0.5;"/><path d="M55.5449,2093.35 L55.5449,2120.35 M42.5449,2101.35 L68.5449,2101.35 M55.5449,2120.35 L42.5449,2135.35 M55.5449,2120.35 L68.5449,2135.35" fill="none" style="stroke:#181818;stroke-width:0.5;"/><text fill="#000000" font-family="sans-serif" font-size="14" lengthAdjust="spacing" textLength="40.5098" x="35.29" y="2149.8451">RRHH</text></g><!--entity admin--><g class="entity" data-qualified-name="admin" data-source-line="7" id="ent0005"><ellipse cx="55.54" cy="211.35" fill="#F1F1F1" rx="8" ry="8" style="stroke:#181818;stroke-width:0.5;"/><path d="M55.54,219.35 L55.54,246.35 M42.54,227.35 L68.54,227.35 M55.54,246.35 L42.54,261.35 M55.54,246.35 L68.54,261.35" fill="none" style="stroke:#181818;stroke-width:0.5;"/><text fill="#000000" font-family="sans-serif" font-size="14" lengthAdjust="spacing" textLength="99.0801" x="6" y="275.8451">Administrador</text></g><!--link empleado to UC_AUTH--><g class="link" data-entity-1="ent0002" data-entity-2="ent0007" data-link-type="dependency" data-source-line="64" id="lnk43"><path d="M90.73,1353.51 C105.98,1359.68 124.26,1366.66 141.08,1372 C169.83,1381.12 196.7417,1387.9594 223.0917,1393.9994" fill="none" id="empleado-to-UC_AUTH" style="stroke:#181818;stroke-width:1;"/><polygon fill="#181818" points="228.94,1395.34,221.0612,1389.4303,224.0664,1394.2229,219.2738,1397.228,228.94,1395.34" style="stroke:#181818;stroke-width:1;"/></g><!--link empleado to UC_LOGOUT--><g class="link" data-entity-1="ent0002" data-entity-2="ent0008" data-link-type="dependency" data-source-line="65" id="lnk44"><path d="M90.77,1339 C123.04,1339 166.26,1339 206.24,1339" fill="none" id="empleado-to-UC_LOGOUT" style="stroke:#181818;stroke-width:1;"/><polygon fill="#181818" points="212.24,1339,203.24,1335,207.24,1339,203.24,1343,212.24,1339" style="stroke:#181818;stroke-width:1;"/></g><!--link empleado to UC_RP--><g class="link" data-entity-1="ent0002" data-entity-2="ent0010" data-link-type="dependency" data-source-line="66" id="lnk45"><path d="M58.37,1300.53 C63.1,1240.09 80.1,1121.97 141.08,1046 C165.45,1015.65 199.9384,997.9238 230.5884,986.3238" fill="none" id="empleado-to-UC_RP" style="stroke:#181818;stroke-width:1;"/><polygon fill="#181818" points="236.2,984.2,226.3668,983.6446,231.5237,985.9698,229.1985,991.1267,236.2,984.2" style="stroke:#181818;stroke-width:1;"/></g><!--link empleado to UC_CRP--><g class="link" data-entity-1="ent0002" data-entity-2="ent0011" data-link-type="dependency" data-source-line="67" id="lnk46"><path d="M59.64,1300.6 C67.66,1210.67 91.98,989.95 141.08,937 C154.03,923.04 165.8342,915.7361 184.0142,909.7161" fill="none" id="empleado-to-UC_CRP" style="stroke:#181818;stroke-width:1;"/><polygon fill="#181818" points="189.71,907.83,179.9088,906.8619,184.9635,909.4017,182.4236,914.4564,189.71,907.83" style="stroke:#181818;stroke-width:1;"/></g><!--link empleado to UC_RV--><g class="link" data-entity-1="ent0002" data-entity-2="ent0012" data-link-type="dependency" data-source-line="68" id="lnk47"><path d="M58.06,1300.64 C62.91,1198.23 81.36,921.83 141.08,857 C156.56,840.19 172.9833,832.1774 195.1133,827.0774" fill="none" id="empleado-to-UC_RV" style="stroke:#181818;stroke-width:1;"/><polygon fill="#181818" points="200.96,825.73,191.2916,823.8533,196.0877,826.8529,193.0882,831.649,200.96,825.73" style="stroke:#181818;stroke-width:1;"/></g><!--link empleado to UC_CV--><g class="link" data-entity-1="ent0002" data-entity-2="ent0013" data-link-type="dependency" data-source-line="69" id="lnk48"><path d="M57.09,1300.73 C59.5,1188.17 72.38,861.27 141.08,785 C156.46,767.93 172.9798,759.8425 195.2398,754.7725" fill="none" id="empleado-to-UC_CV" style="stroke:#181818;stroke-width:1;"/><polygon fill="#181818" points="201.09,753.44,191.4264,751.5386,196.2149,754.5504,193.203,759.3388,201.09,753.44" style="stroke:#181818;stroke-width:1;"/></g><!--link empleado to UC_RPO--><g class="link" data-entity-1="ent0002" data-entity-2="ent0018" data-link-type="dependency" data-source-line="70" id="lnk49"><path d="M60.56,1377.28 C67.81,1426.58 87.7,1511.57 141.08,1559 C159.52,1575.38 178.6797,1583.1075 202.3497,1587.9075" fill="none" id="empleado-to-UC_RPO" style="stroke:#181818;stroke-width:1;"/><polygon fill="#181818" points="208.23,1589.1,200.2045,1583.3911,203.3297,1588.1063,198.6146,1591.2315,208.23,1589.1" style="stroke:#181818;stroke-width:1;"/></g><!--link empleado to UC_CRPO--><g class="link" data-entity-1="ent0002" data-entity-2="ent0019" data-link-type="dependency" data-source-line="71" id="lnk50"><path d="M84.41,1377.41 C99.76,1396.97 119.95,1420.28 141.08,1438 C170.19,1462.41 202.2383,1481.148 230.6983,1495.838" fill="none" id="empleado-to-UC_CRPO" style="stroke:#181818;stroke-width:1;"/><polygon fill="#181818" points="236.03,1498.59,229.8672,1490.9076,231.587,1496.2967,226.1979,1498.0164,236.03,1498.59" style="stroke:#181818;stroke-width:1;"/></g><!--link empleado to UC_SA--><g class="link" data-entity-1="ent0002" data-entity-2="ent0021" data-link-type="dependency" data-source-line="72" id="lnk51"><path d="M56.79,1377.34 C58.32,1493.43 69,1838 141.08,1918 C156.52,1935.13 173.1777,1943.1417 195.5577,1948.0217" fill="none" id="empleado-to-UC_SA" style="stroke:#181818;stroke-width:1;"/><polygon fill="#181818" points="201.42,1949.3,193.4788,1943.4744,196.5348,1948.2348,191.7744,1951.2908,201.42,1949.3" style="stroke:#181818;stroke-width:1;"/></g><!--link empleado to UC_CSA--><g class="link" data-entity-1="ent0002" data-entity-2="ent0022" data-link-type="dependency" data-source-line="73" id="lnk52"><path d="M58.02,1377.5 C62.8,1481.7 81.16,1765.95 141.08,1834 C153.13,1847.69 163.8741,1854.9317 181.1241,1861.2317" fill="none" id="empleado-to-UC_CSA" style="stroke:#181818;stroke-width:1;"/><polygon fill="#181818" points="186.76,1863.29,179.6784,1856.4452,182.0634,1861.5747,176.9339,1863.9598,186.76,1863.29" style="stroke:#181818;stroke-width:1;"/></g><!--link empleado to UC_CT--><g class="link" data-entity-1="ent0002" data-entity-2="ent0028" data-link-type="dependency" data-source-line="74" id="lnk53"><path d="M59.03,1377.46 C70.23,1548.21 116.38,2230.94 141.08,2269 C161.51,2300.47 193.8849,2318.1955 224.7949,2329.8355" fill="none" id="empleado-to-UC_CT" style="stroke:#181818;stroke-width:1;"/><polygon fill="#181818" points="230.41,2331.95,223.3971,2325.0349,225.7308,2330.1879,220.5777,2332.5216,230.41,2331.95" style="stroke:#181818;stroke-width:1;"/></g><!--link empleado to UC_CD--><g class="link" data-entity-1="ent0002" data-entity-2="ent0031" data-link-type="dependency" data-source-line="75" id="lnk54"><path d="M58.49,1377.62 C66.47,1530.5 98.3,2088.22 141.08,2154 C161.06,2184.73 191.8755,2202.6059 222.2255,2214.8459" fill="none" id="empleado-to-UC_CD" style="stroke:#181818;stroke-width:1;"/><polygon fill="#181818" points="227.79,2217.09,220.9393,2210.0141,223.1529,2215.2199,217.9471,2217.4335,227.79,2217.09" style="stroke:#181818;stroke-width:1;"/></g><!--link empleado to UC_EP--><g class="link" data-entity-1="ent0002" data-entity-2="ent0033" data-link-type="dependency" data-source-line="76" id="lnk55"><path d="M59.65,1300.61 C65.94,1249.2 84.8,1158.71 141.08,1109 C161.77,1090.73 184.918,1083.1626 211.038,1079.5026" fill="none" id="empleado-to-UC_EP" style="stroke:#181818;stroke-width:1;"/><polygon fill="#181818" points="216.98,1078.67,207.512,1075.9576,212.0284,1079.3638,208.6221,1083.8802,216.98,1078.67" style="stroke:#181818;stroke-width:1;"/></g><!--link empleado to UC_CFP--><g class="link" data-entity-1="ent0002" data-entity-2="ent0034" data-link-type="dependency" data-source-line="77" id="lnk56"><path d="M90.77,1321.59 C130.83,1301.22 191.6716,1270.2792 233.8816,1248.8192" fill="none" id="empleado-to-UC_CFP" style="stroke:#181818;stroke-width:1;"/><polygon fill="#181818" points="239.23,1246.1,229.3945,1246.6132,234.773,1248.366,233.0201,1253.7444,239.23,1246.1" style="stroke:#181818;stroke-width:1;"/></g><!--link empleado to UC_CM--><g class="link" data-entity-1="ent0002" data-entity-2="ent0035" data-link-type="dependency" data-source-line="78" id="lnk57"><path d="M68.38,1300.59 C80.98,1265.97 104.27,1216.14 141.08,1187 C157.73,1173.82 172.8466,1166.7234 193.2766,1160.9434" fill="none" id="empleado-to-UC_CM" style="stroke:#181818;stroke-width:1;"/><polygon fill="#181818" points="199.05,1159.31,189.301,1157.9112,194.2388,1160.6712,191.4788,1165.609,199.05,1159.31" style="stroke:#181818;stroke-width:1;"/></g><!--link manager to UC_CP--><g class="link" data-entity-1="ent0003" data-entity-2="ent0014" data-link-type="dependency" data-source-line="82" id="lnk58"><path d="M86.51,681 C119.68,681 168.06,681 210.54,681" fill="none" id="manager-to-UC_CP" style="stroke:#181818;stroke-width:1;"/><polygon fill="#181818" points="216.54,681,207.54,677,211.54,681,207.54,685,216.54,681" style="stroke:#181818;stroke-width:1;"/></g><!--link manager to UC_CC--><g class="link" data-entity-1="ent0003" data-entity-2="ent0015" data-link-type="dependency" data-source-line="83" id="lnk59"><path d="M86.38,668.76 C102.44,662.42 122.67,654.8 141.08,649 C168.48,640.36 193.6173,633.747 219.2373,627.567" fill="none" id="manager-to-UC_CC" style="stroke:#181818;stroke-width:1;"/><polygon fill="#181818" points="225.07,626.16,215.383,624.382,220.2094,627.3325,217.2589,632.1589,225.07,626.16" style="stroke:#181818;stroke-width:1;"/></g><!--link manager to UC_CRC--><g class="link" data-entity-1="ent0003" data-entity-2="ent0016" data-link-type="dependency" data-source-line="84" id="lnk60"><path d="M79.96,642.55 C94.95,620.97 116.22,595.2 141.08,579 C159.08,567.27 174.8628,560.6399 195.5128,554.8499" fill="none" id="manager-to-UC_CRC" style="stroke:#181818;stroke-width:1;"/><polygon fill="#181818" points="201.29,553.23,191.5443,551.8083,196.4757,554.5799,193.7041,559.5113,201.29,553.23" style="stroke:#181818;stroke-width:1;"/></g><!--link manager to UC_ASA--><g class="link" data-entity-1="ent0003" data-entity-2="ent0023" data-link-type="dependency" data-source-line="85" id="lnk61"><path d="M59.69,719.38 C67.49,814.72 88.32,1070.02 105.08,1283 C109.18,1335.1 108.26,1711.33 141.08,1752 C152.51,1766.17 162.979,1773.5456 180.169,1779.7756" fill="none" id="manager-to-UC_ASA" style="stroke:#181818;stroke-width:1;"/><polygon fill="#181818" points="185.81,1781.82,178.7115,1774.9928,181.1092,1780.1163,175.9856,1782.514,185.81,1781.82" style="stroke:#181818;stroke-width:1;"/></g><!--link manager to UC_RSA--><g class="link" data-entity-1="ent0003" data-entity-2="ent0024" data-link-type="dependency" data-source-line="86" id="lnk62"><path d="M59.51,719.55 C73.05,894.65 128.82,1607.38 141.08,1627 C159.2,1655.99 186.0598,1673.7309 214.8198,1686.9709" fill="none" id="manager-to-UC_RSA" style="stroke:#181818;stroke-width:1;"/><polygon fill="#181818" points="220.27,1689.48,213.7674,1682.0829,215.7282,1687.3891,210.422,1689.3499,220.27,1689.48" style="stroke:#181818;stroke-width:1;"/></g><!--link rrhh to UC_VSA--><g class="link" data-entity-1="ent0004" data-entity-2="ent0025" data-link-type="dependency" data-source-line="90" id="lnk63"><path d="M76.26,2115 C99.1,2115 132.46,2115 170.44,2115" fill="none" id="rrhh-to-UC_VSA" style="stroke:#181818;stroke-width:1;"/><polygon fill="#181818" points="176.44,2115,167.44,2111,171.44,2115,167.44,2119,176.44,2115" style="stroke:#181818;stroke-width:1;"/></g><!--link rrhh to UC_RVA--><g class="link" data-entity-1="ent0004" data-entity-2="ent0026" data-link-type="dependency" data-source-line="91" id="lnk64"><path d="M76.01,2104.83 C92.93,2096.23 118.24,2083.92 141.08,2075 C162.42,2066.66 180.3669,2060.5595 201.9769,2053.8895" fill="none" id="rrhh-to-UC_RVA" style="stroke:#181818;stroke-width:1;"/><polygon fill="#181818" points="207.71,2052.12,197.9306,2050.9522,202.9324,2053.5946,200.29,2058.5964,207.71,2052.12" style="stroke:#181818;stroke-width:1;"/></g><!--link rrhh to UC_PA--><g class="link" data-entity-1="ent0004" data-entity-2="ent0029" data-link-type="dependency" data-source-line="92" id="lnk65"><path d="M57.62,2153.61 C61.37,2211.45 77.12,2320.28 141.08,2381 C158.55,2397.58 176.8148,2405.4954 200.0048,2410.4954" fill="none" id="rrhh-to-UC_PA" style="stroke:#181818;stroke-width:1;"/><polygon fill="#181818" points="205.87,2411.76,197.9152,2405.953,200.9823,2410.7062,196.2291,2413.7732,205.87,2411.76" style="stroke:#181818;stroke-width:1;"/></g><!--link admin to UC_GE--><g class="link" data-entity-1="ent0005" data-entity-2="ent0037" data-link-type="dependency" data-source-line="96" id="lnk66"><path d="M105.31,248.9 C135.46,253.78 168.7373,259.1803 202.2473,264.6103" fill="none" id="admin-to-UC_GE" style="stroke:#181818;stroke-width:1;"/><polygon fill="#181818" points="208.17,265.57,199.9257,260.1819,203.2344,264.7702,198.6461,268.0789,208.17,265.57" style="stroke:#181818;stroke-width:1;"/></g><!--link admin to UC_GP--><g class="link" data-entity-1="ent0005" data-entity-2="ent0038" data-link-type="dependency" data-source-line="97" id="lnk67"><path d="M105.31,233.1 C138.01,227.8 175.4472,221.7394 210.6372,216.0394" fill="none" id="admin-to-UC_GP" style="stroke:#181818;stroke-width:1;"/><polygon fill="#181818" points="216.56,215.08,207.0362,212.5705,211.6243,215.8795,208.3154,220.4676,216.56,215.08" style="stroke:#181818;stroke-width:1;"/></g><!--link admin to UC_GU--><g class="link" data-entity-1="ent0005" data-entity-2="ent0039" data-link-type="dependency" data-source-line="98" id="lnk68"><path d="M95.21,202.43 C108.8,190.62 124.76,178.51 141.08,170 C163.25,158.44 183.5186,151.6625 207.0086,145.9725" fill="none" id="admin-to-UC_GU" style="stroke:#181818;stroke-width:1;"/><polygon fill="#181818" points="212.84,144.56,203.1513,142.7912,207.9805,145.7371,205.0347,150.5664,212.84,144.56" style="stroke:#181818;stroke-width:1;"/></g><!--link admin to UC_CMO--><g class="link" data-entity-1="ent0005" data-entity-2="ent0040" data-link-type="dependency" data-source-line="99" id="lnk69"><path d="M69.58,202.56 C82.65,169.77 105.92,123.8 141.08,97 C159.29,83.12 176.4845,75.8765 198.4645,70.4565" fill="none" id="admin-to-UC_CMO" style="stroke:#181818;stroke-width:1;"/><polygon fill="#181818" points="204.29,69.02,194.5941,67.2911,199.4354,70.2171,196.5094,75.0584,204.29,69.02" style="stroke:#181818;stroke-width:1;"/></g><!--link admin to UC_CS--><g class="link" data-entity-1="ent0005" data-entity-2="ent0041" data-link-type="dependency" data-source-line="100" id="lnk70"><path d="M69.07,279.63 C81.93,313.18 105.17,360.57 141.08,388 C159.14,401.8 176.1662,408.9275 198.0462,414.1875" fill="none" id="admin-to-UC_CS" style="stroke:#181818;stroke-width:1;"/><polygon fill="#181818" points="203.88,415.59,196.0643,409.5971,199.0185,414.4213,194.1943,417.3755,203.88,415.59" style="stroke:#181818;stroke-width:1;"/></g><!--link admin to UC_CA--><g class="link" data-entity-1="ent0005" data-entity-2="ent0042" data-link-type="dependency" data-source-line="101" id="lnk71"><path d="M93.79,279.55 C107.63,292.05 124.12,305.01 141.08,314 C162.95,325.59 182.91,332.3519 206.22,338.0219" fill="none" id="admin-to-UC_CA" style="stroke:#181818;stroke-width:1;"/><polygon fill="#181818" points="212.05,339.44,204.2504,333.4262,207.1917,338.2582,202.3596,341.1995,212.05,339.44" style="stroke:#181818;stroke-width:1;"/></g><?plantuml-src tLPBRjim4Dth548sRHTP1UsoWA0upgA61FcpBIOKBREXHMD81MYB0Zr4Rz8Zz2OzIOUoP8iVf-l4y8PFRtvFenbAlZMfKIcAPcVIMY1dHgWsIO0PXUdLR7-G76frbVO_q2aVa96nW1OQZWF1ClP7P2HKrVtz-FH8GDpjngTPlHUjq0R99JcXfs2H93a0UoGtn62CQqhWUvAcdUOCD87G6TuQmG0rV_jkujvwMEUVi_NgVifd715moJKL5-D_AkR5UfNycCGj0Hz5stY1aMkEJu2bX6_WU3ewgaedBBICIy3gQ3Muj6P7TkxIaJUz5BWHMXXepQcsmVacvZmWZyvTDgzv9EipEvfu7YWsi7E7hTgjQ3gqXJOI9aPZcRaZRR4LJBIWBsdRSMrK6BGgY-V4FLkTn2sSi1jWm2WpxWVMIb921Z0Zg6K2OYsop6B1bqVJhdPDXmnS6pYWUhXeCdQkQqCVv8xUsVDnAjVc2QIe_nTd4u-pwMsjIexLs7-P8-WA7kIVtwsd9dM3xYIfQHyxpJEeifgo3zs3jDznrdOKJGNiqWrvsuyeXK9TYdfcEFNcjuwVx4kdJT08lBPTK7BS2XdhWLaPR_iI-PPZBvUUVDrtFfqI0rm8XaghhRdvyDxfbeMRuMaoCX6At52pqqi2dD4OhA7csXqLyrcKtGy07OWyBwFijUw0TDJUO9cluoeiLDt9W9qlYZXzISNnFVZqPVIjPYt8hpJmlJBplZlUf7z__QH_EgwhuVoY_qaohjhq-lhZQQdvuB2vV9WMYm_b4OmsIa3RH9mLCMyXI3CbuCMmC5_wF7re5YdXBe8j9Wqmt4PUm_llMs2uIvrgBGCa3v0gWEnEyI2xCiwosJlQAz5i8fwzPuxrsdKtFTjLDZsNKpcSIsdwCellhz5ZTRGDt7FfdTVksSvi5rXwvopv1m00?></g></svg>