<?xml version="1.0" encoding="us-ascii" standalone="no"?><svg xmlns="http://www.w3.org/2000/svg" xmlns:xlink="http://www.w3.org/1999/xlink" contentStyleType="text/css" height="673px" preserveAspectRatio="none" style="width:1557px;height:673px;background:#FFFFFF;" version="1.1" viewBox="0 0 1557 673" width="1557px" zoomAndPan="magnify"><defs/><g><text fill="#000000" font-family="Arial" font-size="14" font-weight="bold" lengthAdjust="spacing" textLength="203" x="670" y="22.6738">Clases de dise&#241;o principales</text><!--cluster Modelo  ?  src/lib/db/schema--><g id="cluster_Modelo  &#8212;  src/lib/db/schema"><path d="M689.5,42.6406 L836.5,42.6406 A3.75,3.75 0 0 1 839,45.1406 L846,59.8125 L1547.5,59.8125 A2.5,2.5 0 0 1 1550,62.3125 L1550,664.1406 A2.5,2.5 0 0 1 1547.5,666.6406 L689.5,666.6406 A2.5,2.5 0 0 1 687,664.1406 L687,45.1406 A2.5,2.5 0 0 1 689.5,42.6406 " fill="none" style="stroke:#000000;stroke-width:1.5;"/><line style="stroke:#000000;stroke-width:1.5;" x1="687" x2="846" y1="59.8125" y2="59.8125"/><text fill="#000000" font-family="Arial" font-size="10" font-weight="bold" lengthAdjust="spacing" textLength="146" x="691" y="53.6934">Modelo  &#8212;  src/lib/db/schema</text></g><!--cluster ts--><g id="cluster_ts"><path d="M713.5,80.6406 L723.5,80.6406 A3.75,3.75 0 0 1 726,83.1406 L733,97.8125 L1523.5,97.8125 A2.5,2.5 0 0 1 1526,100.3125 L1526,640.1406 A2.5,2.5 0 0 1 1523.5,642.6406 L713.5,642.6406 A2.5,2.5 0 0 1 711,640.1406 L711,83.1406 A2.5,2.5 0 0 1 713.5,80.6406 " fill="none" style="stroke:#000000;stroke-width:1.5;"/><line style="stroke:#000000;stroke-width:1.5;" x1="711" x2="733" y1="97.8125" y2="97.8125"/><text fill="#000000" font-family="Arial" font-size="10" font-weight="bold" lengthAdjust="spacing" textLength="9" x="715" y="91.6934">ts</text></g><!--cluster Capa de acci?n  ?  Server Actions--><g id="cluster_Capa de acci&#243;n  &#8212;  Server Actions"><path d="M8.5,240.6406 L181.5,240.6406 A3.75,3.75 0 0 1 184,243.1406 L191,257.8125 L660.5,257.8125 A2.5,2.5 0 0 1 663,260.3125 L663,377.1406 A2.5,2.5 0 0 1 660.5,379.6406 L8.5,379.6406 A2.5,2.5 0 0 1 6,377.1406 L6,243.1406 A2.5,2.5 0 0 1 8.5,240.6406 " fill="none" style="stroke:#000000;stroke-width:1.5;"/><line style="stroke:#000000;stroke-width:1.5;" x1="6" x2="191" y1="257.8125" y2="257.8125"/><text fill="#000000" font-family="Arial" font-size="10" font-weight="bold" lengthAdjust="spacing" textLength="172" x="10" y="251.6934">Capa de acci&#243;n  &#8212;  Server Actions</text></g><!--class profiles--><g id="elem_profiles"><rect codeLine="23" fill="#D5ECD4" height="62.6875" id="profiles" rx="2.5" ry="2.5" style="stroke:#2E7D32;stroke-width:1.5;" width="191" x="1186.5" y="438.6406"/><text fill="#000000" font-family="Arial" font-size="10" font-style="italic" lengthAdjust="spacing" textLength="46" x="1259" y="452.6934">&#171;modelo&#187;</text><text fill="#000000" font-family="Arial" font-size="10" lengthAdjust="spacing" textLength="34" x="1265" y="463.8652">profiles</text><line style="stroke:#2E7D32;stroke-width:1.5;" x1="1187.5" x2="1376.5" y1="470.9844" y2="470.9844"/><text fill="#000000" font-family="Arial" font-size="10" lengthAdjust="spacing" textLength="179" x="1192.5" y="484.0371">role: admin | manager | hr | employee</text><text fill="#000000" font-family="Arial" font-size="10" lengthAdjust="spacing" textLength="95" x="1192.5" y="495.209">entityId &#183; managerId</text></g><!--class entities--><g id="elem_entities"><rect codeLine="28" fill="#D5ECD4" height="51.5156" id="entities" rx="2.5" ry="2.5" style="stroke:#2E7D32;stroke-width:1.5;" width="141" x="1071.5" y="574.6406"/><text fill="#000000" font-family="Arial" font-size="10" font-style="italic" lengthAdjust="spacing" textLength="46" x="1119" y="588.6934">&#171;modelo&#187;</text><text fill="#000000" font-family="Arial" font-size="10" lengthAdjust="spacing" textLength="34" x="1125" y="599.8652">entities</text><line style="stroke:#2E7D32;stroke-width:1.5;" x1="1072.5" x2="1211.5" y1="606.9844" y2="606.9844"/><text fill="#000000" font-family="Arial" font-size="10" lengthAdjust="spacing" textLength="129" x="1077.5" y="620.0371">name &#183; shortCode &#183; isActive</text></g><!--class spots--><g id="elem_spots"><rect codeLine="32" fill="#D5ECD4" height="70.6875" id="spots" rx="2.5" ry="2.5" style="stroke:#2E7D32;stroke-width:1.5;" width="138" x="1014" y="281.6406"/><text fill="#000000" font-family="Arial" font-size="10" font-style="italic" lengthAdjust="spacing" textLength="46" x="1060" y="295.6934">&#171;modelo&#187;</text><text fill="#000000" font-family="Arial" font-size="10" lengthAdjust="spacing" textLength="23" x="1071.5" y="306.8652">spots</text><line style="stroke:#2E7D32;stroke-width:1.5;" x1="1015" x2="1151" y1="313.9844" y2="313.9844"/><text fill="#000000" font-family="Arial" font-size="10" lengthAdjust="spacing" textLength="126" x="1020" y="327.0371">label &#183; type &#183; resourceType</text><line style="stroke:#2E7D32;stroke-width:1.5;" x1="1015" x2="1151" y1="333.1563" y2="333.1563"/><text fill="#000000" font-family="Arial" font-size="10" lengthAdjust="spacing" textLength="105" x="1020" y="346.209">assignedTo (opcional)</text></g><!--class reservations--><g id="elem_reservations"><rect codeLine="37" fill="#D5ECD4" height="70.6875" id="reservations" rx="2.5" ry="2.5" style="stroke:#2E7D32;stroke-width:1.5;" width="203" x="882.5" y="110.6406"/><text fill="#000000" font-family="Arial" font-size="10" font-style="italic" lengthAdjust="spacing" textLength="46" x="961" y="124.6934">&#171;modelo&#187;</text><text fill="#000000" font-family="Arial" font-size="10" lengthAdjust="spacing" textLength="55" x="956.5" y="135.8652">reservations</text><line style="stroke:#2E7D32;stroke-width:1.5;" x1="883.5" x2="1084.5" y1="142.9844" y2="142.9844"/><text fill="#000000" font-family="Arial" font-size="10" lengthAdjust="spacing" textLength="56" x="888.5" y="156.0371">date &#183; status</text><line style="stroke:#2E7D32;stroke-width:1.5;" x1="883.5" x2="1084.5" y1="162.1563" y2="162.1563"/><text fill="#000000" font-family="Arial" font-size="10" lengthAdjust="spacing" textLength="191" x="888.5" y="175.209">startTime &#183; endTime (franjas opcionales)</text></g><!--class cessions--><g id="elem_cessions"><rect codeLine="42" fill="#D5ECD4" height="62.6875" id="cessions" rx="2.5" ry="2.5" style="stroke:#2E7D32;stroke-width:1.5;" width="193" x="1316.5" y="114.6406"/><text fill="#000000" font-family="Arial" font-size="10" font-style="italic" lengthAdjust="spacing" textLength="46" x="1390" y="128.6934">&#171;modelo&#187;</text><text fill="#000000" font-family="Arial" font-size="10" lengthAdjust="spacing" textLength="39" x="1393.5" y="139.8652">cessions</text><line style="stroke:#2E7D32;stroke-width:1.5;" x1="1317.5" x2="1508.5" y1="146.9844" y2="146.9844"/><text fill="#000000" font-family="Arial" font-size="10" lengthAdjust="spacing" textLength="21" x="1322.5" y="160.0371">date</text><text fill="#000000" font-family="Arial" font-size="10" lengthAdjust="spacing" textLength="181" x="1322.5" y="171.209">status: available | reserved | cancelled</text></g><!--class leave_requests--><g id="elem_leave_requests"><rect codeLine="47" fill="#D5ECD4" height="81.8594" id="leave_requests" rx="2.5" ry="2.5" style="stroke:#2E7D32;stroke-width:1.5;" width="190" x="1187" y="276.1406"/><text fill="#000000" font-family="Arial" font-size="10" font-style="italic" lengthAdjust="spacing" textLength="46" x="1259" y="290.1934">&#171;modelo&#187;</text><text fill="#000000" font-family="Arial" font-size="10" lengthAdjust="spacing" textLength="70" x="1247" y="301.3652">leave_requests</text><line style="stroke:#2E7D32;stroke-width:1.5;" x1="1188" x2="1376" y1="308.4844" y2="308.4844"/><text fill="#000000" font-family="Arial" font-size="10" lengthAdjust="spacing" textLength="149" x="1193" y="321.5371">leaveType &#183; startDate &#183; endDate</text><text fill="#000000" font-family="Arial" font-size="10" lengthAdjust="spacing" textLength="78" x="1193" y="332.709">managerId &#183; hrId</text><line style="stroke:#2E7D32;stroke-width:1.5;" x1="1188" x2="1376" y1="338.8281" y2="338.8281"/><text fill="#000000" font-family="Arial" font-size="10" lengthAdjust="spacing" textLength="178" x="1193" y="351.8809">status (flujo de aprobaci&#243;n multinivel)</text></g><!--class visitor_reservations--><g id="elem_visitor_reservations"><rect codeLine="53" fill="#D5ECD4" height="62.6875" id="visitor_reservations" rx="2.5" ry="2.5" style="stroke:#2E7D32;stroke-width:1.5;" width="161" x="1120.5" y="114.6406"/><text fill="#000000" font-family="Arial" font-size="10" font-style="italic" lengthAdjust="spacing" textLength="46" x="1178" y="128.6934">&#171;modelo&#187;</text><text fill="#000000" font-family="Arial" font-size="10" lengthAdjust="spacing" textLength="88" x="1157" y="139.8652">visitor_reservations</text><line style="stroke:#2E7D32;stroke-width:1.5;" x1="1121.5" x2="1280.5" y1="146.9844" y2="146.9844"/><text fill="#000000" font-family="Arial" font-size="10" lengthAdjust="spacing" textLength="149" x="1126.5" y="160.0371">date &#183; visitorName &#183; visitorEmail</text><text fill="#000000" font-family="Arial" font-size="10" lengthAdjust="spacing" textLength="121" x="1126.5" y="171.209">notificationSent: boolean</text></g><!--class announcements--><g id="elem_announcements"><rect codeLine="58" fill="#D5ECD4" height="62.6875" id="announcements" rx="2.5" ry="2.5" style="stroke:#2E7D32;stroke-width:1.5;" width="120" x="727" y="114.6406"/><text fill="#000000" font-family="Arial" font-size="10" font-style="italic" lengthAdjust="spacing" textLength="46" x="764" y="128.6934">&#171;modelo&#187;</text><text fill="#000000" font-family="Arial" font-size="10" lengthAdjust="spacing" textLength="76" x="749" y="139.8652">announcements</text><line style="stroke:#2E7D32;stroke-width:1.5;" x1="728" x2="846" y1="146.9844" y2="146.9844"/><text fill="#000000" font-family="Arial" font-size="10" lengthAdjust="spacing" textLength="94" x="733" y="160.0371">title &#183; body &#183; entityId</text><text fill="#000000" font-family="Arial" font-size="10" lengthAdjust="spacing" textLength="108" x="733" y="171.209">publishedAt &#183; expiresAt</text></g><!--class actionClient--><g id="elem_actionClient"><rect codeLine="66" fill="#DCE8F5" height="62.6875" id="actionClient" rx="2.5" ry="2.5" style="stroke:#2D6A9F;stroke-width:1.5;" width="170" x="477" y="285.6406"/><text fill="#000000" font-family="Arial" font-size="10" font-style="italic" lengthAdjust="spacing" textLength="43" x="540.5" y="299.6934">&#171;accion&#187;</text><text fill="#000000" font-family="Arial" font-size="10" lengthAdjust="spacing" textLength="58" x="533" y="310.8652">actionClient</text><line style="stroke:#2D6A9F;stroke-width:1.5;" x1="478" x2="646" y1="317.9844" y2="317.9844"/><text fill="#000000" font-family="Arial" font-size="10" lengthAdjust="spacing" textLength="127" x="483" y="331.0371">schema(zod: ZodType&lt;T&gt;)</text><text fill="#000000" font-family="Arial" font-size="10" lengthAdjust="spacing" textLength="158" x="483" y="342.209">action(handler): ServerAction&lt;T&gt;</text></g><!--class ActionResult<T>--><g id="elem_ActionResult&lt;T&gt;"><rect codeLine="71" fill="#DCE8F5" height="62.6875" id="ActionResult&lt;T&gt;" rx="2.5" ry="2.5" style="stroke:#2D6A9F;stroke-width:1.5;" width="169" x="272.5" y="285.6406"/><text fill="#000000" font-family="Arial" font-size="10" font-style="italic" lengthAdjust="spacing" textLength="43" x="335.5" y="299.6934">&#171;accion&#187;</text><text fill="#000000" font-family="Arial" font-size="10" lengthAdjust="spacing" textLength="79" x="317.5" y="310.8652">ActionResult&lt;T&gt;</text><line style="stroke:#2D6A9F;stroke-width:1.5;" x1="273.5" x2="440.5" y1="317.9844" y2="317.9844"/><text fill="#000000" font-family="Arial" font-size="10" lengthAdjust="spacing" textLength="113" x="278.5" y="331.0371">success: true  &#8594; data: T</text><text fill="#000000" font-family="Arial" font-size="10" lengthAdjust="spacing" textLength="157" x="278.5" y="342.209">success: false &#8594; error &#183; fieldErrors</text></g><!--class buildCessionActions(cfg)--><g id="elem_buildCessionActions(cfg)"><rect codeLine="76" fill="#DCE8F5" height="93.0313" id="buildCessionActions(cfg)" rx="2.5" ry="2.5" style="stroke:#2D6A9F;stroke-width:1.5;" width="215" x="22.5" y="270.6406"/><text fill="#000000" font-family="Arial" font-size="10" font-style="italic" lengthAdjust="spacing" textLength="43" x="108.5" y="284.6934">&#171;accion&#187;</text><text fill="#000000" font-family="Arial" font-size="10" lengthAdjust="spacing" textLength="116" x="72" y="295.8652">buildCessionActions(cfg)</text><line style="stroke:#2D6A9F;stroke-width:1.5;" x1="23.5" x2="236.5" y1="302.9844" y2="302.9844"/><text fill="#000000" font-family="Arial" font-size="10" lengthAdjust="spacing" textLength="171" x="28.5" y="316.0371">cfg: resourceType &#183; noun &#183; basePath</text><text fill="#000000" font-family="Arial" font-size="10" lengthAdjust="spacing" textLength="203" x="28.5" y="327.209">&#9472;&#9472;&#9472;&#9472;&#9472;&#9472;&#9472;&#9472;&#9472;&#9472;&#9472;&#9472;&#9472;&#9472;&#9472;&#9472;&#9472;&#9472;&#9472;&#9472;&#9472;&#9472;&#9472;&#9472;&#9472;&#9472;&#9472;&#9472;&#9472;</text><line style="stroke:#2D6A9F;stroke-width:1.5;" x1="23.5" x2="236.5" y1="333.3281" y2="333.3281"/><text fill="#000000" font-family="Arial" font-size="10" lengthAdjust="spacing" textLength="138" x="28.5" y="346.3809">createCession(): ActionResult</text><text fill="#000000" font-family="Arial" font-size="10" lengthAdjust="spacing" textLength="141" x="28.5" y="357.5527">cancelCession(): ActionResult</text></g><!--class ActionResult--><g id="elem_ActionResult"><rect fill="#F1F1F1" height="21.1719" id="ActionResult" rx="2.5" ry="2.5" style="stroke:#181818;stroke-width:1.5;" width="66" x="529" y="459.6406"/><text fill="#000000" font-family="Arial" font-size="10" lengthAdjust="spacing" textLength="60" x="532" y="473.6934">ActionResult</text></g><!--class buildCessionActions--><g id="elem_buildCessionActions"><rect fill="#F1F1F1" height="21.1719" id="buildCessionActions" rx="2.5" ry="2.5" style="stroke:#181818;stroke-width:1.5;" width="101" x="511.5" y="135.6406"/><text fill="#000000" font-family="Arial" font-size="10" lengthAdjust="spacing" textLength="95" x="514.5" y="149.6934">buildCessionActions</text></g><!--link profiles to entities--><g id="link_profiles_entities"><path codeLine="85" d="M1248.47,501.9206 C1224.36,524.0506 1201.0908,545.4064 1178.4608,566.1764 " fill="none" id="profiles-to-entities" style="stroke:#444444;stroke-width:1.2;"/><polygon fill="none" points="1169.62,574.2906,1176.7451,573.1805,1178.4608,566.1764,1171.3357,567.2866,1169.62,574.2906" style="stroke:#444444;stroke-width:1.2;"/><polygon fill="#000000" points="1213.0531,540.9313,1219.9739,537.7705,1216.7943,534.3062,1213.0531,540.9313" style="stroke:#000000;stroke-width:1.0;"/><text fill="#000000" font-family="Arial" font-size="10" lengthAdjust="spacing" textLength="57" x="1223" y="541.6934">pertenece a</text><text fill="#000000" font-family="Arial" font-size="10" lengthAdjust="spacing" textLength="7" x="1234.1797" y="518.3605">N</text><text fill="#000000" font-family="Arial" font-size="10" lengthAdjust="spacing" textLength="6" x="1169.6211" y="564.6599">1</text></g><!--link spots to entities--><g id="link_spots_entities"><path codeLine="86" d="M1083.01,352.8406 C1083.76,390.1506 1087.13,450.9406 1100,501.6406 C1106.56,527.4806 1113.6768,544.5109 1123.3268,563.8709 " fill="none" id="spots-to-entities" style="stroke:#444444;stroke-width:1.2;"/><polygon fill="none" points="1128.68,574.6106,1129.5833,567.4563,1123.3268,563.8709,1122.4235,571.0252,1128.68,574.6106" style="stroke:#444444;stroke-width:1.2;"/><polygon fill="#000000" points="1104.7506,474.1555,1105.7021,466.6068,1101.0834,467.4892,1104.7506,474.1555" style="stroke:#000000;stroke-width:1.0;"/><text fill="#000000" font-family="Arial" font-size="10" lengthAdjust="spacing" textLength="57" x="1111" y="473.6934">pertenece a</text><text fill="#000000" font-family="Arial" font-size="10" lengthAdjust="spacing" textLength="7" x="1075.3883" y="369.2752">N</text><text fill="#000000" font-family="Arial" font-size="10" lengthAdjust="spacing" textLength="6" x="1118.498" y="564.6679">1</text></g><!--link spots to profiles--><g id="link_spots_profiles"><path codeLine="87" d="M1125.62,352.8206 C1139.65,364.0606 1155.4,376.5006 1170,387.6406 C1192.56,404.8506 1208.3816,416.499 1229.3816,431.619 " fill="none" id="spots-to-profiles" style="stroke:#444444;stroke-width:1.2;"/><polygon fill="none" points="1239.12,438.6306,1236.588,431.8787,1229.3816,431.619,1231.9136,438.3709,1239.12,438.6306" style="stroke:#444444;stroke-width:1.2;"/><polygon fill="#000000" points="1197.8145,399.8074,1202.1552,406.0561,1204.9991,402.3113,1197.8145,399.8074" style="stroke:#000000;stroke-width:1.0;"/><text fill="#000000" font-family="Arial" font-size="10" lengthAdjust="spacing" textLength="52" x="1208" y="405.6934">asignada a</text><text fill="#000000" font-family="Arial" font-size="10" lengthAdjust="spacing" textLength="18" x="1113.6086" y="369.2517">0..1</text><text fill="#000000" font-family="Arial" font-size="10" lengthAdjust="spacing" textLength="6" x="1223.0837" y="428.6404">1</text></g><!--link reservations to spots--><g id="link_reservations_spots"><path codeLine="88" d="M1004.27,181.7506 C1021.36,210.9106 1042.6481,247.253 1059.7181,276.403 " fill="none" id="reservations-to-spots" style="stroke:#444444;stroke-width:1.2;"/><polygon fill="#444444" points="1062.75,281.5806,1061.6538,271.793,1060.2234,277.266,1054.7504,275.8356,1062.75,281.5806" style="stroke:#444444;stroke-width:1.2;"/><polygon fill="#000000" points="1033.0219,221.678,1031.393,214.2459,1027.3356,216.6227,1033.0219,221.678" style="stroke:#000000;stroke-width:1.0;"/><text fill="#000000" font-family="Arial" font-size="10" lengthAdjust="spacing" textLength="30" x="1038" y="221.6934">ocupa</text><text fill="#000000" font-family="Arial" font-size="10" lengthAdjust="spacing" textLength="7" x="1000.362" y="198.4277">N</text><text fill="#000000" font-family="Arial" font-size="10" lengthAdjust="spacing" textLength="6" x="1052.1727" y="271.5974">1</text></g><!--link reservations to profiles--><g id="link_reservations_profiles"><path codeLine="89" d="M951.78,181.8406 C940.36,196.4106 928.89,214.2306 923,232.6406 C901.99,298.2506 879.35,334.3506 923,387.6406 C995.97,476.7106 1065.17,411.2206 1177,438.6406 C1180.04,439.3906 1177.3192,438.6659 1180.4292,439.4659 " fill="none" id="reservations-to-profiles" style="stroke:#444444;stroke-width:1.2;"/><polygon fill="#444444" points="1186.24,440.9606,1178.5203,434.8446,1181.3976,439.715,1176.5273,442.5924,1186.24,440.9606" style="stroke:#444444;stroke-width:1.2;"/><polygon fill="#000000" points="929.6552,320.2182,926.6104,313.2456,923.0935,316.3669,929.6552,320.2182" style="stroke:#000000;stroke-width:1.0;"/><text fill="#000000" font-family="Arial" font-size="10" lengthAdjust="spacing" textLength="62" x="934" y="320.6934">realizada por</text><text fill="#000000" font-family="Arial" font-size="10" lengthAdjust="spacing" textLength="7" x="938.4174" y="198.2752">N</text><text fill="#000000" font-family="Arial" font-size="10" lengthAdjust="spacing" textLength="6" x="1172.3701" y="436.2691">1</text></g><!--link cessions to spots--><g id="link_cessions_spots"><path codeLine="90" d="M1336.01,177.6706 C1296.33,192.8306 1246.95,210.8106 1202,224.6406 C1187.99,228.9506 1182.83,225.5506 1170,232.6406 C1147.65,245.0006 1130.8961,260.1193 1115.2361,277.1893 " fill="none" id="cessions-to-spots" style="stroke:#444444;stroke-width:1.2;"/><polygon fill="#444444" points="1111.18,281.6106,1120.2117,277.6827,1114.5601,277.9262,1114.3166,272.2746,1111.18,281.6106" style="stroke:#444444;stroke-width:1.2;"/><polygon fill="#000000" points="1237.3534,219.8704,1244.9164,219.0401,1242.984,214.7533,1237.3534,219.8704" style="stroke:#000000;stroke-width:1.0;"/><text fill="#000000" font-family="Arial" font-size="10" lengthAdjust="spacing" textLength="24" x="1248" y="221.6934">cede</text><text fill="#000000" font-family="Arial" font-size="10" lengthAdjust="spacing" textLength="7" x="1312.4089" y="194.4107">N</text><text fill="#000000" font-family="Arial" font-size="10" lengthAdjust="spacing" textLength="6" x="1117.3186" y="271.6333">1</text></g><!--link cessions to profiles--><g id="link_cessions_profiles"><path codeLine="91" d="M1418.52,177.9506 C1425.51,226.1006 1432.53,320.6006 1395,387.6406 C1383.24,408.6406 1368.5757,422.3378 1348.8957,435.2578 " fill="none" id="cessions-to-profiles" style="stroke:#444444;stroke-width:1.2;"/><polygon fill="#444444" points="1343.88,438.5506,1353.5988,436.9552,1348.0598,435.8066,1349.2083,430.2676,1343.88,438.5506" style="stroke:#444444;stroke-width:1.2;"/><polygon fill="#000000" points="1426.9552,321.0877,1431.1148,314.7169,1426.5757,313.4887,1426.9552,321.0877" style="stroke:#000000;stroke-width:1.0;"/><text fill="#000000" font-family="Arial" font-size="10" lengthAdjust="spacing" textLength="51" x="1435" y="320.6934">propietario</text><text fill="#000000" font-family="Arial" font-size="10" lengthAdjust="spacing" textLength="7" x="1411.9177" y="194.3964">N</text><text fill="#000000" font-family="Arial" font-size="10" lengthAdjust="spacing" textLength="6" x="1350.76" y="428.5429">1</text></g><!--link leave_requests to profiles--><g id="link_leave_requests_profiles"><path codeLine="92" d="M1282,358.2106 C1282,383.3706 1282,409.3306 1282,432.4706 " fill="none" id="leave_requests-to-profiles" style="stroke:#444444;stroke-width:1.2;"/><polygon fill="#444444" points="1282,438.4706,1286,429.4706,1282,433.4706,1278,429.4706,1282,438.4706" style="stroke:#444444;stroke-width:1.2;"/><polygon fill="#000000" points="1286,406.2266,1288.3511,398.9905,1283.6489,398.9905,1286,406.2266" style="stroke:#000000;stroke-width:1.0;"/><text fill="#000000" font-family="Arial" font-size="10" lengthAdjust="spacing" textLength="34" x="1293" y="405.6934">solicita</text><text fill="#000000" font-family="Arial" font-size="10" lengthAdjust="spacing" textLength="7" x="1274.4203" y="375.0024">N</text><text fill="#000000" font-family="Arial" font-size="10" lengthAdjust="spacing" textLength="6" x="1275.3438" y="428.4454">1</text></g><!--link visitor_reservations to spots--><g id="link_visitor_reservations_spots"><path codeLine="93" d="M1179.63,177.7406 C1159.24,206.9506 1131.9954,245.9714 1110.6954,276.4714 " fill="none" id="visitor_reservations-to-spots" style="stroke:#444444;stroke-width:1.2;"/><polygon fill="#444444" points="1107.26,281.3906,1115.6925,276.3021,1110.1228,277.2913,1109.1336,271.7216,1107.26,281.3906" style="stroke:#444444;stroke-width:1.2;"/><polygon fill="#000000" points="1153.7101,221.5062,1159.7803,216.9192,1155.9248,214.2273,1153.7101,221.5062" style="stroke:#000000;stroke-width:1.0;"/><text fill="#000000" font-family="Arial" font-size="10" lengthAdjust="spacing" textLength="30" x="1163" y="221.6934">ocupa</text><text fill="#000000" font-family="Arial" font-size="10" lengthAdjust="spacing" textLength="7" x="1167.5006" y="194.4952">N</text><text fill="#000000" font-family="Arial" font-size="10" lengthAdjust="spacing" textLength="6" x="1105.3127" y="271.6262">1</text></g><!--link actionClient to ActionResult--><g id="link_actionClient_ActionResult"><path codeLine="96" d="M562,348.7006 C562,383.1706 562,431.2906 562,453.3206 " fill="none" id="actionClient-to-ActionResult" style="stroke:#444444;stroke-width:1.2;stroke-dasharray:7.0,7.0;"/><polygon fill="#444444" points="562,459.3206,566,450.3206,562,454.3206,558,450.3206,562,459.3206" style="stroke:#444444;stroke-width:1.2;"/><polygon fill="#000000" points="566,406.2266,568.3511,398.9905,563.6489,398.9905,566,406.2266" style="stroke:#000000;stroke-width:1.0;"/><text fill="#000000" font-family="Arial" font-size="10" lengthAdjust="spacing" textLength="39" x="573" y="405.6934">produce</text></g><!--link buildCessionActions to actionClient--><g id="link_buildCessionActions_actionClient"><path codeLine="97" d="M562,156.7106 C562,181.0806 562,240.3006 562,279.3606 " fill="none" id="buildCessionActions-to-actionClient" style="stroke:#444444;stroke-width:1.2;stroke-dasharray:7.0,7.0;"/><polygon fill="#444444" points="562,285.3606,566,276.3606,562,280.3606,558,276.3606,562,285.3606" style="stroke:#444444;stroke-width:1.2;"/><polygon fill="#000000" points="566,222.2266,568.3511,214.9905,563.6489,214.9905,566,222.2266" style="stroke:#000000;stroke-width:1.0;"/><text fill="#000000" font-family="Arial" font-size="10" lengthAdjust="spacing" textLength="16" x="573" y="221.6934">usa</text></g><!--SRC=[lLJDRXit4BxlKmpaG-L3vDYD-xCm13XA0kHGeuXrwYKOaIEBCPVSaborScCWfpv0aHSfUkYzUPCyIOVaAbwjrgqFJHU2mDqPpZVppJUpKf90A2Sq5QjufgeE6wYeMf3pHU6lbQdHOGMIbjZeyCAQS84LmRbJg8Vjb-g6uFXnnoWqUl_KEabklbBYsf3tS3mvxRYWS_Qdhl6aRvnPRHqSF4bFnxX0SNtbR6Daw_4YFKKV7tuf09xkEf-TLLQIjjCfm84y9I6VHAUKwPv3V0vEw6lvvSbG91H2MPCZ2VfcUTgFTEUG8yclyDjbSLiKGGLDCECaoJEH89Md3xzRg9qoGjMeYLjHCnvU4Oo-Ima1V7pt7i0xSQJLuaWkZhnOKOMJu4TSAMFdeaUriql54KRGgILI0U2ifX9GLih0MwZGS7p7frNyOoLeko5AdcGunyrB2N_zkVLxATbosm5AFceGo4J5y5M_iYxCs1PVb3yNGQsf5yRNDWp5qBWW7U-5JPtkE_AsSOBc_9uy-BgwCYJd5iQsZboZFkn5vqlarXZOE0GYCUH40uR6fqzyT66kSW5aP3gEbmxD6_ImnI7VHn8iutz0sSPc66x16XNNno9u2pb3admKQ0HfJNscDU6QNZlwiI4_p5LqcBSyfGAUjOLn0SzsqRaMtRonKNV8Mk5fKX_-C53nC2l3xKaKmbtNOvJLVlVNogjWtUi74jowNxJ2Q5-VLyn3LemDQgb4YdF9oYfXOLcjQ7gmQ0oFeA2AVORmycWnmiBAJIOWApbPwsQXbL-HF0_9zdEjEF_pa41kEpCtmneJGoApauVlCZRAGPHnghOxTfW-phHYm9ZNf-7FUULX7TzOMS8FLiPUdSsdcUfyTRn28pMvmxB5oJ3irQCWVtz5dZl6rY6mHaGrbX1SGvpxhx_5Fc09yrtp4hMdP2PUk2vIibIavVFuvdkmYqPfESiYRnaOY-NLuG0-VovtnZL6ZdrBZU6jzps6LVBy-FxTv_ZbB1on-DgCnqnhbxZiaURjVe-aYI_Q9E4LQOnbffsj8GllSrLmRsNRzGxTPtGnWaUFB8oEHx1TotVM4cfoWGm95ZHCYxHneVVy5o4UJoR7Tr5wcPPmnXkR5pPA12owUwENn3HTtuSemOgcZl3_UdcVfIX8rEecejUizMcnNTW3DDoVWI3U2W-uEvG0VwiLyNPMbaFiBlK7Xl1MAw52v61e0J-Om7jK_MdV_S-gZiBkBj1jmfF9T6ScEqpAHiH636obT6i_MWcDZwN_3G00]--></g></svg>