<svg xmlns="http://www.w3.org/2000/svg" xmlns:xlink="http://www.w3.org/1999/xlink" contentStyleType="text/css" data-diagram-type="CLASS" height="689px" preserveAspectRatio="none" style="width:1610px;height:689px;background:#FFFFFF;" version="1.1" viewBox="0 0 1610 689" width="1610px" zoomAndPan="magnify"><?plantuml 1.2026.3?><defs/><g><g class="title" data-source-line="19"><text fill="#000000" font-family="Arial" font-size="14" font-weight="700" lengthAdjust="spacing" textLength="223.9385" x="689.5308" y="22.9951">Clases de dise&#241;o principales</text></g><!--cluster Modelo  ?  src/lib/db/schema--><g class="cluster" data-qualified-name="Modelo  .  src.lib.db.schema" data-source-line="23" id="ent0004"><path d="M690.5,43.2969 L855.5332,43.2969 A3.75,3.75 0 0 1 858.0332,45.7969 L865.0332,60.9375 L1592.5,60.9375 A2.5,2.5 0 0 1 1595,63.4375 L1595,671.6869 A2.5,2.5 0 0 1 1592.5,674.1869 L690.5,674.1869 A2.5,2.5 0 0 1 688,671.6869 L688,45.7969 A2.5,2.5 0 0 1 690.5,43.2969" fill="none" style="stroke:#000000;stroke-width:1.5;"/><line style="stroke:#000000;stroke-width:1.5;" x1="688" x2="865.0332" y1="60.9375" y2="60.9375"/><text fill="#000000" font-family="Arial" font-size="10" font-weight="700" lengthAdjust="spacing" textLength="164.0332" x="692" y="54.5791">Modelo  &#8212;  src/lib/db/schema</text></g><!--cluster ts--><g class="cluster" data-qualified-name="Modelo  .  src.lib.db.schema.ts" data-source-line="21" id="ent0002"><path d="M714.5,81.2969 L726.2324,81.2969 A3.75,3.75 0 0 1 728.7324,83.7969 L735.7324,98.9375 L1568.5,98.9375 A2.5,2.5 0 0 1 1571,101.4375 L1571,647.6869 A2.5,2.5 0 0 1 1568.5,650.1869 L714.5,650.1869 A2.5,2.5 0 0 1 712,647.6869 L712,83.7969 A2.5,2.5 0 0 1 714.5,81.2969" fill="none" style="stroke:#000000;stroke-width:1.5;"/><line style="stroke:#000000;stroke-width:1.5;" x1="712" x2="735.7324" y1="98.9375" y2="98.9375"/><text fill="#000000" font-family="Arial" font-size="10" font-weight="700" lengthAdjust="spacing" textLength="10.7324" x="716" y="92.5791">ts</text></g><!--cluster Capa de acci?n  ?  Server Actions--><g class="cluster" data-qualified-name="Capa de acci.n  .  Server Actions" data-source-line="64" id="ent0012"><path d="M8.5,242.8569 L200.7891,242.8569 A3.75,3.75 0 0 1 203.2891,245.3569 L210.2891,260.4975 L661.5,260.4975 A2.5,2.5 0 0 1 664,262.9975 L664,382.2069 A2.5,2.5 0 0 1 661.5,384.7069 L8.5,384.7069 A2.5,2.5 0 0 1 6,382.2069 L6,245.3569 A2.5,2.5 0 0 1 8.5,242.8569" fill="none" style="stroke:#000000;stroke-width:1.5;"/><line style="stroke:#000000;stroke-width:1.5;" x1="6" x2="210.2891" y1="260.4975" y2="260.4975"/><text fill="#000000" font-family="Arial" font-size="10" font-weight="700" lengthAdjust="spacing" textLength="191.2891" x="10" y="254.1391">Capa de acci&#243;n  &#8212;  Server Actions</text></g><!--class profiles--><g class="entity" data-qualified-name="Modelo  .  src.lib.db.schema.ts.profiles" data-source-line="23" id="ent0003"><rect fill="#D5ECD4" height="64.5625" rx="2.5" ry="2.5" style="stroke:#2E7D32;stroke-width:1.5;" width="202.9766" x="912.51" y="443.7069"/><text fill="#000000" font-family="Arial" font-size="10" font-style="italic" lengthAdjust="spacing" textLength="49.5996" x="989.1985" y="457.9891">&#171;modelo&#187;</text><text fill="#000000" font-family="Arial" font-size="10" lengthAdjust="spacing" textLength="37.0166" x="995.49" y="469.6297">profiles</text><line style="stroke:#2E7D32;stroke-width:1.5;" x1="913.51" x2="1114.4866" y1="476.9881" y2="476.9881"/><text fill="#000000" font-family="Arial" font-size="10" lengthAdjust="spacing" textLength="190.9766" x="918.51" y="490.2704">role: admin | manager | hr | employee</text><text fill="#000000" font-family="Arial" font-size="10" lengthAdjust="spacing" textLength="102.1045" x="918.51" y="501.911">entityId &#183; managerId</text></g><!--class entities--><g class="entity" data-qualified-name="Modelo  .  src.lib.db.schema.ts.entities" data-source-line="28" id="ent0005"><rect fill="#D5ECD4" height="52.9219" rx="2.5" ry="2.5" style="stroke:#2E7D32;stroke-width:1.5;" width="149.8271" x="1067.09" y="581.2669"/><text fill="#000000" font-family="Arial" font-size="10" font-style="italic" lengthAdjust="spacing" textLength="49.5996" x="1117.2038" y="595.5491">&#171;modelo&#187;</text><text fill="#000000" font-family="Arial" font-size="10" lengthAdjust="spacing" textLength="37.251" x="1123.3781" y="607.1897">entities</text><line style="stroke:#2E7D32;stroke-width:1.5;" x1="1068.09" x2="1215.9171" y1="614.5481" y2="614.5481"/><text fill="#000000" font-family="Arial" font-size="10" lengthAdjust="spacing" textLength="137.8271" x="1073.09" y="627.8304">name &#183; shortCode &#183; isActive</text></g><!--class spots--><g class="entity" data-qualified-name="Modelo  .  src.lib.db.schema.ts.spots" data-source-line="32" id="ent0006"><rect fill="#D5ECD4" height="72.5625" rx="2.5" ry="2.5" style="stroke:#2E7D32;stroke-width:1.5;" width="145.8135" x="1112.09" y="284.4969"/><text fill="#000000" font-family="Arial" font-size="10" font-style="italic" lengthAdjust="spacing" textLength="49.5996" x="1160.1969" y="298.7791">&#171;modelo&#187;</text><text fill="#000000" font-family="Arial" font-size="10" lengthAdjust="spacing" textLength="26.8066" x="1171.5934" y="310.4197">spots</text><line style="stroke:#2E7D32;stroke-width:1.5;" x1="1113.09" x2="1256.9035" y1="317.7781" y2="317.7781"/><text fill="#000000" font-family="Arial" font-size="10" lengthAdjust="spacing" textLength="133.8135" x="1118.09" y="331.0604">label &#183; type &#183; resourceType</text><line style="stroke:#2E7D32;stroke-width:1.5;" x1="1113.09" x2="1256.9035" y1="337.4188" y2="337.4188"/><text fill="#000000" font-family="Arial" font-size="10" lengthAdjust="spacing" textLength="109.8242" x="1118.09" y="350.701">assignedTo (opcional)</text></g><!--class reservations--><g class="entity" data-qualified-name="Modelo  .  src.lib.db.schema.ts.reservations" data-source-line="37" id="ent0007"><rect fill="#D5ECD4" height="72.5625" rx="2.5" ry="2.5" style="stroke:#2E7D32;stroke-width:1.5;" width="215.0664" x="728.47" y="111.2969"/><text fill="#000000" font-family="Arial" font-size="10" font-style="italic" lengthAdjust="spacing" textLength="49.5996" x="811.2034" y="125.5791">&#171;modelo&#187;</text><text fill="#000000" font-family="Arial" font-size="10" lengthAdjust="spacing" textLength="62.1484" x="804.929" y="137.2197">reservations</text><line style="stroke:#2E7D32;stroke-width:1.5;" x1="729.47" x2="942.5364" y1="144.5781" y2="144.5781"/><text fill="#000000" font-family="Arial" font-size="10" lengthAdjust="spacing" textLength="62.8125" x="734.47" y="157.8604">date &#183; status</text><line style="stroke:#2E7D32;stroke-width:1.5;" x1="729.47" x2="942.5364" y1="164.2188" y2="164.2188"/><text fill="#000000" font-family="Arial" font-size="10" lengthAdjust="spacing" textLength="203.0664" x="734.47" y="177.501">startTime &#183; endTime (franjas opcionales)</text></g><!--class cessions--><g class="entity" data-qualified-name="Modelo  .  src.lib.db.schema.ts.cessions" data-source-line="42" id="ent0008"><rect fill="#D5ECD4" height="64.5625" rx="2.5" ry="2.5" style="stroke:#2E7D32;stroke-width:1.5;" width="205.6914" x="1186.15" y="115.2969"/><text fill="#000000" font-family="Arial" font-size="10" font-style="italic" lengthAdjust="spacing" textLength="49.5996" x="1264.1959" y="129.5791">&#171;modelo&#187;</text><text fill="#000000" font-family="Arial" font-size="10" lengthAdjust="spacing" textLength="42.5146" x="1267.7384" y="141.2197">cessions</text><line style="stroke:#2E7D32;stroke-width:1.5;" x1="1187.15" x2="1390.8414" y1="148.5781" y2="148.5781"/><text fill="#000000" font-family="Arial" font-size="10" lengthAdjust="spacing" textLength="22.5488" x="1192.15" y="161.8604">date</text><text fill="#000000" font-family="Arial" font-size="10" lengthAdjust="spacing" textLength="193.6914" x="1192.15" y="173.501">status: available | reserved | cancelled</text></g><!--class leave_requests--><g class="entity" data-qualified-name="Modelo  .  src.lib.db.schema.ts.leave_requests" data-source-line="47" id="ent0009"><rect fill="#D5ECD4" height="84.2031" rx="2.5" ry="2.5" style="stroke:#2E7D32;stroke-width:1.5;" width="202.7129" x="727.64" y="278.6769"/><text fill="#000000" font-family="Arial" font-size="10" font-style="italic" lengthAdjust="spacing" textLength="49.5996" x="804.1966" y="292.9591">&#171;modelo&#187;</text><text fill="#000000" font-family="Arial" font-size="10" lengthAdjust="spacing" textLength="75.5713" x="791.2108" y="304.5997">leave_requests</text><line style="stroke:#2E7D32;stroke-width:1.5;" x1="728.64" x2="929.3529" y1="311.9581" y2="311.9581"/><text fill="#000000" font-family="Arial" font-size="10" lengthAdjust="spacing" textLength="160.6592" x="733.64" y="325.2404">leaveType &#183; startDate &#183; endDate</text><text fill="#000000" font-family="Arial" font-size="10" lengthAdjust="spacing" textLength="83.5254" x="733.64" y="336.881">managerId &#183; hrId</text><line style="stroke:#2E7D32;stroke-width:1.5;" x1="728.64" x2="929.3529" y1="343.2394" y2="343.2394"/><text fill="#000000" font-family="Arial" font-size="10" lengthAdjust="spacing" textLength="190.7129" x="733.64" y="356.5216">status (flujo de aprobaci&#243;n multinivel)</text></g><!--class visitor_reservations--><g class="entity" data-qualified-name="Modelo  .  src.lib.db.schema.ts.visitor_reservations" data-source-line="53" id="ent0010"><rect fill="#D5ECD4" height="64.5625" rx="2.5" ry="2.5" style="stroke:#2E7D32;stroke-width:1.5;" width="172.5371" x="978.73" y="115.2969"/><text fill="#000000" font-family="Arial" font-size="10" font-style="italic" lengthAdjust="spacing" textLength="49.5996" x="1040.1988" y="129.5791">&#171;modelo&#187;</text><text fill="#000000" font-family="Arial" font-size="10" lengthAdjust="spacing" textLength="97.9834" x="1016.0069" y="141.2197">visitor_reservations</text><line style="stroke:#2E7D32;stroke-width:1.5;" x1="979.73" x2="1150.2671" y1="148.5781" y2="148.5781"/><text fill="#000000" font-family="Arial" font-size="10" lengthAdjust="spacing" textLength="160.5371" x="984.73" y="161.8604">date &#183; visitorName &#183; visitorEmail</text><text fill="#000000" font-family="Arial" font-size="10" lengthAdjust="spacing" textLength="125.5225" x="984.73" y="173.501">notificationSent: boolean</text></g><!--class announcements--><g class="entity" data-qualified-name="Modelo  .  src.lib.db.schema.ts.announcements" data-source-line="58" id="ent0011"><rect fill="#D5ECD4" height="64.5625" rx="2.5" ry="2.5" style="stroke:#2E7D32;stroke-width:1.5;" width="128.3672" x="1426.82" y="115.2969"/><text fill="#000000" font-family="Arial" font-size="10" font-style="italic" lengthAdjust="spacing" textLength="49.5996" x="1466.2038" y="129.5791">&#171;modelo&#187;</text><text fill="#000000" font-family="Arial" font-size="10" lengthAdjust="spacing" textLength="80.6104" x="1450.6984" y="141.2197">announcements</text><line style="stroke:#2E7D32;stroke-width:1.5;" x1="1427.82" x2="1554.1872" y1="148.5781" y2="148.5781"/><text fill="#000000" font-family="Arial" font-size="10" lengthAdjust="spacing" textLength="101.6797" x="1432.82" y="161.8604">title &#183; body &#183; entityId</text><text fill="#000000" font-family="Arial" font-size="10" lengthAdjust="spacing" textLength="116.3672" x="1432.82" y="173.501">publishedAt &#183; expiresAt</text></g><!--class actionClient--><g class="entity" data-qualified-name="Capa de acci.n  .  Server Actions.actionClient" data-source-line="66" id="ent0013"><rect fill="#DCE8F5" height="64.5625" rx="2.5" ry="2.5" style="stroke:#2D6A9F;stroke-width:1.5;" width="182.4785" x="21.76" y="288.4969"/><text fill="#000000" font-family="Arial" font-size="10" font-style="italic" lengthAdjust="spacing" textLength="44.7021" x="90.6482" y="302.7791">&#171;accion&#187;</text><text fill="#000000" font-family="Arial" font-size="10" lengthAdjust="spacing" textLength="59.7314" x="83.1335" y="314.4197">actionClient</text><line style="stroke:#2D6A9F;stroke-width:1.5;" x1="22.76" x2="203.2385" y1="321.7781" y2="321.7781"/><text fill="#000000" font-family="Arial" font-size="10" lengthAdjust="spacing" textLength="137.8418" x="27.76" y="335.0604">schema(zod: ZodType&lt;T&gt;)</text><text fill="#000000" font-family="Arial" font-size="10" lengthAdjust="spacing" textLength="170.4785" x="27.76" y="346.701">action(handler): ServerAction&lt;T&gt;</text></g><!--class ActionResult<T>--><g class="entity" data-qualified-name="Capa de acci.n  .  Server Actions.ActionResult.T." data-source-line="71" id="ent0014"><rect fill="#DCE8F5" height="64.5625" rx="2.5" ry="2.5" style="stroke:#2D6A9F;stroke-width:1.5;" width="181.8877" x="239.06" y="288.4969"/><text fill="#000000" font-family="Arial" font-size="10" font-style="italic" lengthAdjust="spacing" textLength="44.7021" x="307.6528" y="302.7791">&#171;accion&#187;</text><text fill="#000000" font-family="Arial" font-size="10" lengthAdjust="spacing" textLength="85.708" x="287.1498" y="314.4197">ActionResult&lt;T&gt;</text><line style="stroke:#2D6A9F;stroke-width:1.5;" x1="240.06" x2="419.9477" y1="321.7781" y2="321.7781"/><text fill="#000000" font-family="Arial" font-size="10" lengthAdjust="spacing" textLength="119.2822" x="245.06" y="335.0604">success: true  &#8594; data: T</text><text fill="#000000" font-family="Arial" font-size="10" lengthAdjust="spacing" textLength="169.8877" x="245.06" y="346.701">success: false &#8594; error &#183; fieldErrors</text></g><!--class buildCessionActions(cfg)--><g class="entity" data-qualified-name="Capa de acci.n  .  Server Actions.buildCessionActions.cfg." data-source-line="76" id="ent0015"><rect fill="#DCE8F5" height="95.8438" rx="2.5" ry="2.5" style="stroke:#2D6A9F;stroke-width:1.5;" width="192.5908" x="455.7" y="272.8569"/><text fill="#000000" font-family="Arial" font-size="10" font-style="italic" lengthAdjust="spacing" textLength="44.7021" x="529.6443" y="287.1391">&#171;accion&#187;</text><text fill="#000000" font-family="Arial" font-size="10" lengthAdjust="spacing" textLength="123.252" x="490.3694" y="298.7797">buildCessionActions(cfg)</text><line style="stroke:#2D6A9F;stroke-width:1.5;" x1="456.7" x2="647.2908" y1="306.1381" y2="306.1381"/><text fill="#000000" font-family="Arial" font-size="10" lengthAdjust="spacing" textLength="180.5908" x="461.7" y="319.4204">cfg: resourceType &#183; noun &#183; basePath</text><text fill="#000000" font-family="Arial" font-size="10" lengthAdjust="spacing" textLength="174.5947" x="461.7" y="331.061">&#9472;&#9472;&#9472;&#9472;&#9472;&#9472;&#9472;&#9472;&#9472;&#9472;&#9472;&#9472;&#9472;&#9472;&#9472;&#9472;&#9472;&#9472;&#9472;&#9472;&#9472;&#9472;&#9472;&#9472;&#9472;&#9472;&#9472;&#9472;&#9472;</text><line style="stroke:#2D6A9F;stroke-width:1.5;" x1="456.7" x2="647.2908" y1="337.4194" y2="337.4194"/><text fill="#000000" font-family="Arial" font-size="10" lengthAdjust="spacing" textLength="147.9443" x="461.7" y="350.7016">createCession(): ActionResult</text><text fill="#000000" font-family="Arial" font-size="10" lengthAdjust="spacing" textLength="148.374" x="461.7" y="362.3422">cancelCession(): ActionResult</text></g><!--class ActionResult--><g class="entity" data-qualified-name="ActionResult" data-source-line="96" id="ent0025"><rect fill="#F1F1F1" height="21.6406" rx="2.5" ry="2.5" style="stroke:#181818;stroke-width:1.5;" width="68.8418" x="78.58" y="465.1669"/><text fill="#000000" font-family="Arial" font-size="10" lengthAdjust="spacing" textLength="62.8418" x="81.58" y="479.4491">ActionResult</text></g><!--class buildCessionActions--><g class="entity" data-qualified-name="buildCessionActions" data-source-line="97" id="ent0027"><rect fill="#F1F1F1" height="21.6406" rx="2.5" ry="2.5" style="stroke:#181818;stroke-width:1.5;" width="106.083" x="59.96" y="136.7569"/><text fill="#000000" font-family="Arial" font-size="10" lengthAdjust="spacing" textLength="100.083" x="62.96" y="151.0391">buildCessionActions</text></g><!--link profiles to entities--><g class="link" data-entity-1="ent0003" data-entity-2="ent0005" data-link-type="aggregation" data-source-line="85" id="lnk16"><path codeLine="85" d="M1045.31,508.7269 C1067.22,530.9269 1087.6825,551.6742 1108.1625,572.4342" fill="none" id="profiles-to-entities" style="stroke:#444444;stroke-width:1.2;"/><polygon fill="none" points="1116.59,580.9769,1115.2238,573.8964,1108.1625,572.4342,1109.5287,579.5147,1116.59,580.9769" style="stroke:#444444;stroke-width:1.2;"/><polygon fill="#000000" points="1092.4693,547.9347,1089.061,541.1323,1085.7136,544.4348,1092.4693,547.9347" style="stroke:#000000;stroke-width:1;"/><text fill="#000000" font-family="Arial" font-size="10" lengthAdjust="spacing" textLength="60.1318" x="1096.66" y="548.5491">pertenece a</text><text fill="#000000" font-family="Arial" font-size="10" lengthAdjust="spacing" textLength="7.4805" x="1043.8327" y="525.6004">N</text><text fill="#000000" font-family="Arial" font-size="10" lengthAdjust="spacing" textLength="6.3623" x="1103.3554" y="571.0769">1</text></g><!--link spots to entities--><g class="link" data-entity-1="ent0006" data-entity-2="ent0005" data-link-type="aggregation" data-source-line="86" id="lnk17"><path codeLine="86" d="M1185.6,357.3469 C1185.58,402.9669 1182.81,484.1769 1166,551.2669 C1163.5,561.2369 1164.3304,560.7665 1160.2204,569.8865" fill="none" id="spots-to-entities" style="stroke:#444444;stroke-width:1.2;"/><polygon fill="none" points="1155.29,580.8269,1161.402,577.0001,1160.2204,569.8865,1154.1084,573.7132,1155.29,580.8269" style="stroke:#444444;stroke-width:1.2;"/><polygon fill="#000000" points="1185.7857,480.279,1188.9783,473.3727,1184.3091,472.8152,1185.7857,480.279" style="stroke:#000000;stroke-width:1;"/><text fill="#000000" font-family="Arial" font-size="10" lengthAdjust="spacing" textLength="60.1318" x="1193.26" y="479.7691">pertenece a</text><text fill="#000000" font-family="Arial" font-size="10" lengthAdjust="spacing" textLength="7.4805" x="1178.1102" y="374.4446">N</text><text fill="#000000" font-family="Arial" font-size="10" lengthAdjust="spacing" textLength="6.3623" x="1151.9723" y="570.8884">1</text></g><!--link spots to profiles--><g class="link" data-entity-1="ent0006" data-entity-2="ent0003" data-link-type="aggregation" data-source-line="87" id="lnk18"><path codeLine="87" d="M1145.34,357.3169 C1116.33,383.2969 1086.2678,410.2396 1058.3178,435.2796" fill="none" id="spots-to-profiles" style="stroke:#444444;stroke-width:1.2;"/><polygon fill="none" points="1049.38,443.2869,1056.518,442.2625,1058.3178,435.2796,1051.1798,436.304,1049.38,443.2869" style="stroke:#444444;stroke-width:1.2;"/><polygon fill="#000000" points="1101.3493,404.8581,1094.3909,407.9354,1097.5286,411.4377,1101.3493,404.8581" style="stroke:#000000;stroke-width:1;"/><text fill="#000000" font-family="Arial" font-size="10" lengthAdjust="spacing" textLength="54.7119" x="1105.37" y="410.9891">asignada a</text><text fill="#000000" font-family="Arial" font-size="10" lengthAdjust="spacing" textLength="19.082" x="1117.2843" y="374.4091">0..1</text><text fill="#000000" font-family="Arial" font-size="10" lengthAdjust="spacing" textLength="6.3623" x="1050.5031" y="433.2826">1</text></g><!--link reservations to spots--><g class="link" data-entity-1="ent0007" data-entity-2="ent0006" data-link-type="dependency" data-source-line="88" id="lnk19"><path codeLine="88" d="M940.55,184.3269 C1007.12,207.1669 1081.52,232.8669 1085,234.8569 C1108.54,248.2969 1127.3956,263.5224 1145.5556,280.3224" fill="none" id="reservations-to-spots" style="stroke:#444444;stroke-width:1.2;"/><polygon fill="#444444" points="1149.96,284.3969,1146.0698,275.3489,1146.2897,281.0014,1140.6371,281.2213,1149.96,284.3969" style="stroke:#444444;stroke-width:1.2;"/><polygon fill="#000000" points="1069.0125,222.3735,1063.4564,217.1756,1061.4623,221.4341,1069.0125,222.3735" style="stroke:#000000;stroke-width:1;"/><text fill="#000000" font-family="Arial" font-size="10" lengthAdjust="spacing" textLength="30.4297" x="1072.39" y="224.1391">ocupa</text><text fill="#000000" font-family="Arial" font-size="10" lengthAdjust="spacing" textLength="7.4805" x="951.5918" y="201.1917">N</text><text fill="#000000" font-family="Arial" font-size="10" lengthAdjust="spacing" textLength="6.3623" x="1136.1523" y="274.1072">1</text></g><!--link reservations to profiles--><g class="link" data-entity-1="ent0007" data-entity-2="ent0003" data-link-type="dependency" data-source-line="89" id="lnk20"><path codeLine="89" d="M896.59,184.2069 C915.43,197.9169 934.73,215.0969 948,234.8569 C992.1,300.5469 1006.2847,389.0565 1011.1247,437.5965" fill="none" id="reservations-to-profiles" style="stroke:#444444;stroke-width:1.2;"/><polygon fill="#444444" points="1011.72,443.5669,1014.8073,434.2144,1011.2239,438.5915,1006.8468,435.0082,1011.72,443.5669" style="stroke:#444444;stroke-width:1.2;"/><polygon fill="#000000" points="1010.3575,324.7421,1009.5195,317.18,1005.2347,319.1168,1010.3575,324.7421" style="stroke:#000000;stroke-width:1;"/><text fill="#000000" font-family="Arial" font-size="10" lengthAdjust="spacing" textLength="65.5566" x="1015.71" y="324.5591">realizada por</text><text fill="#000000" font-family="Arial" font-size="10" lengthAdjust="spacing" textLength="7.4805" x="899.8014" y="201.0503">N</text><text fill="#000000" font-family="Arial" font-size="10" lengthAdjust="spacing" textLength="6.3623" x="1004.5413" y="433.1539">1</text></g><!--link cessions to spots--><g class="link" data-entity-1="ent0008" data-entity-2="ent0006" data-link-type="dependency" data-source-line="90" id="lnk21"><path codeLine="90" d="M1269.92,179.9769 C1252.04,209.4169 1228.4459,248.2694 1209.7659,279.0094" fill="none" id="cessions-to-spots" style="stroke:#444444;stroke-width:1.2;"/><polygon fill="#444444" points="1206.65,284.1369,1214.7421,278.5229,1209.2466,279.864,1207.9055,274.3684,1206.65,284.1369" style="stroke:#444444;stroke-width:1.2;"/><polygon fill="#000000" points="1248.2434,224.0959,1254.0095,219.132,1249.9905,216.6908,1248.2434,224.0959" style="stroke:#000000;stroke-width:1;"/><text fill="#000000" font-family="Arial" font-size="10" lengthAdjust="spacing" textLength="24.1504" x="1257.32" y="224.1391">cede</text><text fill="#000000" font-family="Arial" font-size="10" lengthAdjust="spacing" textLength="7.4805" x="1258.3133" y="197.1418">N</text><text fill="#000000" font-family="Arial" font-size="10" lengthAdjust="spacing" textLength="6.3623" x="1204.358" y="274.1856">1</text></g><!--link cessions to profiles--><g class="link" data-entity-1="ent0008" data-entity-2="ent0003" data-link-type="dependency" data-source-line="91" id="lnk22"><path codeLine="91" d="M1297.63,179.9669 C1309.55,230.7369 1324.38,331.3569 1275,392.7069 C1254.41,418.2869 1185.787,438.8906 1121.637,453.6606" fill="none" id="cessions-to-profiles" style="stroke:#444444;stroke-width:1.2;"/><polygon fill="#444444" points="1115.79,455.0069,1125.458,456.8855,1120.6625,453.885,1123.663,449.0895,1115.79,455.0069" style="stroke:#444444;stroke-width:1.2;"/><polygon fill="#000000" points="1311.2366,324.4616,1317.1278,319.6469,1313.1727,317.1037,1311.2366,324.4616" style="stroke:#000000;stroke-width:1;"/><text fill="#000000" font-family="Arial" font-size="10" lengthAdjust="spacing" textLength="54.9121" x="1320.4" y="324.5591">propietario</text><text fill="#000000" font-family="Arial" font-size="10" lengthAdjust="spacing" textLength="7.4805" x="1291.7385" y="197.1297">N</text><text fill="#000000" font-family="Arial" font-size="10" lengthAdjust="spacing" textLength="6.3623" x="1123.4989" y="451.3679">1</text></g><!--link leave_requests to profiles--><g class="link" data-entity-1="ent0009" data-entity-2="ent0003" data-link-type="dependency" data-source-line="92" id="lnk23"><path codeLine="92" d="M879.06,363.2369 C909.45,388.4069 943.0289,416.2099 971.0189,439.3899" fill="none" id="leave_requests-to-profiles" style="stroke:#444444;stroke-width:1.2;"/><polygon fill="#444444" points="975.64,443.2169,971.2597,434.3957,971.7891,440.0277,966.1571,440.5572,975.64,443.2169" style="stroke:#444444;stroke-width:1.2;"/><polygon fill="#000000" points="945.1508,410.0784,941.0772,403.6524,938.078,407.274,945.1508,410.0784" style="stroke:#000000;stroke-width:1;"/><text fill="#000000" font-family="Arial" font-size="10" lengthAdjust="spacing" textLength="35.21" x="949.07" y="410.9891">solicita</text><text fill="#000000" font-family="Arial" font-size="10" lengthAdjust="spacing" textLength="7.4805" x="879.5194" y="380.2135">N</text><text fill="#000000" font-family="Arial" font-size="10" lengthAdjust="spacing" textLength="6.3623" x="960.6325" y="433.1973">1</text></g><!--link visitor_reservations to spots--><g class="link" data-entity-1="ent0010" data-entity-2="ent0006" data-link-type="dependency" data-source-line="93" id="lnk24"><path codeLine="93" d="M1087.01,179.9769 C1107.65,209.4169 1135.0258,248.4839 1156.5758,279.2239" fill="none" id="visitor_reservations-to-spots" style="stroke:#444444;stroke-width:1.2;"/><polygon fill="#444444" points="1160.02,284.1369,1158.129,274.4713,1157.1498,280.0427,1151.5784,279.0635,1160.02,284.1369" style="stroke:#444444;stroke-width:1.2;"/><polygon fill="#000000" points="1124.1159,223.9527,1121.8879,216.6778,1118.0373,219.3768,1124.1159,223.9527" style="stroke:#000000;stroke-width:1;"/><text fill="#000000" font-family="Arial" font-size="10" lengthAdjust="spacing" textLength="30.4297" x="1128.82" y="224.1391">ocupa</text><text fill="#000000" font-family="Arial" font-size="10" lengthAdjust="spacing" textLength="7.4805" x="1083.8775" y="197.1418">N</text><text fill="#000000" font-family="Arial" font-size="10" lengthAdjust="spacing" textLength="6.3623" x="1148.5477" y="274.1856">1</text></g><!--link actionClient to ActionResult--><g class="link" data-entity-1="ent0013" data-entity-2="ent0025" data-link-type="dependency" data-source-line="96" id="lnk26"><path codeLine="96" d="M113,353.5269 C113,388.4069 113,436.4469 113,458.7869" fill="none" id="actionClient-to-ActionResult" style="stroke:#444444;stroke-width:1.2;stroke-dasharray:7,7;"/><polygon fill="#444444" points="113,464.7869,117,455.7869,113,459.7869,109,455.7869,113,464.7869" style="stroke:#444444;stroke-width:1.2;"/><polygon fill="#000000" points="117,411.5272,119.3511,404.2911,114.6489,404.2911,117,411.5272" style="stroke:#000000;stroke-width:1;"/><text fill="#000000" font-family="Arial" font-size="10" lengthAdjust="spacing" textLength="40.9131" x="124" y="410.9891">produce</text></g><!--link buildCessionActions to actionClient--><g class="link" data-entity-1="ent0027" data-entity-2="ent0013" data-link-type="dependency" data-source-line="97" id="lnk28"><path codeLine="97" d="M113,158.7769 C113,183.7569 113,242.8269 113,282.1769" fill="none" id="buildCessionActions-to-actionClient" style="stroke:#444444;stroke-width:1.2;stroke-dasharray:7,7;"/><polygon fill="#444444" points="113,288.1769,117,279.1769,113,283.1769,109,279.1769,113,288.1769" style="stroke:#444444;stroke-width:1.2;"/><polygon fill="#000000" points="117,224.6772,119.3511,217.4411,114.6489,217.4411,117,224.6772" style="stroke:#000000;stroke-width:1;"/><text fill="#000000" font-family="Arial" font-size="10" lengthAdjust="spacing" textLength="17.6758" x="124" y="224.1391">usa</text></g><?plantuml-src lLJDRXit4BxlKmpaG-L3vDYD-xCm13XA0kHGeuXrwYKOaIEBCPVSaborScCWfpv0aHSfUkYzUPCyIOVaAbwjrgqFJHU2mDqPpZVppJUpKf90A2Sq5QjufgeE6wYeMf3pHU6lbQdHOGMIbjZeyCAQS84LmRbJg8Vjb-g6uFXnnoWqUl_KEabklbBYsf3tS3mvxRYWS_Qdhl6aRvnPRHqSF4bFnxX0SNtbR6Daw_4YFKKV7tuf09xkEf-TLLQIjjCfm84y9I6VHAUKwPv3V0vEw6lvvSbG91H2MPCZ2VfcUTgFTEUG8yclyDjbSLiKGGLDCECaoJEH89Md3xzRg9qoGjMeYLjHCnvU4Oo-Ima1V7pt7i0xSQJLuaWkZhnOKOMJu4TSAMFdeaUriql54KRGgILI0U2ifX9GLih0MwZGS7p7frNyOoLeko5AdcGunyrB2N_zkVLxATbosm5AFceGo4J5y5M_iYxCs1PVb3yNGQsf5yRNDWp5qBWW7U-5JPtkE_AsSOBc_9uy-BgwCYJd5iQsZboZFkn5vqlarXZOE0GYCUH40uR6fqzyT66kSW5aP3gEbmxD6_ImnI7VHn8iutz0sSPc66x16XNNno9u2pb3admKQ0HfJNscDU6QNZlwiI4_p5LqcBSyfGAUjOLn0SzsqRaMtRonKNV8Mk5fKX_-C53nC2l3xKaKmbtNOvJLVlVNogjWtUi74jowNxJ2Q5-VLyn3LemDQgb4YdF9oYfXOLcjQ7gmQ0oFeA2AVORmycWnmiBAJIOWApbPwsQXbL-HF0_9zdEjEF_pa41kEpCtmneJGoApauVlCZRAGPHnghOxTfW-phHYm9ZNf-7FUULX7TzOMS8FLiPUdSsdcUfyTRn28pMvmxB5oJ3irQCWVtz5dZl6rY6mHaGrbX1SGvpxhx_5Fc09yrtp4hMdP2PUk2vIibIavVFuvdkmYqPfESiYRnaOY-NLuG0-VovtnZL6ZdrBZU6jzps6LVBy-FxTv_ZbB1on-DgCnqnhbxZiaURjVe-aYI_Q9E4LQOnbffsj8GllSrLmRsNRzGxTPtGnWaUFB8oEHx1TotVM4cfoWGm95ZHCYxHneVVy5o4UJoR7Tr5wcPPmnXkR5pPA12owUwENn3HTtuSemOgcZl3_UdcVfIX8rEecejUizMcnNTW3DDoVWI3U2W-uEvG0VwiLyNPMbaFiBlK7Xl1MAw52v61e0J-Om7jK_MdV_S-gZiBkBj1jmfF9T6ScEqpAHiH636obT6i_MWcDZwN_3G00?></g></svg>