<svg xmlns="http://www.w3.org/2000/svg" xmlns:xlink="http://www.w3.org/1999/xlink" contentStyleType="text/css" data-diagram-type="DESCRIPTION" height="432px" preserveAspectRatio="none" style="width:1239px;height:432px;background:#FFFFFF;" version="1.1" viewBox="0 0 1239 432" width="1239px" zoomAndPan="magnify"><?plantuml 1.2026.4?><defs/><g><!--cluster reservarPlaza()--><g class="cluster" data-qualified-name="reservarPlaza.." data-source-line="9" id="ent0003"><path d="M8.5,6 L131.0088,6 A3.75,3.75 0 0 1 133.5088,8.5 L140.5088,28.2969 L952.5,28.2969 A2.5,2.5 0 0 1 955,30.7969 L955,414.69 A2.5,2.5 0 0 1 952.5,417.19 L8.5,417.19 A2.5,2.5 0 0 1 6,414.69 L6,8.5 A2.5,2.5 0 0 1 8.5,6" fill="none" style="stroke:#000000;stroke-width:1.5;"/><line style="stroke:#000000;stroke-width:1.5;" x1="6" x2="140.5088" y1="28.2969" y2="28.2969"/><text fill="#000000" font-family="Arial" font-size="14" font-weight="700" lengthAdjust="spacing" textLength="121.5088" x="10" y="20.9951">reservarPlaza()</text></g><!--entity View--><g class="entity" data-qualified-name="reservarPlaza...View" data-source-line="10" id="ent0004"><rect fill="#629EF9" height="36.2969" rx="2.5" ry="2.5" style="stroke:#181818;stroke-width:0.5;" width="181.4717" x="645.26" y="41"/><text fill="#000000" font-family="Arial" font-size="14" lengthAdjust="spacing" textLength="161.4717" x="655.26" y="63.9951">CalendarioParkingView</text></g><!--entity Controller--><g class="entity" data-qualified-name="reservarPlaza...Controller" data-source-line="11" id="ent0005"><rect fill="#B5BD68" height="36.2969" rx="2.5" ry="2.5" style="stroke:#181818;stroke-width:0.5;" width="146.041" x="308.98" y="154.3"/><text fill="#000000" font-family="Arial" font-size="14" lengthAdjust="spacing" textLength="126.041" x="318.98" y="177.2951">ReservaController</text></g><!--entity PlazaRepo--><g class="entity" data-qualified-name="reservarPlaza...PlazaRepo" data-source-line="12" id="ent0006"><rect fill="#F2AC4E" height="36.2969" rx="2.5" ry="2.5" style="stroke:#181818;stroke-width:0.5;" width="131.9111" x="22.04" y="267.6"/><text fill="#000000" font-family="Arial" font-size="14" lengthAdjust="spacing" textLength="111.9111" x="32.04" y="290.5951">PlazaRepository</text></g><!--entity ReservaRepo--><g class="entity" data-qualified-name="reservarPlaza...ReservaRepo" data-source-line="13" id="ent0007"><rect fill="#F2AC4E" height="36.2969" rx="2.5" ry="2.5" style="stroke:#181818;stroke-width:0.5;" width="151.9404" x="427.03" y="267.6"/><text fill="#000000" font-family="Arial" font-size="14" lengthAdjust="spacing" textLength="131.9404" x="437.03" y="290.5951">ReservaRepository</text></g><!--entity Plaza--><g class="entity" data-qualified-name="reservarPlaza...Plaza" data-source-line="14" id="ent0008"><rect fill="#F2AC4E" height="36.2969" rx="2.5" ry="2.5" style="stroke:#181818;stroke-width:0.5;" width="56.8389" x="59.58" y="364.89"/><text fill="#000000" font-family="Arial" font-size="14" lengthAdjust="spacing" textLength="36.8389" x="69.58" y="387.8851">Plaza</text></g><!--entity Reserva--><g class="entity" data-qualified-name="reservarPlaza...Reserva" data-source-line="15" id="ent0009"><rect fill="#F2AC4E" height="36.2969" rx="2.5" ry="2.5" style="stroke:#181818;stroke-width:0.5;" width="76.8682" x="464.57" y="364.89"/><text fill="#000000" font-family="Arial" font-size="14" lengthAdjust="spacing" textLength="56.8682" x="474.57" y="387.8851">Reserva</text></g><!--entity Calendario--><g class="entity" data-qualified-name="Calendario" data-source-line="6" id="ent0001"><rect fill="#CDEBA5" height="36.2969" rx="2.5" ry="2.5" style="stroke:#181818;stroke-width:0.5;" width="254.2539" x="970.87" y="154.3"/><text fill="#000000" font-family="Arial" font-size="14" lengthAdjust="spacing" textLength="234.2539" x="980.87" y="177.2951">:CALENDARIO_PARKING_ABIERTO</text></g><!--entity Menu--><g class="entity" data-qualified-name="Menu" data-source-line="7" id="ent0002"><rect fill="#CDEBA5" height="36.2969" rx="2.5" ry="2.5" style="stroke:#181818;stroke-width:0.5;" width="176.7822" x="970.61" y="41"/><text fill="#000000" font-family="Arial" font-size="14" lengthAdjust="spacing" textLength="156.7822" x="980.61" y="63.9951">:SISTEMA_DISPONIBLE</text></g><!--link Calendario to View--><g class="link" data-entity-1="ent0001" data-entity-2="ent0004" data-link-type="dependency" data-source-line="18" id="lnk10"><path d="M1044.75,153.89 C1004.1,140.49 955,124.3 955,124.3 C955,124.3 919,107.3 919,107.3 C919,107.3 861.2217,92.4182 809.2417,79.0182" fill="none" id="Calendario-to-View" style="stroke:#181818;stroke-width:1;"/><polygon fill="#181818" points="804.4,77.77,812.1166,83.89,809.2417,79.0182,814.1136,76.1433,804.4,77.77" style="stroke:#181818;stroke-width:1;stroke-linejoin:miter;stroke-miterlimit:10;"/><text fill="#000000" font-family="Arial" font-size="13" lengthAdjust="spacing" textLength="98.814" x="956" y="120.3669">reservarPlaza()</text></g><!--link View to Calendario--><g class="link" data-entity-1="ent0004" data-entity-2="ent0001" data-link-type="dependency" data-source-line="32" id="lnk18"><path d="M826.83,73.41 C922.37,87.36 1059,107.3 1059,107.3 C1059,107.3 1073.2034,130.6571 1084.7434,149.6471" fill="none" id="View-to-Calendario" style="stroke:#181818;stroke-width:1;stroke-dasharray:7,7;"/><polygon fill="#181818" points="1087.34,153.92,1086.0845,144.1515,1084.7434,149.6471,1079.2478,148.306,1087.34,153.92" style="stroke:#181818;stroke-width:1;stroke-linejoin:miter;stroke-miterlimit:10;"/><text fill="#000000" font-family="Arial" font-size="13" lengthAdjust="spacing" textLength="125.9248" x="1069.42" y="120.3669">completarGestion()</text></g><!--link View to Controller--><g class="link" data-entity-1="ent0004" data-entity-2="ent0005" data-link-type="dependency" data-source-line="20" id="lnk11"><path d="M644.99,72.17 C539.22,86.14 379,107.3 379,107.3 C379,107.3 379,124.3 379,124.3 C379,124.3 379.7135,135.5 380.5635,148.9" fill="none" id="View-to-Controller" style="stroke:#181818;stroke-width:1;"/><polygon fill="#181818" points="380.88,153.89,384.3022,144.6548,380.5635,148.9,376.3183,145.1613,380.88,153.89" style="stroke:#181818;stroke-width:1;stroke-linejoin:miter;stroke-miterlimit:10;"/><text fill="#000000" font-family="Arial" font-size="13" lengthAdjust="spacing" textLength="204.1597" x="380" y="120.3669">cargarPlazasDisponibles(fecha)</text></g><!--link View to Controller--><g class="link" data-entity-1="ent0004" data-entity-2="ent0005" data-link-type="dependency" data-source-line="28" id="lnk16"><path d="M694.67,77.71 C663.11,91.11 625,107.3 625,107.3 C625,107.3 589,124.3 589,124.3 C589,124.3 519.6952,140.0899 460.1452,153.6499" fill="none" id="View-to-Controller-1" style="stroke:#181818;stroke-width:1;"/><polygon fill="#181818" points="455.27,154.76,464.9335,156.6619,460.1452,153.6499,463.1573,148.8616,455.27,154.76" style="stroke:#181818;stroke-width:1;stroke-linejoin:miter;stroke-miterlimit:10;"/><text fill="#000000" font-family="Arial" font-size="13" lengthAdjust="spacing" textLength="288.4248" x="626" y="120.3669">confirmarReserva(id_plaza, fecha) : Reserva</text></g><!--link Controller to PlazaRepo--><g class="link" data-entity-1="ent0005" data-entity-2="ent0006" data-link-type="dependency" data-source-line="22" id="lnk12"><path d="M308.83,185.1 C221.18,199.06 86,220.6 86,220.6 C86,220.6 86,237.6 86,237.6 C86,237.6 86.4777,248.7845 87.0477,262.1945" fill="none" id="Controller-to-PlazaRepo" style="stroke:#181818;stroke-width:1;"/><polygon fill="#181818" points="87.26,267.19,90.8742,258.0283,87.0477,262.1945,82.8814,258.368,87.26,267.19" style="stroke:#181818;stroke-width:1;stroke-linejoin:miter;stroke-miterlimit:10;"/><text fill="#000000" font-family="Arial" font-size="13" lengthAdjust="spacing" textLength="267.3315" x="87" y="233.6669">obtenerPlazasLibres(fecha, tipo) : Plaza[]</text></g><!--link Controller to ReservaRepo--><g class="link" data-entity-1="ent0005" data-entity-2="ent0007" data-link-type="dependency" data-source-line="23" id="lnk13"><path d="M374.93,191 C369.52,204.41 363,220.6 363,220.6 C363,220.6 363,237.6 363,237.6 C363,237.6 406.3317,252.1835 446.1317,265.5935" fill="none" id="Controller-to-ReservaRepo" style="stroke:#181818;stroke-width:1;"/><polygon fill="#181818" points="450.87,267.19,443.6183,260.5257,446.1317,265.5935,441.0639,268.1069,450.87,267.19" style="stroke:#181818;stroke-width:1;stroke-linejoin:miter;stroke-miterlimit:10;"/><text fill="#000000" font-family="Arial" font-size="13" lengthAdjust="spacing" textLength="232.1274" x="364" y="233.6669">obtenerReservas(fecha) : Reserva[]</text></g><!--link Controller to ReservaRepo--><g class="link" data-entity-1="ent0005" data-entity-2="ent0007" data-link-type="dependency" data-source-line="30" id="lnk17"><path d="M455.23,189.21 C518.89,202.92 601,220.6 601,220.6 C601,220.6 601,237.6 601,237.6 C601,237.6 571.8553,251.6115 543.9953,265.0215" fill="none" id="Controller-to-ReservaRepo-1" style="stroke:#181818;stroke-width:1;"/><polygon fill="#181818" points="539.49,267.19,549.3343,266.8908,543.9953,265.0215,545.8646,259.6824,539.49,267.19" style="stroke:#181818;stroke-width:1;stroke-linejoin:miter;stroke-miterlimit:10;"/><text fill="#000000" font-family="Arial" font-size="13" lengthAdjust="spacing" textLength="297.8955" x="602" y="233.6669">crear(fecha, id_plaza, id_empleado) : Reserva</text></g><!--link PlazaRepo to Plaza--><g class="link" data-entity-1="ent0006" data-entity-2="ent0008" data-link-type="association" data-source-line="25" id="lnk14"><path d="M88,304.22 C88,321.42 88,347.52 88,364.67" fill="none" id="PlazaRepo-Plaza" style="stroke:#181818;stroke-width:1;"/></g><!--link ReservaRepo to Reserva--><g class="link" data-entity-1="ent0007" data-entity-2="ent0009" data-link-type="association" data-source-line="26" id="lnk15"><path d="M503,304.22 C503,321.42 503,347.52 503,364.67" fill="none" id="ReservaRepo-Reserva" style="stroke:#181818;stroke-width:1;"/></g><?plantuml-src VPDDQzj048Rl-oi6vU90d4DeGgD3G9Rb8EhOHWwzb696qbXPijuL8xd5BVtlNIdwicEyfzNCFEyxCukATwbpPDn1ZCbxncQlKzyemt0rguyekegKjhXNvSpeSe4x0eybga5UIKtb8IV8ZJfK7q8m9INgJ15S-TDWujs3u_hUF5XClIXSRbPUz2rSF6-yIHX4hqi7i00V5UaKMPgpz3fSlmOltcOQhbVBHJYP1pNrGdelH6vdm8p0OIg8Vo6l5Fx1qRK3VmN0GExXxZ6OFOBJcwsGxI3PTqc_7R37QbRtOoo-ZzE7h-147_A-tGGRfOXhfC7ww34yk_FyBm4uTKyHvQQGfU53XzPmbppFDiPdQCiEaXUS1twVdI-wEcUv9Yd-2T5l4yOyVgeNwCB9MmXHXM6Sse9-LIuao5bJL4nbaHijOqN5Q4l96rgghuMnHRj5kM3YaZGrw5p6t58tKChSN8FxKVtZvwd8O6ETJ1DhZItSH2mkEbUBDniRQ5J1TXtDbAT36hsLlCFMPIJJJLx9tC2fdRZORCA4t4xPYzWRxN95c9eZgRgPszkdmTzLDLELbiZFL9JIQFis_m40?></g></svg>