<svg xmlns="http://www.w3.org/2000/svg" xmlns:xlink="http://www.w3.org/1999/xlink" contentStyleType="text/css" data-diagram-type="DESCRIPTION" height="467px" preserveAspectRatio="none" style="width:1443px;height:467px;background:#FFFFFF;" version="1.1" viewBox="0 0 1443 467" width="1443px" zoomAndPan="magnify"><?plantuml 1.2026.4?><defs/><g><!--cluster registrarVisitante()--><g class="cluster" data-qualified-name="registrarVisitante.." data-source-line="10" id="ent0004"><path d="M284.63,6 L438.9874,6 A3.75,3.75 0 0 1 441.4874,8.5 L448.4874,28.2969 L1116.63,28.2969 A2.5,2.5 0 0 1 1119.13,30.7969 L1119.13,449.69 A2.5,2.5 0 0 1 1116.63,452.19 L284.63,452.19 A2.5,2.5 0 0 1 282.13,449.69 L282.13,8.5 A2.5,2.5 0 0 1 284.63,6" fill="none" style="stroke:#000000;stroke-width:1.5;"/><line style="stroke:#000000;stroke-width:1.5;" x1="282.13" x2="448.4874" y1="28.2969" y2="28.2969"/><text fill="#000000" font-family="Arial" font-size="14" font-weight="700" lengthAdjust="spacing" textLength="153.3574" x="286.13" y="20.9951">registrarVisitante()</text></g><!--entity View--><g class="entity" data-qualified-name="registrarVisitante...View" data-source-line="11" id="ent0005"><rect fill="#629EF9" height="36.2969" rx="2.5" ry="2.5" style="stroke:#181818;stroke-width:0.5;" width="115.2246" x="350.51" y="41"/><text fill="#000000" font-family="Arial" font-size="14" lengthAdjust="spacing" textLength="95.2246" x="360.51" y="63.9951">VisitanteView</text></g><!--entity Controller--><g class="entity" data-qualified-name="registrarVisitante...Controller" data-source-line="12" id="ent0006"><rect fill="#B5BD68" height="36.2969" rx="2.5" ry="2.5" style="stroke:#181818;stroke-width:0.5;" width="150.8672" x="631.69" y="189.3"/><text fill="#000000" font-family="Arial" font-size="14" lengthAdjust="spacing" textLength="130.8672" x="641.69" y="212.2951">VisitanteController</text></g><!--entity VisitanteRepo--><g class="entity" data-qualified-name="registrarVisitante...VisitanteRepo" data-source-line="13" id="ent0007"><rect fill="#F2AC4E" height="36.2969" rx="2.5" ry="2.5" style="stroke:#181818;stroke-width:0.5;" width="156.7666" x="297.74" y="302.6"/><text fill="#000000" font-family="Arial" font-size="14" lengthAdjust="spacing" textLength="136.7666" x="307.74" y="325.5951">VisitanteRepository</text></g><!--entity PlazaRepo--><g class="entity" data-qualified-name="registrarVisitante...PlazaRepo" data-source-line="14" id="ent0008"><rect fill="#F2AC4E" height="36.2969" rx="2.5" ry="2.5" style="stroke:#181818;stroke-width:0.5;" width="131.9111" x="708.17" y="302.6"/><text fill="#000000" font-family="Arial" font-size="14" lengthAdjust="spacing" textLength="111.9111" x="718.17" y="325.5951">PlazaRepository</text></g><!--entity Visitante--><g class="entity" data-qualified-name="registrarVisitante...Visitante" data-source-line="15" id="ent0009"><rect fill="#F2AC4E" height="36.2969" rx="2.5" ry="2.5" style="stroke:#181818;stroke-width:0.5;" width="138.5625" x="306.85" y="399.89"/><text fill="#000000" font-family="Arial" font-size="14" lengthAdjust="spacing" textLength="118.5625" x="316.85" y="422.8851">ReservaVisitante</text></g><!--entity Plaza--><g class="entity" data-qualified-name="registrarVisitante...Plaza" data-source-line="16" id="ent0010"><rect fill="#F2AC4E" height="36.2969" rx="2.5" ry="2.5" style="stroke:#181818;stroke-width:0.5;" width="56.8389" x="745.71" y="399.89"/><text fill="#000000" font-family="Arial" font-size="14" lengthAdjust="spacing" textLength="36.8389" x="755.71" y="422.8851">Plaza</text></g><!--entity Calendario--><g class="entity" data-qualified-name="Calendario" data-source-line="6" id="ent0001"><rect fill="#CDEBA5" height="36.2969" rx="2.5" ry="2.5" style="stroke:#181818;stroke-width:0.5;" width="254.2539" x="7" y="189.3"/><text fill="#000000" font-family="Arial" font-size="14" lengthAdjust="spacing" textLength="234.2539" x="17" y="212.2951">:CALENDARIO_PARKING_ABIERTO</text></g><!--entity Menu--><g class="entity" data-qualified-name="Menu" data-source-line="7" id="ent0002"><rect fill="#CDEBA5" height="36.2969" rx="2.5" ry="2.5" style="stroke:#181818;stroke-width:0.5;" width="176.7822" x="1252.74" y="41"/><text fill="#000000" font-family="Arial" font-size="14" lengthAdjust="spacing" textLength="156.7822" x="1262.74" y="63.9951">:SISTEMA_DISPONIBLE</text></g><!--entity Resend--><g class="entity" data-qualified-name="Resend" data-source-line="8" id="ent0003"><rect fill="#CDEBA5" height="36.2969" rx="2.5" ry="2.5" style="stroke:#181818;stroke-width:0.5;" width="82.2754" x="1134.99" y="41"/><text fill="#000000" font-family="Arial" font-size="14" lengthAdjust="spacing" textLength="62.2754" x="1144.99" y="63.9951">:RESEND</text></g><!--link Calendario to View--><g class="link" data-entity-1="ent0001" data-entity-2="ent0005" data-link-type="dependency" data-source-line="19" id="lnk11"><path d="M131.15,188.89 C128.87,175.49 126.13,159.3 126.13,159.3 C126.13,159.3 126.13,107.3 126.13,107.3 C126.13,107.3 262.5585,84.495 345.1085,70.685" fill="none" id="Calendario-to-View" style="stroke:#181818;stroke-width:1;"/><polygon fill="#181818" points="350.04,69.86,340.5034,67.3998,345.1085,70.685,341.8234,75.2902,350.04,69.86" style="stroke:#181818;stroke-width:1;stroke-linejoin:miter;stroke-miterlimit:10;"/><text fill="#000000" font-family="Arial" font-size="13" lengthAdjust="spacing" textLength="123.1636" x="127.13" y="137.8669">registrarVisitante()</text></g><!--link View to Calendario--><g class="link" data-entity-1="ent0005" data-entity-2="ent0001" data-link-type="dependency" data-source-line="36" id="lnk19"><path d="M364.56,77.71 C331.3,91.11 291.13,107.3 291.13,107.3 C291.13,107.3 255.13,159.3 255.13,159.3 C255.13,159.3 218.239,173.6752 183.839,187.0752" fill="none" id="View-to-Calendario" style="stroke:#181818;stroke-width:1;stroke-dasharray:7,7;"/><polygon fill="#181818" points="179.18,188.89,189.0181,189.3505,183.839,187.0752,186.1143,181.8961,179.18,188.89" style="stroke:#181818;stroke-width:1;stroke-linejoin:miter;stroke-miterlimit:10;"/><text fill="#000000" font-family="Arial" font-size="13" lengthAdjust="spacing" textLength="125.9248" x="292.13" y="137.8669">completarGestion()</text></g><!--link View to Controller--><g class="link" data-entity-1="ent0005" data-entity-2="ent0006" data-link-type="dependency" data-source-line="21" id="lnk12"><path d="M416.84,77.42 C431.16,105.83 458.13,159.3 458.13,159.3 C458.13,159.3 553.2373,177.3098 626.4873,191.1798" fill="none" id="View-to-Controller" style="stroke:#181818;stroke-width:1;"/><polygon fill="#181818" points="631.4,192.11,623.3013,186.5054,626.4873,191.1798,621.8129,194.3658,631.4,192.11" style="stroke:#181818;stroke-width:1;stroke-linejoin:miter;stroke-miterlimit:10;"/><text fill="#000000" font-family="Arial" font-size="13" lengthAdjust="spacing" textLength="204.1597" x="459.13" y="137.8669">cargarPlazasDisponibles(fecha)</text></g><!--link View to Controller--><g class="link" data-entity-1="ent0005" data-entity-2="ent0006" data-link-type="dependency" data-source-line="27" id="lnk15"><path d="M466.15,70.67 C542.78,84.57 668.13,107.3 668.13,107.3 C668.13,107.3 687.3305,156.1167 698.5005,184.5267" fill="none" id="View-to-Controller-1" style="stroke:#181818;stroke-width:1;"/><polygon fill="#181818" points="700.33,189.18,700.7595,179.3405,698.5005,184.5267,693.3142,182.2678,700.33,189.18" style="stroke:#181818;stroke-width:1;stroke-linejoin:miter;stroke-miterlimit:10;"/><text fill="#000000" font-family="Arial" font-size="13" lengthAdjust="spacing" textLength="394.5005" x="688.63" y="137.8669">confirmarVisitante(datos, id_plaza, fecha) : ReservaVisitante</text></g><!--link Controller to PlazaRepo--><g class="link" data-entity-1="ent0006" data-entity-2="ent0008" data-link-type="dependency" data-source-line="23" id="lnk13"><path d="M717.6,225.84 C730.11,246.62 748.3515,276.9262 760.9315,297.8262" fill="none" id="Controller-to-PlazaRepo" style="stroke:#181818;stroke-width:1;"/><polygon fill="#181818" points="763.51,302.11,762.2958,292.3363,760.9315,297.8262,755.4416,296.4619,763.51,302.11" style="stroke:#181818;stroke-width:1;stroke-linejoin:miter;stroke-miterlimit:10;"/><text fill="#000000" font-family="Arial" font-size="13" lengthAdjust="spacing" textLength="327.4185" x="745.64" y="268.6669">obtenerPlazasLibres(fecha, tipo=parking) : Plaza[]</text></g><!--link PlazaRepo to Plaza--><g class="link" data-entity-1="ent0008" data-entity-2="ent0010" data-link-type="association" data-source-line="25" id="lnk14"><path d="M774.13,339.22 C774.13,356.42 774.13,382.52 774.13,399.67" fill="none" id="PlazaRepo-Plaza" style="stroke:#181818;stroke-width:1;"/></g><!--link Controller to VisitanteRepo--><g class="link" data-entity-1="ent0006" data-entity-2="ent0007" data-link-type="dependency" data-source-line="29" id="lnk16"><path d="M631.6,217.82 C520.78,231.57 327.13,255.6 327.13,255.6 C327.13,255.6 327.13,272.6 327.13,272.6 C327.13,272.6 340.3479,285.3123 354.2779,298.7223" fill="none" id="Controller-to-VisitanteRepo" style="stroke:#181818;stroke-width:1;"/><polygon fill="#181818" points="357.88,302.19,354.1703,293.0665,354.2779,298.7223,348.622,298.8299,357.88,302.19" style="stroke:#181818;stroke-width:1;stroke-linejoin:miter;stroke-miterlimit:10;"/><text fill="#000000" font-family="Arial" font-size="13" lengthAdjust="spacing" textLength="399.4897" x="328.13" y="268.6669">crear(datos, fecha, id_plaza, id_empleado) : ReservaVisitante</text></g><!--link VisitanteRepo to Visitante--><g class="link" data-entity-1="ent0007" data-entity-2="ent0009" data-link-type="association" data-source-line="31" id="lnk17"><path d="M376.13,339.22 C376.13,356.42 376.13,382.52 376.13,399.67" fill="none" id="VisitanteRepo-Visitante" style="stroke:#181818;stroke-width:1;"/></g><!--link Resend to Controller--><g class="link" data-entity-1="ent0003" data-entity-2="ent0006" data-link-type="dependency" data-source-line="33" id="lnk18"><path d="M1161.5,77.42 C1137.43,105.83 1092.13,159.3 1092.13,159.3 C1092.13,159.3 899.8129,182.8522 787.6929,196.5822" fill="none" id="Resend-to-Controller" style="stroke:#181818;stroke-width:1;stroke-dasharray:7,7;"/><polygon fill="#181818" points="782.73,197.19,792.1495,200.0664,787.6929,196.5822,791.1771,192.1257,782.73,197.19" style="stroke:#181818;stroke-width:1;stroke-linejoin:miter;stroke-miterlimit:10;"/><text fill="#000000" font-family="Arial" font-size="13" lengthAdjust="spacing" textLength="249.4692" x="1135.13" y="120.3669">&#171;colabora&#187; enviarConfirmacion(email)</text><path d="M1212.8688,129.4328 L1212.8688,154.4328 L1305.8688,154.4328 L1305.8688,139.4328 L1295.8688,129.4328 L1212.8688,129.4328" fill="#FEFFDD" style="stroke:#181818;stroke-width:0.5;"/><path d="M1295.8688,129.4328 L1295.8688,139.4328 L1305.8688,139.4328 L1295.8688,129.4328" fill="#FEFFDD" style="stroke:#181818;stroke-width:0.5;"/><text fill="#000000" font-family="Arial" font-size="13" lengthAdjust="spacing" textLength="72.9917" x="1218.8688" y="146.4997">Resend API</text></g><?plantuml-src VPJVRvim4CVV_LUSw4iY9Nsercf5NIH2I8MM9X6f-Z9DqG4NPiMnaN4wTTN-znb22QHeVZA--tplbqsnvp97ZGU8CTbdMXrbwYkXD5pDgyMAnYEb7Hw5cIjfbdWWy3H7qR8BBicyvGIv4c_b1sEQ4eCo4mHN_YoOUhVWkBwt29OpBmfNsxKNVG-NZrjl6WRHyye1BC17GJ95pLKllGatpy6Jjvs5c_Lg6KuNGKKzaJps-aV1naQhV28gh39ZkQqKCm97KyOBer6_y89Rqj1WwC0x0sWftTtS1_DxS1gV5qw_7MWjArsUTR7uDaxllhOmtxPDAo58EmrsFkl2ynlF_nAqu8XoPRTAlpcjc2rZFxyM-0S_iJNV6FlPiblw5PieJhVU-lG_SJizkepB_Z9sdZICzNXIDT65lg4mLjfWd5glSyzSI51dg2l1OiQBN4aU2oe6Eqf-eQNElZ2sQ5En2oes9Ab65ppM7zG83C_LDtkZxRtEXk2Ug1y_6MjmArPNKUTrcPQIEwuFxH9IDAeO0K-tUGcEu9IYbR_iywUiEtEsuffGV-ZLAPzbxOuEkI1CLRzuHwqif6KxFH2ulkwMy_2GA86nqZYP0CbNZjglAqouaWCw81T39fKXKBBy3UpT-h61jmxh9bMgpSJB9fLv6jIFL9XIPiZ-0G00?></g></svg>