<svg xmlns="http://www.w3.org/2000/svg" xmlns:xlink="http://www.w3.org/1999/xlink" contentStyleType="text/css" data-diagram-type="DESCRIPTION" height="432px" preserveAspectRatio="none" style="width:1548px;height:432px;background:#FFFFFF;" version="1.1" viewBox="0 0 1548 432" width="1548px" zoomAndPan="magnify"><?plantuml 1.2026.4?><defs/><g><!--cluster gestionarSolicitudAusencia()--><g class="cluster" data-qualified-name="gestionarSolicitudAusencia.." data-source-line="9" id="ent0003"><path d="M8.5,6 L237.793,6 A3.75,3.75 0 0 1 240.293,8.5 L247.293,28.2969 L1215.5,28.2969 A2.5,2.5 0 0 1 1218,30.7969 L1218,414.69 A2.5,2.5 0 0 1 1215.5,417.19 L8.5,417.19 A2.5,2.5 0 0 1 6,414.69 L6,8.5 A2.5,2.5 0 0 1 8.5,6" fill="none" style="stroke:#000000;stroke-width:1.5;"/><line style="stroke:#000000;stroke-width:1.5;" x1="6" x2="247.293" y1="28.2969" y2="28.2969"/><text fill="#000000" font-family="Arial" font-size="14" font-weight="700" lengthAdjust="spacing" textLength="228.293" x="10" y="20.9951">gestionarSolicitudAusencia()</text></g><!--entity View--><g class="entity" data-qualified-name="gestionarSolicitudAusencia...View" data-source-line="10" id="ent0004"><rect fill="#629EF9" height="36.2969" rx="2.5" ry="2.5" style="stroke:#181818;stroke-width:0.5;" width="186.5303" x="893.73" y="41"/><text fill="#000000" font-family="Arial" font-size="14" lengthAdjust="spacing" textLength="166.5303" x="903.73" y="63.9951">BandejaSolicitudesView</text></g><!--entity Controller--><g class="entity" data-qualified-name="gestionarSolicitudAusencia...Controller" data-source-line="11" id="ent0005"><rect fill="#B5BD68" height="36.2969" rx="2.5" ry="2.5" style="stroke:#181818;stroke-width:0.5;" width="152.5693" x="596.72" y="154.3"/><text fill="#000000" font-family="Arial" font-size="14" lengthAdjust="spacing" textLength="132.5693" x="606.72" y="177.2951">AusenciaController</text></g><!--entity SolicitudRepo--><g class="entity" data-qualified-name="gestionarSolicitudAusencia...SolicitudRepo" data-source-line="12" id="ent0006"><rect fill="#F2AC4E" height="36.2969" rx="2.5" ry="2.5" style="stroke:#181818;stroke-width:0.5;" width="155.1396" x="155.43" y="267.6"/><text fill="#000000" font-family="Arial" font-size="14" lengthAdjust="spacing" textLength="135.1396" x="165.43" y="290.5951">SolicitudRepository</text></g><!--entity EmpleadoRepo--><g class="entity" data-qualified-name="gestionarSolicitudAusencia...EmpleadoRepo" data-source-line="13" id="ent0007"><rect fill="#F2AC4E" height="36.2969" rx="2.5" ry="2.5" style="stroke:#181818;stroke-width:0.5;" width="164.9766" x="613.51" y="267.6"/><text fill="#000000" font-family="Arial" font-size="14" lengthAdjust="spacing" textLength="144.9766" x="623.51" y="290.5951">EmpleadoRepository</text></g><!--entity Notificacion--><g class="entity" data-qualified-name="gestionarSolicitudAusencia...Notificacion" data-source-line="14" id="ent0008"><rect fill="#F2AC4E" height="36.2969" rx="2.5" ry="2.5" style="stroke:#181818;stroke-width:0.5;" width="154.2783" x="914.86" y="267.6"/><text fill="#000000" font-family="Arial" font-size="14" lengthAdjust="spacing" textLength="134.2783" x="924.86" y="290.5951">NotificacionService</text></g><!--entity Solicitud--><g class="entity" data-qualified-name="gestionarSolicitudAusencia...Solicitud" data-source-line="15" id="ent0009"><rect fill="#F2AC4E" height="36.2969" rx="2.5" ry="2.5" style="stroke:#181818;stroke-width:0.5;" width="143.4639" x="161.27" y="364.89"/><text fill="#000000" font-family="Arial" font-size="14" lengthAdjust="spacing" textLength="123.4639" x="171.27" y="387.8851">SolicitudAusencia</text></g><!--entity Empleado--><g class="entity" data-qualified-name="gestionarSolicitudAusencia...Empleado" data-source-line="16" id="ent0010"><rect fill="#F2AC4E" height="36.2969" rx="2.5" ry="2.5" style="stroke:#181818;stroke-width:0.5;" width="89.9043" x="651.05" y="364.89"/><text fill="#000000" font-family="Arial" font-size="14" lengthAdjust="spacing" textLength="69.9043" x="661.05" y="387.8851">Empleado</text></g><!--entity Bandeja--><g class="entity" data-qualified-name="Bandeja" data-source-line="6" id="ent0001"><rect fill="#CDEBA5" height="36.2969" rx="2.5" ry="2.5" style="stroke:#181818;stroke-width:0.5;" width="254.7666" x="1279.62" y="154.3"/><text fill="#000000" font-family="Arial" font-size="14" lengthAdjust="spacing" textLength="234.7666" x="1289.62" y="177.2951">:BANDEJA_SOLICITUDES_ABIERTA</text></g><!--entity Menu--><g class="entity" data-qualified-name="Menu" data-source-line="7" id="ent0002"><rect fill="#CDEBA5" height="36.2969" rx="2.5" ry="2.5" style="stroke:#181818;stroke-width:0.5;" width="176.7822" x="1233.61" y="41"/><text fill="#000000" font-family="Arial" font-size="14" lengthAdjust="spacing" textLength="156.7822" x="1243.61" y="63.9951">:SISTEMA_DISPONIBLE</text></g><!--link Bandeja to View--><g class="link" data-entity-1="ent0001" data-entity-2="ent0004" data-link-type="dependency" data-source-line="19" id="lnk11"><path d="M1329.25,153.82 C1270.17,140.43 1199,124.3 1199,124.3 C1199,124.3 1163,107.3 1163,107.3 C1163,107.3 1107.6095,92.4646 1057.6195,79.0646" fill="none" id="Bandeja-to-View" style="stroke:#181818;stroke-width:1;"/><polygon fill="#181818" points="1052.79,77.77,1060.4475,83.9638,1057.6195,79.0646,1062.5188,76.2366,1052.79,77.77" style="stroke:#181818;stroke-width:1;stroke-linejoin:miter;stroke-miterlimit:10;"/><text fill="#000000" font-family="Arial" font-size="13" lengthAdjust="spacing" textLength="186.0244" x="1200" y="120.3669">gestionarSolicitudAusencia()</text></g><!--link View to Bandeja--><g class="link" data-entity-1="ent0004" data-entity-2="ent0001" data-link-type="dependency" data-source-line="34" id="lnk20"><path d="M1080.7,71.09 C1200.05,85.01 1391,107.3 1391,107.3 C1391,107.3 1396.6791,130.0788 1401.4191,149.0688" fill="none" id="View-to-Bandeja" style="stroke:#181818;stroke-width:1;stroke-dasharray:7,7;"/><polygon fill="#181818" points="1402.63,153.92,1404.3314,144.2192,1401.4191,149.0688,1396.5695,146.1566,1402.63,153.92" style="stroke:#181818;stroke-width:1;stroke-linejoin:miter;stroke-miterlimit:10;"/><text fill="#000000" font-family="Arial" font-size="13" lengthAdjust="spacing" textLength="125.9248" x="1395.87" y="120.3669">completarGestion()</text></g><!--link View to Controller--><g class="link" data-entity-1="ent0004" data-entity-2="ent0005" data-link-type="dependency" data-source-line="21" id="lnk12"><path d="M893.4,70.97 C772.94,84.89 579,107.3 579,107.3 C579,107.3 579,124.3 579,124.3 C579,124.3 606.8002,138.2493 633.5302,151.6493" fill="none" id="View-to-Controller" style="stroke:#181818;stroke-width:1;"/><polygon fill="#181818" points="638,153.89,631.747,146.2808,633.5302,151.6493,628.1618,153.4325,638,153.89" style="stroke:#181818;stroke-width:1;stroke-linejoin:miter;stroke-miterlimit:10;"/><text fill="#000000" font-family="Arial" font-size="13" lengthAdjust="spacing" textLength="246.6318" x="580" y="120.3669">cargarSolicitudesPendientes(id_actor)</text></g><!--link View to Controller--><g class="link" data-entity-1="ent0004" data-entity-2="ent0005" data-link-type="dependency" data-source-line="29" id="lnk17"><path d="M942.32,77.71 C908.2,91.11 867,107.3 867,107.3 C867,107.3 831,124.3 831,124.3 C831,124.3 781.5514,139.061 736.6214,152.461" fill="none" id="View-to-Controller-1" style="stroke:#181818;stroke-width:1;"/><polygon fill="#181818" points="731.83,153.89,741.5978,155.1509,736.6214,152.461,739.3114,147.4846,731.83,153.89" style="stroke:#181818;stroke-width:1;stroke-linejoin:miter;stroke-miterlimit:10;"/><text fill="#000000" font-family="Arial" font-size="13" lengthAdjust="spacing" textLength="290.6719" x="868" y="120.3669">resolverSolicitud(id_solicitud, decision, nota)</text></g><!--link Controller to SolicitudRepo--><g class="link" data-entity-1="ent0005" data-entity-2="ent0006" data-link-type="dependency" data-source-line="23" id="lnk13"><path d="M596.48,179.28 C430.86,191.89 54,220.6 54,220.6 C54,220.6 54,237.6 54,237.6 C54,237.6 110.4149,252.4566 161.2549,265.8466" fill="none" id="Controller-to-SolicitudRepo" style="stroke:#181818;stroke-width:1;"/><polygon fill="#181818" points="166.09,267.12,158.4056,260.9597,161.2549,265.8466,156.368,268.6959,166.09,267.12" style="stroke:#181818;stroke-width:1;stroke-linejoin:miter;stroke-miterlimit:10;"/><text fill="#000000" font-family="Arial" font-size="13" lengthAdjust="spacing" textLength="267.7378" x="55" y="233.6669">obtenerPendientes(id_entity) : Solicitud[]</text></g><!--link Controller to SolicitudRepo--><g class="link" data-entity-1="ent0005" data-entity-2="ent0006" data-link-type="dependency" data-source-line="31" id="lnk18"><path d="M596.58,185.96 C511.26,199.93 385,220.6 385,220.6 C385,220.6 324.1464,246.2755 279.1364,265.2755" fill="none" id="Controller-to-SolicitudRepo-1" style="stroke:#181818;stroke-width:1;"/><polygon fill="#181818" points="274.53,267.22,284.3771,267.405,279.1364,265.2755,281.2659,260.0348,274.53,267.22" style="stroke:#181818;stroke-width:1;stroke-linejoin:miter;stroke-miterlimit:10;"/><text fill="#000000" font-family="Arial" font-size="13" lengthAdjust="spacing" textLength="288.2852" x="386" y="233.6669">actualizarEstado(id, estado, nota) : Solicitud</text></g><!--link Controller to EmpleadoRepo--><g class="link" data-entity-1="ent0005" data-entity-2="ent0007" data-link-type="dependency" data-source-line="24" id="lnk14"><path d="M676.59,190.84 C680.89,211.62 687.0279,241.3135 691.3479,262.2135" fill="none" id="Controller-to-EmpleadoRepo" style="stroke:#181818;stroke-width:1;"/><polygon fill="#181818" points="692.36,267.11,694.4554,257.4866,691.3479,262.2135,686.621,259.106,692.36,267.11" style="stroke:#181818;stroke-width:1;stroke-linejoin:miter;stroke-miterlimit:10;"/><text fill="#000000" font-family="Arial" font-size="13" lengthAdjust="spacing" textLength="254.8647" x="686.88" y="233.6669">obtenerPorId(id_empleado) : Empleado</text></g><!--link SolicitudRepo to Solicitud--><g class="link" data-entity-1="ent0006" data-entity-2="ent0009" data-link-type="association" data-source-line="26" id="lnk15"><path d="M233,304.22 C233,321.42 233,347.52 233,364.67" fill="none" id="SolicitudRepo-Solicitud" style="stroke:#181818;stroke-width:1;"/></g><!--link EmpleadoRepo to Empleado--><g class="link" data-entity-1="ent0007" data-entity-2="ent0010" data-link-type="association" data-source-line="27" id="lnk16"><path d="M696,304.22 C696,321.42 696,347.52 696,364.67" fill="none" id="EmpleadoRepo-Empleado" style="stroke:#181818;stroke-width:1;"/></g><!--link Controller to Notificacion--><g class="link" data-entity-1="ent0005" data-entity-2="ent0008" data-link-type="dependency" data-source-line="32" id="lnk19"><path d="M749.42,186.46 C831.42,200.41 950,220.6 950,220.6 C950,220.6 965.3527,244.0359 977.7827,263.0359" fill="none" id="Controller-to-Notificacion" style="stroke:#181818;stroke-width:1;"/><polygon fill="#181818" points="980.52,267.22,978.9402,257.4987,977.7827,263.0359,972.2455,261.8784,980.52,267.22" style="stroke:#181818;stroke-width:1;stroke-linejoin:miter;stroke-miterlimit:10;"/><text fill="#000000" font-family="Arial" font-size="13" lengthAdjust="spacing" textLength="208.7427" x="961.15" y="233.6669">enviarNotificacion(destino, tipo)</text></g><?plantuml-src XPHHRvim58NV_Ikkw4igDNserchbeH99oCJKfbN9zZ9DqGs-ZRmwDh9DfcpQVvz90fWqQdaoN7_d-fu3s5UXIZIuXYKMhokZAyN7Mce3PzFTnMoxWzCBLj9DjN8pN1CaHg0Cwb8eSjkIeDHoMzymPgXmg5QIu6myIKV9DKJnA9bDqg_98d-ypyRP_DiapHV9A4kVvqa4Q664YjClFCdcMJvF7vB59CkV7cVPw3xT8G-aAiPAFm6k2A8LMIUqGfDhAGhXAfvKbbGXS70UmLy646ZVNDscqrk83crRXEntGRyZWBf1lUnZo-ibl_aCKQCyzguOBIMP6e4zrZtimzEhPFmfXQXjzaobji9fiurQk5SypQVhKX9o_GQl-R1u6fzf9rv4WOKtAoUp4GLrxSFY1wTlF6YQzqx__ibR1E3joTa_nWwnmD0CxtOnnF1Ul8pLUs38_UxE_HWADAi08Fj4YWjIZkn0y0KMtZmFTmWClK8lWXZqqf4YqqVzGhZjESJTxXy_ZuN2B3eTRJA-apXKQv5sTjPhxbK2IqEvkj91--cFXZTajTnGDtxTr3Ot5_x3BeJrZbw0qWu_jC6RLQ4KVz2arlckNkq2QBSyA8Hc78k5xrKCf3O2JVXimEjubPToejHDe9UNTysFmOUfwtaTcY_xDy77_Xy0?></g></svg>