<svg xmlns="http://www.w3.org/2000/svg" xmlns:xlink="http://www.w3.org/1999/xlink" contentStyleType="text/css" data-diagram-type="DESCRIPTION" height="467px" preserveAspectRatio="none" style="width:1367px;height:467px;;background:#FFFFFF" version="1.1" viewBox="0 0 1367 467" width="1367px" zoomAndPan="magnify"><?plantuml 1.2026.4beta2?><defs/><g><!--cluster cederPlaza()--><g class="cluster" data-qualified-name="cederPlaza.." data-source-line="7" id="ent0005"><path d="M293.63,6 L393.7443,6 A3.75,3.75 0 0 1 396.2443,8.5 L403.2443,28.2969 L959.63,28.2969 A2.5,2.5 0 0 1 962.13,30.7969 L962.13,449.69 A2.5,2.5 0 0 1 959.63,452.19 L293.63,452.19 A2.5,2.5 0 0 1 291.13,449.69 L291.13,8.5 A2.5,2.5 0 0 1 293.63,6" fill="none" style="stroke:#000000;stroke-width:1.5;"/><line style="stroke:#000000;stroke-width:1.5;" x1="291.13" x2="403.2443" y1="28.2969" y2="28.2969"/><text fill="#000000" font-family="sans-serif" font-size="14" font-weight="700" lengthAdjust="spacing" textLength="99.1143" x="295.13" y="20.9951">cederPlaza()</text></g><!--entity View--><g class="entity" data-qualified-name="cederPlaza...View" data-source-line="8" id="ent0006"><rect fill="#629EF9" height="36.2969" rx="2.5" ry="2.5" style="stroke:#181818;stroke-width:0.5;" width="100.541" x="332.86" y="41"/><text fill="#000000" font-family="sans-serif" font-size="14" lengthAdjust="spacing" textLength="80.541" x="342.86" y="63.9951">CesionView</text></g><!--entity Controller--><g class="entity" data-qualified-name="cederPlaza...Controller" data-source-line="9" id="ent0007"><rect fill="#B5BD68" height="36.2969" rx="2.5" ry="2.5" style="stroke:#181818;stroke-width:0.5;" width="136.1836" x="598.04" y="189.3"/><text fill="#000000" font-family="sans-serif" font-size="14" lengthAdjust="spacing" textLength="116.1836" x="608.04" y="212.2951">CesionController</text></g><!--entity CesionRepo--><g class="entity" data-qualified-name="cederPlaza...CesionRepo" data-source-line="10" id="ent0008"><rect fill="#F2AC4E" height="36.2969" rx="2.5" ry="2.5" style="stroke:#181818;stroke-width:0.5;" width="142.083" x="307.09" y="302.6"/><text fill="#000000" font-family="sans-serif" font-size="14" lengthAdjust="spacing" textLength="122.083" x="317.09" y="325.5951">CesionRepository</text></g><!--entity PlazaRepo--><g class="entity" data-qualified-name="cederPlaza...PlazaRepo" data-source-line="11" id="ent0009"><rect fill="#F2AC4E" height="36.2969" rx="2.5" ry="2.5" style="stroke:#181818;stroke-width:0.5;" width="131.9111" x="600.17" y="302.6"/><text fill="#000000" font-family="sans-serif" font-size="14" lengthAdjust="spacing" textLength="111.9111" x="610.17" y="325.5951">PlazaRepository</text></g><!--entity Cesion--><g class="entity" data-qualified-name="cederPlaza...Cesion" data-source-line="12" id="ent0010"><rect fill="#F2AC4E" height="36.2969" rx="2.5" ry="2.5" style="stroke:#181818;stroke-width:0.5;" width="67.0107" x="344.62" y="399.89"/><text fill="#000000" font-family="sans-serif" font-size="14" lengthAdjust="spacing" textLength="47.0107" x="354.62" y="422.8851">Cesion</text></g><!--entity Plaza--><g class="entity" data-qualified-name="cederPlaza...Plaza" data-source-line="13" id="ent0011"><rect fill="#F2AC4E" height="36.2969" rx="2.5" ry="2.5" style="stroke:#181818;stroke-width:0.5;" width="56.8389" x="637.71" y="399.89"/><text fill="#000000" font-family="sans-serif" font-size="14" lengthAdjust="spacing" textLength="36.8389" x="647.71" y="422.8851">Plaza</text></g><!--entity Calendario--><g class="entity" data-qualified-name="Calendario" data-source-line="3" id="ent0002"><rect fill="#CDEBA5" height="36.2969" rx="2.5" ry="2.5" style="stroke:#181818;stroke-width:0.5;" width="254.2539" x="7" y="189.3"/><text fill="#000000" font-family="sans-serif" font-size="14" lengthAdjust="spacing" textLength="234.2539" x="17" y="212.2951">:CALENDARIO_PARKING_ABIERTO</text></g><!--entity Menu--><g class="entity" data-qualified-name="Menu" data-source-line="4" id="ent0003"><rect fill="#CDEBA5" height="36.2969" rx="2.5" ry="2.5" style="stroke:#181818;stroke-width:0.5;" width="176.7822" x="1176.74" y="41"/><text fill="#000000" font-family="sans-serif" font-size="14" lengthAdjust="spacing" textLength="156.7822" x="1186.74" y="63.9951">:SISTEMA_DISPONIBLE</text></g><!--entity Graph--><g class="entity" data-qualified-name="Graph" data-source-line="5" id="ent0004"><rect fill="#CDEBA5" height="36.2969" rx="2.5" ry="2.5" style="stroke:#181818;stroke-width:0.5;" width="164.0811" x="978.09" y="41"/><text fill="#000000" font-family="sans-serif" font-size="14" lengthAdjust="spacing" textLength="144.0811" x="988.09" y="63.9951">:MICROSOFT_GRAPH</text></g><!--link Calendario to View--><g class="link" data-entity-1="ent0002" data-entity-2="ent0006" data-link-type="dependency" data-source-line="16" id="lnk12"><path d="M127.42,188.89 C122.31,175.49 116.13,159.3 116.13,159.3 C116.13,159.3 116.13,107.3 116.13,107.3 C116.13,107.3 249.2814,83.7835 326.6814,70.1135" fill="none" id="Calendario-to-View" style="stroke:#181818;stroke-width:1;"/><polygon fill="#181818" points="332.59,69.07,323.0315,66.6963,327.6662,69.9396,324.4229,74.5743,332.59,69.07" style="stroke:#181818;stroke-width:1;"/><text fill="#000000" font-family="sans-serif" font-size="13" lengthAdjust="spacing" textLength="81.0913" x="117.13" y="137.8669">cederPlaza()</text></g><!--link View to Calendario--><g class="link" data-entity-1="ent0006" data-entity-2="ent0002" data-link-type="dependency" data-source-line="33" id="lnk20"><path d="M332.36,76.77 C290.9,90.35 239.13,107.3 239.13,107.3 C239.13,107.3 203.13,159.3 203.13,159.3 C203.13,159.3 184.3947,172.1061 164.7747,185.5061" fill="none" id="View-to-Calendario" style="stroke:#181818;stroke-width:1;stroke-dasharray:7,7;"/><polygon fill="#181818" points="159.82,188.89,169.508,187.1172,163.9489,186.0701,164.9961,180.511,159.82,188.89" style="stroke:#181818;stroke-width:1;"/><text fill="#000000" font-family="sans-serif" font-size="13" lengthAdjust="spacing" textLength="125.9248" x="240.13" y="137.8669">completarGestion()</text></g><!--link View to Controller--><g class="link" data-entity-1="ent0006" data-entity-2="ent0007" data-link-type="dependency" data-source-line="18" id="lnk13"><path d="M387.13,77.42 C393.72,105.83 406.13,159.3 406.13,159.3 C406.13,159.3 514.8763,179.0195 591.9163,192.9895" fill="none" id="View-to-Controller" style="stroke:#181818;stroke-width:1;"/><polygon fill="#181818" points="597.82,194.06,589.6781,188.5184,592.9002,193.1679,588.2507,196.39,597.82,194.06" style="stroke:#181818;stroke-width:1;"/><text fill="#000000" font-family="sans-serif" font-size="13" lengthAdjust="spacing" textLength="223.1201" x="407.13" y="137.8669">cargarPlazaAsignada(id_manager)</text></g><!--link View to Controller--><g class="link" data-entity-1="ent0006" data-entity-2="ent0007" data-link-type="dependency" data-source-line="24" id="lnk16"><path d="M433.82,69.64 C507.41,83.4 635.13,107.3 635.13,107.3 C635.13,107.3 650.06,155.0432 658.94,183.4532" fill="none" id="View-to-Controller-1" style="stroke:#181818;stroke-width:1;"/><polygon fill="#181818" points="660.73,189.18,661.8629,179.3965,659.2383,184.4077,654.2272,181.7832,660.73,189.18" style="stroke:#181818;stroke-width:1;"/><text fill="#000000" font-family="sans-serif" font-size="13" lengthAdjust="spacing" textLength="263.0024" x="651.13" y="137.8669">registrarCesion(fecha, id_plaza) : Cesion</text></g><!--link Controller to PlazaRepo--><g class="link" data-entity-1="ent0007" data-entity-2="ent0009" data-link-type="dependency" data-source-line="20" id="lnk14"><path d="M666.13,225.84 C666.13,246.62 666.13,275.21 666.13,296.11" fill="none" id="Controller-to-PlazaRepo" style="stroke:#181818;stroke-width:1;"/><polygon fill="#181818" points="666.13,302.11,670.13,293.11,666.13,297.11,662.13,293.11,666.13,302.11" style="stroke:#181818;stroke-width:1;"/><text fill="#000000" font-family="sans-serif" font-size="13" lengthAdjust="spacing" textLength="278.8335" x="667.13" y="268.6669">obtenerPlazaAsignada(id_manager) : Plaza</text></g><!--link PlazaRepo to Plaza--><g class="link" data-entity-1="ent0009" data-entity-2="ent0011" data-link-type="association" data-source-line="22" id="lnk15"><path d="M666.13,339.22 C666.13,356.42 666.13,382.52 666.13,399.67" fill="none" id="PlazaRepo-Plaza" style="stroke:#181818;stroke-width:1;"/></g><!--link Controller to CesionRepo--><g class="link" data-entity-1="ent0007" data-entity-2="ent0008" data-link-type="dependency" data-source-line="26" id="lnk17"><path d="M597.67,219.5 C511.36,233.44 374.13,255.6 374.13,255.6 C374.13,255.6 374.13,272.6 374.13,272.6 C374.13,272.6 374.9918,282.8016 376.1318,296.2116" fill="none" id="Controller-to-CesionRepo" style="stroke:#181818;stroke-width:1;"/><polygon fill="#181818" points="376.64,302.19,379.8633,292.8835,376.2165,297.208,371.892,293.5612,376.64,302.19" style="stroke:#181818;stroke-width:1;"/><text fill="#000000" font-family="sans-serif" font-size="13" lengthAdjust="spacing" textLength="282.4771" x="375.13" y="268.6669">crear(fecha, id_plaza, id_manager) : Cesion</text></g><!--link CesionRepo to Cesion--><g class="link" data-entity-1="ent0008" data-entity-2="ent0010" data-link-type="association" data-source-line="28" id="lnk18"><path d="M378.13,339.22 C378.13,356.42 378.13,382.52 378.13,399.67" fill="none" id="CesionRepo-Cesion" style="stroke:#181818;stroke-width:1;"/></g><!--link Graph to Controller--><g class="link" data-entity-1="ent0004" data-entity-2="ent0007" data-link-type="dependency" data-source-line="30" id="lnk19"><path d="M1035.95,77.65 C996.62,106.11 923.13,159.3 923.13,159.3 C923.13,159.3 816.6916,178.8278 740.5616,192.7878" fill="none" id="Graph-to-Controller" style="stroke:#181818;stroke-width:1;stroke-dasharray:7,7;"/><polygon fill="#181818" points="734.66,193.87,744.2339,196.1811,739.578,192.9682,742.7909,188.3123,734.66,193.87" style="stroke:#181818;stroke-width:1;"/><text fill="#000000" font-family="sans-serif" font-size="13" lengthAdjust="spacing" textLength="300.4854" x="992.13" y="120.3669">&#171;colabora&#187; detectarFueraOficina(id_manager)</text><path d="M1067.682,129.4328 L1067.682,154.4328 L1216.682,154.4328 L1216.682,139.4328 L1206.682,129.4328 L1067.682,129.4328" fill="#FEFFDD" style="stroke:#181818;stroke-width:0.5;"/><path d="M1206.682,129.4328 L1206.682,139.4328 L1216.682,139.4328 L1206.682,129.4328" fill="#FEFFDD" style="stroke:#181818;stroke-width:0.5;"/><text fill="#000000" font-family="sans-serif" font-size="13" lengthAdjust="spacing" textLength="128.3813" x="1073.682" y="146.4997">Microsoft Graph API</text></g><?plantuml-src VPF1Rfj048Rl-nGZUd6aEeUeYHeKMS8OkwYnGTZA5OrXJ5R6ksZPg7AhldjtiGt6ek44i_FzyyyCM--vg53X0KekI1yhWagMH_l1cA9CeoXAWY_-B9XwZ-2ullSQh6PU4aPfx2K_mzKYzQPXa6mY1x067qiIEIek1-brkDu4Io-TXUiuMeNJrw2XbYG-1lENePz4wsY-IHU95_zeaXSAgtV6AipsM10u6UMauX9_u-ZEWJyCu4hfwU4vc3-3urFDfNZZzCk1tcC4RRHFRH-t-TFt2-LBePKiIrBE5TL5--pymVE_1HSseKhMN4jrxB7jsJ3RT3E0MhOz-wpiJPEzif-K7C3QakmlOzrsOQp6asPoBbmlW34RWt5kJhi9cHnK1PwIl9eN0dCSyJmze30xL0Rhac5isBPB5-HMaw3_i-2U3R8MCXANsCdEZHj51Q-rGdMQo6X7sJj-1IDQMSfAdcTrwwlRdEb94QfRjdcxijRgjA0rTuas_pBSt_VjlRnaiiIjL3YPG4xQRalDFqXXjECP5_tH2Qa9fB0NUE_2acTArdAdJ_S4l3Wy3w6fqYxGs9U7gYIZlA1QsodS_GC0?></g></svg>