<svg xmlns="http://www.w3.org/2000/svg" xmlns:xlink="http://www.w3.org/1999/xlink" contentStyleType="text/css" data-diagram-type="STATE" height="1040px" preserveAspectRatio="none" style="width:1183px;height:1040px;background:#FFFFFF;" version="1.1" viewBox="0 0 1183 1040" width="1183px" zoomAndPan="magnify"><?plantuml 1.2026.4beta2?><defs/><g><g class="entity" data-qualified-name="SinAuth" id="ent0002"><rect fill="#F1F1F1" height="50" rx="12.5" ry="12.5" style="stroke:#181818;stroke-width:1.5;" width="110.8936" x="87" y="607"/><line style="stroke:#181818;stroke-width:1.5;" x1="87" x2="197.8936" y1="628.6406" y2="628.6406"/><text fill="#000000" font-family="Arial" font-size="10" lengthAdjust="spacing" textLength="90.8936" x="97" y="621.2822">SESION_CERRADA</text></g><g class="entity" data-qualified-name="Menu" id="ent0003"><rect fill="#F1F1F1" height="50" rx="12.5" ry="12.5" style="stroke:#181818;stroke-width:1.5;" width="128.6182" x="330.89" y="607"/><line style="stroke:#181818;stroke-width:1.5;" x1="330.89" x2="459.5082" y1="628.6406" y2="628.6406"/><text fill="#000000" font-family="Arial" font-size="10" lengthAdjust="spacing" textLength="108.6182" x="340.89" y="621.2822">SISTEMA_DISPONIBLE</text></g><g class="entity" data-qualified-name="CalParking" id="ent0004"><rect fill="#F1F1F1" height="50" rx="12.5" ry="12.5" style="stroke:#181818;stroke-width:1.5;" width="183.9551" x="648.82" y="187"/><line style="stroke:#181818;stroke-width:1.5;" x1="648.82" x2="832.7751" y1="208.6406" y2="208.6406"/><text fill="#000000" font-family="Arial" font-size="10" lengthAdjust="spacing" textLength="163.9551" x="658.82" y="201.2822">CALENDARIO_PARKING_ABIERTO</text></g><g class="entity" data-qualified-name="EditPlaza" id="ent0005"><rect fill="#F1F1F1" height="50" rx="12.5" ry="12.5" style="stroke:#181818;stroke-width:1.5;" width="100" x="1057.92" y="7"/><line style="stroke:#181818;stroke-width:1.5;" x1="1057.92" x2="1157.92" y1="28.6406" y2="28.6406"/><text fill="#000000" font-family="Arial" font-size="10" lengthAdjust="spacing" textLength="80" x="1067.92" y="21.2822">PLAZA_ABIERTA</text></g><g class="entity" data-qualified-name="EditCesion" id="ent0006"><rect fill="#F1F1F1" height="50" rx="12.5" ry="12.5" style="stroke:#181818;stroke-width:1.5;" width="105.8154" x="1055.01" y="116"/><line style="stroke:#181818;stroke-width:1.5;" x1="1055.01" x2="1160.8254" y1="137.6406" y2="137.6406"/><text fill="#000000" font-family="Arial" font-size="10" lengthAdjust="spacing" textLength="85.8154" x="1065.01" y="130.2822">CESION_ABIERTA</text></g><g class="entity" data-qualified-name="EditVisitante" id="ent0007"><rect fill="#F1F1F1" height="50" rx="12.5" ry="12.5" style="stroke:#181818;stroke-width:1.5;" width="120.8398" x="1047.5" y="223"/><line style="stroke:#181818;stroke-width:1.5;" x1="1047.5" x2="1168.3398" y1="244.6406" y2="244.6406"/><text fill="#000000" font-family="Arial" font-size="10" lengthAdjust="spacing" textLength="100.8398" x="1057.5" y="237.2822">VISITANTE_ABIERTO</text></g><g class="entity" data-qualified-name="CalOficinas" id="ent0008"><rect fill="#F1F1F1" height="50" rx="12.5" ry="12.5" style="stroke:#181818;stroke-width:1.5;" width="186.5723" x="647.51" y="331"/><line style="stroke:#181818;stroke-width:1.5;" x1="647.51" x2="834.0823" y1="352.6406" y2="352.6406"/><text fill="#000000" font-family="Arial" font-size="10" lengthAdjust="spacing" textLength="166.5723" x="657.51" y="345.2822">CALENDARIO_OFICINAS_ABIERTO</text></g><g class="entity" data-qualified-name="EditPuesto" id="ent0009"><rect fill="#F1F1F1" height="50" rx="12.5" ry="12.5" style="stroke:#181818;stroke-width:1.5;" width="108.8916" x="1053.47" y="330"/><line style="stroke:#181818;stroke-width:1.5;" x1="1053.47" x2="1162.3616" y1="351.6406" y2="351.6406"/><text fill="#000000" font-family="Arial" font-size="10" lengthAdjust="spacing" textLength="88.8916" x="1063.47" y="344.2822">PUESTO_ABIERTO</text></g><g class="entity" data-qualified-name="Bandeja" id="ent0010"><rect fill="#F1F1F1" height="50" rx="12.5" ry="12.5" style="stroke:#181818;stroke-width:1.5;" width="184.3213" x="648.64" y="463"/><line style="stroke:#181818;stroke-width:1.5;" x1="648.64" x2="832.9613" y1="484.6406" y2="484.6406"/><text fill="#000000" font-family="Arial" font-size="10" lengthAdjust="spacing" textLength="164.3213" x="658.64" y="477.2822">BANDEJA_SOLICITUDES_ABIERTA</text></g><g class="entity" data-qualified-name="EditSolicitud" id="ent0011"><rect fill="#F1F1F1" height="50" rx="12.5" ry="12.5" style="stroke:#181818;stroke-width:1.5;" width="121.665" x="1047.08" y="484"/><line style="stroke:#181818;stroke-width:1.5;" x1="1047.08" x2="1168.745" y1="505.6406" y2="505.6406"/><text fill="#000000" font-family="Arial" font-size="10" lengthAdjust="spacing" textLength="101.665" x="1057.08" y="498.2822">SOLICITUD_ABIERTA</text></g><g class="entity" data-qualified-name="Tablon" id="ent0012"><rect fill="#F1F1F1" height="50" rx="12.5" ry="12.5" style="stroke:#181818;stroke-width:1.5;" width="109.6289" x="685.98" y="590"/><line style="stroke:#181818;stroke-width:1.5;" x1="685.98" x2="795.6089" y1="611.6406" y2="611.6406"/><text fill="#000000" font-family="Arial" font-size="10" lengthAdjust="spacing" textLength="89.6289" x="695.98" y="604.2822">TABLON_ABIERTO</text></g><g class="entity" data-qualified-name="EditAnuncio" id="ent0013"><rect fill="#F1F1F1" height="50" rx="12.5" ry="12.5" style="stroke:#181818;stroke-width:1.5;" width="115.8203" x="1050.01" y="643"/><line style="stroke:#181818;stroke-width:1.5;" x1="1050.01" x2="1165.8303" y1="664.6406" y2="664.6406"/><text fill="#000000" font-family="Arial" font-size="10" lengthAdjust="spacing" textLength="95.8203" x="1060.01" y="657.2822">ANUNCIO_ABIERTO</text></g><g class="entity" data-qualified-name="Directorio" id="ent0014"><rect fill="#F1F1F1" height="50" rx="12.5" ry="12.5" style="stroke:#181818;stroke-width:1.5;" width="131.543" x="675.03" y="681"/><line style="stroke:#181818;stroke-width:1.5;" x1="675.03" x2="806.573" y1="702.6406" y2="702.6406"/><text fill="#000000" font-family="Arial" font-size="10" lengthAdjust="spacing" textLength="111.543" x="685.03" y="695.2822">DIRECTORIO_ABIERTO</text></g><g class="entity" data-qualified-name="Ajustes" id="ent0015"><rect fill="#F1F1F1" height="50" rx="12.5" ry="12.5" style="stroke:#181818;stroke-width:1.5;" width="111.1279" x="685.23" y="779"/><line style="stroke:#181818;stroke-width:1.5;" x1="685.23" x2="796.3579" y1="800.6406" y2="800.6406"/><text fill="#000000" font-family="Arial" font-size="10" lengthAdjust="spacing" textLength="91.1279" x="695.23" y="793.2822">AJUSTES_ABIERTO</text></g><g class="entity" data-qualified-name="EditPerfil" id="ent0016"><rect fill="#F1F1F1" height="50" rx="12.5" ry="12.5" style="stroke:#181818;stroke-width:1.5;" width="102.4658" x="1056.68" y="779"/><line style="stroke:#181818;stroke-width:1.5;" x1="1056.68" x2="1159.1458" y1="800.6406" y2="800.6406"/><text fill="#000000" font-family="Arial" font-size="10" lengthAdjust="spacing" textLength="82.4658" x="1066.68" y="793.2822">PERFIL_ABIERTO</text></g><g class="entity" data-qualified-name="Admin" id="ent0017"><rect fill="#F1F1F1" height="50" rx="12.5" ry="12.5" style="stroke:#181818;stroke-width:1.5;" width="155.9424" x="662.83" y="881"/><line style="stroke:#181818;stroke-width:1.5;" x1="662.83" x2="818.7724" y1="902.6406" y2="902.6406"/><text fill="#000000" font-family="Arial" font-size="10" lengthAdjust="spacing" textLength="135.9424" x="672.83" y="895.2822">ADMINISTRACION_ABIERTA</text></g><g class="entity" data-qualified-name="Panel" id="ent0018"><rect fill="#F1F1F1" height="50" rx="12.5" ry="12.5" style="stroke:#181818;stroke-width:1.5;" width="165.0488" x="658.27" y="976"/><line style="stroke:#181818;stroke-width:1.5;" x1="658.27" x2="823.3188" y1="997.6406" y2="997.6406"/><text fill="#000000" font-family="Arial" font-size="10" lengthAdjust="spacing" textLength="145.0488" x="668.27" y="990.2822">PANEL_ANALITICAS_ABIERTO</text></g><g class="start_entity" data-qualified-name=".start." data-source-line="28" id="ent0002"><ellipse cx="16" cy="632" fill="#222222" rx="10" ry="10" style="stroke:#222222;stroke-width:1;"/></g><!--link *start* to SinAuth--><g class="link" data-entity-1="ent0002" data-entity-2="ent0002" data-link-type="dependency" data-source-line="28" id="lnk3"><path d="M26.35,632 C39.3,632 57.69,632 80.69,632" fill="none" id="*start*-to-SinAuth" style="stroke:#444444;stroke-width:1.2;"/><polygon fill="#444444" points="86.69,632,77.69,628,81.69,632,77.69,636,86.69,632" style="stroke:#444444;stroke-width:1.2;"/></g><!--link SinAuth to Menu--><g class="link" data-entity-1="ent0002" data-entity-2="ent0003" data-link-type="dependency" data-source-line="30" id="lnk4"><path d="M198.17,632 C237.22,632 283.85,632 324.75,632" fill="none" id="SinAuth-to-Menu" style="stroke:#444444;stroke-width:1.2;"/><polygon fill="#444444" points="330.75,632,321.75,628,325.75,632,321.75,636,330.75,632" style="stroke:#444444;stroke-width:1.2;"/><text fill="#000000" font-family="Arial" font-size="10" lengthAdjust="spacing" textLength="71.1572" x="228.89" y="629.2822">iniciarSesion()</text></g><!--link Menu to SinAuth--><g class="link" data-entity-1="ent0003" data-entity-2="ent0002" data-link-type="dependency" data-source-line="32" id="lnk5"><path d="M330.42,646.36 C314.02,650.05 300.89,653 300.89,653 C300.89,653 227.89,653 227.89,653 C227.89,653 220.3128,651.1176 204.1828,647.1076" fill="none" id="Menu-to-SinAuth" style="stroke:#444444;stroke-width:1.2;"/><polygon fill="#444444" points="198.36,645.66,206.1291,651.7132,203.2123,646.8663,208.0592,643.9495,198.36,645.66" style="stroke:#444444;stroke-width:1.2;"/><text fill="#000000" font-family="Arial" font-size="10" lengthAdjust="spacing" textLength="70.8594" x="229.39" y="650.2822">cerrarSesion()</text></g><!--link Menu to CalParking--><g class="link" data-entity-1="ent0003" data-entity-2="ent0004" data-link-type="dependency" data-source-line="33" id="lnk6"><path d="M402.47,606.61 C423.39,521.86 489.51,254 489.51,254 C489.51,254 570.9628,240.3331 642.4628,228.3331" fill="none" id="Menu-to-CalParking" style="stroke:#444444;stroke-width:1.2;"/><polygon fill="#444444" points="648.38,227.34,638.8421,224.8848,643.449,228.1676,640.1662,232.7745,648.38,227.34" style="stroke:#444444;stroke-width:1.2;"/><text fill="#000000" font-family="Arial" font-size="10" lengthAdjust="spacing" textLength="122.666" x="492.51" y="230.2822">abrirCalendarioParking()</text></g><!--link CalParking to Menu--><g class="link" data-entity-1="ent0004" data-entity-2="ent0003" data-link-type="dependency" data-source-line="73" id="lnk35"><path d="M692.72,237.39 C620.22,276.5 489.51,347 489.51,347 C489.51,347 429.1872,531.2579 406.3472,601.0079" fill="none" id="CalParking-to-Menu" style="stroke:#444444;stroke-width:1.2;"/><polygon fill="#444444" points="404.48,606.71,411.0821,599.4017,406.036,601.9583,403.4794,596.9121,404.48,606.71" style="stroke:#444444;stroke-width:1.2;"/><text fill="#000000" font-family="Arial" font-size="10" lengthAdjust="spacing" textLength="96.8652" x="505.51" y="277.2822">completarGestion()</text></g><!--link Menu to CalOficinas--><g class="link" data-entity-1="ent0003" data-entity-2="ent0008" data-link-type="dependency" data-source-line="34" id="lnk7"><path d="M405.49,606.82 C429.09,542.82 489.51,379 489.51,379 C489.51,379 570.0352,371.5989 641.3352,365.0489" fill="none" id="Menu-to-CalOficinas" style="stroke:#444444;stroke-width:1.2;"/><polygon fill="#444444" points="647.31,364.5,637.9818,361.3401,642.331,364.9574,638.7137,369.3065,647.31,364.5" style="stroke:#444444;stroke-width:1.2;"/><text fill="#000000" font-family="Arial" font-size="10" lengthAdjust="spacing" textLength="125.2637" x="491.01" y="365.2822">abrirCalendarioOficinas()</text></g><!--link CalOficinas to Menu--><g class="link" data-entity-1="ent0008" data-entity-2="ent0003" data-link-type="dependency" data-source-line="74" id="lnk36"><path d="M680.8,381.46 C606.8,413.39 489.51,464 489.51,464 C489.51,464 439.1131,554.7346 413.0831,601.6046" fill="none" id="CalOficinas-to-Menu" style="stroke:#444444;stroke-width:1.2;"/><polygon fill="#444444" points="410.17,606.85,418.0366,600.924,412.5976,602.4789,411.0427,597.0399,410.17,606.85" style="stroke:#444444;stroke-width:1.2;"/><text fill="#000000" font-family="Arial" font-size="10" lengthAdjust="spacing" textLength="96.8652" x="505.51" y="407.2822">completarGestion()</text></g><!--link Menu to Bandeja--><g class="link" data-entity-1="ent0003" data-entity-2="ent0010" data-link-type="dependency" data-source-line="35" id="lnk8"><path d="M412.24,606.73 C438.92,564.7 489.51,485 489.51,485 C489.51,485 617.51,485 617.51,485 C617.51,485 624.6819,485.1708 642.3719,485.6108" fill="none" id="Menu-to-Bandeja" style="stroke:#444444;stroke-width:1.2;"/><polygon fill="#444444" points="648.37,485.76,639.4722,481.5375,643.3715,485.6357,639.2733,489.535,648.37,485.76" style="stroke:#444444;stroke-width:1.2;"/><text fill="#000000" font-family="Arial" font-size="10" lengthAdjust="spacing" textLength="126.2793" x="490.51" y="482.2822">abrirBandejaSolicitudes()</text></g><!--link Bandeja to Menu--><g class="link" data-entity-1="ent0010" data-entity-2="ent0003" data-link-type="dependency" data-source-line="75" id="lnk37"><path d="M661.98,513.5 C588.51,537.57 489.51,570 489.51,570 C489.51,570 465.1877,586.1599 439.4177,603.2799" fill="none" id="Bandeja-to-Menu" style="stroke:#444444;stroke-width:1.2;"/><polygon fill="#444444" points="434.42,606.6,444.1299,604.9516,438.5847,603.8332,439.7031,598.288,434.42,606.6" style="stroke:#444444;stroke-width:1.2;"/><text fill="#000000" font-family="Arial" font-size="10" lengthAdjust="spacing" textLength="96.8652" x="505.51" y="526.2822">completarGestion()</text></g><!--link Menu to Tablon--><g class="link" data-entity-1="ent0003" data-entity-2="ent0012" data-link-type="dependency" data-source-line="36" id="lnk9"><path d="M454.24,606.5 C473.21,598.16 489.51,591 489.51,591 C489.51,591 617.51,591 617.51,591 C617.51,591 647.1623,596.8144 679.9223,603.2444" fill="none" id="Menu-to-Tablon" style="stroke:#444444;stroke-width:1.2;"/><polygon fill="#444444" points="685.81,604.4,677.7489,598.7415,680.9036,603.437,676.2081,606.5917,685.81,604.4" style="stroke:#444444;stroke-width:1.2;"/><text fill="#000000" font-family="Arial" font-size="10" lengthAdjust="spacing" textLength="65.0977" x="521.01" y="588.2822">abrirTablon()</text></g><!--link Tablon to Menu--><g class="link" data-entity-1="ent0012" data-entity-2="ent0003" data-link-type="dependency" data-source-line="76" id="lnk38"><path d="M685.51,617.69 C624.18,620.72 530.4827,625.3535 465.6127,628.5635" fill="none" id="Tablon-to-Menu" style="stroke:#444444;stroke-width:1.2;"/><polygon fill="#444444" points="459.62,628.86,468.8067,632.4103,464.6139,628.6129,468.4113,624.4201,459.62,628.86" style="stroke:#444444;stroke-width:1.2;"/><text fill="#000000" font-family="Arial" font-size="10" lengthAdjust="spacing" textLength="96.8652" x="505.51" y="618.2822">completarGestion()</text></g><!--link Menu to Directorio--><g class="link" data-entity-1="ent0003" data-entity-2="ent0014" data-link-type="dependency" data-source-line="37" id="lnk10"><path d="M459.62,645.66 C520.8,658.83 607.1046,677.4163 668.8346,690.7163" fill="none" id="Menu-to-Directorio" style="stroke:#444444;stroke-width:1.2;"/><polygon fill="#444444" points="674.7,691.98,666.7444,686.1741,669.8122,690.9269,665.0594,693.9947,674.7,691.98" style="stroke:#444444;stroke-width:1.2;"/><text fill="#000000" font-family="Arial" font-size="10" lengthAdjust="spacing" textLength="80.5664" x="513.51" y="650.2822">abrirDirectorio()</text></g><!--link Directorio to Menu--><g class="link" data-entity-1="ent0014" data-entity-2="ent0003" data-link-type="dependency" data-source-line="77" id="lnk39"><path d="M674.69,703.92 C600.53,701.55 489.51,698 489.51,698 C489.51,698 463.2291,679.404 436.9091,660.794" fill="none" id="Directorio-to-Menu" style="stroke:#444444;stroke-width:1.2;"/><polygon fill="#444444" points="432.01,657.33,437.0493,665.792,436.0926,660.2166,441.6679,659.2599,432.01,657.33" style="stroke:#444444;stroke-width:1.2;"/><text fill="#000000" font-family="Arial" font-size="10" lengthAdjust="spacing" textLength="96.8652" x="505.51" y="695.2822">completarGestion()</text></g><!--link Menu to Ajustes--><g class="link" data-entity-1="ent0003" data-entity-2="ent0015" data-link-type="dependency" data-source-line="38" id="lnk11"><path d="M422.19,657.35 C449.8,684.27 489.51,723 489.51,723 C489.51,723 605.4915,760.5327 679.1615,784.3727" fill="none" id="Menu-to-Ajustes" style="stroke:#444444;stroke-width:1.2;"/><polygon fill="#444444" points="684.87,786.22,677.5387,779.6433,680.1129,784.6806,675.0756,787.2547,684.87,786.22" style="stroke:#444444;stroke-width:1.2;"/><text fill="#000000" font-family="Arial" font-size="10" lengthAdjust="spacing" textLength="67.7295" x="520.01" y="720.2822">abrirAjustes()</text></g><!--link Ajustes to Menu--><g class="link" data-entity-1="ent0015" data-entity-2="ent0003" data-link-type="dependency" data-source-line="78" id="lnk40"><path d="M684.87,799.61 C611.2,793.72 489.51,784 489.51,784 C489.51,784 441.5188,705.8235 414.9588,662.5535" fill="none" id="Ajustes-to-Menu" style="stroke:#444444;stroke-width:1.2;"/><polygon fill="#444444" points="411.82,657.44,413.1192,667.2028,414.4357,661.7013,419.9372,663.0178,411.82,657.44" style="stroke:#444444;stroke-width:1.2;"/><text fill="#000000" font-family="Arial" font-size="10" lengthAdjust="spacing" textLength="96.8652" x="505.51" y="781.2822">completarGestion()</text></g><!--link Menu to Admin--><g class="link" data-entity-1="ent0003" data-entity-2="ent0017" data-link-type="dependency" data-source-line="39" id="lnk12"><path d="M409.18,657.45 C434.82,707.73 489.51,815 489.51,815 C489.51,815 590.0611,851.56 664.1111,878.48" fill="none" id="Menu-to-Admin" style="stroke:#444444;stroke-width:1.2;"/><polygon fill="#444444" points="669.75,880.53,662.6582,873.6958,665.0509,878.8217,659.9249,881.2143,669.75,880.53" style="stroke:#444444;stroke-width:1.2;"/><text fill="#000000" font-family="Arial" font-size="10" lengthAdjust="spacing" textLength="106.2061" x="500.51" y="812.2822">abrirAdministracion()</text></g><!--link Admin to Menu--><g class="link" data-entity-1="ent0017" data-entity-2="ent0003" data-link-type="dependency" data-source-line="79" id="lnk41"><path d="M662.66,898.3 C589.12,890.95 489.51,881 489.51,881 C489.51,881 431.4854,726.1685 407.7654,662.8685" fill="none" id="Admin-to-Menu" style="stroke:#444444;stroke-width:1.2;"/><polygon fill="#444444" points="405.66,657.25,405.0724,667.0813,407.4145,661.9321,412.5637,664.2741,405.66,657.25" style="stroke:#444444;stroke-width:1.2;"/><text fill="#000000" font-family="Arial" font-size="10" lengthAdjust="spacing" textLength="96.8652" x="505.51" y="878.2822">completarGestion()</text></g><!--link Menu to Panel--><g class="link" data-entity-1="ent0003" data-entity-2="ent0018" data-link-type="dependency" data-source-line="40" id="lnk13"><path d="M404.48,657.03 C427.32,726.04 489.51,914 489.51,914 C489.51,914 587.1927,947.9498 661.0627,973.6298" fill="none" id="Menu-to-Panel" style="stroke:#444444;stroke-width:1.2;"/><polygon fill="#444444" points="666.73,975.6,659.5425,968.8665,662.0072,973.9582,656.9156,976.423,666.73,975.6" style="stroke:#444444;stroke-width:1.2;"/><text fill="#000000" font-family="Arial" font-size="10" lengthAdjust="spacing" textLength="107.1045" x="500.01" y="911.2822">abrirPanelAnaliticas()</text></g><!--link Panel to Menu--><g class="link" data-entity-1="ent0018" data-entity-2="ent0003" data-link-type="dependency" data-source-line="80" id="lnk42"><path d="M657.84,993.47 C584.85,986.76 489.51,978 489.51,978 C489.51,978 426.1723,743.143 404.6223,663.233" fill="none" id="Panel-to-Menu" style="stroke:#444444;stroke-width:1.2;"/><polygon fill="#444444" points="403.06,657.44,401.5414,667.1711,404.3619,662.2675,409.2654,665.0881,403.06,657.44" style="stroke:#444444;stroke-width:1.2;"/><text fill="#000000" font-family="Arial" font-size="10" lengthAdjust="spacing" textLength="96.8652" x="505.51" y="975.2822">completarGestion()</text></g><!--link CalParking to EditPlaza--><g class="link" data-entity-1="ent0004" data-entity-2="ent0005" data-link-type="dependency" data-source-line="42" id="lnk14"><path d="M760.11,186.85 C794.22,139.98 864.08,44 864.08,44 C864.08,44 980.4873,38.2463 1051.4873,34.7363" fill="none" id="CalParking-to-EditPlaza" style="stroke:#444444;stroke-width:1.2;"/><polygon fill="#444444" points="1057.48,34.44,1048.2935,30.8893,1052.4861,34.6869,1048.6885,38.8795,1057.48,34.44" style="stroke:#444444;stroke-width:1.2;"/><text fill="#000000" font-family="Arial" font-size="10" lengthAdjust="spacing" textLength="76.0107" x="902.58" y="34.2822">reservarPlaza()</text></g><!--link EditPlaza to CalParking--><g class="link" data-entity-1="ent0005" data-entity-2="ent0004" data-link-type="dependency" data-source-line="49" id="lnk20"><path d="M1057.48,50.73 C986.48,77.63 864.08,124 864.08,124 C864.08,124 818.1498,157.055 782.0398,183.045" fill="none" id="EditPlaza-to-CalParking" style="stroke:#444444;stroke-width:1.2;"/><polygon fill="#444444" points="777.17,186.55,786.8114,184.539,781.2282,183.6292,782.138,178.046,777.17,186.55" style="stroke:#444444;stroke-width:1.2;"/><text fill="#000000" font-family="Arial" font-size="10" lengthAdjust="spacing" textLength="122.666" x="879.58" y="65.2822">abrirCalendarioParking()</text></g><!--link CalParking to EditCesion--><g class="link" data-entity-1="ent0004" data-entity-2="ent0006" data-link-type="dependency" data-source-line="43" id="lnk15"><path d="M791.89,186.6 C825.66,169.48 864.08,150 864.08,150 C864.08,150 977.1441,145.8126 1048.5241,143.1626" fill="none" id="CalParking-to-EditCesion" style="stroke:#444444;stroke-width:1.2;"/><polygon fill="#444444" points="1054.52,142.94,1045.3778,139.2767,1049.5234,143.1255,1045.6746,147.2711,1054.52,142.94" style="stroke:#444444;stroke-width:1.2;"/><text fill="#000000" font-family="Arial" font-size="10" lengthAdjust="spacing" textLength="62.3779" x="909.58" y="142.2822">cederPlaza()</text></g><!--link EditCesion to CalParking--><g class="link" data-entity-1="ent0006" data-entity-2="ent0004" data-link-type="dependency" data-source-line="50" id="lnk21"><path d="M1054.66,156.12 C1034.9,161.84 1017.08,167 1017.08,167 C1017.08,167 919.1314,183.0119 839.0014,196.1119" fill="none" id="EditCesion-to-CalParking" style="stroke:#444444;stroke-width:1.2;"/><polygon fill="#444444" points="833.08,197.08,842.6075,199.5755,838.0145,196.2733,841.3167,191.6803,833.08,197.08" style="stroke:#444444;stroke-width:1.2;"/><text fill="#000000" font-family="Arial" font-size="10" lengthAdjust="spacing" textLength="122.666" x="879.58" y="164.2822">abrirCalendarioParking()</text></g><!--link CalParking to EditVisitante--><g class="link" data-entity-1="ent0004" data-entity-2="ent0007" data-link-type="dependency" data-source-line="44" id="lnk16"><path d="M832.99,220.99 C899.95,227.59 983.0289,235.7813 1041.1489,241.5113" fill="none" id="CalParking-to-EditVisitante" style="stroke:#444444;stroke-width:1.2;"/><polygon fill="#444444" points="1047.12,242.1,1038.5559,237.2363,1042.1441,241.6094,1037.771,245.1977,1047.12,242.1" style="stroke:#444444;stroke-width:1.2;"/><text fill="#000000" font-family="Arial" font-size="10" lengthAdjust="spacing" textLength="94.7412" x="893.58" y="222.2822">registrarVisitante()</text></g><!--link EditVisitante to CalParking--><g class="link" data-entity-1="ent0007" data-entity-2="ent0004" data-link-type="dependency" data-source-line="51" id="lnk22"><path d="M1047,256 C1030.52,258.21 1017.08,260 1017.08,260 C1017.08,260 864.08,260 864.08,260 C864.08,260 841.4353,251.1119 812.1053,239.6019" fill="none" id="EditVisitante-to-CalParking" style="stroke:#444444;stroke-width:1.2;"/><polygon fill="#444444" points="806.52,237.41,813.4367,244.4213,811.1744,239.2365,816.3592,236.9742,806.52,237.41" style="stroke:#444444;stroke-width:1.2;"/><text fill="#000000" font-family="Arial" font-size="10" lengthAdjust="spacing" textLength="122.666" x="879.58" y="257.2822">abrirCalendarioParking()</text></g><!--link CalParking to CalParking--><g class="link" data-entity-1="ent0004" data-entity-2="ent0004" data-link-type="dependency" data-source-line="45" id="lnk17"><path d="M730.24,186.72 C727.03,169.23 730.56,152 740.8,152 C751.04,152 755.6398,163.328 752.4398,180.818" fill="none" id="CalParking-to-CalParking" style="stroke:#444444;stroke-width:1.2;"/><polygon fill="#444444" points="751.36,186.72,756.9145,178.5869,752.2599,181.8016,749.0451,177.1471,751.36,186.72" style="stroke:#444444;stroke-width:1.2;"/><text fill="#000000" font-family="Arial" font-size="10" lengthAdjust="spacing" textLength="128.5791" x="676.8" y="144.2822">cancelarReservaParking()</text></g><!--link CalParking to CalParking--><g class="link" data-entity-1="ent0004" data-entity-2="ent0004" data-link-type="dependency" data-source-line="46" id="lnk18"><path d="M724.39,186.7 C711.19,154.89 716.66,117 740.8,117 C764.94,117 772.7096,149.3482 759.5096,181.1582" fill="none" id="CalParking-to-CalParking-1" style="stroke:#444444;stroke-width:1.2;"/><polygon fill="#444444" points="757.21,186.7,764.354,179.9204,759.1264,182.0818,756.9649,176.8542,757.21,186.7" style="stroke:#444444;stroke-width:1.2;"/><text fill="#000000" font-family="Arial" font-size="10" lengthAdjust="spacing" textLength="84.0137" x="698.8" y="109.2822">cancelarCesion()</text></g><!--link CalParking to CalParking--><g class="link" data-entity-1="ent0004" data-entity-2="ent0004" data-link-type="dependency" data-source-line="47" id="lnk19"><path d="M720.99,186.79 C695.33,141.72 701.93,82 740.8,82 C779.66,82 789.2386,136.5058 763.5786,181.5758" fill="none" id="CalParking-to-CalParking-2" style="stroke:#444444;stroke-width:1.2;"/><polygon fill="#444444" points="760.61,186.79,768.539,180.9478,763.0838,182.4449,761.5868,176.9897,760.61,186.79" style="stroke:#444444;stroke-width:1.2;"/><text fill="#000000" font-family="Arial" font-size="10" lengthAdjust="spacing" textLength="94.502" x="693.8" y="74.2822">cancelarVisitante()</text></g><!--link CalOficinas to EditPuesto--><g class="link" data-entity-1="ent0008" data-entity-2="ent0009" data-link-type="dependency" data-source-line="53" id="lnk23"><path d="M834.4,355.75 C903.6,355.56 989.77,355.3157 1047.21,355.1657" fill="none" id="CalOficinas-to-EditPuesto" style="stroke:#444444;stroke-width:1.2;"/><polygon fill="#444444" points="1053.21,355.15,1044.1996,351.1735,1048.21,355.1631,1044.2205,359.1735,1053.21,355.15" style="stroke:#444444;stroke-width:1.2;"/><text fill="#000000" font-family="Arial" font-size="10" lengthAdjust="spacing" textLength="83.4668" x="899.08" y="353.2822">reservarPuesto()</text></g><!--link EditPuesto to CalOficinas--><g class="link" data-entity-1="ent0009" data-entity-2="ent0008" data-link-type="dependency" data-source-line="56" id="lnk25"><path d="M1053.1,368.18 C1033.97,372.86 1017.08,377 1017.08,377 C1017.08,377 864.08,377 864.08,377 C864.08,377 857.4534,375.8656 840.3934,372.9356" fill="none" id="EditPuesto-to-CalOficinas" style="stroke:#444444;stroke-width:1.2;"/><polygon fill="#444444" points="834.48,371.92,842.6731,377.3857,839.4078,372.7663,844.0272,369.5011,834.48,371.92" style="stroke:#444444;stroke-width:1.2;"/><text fill="#000000" font-family="Arial" font-size="10" lengthAdjust="spacing" textLength="125.2637" x="878.08" y="374.2822">abrirCalendarioOficinas()</text></g><!--link CalOficinas to CalOficinas--><g class="link" data-entity-1="ent0008" data-entity-2="ent0008" data-link-type="dependency" data-source-line="54" id="lnk24"><path d="M709.11,330.72 C699.51,313.23 710.07,296 740.8,296 C771.52,296 784.9793,307.9715 775.3693,325.4615" fill="none" id="CalOficinas-to-CalOficinas" style="stroke:#444444;stroke-width:1.2;"/><polygon fill="#444444" points="772.48,330.72,780.3196,324.7585,774.8878,326.3379,773.3083,320.906,772.48,330.72" style="stroke:#444444;stroke-width:1.2;"/><text fill="#000000" font-family="Arial" font-size="10" lengthAdjust="spacing" textLength="124.8242" x="678.8" y="288.2822">cancelarReservaPuesto()</text></g><!--link Bandeja to EditSolicitud--><g class="link" data-entity-1="ent0010" data-entity-2="ent0011" data-link-type="dependency" data-source-line="58" id="lnk26"><path d="M833.23,473.05 C850.92,470.15 864.08,468 864.08,468 C864.08,468 1017.08,468 1017.08,468 C1017.08,468 1027.3218,472.6684 1045.5918,481.0084" fill="none" id="Bandeja-to-EditSolicitud" style="stroke:#444444;stroke-width:1.2;"/><polygon fill="#444444" points="1051.05,483.5,1044.5238,476.1238,1046.5015,481.4237,1041.2016,483.4014,1051.05,483.5" style="stroke:#444444;stroke-width:1.2;"/><text fill="#000000" font-family="Arial" font-size="10" lengthAdjust="spacing" textLength="92.4072" x="894.58" y="465.2822">solicitarAusencia()</text></g><!--link Bandeja to EditSolicitud--><g class="link" data-entity-1="ent0010" data-entity-2="ent0011" data-link-type="dependency" data-source-line="59" id="lnk27"><path d="M832.99,493.25 C899.84,497.09 982.7299,501.8558 1040.8499,505.1958" fill="none" id="Bandeja-to-EditSolicitud-1" style="stroke:#444444;stroke-width:1.2;"/><polygon fill="#444444" points="1046.84,505.54,1038.0843,501.0302,1041.8482,505.2531,1037.6253,509.0171,1046.84,505.54" style="stroke:#444444;stroke-width:1.2;"/><text fill="#000000" font-family="Arial" font-size="10" lengthAdjust="spacing" textLength="143.0957" x="869.08" y="493.2822">gestionarSolicitudAusencia()</text></g><!--link Bandeja to EditSolicitud--><g class="link" data-entity-1="ent0010" data-entity-2="ent0011" data-link-type="dependency" data-source-line="60" id="lnk28"><path d="M826.06,513.5 C847.24,519.9 864.08,525 864.08,525 C864.08,525 1017.08,525 1017.08,525 C1017.08,525 1024.6133,523.6638 1041.0933,520.7238" fill="none" id="Bandeja-to-EditSolicitud-2" style="stroke:#444444;stroke-width:1.2;"/><polygon fill="#444444" points="1047,519.67,1037.4374,517.3128,1042.0777,520.5481,1038.8424,525.1885,1047,519.67" style="stroke:#444444;stroke-width:1.2;"/><text fill="#000000" font-family="Arial" font-size="10" lengthAdjust="spacing" textLength="151.9238" x="865.08" y="522.2822">gestionarValidacionAusencia()</text></g><!--link EditSolicitud to Bandeja--><g class="link" data-entity-1="ent0011" data-entity-2="ent0010" data-link-type="dependency" data-source-line="63" id="lnk30"><path d="M1047,533.68 C1030.52,540.47 1017.08,546 1017.08,546 C1017.08,546 864.08,546 864.08,546 C864.08,546 833.7115,531.5905 800.8515,516.0105" fill="none" id="EditSolicitud-to-Bandeja" style="stroke:#444444;stroke-width:1.2;"/><polygon fill="#444444" points="795.43,513.44,801.8486,520.9101,799.9479,515.5821,805.2759,513.6814,795.43,513.44" style="stroke:#444444;stroke-width:1.2;"/><text fill="#000000" font-family="Arial" font-size="10" lengthAdjust="spacing" textLength="126.2793" x="877.58" y="543.2822">abrirBandejaSolicitudes()</text></g><!--link Bandeja to Bandeja--><g class="link" data-entity-1="ent0010" data-entity-2="ent0010" data-link-type="dependency" data-source-line="61" id="lnk29"><path d="M709.11,462.72 C699.51,445.23 710.07,428 740.8,428 C771.52,428 784.9793,439.9715 775.3693,457.4615" fill="none" id="Bandeja-to-Bandeja" style="stroke:#444444;stroke-width:1.2;"/><polygon fill="#444444" points="772.48,462.72,780.3196,456.7585,774.8878,458.3379,773.3083,452.906,772.48,462.72" style="stroke:#444444;stroke-width:1.2;"/><text fill="#000000" font-family="Arial" font-size="10" lengthAdjust="spacing" textLength="138.623" x="671.8" y="420.2822">cancelarSolicitudAusencia()</text></g><!--link Tablon to EditAnuncio--><g class="link" data-entity-1="ent0012" data-entity-2="ent0013" data-link-type="dependency" data-source-line="65" id="lnk31"><path d="M796.07,622.88 C864.1,632.75 974.2823,648.7478 1043.7023,658.8278" fill="none" id="Tablon-to-EditAnuncio" style="stroke:#444444;stroke-width:1.2;"/><polygon fill="#444444" points="1049.64,659.69,1041.3082,654.4382,1044.6919,658.9715,1040.1586,662.3552,1049.64,659.69" style="stroke:#444444;stroke-width:1.2;"/><text fill="#000000" font-family="Arial" font-size="10" lengthAdjust="spacing" textLength="88.3789" x="896.58" y="630.2822">publicarAnuncio()</text></g><!--link EditAnuncio to Tablon--><g class="link" data-entity-1="ent0013" data-entity-2="ent0012" data-link-type="dependency" data-source-line="67" id="lnk32"><path d="M1049.52,671.83 C1031.91,673.01 1017.08,674 1017.08,674 C1017.08,674 864.08,674 864.08,674 C864.08,674 832.9139,658.9574 799.7739,642.9674" fill="none" id="EditAnuncio-to-Tablon" style="stroke:#444444;stroke-width:1.2;"/><polygon fill="#444444" points="794.37,640.36,800.7376,647.8736,798.8732,642.5328,804.214,640.6685,794.37,640.36" style="stroke:#444444;stroke-width:1.2;"/><text fill="#000000" font-family="Arial" font-size="10" lengthAdjust="spacing" textLength="65.0977" x="908.08" y="671.2822">abrirTablon()</text></g><!--link Ajustes to EditPerfil--><g class="link" data-entity-1="ent0015" data-entity-2="ent0016" data-link-type="dependency" data-source-line="69" id="lnk33"><path d="M796.86,804 C867.28,804 982.26,804 1050.42,804" fill="none" id="Ajustes-to-EditPerfil" style="stroke:#444444;stroke-width:1.2;"/><polygon fill="#444444" points="1056.42,804,1047.42,800,1051.42,804,1047.42,808,1056.42,804" style="stroke:#444444;stroke-width:1.2;"/><text fill="#000000" font-family="Arial" font-size="10" lengthAdjust="spacing" textLength="62.6123" x="909.58" y="801.2822">editarPerfil()</text></g><!--link EditPerfil to Ajustes--><g class="link" data-entity-1="ent0016" data-entity-2="ent0015" data-link-type="dependency" data-source-line="71" id="lnk34"><path d="M1056.22,815.85 C1035.85,820.61 1017.08,825 1017.08,825 C1017.08,825 864.08,825 864.08,825 C864.08,825 835.2336,820.0447 802.7736,814.4747" fill="none" id="EditPerfil-to-Ajustes" style="stroke:#444444;stroke-width:1.2;"/><polygon fill="#444444" points="796.86,813.46,805.0539,818.9245,801.788,814.3056,806.4068,811.0397,796.86,813.46" style="stroke:#444444;stroke-width:1.2;"/><text fill="#000000" font-family="Arial" font-size="10" lengthAdjust="spacing" textLength="67.7295" x="907.08" y="822.2822">abrirAjustes()</text></g><?plantuml-src dLN1Rfmm4BtxAwpqqbPArLJjfOTANY2HqmqWOFVGgbevuDquOStAc5R9rzSOC1W8JSffz_czcU7DUCZfNa9PGC4ETn9cJD1KieA3ye7n4n7a27F6gNmyKNWgyiVwp-0ietjIvVAouD8dHmgHO2IVFu_P4uKN7mU7fIIIhWgHKP7SiVI1qxA45n--32X4YEBFyF3J-D0fyaB0Dv_r0u2E2SzYByQ1ltEyA48kEeEaX37Zg99tXe7ZnBj1EnV7OU3ZrThJh1lAAnF5GMlFTr64Wrs8ek_OlzgX5VQY9D1SX-GX4QgSGoS8r-W7QZbDLYzZCip94p4ncyh678UMslM6jCKnJf2VU5Q-chTb9PE4IpfJOt297UoZU5nai6SfuwGqLMwyE0aceSEAbhBeI2lakzursiN1MaLDDguNMqMl2C_elNajGvkyMLpaAhsiiewQeDNQED2aJyXjthyzyZU-WwS58bxnb9aANHnvJX948wQhHxWGFH5TRrIlRLlGVLLAsblYHPTuFRM4YZtBJHpt1ljgR2BaZ5k8iYCpzOV8zrGi7wrnWfrHFqB2QGx0p_U_uFdvDpELeFsXmNe8uLV8k3AEY5YFnjjt06Xye5ASb0ene1X6FviGAXgv5KmeZFACA6VQev6WcvCPGNSqLBGJ0FNJAbhCz9nQYgRDq58qs93LDx1dzTYGsJRHYjTY5grk3hJJQeoLKf1qv9nkq8YjCSH9pYHBjGl0ChZMcPlUAGKjgVXDX0QLP5RHtFjMaLAr2XVfvlet2Gxw3OH1vsGMeBCGdjASYAYfhv-5bqkTRjvUBXdM24PUlMPWHwQzLZemy3LIO5qFqswzCSVjrc3ZZIsnWBbET4fW1vzgb-udiEvbLwgvaRMuRFuGWQgIgfLQZzk_LGTLZx9TRPiE_J_vLbsZJ5-x9Rq53CsQomxiR5Fzqde2rbhgQcy_DetuLDqgXVAh0RkCFMUotIRh3LZBoaoG_i2q0fhLFMaWCmM6C5buquqtlOxjboGjZgUSgk1NJHFcflDvwgGtprCdLZvFjTRyCdLYtG9rkEkNgTQYNwJ-1G00?></g></svg>