<svg xmlns="http://www.w3.org/2000/svg" xmlns:xlink="http://www.w3.org/1999/xlink" contentStyleType="text/css" data-diagram-type="STATE" height="516px" preserveAspectRatio="none" style="width:2114px;height:516px;background:#FFFFFF;" version="1.1" viewBox="0 0 2114 516" width="2114px" zoomAndPan="magnify"><?plantuml 1.2026.3?><defs/><g><rect fill="#F1F1F1" height="40" rx="12.5" ry="12.5" style="stroke:#181818;stroke-width:1.5;" width="104.2412" x="948.16" y="87"/><text fill="#000000" font-family="Arial" font-size="11" lengthAdjust="spacing" textLength="94.2412" x="953.16" y="110.8081">SIN_AUTENTICAR</text><rect fill="#F1F1F1" height="40" rx="12.5" ry="12.5" style="stroke:#181818;stroke-width:1.5;" width="53.3071" x="973.63" y="234"/><text fill="#000000" font-family="Arial" font-size="11" lengthAdjust="spacing" textLength="43.3071" x="978.63" y="257.8081">PORTAL</text><rect fill="#F1F1F1" height="40" rx="12.5" ry="12.5" style="stroke:#181818;stroke-width:1.5;" width="136.5645" x="7" y="348"/><text fill="#000000" font-family="Arial" font-size="11" lengthAdjust="spacing" textLength="126.5645" x="12" y="371.8081">CALENDARIO_PARKING</text><rect fill="#F1F1F1" height="40" rx="12.5" ry="12.5" style="stroke:#181818;stroke-width:1.5;" width="89.2397" x="30.66" y="462"/><text fill="#000000" font-family="Arial" font-size="11" lengthAdjust="spacing" textLength="79.2397" x="35.66" y="485.8081">VISTA_CESION</text><rect fill="#F1F1F1" height="40" rx="12.5" ry="12.5" style="stroke:#181818;stroke-width:1.5;" width="128.9268" x="186.82" y="348"/><text fill="#000000" font-family="Arial" font-size="11" lengthAdjust="spacing" textLength="118.9268" x="191.82" y="371.8081">GESTION_VISITANTES</text><rect fill="#F1F1F1" height="40" rx="12.5" ry="12.5" style="stroke:#181818;stroke-width:1.5;" width="139.4434" x="354.56" y="348"/><text fill="#000000" font-family="Arial" font-size="11" lengthAdjust="spacing" textLength="129.4434" x="359.56" y="371.8081">CALENDARIO_OFICINAS</text><rect fill="#F1F1F1" height="40" rx="12.5" ry="12.5" style="stroke:#181818;stroke-width:1.5;" width="138.1006" x="600.23" y="348"/><text fill="#000000" font-family="Arial" font-size="11" lengthAdjust="spacing" textLength="128.1006" x="605.23" y="371.8081">BANDEJA_SOLICITUDES</text><rect fill="#F1F1F1" height="40" rx="12.5" ry="12.5" style="stroke:#181818;stroke-width:1.5;" width="54.8057" x="972.88" y="348"/><text fill="#000000" font-family="Arial" font-size="11" lengthAdjust="spacing" textLength="44.8057" x="977.88" y="371.8081">TABLON</text><rect fill="#F1F1F1" height="40" rx="12.5" ry="12.5" style="stroke:#181818;stroke-width:1.5;" width="78.9111" x="1214.83" y="348"/><text fill="#000000" font-family="Arial" font-size="11" lengthAdjust="spacing" textLength="68.9111" x="1219.83" y="371.8081">DIRECTORIO</text><rect fill="#F1F1F1" height="40" rx="12.5" ry="12.5" style="stroke:#181818;stroke-width:1.5;" width="56.4546" x="1431.05" y="348"/><text fill="#000000" font-family="Arial" font-size="11" lengthAdjust="spacing" textLength="46.4546" x="1436.05" y="371.8081">AJUSTES</text><rect fill="#F1F1F1" height="40" rx="12.5" ry="12.5" style="stroke:#181818;stroke-width:1.5;" width="106.8838" x="1703.84" y="348"/><text fill="#000000" font-family="Arial" font-size="11" lengthAdjust="spacing" textLength="96.8838" x="1708.84" y="371.8081">ADMINISTRACION</text><rect fill="#F1F1F1" height="40" rx="12.5" ry="12.5" style="stroke:#181818;stroke-width:1.5;" width="115.7676" x="1984.4" y="348"/><text fill="#000000" font-family="Arial" font-size="11" lengthAdjust="spacing" textLength="105.7676" x="1989.4" y="371.8081">PANEL_ANALITICAS</text><g class="start_entity" data-qualified-name=".start." data-source-line="25" id="ent0002"><ellipse cx="1000.28" cy="16" fill="#222222" rx="10" ry="10" style="stroke:#222222;stroke-width:1;"/></g><!--link *start* to SinAuth--><g class="link" data-entity-1="ent0002" data-entity-2="ent0002" data-link-type="dependency" data-source-line="25" id="lnk3"><path d="M1000.28,26.19 C1000.28,40.4 1000.28,62.02 1000.28,80.74" fill="none" id="*start*-to-SinAuth" style="stroke:#444444;stroke-width:1.2;"/><polygon fill="#444444" points="1000.28,86.74,1004.28,77.74,1000.28,81.74,996.28,77.74,1000.28,86.74" style="stroke:#444444;stroke-width:1.2;"/></g><!--link SinAuth to Portal--><g class="link" data-entity-1="ent0002" data-entity-2="ent0003" data-link-type="dependency" data-source-line="27" id="lnk4"><path d="M947.76,109.19 C912.02,113.08 867.05,124.68 843.28,157 C830.91,173.83 830.91,187.17 843.28,204 C873.23,244.71 930.8221,252.3918 967.2121,253.3518" fill="none" id="SinAuth-to-Portal" style="stroke:#444444;stroke-width:1.2;"/><polygon fill="#444444" points="973.21,253.51,964.3186,249.274,968.2117,253.3781,964.1076,257.2713,973.21,253.51" style="stroke:#444444;stroke-width:1.2;"/><text fill="#000000" font-family="Arial" font-size="11" lengthAdjust="spacing" textLength="77.5264" x="939.1504" y="168.2104">autenticarse()</text><path d="M848.28,176.8047 L848.28,198.8047 L1107.28,198.8047 L1107.28,186.8047 L1097.28,176.8047 L848.28,176.8047" fill="#FEFFDD" style="stroke:#181818;stroke-width:0.5;"/><path d="M1097.28,176.8047 L1097.28,186.8047 L1107.28,186.8047 L1097.28,176.8047" fill="#FEFFDD" style="stroke:#181818;stroke-width:0.5;"/><text fill="#000000" font-family="Arial" font-size="11" lengthAdjust="spacing" textLength="238.2671" x="854.28" y="192.0151">Entra ID delega la verificaci&#243;n de identidad</text></g><!--link Portal to SinAuth--><g class="link" data-entity-1="ent0003" data-entity-2="ent0002" data-link-type="dependency" data-source-line="32" id="lnk5"><path d="M1027.29,250.06 C1054.95,245.44 1096.59,233.7 1116.28,204 C1127.83,186.59 1127.83,174.41 1116.28,157 C1102.03,135.5 1082.0367,125.067 1058.4067,118.277" fill="none" id="Portal-to-SinAuth" style="stroke:#444444;stroke-width:1.2;"/><polygon fill="#444444" points="1052.64,116.62,1060.1853,122.95,1057.4455,118.0009,1062.3947,115.2611,1052.64,116.62" style="stroke:#444444;stroke-width:1.2;"/><text fill="#000000" font-family="Arial" font-size="11" lengthAdjust="spacing" textLength="77.9453" x="1125.94" y="184.7104">cerrarSesion()</text></g><!--link Portal to CalParking--><g class="link" data-entity-1="ent0003" data-entity-2="ent0004" data-link-type="dependency" data-source-line="36" id="lnk6"><path d="M973.42,255.38 C823.94,257.64 100.28,270.28 68.28,304 C57.45,315.42 58.8172,328.1131 63.9772,342.0531" fill="none" id="Portal-to-CalParking" style="stroke:#444444;stroke-width:1.2;"/><polygon fill="#444444" points="66.06,347.68,66.687,337.8511,64.3243,342.9909,59.1845,340.6282,66.06,347.68" style="stroke:#444444;stroke-width:1.2;"/><text fill="#000000" font-family="Arial" font-size="11" lengthAdjust="spacing" textLength="83.6118" x="69.28" y="315.2104">reservarPlaza()</text></g><!--link CalParking to Portal--><g class="link" data-entity-1="ent0004" data-entity-2="ent0003" data-link-type="dependency" data-source-line="37" id="lnk7"><path d="M110.42,347.6 C139.07,332.82 181.06,313.45 220.28,304 C367.86,268.46 847.321,257.7185 967.291,255.5485" fill="none" id="CalParking-to-Portal" style="stroke:#444444;stroke-width:1.2;"/><polygon fill="#444444" points="973.29,255.44,964.2191,251.6034,968.2908,255.5304,964.3638,259.6021,973.29,255.44" style="stroke:#444444;stroke-width:1.2;"/></g><!--link Portal to GestionVisitantes--><g class="link" data-entity-1="ent0003" data-entity-2="ent0006" data-link-type="dependency" data-source-line="39" id="lnk8"><path d="M973.14,255.71 C839.86,259.3 260.09,276.48 234.28,304 C223.28,315.73 226.7263,328.6245 234.6363,342.4245" fill="none" id="Portal-to-GestionVisitantes" style="stroke:#444444;stroke-width:1.2;"/><polygon fill="#444444" points="237.62,347.63,236.6147,337.8326,235.1336,343.2921,229.6741,341.8109,237.62,347.63" style="stroke:#444444;stroke-width:1.2;"/><text fill="#000000" font-family="Arial" font-size="11" lengthAdjust="spacing" textLength="104.2153" x="235.28" y="315.2104">registrarVisitante()</text></g><!--link GestionVisitantes to Portal--><g class="link" data-entity-1="ent0006" data-entity-2="ent0003" data-link-type="dependency" data-source-line="40" id="lnk9"><path d="M289.69,347.55 C320.42,332.95 365.03,313.84 406.28,304 C516.37,277.74 866.0358,260.843 967.2158,256.403" fill="none" id="GestionVisitantes-to-Portal" style="stroke:#444444;stroke-width:1.2;"/><polygon fill="#444444" points="973.21,256.14,964.0433,252.5384,968.2148,256.3592,964.394,260.5307,973.21,256.14" style="stroke:#444444;stroke-width:1.2;"/></g><!--link CalParking to VistaCesion--><g class="link" data-entity-1="ent0004" data-entity-2="ent0005" data-link-type="dependency" data-source-line="42" id="lnk10"><path d="M42.8,388.33 C32.7,396.15 22.78,406.16 17.28,418 C9.46,434.86 18.2057,446.7994 34.2257,458.1594" fill="none" id="CalParking-to-VistaCesion" style="stroke:#444444;stroke-width:1.2;"/><polygon fill="#444444" points="39.12,461.63,34.0922,453.1611,35.0414,458.7378,29.4647,459.6869,39.12,461.63" style="stroke:#444444;stroke-width:1.2;"/><text fill="#000000" font-family="Arial" font-size="11" lengthAdjust="spacing" textLength="68.6157" x="18.28" y="429.2104">cederPlaza()</text></g><!--link VistaCesion to CalParking--><g class="link" data-entity-1="ent0005" data-entity-2="ent0004" data-link-type="dependency" data-source-line="43" id="lnk11"><path d="M84.45,461.61 C89.23,449.25 93.64,432.82 91.28,418 C89.68,407.92 88.3693,402.7528 85.1493,393.8428" fill="none" id="VistaCesion-to-CalParking" style="stroke:#444444;stroke-width:1.2;"/><polygon fill="#444444" points="83.11,388.2,82.407,398.0237,84.8094,392.9023,89.9308,395.3047,83.11,388.2" style="stroke:#444444;stroke-width:1.2;"/><text fill="#000000" font-family="Arial" font-size="11" lengthAdjust="spacing" textLength="92.415" x="92.94" y="429.2104">cancelarCesion()</text></g><!--link Portal to CalOficinas--><g class="link" data-entity-1="ent0003" data-entity-2="ent0007" data-link-type="dependency" data-source-line="47" id="lnk12"><path d="M973.26,255.19 C864.01,256.25 459.04,262.91 421.28,304 C410.69,315.53 411.2057,328.0726 415.1957,341.9826" fill="none" id="Portal-to-CalOficinas" style="stroke:#444444;stroke-width:1.2;"/><polygon fill="#444444" points="416.85,347.75,418.2134,337.996,415.4714,342.9438,410.5235,340.2018,416.85,347.75" style="stroke:#444444;stroke-width:1.2;"/><text fill="#000000" font-family="Arial" font-size="11" lengthAdjust="spacing" textLength="91.8135" x="422.28" y="315.2104">reservarPuesto()</text></g><!--link CalOficinas to Portal--><g class="link" data-entity-1="ent0007" data-entity-2="ent0003" data-link-type="dependency" data-source-line="48" id="lnk13"><path d="M464.55,347.52 C495.91,333.2 540.92,314.48 582.28,304 C726.78,267.4 900.4236,258.2267 967.4336,255.9167" fill="none" id="CalOficinas-to-Portal" style="stroke:#444444;stroke-width:1.2;"/><polygon fill="#444444" points="973.43,255.71,964.2975,252.0224,968.433,255.8823,964.5732,260.0177,973.43,255.71" style="stroke:#444444;stroke-width:1.2;"/></g><!--link Portal to BandejaSolicitudes--><g class="link" data-entity-1="ent0003" data-entity-2="ent0008" data-link-type="dependency" data-source-line="52" id="lnk14"><path d="M973.19,256.23 C886.54,260.45 620.42,275.64 595.28,304 C580.96,320.16 594.1593,333.0988 616.2393,344.8088" fill="none" id="Portal-to-BandejaSolicitudes" style="stroke:#444444;stroke-width:1.2;"/><polygon fill="#444444" points="621.54,347.62,615.4631,339.8694,617.1228,345.2773,611.7149,346.937,621.54,347.62" style="stroke:#444444;stroke-width:1.2;"/><text fill="#000000" font-family="Arial" font-size="11" lengthAdjust="spacing" textLength="101.6479" x="596.28" y="315.2104">solicitarAusencia()</text></g><!--link BandejaSolicitudes to Portal--><g class="link" data-entity-1="ent0008" data-entity-2="ent0003" data-link-type="dependency" data-source-line="53" id="lnk15"><path d="M693.67,347.72 C712.7,333.61 740.34,315.05 767.28,304 C838.22,274.9 922.7241,262.8789 967.1741,258.1189" fill="none" id="BandejaSolicitudes-to-Portal" style="stroke:#444444;stroke-width:1.2;"/><polygon fill="#444444" points="973.14,257.48,963.7653,254.461,968.1684,258.0124,964.6171,262.4156,973.14,257.48" style="stroke:#444444;stroke-width:1.2;"/><text fill="#000000" font-family="Arial" font-size="11" lengthAdjust="spacing" textLength="148.8115" x="768.28" y="315.2104">aprobarSolicitudAusencia()</text></g><!--link Portal to Tablon--><g class="link" data-entity-1="ent0003" data-entity-2="ent0009" data-link-type="dependency" data-source-line="57" id="lnk16"><path d="M973.27,265.58 C957.04,273.51 937.76,286.09 928.28,304 C915.78,327.64 941.9571,344.1152 967.2071,354.8352" fill="none" id="Portal-to-Tablon" style="stroke:#444444;stroke-width:1.2;"/><polygon fill="#444444" points="972.73,357.18,966.0089,349.9809,968.1276,355.226,962.8825,357.3448,972.73,357.18" style="stroke:#444444;stroke-width:1.2;"/><text fill="#000000" font-family="Arial" font-size="11" lengthAdjust="spacing" textLength="96.8677" x="929.28" y="315.2104">consultarTablon()</text></g><!--link Tablon to Portal--><g class="link" data-entity-1="ent0009" data-entity-2="ent0003" data-link-type="dependency" data-source-line="58" id="lnk17"><path d="M1017.83,347.53 C1026.63,335.41 1034.59,319.27 1030.28,304 C1027.31,293.44 1024.7221,287.8727 1018.8921,279.2927" fill="none" id="Tablon-to-Portal" style="stroke:#444444;stroke-width:1.2;"/><polygon fill="#444444" points="1015.52,274.33,1017.2697,284.0222,1018.3301,278.4656,1023.8867,279.526,1015.52,274.33" style="stroke:#444444;stroke-width:1.2;"/><text fill="#000000" font-family="Arial" font-size="11" lengthAdjust="spacing" textLength="97.2168" x="1032.49" y="315.2104">publicarAnuncio()</text></g><!--link Portal to Directorio--><g class="link" data-entity-1="ent0003" data-entity-2="ent0010" data-link-type="dependency" data-source-line="62" id="lnk18"><path d="M1027.22,263.18 C1055.39,272.06 1100.66,287.23 1138.28,304 C1167.38,316.97 1193.8872,331.4241 1216.7772,344.6741" fill="none" id="Portal-to-Directorio" style="stroke:#444444;stroke-width:1.2;"/><polygon fill="#444444" points="1221.97,347.68,1216.1848,339.7094,1217.6427,345.1751,1212.1769,346.6331,1221.97,347.68" style="stroke:#444444;stroke-width:1.2;"/><text fill="#000000" font-family="Arial" font-size="11" lengthAdjust="spacing" textLength="113.8833" x="1165.39" y="315.2104">consultarDirectorio()</text></g><!--link Directorio to Portal--><g class="link" data-entity-1="ent0010" data-entity-2="ent0003" data-link-type="dependency" data-source-line="63" id="lnk19"><path d="M1275.6,347.77 C1287.67,334.56 1298.35,317.12 1287.28,304 C1254.12,264.69 1098.3183,257.0513 1033.3583,255.5213" fill="none" id="Directorio-to-Portal" style="stroke:#444444;stroke-width:1.2;"/><polygon fill="#444444" points="1027.36,255.38,1036.2633,259.5908,1032.3586,255.4977,1036.4517,251.593,1027.36,255.38" style="stroke:#444444;stroke-width:1.2;"/></g><!--link Portal to Ajustes--><g class="link" data-entity-1="ent0003" data-entity-2="ent0011" data-link-type="dependency" data-source-line="67" id="lnk20"><path d="M1027.34,256.85 C1082.47,261.12 1211.4,273.75 1315.28,304 C1356.81,316.09 1396.7589,334.646 1425.2489,349.096" fill="none" id="Portal-to-Ajustes" style="stroke:#444444;stroke-width:1.2;"/><polygon fill="#444444" points="1430.6,351.81,1424.3828,344.1716,1426.1408,349.5483,1420.764,351.3063,1430.6,351.81" style="stroke:#444444;stroke-width:1.2;"/><text fill="#000000" font-family="Arial" font-size="11" lengthAdjust="spacing" textLength="68.8735" x="1352.95" y="315.2104">editarPerfil()</text></g><!--link Ajustes to Portal--><g class="link" data-entity-1="ent0011" data-entity-2="ent0003" data-link-type="dependency" data-source-line="68" id="lnk21"><path d="M1455.63,347.51 C1451.85,333.09 1444.43,314.24 1430.28,304 C1365.53,257.14 1117.4199,254.3029 1033.4099,254.6829" fill="none" id="Ajustes-to-Portal" style="stroke:#444444;stroke-width:1.2;"/><polygon fill="#444444" points="1027.41,254.71,1036.428,258.6693,1032.4099,254.6874,1036.3918,250.6693,1027.41,254.71" style="stroke:#444444;stroke-width:1.2;"/><text fill="#000000" font-family="Arial" font-size="11" lengthAdjust="spacing" textLength="133.4019" x="1443.89" y="315.2104">configurarPreferencias()</text></g><!--link Portal to Administracion--><g class="link" data-entity-1="ent0003" data-entity-2="ent0012" data-link-type="dependency" data-source-line="72" id="lnk22"><path d="M1027.24,254.69 C1111.15,254.28 1374.73,257.09 1586.28,304 C1631.38,314 1675.144,330.7192 1709.164,345.2792" fill="none" id="Portal-to-Administracion" style="stroke:#444444;stroke-width:1.2;"/><polygon fill="#444444" points="1714.68,347.64,1707.9798,340.4215,1710.0833,345.6727,1704.8321,347.7762,1714.68,347.64" style="stroke:#444444;stroke-width:1.2;"/><text fill="#000000" font-family="Arial" font-size="11" lengthAdjust="spacing" textLength="95.0737" x="1635.43" y="315.2104">gestionarPlazas()</text></g><!--link Administracion to Portal--><g class="link" data-entity-1="ent0012" data-entity-2="ent0003" data-link-type="dependency" data-source-line="73" id="lnk23"><path d="M1757.3,347.58 C1756.18,333.2 1752.11,314.36 1739.28,304 C1682.95,258.51 1159.62,255.1476 1033.27,254.9876" fill="none" id="Administracion-to-Portal" style="stroke:#444444;stroke-width:1.2;"/><polygon fill="#444444" points="1027.27,254.98,1036.2649,258.9914,1032.27,254.9863,1036.2751,250.9914,1027.27,254.98" style="stroke:#444444;stroke-width:1.2;"/><text fill="#000000" font-family="Arial" font-size="11" lengthAdjust="spacing" textLength="107.9321" x="1750.85" y="315.2104">gestionarUsuarios()</text></g><!--link Portal to PanelAnaliticas--><g class="link" data-entity-1="ent0003" data-entity-2="ent0013" data-link-type="dependency" data-source-line="77" id="lnk24"><path d="M1027.18,255.48 C1154.88,257.89 1700.72,270.06 1867.28,304 C1913.79,313.48 1959.0667,330.4962 1993.8967,345.2762" fill="none" id="Portal-to-PanelAnaliticas" style="stroke:#444444;stroke-width:1.2;"/><polygon fill="#444444" points="1999.42,347.62,1992.6976,340.4221,1994.8173,345.6668,1989.5725,347.7865,1999.42,347.62" style="stroke:#444444;stroke-width:1.2;"/><text fill="#000000" font-family="Arial" font-size="11" lengthAdjust="spacing" textLength="109.6187" x="1917.59" y="315.2104">consultarAnalytics()</text></g><!--link PanelAnaliticas to Portal--><g class="link" data-entity-1="ent0013" data-entity-2="ent0003" data-link-type="dependency" data-source-line="78" id="lnk25"><path d="M2046.07,347.6 C2047.61,333.42 2046.84,314.84 2035.28,304 C1997.45,268.49 1192.9196,257.2507 1033.3996,255.3707" fill="none" id="PanelAnaliticas-to-Portal" style="stroke:#444444;stroke-width:1.2;"/><polygon fill="#444444" points="1027.4,255.3,1036.3522,259.4058,1032.3997,255.3589,1036.4465,251.4063,1027.4,255.3" style="stroke:#444444;stroke-width:1.2;"/></g><?plantuml-src tPPBRjim48RtEWMHBle0KY15kycY02qhWL9N5Ymvcw8m9XBjCA59WvHI9AiSeZVf4NgJdgGZwaN91hfjR6WXp_mQaXzdXhpbEIDikoiUISvCflcku4fwvfxB7MZOedKDfIWkb2mYs392DGTns9_m9qREpXodAQ1W4wLpfjDRdjrBPWmvU__9aO3MweVh_31s-aeeJLvzj3_Fip79IH96AxfCWoWDVReu8M18mYKjYzjM4SyNAPrPJwnqWRDkFJwT1T6KBiBvAgQBBs5qQLK-Y1Wq3hvfXTTXajAL7oJXFBAIQuuUdndBgDPS1acAxXLgmvH6QP1OvIKp5KdyW1SW2sOE33w_2Fqmeaax-dpDCowXaqveD0skw2gPpr2OBgTDx0d8dDr1eWJgYpBlWwTqCckcciADw6Sv3HU1dyvnLEkSSisoGcckMW6zMYRjtEbTQPmPq-dNC48I2-gt76Y-vH9PQCWS536DWjcAHdGMLhjI1uj1Ca4b25xm3DVclIP_VZxZGmA9t-T07eb1BxxKzl__yRnlxxwJqzFFNSfvpOirrjb6pWcK1PFLghLXRzvwKY4a9OdWyjuZzV99ECKI4cm3H01vO9fZ3Y3KtxyasWbM9mR88VUOp4aLmFEQyCxmE5J6j0QTsCp4eNh8JKQ_6BR_8k-ilgzN1A2POVe1T2pW2P20u-ptPF3vNeNQA1kRrRgpOgXzeHjnD93J8UosOEjhf-IwzkQVWSoO0EtlRs7R5iWHRc2tDcS7I-IjwYtit2xn3imrPBR_i1UEPW1blxaZ6rF_0qrBmsJ6gtGw81nsdvrMDzWJMh_pQO-mEYMgNdCSxM7CiZu3g-fIqk0j1NHjGGIDQq1iLzw8gbjJMI8eDG3LdvX7b6lEeXn6lHK9E9A3DTZS5OxnV6cNTavONjLUpFIQ2sJIEWR9W_ZMV5FYsH5hjcRQrfePv91xQtgHHJV4CxW38e5DVKusPt2rz95amAjJBqq9c5vcT6t1M-FnTAKnkz6bsAs-olg8reh7MEPKu5y0?></g></svg>