<svg xmlns="http://www.w3.org/2000/svg" xmlns:xlink="http://www.w3.org/1999/xlink" contentStyleType="text/css" data-diagram-type="STATE" height="1055px" preserveAspectRatio="none" style="width:1183px;height:1055px;background:#FFFFFF;" version="1.1" viewBox="0 0 1183 1055" width="1183px" zoomAndPan="magnify"><?plantuml 1.2026.4?><defs/><g><g class="entity" data-qualified-name="SinAuth" data-source-line="15" id="ent0001"><rect fill="#EEEEEE" height="50" rx="12.5" ry="12.5" style="stroke:#BBBBBB;stroke-width:1.5;" width="110.8936" x="87" y="615"/><line style="stroke:#BBBBBB;stroke-width:1.5;" x1="87" x2="197.8936" y1="636.6406" y2="636.6406"/><text fill="#999999" font-family="Arial" font-size="10" lengthAdjust="spacing" textLength="90.8936" x="97" y="629.2822">SESION_CERRADA</text></g><g class="entity" data-qualified-name="Menu" data-source-line="16" id="ent0002"><rect fill="#EEEEEE" height="50" rx="12.5" ry="12.5" style="stroke:#BBBBBB;stroke-width:1.5;" width="128.6182" x="330.89" y="615"/><line style="stroke:#BBBBBB;stroke-width:1.5;" x1="330.89" x2="459.5082" y1="636.6406" y2="636.6406"/><text fill="#999999" font-family="Arial" font-size="10" lengthAdjust="spacing" textLength="108.6182" x="340.89" y="629.2822">SISTEMA_DISPONIBLE</text></g><g class="entity" data-qualified-name="CalParking" data-source-line="18" id="ent0003"><rect fill="#ADD8E6" height="50" rx="12.5" ry="12.5" style="stroke:#BBBBBB;stroke-width:1.5;" width="183.9551" x="648.82" y="158"/><line style="stroke:#BBBBBB;stroke-width:1.5;" x1="648.82" x2="832.7751" y1="179.6406" y2="179.6406"/><text fill="#999999" font-family="Arial" font-size="10" lengthAdjust="spacing" textLength="163.9551" x="658.82" y="172.2822">CALENDARIO_PARKING_ABIERTO</text></g><g class="entity" data-qualified-name="EditPlaza" data-source-line="19" id="ent0004"><rect fill="#ADD8E6" height="50" rx="12.5" ry="12.5" style="stroke:#BBBBBB;stroke-width:1.5;" width="100" x="1057.92" y="7"/><line style="stroke:#BBBBBB;stroke-width:1.5;" x1="1057.92" x2="1157.92" y1="28.6406" y2="28.6406"/><text fill="#999999" font-family="Arial" font-size="10" lengthAdjust="spacing" textLength="80" x="1067.92" y="21.2822">PLAZA_ABIERTA</text></g><g class="entity" data-qualified-name="EditCesion" data-source-line="20" id="ent0005"><rect fill="#EEEEEE" height="50" rx="12.5" ry="12.5" style="stroke:#BBBBBB;stroke-width:1.5;" width="105.8154" x="1055.01" y="116"/><line style="stroke:#BBBBBB;stroke-width:1.5;" x1="1055.01" x2="1160.8254" y1="137.6406" y2="137.6406"/><text fill="#999999" font-family="Arial" font-size="10" lengthAdjust="spacing" textLength="85.8154" x="1065.01" y="130.2822">CESION_ABIERTA</text></g><g class="entity" data-qualified-name="EditVisitante" data-source-line="21" id="ent0006"><rect fill="#EEEEEE" height="50" rx="12.5" ry="12.5" style="stroke:#BBBBBB;stroke-width:1.5;" width="120.8398" x="1047.5" y="223"/><line style="stroke:#BBBBBB;stroke-width:1.5;" x1="1047.5" x2="1168.3398" y1="244.6406" y2="244.6406"/><text fill="#999999" font-family="Arial" font-size="10" lengthAdjust="spacing" textLength="100.8398" x="1057.5" y="237.2822">VISITANTE_ABIERTO</text></g><g class="entity" data-qualified-name="CalOficinas" data-source-line="22" id="ent0007"><rect fill="#EEEEEE" height="50" rx="12.5" ry="12.5" style="stroke:#BBBBBB;stroke-width:1.5;" width="186.5723" x="647.51" y="332"/><line style="stroke:#BBBBBB;stroke-width:1.5;" x1="647.51" x2="834.0823" y1="353.6406" y2="353.6406"/><text fill="#999999" font-family="Arial" font-size="10" lengthAdjust="spacing" textLength="166.5723" x="657.51" y="346.2822">CALENDARIO_OFICINAS_ABIERTO</text></g><g class="entity" data-qualified-name="EditPuesto" data-source-line="23" id="ent0008"><rect fill="#EEEEEE" height="50" rx="12.5" ry="12.5" style="stroke:#BBBBBB;stroke-width:1.5;" width="108.8916" x="1053.47" y="341"/><line style="stroke:#BBBBBB;stroke-width:1.5;" x1="1053.47" x2="1162.3616" y1="362.6406" y2="362.6406"/><text fill="#999999" font-family="Arial" font-size="10" lengthAdjust="spacing" textLength="88.8916" x="1063.47" y="355.2822">PUESTO_ABIERTO</text></g><g class="entity" data-qualified-name="Bandeja" data-source-line="24" id="ent0009"><rect fill="#EEEEEE" height="50" rx="12.5" ry="12.5" style="stroke:#BBBBBB;stroke-width:1.5;" width="184.3213" x="648.64" y="474"/><line style="stroke:#BBBBBB;stroke-width:1.5;" x1="648.64" x2="832.9613" y1="495.6406" y2="495.6406"/><text fill="#999999" font-family="Arial" font-size="10" lengthAdjust="spacing" textLength="164.3213" x="658.64" y="488.2822">BANDEJA_SOLICITUDES_ABIERTA</text></g><g class="entity" data-qualified-name="EditSolicitud" data-source-line="25" id="ent0010"><rect fill="#EEEEEE" height="50" rx="12.5" ry="12.5" style="stroke:#BBBBBB;stroke-width:1.5;" width="121.665" x="1047.08" y="484"/><line style="stroke:#BBBBBB;stroke-width:1.5;" x1="1047.08" x2="1168.745" y1="505.6406" y2="505.6406"/><text fill="#999999" font-family="Arial" font-size="10" lengthAdjust="spacing" textLength="101.665" x="1057.08" y="498.2822">SOLICITUD_ABIERTA</text></g><g class="entity" data-qualified-name="Tablon" data-source-line="26" id="ent0011"><rect fill="#EEEEEE" height="50" rx="12.5" ry="12.5" style="stroke:#BBBBBB;stroke-width:1.5;" width="109.6289" x="685.98" y="598"/><line style="stroke:#BBBBBB;stroke-width:1.5;" x1="685.98" x2="795.6089" y1="619.6406" y2="619.6406"/><text fill="#999999" font-family="Arial" font-size="10" lengthAdjust="spacing" textLength="89.6289" x="695.98" y="612.2822">TABLON_ABIERTO</text></g><g class="entity" data-qualified-name="EditAnuncio" data-source-line="27" id="ent0012"><rect fill="#EEEEEE" height="50" rx="12.5" ry="12.5" style="stroke:#BBBBBB;stroke-width:1.5;" width="115.8203" x="1050.01" y="643"/><line style="stroke:#BBBBBB;stroke-width:1.5;" x1="1050.01" x2="1165.8303" y1="664.6406" y2="664.6406"/><text fill="#999999" font-family="Arial" font-size="10" lengthAdjust="spacing" textLength="95.8203" x="1060.01" y="657.2822">ANUNCIO_ABIERTO</text></g><g class="entity" data-qualified-name="Directorio" data-source-line="28" id="ent0013"><rect fill="#EEEEEE" height="50" rx="12.5" ry="12.5" style="stroke:#BBBBBB;stroke-width:1.5;" width="131.543" x="675.03" y="689"/><line style="stroke:#BBBBBB;stroke-width:1.5;" x1="675.03" x2="806.573" y1="710.6406" y2="710.6406"/><text fill="#999999" font-family="Arial" font-size="10" lengthAdjust="spacing" textLength="111.543" x="685.03" y="703.2822">DIRECTORIO_ABIERTO</text></g><g class="entity" data-qualified-name="Ajustes" data-source-line="29" id="ent0014"><rect fill="#EEEEEE" height="50" rx="12.5" ry="12.5" style="stroke:#BBBBBB;stroke-width:1.5;" width="111.1279" x="685.23" y="790"/><line style="stroke:#BBBBBB;stroke-width:1.5;" x1="685.23" x2="796.3579" y1="811.6406" y2="811.6406"/><text fill="#999999" font-family="Arial" font-size="10" lengthAdjust="spacing" textLength="91.1279" x="695.23" y="804.2822">AJUSTES_ABIERTO</text></g><g class="entity" data-qualified-name="EditPerfil" data-source-line="30" id="ent0015"><rect fill="#EEEEEE" height="50" rx="12.5" ry="12.5" style="stroke:#BBBBBB;stroke-width:1.5;" width="102.4658" x="1056.68" y="790"/><line style="stroke:#BBBBBB;stroke-width:1.5;" x1="1056.68" x2="1159.1458" y1="811.6406" y2="811.6406"/><text fill="#999999" font-family="Arial" font-size="10" lengthAdjust="spacing" textLength="82.4658" x="1066.68" y="804.2822">PERFIL_ABIERTO</text></g><g class="entity" data-qualified-name="Admin" data-source-line="31" id="ent0016"><rect fill="#EEEEEE" height="50" rx="12.5" ry="12.5" style="stroke:#BBBBBB;stroke-width:1.5;" width="155.9424" x="662.83" y="896"/><line style="stroke:#BBBBBB;stroke-width:1.5;" x1="662.83" x2="818.7724" y1="917.6406" y2="917.6406"/><text fill="#999999" font-family="Arial" font-size="10" lengthAdjust="spacing" textLength="135.9424" x="672.83" y="910.2822">ADMINISTRACION_ABIERTA</text></g><g class="entity" data-qualified-name="Panel" data-source-line="32" id="ent0017"><rect fill="#EEEEEE" height="50" rx="12.5" ry="12.5" style="stroke:#BBBBBB;stroke-width:1.5;" width="165.0488" x="658.27" y="991"/><line style="stroke:#BBBBBB;stroke-width:1.5;" x1="658.27" x2="823.3188" y1="1012.6406" y2="1012.6406"/><text fill="#999999" font-family="Arial" font-size="10" lengthAdjust="spacing" textLength="145.0488" x="668.27" y="1005.2822">PANEL_ANALITICAS_ABIERTO</text></g><g class="start_entity" data-qualified-name=".start." data-source-line="34" id="ent0018"><ellipse cx="16" cy="640" fill="#222222" rx="10" ry="10" style="stroke:#222222;stroke-width:1;"/></g><!--link *start* to SinAuth--><g class="link" data-entity-1="ent0018" data-entity-2="ent0001" data-link-type="dependency" data-source-line="34" id="lnk19"><path d="M26.35,640 C39.3,640 58.69,640 81.69,640" fill="none" id="*start*-to-SinAuth" style="stroke:#BBBBBB;stroke-width:1.2;"/><polygon fill="#BBBBBB" points="86.69,640,77.69,636,81.69,640,77.69,644,86.69,640" style="stroke:#BBBBBB;stroke-width:1.2;stroke-linejoin:miter;stroke-miterlimit:10;"/></g><!--link SinAuth to Menu--><g class="link" data-entity-1="ent0001" data-entity-2="ent0002" data-link-type="dependency" data-source-line="36" id="lnk20"><path d="M198.17,640 C237.22,640 284.85,640 325.75,640" fill="none" id="SinAuth-to-Menu" style="stroke:#BBBBBB;stroke-width:1.2;"/><polygon fill="#BBBBBB" points="330.75,640,321.75,636,325.75,640,321.75,644,330.75,640" style="stroke:#BBBBBB;stroke-width:1.2;stroke-linejoin:miter;stroke-miterlimit:10;"/><text fill="#000000" font-family="Arial" font-size="10" lengthAdjust="spacing" textLength="71.1572" x="228.89" y="637.2822">iniciarSesion()</text></g><!--link Menu to SinAuth--><g class="link" data-entity-1="ent0002" data-entity-2="ent0001" data-link-type="dependency" data-source-line="38" id="lnk21"><path d="M330.42,654.36 C314.02,658.05 300.89,661 300.89,661 C300.89,661 227.89,661 227.89,661 C227.89,661 219.3423,658.8763 203.2123,654.8663" fill="none" id="Menu-to-SinAuth" style="stroke:#BBBBBB;stroke-width:1.2;"/><polygon fill="#BBBBBB" points="198.36,653.66,206.1291,659.7132,203.2123,654.8663,208.0592,651.9495,198.36,653.66" style="stroke:#BBBBBB;stroke-width:1.2;stroke-linejoin:miter;stroke-miterlimit:10;"/><text fill="#000000" font-family="Arial" font-size="10" lengthAdjust="spacing" textLength="70.8594" x="229.39" y="658.2822">cerrarSesion()</text></g><!--link Menu to CalParking--><g class="link" data-entity-1="ent0002" data-entity-2="ent0003" data-link-type="dependency" data-source-line="39" id="lnk22"><path d="M402.32,614.67 C423.08,528.8 489.51,254 489.51,254 C489.51,254 573.5197,230.1643 645.3397,209.7943" fill="none" id="Menu-to-CalParking" style="stroke:#4169E1;stroke-width:3;"/><polygon fill="#4169E1" points="650.15,208.43,640.4001,207.0376,645.3397,209.7943,642.583,214.734,650.15,208.43" style="stroke:#4169E1;stroke-width:3;stroke-linejoin:miter;stroke-miterlimit:10;"/><text fill="#000000" font-family="Arial" font-size="10" lengthAdjust="spacing" textLength="122.666" x="492.51" y="215.7822">abrirCalendarioParking()</text></g><!--link CalParking to Menu--><g class="link" data-entity-1="ent0003" data-entity-2="ent0002" data-link-type="dependency" data-source-line="79" id="lnk51"><path d="M706.06,208.38 C669.86,235.61 617.51,275 617.51,275 C617.51,275 489.51,351 489.51,351 C489.51,351 428.7063,539.3319 405.9363,609.8519" fill="none" id="CalParking-to-Menu" style="stroke:#4169E1;stroke-width:2;"/><polygon fill="#4169E1" points="404.4,614.61,410.9719,607.2745,405.9363,609.8519,403.3589,604.8163,404.4,614.61" style="stroke:#4169E1;stroke-width:2;stroke-linejoin:miter;stroke-miterlimit:10;"/><text fill="#000000" font-family="Arial" font-size="10" lengthAdjust="spacing" textLength="96.8652" x="505.51" y="272.2822">completarGestion()</text></g><!--link Menu to CalOficinas--><g class="link" data-entity-1="ent0002" data-entity-2="ent0007" data-link-type="dependency" data-source-line="40" id="lnk23"><path d="M405.49,614.82 C429.09,550.82 489.51,387 489.51,387 C489.51,387 571.0455,377.2246 642.3455,368.6846" fill="none" id="Menu-to-CalOficinas" style="stroke:#BBBBBB;stroke-width:1.2;"/><polygon fill="#BBBBBB" points="647.31,368.09,637.8982,365.1887,642.3455,368.6846,638.8496,373.1319,647.31,368.09" style="stroke:#BBBBBB;stroke-width:1.2;stroke-linejoin:miter;stroke-miterlimit:10;"/><text fill="#000000" font-family="Arial" font-size="10" lengthAdjust="spacing" textLength="125.2637" x="491.01" y="369.2822">abrirCalendarioOficinas()</text></g><!--link CalOficinas to Menu--><g class="link" data-entity-1="ent0007" data-entity-2="ent0002" data-link-type="dependency" data-source-line="80" id="lnk52"><path d="M684.56,382.38 C610.86,416.25 489.51,472 489.51,472 C489.51,472 438.6276,563.6089 412.5976,610.4789" fill="none" id="CalOficinas-to-Menu" style="stroke:#BBBBBB;stroke-width:1.2;"/><polygon fill="#BBBBBB" points="410.17,614.85,418.0366,608.924,412.5976,610.4789,411.0427,605.0399,410.17,614.85" style="stroke:#BBBBBB;stroke-width:1.2;stroke-linejoin:miter;stroke-miterlimit:10;"/><text fill="#000000" font-family="Arial" font-size="10" lengthAdjust="spacing" textLength="96.8652" x="505.51" y="411.7822">completarGestion()</text></g><!--link Menu to Bandeja--><g class="link" data-entity-1="ent0002" data-entity-2="ent0009" data-link-type="dependency" data-source-line="41" id="lnk24"><path d="M412.24,614.73 C438.92,572.7 489.51,493 489.51,493 C489.51,493 617.51,493 617.51,493 C617.51,493 625.6859,493.4072 643.3759,494.2672" fill="none" id="Menu-to-Bandeja" style="stroke:#BBBBBB;stroke-width:1.2;"/><polygon fill="#BBBBBB" points="648.37,494.51,639.5748,490.0777,643.3759,494.2672,639.1864,498.0683,648.37,494.51" style="stroke:#BBBBBB;stroke-width:1.2;stroke-linejoin:miter;stroke-miterlimit:10;"/><text fill="#000000" font-family="Arial" font-size="10" lengthAdjust="spacing" textLength="126.2793" x="490.51" y="490.2822">abrirBandejaSolicitudes()</text></g><!--link Bandeja to Menu--><g class="link" data-entity-1="ent0009" data-entity-2="ent0002" data-link-type="dependency" data-source-line="81" id="lnk53"><path d="M659.23,524.43 C586.06,547.53 489.51,578 489.51,578 C489.51,578 464.3547,594.7132 438.5847,611.8332" fill="none" id="Bandeja-to-Menu" style="stroke:#BBBBBB;stroke-width:1.2;"/><polygon fill="#BBBBBB" points="434.42,614.6,444.1299,612.9516,438.5847,611.8332,439.7031,606.288,434.42,614.6" style="stroke:#BBBBBB;stroke-width:1.2;stroke-linejoin:miter;stroke-miterlimit:10;"/><text fill="#000000" font-family="Arial" font-size="10" lengthAdjust="spacing" textLength="96.8652" x="505.51" y="535.7822">completarGestion()</text></g><!--link Menu to Tablon--><g class="link" data-entity-1="ent0002" data-entity-2="ent0011" data-link-type="dependency" data-source-line="42" id="lnk25"><path d="M454.24,614.5 C473.21,606.16 489.51,599 489.51,599 C489.51,599 617.51,599 617.51,599 C617.51,599 648.1436,605.007 680.9036,611.437" fill="none" id="Menu-to-Tablon" style="stroke:#BBBBBB;stroke-width:1.2;"/><polygon fill="#BBBBBB" points="685.81,612.4,677.7489,606.7415,680.9036,611.437,676.2081,614.5917,685.81,612.4" style="stroke:#BBBBBB;stroke-width:1.2;stroke-linejoin:miter;stroke-miterlimit:10;"/><text fill="#000000" font-family="Arial" font-size="10" lengthAdjust="spacing" textLength="65.0977" x="521.01" y="596.2822">abrirTablon()</text></g><!--link Tablon to Menu--><g class="link" data-entity-1="ent0011" data-entity-2="ent0002" data-link-type="dependency" data-source-line="82" id="lnk54"><path d="M685.51,625.69 C624.18,628.72 529.4839,633.4029 464.6139,636.6129" fill="none" id="Tablon-to-Menu" style="stroke:#BBBBBB;stroke-width:1.2;"/><polygon fill="#BBBBBB" points="459.62,636.86,468.8067,640.4103,464.6139,636.6129,468.4113,632.4201,459.62,636.86" style="stroke:#BBBBBB;stroke-width:1.2;stroke-linejoin:miter;stroke-miterlimit:10;"/><text fill="#000000" font-family="Arial" font-size="10" lengthAdjust="spacing" textLength="96.8652" x="505.51" y="626.7622">completarGestion()</text></g><!--link Menu to Directorio--><g class="link" data-entity-1="ent0002" data-entity-2="ent0013" data-link-type="dependency" data-source-line="43" id="lnk26"><path d="M459.62,653.66 C520.8,666.83 608.0822,685.6269 669.8122,698.9269" fill="none" id="Menu-to-Directorio" style="stroke:#BBBBBB;stroke-width:1.2;"/><polygon fill="#BBBBBB" points="674.7,699.98,666.7444,694.1741,669.8122,698.9269,665.0594,701.9947,674.7,699.98" style="stroke:#BBBBBB;stroke-width:1.2;stroke-linejoin:miter;stroke-miterlimit:10;"/><text fill="#000000" font-family="Arial" font-size="10" lengthAdjust="spacing" textLength="80.5664" x="513.51" y="659.1522">abrirDirectorio()</text></g><!--link Directorio to Menu--><g class="link" data-entity-1="ent0013" data-entity-2="ent0002" data-link-type="dependency" data-source-line="83" id="lnk55"><path d="M674.69,712.18 C600.53,710.11 489.51,707 489.51,707 C489.51,707 461.9615,687.2162 435.5415,668.2462" fill="none" id="Directorio-to-Menu" style="stroke:#BBBBBB;stroke-width:1.2;"/><polygon fill="#BBBBBB" points="431.48,665.33,436.4577,673.8284,435.5415,668.2462,441.1237,667.33,431.48,665.33" style="stroke:#BBBBBB;stroke-width:1.2;stroke-linejoin:miter;stroke-miterlimit:10;"/><text fill="#000000" font-family="Arial" font-size="10" lengthAdjust="spacing" textLength="96.8652" x="505.51" y="704.2822">completarGestion()</text></g><!--link Menu to Ajustes--><g class="link" data-entity-1="ent0002" data-entity-2="ent0014" data-link-type="dependency" data-source-line="44" id="lnk27"><path d="M421.7,665.14 C449.33,692.38 489.51,732 489.51,732 C489.51,732 606.4543,770.7756 680.1243,795.2156" fill="none" id="Menu-to-Ajustes" style="stroke:#BBBBBB;stroke-width:1.2;"/><polygon fill="#BBBBBB" points="684.87,796.79,677.5873,790.1596,680.1243,795.2156,675.0683,797.7527,684.87,796.79" style="stroke:#BBBBBB;stroke-width:1.2;stroke-linejoin:miter;stroke-miterlimit:10;"/><text fill="#000000" font-family="Arial" font-size="10" lengthAdjust="spacing" textLength="67.7295" x="520.01" y="729.2822">abrirAjustes()</text></g><!--link Ajustes to Menu--><g class="link" data-entity-1="ent0014" data-entity-2="ent0002" data-link-type="dependency" data-source-line="84" id="lnk56"><path d="M684.87,810.61 C611.2,804.72 489.51,795 489.51,795 C489.51,795 440.4188,713.4537 413.9788,669.5337" fill="none" id="Ajustes-to-Menu" style="stroke:#BBBBBB;stroke-width:1.2;"/><polygon fill="#BBBBBB" points="411.4,665.25,412.6149,675.0236,413.9788,669.5337,419.4688,670.8976,411.4,665.25" style="stroke:#BBBBBB;stroke-width:1.2;stroke-linejoin:miter;stroke-miterlimit:10;"/><text fill="#000000" font-family="Arial" font-size="10" lengthAdjust="spacing" textLength="96.8652" x="505.51" y="792.2822">completarGestion()</text></g><!--link Menu to Admin--><g class="link" data-entity-1="ent0002" data-entity-2="ent0016" data-link-type="dependency" data-source-line="45" id="lnk28"><path d="M408.98,665.47 C434.54,716.41 489.51,826 489.51,826 C489.51,826 593.9154,865.6257 668.0554,893.7657" fill="none" id="Menu-to-Admin" style="stroke:#BBBBBB;stroke-width:1.2;"/><polygon fill="#BBBBBB" points="672.73,895.54,665.7351,888.6066,668.0554,893.7657,662.8963,896.086,672.73,895.54" style="stroke:#BBBBBB;stroke-width:1.2;stroke-linejoin:miter;stroke-miterlimit:10;"/><text fill="#000000" font-family="Arial" font-size="10" lengthAdjust="spacing" textLength="106.2061" x="500.51" y="823.2822">abrirAdministracion()</text></g><!--link Admin to Menu--><g class="link" data-entity-1="ent0016" data-entity-2="ent0002" data-link-type="dependency" data-source-line="85" id="lnk57"><path d="M662.66,912.99 C589.12,905.35 489.51,895 489.51,895 C489.51,895 430.8081,734.5756 407.2081,670.0756" fill="none" id="Admin-to-Menu" style="stroke:#BBBBBB;stroke-width:1.2;"/><polygon fill="#BBBBBB" points="405.49,665.38,404.8261,675.2065,407.2081,670.0756,412.339,672.4576,405.49,665.38" style="stroke:#BBBBBB;stroke-width:1.2;stroke-linejoin:miter;stroke-miterlimit:10;"/><text fill="#000000" font-family="Arial" font-size="10" lengthAdjust="spacing" textLength="96.8652" x="505.51" y="892.2822">completarGestion()</text></g><!--link Menu to Panel--><g class="link" data-entity-1="ent0002" data-entity-2="ent0017" data-link-type="dependency" data-source-line="46" id="lnk29"><path d="M404.4,665.39 C427.17,735.91 489.51,929 489.51,929 C489.51,929 588.1372,963.2782 662.0072,988.9582" fill="none" id="Menu-to-Panel" style="stroke:#BBBBBB;stroke-width:1.2;"/><polygon fill="#BBBBBB" points="666.73,990.6,659.5425,983.8665,662.0072,988.9582,656.9156,991.423,666.73,990.6" style="stroke:#BBBBBB;stroke-width:1.2;stroke-linejoin:miter;stroke-miterlimit:10;"/><text fill="#000000" font-family="Arial" font-size="10" lengthAdjust="spacing" textLength="107.1045" x="500.01" y="926.2822">abrirPanelAnaliticas()</text></g><!--link Panel to Menu--><g class="link" data-entity-1="ent0017" data-entity-2="ent0002" data-link-type="dependency" data-source-line="86" id="lnk58"><path d="M657.84,1008.8 C584.85,1002.38 489.51,994 489.51,994 C489.51,994 425.5847,751.4648 404.1847,670.2948" fill="none" id="Panel-to-Menu" style="stroke:#BBBBBB;stroke-width:1.2;"/><polygon fill="#BBBBBB" points="402.91,665.46,401.3366,675.1824,404.1847,670.2948,409.0722,673.1429,402.91,665.46" style="stroke:#BBBBBB;stroke-width:1.2;stroke-linejoin:miter;stroke-miterlimit:10;"/><text fill="#000000" font-family="Arial" font-size="10" lengthAdjust="spacing" textLength="96.8652" x="505.51" y="991.2822">completarGestion()</text></g><!--link CalParking to EditPlaza--><g class="link" data-entity-1="ent0003" data-entity-2="ent0004" data-link-type="dependency" data-source-line="48" id="lnk30"><path d="M764.23,157.51 C799.53,117.38 864.08,44 864.08,44 C864.08,44 981.4861,38.1969 1052.4861,34.6869" fill="none" id="CalParking-to-EditPlaza" style="stroke:#4169E1;stroke-width:3;"/><polygon fill="#4169E1" points="1057.48,34.44,1048.2935,30.8893,1052.4861,34.6869,1048.6885,38.8795,1057.48,34.44" style="stroke:#4169E1;stroke-width:3;stroke-linejoin:miter;stroke-miterlimit:10;"/><text fill="#000000" font-family="Arial" font-size="10" lengthAdjust="spacing" textLength="76.0107" x="902.58" y="33.8522">reservarPlaza()</text></g><!--link EditPlaza to CalParking--><g class="link" data-entity-1="ent0004" data-entity-2="ent0003" data-link-type="dependency" data-source-line="55" id="lnk36"><path d="M1057.48,50.52 C986.48,77.13 864.08,123 864.08,123 C864.08,123 831.479,138.9979 798.149,155.3479" fill="none" id="EditPlaza-to-CalParking" style="stroke:#4169E1;stroke-width:3;"/><polygon fill="#4169E1" points="793.66,157.55,803.5018,157.1775,798.149,155.3479,799.9785,149.9951,793.66,157.55" style="stroke:#4169E1;stroke-width:3;stroke-linejoin:miter;stroke-miterlimit:10;"/><text fill="#000000" font-family="Arial" font-size="10" lengthAdjust="spacing" textLength="122.666" x="879.58" y="63.9522">abrirCalendarioParking()</text></g><!--link CalParking to EditCesion--><g class="link" data-entity-1="ent0003" data-entity-2="ent0005" data-link-type="dependency" data-source-line="49" id="lnk31"><path d="M833.23,158.33 C850.92,153.55 864.08,150 864.08,150 C864.08,150 978.1434,145.7755 1049.5234,143.1255" fill="none" id="CalParking-to-EditCesion" style="stroke:#BBBBBB;stroke-width:1.2;"/><polygon fill="#BBBBBB" points="1054.52,142.94,1045.3778,139.2767,1049.5234,143.1255,1045.6746,147.2711,1054.52,142.94" style="stroke:#BBBBBB;stroke-width:1.2;stroke-linejoin:miter;stroke-miterlimit:10;"/><text fill="#000000" font-family="Arial" font-size="10" lengthAdjust="spacing" textLength="62.3779" x="909.58" y="141.7122">cederPlaza()</text></g><!--link EditCesion to CalParking--><g class="link" data-entity-1="ent0005" data-entity-2="ent0003" data-link-type="dependency" data-source-line="56" id="lnk37"><path d="M1054.66,156.12 C1034.9,161.84 1017.08,167 1017.08,167 C1017.08,167 918.2016,172.7503 838.0716,177.4003" fill="none" id="EditCesion-to-CalParking" style="stroke:#BBBBBB;stroke-width:1.2;"/><polygon fill="#BBBBBB" points="833.08,177.69,842.2966,181.1619,838.0716,177.4003,841.8332,173.1753,833.08,177.69" style="stroke:#BBBBBB;stroke-width:1.2;stroke-linejoin:miter;stroke-miterlimit:10;"/><text fill="#000000" font-family="Arial" font-size="10" lengthAdjust="spacing" textLength="122.666" x="879.58" y="164.2822">abrirCalendarioParking()</text></g><!--link CalParking to EditVisitante--><g class="link" data-entity-1="ent0003" data-entity-2="ent0006" data-link-type="dependency" data-source-line="50" id="lnk32"><path d="M832.99,199.23 C899.95,211.15 984.0773,226.1342 1042.1973,236.4742" fill="none" id="CalParking-to-EditVisitante" style="stroke:#BBBBBB;stroke-width:1.2;"/><polygon fill="#BBBBBB" points="1047.12,237.35,1038.9598,231.8354,1042.1973,236.4742,1037.5585,239.7117,1047.12,237.35" style="stroke:#BBBBBB;stroke-width:1.2;stroke-linejoin:miter;stroke-miterlimit:10;"/><text fill="#000000" font-family="Arial" font-size="10" lengthAdjust="spacing" textLength="94.7412" x="893.58" y="203.1622">registrarVisitante()</text></g><!--link EditVisitante to CalParking--><g class="link" data-entity-1="ent0006" data-entity-2="ent0003" data-link-type="dependency" data-source-line="57" id="lnk38"><path d="M1047,250.67 C1030.52,251.4 1017.08,252 1017.08,252 C1017.08,252 864.08,252 864.08,252 C864.08,252 826.1748,230.6068 791.3448,210.9568" fill="none" id="EditVisitante-to-CalParking" style="stroke:#BBBBBB;stroke-width:1.2;"/><polygon fill="#BBBBBB" points="786.99,208.5,792.8631,216.4061,791.3448,210.9568,796.794,209.4385,786.99,208.5" style="stroke:#BBBBBB;stroke-width:1.2;stroke-linejoin:miter;stroke-miterlimit:10;"/><text fill="#000000" font-family="Arial" font-size="10" lengthAdjust="spacing" textLength="122.666" x="879.58" y="249.2822">abrirCalendarioParking()</text></g><!--link CalParking to CalParking--><g class="link" data-entity-1="ent0003" data-entity-2="ent0003" data-link-type="dependency" data-source-line="51" id="lnk33"><path d="M730.24,157.72 C727.03,140.23 730.56,123 740.8,123 C751.04,123 755.4599,135.3116 752.2599,152.8016" fill="none" id="CalParking-to-CalParking" style="stroke:#4169E1;stroke-width:2;"/><polygon fill="#4169E1" points="751.36,157.72,756.9145,149.5869,752.2599,152.8016,749.0451,148.1471,751.36,157.72" style="stroke:#4169E1;stroke-width:2;stroke-linejoin:miter;stroke-miterlimit:10;"/><text fill="#000000" font-family="Arial" font-size="10" lengthAdjust="spacing" textLength="128.5791" x="676.8" y="115.2822">cancelarReservaParking()</text></g><!--link CalParking to CalParking--><g class="link" data-entity-1="ent0003" data-entity-2="ent0003" data-link-type="dependency" data-source-line="52" id="lnk34"><path d="M724.39,157.7 C711.19,125.89 716.66,88 740.8,88 C764.94,88 772.3264,121.2718 759.1264,153.0818" fill="none" id="CalParking-to-CalParking-1" style="stroke:#BBBBBB;stroke-width:1.2;"/><polygon fill="#BBBBBB" points="757.21,157.7,764.354,150.9204,759.1264,153.0818,756.9649,147.8542,757.21,157.7" style="stroke:#BBBBBB;stroke-width:1.2;stroke-linejoin:miter;stroke-miterlimit:10;"/><text fill="#000000" font-family="Arial" font-size="10" lengthAdjust="spacing" textLength="84.0137" x="698.8" y="80.2822">cancelarCesion()</text></g><!--link CalParking to CalParking--><g class="link" data-entity-1="ent0003" data-entity-2="ent0003" data-link-type="dependency" data-source-line="53" id="lnk35"><path d="M720.99,157.79 C695.33,112.72 701.93,53 740.8,53 C779.66,53 788.7438,108.3749 763.0838,153.4449" fill="none" id="CalParking-to-CalParking-2" style="stroke:#BBBBBB;stroke-width:1.2;"/><polygon fill="#BBBBBB" points="760.61,157.79,768.539,151.9478,763.0838,153.4449,761.5868,147.9897,760.61,157.79" style="stroke:#BBBBBB;stroke-width:1.2;stroke-linejoin:miter;stroke-miterlimit:10;"/><text fill="#000000" font-family="Arial" font-size="10" lengthAdjust="spacing" textLength="94.502" x="693.8" y="45.2822">cancelarVisitante()</text></g><!--link CalOficinas to EditPuesto--><g class="link" data-entity-1="ent0007" data-entity-2="ent0008" data-link-type="dependency" data-source-line="59" id="lnk39"><path d="M834.23,358.68 C914.2,360.13 1017.08,362 1017.08,362 C1017.08,362 1028.9749,362.5281 1048.1049,363.3781" fill="none" id="CalOficinas-to-EditPuesto" style="stroke:#BBBBBB;stroke-width:1.2;"/><polygon fill="#BBBBBB" points="1053.1,363.6,1044.2864,359.2044,1048.1049,363.3781,1043.9313,367.1966,1053.1,363.6" style="stroke:#BBBBBB;stroke-width:1.2;stroke-linejoin:miter;stroke-miterlimit:10;"/><text fill="#000000" font-family="Arial" font-size="10" lengthAdjust="spacing" textLength="83.4668" x="899.08" y="356.6322">reservarPuesto()</text></g><!--link EditPuesto to CalOficinas--><g class="link" data-entity-1="ent0008" data-entity-2="ent0007" data-link-type="dependency" data-source-line="62" id="lnk41"><path d="M1053.1,373.79 C1033.97,376.56 1017.08,379 1017.08,379 C1017.08,379 864.08,379 864.08,379 C864.08,379 856.461,377.6255 839.401,374.5555" fill="none" id="EditPuesto-to-CalOficinas" style="stroke:#BBBBBB;stroke-width:1.2;"/><polygon fill="#BBBBBB" points="834.48,373.67,842.6293,379.2007,839.401,374.5555,844.0462,371.3272,834.48,373.67" style="stroke:#BBBBBB;stroke-width:1.2;stroke-linejoin:miter;stroke-miterlimit:10;"/><text fill="#000000" font-family="Arial" font-size="10" lengthAdjust="spacing" textLength="125.2637" x="878.08" y="376.2822">abrirCalendarioOficinas()</text></g><!--link CalOficinas to CalOficinas--><g class="link" data-entity-1="ent0007" data-entity-2="ent0007" data-link-type="dependency" data-source-line="60" id="lnk40"><path d="M709.11,331.72 C699.51,314.23 710.07,297 740.8,297 C771.52,297 784.4978,309.8479 774.8878,327.3379" fill="none" id="CalOficinas-to-CalOficinas" style="stroke:#BBBBBB;stroke-width:1.2;"/><polygon fill="#BBBBBB" points="772.48,331.72,780.3196,325.7585,774.8878,327.3379,773.3083,321.906,772.48,331.72" style="stroke:#BBBBBB;stroke-width:1.2;stroke-linejoin:miter;stroke-miterlimit:10;"/><text fill="#000000" font-family="Arial" font-size="10" lengthAdjust="spacing" textLength="124.8242" x="678.8" y="289.2822">cancelarReservaPuesto()</text></g><!--link Bandeja to EditSolicitud--><g class="link" data-entity-1="ent0009" data-entity-2="ent0010" data-link-type="dependency" data-source-line="64" id="lnk42"><path d="M833.23,475.82 C850.92,471.34 864.08,468 864.08,468 C864.08,468 1017.08,468 1017.08,468 C1017.08,468 1028.2315,473.0837 1046.5015,481.4237" fill="none" id="Bandeja-to-EditSolicitud" style="stroke:#BBBBBB;stroke-width:1.2;"/><polygon fill="#BBBBBB" points="1051.05,483.5,1044.5238,476.1238,1046.5015,481.4237,1041.2016,483.4014,1051.05,483.5" style="stroke:#BBBBBB;stroke-width:1.2;stroke-linejoin:miter;stroke-miterlimit:10;"/><text fill="#000000" font-family="Arial" font-size="10" lengthAdjust="spacing" textLength="92.4072" x="894.58" y="465.2822">solicitarAusencia()</text></g><!--link Bandeja to EditSolicitud--><g class="link" data-entity-1="ent0009" data-entity-2="ent0010" data-link-type="dependency" data-source-line="65" id="lnk43"><path d="M832.99,501.5 C899.84,503.33 983.7219,505.6233 1041.8419,507.2133" fill="none" id="Bandeja-to-EditSolicitud-1" style="stroke:#BBBBBB;stroke-width:1.2;"/><polygon fill="#BBBBBB" points="1046.84,507.35,1037.9528,503.1054,1041.8419,507.2133,1037.734,511.1024,1046.84,507.35" style="stroke:#BBBBBB;stroke-width:1.2;stroke-linejoin:miter;stroke-miterlimit:10;"/><text fill="#000000" font-family="Arial" font-size="10" lengthAdjust="spacing" textLength="143.0957" x="869.08" y="499.8022">gestionarSolicitudAusencia()</text></g><!--link Bandeja to EditSolicitud--><g class="link" data-entity-1="ent0009" data-entity-2="ent0010" data-link-type="dependency" data-source-line="66" id="lnk44"><path d="M833.23,519.93 C850.92,523.99 864.08,527 864.08,527 C864.08,527 1017.08,527 1017.08,527 C1017.08,527 1025.6173,525.2917 1042.0973,521.9917" fill="none" id="Bandeja-to-EditSolicitud-2" style="stroke:#BBBBBB;stroke-width:1.2;"/><polygon fill="#BBBBBB" points="1047,521.01,1037.3898,518.855,1042.0973,521.9917,1038.9606,526.6992,1047,521.01" style="stroke:#BBBBBB;stroke-width:1.2;stroke-linejoin:miter;stroke-miterlimit:10;"/><text fill="#000000" font-family="Arial" font-size="10" lengthAdjust="spacing" textLength="151.9238" x="865.08" y="524.2822">gestionarValidacionAusencia()</text></g><!--link EditSolicitud to Bandeja--><g class="link" data-entity-1="ent0010" data-entity-2="ent0009" data-link-type="dependency" data-source-line="69" id="lnk46"><path d="M1048.25,534.47 C1031.21,541.87 1017.08,548 1017.08,548 C1017.08,548 864.08,548 864.08,548 C864.08,548 839.5711,538.1802 809.7311,526.2202" fill="none" id="EditSolicitud-to-Bandeja" style="stroke:#BBBBBB;stroke-width:1.2;"/><polygon fill="#BBBBBB" points="805.09,524.36,811.9558,531.4212,809.7311,526.2202,814.9321,523.9954,805.09,524.36" style="stroke:#BBBBBB;stroke-width:1.2;stroke-linejoin:miter;stroke-miterlimit:10;"/><text fill="#000000" font-family="Arial" font-size="10" lengthAdjust="spacing" textLength="126.2793" x="877.58" y="545.2822">abrirBandejaSolicitudes()</text></g><!--link Bandeja to Bandeja--><g class="link" data-entity-1="ent0009" data-entity-2="ent0009" data-link-type="dependency" data-source-line="67" id="lnk45"><path d="M709.11,473.72 C699.51,456.23 710.07,439 740.8,439 C771.52,439 784.4978,451.8479 774.8878,469.3379" fill="none" id="Bandeja-to-Bandeja" style="stroke:#BBBBBB;stroke-width:1.2;"/><polygon fill="#BBBBBB" points="772.48,473.72,780.3196,467.7585,774.8878,469.3379,773.3083,463.906,772.48,473.72" style="stroke:#BBBBBB;stroke-width:1.2;stroke-linejoin:miter;stroke-miterlimit:10;"/><text fill="#000000" font-family="Arial" font-size="10" lengthAdjust="spacing" textLength="138.623" x="671.8" y="431.2822">cancelarSolicitudAusencia()</text></g><!--link Tablon to EditAnuncio--><g class="link" data-entity-1="ent0011" data-entity-2="ent0012" data-link-type="dependency" data-source-line="71" id="lnk47"><path d="M796.07,629.69 C864.1,638.07 975.2576,651.7681 1044.6776,660.3281" fill="none" id="Tablon-to-EditAnuncio" style="stroke:#BBBBBB;stroke-width:1.2;"/><polygon fill="#BBBBBB" points="1049.64,660.94,1041.1972,655.8686,1044.6776,660.3281,1040.2181,663.8085,1049.64,660.94" style="stroke:#BBBBBB;stroke-width:1.2;stroke-linejoin:miter;stroke-miterlimit:10;"/><text fill="#000000" font-family="Arial" font-size="10" lengthAdjust="spacing" textLength="88.3789" x="896.58" y="636.1222">publicarAnuncio()</text></g><!--link EditAnuncio to Tablon--><g class="link" data-entity-1="ent0012" data-entity-2="ent0011" data-link-type="dependency" data-source-line="73" id="lnk48"><path d="M1049.52,673.75 C1031.91,675.51 1017.08,677 1017.08,677 C1017.08,677 864.08,677 864.08,677 C864.08,677 833.1237,663.3302 800.3637,648.8602" fill="none" id="EditAnuncio-to-Tablon" style="stroke:#BBBBBB;stroke-width:1.2;"/><polygon fill="#BBBBBB" points="795.79,646.84,802.4065,654.1353,800.3637,648.8602,805.6388,646.8174,795.79,646.84" style="stroke:#BBBBBB;stroke-width:1.2;stroke-linejoin:miter;stroke-miterlimit:10;"/><text fill="#000000" font-family="Arial" font-size="10" lengthAdjust="spacing" textLength="65.0977" x="908.08" y="674.2822">abrirTablon()</text></g><!--link Ajustes to EditPerfil--><g class="link" data-entity-1="ent0014" data-entity-2="ent0015" data-link-type="dependency" data-source-line="75" id="lnk49"><path d="M796.86,815 C867.28,815 983.26,815 1051.42,815" fill="none" id="Ajustes-to-EditPerfil" style="stroke:#BBBBBB;stroke-width:1.2;"/><polygon fill="#BBBBBB" points="1056.42,815,1047.42,811,1051.42,815,1047.42,819,1056.42,815" style="stroke:#BBBBBB;stroke-width:1.2;stroke-linejoin:miter;stroke-miterlimit:10;"/><text fill="#000000" font-family="Arial" font-size="10" lengthAdjust="spacing" textLength="62.6123" x="909.58" y="812.2822">editarPerfil()</text></g><!--link EditPerfil to Ajustes--><g class="link" data-entity-1="ent0015" data-entity-2="ent0014" data-link-type="dependency" data-source-line="77" id="lnk50"><path d="M1056.22,826.85 C1035.85,831.61 1017.08,836 1017.08,836 C1017.08,836 864.08,836 864.08,836 C864.08,836 834.248,830.8756 801.788,825.3056" fill="none" id="EditPerfil-to-Ajustes" style="stroke:#BBBBBB;stroke-width:1.2;"/><polygon fill="#BBBBBB" points="796.86,824.46,805.0539,829.9245,801.788,825.3056,806.4068,822.0397,796.86,824.46" style="stroke:#BBBBBB;stroke-width:1.2;stroke-linejoin:miter;stroke-miterlimit:10;"/><text fill="#000000" font-family="Arial" font-size="10" lengthAdjust="spacing" textLength="67.7295" x="907.08" y="833.2822">abrirAjustes()</text></g><?plantuml-src fLNRRfim6BxtKrZhpJQjqz8Tf5RQ98VGobqA26WlLbMH2qxgbfh8c4tjqyyn4326B6kvIdv_tty-50-ChuaWZ_2M90yhaPSyTV8i5_3WL7y0P7GfeSoXOAix2LCcQ29Ppa6nfMQCK_cqfd2TPq-RFvstb2v9cSdJd4kFF5A812FPy7l4dYcSVEey5f98Eir5IaLynv87Jei2JZv-xK284FcVxkDH_x4EPwe_Ita_QbT_mpxirBI9e0OSwmy0BOTl8ZV2lhTmt314C_G6aW96ZADIthNcQYIEOlS2BMOu2dmFJ-UkHbzGNcwX3TP1SzUReH3xYm25Fx5tja1Jx8QnhpaEoG8Yb8ihU33VL6wQbRJX1dFq2zNmoY4tPJB8o3CPG3kL_tsuGmlL1lqGhd24O-J5hk7D1d_52YO9Lw0UfHE9VueTxA6e7ug_P0dZwdUF6bowKUnRfeAI5gfZU-0fycRkELf4_bnPYIzdRcG4DIKyfVV4Aae3jp8GvPboIvPfdnAZwNoRiSgjcDncThQGT-avs0u0yP8dp8fWXaFNYVsmnvZfcSo5JK3dbwgZp7IY-xAGr4wb6vxYkPrAAfOii_JEBh2dcZL4JhyrKFh8h3W3vBbAjuVcECPEhxu1uRIr0AxVty33mn_DZ03G3ClXTJrwD-fLpyG9P5nLW8X8z-BRTm1ekO5iw2SmeK9qi0tqo-JRiJlv89ibyltpXjOP8AYuv5OmeMIKfqGbkdxgQ6aDTllLPZPFWzIc1VLNKslPjjdeCBLkC8DQoGRXdPxPmblP8ALfdAw5MZQCrvrWUgHbh92296p4iweTJ9gM8Kuo9bcYSmUC-enMiTrhjJf12of-4w65IazVJUj7PyTLr8Ig6x0VhzrrskHAHoosqW6-vVwHrOJQ1y8JcX4HLc6qRJZkpwWEfnc45t2xeO1UabyzKhtCZtlq3nsTAhn81p0csIfoVMLwVQM5LL97kCRBK54R5S2qiaF9hYq3ZALYHT4UCQMbgFuGWSg2gWkqwVJ_eA-KgwfgQiSsqbVgkL8Jd-fLiPSYuwMRsI5_W6bsXw9TYnWOUzSAgpdaMikwl5LKbTnAsFZGOiONkhNHWR6DxTwipdR5fEccf9LesrPRmFYEjvVydckhFiv9_hZEg39zLjLpvrICSyRhFSuPhyeunpY9UtB6gx23qxsBUtACexWdvoy0?></g></svg>