<svg xmlns="http://www.w3.org/2000/svg" xmlns:xlink="http://www.w3.org/1999/xlink" contentStyleType="text/css" data-diagram-type="STATE" height="1030px" preserveAspectRatio="none" style="width:1175px;height:1030px;background:#FFFFFF;" version="1.1" viewBox="0 0 1175 1030" width="1175px" zoomAndPan="magnify"><?plantuml 1.2026.4?><defs/><g><g class="entity" data-qualified-name="SinAuth" data-source-line="15" id="ent0001"><rect fill="#EEEEEE" height="50" rx="12.5" ry="12.5" style="stroke:#BBBBBB;stroke-width:1.5;" width="110.8936" x="87" y="590"/><line style="stroke:#BBBBBB;stroke-width:1.5;" x1="87" x2="197.8936" y1="611.6406" y2="611.6406"/><text fill="#999999" font-family="Arial" font-size="10" lengthAdjust="spacing" textLength="90.8936" x="97" y="604.2822">SESION_CERRADA</text></g><g class="entity" data-qualified-name="Menu" data-source-line="16" id="ent0002"><rect fill="#EEEEEE" height="50" rx="12.5" ry="12.5" style="stroke:#BBBBBB;stroke-width:1.5;" width="128.6182" x="330.89" y="590"/><line style="stroke:#BBBBBB;stroke-width:1.5;" x1="330.89" x2="459.5082" y1="611.6406" y2="611.6406"/><text fill="#999999" font-family="Arial" font-size="10" lengthAdjust="spacing" textLength="108.6182" x="340.89" y="604.2822">SISTEMA_DISPONIBLE</text></g><g class="entity" data-qualified-name="CalParking" data-source-line="18" id="ent0003"><rect fill="#EEEEEE" height="50" rx="12.5" ry="12.5" style="stroke:#BBBBBB;stroke-width:1.5;" width="183.9551" x="648.82" y="146"/><line style="stroke:#BBBBBB;stroke-width:1.5;" x1="648.82" x2="832.7751" y1="167.6406" y2="167.6406"/><text fill="#999999" font-family="Arial" font-size="10" lengthAdjust="spacing" textLength="163.9551" x="658.82" y="160.2822">CALENDARIO_PARKING_ABIERTO</text></g><g class="entity" data-qualified-name="EditPlaza" data-source-line="19" id="ent0004"><rect fill="#EEEEEE" height="50" rx="12.5" ry="12.5" style="stroke:#BBBBBB;stroke-width:1.5;" width="100" x="1049.92" y="7"/><line style="stroke:#BBBBBB;stroke-width:1.5;" x1="1049.92" x2="1149.92" y1="28.6406" y2="28.6406"/><text fill="#999999" font-family="Arial" font-size="10" lengthAdjust="spacing" textLength="80" x="1059.92" y="21.2822">PLAZA_ABIERTA</text></g><g class="entity" data-qualified-name="EditCesion" data-source-line="20" id="ent0005"><rect fill="#EEEEEE" height="50" rx="12.5" ry="12.5" style="stroke:#BBBBBB;stroke-width:1.5;" width="105.8154" x="1047.01" y="116"/><line style="stroke:#BBBBBB;stroke-width:1.5;" x1="1047.01" x2="1152.8254" y1="137.6406" y2="137.6406"/><text fill="#999999" font-family="Arial" font-size="10" lengthAdjust="spacing" textLength="85.8154" x="1057.01" y="130.2822">CESION_ABIERTA</text></g><g class="entity" data-qualified-name="EditVisitante" data-source-line="21" id="ent0006"><rect fill="#EEEEEE" height="50" rx="12.5" ry="12.5" style="stroke:#BBBBBB;stroke-width:1.5;" width="120.8398" x="1039.5" y="235"/><line style="stroke:#BBBBBB;stroke-width:1.5;" x1="1039.5" x2="1160.3398" y1="256.6406" y2="256.6406"/><text fill="#999999" font-family="Arial" font-size="10" lengthAdjust="spacing" textLength="100.8398" x="1049.5" y="249.2822">VISITANTE_ABIERTO</text></g><g class="entity" data-qualified-name="CalOficinas" data-source-line="22" id="ent0007"><rect fill="#EEEEEE" height="50" rx="12.5" ry="12.5" style="stroke:#BBBBBB;stroke-width:1.5;" width="186.5723" x="647.51" y="314"/><line style="stroke:#BBBBBB;stroke-width:1.5;" x1="647.51" x2="834.0823" y1="335.6406" y2="335.6406"/><text fill="#999999" font-family="Arial" font-size="10" lengthAdjust="spacing" textLength="166.5723" x="657.51" y="328.2822">CALENDARIO_OFICINAS_ABIERTO</text></g><g class="entity" data-qualified-name="EditPuesto" data-source-line="23" id="ent0008"><rect fill="#EEEEEE" height="50" rx="12.5" ry="12.5" style="stroke:#BBBBBB;stroke-width:1.5;" width="108.8916" x="1045.47" y="336"/><line style="stroke:#BBBBBB;stroke-width:1.5;" x1="1045.47" x2="1154.3616" y1="357.6406" y2="357.6406"/><text fill="#999999" font-family="Arial" font-size="10" lengthAdjust="spacing" textLength="88.8916" x="1055.47" y="350.2822">PUESTO_ABIERTO</text></g><g class="entity" data-qualified-name="Bandeja" data-source-line="24" id="ent0009"><rect fill="#FAFAD2" height="50" rx="12.5" ry="12.5" style="stroke:#BBBBBB;stroke-width:1.5;" width="184.3213" x="648.64" y="457"/><line style="stroke:#BBBBBB;stroke-width:1.5;" x1="648.64" x2="832.9613" y1="478.6406" y2="478.6406"/><text fill="#999999" font-family="Arial" font-size="10" lengthAdjust="spacing" textLength="164.3213" x="658.64" y="471.2822">BANDEJA_SOLICITUDES_ABIERTA</text></g><g class="entity" data-qualified-name="EditSolicitud" data-source-line="25" id="ent0010"><rect fill="#FAFAD2" height="50" rx="12.5" ry="12.5" style="stroke:#BBBBBB;stroke-width:1.5;" width="121.665" x="1039.08" y="457"/><line style="stroke:#BBBBBB;stroke-width:1.5;" x1="1039.08" x2="1160.745" y1="478.6406" y2="478.6406"/><text fill="#999999" font-family="Arial" font-size="10" lengthAdjust="spacing" textLength="101.665" x="1049.08" y="471.2822">SOLICITUD_ABIERTA</text></g><g class="entity" data-qualified-name="Tablon" data-source-line="26" id="ent0011"><rect fill="#EEEEEE" height="50" rx="12.5" ry="12.5" style="stroke:#BBBBBB;stroke-width:1.5;" width="109.6289" x="685.98" y="563"/><line style="stroke:#BBBBBB;stroke-width:1.5;" x1="685.98" x2="795.6089" y1="584.6406" y2="584.6406"/><text fill="#999999" font-family="Arial" font-size="10" lengthAdjust="spacing" textLength="89.6289" x="695.98" y="577.2822">TABLON_ABIERTO</text></g><g class="entity" data-qualified-name="EditAnuncio" data-source-line="27" id="ent0012"><rect fill="#EEEEEE" height="50" rx="12.5" ry="12.5" style="stroke:#BBBBBB;stroke-width:1.5;" width="115.8203" x="1042.01" y="590"/><line style="stroke:#BBBBBB;stroke-width:1.5;" x1="1042.01" x2="1157.8303" y1="611.6406" y2="611.6406"/><text fill="#999999" font-family="Arial" font-size="10" lengthAdjust="spacing" textLength="95.8203" x="1052.01" y="604.2822">ANUNCIO_ABIERTO</text></g><g class="entity" data-qualified-name="Directorio" data-source-line="28" id="ent0013"><rect fill="#EEEEEE" height="50" rx="12.5" ry="12.5" style="stroke:#BBBBBB;stroke-width:1.5;" width="131.543" x="675.03" y="659"/><line style="stroke:#BBBBBB;stroke-width:1.5;" x1="675.03" x2="806.573" y1="680.6406" y2="680.6406"/><text fill="#999999" font-family="Arial" font-size="10" lengthAdjust="spacing" textLength="111.543" x="685.03" y="673.2822">DIRECTORIO_ABIERTO</text></g><g class="entity" data-qualified-name="Ajustes" data-source-line="29" id="ent0014"><rect fill="#EEEEEE" height="50" rx="12.5" ry="12.5" style="stroke:#BBBBBB;stroke-width:1.5;" width="111.1279" x="685.23" y="765"/><line style="stroke:#BBBBBB;stroke-width:1.5;" x1="685.23" x2="796.3579" y1="786.6406" y2="786.6406"/><text fill="#999999" font-family="Arial" font-size="10" lengthAdjust="spacing" textLength="91.1279" x="695.23" y="779.2822">AJUSTES_ABIERTO</text></g><g class="entity" data-qualified-name="EditPerfil" data-source-line="30" id="ent0015"><rect fill="#EEEEEE" height="50" rx="12.5" ry="12.5" style="stroke:#BBBBBB;stroke-width:1.5;" width="102.4658" x="1048.68" y="765"/><line style="stroke:#BBBBBB;stroke-width:1.5;" x1="1048.68" x2="1151.1458" y1="786.6406" y2="786.6406"/><text fill="#999999" font-family="Arial" font-size="10" lengthAdjust="spacing" textLength="82.4658" x="1058.68" y="779.2822">PERFIL_ABIERTO</text></g><g class="entity" data-qualified-name="Admin" data-source-line="31" id="ent0016"><rect fill="#EEEEEE" height="50" rx="12.5" ry="12.5" style="stroke:#BBBBBB;stroke-width:1.5;" width="155.9424" x="662.83" y="871"/><line style="stroke:#BBBBBB;stroke-width:1.5;" x1="662.83" x2="818.7724" y1="892.6406" y2="892.6406"/><text fill="#999999" font-family="Arial" font-size="10" lengthAdjust="spacing" textLength="135.9424" x="672.83" y="885.2822">ADMINISTRACION_ABIERTA</text></g><g class="entity" data-qualified-name="Panel" data-source-line="32" id="ent0017"><rect fill="#EEEEEE" height="50" rx="12.5" ry="12.5" style="stroke:#BBBBBB;stroke-width:1.5;" width="165.0488" x="658.27" y="966"/><line style="stroke:#BBBBBB;stroke-width:1.5;" x1="658.27" x2="823.3188" y1="987.6406" y2="987.6406"/><text fill="#999999" font-family="Arial" font-size="10" lengthAdjust="spacing" textLength="145.0488" x="668.27" y="980.2822">PANEL_ANALITICAS_ABIERTO</text></g><g class="start_entity" data-qualified-name=".start." data-source-line="34" id="ent0018"><ellipse cx="16" cy="615" fill="#222222" rx="10" ry="10" style="stroke:#222222;stroke-width:1;"/></g><!--link *start* to SinAuth--><g class="link" data-entity-1="ent0018" data-entity-2="ent0001" data-link-type="dependency" data-source-line="34" id="lnk19"><path d="M26.35,615 C39.3,615 58.69,615 81.69,615" fill="none" id="*start*-to-SinAuth" style="stroke:#BBBBBB;stroke-width:1.2;"/><polygon fill="#BBBBBB" points="86.69,615,77.69,611,81.69,615,77.69,619,86.69,615" style="stroke:#BBBBBB;stroke-width:1.2;stroke-linejoin:miter;stroke-miterlimit:10;"/></g><!--link SinAuth to Menu--><g class="link" data-entity-1="ent0001" data-entity-2="ent0002" data-link-type="dependency" data-source-line="36" id="lnk20"><path d="M198.17,615 C237.22,615 284.85,615 325.75,615" fill="none" id="SinAuth-to-Menu" style="stroke:#BBBBBB;stroke-width:1.2;"/><polygon fill="#BBBBBB" points="330.75,615,321.75,611,325.75,615,321.75,619,330.75,615" style="stroke:#BBBBBB;stroke-width:1.2;stroke-linejoin:miter;stroke-miterlimit:10;"/><text fill="#000000" font-family="Arial" font-size="10" lengthAdjust="spacing" textLength="71.1572" x="228.89" y="612.2822">iniciarSesion()</text></g><!--link Menu to SinAuth--><g class="link" data-entity-1="ent0002" data-entity-2="ent0001" data-link-type="dependency" data-source-line="38" id="lnk21"><path d="M330.42,629.36 C314.02,633.05 300.89,636 300.89,636 C300.89,636 227.89,636 227.89,636 C227.89,636 219.3423,633.8763 203.2123,629.8663" fill="none" id="Menu-to-SinAuth" style="stroke:#BBBBBB;stroke-width:1.2;"/><polygon fill="#BBBBBB" points="198.36,628.66,206.1291,634.7132,203.2123,629.8663,208.0592,626.9495,198.36,628.66" style="stroke:#BBBBBB;stroke-width:1.2;stroke-linejoin:miter;stroke-miterlimit:10;"/><text fill="#000000" font-family="Arial" font-size="10" lengthAdjust="spacing" textLength="70.8594" x="229.39" y="633.2822">cerrarSesion()</text></g><!--link Menu to CalParking--><g class="link" data-entity-1="ent0002" data-entity-2="ent0003" data-link-type="dependency" data-source-line="39" id="lnk22"><path d="M402.54,589.66 C423.54,505.7 489.51,242 489.51,242 C489.51,242 573.5197,218.1643 645.3397,197.7943" fill="none" id="Menu-to-CalParking" style="stroke:#BBBBBB;stroke-width:1.2;"/><polygon fill="#BBBBBB" points="650.15,196.43,640.4001,195.0376,645.3397,197.7943,642.583,202.734,650.15,196.43" style="stroke:#BBBBBB;stroke-width:1.2;stroke-linejoin:miter;stroke-miterlimit:10;"/><text fill="#000000" font-family="Arial" font-size="10" lengthAdjust="spacing" textLength="122.666" x="492.51" y="203.7822">abrirCalendarioParking()</text></g><!--link CalParking to Menu--><g class="link" data-entity-1="ent0003" data-entity-2="ent0002" data-link-type="dependency" data-source-line="78" id="lnk50"><path d="M706.06,196.38 C669.86,223.61 617.51,263 617.51,263 C617.51,263 489.51,329 489.51,329 C489.51,329 428.871,514.8666 406.031,584.8666" fill="none" id="CalParking-to-Menu" style="stroke:#BBBBBB;stroke-width:1.2;"/><polygon fill="#BBBBBB" points="404.48,589.62,411.0744,582.3047,406.031,584.8666,403.469,579.8232,404.48,589.62" style="stroke:#BBBBBB;stroke-width:1.2;stroke-linejoin:miter;stroke-miterlimit:10;"/><text fill="#000000" font-family="Arial" font-size="10" lengthAdjust="spacing" textLength="96.8652" x="505.51" y="260.2822">completarGestion()</text></g><!--link Menu to CalOficinas--><g class="link" data-entity-1="ent0002" data-entity-2="ent0007" data-link-type="dependency" data-source-line="40" id="lnk23"><path d="M405.49,589.82 C429.09,525.82 489.51,362 489.51,362 C489.51,362 571.031,354.5074 642.331,347.9574" fill="none" id="Menu-to-CalOficinas" style="stroke:#BBBBBB;stroke-width:1.2;"/><polygon fill="#BBBBBB" points="647.31,347.5,637.9818,344.3401,642.331,347.9574,638.7137,352.3065,647.31,347.5" style="stroke:#BBBBBB;stroke-width:1.2;stroke-linejoin:miter;stroke-miterlimit:10;"/><text fill="#000000" font-family="Arial" font-size="10" lengthAdjust="spacing" textLength="125.2637" x="491.01" y="347.7822">abrirCalendarioOficinas()</text></g><!--link CalOficinas to Menu--><g class="link" data-entity-1="ent0007" data-entity-2="ent0002" data-link-type="dependency" data-source-line="79" id="lnk51"><path d="M680.8,364.46 C606.8,396.39 489.51,447 489.51,447 C489.51,447 438.6276,538.6089 412.5976,585.4789" fill="none" id="CalOficinas-to-Menu" style="stroke:#BBBBBB;stroke-width:1.2;"/><polygon fill="#BBBBBB" points="410.17,589.85,418.0366,583.924,412.5976,585.4789,411.0427,580.0399,410.17,589.85" style="stroke:#BBBBBB;stroke-width:1.2;stroke-linejoin:miter;stroke-miterlimit:10;"/><text fill="#000000" font-family="Arial" font-size="10" lengthAdjust="spacing" textLength="96.8652" x="505.51" y="390.2822">completarGestion()</text></g><!--link Menu to Bandeja--><g class="link" data-entity-1="ent0002" data-entity-2="ent0009" data-link-type="dependency" data-source-line="41" id="lnk24"><path d="M412.24,589.73 C438.92,547.7 489.51,468 489.51,468 C489.51,468 617.51,468 617.51,468 C617.51,468 625.7123,468.9427 643.4023,470.9627" fill="none" id="Menu-to-Bandeja" style="stroke:#DAA520;stroke-width:3;"/><polygon fill="#DAA520" points="648.37,471.53,639.8819,466.5348,643.4023,470.9627,638.9743,474.4831,648.37,471.53" style="stroke:#DAA520;stroke-width:3;stroke-linejoin:miter;stroke-miterlimit:10;"/><text fill="#000000" font-family="Arial" font-size="10" lengthAdjust="spacing" textLength="126.2793" x="490.51" y="465.2822">abrirBandejaSolicitudes()</text></g><!--link Bandeja to Menu--><g class="link" data-entity-1="ent0009" data-entity-2="ent0002" data-link-type="dependency" data-source-line="80" id="lnk52"><path d="M650.15,507.43 C578.33,527.8 489.51,553 489.51,553 C489.51,553 464.3547,569.7132 438.5847,586.8332" fill="none" id="Bandeja-to-Menu" style="stroke:#DAA520;stroke-width:2;"/><polygon fill="#DAA520" points="434.42,589.6,444.1299,587.9516,438.5847,586.8332,439.7031,581.288,434.42,589.6" style="stroke:#DAA520;stroke-width:2;stroke-linejoin:miter;stroke-miterlimit:10;"/><text fill="#000000" font-family="Arial" font-size="10" lengthAdjust="spacing" textLength="96.8652" x="505.51" y="514.7822">completarGestion()</text></g><!--link Menu to Tablon--><g class="link" data-entity-1="ent0002" data-entity-2="ent0011" data-link-type="dependency" data-source-line="42" id="lnk25"><path d="M454.24,589.5 C473.21,581.16 489.51,574 489.51,574 C489.51,574 617.51,574 617.51,574 C617.51,574 648.0824,577.5014 680.8424,581.2514" fill="none" id="Menu-to-Tablon" style="stroke:#BBBBBB;stroke-width:1.2;"/><polygon fill="#BBBBBB" points="685.81,581.82,677.3233,576.8224,680.8424,581.2514,676.4135,584.7705,685.81,581.82" style="stroke:#BBBBBB;stroke-width:1.2;stroke-linejoin:miter;stroke-miterlimit:10;"/><text fill="#000000" font-family="Arial" font-size="10" lengthAdjust="spacing" textLength="65.0977" x="521.01" y="571.2822">abrirTablon()</text></g><!--link Tablon to Menu--><g class="link" data-entity-1="ent0011" data-entity-2="ent0002" data-link-type="dependency" data-source-line="81" id="lnk53"><path d="M685.51,592.27 C624.18,597.09 529.4746,604.5281 464.6046,609.6281" fill="none" id="Tablon-to-Menu" style="stroke:#BBBBBB;stroke-width:1.2;"/><polygon fill="#BBBBBB" points="459.62,610.02,468.9058,613.3023,464.6046,609.6281,468.2788,605.3269,459.62,610.02" style="stroke:#BBBBBB;stroke-width:1.2;stroke-linejoin:miter;stroke-miterlimit:10;"/><text fill="#000000" font-family="Arial" font-size="10" lengthAdjust="spacing" textLength="96.8652" x="505.51" y="595.5722">completarGestion()</text></g><!--link Menu to Directorio--><g class="link" data-entity-1="ent0002" data-entity-2="ent0013" data-link-type="dependency" data-source-line="43" id="lnk26"><path d="M459.62,627.74 C520.8,640.02 608.0679,657.5453 669.7979,669.9453" fill="none" id="Menu-to-Directorio" style="stroke:#BBBBBB;stroke-width:1.2;"/><polygon fill="#BBBBBB" points="674.7,670.93,666.664,665.2359,669.7979,669.9453,665.0885,673.0792,674.7,670.93" style="stroke:#BBBBBB;stroke-width:1.2;stroke-linejoin:miter;stroke-miterlimit:10;"/><text fill="#000000" font-family="Arial" font-size="10" lengthAdjust="spacing" textLength="80.5664" x="513.51" y="632.6722">abrirDirectorio()</text></g><!--link Directorio to Menu--><g class="link" data-entity-1="ent0013" data-entity-2="ent0002" data-link-type="dependency" data-source-line="82" id="lnk54"><path d="M674.69,682.7 C600.53,681.22 489.51,679 489.51,679 C489.51,679 463.4931,661.1585 437.4731,643.3085" fill="none" id="Directorio-to-Menu" style="stroke:#BBBBBB;stroke-width:1.2;"/><polygon fill="#BBBBBB" points="433.35,640.48,438.5088,648.8697,437.4731,643.3085,443.0343,642.2728,433.35,640.48" style="stroke:#BBBBBB;stroke-width:1.2;stroke-linejoin:miter;stroke-miterlimit:10;"/><text fill="#000000" font-family="Arial" font-size="10" lengthAdjust="spacing" textLength="96.8652" x="505.51" y="676.2822">completarGestion()</text></g><!--link Menu to Ajustes--><g class="link" data-entity-1="ent0002" data-entity-2="ent0014" data-link-type="dependency" data-source-line="44" id="lnk27"><path d="M423.19,640.45 C450.75,666.44 489.51,703 489.51,703 C489.51,703 606.4772,743.6582 680.1472,769.2682" fill="none" id="Menu-to-Ajustes" style="stroke:#BBBBBB;stroke-width:1.2;"/><polygon fill="#BBBBBB" points="684.87,770.91,677.6824,764.1766,680.1472,769.2682,675.0556,771.733,684.87,770.91" style="stroke:#BBBBBB;stroke-width:1.2;stroke-linejoin:miter;stroke-miterlimit:10;"/><text fill="#000000" font-family="Arial" font-size="10" lengthAdjust="spacing" textLength="67.7295" x="520.01" y="700.2822">abrirAjustes()</text></g><!--link Ajustes to Menu--><g class="link" data-entity-1="ent0014" data-entity-2="ent0002" data-link-type="dependency" data-source-line="83" id="lnk55"><path d="M684.87,785.17 C611.2,778.7 489.51,768 489.51,768 C489.51,768 440.713,687.989 414.213,644.529" fill="none" id="Ajustes-to-Menu" style="stroke:#BBBBBB;stroke-width:1.2;"/><polygon fill="#BBBBBB" points="411.61,640.26,412.8803,650.0266,414.213,644.529,419.7107,645.8617,411.61,640.26" style="stroke:#BBBBBB;stroke-width:1.2;stroke-linejoin:miter;stroke-miterlimit:10;"/><text fill="#000000" font-family="Arial" font-size="10" lengthAdjust="spacing" textLength="96.8652" x="505.51" y="765.2822">completarGestion()</text></g><!--link Menu to Admin--><g class="link" data-entity-1="ent0002" data-entity-2="ent0016" data-link-type="dependency" data-source-line="45" id="lnk28"><path d="M408.98,640.34 C434.54,691 489.51,800 489.51,800 C489.51,800 594.5616,840.2995 668.7116,868.7395" fill="none" id="Menu-to-Admin" style="stroke:#BBBBBB;stroke-width:1.2;"/><polygon fill="#BBBBBB" points="673.38,870.53,666.4093,863.5723,668.7116,868.7395,663.5444,871.0417,673.38,870.53" style="stroke:#BBBBBB;stroke-width:1.2;stroke-linejoin:miter;stroke-miterlimit:10;"/><text fill="#000000" font-family="Arial" font-size="10" lengthAdjust="spacing" textLength="106.2061" x="500.51" y="797.2822">abrirAdministracion()</text></g><!--link Admin to Menu--><g class="link" data-entity-1="ent0016" data-entity-2="ent0002" data-link-type="dependency" data-source-line="84" id="lnk56"><path d="M662.66,887.68 C589.12,879.75 489.51,869 489.51,869 C489.51,869 430.814,709.2234 407.214,644.9734" fill="none" id="Admin-to-Menu" style="stroke:#BBBBBB;stroke-width:1.2;"/><polygon fill="#BBBBBB" points="405.49,640.28,404.8384,650.1073,407.214,644.9734,412.3478,647.3489,405.49,640.28" style="stroke:#BBBBBB;stroke-width:1.2;stroke-linejoin:miter;stroke-miterlimit:10;"/><text fill="#000000" font-family="Arial" font-size="10" lengthAdjust="spacing" textLength="96.8652" x="505.51" y="866.2822">completarGestion()</text></g><!--link Menu to Panel--><g class="link" data-entity-1="ent0002" data-entity-2="ent0017" data-link-type="dependency" data-source-line="46" id="lnk29"><path d="M404.4,640.39 C427.17,710.91 489.51,904 489.51,904 C489.51,904 588.1372,938.2782 662.0072,963.9582" fill="none" id="Menu-to-Panel" style="stroke:#BBBBBB;stroke-width:1.2;"/><polygon fill="#BBBBBB" points="666.73,965.6,659.5425,958.8665,662.0072,963.9582,656.9156,966.423,666.73,965.6" style="stroke:#BBBBBB;stroke-width:1.2;stroke-linejoin:miter;stroke-miterlimit:10;"/><text fill="#000000" font-family="Arial" font-size="10" lengthAdjust="spacing" textLength="107.1045" x="500.01" y="901.2822">abrirPanelAnaliticas()</text></g><!--link Panel to Menu--><g class="link" data-entity-1="ent0017" data-entity-2="ent0002" data-link-type="dependency" data-source-line="85" id="lnk57"><path d="M657.84,983.8 C584.85,977.38 489.51,969 489.51,969 C489.51,969 425.5847,726.4648 404.1847,645.2948" fill="none" id="Panel-to-Menu" style="stroke:#BBBBBB;stroke-width:1.2;"/><polygon fill="#BBBBBB" points="402.91,640.46,401.3366,650.1824,404.1847,645.2948,409.0722,648.1429,402.91,640.46" style="stroke:#BBBBBB;stroke-width:1.2;stroke-linejoin:miter;stroke-miterlimit:10;"/><text fill="#000000" font-family="Arial" font-size="10" lengthAdjust="spacing" textLength="96.8652" x="505.51" y="966.2822">completarGestion()</text></g><!--link CalParking to EditPlaza--><g class="link" data-entity-1="ent0003" data-entity-2="ent0004" data-link-type="dependency" data-source-line="48" id="lnk30"><path d="M766.25,145.6 C801.94,108.54 864.08,44 864.08,44 C864.08,44 975.8365,38.2845 1044.6965,34.7745" fill="none" id="CalParking-to-EditPlaza" style="stroke:#BBBBBB;stroke-width:1.2;"/><polygon fill="#BBBBBB" points="1049.69,34.52,1040.498,30.9833,1044.6965,34.7745,1040.9053,38.973,1049.69,34.52" style="stroke:#BBBBBB;stroke-width:1.2;stroke-linejoin:miter;stroke-miterlimit:10;"/><text fill="#000000" font-family="Arial" font-size="10" lengthAdjust="spacing" textLength="76.0107" x="898.58" y="34.2122">reservarPlaza()</text></g><!--link EditPlaza to CalParking--><g class="link" data-entity-1="ent0004" data-entity-2="ent0003" data-link-type="dependency" data-source-line="55" id="lnk36"><path d="M1049.62,51.19 C986.6,75.72 881.9294,116.4561 811.9594,143.6961" fill="none" id="EditPlaza-to-CalParking" style="stroke:#BBBBBB;stroke-width:1.2;"/><polygon fill="#BBBBBB" points="807.3,145.51,817.138,145.9724,811.9594,143.6961,814.2357,138.5174,807.3,145.51" style="stroke:#BBBBBB;stroke-width:1.2;stroke-linejoin:miter;stroke-miterlimit:10;"/><text fill="#000000" font-family="Arial" font-size="10" lengthAdjust="spacing" textLength="122.666" x="875.58" y="66.5622">abrirCalendarioParking()</text></g><!--link CalParking to EditCesion--><g class="link" data-entity-1="ent0003" data-entity-2="ent0005" data-link-type="dependency" data-source-line="49" id="lnk31"><path d="M833.23,155.3 C850.92,152.26 864.08,150 864.08,150 C864.08,150 972.6237,145.8414 1041.8037,143.1914" fill="none" id="CalParking-to-EditCesion" style="stroke:#BBBBBB;stroke-width:1.2;"/><polygon fill="#BBBBBB" points="1046.8,143,1037.6535,139.3474,1041.8037,143.1914,1037.9597,147.3416,1046.8,143" style="stroke:#BBBBBB;stroke-width:1.2;stroke-linejoin:miter;stroke-miterlimit:10;"/><text fill="#000000" font-family="Arial" font-size="10" lengthAdjust="spacing" textLength="62.3779" x="905.58" y="141.9722">cederPlaza()</text></g><!--link EditCesion to CalParking--><g class="link" data-entity-1="ent0005" data-entity-2="ent0003" data-link-type="dependency" data-source-line="56" id="lnk37"><path d="M1046.66,156.12 C1026.9,161.84 1009.08,167 1009.08,167 C1009.08,167 915.4694,168.4058 838.0294,169.5558" fill="none" id="EditCesion-to-CalParking" style="stroke:#BBBBBB;stroke-width:1.2;"/><polygon fill="#BBBBBB" points="833.03,169.63,842.0884,173.4959,838.0294,169.5558,841.9696,165.4968,833.03,169.63" style="stroke:#BBBBBB;stroke-width:1.2;stroke-linejoin:miter;stroke-miterlimit:10;"/><text fill="#000000" font-family="Arial" font-size="10" lengthAdjust="spacing" textLength="122.666" x="875.58" y="164.2822">abrirCalendarioParking()</text></g><!--link CalParking to EditVisitante--><g class="link" data-entity-1="ent0003" data-entity-2="ent0006" data-link-type="dependency" data-source-line="50" id="lnk32"><path d="M832.84,193.69 C897.62,209.83 977.9784,229.8608 1034.3084,243.9008" fill="none" id="CalParking-to-EditVisitante" style="stroke:#BBBBBB;stroke-width:1.2;"/><polygon fill="#BBBBBB" points="1039.16,245.11,1031.3946,239.0521,1034.3084,243.9008,1029.4598,246.8146,1039.16,245.11" style="stroke:#BBBBBB;stroke-width:1.2;stroke-linejoin:miter;stroke-miterlimit:10;"/><text fill="#000000" font-family="Arial" font-size="10" lengthAdjust="spacing" textLength="94.7412" x="889.58" y="199.6122">registrarVisitante()</text></g><!--link EditVisitante to CalParking--><g class="link" data-entity-1="ent0006" data-entity-2="ent0003" data-link-type="dependency" data-source-line="57" id="lnk38"><path d="M1039.05,259.24 C969.48,258.35 864.08,257 864.08,257 C864.08,257 817.9897,224.5865 781.9197,199.2165" fill="none" id="EditVisitante-to-CalParking" style="stroke:#BBBBBB;stroke-width:1.2;"/><polygon fill="#BBBBBB" points="777.83,196.34,782.8903,204.7895,781.9197,199.2165,787.4927,198.246,777.83,196.34" style="stroke:#BBBBBB;stroke-width:1.2;stroke-linejoin:miter;stroke-miterlimit:10;"/><text fill="#000000" font-family="Arial" font-size="10" lengthAdjust="spacing" textLength="122.666" x="875.58" y="254.2822">abrirCalendarioParking()</text></g><!--link CalParking to CalParking--><g class="link" data-entity-1="ent0003" data-entity-2="ent0003" data-link-type="dependency" data-source-line="51" id="lnk33"><path d="M730.24,145.72 C727.03,128.23 730.56,111 740.8,111 C751.04,111 755.4599,123.3116 752.2599,140.8016" fill="none" id="CalParking-to-CalParking" style="stroke:#BBBBBB;stroke-width:1.2;"/><polygon fill="#BBBBBB" points="751.36,145.72,756.9145,137.5869,752.2599,140.8016,749.0451,136.1471,751.36,145.72" style="stroke:#BBBBBB;stroke-width:1.2;stroke-linejoin:miter;stroke-miterlimit:10;"/><text fill="#000000" font-family="Arial" font-size="10" lengthAdjust="spacing" textLength="128.5791" x="676.8" y="103.2822">cancelarReservaParking()</text></g><!--link CalParking to CalParking--><g class="link" data-entity-1="ent0003" data-entity-2="ent0003" data-link-type="dependency" data-source-line="52" id="lnk34"><path d="M724.39,145.7 C711.19,113.89 716.66,76 740.8,76 C764.94,76 772.3264,109.2718 759.1264,141.0818" fill="none" id="CalParking-to-CalParking-1" style="stroke:#BBBBBB;stroke-width:1.2;"/><polygon fill="#BBBBBB" points="757.21,145.7,764.354,138.9204,759.1264,141.0818,756.9649,135.8542,757.21,145.7" style="stroke:#BBBBBB;stroke-width:1.2;stroke-linejoin:miter;stroke-miterlimit:10;"/><text fill="#000000" font-family="Arial" font-size="10" lengthAdjust="spacing" textLength="84.0137" x="698.8" y="68.2822">cancelarCesion()</text></g><!--link CalParking to CalParking--><g class="link" data-entity-1="ent0003" data-entity-2="ent0003" data-link-type="dependency" data-source-line="53" id="lnk35"><path d="M720.99,145.79 C695.33,100.72 701.93,41 740.8,41 C779.66,41 788.7438,96.3749 763.0838,141.4449" fill="none" id="CalParking-to-CalParking-2" style="stroke:#BBBBBB;stroke-width:1.2;"/><polygon fill="#BBBBBB" points="760.61,145.79,768.539,139.9478,763.0838,141.4449,761.5868,135.9897,760.61,145.79" style="stroke:#BBBBBB;stroke-width:1.2;stroke-linejoin:miter;stroke-miterlimit:10;"/><text fill="#000000" font-family="Arial" font-size="10" lengthAdjust="spacing" textLength="94.502" x="693.8" y="33.2822">cancelarVisitante()</text></g><!--link CalOficinas to EditPuesto--><g class="link" data-entity-1="ent0007" data-entity-2="ent0008" data-link-type="dependency" data-source-line="59" id="lnk39"><path d="M834.23,344.69 C901.19,348.82 984.4095,353.9421 1040.1595,357.3821" fill="none" id="CalOficinas-to-EditPuesto" style="stroke:#BBBBBB;stroke-width:1.2;"/><polygon fill="#BBBBBB" points="1045.15,357.69,1036.4134,353.1433,1040.1595,357.3821,1035.9207,361.1281,1045.15,357.69" style="stroke:#BBBBBB;stroke-width:1.2;stroke-linejoin:miter;stroke-miterlimit:10;"/><text fill="#000000" font-family="Arial" font-size="10" lengthAdjust="spacing" textLength="83.4668" x="895.08" y="344.0222">reservarPuesto()</text></g><!--link EditPuesto to CalOficinas--><g class="link" data-entity-1="ent0008" data-entity-2="ent0007" data-link-type="dependency" data-source-line="62" id="lnk41"><path d="M1045.1,369.99 C1025.97,373.18 1009.08,376 1009.08,376 C1009.08,376 864.08,376 864.08,376 C864.08,376 852.0263,372.3463 830.8463,365.9463" fill="none" id="EditPuesto-to-CalOficinas" style="stroke:#BBBBBB;stroke-width:1.2;"/><polygon fill="#BBBBBB" points="826.06,364.5,833.5183,370.9323,830.8463,365.9463,835.8323,363.2743,826.06,364.5" style="stroke:#BBBBBB;stroke-width:1.2;stroke-linejoin:miter;stroke-miterlimit:10;"/><text fill="#000000" font-family="Arial" font-size="10" lengthAdjust="spacing" textLength="125.2637" x="874.08" y="373.2822">abrirCalendarioOficinas()</text></g><!--link CalOficinas to CalOficinas--><g class="link" data-entity-1="ent0007" data-entity-2="ent0007" data-link-type="dependency" data-source-line="60" id="lnk40"><path d="M709.11,313.72 C699.51,296.23 710.07,279 740.8,279 C771.52,279 784.4978,291.8479 774.8878,309.3379" fill="none" id="CalOficinas-to-CalOficinas" style="stroke:#BBBBBB;stroke-width:1.2;"/><polygon fill="#BBBBBB" points="772.48,313.72,780.3196,307.7585,774.8878,309.3379,773.3083,303.906,772.48,313.72" style="stroke:#BBBBBB;stroke-width:1.2;stroke-linejoin:miter;stroke-miterlimit:10;"/><text fill="#000000" font-family="Arial" font-size="10" lengthAdjust="spacing" textLength="124.8242" x="678.8" y="271.2822">cancelarReservaPuesto()</text></g><!--link Bandeja to EditSolicitud--><g class="link" data-entity-1="ent0009" data-entity-2="ent0010" data-link-type="dependency" data-source-line="64" id="lnk42"><path d="M833.23,471.53 C850.92,469.51 864.08,468 864.08,468 C864.08,468 1009.08,468 1009.08,468 C1009.08,468 1017.5797,469.3196 1034.0597,471.8896" fill="none" id="Bandeja-to-EditSolicitud" style="stroke:#BBBBBB;stroke-width:1.2;"/><polygon fill="#BBBBBB" points="1039,472.66,1030.7238,467.321,1034.0597,471.8896,1029.4911,475.2255,1039,472.66" style="stroke:#BBBBBB;stroke-width:1.2;stroke-linejoin:miter;stroke-miterlimit:10;"/><text fill="#000000" font-family="Arial" font-size="10" lengthAdjust="spacing" textLength="92.4072" x="890.58" y="465.2822">solicitarAusencia()</text></g><!--link Bandeja to EditSolicitud--><g class="link" data-entity-1="ent0009" data-entity-2="ent0010" data-link-type="dependency" data-source-line="65" id="lnk43"><path d="M833.23,484.24 C850.92,484.68 864.08,485 864.08,485 C864.08,485 1009.08,485 1009.08,485 C1009.08,485 1017.5228,484.7168 1034.0028,484.1668" fill="none" id="Bandeja-to-EditSolicitud-1" style="stroke:#DAA520;stroke-width:3;"/><polygon fill="#DAA520" points="1039,484,1029.8716,480.3024,1034.0028,484.1668,1030.1384,488.298,1039,484" style="stroke:#DAA520;stroke-width:3;stroke-linejoin:miter;stroke-miterlimit:10;"/><text fill="#000000" font-family="Arial" font-size="10" lengthAdjust="spacing" textLength="143.0957" x="865.08" y="482.2822">gestionarSolicitudAusencia()</text></g><!--link EditSolicitud to Bandeja--><g class="link" data-entity-1="ent0010" data-entity-2="ent0009" data-link-type="dependency" data-source-line="68" id="lnk45"><path d="M1039,498.01 C1022.52,502.41 1009.08,506 1009.08,506 C1009.08,506 864.08,506 864.08,506 C864.08,506 855.826,504.3851 838.136,500.9051" fill="none" id="EditSolicitud-to-Bandeja" style="stroke:#DAA520;stroke-width:3;"/><polygon fill="#DAA520" points="833.23,499.94,841.2887,505.602,838.136,500.9051,842.8328,497.7524,833.23,499.94" style="stroke:#DAA520;stroke-width:3;stroke-linejoin:miter;stroke-miterlimit:10;"/><text fill="#000000" font-family="Arial" font-size="10" lengthAdjust="spacing" textLength="126.2793" x="873.58" y="503.2822">abrirBandejaSolicitudes()</text></g><!--link Bandeja to Bandeja--><g class="link" data-entity-1="ent0009" data-entity-2="ent0009" data-link-type="dependency" data-source-line="66" id="lnk44"><path d="M709.11,456.72 C699.51,439.23 710.07,422 740.8,422 C771.52,422 784.4978,434.8479 774.8878,452.3379" fill="none" id="Bandeja-to-Bandeja" style="stroke:#DAA520;stroke-width:2;"/><polygon fill="#DAA520" points="772.48,456.72,780.3196,450.7585,774.8878,452.3379,773.3083,446.906,772.48,456.72" style="stroke:#DAA520;stroke-width:2;stroke-linejoin:miter;stroke-miterlimit:10;"/><text fill="#000000" font-family="Arial" font-size="10" lengthAdjust="spacing" textLength="138.623" x="671.8" y="414.2822">cancelarSolicitudAusencia()</text></g><!--link Tablon to EditAnuncio--><g class="link" data-entity-1="ent0011" data-entity-2="ent0012" data-link-type="dependency" data-source-line="70" id="lnk46"><path d="M796.04,592.1 C862.38,597.12 969.1842,605.1933 1036.8142,610.3033" fill="none" id="Tablon-to-EditAnuncio" style="stroke:#BBBBBB;stroke-width:1.2;"/><polygon fill="#BBBBBB" points="1041.8,610.68,1033.127,606.0133,1036.8142,610.3033,1032.5242,613.9905,1041.8,610.68" style="stroke:#BBBBBB;stroke-width:1.2;stroke-linejoin:miter;stroke-miterlimit:10;"/><text fill="#000000" font-family="Arial" font-size="10" lengthAdjust="spacing" textLength="88.3789" x="892.58" y="594.7822">publicarAnuncio()</text></g><!--link EditAnuncio to Tablon--><g class="link" data-entity-1="ent0012" data-entity-2="ent0011" data-link-type="dependency" data-source-line="72" id="lnk47"><path d="M1041.52,623.95 C1023.91,626.69 1009.08,629 1009.08,629 C1009.08,629 864.08,629 864.08,629 C864.08,629 833.2904,618.6803 800.5304,607.6903" fill="none" id="EditAnuncio-to-Tablon" style="stroke:#BBBBBB;stroke-width:1.2;"/><polygon fill="#BBBBBB" points="795.79,606.1,803.0505,612.7547,800.5304,607.6903,805.5949,605.1702,795.79,606.1" style="stroke:#BBBBBB;stroke-width:1.2;stroke-linejoin:miter;stroke-miterlimit:10;"/><text fill="#000000" font-family="Arial" font-size="10" lengthAdjust="spacing" textLength="65.0977" x="904.08" y="626.2822">abrirTablon()</text></g><!--link Ajustes to EditPerfil--><g class="link" data-entity-1="ent0014" data-entity-2="ent0015" data-link-type="dependency" data-source-line="74" id="lnk48"><path d="M796.81,790 C865.49,790 976.98,790 1043.46,790" fill="none" id="Ajustes-to-EditPerfil" style="stroke:#BBBBBB;stroke-width:1.2;"/><polygon fill="#BBBBBB" points="1048.46,790,1039.46,786,1043.46,790,1039.46,794,1048.46,790" style="stroke:#BBBBBB;stroke-width:1.2;stroke-linejoin:miter;stroke-miterlimit:10;"/><text fill="#000000" font-family="Arial" font-size="10" lengthAdjust="spacing" textLength="62.6123" x="905.58" y="787.2822">editarPerfil()</text></g><!--link EditPerfil to Ajustes--><g class="link" data-entity-1="ent0015" data-entity-2="ent0014" data-link-type="dependency" data-source-line="76" id="lnk49"><path d="M1048.22,801.85 C1027.85,806.61 1009.08,811 1009.08,811 C1009.08,811 864.08,811 864.08,811 C864.08,811 834.248,805.8756 801.788,800.3056" fill="none" id="EditPerfil-to-Ajustes" style="stroke:#BBBBBB;stroke-width:1.2;"/><polygon fill="#BBBBBB" points="796.86,799.46,805.0539,804.9245,801.788,800.3056,806.4068,797.0397,796.86,799.46" style="stroke:#BBBBBB;stroke-width:1.2;stroke-linejoin:miter;stroke-miterlimit:10;"/><text fill="#000000" font-family="Arial" font-size="10" lengthAdjust="spacing" textLength="67.7295" x="903.08" y="808.2822">abrirAjustes()</text></g><?plantuml-src dLLTRzCm57tthuZW1H13CCG3I22vIJOPkgHACYH0gF8IhpFpdCfncE3NupgVjfEeD4_jzJdNz-FutkgUyZqM-C6xmVdzJfGrB_oIbS9xUg4_01YvbPuiFK5tTz8hg22vf2K7LKzbb1FvPq-yVSd-7FwCpWfoYsicBqek8_n0F2WePjFdAVrBl3UlHuULn9AiIb4GaTtH_9wJglBUl7etWc0XoiVnuRbzsAQpqf_ZtCuwrDzq38kU3XcqWFVw0q3RlITfcA8uslfXai00Fl5mvQMKmrhU3TUrI9HcuHNS1YZTn15QhKEDlYAyxg4TreVhC0fWWkBj1YPVK7IvXIiK9bciEJvc6onKY3lxaiqQVeSjjeacBAZSCFmNsr2_YTp6-gHI0h31Nr6ACXXbeH770V-LLbHYha2s_o67-0BvA8AfdKHyItFArMyxY-impMBdgarDAgLL2xo2KH1-XjiqNgjRikiWJ8saLfWNv9TAVttG-6N92iAJilX662iV--PqPASUQSbKaB8kbXraSBNkgzc4dE4RvbOIHjUHZzpa8AzvJfti0fI4VXOd5YFGBxKKBW5-lbOwCqiDVzML96wPm-G2hTqo4t5BcUCtk4AHad02VLisi7YWJfuR68NATmJNA4E-rViDvcIu0VnuyTCxE_lKlHm0kYTqzgDza3_LgNuf7ppALJ-mIBLEdpq7GDiDP4V_uEL4Y17MXOwUagVm-4PGeMo45rWLjpsQO_RwTPdTqOWQGFZk_FLBsSspZsyFRZfvwgzrqzfwwP5gCe9MO0QriKt2HvhfuODjaj89Ptn3Qvl6QoMO4MaRhQJ0-LmJ6ZcOD6s373CgQQxh28nU6Gw68TUw4AGYuZSMsgYuozHsvZNKdAXjS1nlc7twoftEKlJMHRvnek_5F2SCYwG9VP3U2JxyJl0dSCVX0wkm9pqTgy8d-nXL-oGVm7YnhdwQxMBfHnkRGivmZPEfHdOkW7dBWfEbQGACWU5aCQmhvQLg_c01wugexN9Gj4sVdagEgvqAMtLGpTBE-Zy-pvr9DoxKb4jWHd3S-5oSdy0ObqxXklshlUph6qLLTMkCNJm3PduEEuCO64FKbLspRHicAGxTQaozOdh0_6XsP_F2os_tQ5u-x1bHrrqshLqK-JpdkDxFy-UxCiynDjcHdFakB736w-n8Zh7BZkJy0m00?></g></svg>