<svg xmlns="http://www.w3.org/2000/svg" xmlns:xlink="http://www.w3.org/1999/xlink" contentStyleType="text/css" data-diagram-type="STATE" height="828px" preserveAspectRatio="none" style="width:531px;height:828px;background:#FFFFFF;" version="1.1" viewBox="0 0 531 828" width="531px" zoomAndPan="magnify"><?plantuml 1.2026.3?><defs/><g><rect fill="#F1F1F1" height="40" rx="12.5" ry="12.5" style="stroke:#181818;stroke-width:0.5;" width="173.0371" x="174.98" y="7"/><text fill="#000000" font-family="sans-serif" font-size="14" lengthAdjust="spacing" textLength="163.0371" x="179.98" y="31.8467">BANDEJA_SOLICITUDES</text><rect fill="#F1F1F1" height="40" rx="12.5" ry="12.5" style="stroke:#181818;stroke-width:0.5;" width="173.0371" x="174.98" y="774.3"/><text fill="#000000" font-family="sans-serif" font-size="14" lengthAdjust="spacing" textLength="163.0371" x="179.98" y="799.1467">BANDEJA_SOLICITUDES</text><path d="M19.5,108 L503.5,108 A12.5,12.5 0 0 1 516,120.5 L516,134.2969 L7,134.2969 L7,120.5 A12.5,12.5 0 0 1 19.5,108" fill="#F1F1F1"/><rect fill="none" height="571.2969" rx="12.5" ry="12.5" style="stroke:#181818;stroke-width:0.5;" width="509" x="7" y="108"/><line style="stroke:#181818;stroke-width:0.5;" x1="7" x2="516" y1="134.2969" y2="134.2969"/><text fill="#000000" font-family="sans-serif" font-size="14" lengthAdjust="spacing" textLength="189.3965" x="166.8018" y="125.9951">aprobarSolicitudAusencia()</text><rect fill="#F1F1F1" height="40" rx="12.5" ry="12.5" style="stroke:#181818;stroke-width:0.5;" width="50" x="19" y="236.2969"/><text fill="#000000" font-family="sans-serif" font-size="14" lengthAdjust="spacing" textLength="4.4502" x="41.7749" y="261.1436">&#160;</text><rect fill="#F1F1F1" height="40" rx="12.5" ry="12.5" style="stroke:#181818;stroke-width:0.5;" width="50" x="19" y="392.2969"/><text fill="#000000" font-family="sans-serif" font-size="14" lengthAdjust="spacing" textLength="4.4502" x="41.7749" y="417.1436">&#160;</text><rect fill="#F1F1F1" height="40" rx="12.5" ry="12.5" style="stroke:#181818;stroke-width:0.5;" width="50" x="19" y="518.2969"/><text fill="#000000" font-family="sans-serif" font-size="14" lengthAdjust="spacing" textLength="4.4502" x="41.7749" y="543.1436">&#160;</text><g class="start_entity" data-qualified-name="aprobarSolicitudAusencia..start.aprobarSolicitudAusencia" data-source-line="15" id="ent0003"><ellipse cx="44" cy="155.2969" fill="#222222" rx="10" ry="10" style="stroke:#222222;stroke-width:1;"/></g><g class="end_entity" data-qualified-name="aprobarSolicitudAusencia..end.aprobarSolicitudAusencia" data-source-line="34" id="ent0007"><ellipse cx="44" cy="655.2969" fill="none" rx="11" ry="11" style="stroke:#222222;stroke-width:1;"/><ellipse cx="44" cy="655.2969" fill="#222222" rx="6" ry="6" style="stroke:#222222;stroke-width:1;"/></g><!--link *start*aprobarSolicitudAusencia to ListandoSolicitudes--><g class="link" data-entity-1="ent0003" data-entity-2="ent0005" data-link-type="dependency" data-source-line="15" id="lnk4"><path d="M44,165.7869 C44,181.8569 44,208.7269 44,229.8469" fill="none" id="*start*aprobarSolicitudAusencia-to-ListandoSolicitudes" style="stroke:#008000;stroke-width:1;"/><polygon fill="#008000" points="44,235.8469,48,226.8469,44,230.8469,40,226.8469,44,235.8469" style="stroke:#008000;stroke-width:1;"/><path d="M49,188.2969 L49,213.2969 L450,213.2969 L450,198.2969 L440,188.2969 L49,188.2969" fill="#FEFFDD" style="stroke:#181818;stroke-width:0.5;"/><path d="M440,188.2969 L440,198.2969 L450,198.2969 L440,188.2969" fill="#FEFFDD" style="stroke:#181818;stroke-width:0.5;"/><text fill="#000000" font-family="sans-serif" font-size="13" font-weight="700" lengthAdjust="spacing" textLength="64.27" x="55" y="205.3638">Manager</text><text fill="#000000" font-family="sans-serif" font-size="13" lengthAdjust="spacing" textLength="312.2856" x="123.4023" y="205.3638">accede a la bandeja de solicitudes de su equipo</text></g><!--link ListandoSolicitudes to VisualizandoDetalle--><g class="link" data-entity-1="ent0005" data-entity-2="ent0006" data-link-type="dependency" data-source-line="20" id="lnk5"><path d="M44,276.4869 C44,305.9969 44,356.2069 44,385.8669" fill="none" id="ListandoSolicitudes-to-VisualizandoDetalle" style="stroke:#008000;stroke-width:1;"/><polygon fill="#008000" points="44,391.8669,48,382.8669,44,386.8669,40,382.8669,44,391.8669" style="stroke:#008000;stroke-width:1;"/><path d="M49,299.2969 L49,369.2969 L434,369.2969 L434,309.2969 L424,299.2969 L49,299.2969" fill="#FEFFDD" style="stroke:#181818;stroke-width:0.5;"/><path d="M424,299.2969 L424,309.2969 L434,309.2969 L424,299.2969" fill="#FEFFDD" style="stroke:#181818;stroke-width:0.5;"/><text fill="#000000" font-family="sans-serif" font-size="13" font-weight="700" lengthAdjust="spacing" textLength="58.9063" x="55" y="316.3638">Sistema</text><text fill="#000000" font-family="sans-serif" font-size="13" lengthAdjust="spacing" textLength="301.0757" x="118.0386" y="316.3638">muestra solicitudes pendientes de aprobaci&#243;n</text><text fill="#000000" font-family="sans-serif" font-size="13" lengthAdjust="spacing" textLength="147.9512" x="55" y="331.4966">&#8226; Empleado solicitante</text><text fill="#000000" font-family="sans-serif" font-size="13" lengthAdjust="spacing" textLength="204.9468" x="55" y="346.6294">&#8226; Tipo, fechas y d&#237;as laborables</text><text fill="#000000" font-family="sans-serif" font-size="13" font-weight="700" lengthAdjust="spacing" textLength="64.27" x="55" y="361.7622">Manager</text><text fill="#000000" font-family="sans-serif" font-size="13" lengthAdjust="spacing" textLength="155.4541" x="123.4023" y="361.7622">selecciona una solicitud</text></g><!--link VisualizandoDetalle to DecisionTomada--><g class="link" data-entity-1="ent0006" data-entity-2="ent0007" data-link-type="dependency" data-source-line="28" id="lnk6"><path d="M44,432.6669 C44,455.9669 44,488.8269 44,512.0569" fill="none" id="VisualizandoDetalle-to-DecisionTomada" style="stroke:#008000;stroke-width:1;"/><polygon fill="#008000" points="44,518.0569,48,509.0569,44,513.0569,40,509.0569,44,518.0569" style="stroke:#008000;stroke-width:1;"/><path d="M49,455.2969 L49,495.2969 L410,495.2969 L410,465.2969 L400,455.2969 L49,455.2969" fill="#FEFFDD" style="stroke:#181818;stroke-width:0.5;"/><path d="M400,455.2969 L400,465.2969 L410,465.2969 L400,455.2969" fill="#FEFFDD" style="stroke:#181818;stroke-width:0.5;"/><text fill="#000000" font-family="sans-serif" font-size="13" font-weight="700" lengthAdjust="spacing" textLength="58.9063" x="55" y="472.3638">Sistema</text><text fill="#000000" font-family="sans-serif" font-size="13" lengthAdjust="spacing" textLength="277.8242" x="118.0386" y="472.3638">muestra el detalle completo de la solicitud</text><text fill="#000000" font-family="sans-serif" font-size="13" font-weight="700" lengthAdjust="spacing" textLength="64.27" x="55" y="487.4966">Manager</text><text fill="#000000" font-family="sans-serif" font-size="13" lengthAdjust="spacing" textLength="241.4521" x="123.4023" y="487.4966">aprueba o rechaza con nota opcional</text></g><!--link DecisionTomada to *end*aprobarSolicitudAusencia--><g class="link" data-entity-1="ent0007" data-entity-2="ent0007" data-link-type="dependency" data-source-line="34" id="lnk8"><path d="M44,558.5469 C44,583.0969 44,618.6869 44,637.9369" fill="none" id="DecisionTomada-to-*end*aprobarSolicitudAusencia" style="stroke:#008000;stroke-width:1;"/><polygon fill="#008000" points="44,643.9369,48,634.9369,44,638.9369,40,634.9369,44,643.9369" style="stroke:#008000;stroke-width:1;"/><path d="M49,581.2969 L49,621.2969 L492,621.2969 L492,591.2969 L482,581.2969 L49,581.2969" fill="#FEFFDD" style="stroke:#181818;stroke-width:0.5;"/><path d="M482,581.2969 L482,591.2969 L492,591.2969 L482,581.2969" fill="#FEFFDD" style="stroke:#181818;stroke-width:0.5;"/><text fill="#000000" font-family="sans-serif" font-size="13" font-weight="700" lengthAdjust="spacing" textLength="58.9063" x="55" y="598.3638">Sistema</text><text fill="#000000" font-family="sans-serif" font-size="13" lengthAdjust="spacing" textLength="216.8677" x="118.0386" y="598.3638">actualiza el estado de la solicitud</text><text fill="#000000" font-family="sans-serif" font-size="13" font-weight="700" lengthAdjust="spacing" textLength="58.9063" x="55" y="613.4966">Sistema</text><text fill="#000000" font-family="sans-serif" font-size="13" lengthAdjust="spacing" textLength="359.7153" x="118.0386" y="613.4966">notifica al empleado y, si aprobada, al equipo de RRHH</text></g><!--link BandejaInicio to aprobarSolicitudAusencia--><g class="link" data-entity-1="ent0002" data-entity-2="ent0004" data-link-type="dependency" data-source-line="8" id="lnk2"><path d="M261.5,47.35 C261.5,61.56 261.5,76.68 261.5,101.6" fill="none" id="BandejaInicio-to-aprobarSolicitudAusencia" style="stroke:#008000;stroke-width:1;"/><polygon fill="#008000" points="261.5,107.6,265.5,98.6,261.5,102.6,257.5,98.6,261.5,107.6" style="stroke:#008000;stroke-width:1;"/></g><!--link aprobarSolicitudAusencia to BandejaFin--><g class="link" data-entity-1="ent0004" data-entity-2="ent0003" data-link-type="dependency" data-source-line="41" id="lnk9"><path d="M170.91,679.7 C165.09,698.01 161.5,709.3 161.5,709.3 C161.5,709.3 161.5,744.3 161.5,744.3 C161.5,744.3 188.6416,757.6008 216.5916,771.2908" fill="none" id="aprobarSolicitudAusencia-to-BandejaFin" style="stroke:#008000;stroke-width:1;"/><polygon fill="#008000" points="221.98,773.93,215.6569,766.3789,217.4897,771.7306,212.138,773.5634,221.98,773.93" style="stroke:#008000;stroke-width:1;"/><path d="M166.5,714.3 L166.5,739.3 L311.5,739.3 L311.5,724.3 L301.5,714.3 L166.5,714.3" fill="#FEFFDD" style="stroke:#181818;stroke-width:0.5;"/><path d="M301.5,714.3 L301.5,724.3 L311.5,724.3 L301.5,714.3" fill="#FEFFDD" style="stroke:#181818;stroke-width:0.5;"/><text fill="#000000" font-family="sans-serif" font-size="13" lengthAdjust="spacing" textLength="124.3252" x="172.5" y="731.3669">decisi&#243;n registrada</text></g><!--link aprobarSolicitudAusencia to BandejaFin--><g class="link" data-entity-1="ent0004" data-entity-2="ent0003" data-link-type="dependency" data-source-line="46" id="lnk10"><path d="M314.95,679.7 C318.38,698.01 320.5,709.3 320.5,709.3 C320.5,709.3 320.5,744.3 320.5,744.3 C320.5,744.3 305.9264,756.4074 289.4364,770.0974" fill="none" id="aprobarSolicitudAusencia-to-BandejaFin-1" style="stroke:#0000FF;stroke-width:1;"/><polygon fill="#0000FF" points="284.82,773.93,294.2997,771.2588,288.667,770.7362,289.1896,765.1035,284.82,773.93" style="stroke:#0000FF;stroke-width:1;"/><path d="M325.5,714.3 L325.5,739.3 L401.5,739.3 L401.5,724.3 L391.5,714.3 L325.5,714.3" fill="#FEFFDD" style="stroke:#181818;stroke-width:0.5;"/><path d="M391.5,714.3 L391.5,724.3 L401.5,724.3 L391.5,714.3" fill="#FEFFDD" style="stroke:#181818;stroke-width:0.5;"/><text fill="#000000" font-family="sans-serif" font-size="13" lengthAdjust="spacing" textLength="55.4214" x="331.5" y="731.3669">cancelar</text></g><?plantuml-src ZLJDRjD04BxxAKRf1L0gNg2gb9AW1XMGci2bgj1uFKsdNUykk-j3Yf1u5kwSU8I-2K_2xBfjR3UfShBMC_lDzpDsk6NZq6CDcWt5jIDmLg_JeRZcYe1g5zTGKL2UNMHhYY94Z0IZaycdwUp3vDlYyzdytNpvPJfRZ003dA2fw0RdXXNRFPlVi-3sBiBXnS7A4vdBmsD0vss9Vc6rb69JJPf0HZ4-SjbLJnD6kuglNe_WHm7mm10odpEMewdiKpU5OSjN3WrglajjKugeDGrRfgGuY5TBMsCbB04ktbps56sVOwnWM9Eok9KZm55v_14DhiWVlIt51wL8Ca7G26NhbaG3OGEIZmtGzuQT5GWoLKPD7BRCx77QBcmRfuKWKOsPKzrGY1vx99oCPJAnvTC6eFZ-hya0_txzXbdjD65b7w-XD3yLby9z35UahiLBMRxxF_BKM5gFfSv6FNCca2ObQsCG6jCXCx1WYyIU1OFWzbTFMfIsUCecRT4cwRfFvNcWpZTK8bZmIUqTocsJXiehb-NeWO8-mnvvsR4z6AEAhGM9iv1F8UnWshqci7p5IZufdVu9RNZhCGH-oBV2SQxbpKk8v-UdfrtoFujYvtVQbT7v9GoqL5cxh96ujUBaksIqCUSbz58tz3AuGgD8ezy0_WS0?></g></svg>