<svg xmlns="http://www.w3.org/2000/svg" xmlns:xlink="http://www.w3.org/1999/xlink" contentStyleType="text/css" data-diagram-type="STATE" height="828px" preserveAspectRatio="none" style="width:484px;height:828px;background:#FFFFFF;" version="1.1" viewBox="0 0 484 828" width="484px" zoomAndPan="magnify"><?plantuml 1.2026.3?><defs/><g><rect fill="#F1F1F1" height="40" rx="12.5" ry="12.5" style="stroke:#181818;stroke-width:0.5;" width="110.8506" x="182.57" y="7"/><text fill="#000000" font-family="sans-serif" font-size="14" lengthAdjust="spacing" textLength="100.8506" x="187.57" y="31.8467">VISTA_CESION</text><rect fill="#F1F1F1" height="40" rx="12.5" ry="12.5" style="stroke:#181818;stroke-width:0.5;" width="110.8506" x="182.57" y="774.3"/><text fill="#000000" font-family="sans-serif" font-size="14" lengthAdjust="spacing" textLength="100.8506" x="187.57" y="799.1467">VISTA_CESION</text><path d="M19.5,108 L456.5,108 A12.5,12.5 0 0 1 469,120.5 L469,134.2969 L7,134.2969 L7,120.5 A12.5,12.5 0 0 1 19.5,108" fill="#F1F1F1"/><rect fill="none" height="571.2969" rx="12.5" ry="12.5" style="stroke:#181818;stroke-width:0.5;" width="462" x="7" y="108"/><line style="stroke:#181818;stroke-width:0.5;" x1="7" x2="469" y1="134.2969" y2="134.2969"/><text fill="#000000" font-family="sans-serif" font-size="14" lengthAdjust="spacing" textLength="87.3291" x="194.3354" y="125.9951">cederPlaza()</text><rect fill="#F1F1F1" height="40" rx="12.5" ry="12.5" style="stroke:#181818;stroke-width:0.5;" width="50" x="19" y="236.2969"/><text fill="#000000" font-family="sans-serif" font-size="14" lengthAdjust="spacing" textLength="4.4502" x="41.7749" y="261.1436">&#160;</text><rect fill="#F1F1F1" height="40" rx="12.5" ry="12.5" style="stroke:#181818;stroke-width:0.5;" width="50" x="19" y="392.2969"/><text fill="#000000" font-family="sans-serif" font-size="14" lengthAdjust="spacing" textLength="4.4502" x="41.7749" y="417.1436">&#160;</text><rect fill="#F1F1F1" height="40" rx="12.5" ry="12.5" style="stroke:#181818;stroke-width:0.5;" width="50" x="19" y="518.2969"/><text fill="#000000" font-family="sans-serif" font-size="14" lengthAdjust="spacing" textLength="4.4502" x="41.7749" y="543.1436">&#160;</text><g class="start_entity" data-qualified-name="cederPlaza..start.cederPlaza" data-source-line="15" id="ent0003"><ellipse cx="44" cy="155.2969" fill="#222222" rx="10" ry="10" style="stroke:#222222;stroke-width:1;"/></g><g class="end_entity" data-qualified-name="cederPlaza..end.cederPlaza" data-source-line="34" id="ent0007"><ellipse cx="44" cy="655.2969" fill="none" rx="11" ry="11" style="stroke:#222222;stroke-width:1;"/><ellipse cx="44" cy="655.2969" fill="#222222" rx="6" ry="6" style="stroke:#222222;stroke-width:1;"/></g><!--link *start*cederPlaza to VisualizandoPlaza--><g class="link" data-entity-1="ent0003" data-entity-2="ent0005" data-link-type="dependency" data-source-line="15" id="lnk4"><path d="M44,165.7869 C44,181.8569 44,208.7269 44,229.8469" fill="none" id="*start*cederPlaza-to-VisualizandoPlaza" style="stroke:#008000;stroke-width:1;"/><polygon fill="#008000" points="44,235.8469,48,226.8469,44,230.8469,40,226.8469,44,235.8469" style="stroke:#008000;stroke-width:1;"/><path d="M49,188.2969 L49,213.2969 L318,213.2969 L318,198.2969 L308,188.2969 L49,188.2969" fill="#FEFFDD" style="stroke:#181818;stroke-width:0.5;"/><path d="M308,188.2969 L308,198.2969 L318,198.2969 L308,188.2969" fill="#FEFFDD" style="stroke:#181818;stroke-width:0.5;"/><text fill="#000000" font-family="sans-serif" font-size="13" font-weight="700" lengthAdjust="spacing" textLength="64.27" x="55" y="205.3638">Manager</text><text fill="#000000" font-family="sans-serif" font-size="13" lengthAdjust="spacing" textLength="179.6641" x="123.4023" y="205.3638">accede a su plaza asignada</text></g><!--link VisualizandoPlaza to SeleccionandoFecha--><g class="link" data-entity-1="ent0005" data-entity-2="ent0006" data-link-type="dependency" data-source-line="20" id="lnk5"><path d="M44,276.4869 C44,305.9969 44,356.2069 44,385.8669" fill="none" id="VisualizandoPlaza-to-SeleccionandoFecha" style="stroke:#008000;stroke-width:1;"/><polygon fill="#008000" points="44,391.8669,48,382.8669,44,386.8669,40,382.8669,44,391.8669" style="stroke:#008000;stroke-width:1;"/><path d="M49,299.2969 L49,369.2969 L389,369.2969 L389,309.2969 L379,299.2969 L49,299.2969" fill="#FEFFDD" style="stroke:#181818;stroke-width:0.5;"/><path d="M379,299.2969 L379,309.2969 L389,309.2969 L379,299.2969" fill="#FEFFDD" style="stroke:#181818;stroke-width:0.5;"/><text fill="#000000" font-family="sans-serif" font-size="13" font-weight="700" lengthAdjust="spacing" textLength="58.9063" x="55" y="316.3638">Sistema</text><text fill="#000000" font-family="sans-serif" font-size="13" lengthAdjust="spacing" textLength="256.001" x="118.0386" y="316.3638">muestra el estado de la plaza asignada</text><text fill="#000000" font-family="sans-serif" font-size="13" lengthAdjust="spacing" textLength="195.0762" x="55" y="331.4966">&#8226; Reservas propias existentes</text><text fill="#000000" font-family="sans-serif" font-size="13" lengthAdjust="spacing" textLength="167.5273" x="55" y="346.6294">&#8226; Cesiones ya registradas</text><text fill="#000000" font-family="sans-serif" font-size="13" font-weight="700" lengthAdjust="spacing" textLength="64.27" x="55" y="361.7622">Manager</text><text fill="#000000" font-family="sans-serif" font-size="13" lengthAdjust="spacing" textLength="230.1152" x="123.4023" y="361.7622">solicita ceder la plaza en una fecha</text></g><!--link SeleccionandoFecha to CesionRegistrada--><g class="link" data-entity-1="ent0006" data-entity-2="ent0007" data-link-type="dependency" data-source-line="28" id="lnk6"><path d="M44,432.6669 C44,455.9669 44,488.8269 44,512.0569" fill="none" id="SeleccionandoFecha-to-CesionRegistrada" style="stroke:#008000;stroke-width:1;"/><polygon fill="#008000" points="44,518.0569,48,509.0569,44,513.0569,40,509.0569,44,518.0569" style="stroke:#008000;stroke-width:1;"/><path d="M49,455.2969 L49,495.2969 L423,495.2969 L423,465.2969 L413,455.2969 L49,455.2969" fill="#FEFFDD" style="stroke:#181818;stroke-width:0.5;"/><path d="M413,455.2969 L413,465.2969 L423,465.2969 L413,455.2969" fill="#FEFFDD" style="stroke:#181818;stroke-width:0.5;"/><text fill="#000000" font-family="sans-serif" font-size="13" font-weight="700" lengthAdjust="spacing" textLength="64.27" x="55" y="472.3638">Manager</text><text fill="#000000" font-family="sans-serif" font-size="13" lengthAdjust="spacing" textLength="190.4551" x="123.4023" y="472.3638">selecciona la fecha de cesi&#243;n</text><text fill="#000000" font-family="sans-serif" font-size="13" font-weight="700" lengthAdjust="spacing" textLength="58.9063" x="55" y="487.4966">Sistema</text><text fill="#000000" font-family="sans-serif" font-size="13" lengthAdjust="spacing" textLength="290.8813" x="118.0386" y="487.4966">valida que no exista ya una reserva o cesi&#243;n</text></g><!--link CesionRegistrada to *end*cederPlaza--><g class="link" data-entity-1="ent0007" data-entity-2="ent0007" data-link-type="dependency" data-source-line="34" id="lnk8"><path d="M44,558.5469 C44,583.0969 44,618.6869 44,637.9369" fill="none" id="CesionRegistrada-to-*end*cederPlaza" style="stroke:#008000;stroke-width:1;"/><polygon fill="#008000" points="44,643.9369,48,634.9369,44,638.9369,40,634.9369,44,643.9369" style="stroke:#008000;stroke-width:1;"/><path d="M49,581.2969 L49,621.2969 L445,621.2969 L445,591.2969 L435,581.2969 L49,581.2969" fill="#FEFFDD" style="stroke:#181818;stroke-width:0.5;"/><path d="M435,581.2969 L435,591.2969 L445,591.2969 L435,581.2969" fill="#FEFFDD" style="stroke:#181818;stroke-width:0.5;"/><text fill="#000000" font-family="sans-serif" font-size="13" font-weight="700" lengthAdjust="spacing" textLength="58.9063" x="55" y="598.3638">Sistema</text><text fill="#000000" font-family="sans-serif" font-size="13" lengthAdjust="spacing" textLength="180.4956" x="118.0386" y="598.3638">registra la cesi&#243;n en estado</text><text fill="#000000" font-family="sans-serif" font-size="13" font-style="italic" lengthAdjust="spacing" textLength="66.5552" x="302.6665" y="598.3638">disponible</text><text fill="#000000" font-family="sans-serif" font-size="13" font-weight="700" lengthAdjust="spacing" textLength="58.9063" x="55" y="613.4966">Sistema</text><text fill="#000000" font-family="sans-serif" font-size="13" lengthAdjust="spacing" textLength="312.8569" x="118.0386" y="613.4966">notifica a empleados con alertas para esa fecha</text></g><!--link VistaCesionInicio to cederPlaza--><g class="link" data-entity-1="ent0002" data-entity-2="ent0004" data-link-type="dependency" data-source-line="8" id="lnk2"><path d="M238,47.35 C238,61.56 238,76.68 238,101.6" fill="none" id="VistaCesionInicio-to-cederPlaza" style="stroke:#008000;stroke-width:1;"/><polygon fill="#008000" points="238,107.6,242,98.6,238,102.6,234,98.6,238,107.6" style="stroke:#008000;stroke-width:1;"/></g><!--link cederPlaza to VistaCesionFin--><g class="link" data-entity-1="ent0004" data-entity-2="ent0003" data-link-type="dependency" data-source-line="41" id="lnk9"><path d="M152.84,679.7 C147.37,698.01 144,709.3 144,709.3 C144,709.3 144,744.3 144,744.3 C144,744.3 169.2487,757.468 195.5287,771.158" fill="none" id="cederPlaza-to-VistaCesionFin" style="stroke:#008000;stroke-width:1;"/><polygon fill="#008000" points="200.85,773.93,194.7161,766.2245,196.4156,771.62,191.0201,773.3195,200.85,773.93" style="stroke:#008000;stroke-width:1;"/><path d="M149,714.3 L149,739.3 L282,739.3 L282,724.3 L272,714.3 L149,714.3" fill="#FEFFDD" style="stroke:#181818;stroke-width:0.5;"/><path d="M272,714.3 L272,724.3 L282,724.3 L272,714.3" fill="#FEFFDD" style="stroke:#181818;stroke-width:0.5;"/><text fill="#000000" font-family="sans-serif" font-size="13" lengthAdjust="spacing" textLength="112.4614" x="155" y="731.3669">cesi&#243;n registrada</text></g><!--link cederPlaza to VistaCesionFin--><g class="link" data-entity-1="ent0004" data-entity-2="ent0003" data-link-type="dependency" data-source-line="46" id="lnk10"><path d="M286.01,679.7 C289.1,698.01 291,709.3 291,709.3 C291,709.3 291,744.3 291,744.3 C291,744.3 278.166,756.1672 263.356,769.8572" fill="none" id="cederPlaza-to-VistaCesionFin-1" style="stroke:#0000FF;stroke-width:1;"/><polygon fill="#0000FF" points="258.95,773.93,268.2741,770.7582,262.6216,770.536,262.8438,764.8835,258.95,773.93" style="stroke:#0000FF;stroke-width:1;"/><path d="M296,714.3 L296,739.3 L372,739.3 L372,724.3 L362,714.3 L296,714.3" fill="#FEFFDD" style="stroke:#181818;stroke-width:0.5;"/><path d="M362,714.3 L362,724.3 L372,724.3 L362,714.3" fill="#FEFFDD" style="stroke:#181818;stroke-width:0.5;"/><text fill="#000000" font-family="sans-serif" font-size="13" lengthAdjust="spacing" textLength="55.4214" x="302" y="731.3669">cancelar</text></g><?plantuml-src ZLDTQjj047xNAGRdfIq4NI0OIcZ03sbANF8IGXdlJfmbwzdjhXJgb4BFqYlq2Br9Jz8PIxOaIr0_IIlDVh-x-Tbnn8GRy8wfsaQ26FnM5yMJimIqYTKMB6MJNAnSuAB85LO4ixl5ylFxBvSVbekRZpF037TE_bnIbg45E-F2APDNJX17E-7y_coTYFZXV0w6BALF7bznpzrzKRHPjtppTWRV2u2M6FPiDNhtYcn30tCqi2HFHbXP9wx8F8qc6cstj1QX2Qq80RX_zp2GEKN3GJ02QxZFiWIuMCslaN5DwQ9SpG6DQWU4N4Di_RWrAmC0iTq1ADa8V40zQM2AUodwQOCxxarDQWR8WxoW3T8oU1ph0FZxynVSKgRq8bd45AAJ9trJCAue7sQQc2Z35Y4TmifJpdFmKdI5JPSTBp7KZF3OckXdC7Ov267KqV_ZpmT45R3Zr12C8FtvpLEXlKW95k5hJGBUH83gLZMd9Y48FO2-_cE10_LocaxeR1-gocr9DB6slxAqBiV0RkMfBAVs2xvxT4RgrOljINPbC4A8dbAbvQAUY3nHm8-Yw5sxeuFVlyr77lOok_DGTA4C4LU-fXC0aGrvJ1tCFm00?></g></svg>