<svg xmlns="http://www.w3.org/2000/svg" xmlns:xlink="http://www.w3.org/1999/xlink" contentStyleType="text/css" data-diagram-type="STATE" height="772px" preserveAspectRatio="none" style="width:382px;height:772px;;background:#FFFFFF" version="1.1" viewBox="0 0 382 772" width="382px" zoomAndPan="magnify"><?plantuml 1.2026.4beta2?><defs/><g><path d="M19.5,7 L354.5,7 A12.5,12.5 0 0 1 367,19.5 L367,28.6406 L7,28.6406 L7,19.5 A12.5,12.5 0 0 1 19.5,7" fill="#F1F1F1"/><rect fill="none" height="610.6406" rx="12.5" ry="12.5" style="stroke:#181818;stroke-width:0.5;" width="360" x="7" y="7"/><line style="stroke:#181818;stroke-width:0.5;" x1="7" x2="367" y1="28.6406" y2="28.6406"/><text fill="#000000" font-family="Arial" font-size="10" lengthAdjust="spacing" textLength="62.3779" x="155.811" y="21.2822">cederPlaza()</text><g class="entity" data-qualified-name="cederPlaza.SolicitandoCesion" id="ent0003"><rect fill="#F1F1F1" height="50" rx="12.5" ry="12.5" style="stroke:#181818;stroke-width:0.5;" width="50" x="19" y="126.6406"/><line style="stroke:#181818;stroke-width:0.5;" x1="19" x2="69" y1="148.2813" y2="148.2813"/><text fill="#000000" font-family="Arial" font-size="10" lengthAdjust="spacing" textLength="3.1787" x="42.4106" y="140.9229">&#160;</text></g><g class="entity" data-qualified-name="cederPlaza.ProporcionandoFecha" id="ent0004"><rect fill="#F1F1F1" height="50" rx="12.5" ry="12.5" style="stroke:#181818;stroke-width:0.5;" width="50" x="19" y="301.6406"/><line style="stroke:#181818;stroke-width:0.5;" x1="19" x2="69" y1="323.2813" y2="323.2813"/><text fill="#000000" font-family="Arial" font-size="10" lengthAdjust="spacing" textLength="3.1787" x="42.4106" y="315.9229">&#160;</text></g><g class="entity" data-qualified-name="cederPlaza.CesionRegistrada" id="ent0005"><rect fill="#F1F1F1" height="50" rx="12.5" ry="12.5" style="stroke:#181818;stroke-width:0.5;" width="50" x="19" y="453.6406"/><line style="stroke:#181818;stroke-width:0.5;" x1="19" x2="69" y1="475.2813" y2="475.2813"/><text fill="#000000" font-family="Arial" font-size="10" lengthAdjust="spacing" textLength="3.1787" x="42.4106" y="467.9229">&#160;</text></g><g class="start_entity" data-qualified-name="cederPlaza..start.cederPlaza" data-source-line="10" id="ent0002"><ellipse cx="44" cy="49.6406" fill="#222222" rx="10" ry="10" style="stroke:#222222;stroke-width:1;"/></g><g class="end_entity" data-qualified-name="cederPlaza..end.cederPlaza" data-source-line="33" id="ent0006"><ellipse cx="44" cy="593.6406" fill="none" rx="11" ry="11" style="stroke:#222222;stroke-width:1;"/><ellipse cx="44" cy="593.6406" fill="#222222" rx="6" ry="6" style="stroke:#222222;stroke-width:1;"/></g><!--link *start*cederPlaza to SolicitandoCesion--><g class="link" data-entity-1="ent0002" data-entity-2="ent0003" data-link-type="dependency" data-source-line="10" id="lnk3"><path d="M44,59.8706 C44,74.8606 44,98.9706 44,120.4006" fill="none" id="*start*cederPlaza-to-SolicitandoCesion" style="stroke:#008000;stroke-width:1;"/><polygon fill="#008000" points="44,126.4006,48,117.4006,44,121.4006,40,117.4006,44,126.4006" style="stroke:#008000;stroke-width:1;"/><path d="M49,82.6406 L49,103.6406 L267,103.6406 L267,92.6406 L257,82.6406 L49,82.6406" fill="#FEFFDD" style="stroke:#181818;stroke-width:0.5;"/><path d="M257,82.6406 L257,92.6406 L267,92.6406 L257,82.6406" fill="#FEFFDD" style="stroke:#181818;stroke-width:0.5;"/><text fill="#000000" font-family="Arial" font-size="10" font-weight="700" lengthAdjust="spacing" textLength="49.4385" x="55" y="96.9229">Manager</text><text fill="#000000" font-family="Arial" font-size="10" lengthAdjust="spacing" textLength="145.0439" x="107.6172" y="96.9229">solicita ceder plaza asignada</text></g><!--link SolicitandoCesion to ProporcionandoFecha--><g class="link" data-entity-1="ent0003" data-entity-2="ent0004" data-link-type="dependency" data-source-line="15" id="lnk4"><path d="M44,177.0606 C44,210.0306 44,262.4406 44,295.3406" fill="none" id="SolicitandoCesion-to-ProporcionandoFecha" style="stroke:#008000;stroke-width:1;"/><polygon fill="#008000" points="44,301.3406,48,292.3406,44,296.3406,40,292.3406,44,301.3406" style="stroke:#008000;stroke-width:1;"/><path d="M49,199.6406 L49,278.6406 L306,278.6406 L306,209.6406 L296,199.6406 L49,199.6406" fill="#FEFFDD" style="stroke:#181818;stroke-width:0.5;"/><path d="M296,199.6406 L296,209.6406 L306,209.6406 L296,199.6406" fill="#FEFFDD" style="stroke:#181818;stroke-width:0.5;"/><text fill="#000000" font-family="Arial" font-size="10" font-weight="700" lengthAdjust="spacing" textLength="45.3125" x="55" y="213.9229">Sistema</text><text fill="#000000" font-family="Arial" font-size="10" lengthAdjust="spacing" textLength="187.5732" x="103.4912" y="213.9229">presenta estado de la plaza asignada</text><text fill="#000000" font-family="Arial" font-size="10" lengthAdjust="spacing" textLength="150.0586" x="55" y="225.5635">&#8226; Reservas propias existentes</text><text fill="#000000" font-family="Arial" font-size="10" lengthAdjust="spacing" textLength="128.8672" x="55" y="237.2041">&#8226; Cesiones ya registradas</text><text fill="#000000" font-family="Arial" font-size="10" lengthAdjust="spacing" textLength="187.749" x="55" y="248.8447">&#8226; Reglas de auto-cesi&#243;n configuradas</text><text fill="#000000" font-family="Arial" font-size="10" lengthAdjust="spacing" textLength="151.7139" x="55" y="260.4854">&#8226; Permite solicitar ceder plaza</text><text fill="#000000" font-family="Arial" font-size="10" lengthAdjust="spacing" textLength="136.2744" x="55" y="272.126">&#8226; Permite solicitar cancelar</text></g><!--link ProporcionandoFecha to CesionRegistrada--><g class="link" data-entity-1="ent0004" data-entity-2="ent0005" data-link-type="dependency" data-source-line="25" id="lnk5"><path d="M44,352.0706 C44,379.9706 44,419.3306 44,447.2206" fill="none" id="ProporcionandoFecha-to-CesionRegistrada" style="stroke:#008000;stroke-width:1;"/><polygon fill="#008000" points="44,453.2206,48,444.2206,44,448.2206,40,444.2206,44,453.2206" style="stroke:#008000;stroke-width:1;"/><path d="M49,374.6406 L49,430.6406 L343,430.6406 L343,384.6406 L333,374.6406 L49,374.6406" fill="#FEFFDD" style="stroke:#181818;stroke-width:0.5;"/><path d="M333,374.6406 L333,384.6406 L343,384.6406 L333,374.6406" fill="#FEFFDD" style="stroke:#181818;stroke-width:0.5;"/><text fill="#000000" font-family="Arial" font-size="10" font-weight="700" lengthAdjust="spacing" textLength="45.3125" x="55" y="388.9229">Sistema</text><text fill="#000000" font-family="Arial" font-size="10" lengthAdjust="spacing" textLength="225.2344" x="103.4912" y="388.9229">presenta validaci&#243;n de la fecha seleccionada</text><text fill="#000000" font-family="Arial" font-size="10" lengthAdjust="spacing" textLength="237.9688" x="55" y="400.5635">&#8226; Verifica que no exista reserva o cesi&#243;n previa</text><text fill="#000000" font-family="Arial" font-size="10" lengthAdjust="spacing" textLength="177.2607" x="55" y="412.2041">&#8226; Permite solicitar confirmar cesi&#243;n</text><text fill="#000000" font-family="Arial" font-size="10" lengthAdjust="spacing" textLength="136.2744" x="55" y="423.8447">&#8226; Permite solicitar cancelar</text></g><!--link CesionRegistrada to *end*cederPlaza--><g class="link" data-entity-1="ent0005" data-entity-2="ent0006" data-link-type="dependency" data-source-line="33" id="lnk7"><path d="M44,503.8806 C44,528.2606 44,558.7006 44,576.3406" fill="none" id="CesionRegistrada-to-*end*cederPlaza" style="stroke:#008000;stroke-width:1;"/><polygon fill="#008000" points="44,582.3406,48,573.3406,44,577.3406,40,573.3406,44,582.3406" style="stroke:#008000;stroke-width:1;"/><path d="M49,526.6406 L49,559.6406 L301,559.6406 L301,536.6406 L291,526.6406 L49,526.6406" fill="#FEFFDD" style="stroke:#181818;stroke-width:0.5;"/><path d="M291,526.6406 L291,536.6406 L301,536.6406 L291,526.6406" fill="#FEFFDD" style="stroke:#181818;stroke-width:0.5;"/><text fill="#000000" font-family="Arial" font-size="10" font-weight="700" lengthAdjust="spacing" textLength="49.4385" x="55" y="540.9229">Manager</text><text fill="#000000" font-family="Arial" font-size="10" lengthAdjust="spacing" textLength="122.0068" x="107.6172" y="540.9229">solicita confirmar cesi&#243;n</text><text fill="#000000" font-family="Arial" font-size="10" font-weight="700" lengthAdjust="spacing" textLength="45.3125" x="55" y="552.5635">Sistema</text><text fill="#000000" font-family="Arial" font-size="10" lengthAdjust="spacing" textLength="182.7246" x="103.4912" y="552.5635">crea cesi&#243;n y transfiere a calendario</text></g><g class="entity" data-qualified-name="CALENDARIO_PARKING_ABIERTO" id="ent0008"><rect fill="#F1F1F1" height="50" rx="12.5" ry="12.5" style="stroke:#181818;stroke-width:0.5;" width="183.9551" x="95.02" y="708.64"/><line style="stroke:#181818;stroke-width:0.5;" x1="95.02" x2="278.9751" y1="730.2806" y2="730.2806"/><text fill="#000000" font-family="Arial" font-size="10" lengthAdjust="spacing" textLength="163.9551" x="105.02" y="722.9222">CALENDARIO_PARKING_ABIERTO</text></g><!--link cederPlaza to CALENDARIO_PARKING_ABIERTO--><g class="link" data-entity-1="ent0002" data-entity-2="ent0008" data-link-type="dependency" data-source-line="40" id="lnk9"><path d="M113.19,617.97 C108.73,636.37 106,647.64 106,647.64 C106,647.64 106,678.64 106,678.64 C106,678.64 123.8681,690.5513 145.2981,704.8413" fill="none" id="cederPlaza-to-CALENDARIO_PARKING_ABIERTO" style="stroke:#008000;stroke-width:1;"/><polygon fill="#008000" points="150.29,708.17,145.0212,699.8489,146.13,705.3961,140.5829,706.5049,150.29,708.17" style="stroke:#008000;stroke-width:1;"/><path d="M111,652.64 L111,673.64 L218,673.64 L218,662.64 L208,652.64 L111,652.64" fill="#FEFFDD" style="stroke:#181818;stroke-width:0.5;"/><path d="M208,652.64 L208,662.64 L218,662.64 L208,652.64" fill="#FEFFDD" style="stroke:#181818;stroke-width:0.5;"/><text fill="#000000" font-family="Arial" font-size="10" lengthAdjust="spacing" textLength="86.5088" x="117" y="666.9222">cesi&#243;n registrada</text></g><!--link cederPlaza to CALENDARIO_PARKING_ABIERTO--><g class="link" data-entity-1="ent0002" data-entity-2="ent0008" data-link-type="dependency" data-source-line="45" id="lnk10"><path d="M223.45,617.97 C225.65,636.37 227,647.64 227,647.64 C227,647.64 227,678.64 227,678.64 C227,678.64 219.2802,689.0578 208.7002,703.3478" fill="none" id="cederPlaza-to-CALENDARIO_PARKING_ABIERTO-1" style="stroke:#0000FF;stroke-width:1;"/><polygon fill="#0000FF" points="205.13,708.17,213.7001,703.3169,208.1052,704.1515,207.2706,698.5566,205.13,708.17" style="stroke:#0000FF;stroke-width:1;"/><path d="M232,652.64 L232,673.64 L295,673.64 L295,662.64 L285,652.64 L232,652.64" fill="#FEFFDD" style="stroke:#181818;stroke-width:0.5;"/><path d="M285,652.64 L285,662.64 L295,662.64 L285,652.64" fill="#FEFFDD" style="stroke:#181818;stroke-width:0.5;"/><text fill="#000000" font-family="Arial" font-size="10" lengthAdjust="spacing" textLength="42.6318" x="238" y="666.9222">cancelar</text></g><?plantuml-src bPDHQjj048RVTOh1UMaB9irxCAXjKanJnyYbBo64yMgaBbdjghEIgLCAFKklq2Fa9Zb9Hb9aIx8863s8PV_z__a_hVozjZaoPc2qfMAR4-JERAj5u7TxCILOckBIsMA16K786itu_ae_49oz3m9VO46WA2PU6dn0G0-J_VBDsmdy3W0QsKGUsLyvevKkqCRk8tdjx52mP9SxLh9JQIv9_S2Xf3aOKQfzmHXZ88ARTxSmlJb9cSZUJcUZETQ9XxCLXtjP0folPr_HOafyVhgUWNyvqrI2_AMJJcqL0a0shZsgl0F_NlfuYR7ybNIW3ElydCcJbNoIkh4Jvc3mS0o0fx__818jRuH6BbbQtlIhih85-PsccOmyR15uXyjtF58Z9oK7oy9DbSWV_rjGpYOwBVlQ9N6cPVuM4dSflQP2gyWW3_YD4EeHFFZ6H-3ReD4nghfBmp2f_JqPKdLaX-DtOfreXV2p98beC5QuQhpWeAKYzXlzQjCA6sSrcVh8yLI6hNj8v8eVTOb7nnamKqouQxW52RK-qSHo8sH68xCXQzUTyayGTFxutYSBhouMdy9eVdst3AClyyNdk_33_2BwTXqCXcu3ztSos5FekwzDIKUQjsXRosS0?></g></svg>