<svg xmlns="http://www.w3.org/2000/svg" xmlns:xlink="http://www.w3.org/1999/xlink" contentStyleType="text/css" data-diagram-type="STATE" height="666px" preserveAspectRatio="none" style="width:391px;height:666px;;background:#FFFFFF" version="1.1" viewBox="0 0 391 666" width="391px" zoomAndPan="magnify"><?plantuml 1.2026.4beta2?><defs/><g><path d="M19.5,7 L363.5,7 A12.5,12.5 0 0 1 376,19.5 L376,28.6406 L7,28.6406 L7,19.5 A12.5,12.5 0 0 1 19.5,7" fill="#F1F1F1"/><rect fill="none" height="504.6406" rx="12.5" ry="12.5" style="stroke:#181818;stroke-width:0.5;" width="369" x="7" y="7"/><line style="stroke:#181818;stroke-width:0.5;" x1="7" x2="376" y1="28.6406" y2="28.6406"/><text fill="#000000" font-family="Arial" font-size="10" lengthAdjust="spacing" textLength="143.0957" x="119.9521" y="21.2822">gestionarSolicitudAusencia()</text><g class="entity" data-qualified-name="gestionarSolicitudAusencia.RevisandoSolicitudes" id="ent0003"><rect fill="#F1F1F1" height="50" rx="12.5" ry="12.5" style="stroke:#181818;stroke-width:0.5;" width="50" x="19" y="126.6406"/><line style="stroke:#181818;stroke-width:0.5;" x1="19" x2="69" y1="148.2813" y2="148.2813"/><text fill="#000000" font-family="Arial" font-size="10" lengthAdjust="spacing" textLength="3.1787" x="42.4106" y="140.9229">&#160;</text></g><g class="entity" data-qualified-name="gestionarSolicitudAusencia.Decidiendo" id="ent0004"><rect fill="#F1F1F1" height="50" rx="12.5" ry="12.5" style="stroke:#181818;stroke-width:0.5;" width="50" x="19" y="301.6406"/><line style="stroke:#181818;stroke-width:0.5;" x1="19" x2="69" y1="323.2813" y2="323.2813"/><text fill="#000000" font-family="Arial" font-size="10" lengthAdjust="spacing" textLength="3.1787" x="42.4106" y="315.9229">&#160;</text></g><g class="start_entity" data-qualified-name="gestionarSolicitudAusencia..start.gestionarSolicitudAusencia" data-source-line="9" id="ent0002"><ellipse cx="44" cy="49.6406" fill="#222222" rx="10" ry="10" style="stroke:#222222;stroke-width:1;"/></g><g class="end_entity" data-qualified-name="gestionarSolicitudAusencia..end.gestionarSolicitudAusencia" data-source-line="24" id="ent0005"><ellipse cx="44" cy="487.6406" fill="none" rx="11" ry="11" style="stroke:#222222;stroke-width:1;"/><ellipse cx="44" cy="487.6406" fill="#222222" rx="6" ry="6" style="stroke:#222222;stroke-width:1;"/></g><!--link *start*gestionarSolicitudAusencia to RevisandoSolicitudes--><g class="link" data-entity-1="ent0002" data-entity-2="ent0003" data-link-type="dependency" data-source-line="9" id="lnk3"><path d="M44,59.8706 C44,74.8606 44,98.9706 44,120.4006" fill="none" id="*start*gestionarSolicitudAusencia-to-RevisandoSolicitudes" style="stroke:#008000;stroke-width:1;"/><polygon fill="#008000" points="44,126.4006,48,117.4006,44,121.4006,40,117.4006,44,126.4006" style="stroke:#008000;stroke-width:1;"/><path d="M49,82.6406 L49,103.6406 L332,103.6406 L332,92.6406 L322,82.6406 L49,82.6406" fill="#FEFFDD" style="stroke:#181818;stroke-width:0.5;"/><path d="M322,82.6406 L322,92.6406 L332,92.6406 L322,82.6406" fill="#FEFFDD" style="stroke:#181818;stroke-width:0.5;"/><text fill="#000000" font-family="Arial" font-size="10" font-weight="700" lengthAdjust="spacing" textLength="49.4385" x="55" y="96.9229">Manager</text><text fill="#000000" font-family="Arial" font-size="10" lengthAdjust="spacing" textLength="209.4678" x="107.6172" y="96.9229">solicita gestionar solicitudes de su equipo</text></g><!--link RevisandoSolicitudes to Decidiendo--><g class="link" data-entity-1="ent0003" data-entity-2="ent0004" data-link-type="dependency" data-source-line="14" id="lnk4"><path d="M44,177.0606 C44,210.0306 44,262.4406 44,295.3406" fill="none" id="RevisandoSolicitudes-to-Decidiendo" style="stroke:#008000;stroke-width:1;"/><polygon fill="#008000" points="44,301.3406,48,292.3406,44,296.3406,40,292.3406,44,301.3406" style="stroke:#008000;stroke-width:1;"/><path d="M49,199.6406 L49,278.6406 L352,278.6406 L352,209.6406 L342,199.6406 L49,199.6406" fill="#FEFFDD" style="stroke:#181818;stroke-width:0.5;"/><path d="M342,199.6406 L342,209.6406 L352,209.6406 L342,199.6406" fill="#FEFFDD" style="stroke:#181818;stroke-width:0.5;"/><text fill="#000000" font-family="Arial" font-size="10" font-weight="700" lengthAdjust="spacing" textLength="45.3125" x="55" y="213.9229">Sistema</text><text fill="#000000" font-family="Arial" font-size="10" lengthAdjust="spacing" textLength="234.3555" x="103.4912" y="213.9229">presenta solicitudes pendientes de aprobaci&#243;n</text><text fill="#000000" font-family="Arial" font-size="10" lengthAdjust="spacing" textLength="113.8086" x="55" y="225.5635">&#8226; Empleado solicitante</text><text fill="#000000" font-family="Arial" font-size="10" lengthAdjust="spacing" textLength="157.6514" x="55" y="237.2041">&#8226; Tipo, fechas y d&#237;as laborables</text><text fill="#000000" font-family="Arial" font-size="10" lengthAdjust="spacing" textLength="132.9346" x="55" y="248.8447">&#8226; Permite solicitar aprobar</text><text fill="#000000" font-family="Arial" font-size="10" lengthAdjust="spacing" textLength="137.3584" x="55" y="260.4854">&#8226; Permite solicitar rechazar</text><text fill="#000000" font-family="Arial" font-size="10" lengthAdjust="spacing" textLength="136.2744" x="55" y="272.126">&#8226; Permite solicitar cancelar</text></g><!--link Decidiendo to *end*gestionarSolicitudAusencia--><g class="link" data-entity-1="ent0004" data-entity-2="ent0005" data-link-type="dependency" data-source-line="24" id="lnk6"><path d="M44,352.1406 C44,387.5006 44,445.3606 44,470.2806" fill="none" id="Decidiendo-to-*end*gestionarSolicitudAusencia" style="stroke:#008000;stroke-width:1;"/><polygon fill="#008000" points="44,476.2806,48,467.2806,44,471.2806,40,467.2806,44,476.2806" style="stroke:#008000;stroke-width:1;"/><path d="M49,374.6406 L49,453.6406 L348,453.6406 L348,384.6406 L338,374.6406 L49,374.6406" fill="#FEFFDD" style="stroke:#181818;stroke-width:0.5;"/><path d="M338,374.6406 L338,384.6406 L348,384.6406 L338,374.6406" fill="#FEFFDD" style="stroke:#181818;stroke-width:0.5;"/><text fill="#000000" font-family="Arial" font-size="10" font-weight="700" lengthAdjust="spacing" textLength="45.3125" x="55" y="388.9229">Sistema</text><text fill="#000000" font-family="Arial" font-size="10" lengthAdjust="spacing" textLength="204.3604" x="103.4912" y="388.9229">presenta detalle completo de la solicitud</text><text fill="#000000" font-family="Arial" font-size="10" lengthAdjust="spacing" textLength="178.4863" x="55" y="400.5635">&#8226; Datos del empleado y la ausencia</text><text fill="#000000" font-family="Arial" font-size="10" lengthAdjust="spacing" textLength="131.04" x="55" y="412.2041">&#8226; Campo de nota opcional</text><text fill="#000000" font-family="Arial" font-size="10" lengthAdjust="spacing" textLength="186.3867" x="55" y="423.8447">&#8226; Permite solicitar confirmar decisi&#243;n</text><text fill="#000000" font-family="Arial" font-size="10" lengthAdjust="spacing" textLength="136.2744" x="55" y="435.4854">&#8226; Permite solicitar cancelar</text><text fill="#000000" font-family="Arial" font-size="10" font-weight="700" lengthAdjust="spacing" textLength="49.4385" x="55" y="447.126">Manager</text><text fill="#000000" font-family="Arial" font-size="10" lengthAdjust="spacing" textLength="225.9717" x="107.6172" y="447.126">solicita aprobar o rechazar con nota opcional</text></g><g class="entity" data-qualified-name="BANDEJA_SOLICITUDES_ABIERTA" id="ent0007"><rect fill="#F1F1F1" height="50" rx="12.5" ry="12.5" style="stroke:#181818;stroke-width:0.5;" width="184.3213" x="99.34" y="602.64"/><line style="stroke:#181818;stroke-width:0.5;" x1="99.34" x2="283.6613" y1="624.2806" y2="624.2806"/><text fill="#000000" font-family="Arial" font-size="10" lengthAdjust="spacing" textLength="164.3213" x="109.34" y="616.9222">BANDEJA_SOLICITUDES_ABIERTA</text></g><!--link gestionarSolicitudAusencia to BANDEJA_SOLICITUDES_ABIERTA--><g class="link" data-entity-1="ent0002" data-entity-2="ent0007" data-link-type="dependency" data-source-line="35" id="lnk8"><path d="M114.54,512.07 C108.98,530.25 105.5,541.64 105.5,541.64 C105.5,541.64 105.5,572.64 105.5,572.64 C105.5,572.64 124.6885,584.6896 147.4485,598.9796" fill="none" id="gestionarSolicitudAusencia-to-BANDEJA_SOLICITUDES_ABIERTA" style="stroke:#008000;stroke-width:1;"/><polygon fill="#008000" points="152.53,602.17,147.0348,593.9967,148.2955,599.5113,142.7809,600.772,152.53,602.17" style="stroke:#008000;stroke-width:1;"/><path d="M110.5,546.64 L110.5,567.64 L226.5,567.64 L226.5,556.64 L216.5,546.64 L110.5,546.64" fill="#FEFFDD" style="stroke:#181818;stroke-width:0.5;"/><path d="M216.5,546.64 L216.5,556.64 L226.5,556.64 L216.5,546.64" fill="#FEFFDD" style="stroke:#181818;stroke-width:0.5;"/><text fill="#000000" font-family="Arial" font-size="10" lengthAdjust="spacing" textLength="95.6348" x="116.5" y="560.9222">decisi&#243;n registrada</text></g><!--link gestionarSolicitudAusencia to BANDEJA_SOLICITUDES_ABIERTA--><g class="link" data-entity-1="ent0002" data-entity-2="ent0007" data-link-type="dependency" data-source-line="40" id="lnk9"><path d="M230.87,512.07 C233.72,530.25 235.5,541.64 235.5,541.64 C235.5,541.64 235.5,572.64 235.5,572.64 C235.5,572.64 226.8693,583.228 215.2293,597.518" fill="none" id="gestionarSolicitudAusencia-to-BANDEJA_SOLICITUDES_ABIERTA-1" style="stroke:#0000FF;stroke-width:1;"/><polygon fill="#0000FF" points="211.44,602.17,220.2253,597.7182,214.5978,598.2933,214.0226,592.6658,211.44,602.17" style="stroke:#0000FF;stroke-width:1;"/><path d="M240.5,546.64 L240.5,567.64 L303.5,567.64 L303.5,556.64 L293.5,546.64 L240.5,546.64" fill="#FEFFDD" style="stroke:#181818;stroke-width:0.5;"/><path d="M293.5,546.64 L293.5,556.64 L303.5,556.64 L293.5,546.64" fill="#FEFFDD" style="stroke:#181818;stroke-width:0.5;"/><text fill="#000000" font-family="Arial" font-size="10" lengthAdjust="spacing" textLength="42.6318" x="246.5" y="560.9222">cancelar</text></g><?plantuml-src bPFHRjCm58Rl_HH7vGOG4t0_LShM8XN1G4kvcgRfn3ajrXpRs0vIXv1u5kwvuX7s9diIZjFMJKSRQSf5ufm___dFPoVSAkFGOmDQ6OehH-2iNgM52BbMqm9R7TzP4o-m8IYyGdsuNgexWhTlX0WH8y6IGbJMe2-jLbB5jYxQG4Og10mmEbv-_c84FmJ0scR45-ilwRiAQ6gRvHGUQoOaLQs8HO9BLo-luUJgsT8JcUkJyJ47Ozd0cWJXbfS0fzNu8nfSaZzzNOqXhDMucsVxAXdm_11Qe6-jSfO_v-QTOmfmgE5UebxUmpbA5I8rsELmdXWFv-XtT_mn6yHr47JULYZL_L_JEJpy-WtJncd2skOvM9oBSmxz2XOalpAz5TJtV_YkiR8UAztHMUi-asyKnzjw-4qhFw3moVLkK2BHIDATfCzjXsMF5k_dKp3L555h0caJWMWJ8DsZbtDDCDg4JmDjMQsI4ZV7CGlFiN6T3MT0i4wcqw27vhDceNp3JpMF5FRsPP36yKEuuGusyqrT_akKSVuKOk0_xECzAoucq_V5JVdfm-nyDlyocPOtnTbiUZaln2FeUHeEiMJs7ciKknqSRbZfbfxOBvFPzlW7?></g></svg>