<svg xmlns="http://www.w3.org/2000/svg" xmlns:xlink="http://www.w3.org/1999/xlink" contentStyleType="text/css" data-diagram-type="STATE" height="773px" preserveAspectRatio="none" style="width:427px;height:773px;background:#FFFFFF;" version="1.1" viewBox="0 0 427 773" width="427px" zoomAndPan="magnify"><?plantuml 1.2026.4beta2?><defs/><g><path d="M19.5,7 L399.5,7 A12.5,12.5 0 0 1 412,19.5 L412,28.6406 L7,28.6406 L7,19.5 A12.5,12.5 0 0 1 19.5,7" fill="#F1F1F1"/><rect fill="none" height="611.6406" rx="12.5" ry="12.5" style="stroke:#181818;stroke-width:0.5;" width="405" x="7" y="7"/><line style="stroke:#181818;stroke-width:0.5;" x1="7" x2="412" y1="28.6406" y2="28.6406"/><text fill="#000000" font-family="Arial" font-size="10" lengthAdjust="spacing" textLength="94.7412" x="162.1294" y="21.2822">registrarVisitante()</text><g class="entity" data-qualified-name="registrarVisitante.IntroduciendoDatos" id="ent0003"><rect fill="#F1F1F1" height="50" rx="12.5" ry="12.5" style="stroke:#181818;stroke-width:0.5;" width="50" x="19" y="126.6406"/><line style="stroke:#181818;stroke-width:0.5;" x1="19" x2="69" y1="148.2813" y2="148.2813"/><text fill="#000000" font-family="Arial" font-size="10" lengthAdjust="spacing" textLength="3.1787" x="42.4106" y="140.9229">&#160;</text></g><g class="entity" data-qualified-name="registrarVisitante.SeleccionandoPlaza" id="ent0004"><rect fill="#F1F1F1" height="50" rx="12.5" ry="12.5" style="stroke:#181818;stroke-width:0.5;" width="50" x="19" y="290.6406"/><line style="stroke:#181818;stroke-width:0.5;" x1="19" x2="69" y1="312.2813" y2="312.2813"/><text fill="#000000" font-family="Arial" font-size="10" lengthAdjust="spacing" textLength="3.1787" x="42.4106" y="304.9229">&#160;</text></g><g class="entity" data-qualified-name="registrarVisitante.VisitanteRegistrado" id="ent0005"><rect fill="#F1F1F1" height="50" rx="12.5" ry="12.5" style="stroke:#181818;stroke-width:0.5;" width="50" x="19" y="454.6406"/><line style="stroke:#181818;stroke-width:0.5;" x1="19" x2="69" y1="476.2813" y2="476.2813"/><text fill="#000000" font-family="Arial" font-size="10" lengthAdjust="spacing" textLength="3.1787" x="42.4106" y="468.9229">&#160;</text></g><g class="start_entity" data-qualified-name="registrarVisitante..start.registrarVisitante" data-source-line="10" id="ent0002"><ellipse cx="44" cy="49.6406" fill="#222222" rx="10" ry="10" style="stroke:#222222;stroke-width:1;"/></g><g class="end_entity" data-qualified-name="registrarVisitante..end.registrarVisitante" data-source-line="33" id="ent0006"><ellipse cx="44" cy="594.6406" fill="none" rx="11" ry="11" style="stroke:#222222;stroke-width:1;"/><ellipse cx="44" cy="594.6406" fill="#222222" rx="6" ry="6" style="stroke:#222222;stroke-width:1;"/></g><!--link *start*registrarVisitante to IntroduciendoDatos--><g class="link" data-entity-1="ent0002" data-entity-2="ent0003" data-link-type="dependency" data-source-line="10" id="lnk3"><path d="M44,59.8706 C44,74.8606 44,98.9706 44,120.4006" fill="none" id="*start*registrarVisitante-to-IntroduciendoDatos" style="stroke:#008000;stroke-width:1;"/><polygon fill="#008000" points="44,126.4006,48,117.4006,44,121.4006,40,117.4006,44,126.4006" style="stroke:#008000;stroke-width:1;"/><path d="M49,82.6406 L49,103.6406 L256,103.6406 L256,92.6406 L246,82.6406 L49,82.6406" fill="#FEFFDD" style="stroke:#181818;stroke-width:0.5;"/><path d="M246,82.6406 L246,92.6406 L256,92.6406 L246,82.6406" fill="#FEFFDD" style="stroke:#181818;stroke-width:0.5;"/><text fill="#000000" font-family="Arial" font-size="10" font-weight="700" lengthAdjust="spacing" textLength="55.3955" x="55" y="96.9229">Empleado</text><text fill="#000000" font-family="Arial" font-size="10" lengthAdjust="spacing" textLength="127.583" x="113.5742" y="96.9229">solicita registrar visitante</text></g><!--link IntroduciendoDatos to SeleccionandoPlaza--><g class="link" data-entity-1="ent0003" data-entity-2="ent0004" data-link-type="dependency" data-source-line="15" id="lnk4"><path d="M44,176.8906 C44,207.4306 44,253.6006 44,284.2206" fill="none" id="IntroduciendoDatos-to-SeleccionandoPlaza" style="stroke:#008000;stroke-width:1;"/><polygon fill="#008000" points="44,290.2206,48,281.2206,44,285.2206,40,281.2206,44,290.2206" style="stroke:#008000;stroke-width:1;"/><path d="M49,199.6406 L49,267.6406 L275,267.6406 L275,209.6406 L265,199.6406 L49,199.6406" fill="#FEFFDD" style="stroke:#181818;stroke-width:0.5;"/><path d="M265,199.6406 L265,209.6406 L275,209.6406 L265,199.6406" fill="#FEFFDD" style="stroke:#181818;stroke-width:0.5;"/><text fill="#000000" font-family="Arial" font-size="10" font-weight="700" lengthAdjust="spacing" textLength="45.3125" x="55" y="213.9229">Sistema</text><text fill="#000000" font-family="Arial" font-size="10" lengthAdjust="spacing" textLength="156.8896" x="103.4912" y="213.9229">presenta formulario de registro</text><text fill="#000000" font-family="Arial" font-size="10" lengthAdjust="spacing" textLength="203.8623" x="55" y="225.5635">&#8226; Nombre, empresa y email del visitante</text><text fill="#000000" font-family="Arial" font-size="10" lengthAdjust="spacing" textLength="96.6211" x="55" y="237.2041">&#8226; Fecha de la visita</text><text fill="#000000" font-family="Arial" font-size="10" lengthAdjust="spacing" textLength="141.2109" x="55" y="248.8447">&#8226; Permite solicitar continuar</text><text fill="#000000" font-family="Arial" font-size="10" lengthAdjust="spacing" textLength="136.2744" x="55" y="260.4854">&#8226; Permite solicitar cancelar</text></g><!--link SeleccionandoPlaza to VisitanteRegistrado--><g class="link" data-entity-1="ent0004" data-entity-2="ent0005" data-link-type="dependency" data-source-line="24" id="lnk5"><path d="M44,340.8906 C44,371.4306 44,417.6006 44,448.2206" fill="none" id="SeleccionandoPlaza-to-VisitanteRegistrado" style="stroke:#008000;stroke-width:1;"/><polygon fill="#008000" points="44,454.2206,48,445.2206,44,449.2206,40,445.2206,44,454.2206" style="stroke:#008000;stroke-width:1;"/><path d="M49,363.6406 L49,431.6406 L388,431.6406 L388,373.6406 L378,363.6406 L49,363.6406" fill="#FEFFDD" style="stroke:#181818;stroke-width:0.5;"/><path d="M378,363.6406 L378,373.6406 L388,373.6406 L378,363.6406" fill="#FEFFDD" style="stroke:#181818;stroke-width:0.5;"/><text fill="#000000" font-family="Arial" font-size="10" font-weight="700" lengthAdjust="spacing" textLength="45.3125" x="55" y="377.9229">Sistema</text><text fill="#000000" font-family="Arial" font-size="10" lengthAdjust="spacing" textLength="269.7607" x="103.4912" y="377.9229">presenta plazas de visitante disponibles para la fecha</text><text fill="#000000" font-family="Arial" font-size="10" lengthAdjust="spacing" textLength="133.1592" x="55" y="389.5635">&#8226; Plazas de visitante libres</text><text fill="#000000" font-family="Arial" font-size="10" lengthAdjust="spacing" textLength="121.8604" x="55" y="401.2041">&#8226; Capacidad y ubicaci&#243;n</text><text fill="#000000" font-family="Arial" font-size="10" lengthAdjust="spacing" textLength="183.916" x="55" y="412.8447">&#8226; Permite solicitar confirmar registro</text><text fill="#000000" font-family="Arial" font-size="10" lengthAdjust="spacing" textLength="136.2744" x="55" y="424.4854">&#8226; Permite solicitar cancelar</text></g><!--link VisitanteRegistrado to *end*registrarVisitante--><g class="link" data-entity-1="ent0005" data-entity-2="ent0006" data-link-type="dependency" data-source-line="33" id="lnk7"><path d="M44,504.8806 C44,529.2606 44,559.7006 44,577.3406" fill="none" id="VisitanteRegistrado-to-*end*registrarVisitante" style="stroke:#008000;stroke-width:1;"/><polygon fill="#008000" points="44,583.3406,48,574.3406,44,578.3406,40,574.3406,44,583.3406" style="stroke:#008000;stroke-width:1;"/><path d="M49,527.6406 L49,560.6406 L368,560.6406 L368,537.6406 L358,527.6406 L49,527.6406" fill="#FEFFDD" style="stroke:#181818;stroke-width:0.5;"/><path d="M358,527.6406 L358,537.6406 L368,537.6406 L358,527.6406" fill="#FEFFDD" style="stroke:#181818;stroke-width:0.5;"/><text fill="#000000" font-family="Arial" font-size="10" font-weight="700" lengthAdjust="spacing" textLength="55.3955" x="55" y="541.9229">Empleado</text><text fill="#000000" font-family="Arial" font-size="10" lengthAdjust="spacing" textLength="128.6621" x="113.5742" y="541.9229">solicita confirmar registro</text><text fill="#000000" font-family="Arial" font-size="10" font-weight="700" lengthAdjust="spacing" textLength="45.3125" x="55" y="553.5635">Sistema</text><text fill="#000000" font-family="Arial" font-size="10" lengthAdjust="spacing" textLength="250.415" x="103.4912" y="553.5635">crea reserva de visitante y transfiere a calendario</text></g><g class="entity" data-qualified-name="CALENDARIO_PARKING_ABIERTO" id="ent0008"><rect fill="#F1F1F1" height="50" rx="12.5" ry="12.5" style="stroke:#181818;stroke-width:0.5;" width="183.9551" x="117.52" y="709.64"/><line style="stroke:#181818;stroke-width:0.5;" x1="117.52" x2="301.4751" y1="731.2806" y2="731.2806"/><text fill="#000000" font-family="Arial" font-size="10" lengthAdjust="spacing" textLength="163.9551" x="127.52" y="723.9222">CALENDARIO_PARKING_ABIERTO</text></g><!--link registrarVisitante to CALENDARIO_PARKING_ABIERTO--><g class="link" data-entity-1="ent0002" data-entity-2="ent0008" data-link-type="dependency" data-source-line="40" id="lnk9"><path d="M130.22,618.93 C125.43,637.35 122.5,648.64 122.5,648.64 C122.5,648.64 122.5,679.64 122.5,679.64 C122.5,679.64 141.9523,691.7155 164.9723,706.0055" fill="none" id="registrarVisitante-to-CALENDARIO_PARKING_ABIERTO" style="stroke:#008000;stroke-width:1;"/><polygon fill="#008000" points="170.07,709.17,164.5331,701.0249,165.8219,706.533,160.3139,707.8218,170.07,709.17" style="stroke:#008000;stroke-width:1;"/><path d="M127.5,653.64 L127.5,674.64 L245.5,674.64 L245.5,663.64 L235.5,653.64 L127.5,653.64" fill="#FEFFDD" style="stroke:#181818;stroke-width:0.5;"/><path d="M235.5,653.64 L235.5,663.64 L245.5,663.64 L235.5,653.64" fill="#FEFFDD" style="stroke:#181818;stroke-width:0.5;"/><text fill="#000000" font-family="Arial" font-size="10" lengthAdjust="spacing" textLength="97.5488" x="133.5" y="667.9222">visitante registrado</text></g><!--link registrarVisitante to CALENDARIO_PARKING_ABIERTO--><g class="link" data-entity-1="ent0002" data-entity-2="ent0008" data-link-type="dependency" data-source-line="45" id="lnk10"><path d="M250.51,618.93 C252.98,637.35 254.5,648.64 254.5,648.64 C254.5,648.64 254.5,679.64 254.5,679.64 C254.5,679.64 245.6414,690.2709 233.7314,704.5609" fill="none" id="registrarVisitante-to-CALENDARIO_PARKING_ABIERTO-1" style="stroke:#0000FF;stroke-width:1;"/><polygon fill="#0000FF" points="229.89,709.17,238.7248,704.8174,233.0912,705.3291,232.5794,699.6955,229.89,709.17" style="stroke:#0000FF;stroke-width:1;"/><path d="M259.5,653.64 L259.5,674.64 L322.5,674.64 L322.5,663.64 L312.5,653.64 L259.5,653.64" fill="#FEFFDD" style="stroke:#181818;stroke-width:0.5;"/><path d="M312.5,653.64 L312.5,663.64 L322.5,663.64 L312.5,653.64" fill="#FEFFDD" style="stroke:#181818;stroke-width:0.5;"/><text fill="#000000" font-family="Arial" font-size="10" lengthAdjust="spacing" textLength="42.6318" x="265.5" y="667.9222">cancelar</text></g><?plantuml-src bLDTQjj047xNAGRtfIqDRT-3GKsSObeSOvU-X116gr4oPBKhPgM0KmezIw_G8_GcFKbcdLYoR3N4w6L_lfdlPqVXbbs5WYLOTbIlAeBAsrNS9A6zowd0njPdtjKpB0bIORJ3zqk-9_Zu8Kb2ZJM1q3M7Mb2-S-0QdHvXWD7-yUit8_YH03oMZVHJtDJLulF6CBdSdsBjmovYIPQCOUzG4NEBzxYBQ1aMJvovJnHpyVOIZYvUNGkHkpmQ3rCvhtsyYzdSwXRWE1jFoigIDZb-duqXUCj6stS-uMx3fmNQQzqZ4kuJzFW7ZGpnBvM7IbpJLqA1dD8NNih6eh3NjzY8yUkIVxz-myoNcT0xe39M8AnqXMmLQtjw7z5dP6umzh7uTDjUpKbALaqRtm96tvnTW_8S1fqXkuPi9x9lkPV8qCCT44aL6uPeetK8EOVAEyui1OYJ6nqMqMqdVg3AieONMiW9LcWunrnZR38skldxnpqVKS5IwchlOLwSrK0OlR1qd0-Qr_zesWdJ2CNH3YHtsCza1Qh1XO99z8zMrLRLnldRrlqpIGR-_stP9-dNoUmqNKpFh-Rfuijqzlag_JITBBwT9pjUEchfng5BQ9WdimqTHjF6lsdz0000?></g></svg>