<svg xmlns="http://www.w3.org/2000/svg" xmlns:xlink="http://www.w3.org/1999/xlink" contentStyleType="text/css" data-diagram-type="STATE" height="784px" preserveAspectRatio="none" style="width:433px;height:784px;background:#FFFFFF;" version="1.1" viewBox="0 0 433 784" width="433px" zoomAndPan="magnify"><?plantuml 1.2026.4beta2?><defs/><g><path d="M19.5,7 L405.5,7 A12.5,12.5 0 0 1 418,19.5 L418,28.6406 L7,28.6406 L7,19.5 A12.5,12.5 0 0 1 19.5,7" fill="#F1F1F1"/><rect fill="none" height="622.6406" rx="12.5" ry="12.5" style="stroke:#181818;stroke-width:0.5;" width="411" x="7" y="7"/><line style="stroke:#181818;stroke-width:0.5;" x1="7" x2="418" y1="28.6406" y2="28.6406"/><text fill="#000000" font-family="Arial" font-size="10" lengthAdjust="spacing" textLength="76.0107" x="174.4946" y="21.2822">reservarPlaza()</text><g class="entity" data-qualified-name="reservarPlaza.SolicitandoPlaza" id="ent0003"><rect fill="#F1F1F1" height="50" rx="12.5" ry="12.5" style="stroke:#181818;stroke-width:0.5;" width="50" x="19" y="126.6406"/><line style="stroke:#181818;stroke-width:0.5;" x1="19" x2="69" y1="148.2813" y2="148.2813"/><text fill="#000000" font-family="Arial" font-size="10" lengthAdjust="spacing" textLength="3.1787" x="42.4106" y="140.9229">&#160;</text></g><g class="entity" data-qualified-name="reservarPlaza.ProporcionandoDatos" id="ent0004"><rect fill="#F1F1F1" height="50" rx="12.5" ry="12.5" style="stroke:#181818;stroke-width:0.5;" width="50" x="19" y="301.6406"/><line style="stroke:#181818;stroke-width:0.5;" x1="19" x2="69" y1="323.2813" y2="323.2813"/><text fill="#000000" font-family="Arial" font-size="10" lengthAdjust="spacing" textLength="3.1787" x="42.4106" y="315.9229">&#160;</text></g><g class="entity" data-qualified-name="reservarPlaza.ReservaCreada" id="ent0005"><rect fill="#F1F1F1" height="50" rx="12.5" ry="12.5" style="stroke:#181818;stroke-width:0.5;" width="50" x="19" y="465.6406"/><line style="stroke:#181818;stroke-width:0.5;" x1="19" x2="69" y1="487.2813" y2="487.2813"/><text fill="#000000" font-family="Arial" font-size="10" lengthAdjust="spacing" textLength="3.1787" x="42.4106" y="479.9229">&#160;</text></g><g class="start_entity" data-qualified-name="reservarPlaza..start.reservarPlaza" data-source-line="10" id="ent0002"><ellipse cx="44" cy="49.6406" fill="#222222" rx="10" ry="10" style="stroke:#222222;stroke-width:1;"/></g><g class="end_entity" data-qualified-name="reservarPlaza..end.reservarPlaza" data-source-line="34" id="ent0006"><ellipse cx="44" cy="605.6406" fill="none" rx="11" ry="11" style="stroke:#222222;stroke-width:1;"/><ellipse cx="44" cy="605.6406" fill="#222222" rx="6" ry="6" style="stroke:#222222;stroke-width:1;"/></g><!--link *start*reservarPlaza to SolicitandoPlaza--><g class="link" data-entity-1="ent0002" data-entity-2="ent0003" data-link-type="dependency" data-source-line="10" id="lnk3"><path d="M44,59.8706 C44,74.8606 44,98.9706 44,120.4006" fill="none" id="*start*reservarPlaza-to-SolicitandoPlaza" style="stroke:#008000;stroke-width:1;"/><polygon fill="#008000" points="44,126.4006,48,117.4006,44,121.4006,40,117.4006,44,126.4006" style="stroke:#008000;stroke-width:1;"/><path d="M49,82.6406 L49,103.6406 L238,103.6406 L238,92.6406 L228,82.6406 L49,82.6406" fill="#FEFFDD" style="stroke:#181818;stroke-width:0.5;"/><path d="M228,82.6406 L228,92.6406 L238,92.6406 L228,82.6406" fill="#FEFFDD" style="stroke:#181818;stroke-width:0.5;"/><text fill="#000000" font-family="Arial" font-size="10" font-weight="700" lengthAdjust="spacing" textLength="55.3955" x="55" y="96.9229">Empleado</text><text fill="#000000" font-family="Arial" font-size="10" lengthAdjust="spacing" textLength="110.0928" x="113.5742" y="96.9229">solicita reservar plaza</text></g><!--link SolicitandoPlaza to ProporcionandoDatos--><g class="link" data-entity-1="ent0003" data-entity-2="ent0004" data-link-type="dependency" data-source-line="15" id="lnk4"><path d="M44,177.0606 C44,210.0306 44,262.4406 44,295.3406" fill="none" id="SolicitandoPlaza-to-ProporcionandoDatos" style="stroke:#008000;stroke-width:1;"/><polygon fill="#008000" points="44,301.3406,48,292.3406,44,296.3406,40,292.3406,44,301.3406" style="stroke:#008000;stroke-width:1;"/><path d="M49,199.6406 L49,278.6406 L362,278.6406 L362,209.6406 L352,199.6406 L49,199.6406" fill="#FEFFDD" style="stroke:#181818;stroke-width:0.5;"/><path d="M352,199.6406 L352,209.6406 L362,209.6406 L352,199.6406" fill="#FEFFDD" style="stroke:#181818;stroke-width:0.5;"/><text fill="#000000" font-family="Arial" font-size="10" font-weight="700" lengthAdjust="spacing" textLength="45.3125" x="55" y="213.9229">Sistema</text><text fill="#000000" font-family="Arial" font-size="10" lengthAdjust="spacing" textLength="244.2236" x="103.4912" y="213.9229">presenta calendario con disponibilidad por fecha</text><text fill="#000000" font-family="Arial" font-size="10" lengthAdjust="spacing" textLength="117.6025" x="55" y="225.5635">&#8226; D&#237;as con plazas libres</text><text fill="#000000" font-family="Arial" font-size="10" lengthAdjust="spacing" textLength="158.2471" x="55" y="237.2041">&#8226; D&#237;as con cesiones disponibles</text><text fill="#000000" font-family="Arial" font-size="10" lengthAdjust="spacing" textLength="121.001" x="55" y="248.8447">&#8226; D&#237;as sin disponibilidad</text><text fill="#000000" font-family="Arial" font-size="10" lengthAdjust="spacing" textLength="165.3467" x="55" y="260.4854">&#8226; Permite solicitar reservar plaza</text><text fill="#000000" font-family="Arial" font-size="10" lengthAdjust="spacing" textLength="136.2744" x="55" y="272.126">&#8226; Permite solicitar cancelar</text></g><!--link ProporcionandoDatos to ReservaCreada--><g class="link" data-entity-1="ent0004" data-entity-2="ent0005" data-link-type="dependency" data-source-line="25" id="lnk5"><path d="M44,351.8906 C44,382.4306 44,428.6006 44,459.2206" fill="none" id="ProporcionandoDatos-to-ReservaCreada" style="stroke:#008000;stroke-width:1;"/><polygon fill="#008000" points="44,465.2206,48,456.2206,44,460.2206,40,456.2206,44,465.2206" style="stroke:#008000;stroke-width:1;"/><path d="M49,374.6406 L49,442.6406 L394,442.6406 L394,384.6406 L384,374.6406 L49,374.6406" fill="#FEFFDD" style="stroke:#181818;stroke-width:0.5;"/><path d="M384,374.6406 L384,384.6406 L394,384.6406 L384,374.6406" fill="#FEFFDD" style="stroke:#181818;stroke-width:0.5;"/><text fill="#000000" font-family="Arial" font-size="10" font-weight="700" lengthAdjust="spacing" textLength="45.3125" x="55" y="388.9229">Sistema</text><text fill="#000000" font-family="Arial" font-size="10" lengthAdjust="spacing" textLength="276.0645" x="103.4912" y="388.9229">presenta plazas disponibles para la fecha seleccionada</text><text fill="#000000" font-family="Arial" font-size="10" lengthAdjust="spacing" textLength="118.6719" x="55" y="400.5635">&#8226; Plazas est&#225;ndar libres</text><text fill="#000000" font-family="Arial" font-size="10" lengthAdjust="spacing" textLength="150.4932" x="55" y="412.2041">&#8226; Cesiones disponibles del d&#237;a</text><text fill="#000000" font-family="Arial" font-size="10" lengthAdjust="spacing" textLength="182.9492" x="55" y="423.8447">&#8226; Permite solicitar confirmar reserva</text><text fill="#000000" font-family="Arial" font-size="10" lengthAdjust="spacing" textLength="136.2744" x="55" y="435.4854">&#8226; Permite solicitar cancelar</text></g><!--link ReservaCreada to *end*reservarPlaza--><g class="link" data-entity-1="ent0005" data-entity-2="ent0006" data-link-type="dependency" data-source-line="34" id="lnk7"><path d="M44,515.8806 C44,540.2606 44,570.7006 44,588.3406" fill="none" id="ReservaCreada-to-*end*reservarPlaza" style="stroke:#008000;stroke-width:1;"/><polygon fill="#008000" points="44,594.3406,48,585.3406,44,589.3406,40,585.3406,44,594.3406" style="stroke:#008000;stroke-width:1;"/><path d="M49,538.6406 L49,571.6406 L306,571.6406 L306,548.6406 L296,538.6406 L49,538.6406" fill="#FEFFDD" style="stroke:#181818;stroke-width:0.5;"/><path d="M296,538.6406 L296,548.6406 L306,548.6406 L296,538.6406" fill="#FEFFDD" style="stroke:#181818;stroke-width:0.5;"/><text fill="#000000" font-family="Arial" font-size="10" font-weight="700" lengthAdjust="spacing" textLength="55.3955" x="55" y="552.9229">Empleado</text><text fill="#000000" font-family="Arial" font-size="10" lengthAdjust="spacing" textLength="127.6953" x="113.5742" y="552.9229">solicita confirmar reserva</text><text fill="#000000" font-family="Arial" font-size="10" font-weight="700" lengthAdjust="spacing" textLength="45.3125" x="55" y="564.5635">Sistema</text><text fill="#000000" font-family="Arial" font-size="10" lengthAdjust="spacing" textLength="188.4131" x="103.4912" y="564.5635">crea reserva y transfiere a calendario</text></g><g class="entity" data-qualified-name="CALENDARIO_PARKING_ABIERTO" id="ent0008"><rect fill="#F1F1F1" height="50" rx="12.5" ry="12.5" style="stroke:#181818;stroke-width:0.5;" width="183.9551" x="120.52" y="720.64"/><line style="stroke:#181818;stroke-width:0.5;" x1="120.52" x2="304.4751" y1="742.2806" y2="742.2806"/><text fill="#000000" font-family="Arial" font-size="10" lengthAdjust="spacing" textLength="163.9551" x="130.52" y="734.9222">CALENDARIO_PARKING_ABIERTO</text></g><!--link reservarPlaza to CALENDARIO_PARKING_ABIERTO--><g class="link" data-entity-1="ent0002" data-entity-2="ent0008" data-link-type="dependency" data-source-line="41" id="lnk9"><path d="M133.07,630.03 C128.37,648.41 125.5,659.64 125.5,659.64 C125.5,659.64 125.5,690.64 125.5,690.64 C125.5,690.64 144.9523,702.7155 167.9723,717.0055" fill="none" id="reservarPlaza-to-CALENDARIO_PARKING_ABIERTO" style="stroke:#008000;stroke-width:1;"/><polygon fill="#008000" points="173.07,720.17,167.5331,712.0249,168.8219,717.533,163.3139,718.8218,173.07,720.17" style="stroke:#008000;stroke-width:1;"/><path d="M130.5,664.64 L130.5,685.64 L248.5,685.64 L248.5,674.64 L238.5,664.64 L130.5,664.64" fill="#FEFFDD" style="stroke:#181818;stroke-width:0.5;"/><path d="M238.5,664.64 L238.5,674.64 L248.5,674.64 L238.5,664.64" fill="#FEFFDD" style="stroke:#181818;stroke-width:0.5;"/><text fill="#000000" font-family="Arial" font-size="10" lengthAdjust="spacing" textLength="97.6709" x="136.5" y="678.9222">reserva confirmada</text></g><!--link reservarPlaza to CALENDARIO_PARKING_ABIERTO--><g class="link" data-entity-1="ent0002" data-entity-2="ent0008" data-link-type="dependency" data-source-line="46" id="lnk10"><path d="M253.59,630.03 C256.02,648.41 257.5,659.64 257.5,659.64 C257.5,659.64 257.5,690.64 257.5,690.64 C257.5,690.64 248.6414,701.2709 236.7314,715.5609" fill="none" id="reservarPlaza-to-CALENDARIO_PARKING_ABIERTO-1" style="stroke:#0000FF;stroke-width:1;"/><polygon fill="#0000FF" points="232.89,720.17,241.7248,715.8174,236.0912,716.3291,235.5794,710.6955,232.89,720.17" style="stroke:#0000FF;stroke-width:1;"/><path d="M262.5,664.64 L262.5,685.64 L325.5,685.64 L325.5,674.64 L315.5,664.64 L262.5,664.64" fill="#FEFFDD" style="stroke:#181818;stroke-width:0.5;"/><path d="M315.5,664.64 L315.5,674.64 L325.5,674.64 L315.5,664.64" fill="#FEFFDD" style="stroke:#181818;stroke-width:0.5;"/><text fill="#000000" font-family="Arial" font-size="10" lengthAdjust="spacing" textLength="42.6318" x="268.5" y="678.9222">cancelar</text></g><?plantuml-src bPJ1Qjj048RlUeh1lJI5qFOU3Ahj5jFY6Bkt4C9eTzmkMUsAsKt1AO6yIdhFK-HDyYGPoPOYoMh0wBIQV-R_zzkLmhLn1JBcO8sZk2q82c-tvI89JKtJ1czi_EfTN61EaB91ErnVcrk2pv-I94IC14o1-0_oqk8j0WOOTTwyFnd1tmHW9nx98vArjqQPY4xxIjIlBzaNdfNnhfHCCVhGbwns9XCcr9X8zUB39PnUlFl5HExoT3pauRpqUrU2k9Obm5asdkM5bH7-x6CsXh3lQJO5nRwLdAxQIwV-v8xjSFGXvxK9aNAiZ8lIq8cnGYjMoCQ34hqseV3EPCOQZLeEZc53wZTMCvxl_y7qwL5WbD8gQH27J6ODr1K52KMXcMaFPC7q7Hl1aZWtieUQ41yY-fzGeLDaaNiK1q1rG7OF-0Y4Un2jRK9vXy7YZXq4igGgOztAlUkY49yUoWFeWvmCu9Elme8MT6_jthkDuVmLsF6aEYGwZEJE7tMjXyFqG2hngUkmXSZemiOG4xIlPplZNP9q_mBjZ9FqnsmnJLVpywjbkle-NtoxIh_CPwkVvqalUErPfvJJUSLmO93P6pfkVeEtdle2?></g></svg>