<svg xmlns="http://www.w3.org/2000/svg" xmlns:xlink="http://www.w3.org/1999/xlink" contentStyleType="text/css" data-diagram-type="STATE" height="813px" preserveAspectRatio="none" style="width:505px;height:813px;background:#FFFFFF;" version="1.1" viewBox="0 0 505 813" width="505px" zoomAndPan="magnify"><?plantuml 1.2026.3?><defs/><g><rect fill="#F1F1F1" height="40" rx="12.5" ry="12.5" style="stroke:#181818;stroke-width:0.5;" width="171.082" x="162.96" y="7"/><text fill="#000000" font-family="sans-serif" font-size="14" lengthAdjust="spacing" textLength="161.082" x="167.96" y="31.8467">CALENDARIO_PARKING</text><rect fill="#F1F1F1" height="40" rx="12.5" ry="12.5" style="stroke:#181818;stroke-width:0.5;" width="171.082" x="162.96" y="759.3"/><text fill="#000000" font-family="sans-serif" font-size="14" lengthAdjust="spacing" textLength="161.082" x="167.96" y="784.1467">CALENDARIO_PARKING</text><path d="M19.5,108 L477.5,108 A12.5,12.5 0 0 1 490,120.5 L490,134.2969 L7,134.2969 L7,120.5 A12.5,12.5 0 0 1 19.5,108" fill="#F1F1F1"/><rect fill="none" height="556.2969" rx="12.5" ry="12.5" style="stroke:#181818;stroke-width:0.5;" width="483" x="7" y="108"/><line style="stroke:#181818;stroke-width:0.5;" x1="7" x2="490" y1="134.2969" y2="134.2969"/><text fill="#000000" font-family="sans-serif" font-size="14" lengthAdjust="spacing" textLength="106.415" x="195.2925" y="125.9951">reservarPlaza()</text><rect fill="#F1F1F1" height="40" rx="12.5" ry="12.5" style="stroke:#181818;stroke-width:0.5;" width="50" x="19" y="236.2969"/><text fill="#000000" font-family="sans-serif" font-size="14" lengthAdjust="spacing" textLength="4.4502" x="41.7749" y="261.1436">&#160;</text><rect fill="#F1F1F1" height="40" rx="12.5" ry="12.5" style="stroke:#181818;stroke-width:0.5;" width="50" x="19" y="362.2969"/><text fill="#000000" font-family="sans-serif" font-size="14" lengthAdjust="spacing" textLength="4.4502" x="41.7749" y="387.1436">&#160;</text><rect fill="#F1F1F1" height="40" rx="12.5" ry="12.5" style="stroke:#181818;stroke-width:0.5;" width="50" x="19" y="518.2969"/><text fill="#000000" font-family="sans-serif" font-size="14" lengthAdjust="spacing" textLength="4.4502" x="41.7749" y="543.1436">&#160;</text><g class="start_entity" data-qualified-name="reservarPlaza..start.reservarPlaza" data-source-line="15" id="ent0003"><ellipse cx="44" cy="155.2969" fill="#222222" rx="10" ry="10" style="stroke:#222222;stroke-width:1;"/></g><g class="end_entity" data-qualified-name="reservarPlaza..end.reservarPlaza" data-source-line="34" id="ent0007"><ellipse cx="44" cy="640.2969" fill="none" rx="11" ry="11" style="stroke:#222222;stroke-width:1;"/><ellipse cx="44" cy="640.2969" fill="#222222" rx="6" ry="6" style="stroke:#222222;stroke-width:1;"/></g><!--link *start*reservarPlaza to SeleccionandoFecha--><g class="link" data-entity-1="ent0003" data-entity-2="ent0005" data-link-type="dependency" data-source-line="15" id="lnk4"><path d="M44,165.7869 C44,181.8569 44,208.7269 44,229.8469" fill="none" id="*start*reservarPlaza-to-SeleccionandoFecha" style="stroke:#008000;stroke-width:1;"/><polygon fill="#008000" points="44,235.8469,48,226.8469,44,230.8469,40,226.8469,44,235.8469" style="stroke:#008000;stroke-width:1;"/><path d="M49,188.2969 L49,213.2969 L354,213.2969 L354,198.2969 L344,188.2969 L49,188.2969" fill="#FEFFDD" style="stroke:#181818;stroke-width:0.5;"/><path d="M344,188.2969 L344,198.2969 L354,198.2969 L344,188.2969" fill="#FEFFDD" style="stroke:#181818;stroke-width:0.5;"/><text fill="#000000" font-family="sans-serif" font-size="13" font-weight="700" lengthAdjust="spacing" textLength="72.0142" x="55" y="205.3638">Empleado</text><text fill="#000000" font-family="sans-serif" font-size="13" lengthAdjust="spacing" textLength="208.1523" x="131.1465" y="205.3638">accede al calendario de parking</text></g><!--link SeleccionandoFecha to SeleccionandoPlaza--><g class="link" data-entity-1="ent0005" data-entity-2="ent0006" data-link-type="dependency" data-source-line="20" id="lnk5"><path d="M44,276.6669 C44,299.9669 44,332.8269 44,356.0569" fill="none" id="SeleccionandoFecha-to-SeleccionandoPlaza" style="stroke:#008000;stroke-width:1;"/><polygon fill="#008000" points="44,362.0569,48,353.0569,44,357.0569,40,353.0569,44,362.0569" style="stroke:#008000;stroke-width:1;"/><path d="M49,299.2969 L49,339.2969 L466,339.2969 L466,309.2969 L456,299.2969 L49,299.2969" fill="#FEFFDD" style="stroke:#181818;stroke-width:0.5;"/><path d="M456,299.2969 L456,309.2969 L466,309.2969 L456,299.2969" fill="#FEFFDD" style="stroke:#181818;stroke-width:0.5;"/><text fill="#000000" font-family="sans-serif" font-size="13" font-weight="700" lengthAdjust="spacing" textLength="58.9063" x="55" y="316.3638">Sistema</text><text fill="#000000" font-family="sans-serif" font-size="13" lengthAdjust="spacing" textLength="333.2329" x="118.0386" y="316.3638">presenta el calendario con disponibilidad por fecha</text><text fill="#000000" font-family="sans-serif" font-size="13" font-weight="700" lengthAdjust="spacing" textLength="72.0142" x="55" y="331.4966">Empleado</text><text fill="#000000" font-family="sans-serif" font-size="13" lengthAdjust="spacing" textLength="207.7715" x="131.1465" y="331.4966">selecciona una fecha disponible</text></g><!--link SeleccionandoPlaza to ConfirmandoReserva--><g class="link" data-entity-1="ent0006" data-entity-2="ent0007" data-link-type="dependency" data-source-line="26" id="lnk6"><path d="M44,402.4869 C44,431.9969 44,482.2069 44,511.8669" fill="none" id="SeleccionandoPlaza-to-ConfirmandoReserva" style="stroke:#008000;stroke-width:1;"/><polygon fill="#008000" points="44,517.8669,48,508.8669,44,512.8669,40,508.8669,44,517.8669" style="stroke:#008000;stroke-width:1;"/><path d="M49,425.2969 L49,495.2969 L410,495.2969 L410,435.2969 L400,425.2969 L49,425.2969" fill="#FEFFDD" style="stroke:#181818;stroke-width:0.5;"/><path d="M400,425.2969 L400,435.2969 L410,435.2969 L400,425.2969" fill="#FEFFDD" style="stroke:#181818;stroke-width:0.5;"/><text fill="#000000" font-family="sans-serif" font-size="13" font-weight="700" lengthAdjust="spacing" textLength="58.9063" x="55" y="442.3638">Sistema</text><text fill="#000000" font-family="sans-serif" font-size="13" lengthAdjust="spacing" textLength="262.4058" x="118.0386" y="442.3638">muestra las plazas libres para esa fecha</text><text fill="#000000" font-family="sans-serif" font-size="13" lengthAdjust="spacing" textLength="192.0103" x="55" y="457.4966">&#8226; Plazas est&#225;ndar disponibles</text><text fill="#000000" font-family="sans-serif" font-size="13" lengthAdjust="spacing" textLength="195.6411" x="55" y="472.6294">&#8226; Cesiones disponibles del d&#237;a</text><text fill="#000000" font-family="sans-serif" font-size="13" font-weight="700" lengthAdjust="spacing" textLength="72.0142" x="55" y="487.7622">Empleado</text><text fill="#000000" font-family="sans-serif" font-size="13" lengthAdjust="spacing" textLength="264.4878" x="131.1465" y="487.7622">selecciona una plaza y solicita confirmar</text></g><!--link ConfirmandoReserva to *end*reservarPlaza--><g class="link" data-entity-1="ent0007" data-entity-2="ent0007" data-link-type="dependency" data-source-line="34" id="lnk8"><path d="M44,558.5769 C44,579.5769 44,606.3769 44,622.9569" fill="none" id="ConfirmandoReserva-to-*end*reservarPlaza" style="stroke:#008000;stroke-width:1;"/><polygon fill="#008000" points="44,628.9569,48,619.9569,44,623.9569,40,619.9569,44,628.9569" style="stroke:#008000;stroke-width:1;"/><path d="M49,581.2969 L49,606.2969 L388,606.2969 L388,591.2969 L378,581.2969 L49,581.2969" fill="#FEFFDD" style="stroke:#181818;stroke-width:0.5;"/><path d="M378,581.2969 L378,591.2969 L388,591.2969 L378,581.2969" fill="#FEFFDD" style="stroke:#181818;stroke-width:0.5;"/><text fill="#000000" font-family="sans-serif" font-size="13" font-weight="700" lengthAdjust="spacing" textLength="58.9063" x="55" y="598.3638">Sistema</text><text fill="#000000" font-family="sans-serif" font-size="13" lengthAdjust="spacing" textLength="255.417" x="118.0386" y="598.3638">crea la reserva y confirma al empleado</text></g><!--link VistaParkingInicio to reservarPlaza--><g class="link" data-entity-1="ent0002" data-entity-2="ent0004" data-link-type="dependency" data-source-line="8" id="lnk2"><path d="M248.5,47.46 C248.5,61.72 248.5,76.9 248.5,101.82" fill="none" id="VistaParkingInicio-to-reservarPlaza" style="stroke:#008000;stroke-width:1;"/><polygon fill="#008000" points="248.5,107.82,252.5,98.82,248.5,102.82,244.5,98.82,248.5,107.82" style="stroke:#008000;stroke-width:1;"/></g><!--link reservarPlaza to VistaParkingFin--><g class="link" data-entity-1="ent0004" data-entity-2="ent0003" data-link-type="dependency" data-source-line="40" id="lnk9"><path d="M157.28,664.57 C151.24,682.93 147.5,694.3 147.5,694.3 C147.5,694.3 147.5,729.3 147.5,729.3 C147.5,729.3 174.9513,742.6219 203.1813,756.3119" fill="none" id="reservarPlaza-to-VistaParkingFin" style="stroke:#008000;stroke-width:1;"/><polygon fill="#008000" points="208.58,758.93,202.2274,751.4038,204.0811,756.7483,198.7366,758.602,208.58,758.93" style="stroke:#008000;stroke-width:1;"/><path d="M152.5,699.3 L152.5,724.3 L299.5,724.3 L299.5,709.3 L289.5,699.3 L152.5,699.3" fill="#FEFFDD" style="stroke:#181818;stroke-width:0.5;"/><path d="M289.5,699.3 L289.5,709.3 L299.5,709.3 L289.5,699.3" fill="#FEFFDD" style="stroke:#181818;stroke-width:0.5;"/><text fill="#000000" font-family="sans-serif" font-size="13" lengthAdjust="spacing" textLength="126.9722" x="158.5" y="716.3669">reserva confirmada</text></g><!--link reservarPlaza to VistaParkingFin--><g class="link" data-entity-1="ent0004" data-entity-2="ent0003" data-link-type="dependency" data-source-line="45" id="lnk10"><path d="M302.69,664.57 C306.28,682.93 308.5,694.3 308.5,694.3 C308.5,694.3 308.5,729.3 308.5,729.3 C308.5,729.3 293.6279,741.4457 276.8579,755.1357" fill="none" id="reservarPlaza-to-VistaParkingFin-1" style="stroke:#0000FF;stroke-width:1;"/><polygon fill="#0000FF" points="272.21,758.93,281.7114,756.3372,276.0833,755.7681,276.6524,750.1399,272.21,758.93" style="stroke:#0000FF;stroke-width:1;"/><path d="M313.5,699.3 L313.5,724.3 L389.5,724.3 L389.5,709.3 L379.5,699.3 L313.5,699.3" fill="#FEFFDD" style="stroke:#181818;stroke-width:0.5;"/><path d="M379.5,699.3 L379.5,709.3 L389.5,709.3 L379.5,699.3" fill="#FEFFDD" style="stroke:#181818;stroke-width:0.5;"/><text fill="#000000" font-family="sans-serif" font-size="13" lengthAdjust="spacing" textLength="55.4214" x="319.5" y="716.3669">cancelar</text></g><?plantuml-src bLFDIWCn4BxlKmpreeBu0b8ezOUYrDA25oaocumQp2OXsGfL15z5xpv5tyGdSRBRhRlTglMmXvtCV7-PX0Tb77hCG2j3-TmHEAldyIUvLvA0CfVFGL8GNhbSMPCa8SUSeDFlNPmCZtlZmUNDg3S-7mpFEe01hXIVZz0pyDt0AA7iFmPE5UEt4U3WUkVE4vdfGHSy1VAFw4SQdx1IqoX6r4wZihlNWUS4OAa42k89QHACRj18UqhY7d_jAFdMElhMt2gVnVDnIPXmo_N-j25v8vEn36DD3Fw1Vm6Eqkv9vZIXj4U7QHTG2E8RG0q2DHc9dfFWWYkZuHak5Z2HiytniuJAoYO94qwVCYmKk1YYoH6eeK7mY5J1MQDIfPL4oKlZuNPfhEqahCXXnb_Hk4BGz9kJyaBhJZP4_hUJR4OXzmYQxyn5oC2jATkBQRA_W3Nvdw_lC2gRU6hn5ctNv8PLKvy2osIGsY7Va0Qv-DWgYK8Ap25OpNlEGOkbER-MITjq8nDUk2r249vY0jLZOTwABYuPBNNMcL-IfFcowgJh3tUDlcAfE2GctuvQgAcUqHQW0eqWpV6ieBu0?></g></svg>