<svg xmlns="http://www.w3.org/2000/svg" xmlns:xlink="http://www.w3.org/1999/xlink" contentStyleType="text/css" data-diagram-type="STATE" height="828px" preserveAspectRatio="none" style="width:519px;height:828px;background:#FFFFFF;" version="1.1" viewBox="0 0 519 828" width="519px" zoomAndPan="magnify"><?plantuml 1.2026.3?><defs/><g><rect fill="#F1F1F1" height="40" rx="12.5" ry="12.5" style="stroke:#181818;stroke-width:0.5;" width="161.3613" x="174.82" y="7"/><text fill="#000000" font-family="sans-serif" font-size="14" lengthAdjust="spacing" textLength="151.3613" x="179.82" y="31.8467">GESTION_VISITANTES</text><rect fill="#F1F1F1" height="40" rx="12.5" ry="12.5" style="stroke:#181818;stroke-width:0.5;" width="161.3613" x="174.82" y="774.3"/><text fill="#000000" font-family="sans-serif" font-size="14" lengthAdjust="spacing" textLength="151.3613" x="179.82" y="799.1467">GESTION_VISITANTES</text><path d="M19.5,108 L491.5,108 A12.5,12.5 0 0 1 504,120.5 L504,134.2969 L7,134.2969 L7,120.5 A12.5,12.5 0 0 1 19.5,108" fill="#F1F1F1"/><rect fill="none" height="571.2969" rx="12.5" ry="12.5" style="stroke:#181818;stroke-width:0.5;" width="497" x="7" y="108"/><line style="stroke:#181818;stroke-width:0.5;" x1="7" x2="504" y1="134.2969" y2="134.2969"/><text fill="#000000" font-family="sans-serif" font-size="14" lengthAdjust="spacing" textLength="132.6377" x="189.1812" y="125.9951">registrarVisitante()</text><rect fill="#F1F1F1" height="40" rx="12.5" ry="12.5" style="stroke:#181818;stroke-width:0.5;" width="50" x="19" y="236.2969"/><text fill="#000000" font-family="sans-serif" font-size="14" lengthAdjust="spacing" textLength="4.4502" x="41.7749" y="261.1436">&#160;</text><rect fill="#F1F1F1" height="40" rx="12.5" ry="12.5" style="stroke:#181818;stroke-width:0.5;" width="50" x="19" y="392.2969"/><text fill="#000000" font-family="sans-serif" font-size="14" lengthAdjust="spacing" textLength="4.4502" x="41.7749" y="417.1436">&#160;</text><rect fill="#F1F1F1" height="40" rx="12.5" ry="12.5" style="stroke:#181818;stroke-width:0.5;" width="50" x="19" y="518.2969"/><text fill="#000000" font-family="sans-serif" font-size="14" lengthAdjust="spacing" textLength="4.4502" x="41.7749" y="543.1436">&#160;</text><g class="start_entity" data-qualified-name="registrarVisitante..start.registrarVisitante" data-source-line="15" id="ent0003"><ellipse cx="44" cy="155.2969" fill="#222222" rx="10" ry="10" style="stroke:#222222;stroke-width:1;"/></g><g class="end_entity" data-qualified-name="registrarVisitante..end.registrarVisitante" data-source-line="34" id="ent0007"><ellipse cx="44" cy="655.2969" fill="none" rx="11" ry="11" style="stroke:#222222;stroke-width:1;"/><ellipse cx="44" cy="655.2969" fill="#222222" rx="6" ry="6" style="stroke:#222222;stroke-width:1;"/></g><!--link *start*registrarVisitante to IntroduciendoDatos--><g class="link" data-entity-1="ent0003" data-entity-2="ent0005" data-link-type="dependency" data-source-line="15" id="lnk4"><path d="M44,165.7869 C44,181.8569 44,208.7269 44,229.8469" fill="none" id="*start*registrarVisitante-to-IntroduciendoDatos" style="stroke:#008000;stroke-width:1;"/><polygon fill="#008000" points="44,235.8469,48,226.8469,44,230.8469,40,226.8469,44,235.8469" style="stroke:#008000;stroke-width:1;"/><path d="M49,188.2969 L49,213.2969 L348,213.2969 L348,198.2969 L338,188.2969 L49,188.2969" fill="#FEFFDD" style="stroke:#181818;stroke-width:0.5;"/><path d="M338,188.2969 L338,198.2969 L348,198.2969 L338,188.2969" fill="#FEFFDD" style="stroke:#181818;stroke-width:0.5;"/><text fill="#000000" font-family="sans-serif" font-size="13" font-weight="700" lengthAdjust="spacing" textLength="72.0142" x="55" y="205.3638">Empleado</text><text fill="#000000" font-family="sans-serif" font-size="13" lengthAdjust="spacing" textLength="202.4014" x="131.1465" y="205.3638">accede al m&#243;dulo de visitantes</text></g><!--link IntroduciendoDatos to SeleccionandoPlaza--><g class="link" data-entity-1="ent0005" data-entity-2="ent0006" data-link-type="dependency" data-source-line="20" id="lnk5"><path d="M44,276.4869 C44,305.9969 44,356.2069 44,385.8669" fill="none" id="IntroduciendoDatos-to-SeleccionandoPlaza" style="stroke:#008000;stroke-width:1;"/><polygon fill="#008000" points="44,391.8669,48,382.8669,44,386.8669,40,382.8669,44,391.8669" style="stroke:#008000;stroke-width:1;"/><path d="M49,299.2969 L49,369.2969 L354,369.2969 L354,309.2969 L344,299.2969 L49,299.2969" fill="#FEFFDD" style="stroke:#181818;stroke-width:0.5;"/><path d="M344,299.2969 L344,309.2969 L354,309.2969 L344,299.2969" fill="#FEFFDD" style="stroke:#181818;stroke-width:0.5;"/><text fill="#000000" font-family="sans-serif" font-size="13" font-weight="700" lengthAdjust="spacing" textLength="58.9063" x="55" y="316.3638">Sistema</text><text fill="#000000" font-family="sans-serif" font-size="13" lengthAdjust="spacing" textLength="219.6987" x="118.0386" y="316.3638">presenta el formulario de registro</text><text fill="#000000" font-family="sans-serif" font-size="13" font-weight="700" lengthAdjust="spacing" textLength="72.0142" x="55" y="331.4966">Empleado</text><text fill="#000000" font-family="sans-serif" font-size="13" lengthAdjust="spacing" textLength="208.7427" x="131.1465" y="331.4966">introduce los datos del visitante</text><text fill="#000000" font-family="sans-serif" font-size="13" lengthAdjust="spacing" textLength="173.1133" x="55" y="346.6294">&#8226; Nombre, empresa, email</text><text fill="#000000" font-family="sans-serif" font-size="13" lengthAdjust="spacing" textLength="125.6074" x="55" y="361.7622">&#8226; Fecha de la visita</text></g><!--link SeleccionandoPlaza to VisitanteRegistrado--><g class="link" data-entity-1="ent0006" data-entity-2="ent0007" data-link-type="dependency" data-source-line="28" id="lnk6"><path d="M44,432.6669 C44,455.9669 44,488.8269 44,512.0569" fill="none" id="SeleccionandoPlaza-to-VisitanteRegistrado" style="stroke:#008000;stroke-width:1;"/><polygon fill="#008000" points="44,518.0569,48,509.0569,44,513.0569,40,509.0569,44,518.0569" style="stroke:#008000;stroke-width:1;"/><path d="M49,455.2969 L49,495.2969 L480,495.2969 L480,465.2969 L470,455.2969 L49,455.2969" fill="#FEFFDD" style="stroke:#181818;stroke-width:0.5;"/><path d="M470,455.2969 L470,465.2969 L480,465.2969 L470,455.2969" fill="#FEFFDD" style="stroke:#181818;stroke-width:0.5;"/><text fill="#000000" font-family="sans-serif" font-size="13" font-weight="700" lengthAdjust="spacing" textLength="58.9063" x="55" y="472.3638">Sistema</text><text fill="#000000" font-family="sans-serif" font-size="13" lengthAdjust="spacing" textLength="347.1025" x="118.0386" y="472.3638">muestra plazas de visitante disponibles para la fecha</text><text fill="#000000" font-family="sans-serif" font-size="13" font-weight="700" lengthAdjust="spacing" textLength="72.0142" x="55" y="487.4966">Empleado</text><text fill="#000000" font-family="sans-serif" font-size="13" lengthAdjust="spacing" textLength="279.4873" x="131.1465" y="487.4966">selecciona una plaza y confirma el registro</text></g><!--link VisitanteRegistrado to *end*registrarVisitante--><g class="link" data-entity-1="ent0007" data-entity-2="ent0007" data-link-type="dependency" data-source-line="34" id="lnk8"><path d="M44,558.5469 C44,583.0969 44,618.6869 44,637.9369" fill="none" id="VisitanteRegistrado-to-*end*registrarVisitante" style="stroke:#008000;stroke-width:1;"/><polygon fill="#008000" points="44,643.9369,48,634.9369,44,638.9369,40,634.9369,44,643.9369" style="stroke:#008000;stroke-width:1;"/><path d="M49,581.2969 L49,621.2969 L393,621.2969 L393,591.2969 L383,581.2969 L49,581.2969" fill="#FEFFDD" style="stroke:#181818;stroke-width:0.5;"/><path d="M383,581.2969 L383,591.2969 L393,591.2969 L383,581.2969" fill="#FEFFDD" style="stroke:#181818;stroke-width:0.5;"/><text fill="#000000" font-family="sans-serif" font-size="13" font-weight="700" lengthAdjust="spacing" textLength="58.9063" x="55" y="598.3638">Sistema</text><text fill="#000000" font-family="sans-serif" font-size="13" lengthAdjust="spacing" textLength="178.02" x="118.0386" y="598.3638">crea la reserva de visitante</text><text fill="#000000" font-family="sans-serif" font-size="13" font-weight="700" lengthAdjust="spacing" textLength="58.9063" x="55" y="613.4966">Sistema</text><text fill="#000000" font-family="sans-serif" font-size="13" lengthAdjust="spacing" textLength="260.3936" x="118.0386" y="613.4966">env&#237;a email de confirmaci&#243;n al visitante</text></g><!--link GestionVisitantesInicio to registrarVisitante--><g class="link" data-entity-1="ent0002" data-entity-2="ent0004" data-link-type="dependency" data-source-line="8" id="lnk2"><path d="M255.5,47.35 C255.5,61.56 255.5,76.68 255.5,101.6" fill="none" id="GestionVisitantesInicio-to-registrarVisitante" style="stroke:#008000;stroke-width:1;"/><polygon fill="#008000" points="255.5,107.6,259.5,98.6,255.5,102.6,251.5,98.6,255.5,107.6" style="stroke:#008000;stroke-width:1;"/></g><!--link registrarVisitante to GestionVisitantesFin--><g class="link" data-entity-1="ent0004" data-entity-2="ent0003" data-link-type="dependency" data-source-line="41" id="lnk9"><path d="M164,679.7 C158.13,698.01 154.5,709.3 154.5,709.3 C154.5,709.3 154.5,744.3 154.5,744.3 C154.5,744.3 181.9513,757.6219 210.1813,771.3119" fill="none" id="registrarVisitante-to-GestionVisitantesFin" style="stroke:#008000;stroke-width:1;"/><polygon fill="#008000" points="215.58,773.93,209.2274,766.4038,211.0811,771.7483,205.7366,773.602,215.58,773.93" style="stroke:#008000;stroke-width:1;"/><path d="M159.5,714.3 L159.5,739.3 L306.5,739.3 L306.5,724.3 L296.5,714.3 L159.5,714.3" fill="#FEFFDD" style="stroke:#181818;stroke-width:0.5;"/><path d="M296.5,714.3 L296.5,724.3 L306.5,724.3 L296.5,714.3" fill="#FEFFDD" style="stroke:#181818;stroke-width:0.5;"/><text fill="#000000" font-family="sans-serif" font-size="13" lengthAdjust="spacing" textLength="126.8135" x="165.5" y="731.3669">visitante registrado</text></g><!--link registrarVisitante to GestionVisitantesFin--><g class="link" data-entity-1="ent0004" data-entity-2="ent0003" data-link-type="dependency" data-source-line="46" id="lnk10"><path d="M309.86,679.7 C313.35,698.01 315.5,709.3 315.5,709.3 C315.5,709.3 315.5,744.3 315.5,744.3 C315.5,744.3 300.6279,756.4457 283.8579,770.1357" fill="none" id="registrarVisitante-to-GestionVisitantesFin-1" style="stroke:#0000FF;stroke-width:1;"/><polygon fill="#0000FF" points="279.21,773.93,288.7114,771.3372,283.0833,770.7681,283.6524,765.1399,279.21,773.93" style="stroke:#0000FF;stroke-width:1;"/><path d="M320.5,714.3 L320.5,739.3 L396.5,739.3 L396.5,724.3 L386.5,714.3 L320.5,714.3" fill="#FEFFDD" style="stroke:#181818;stroke-width:0.5;"/><path d="M386.5,714.3 L386.5,724.3 L396.5,724.3 L386.5,714.3" fill="#FEFFDD" style="stroke:#181818;stroke-width:0.5;"/><text fill="#000000" font-family="sans-serif" font-size="13" lengthAdjust="spacing" textLength="55.4214" x="326.5" y="731.3669">cancelar</text></g><?plantuml-src bPDDRXD148NtSugIsG0YoWKYIqWuqMnCn5ZPH16gwIudfVIVkdii6OJ4MTYpoX5y4qv2zp0PU-n6XDtylAhtlQhkyCZ6eKSDYWt5hIDmLctpI_N0ae2qYrkG58Hd5zcQgWeH8y7iQj6iwe_BppTrKw_UBrUBPWOOu8f2bjrmu8WcKgWD2xR_MtN9oUallU3izjMz9p9tPtFmTCyXUlIZwfdmz4zscfr-Vlrc1byhW04HUgBQH6zb9vYCj1ymsd2iQ4YHI3W6a-9QuHSyLemEdmPFQQkakNrxDubGj38szR4cx-KnlG9SjFE5TefIaulpTWue1AK5eGAzUvATicbBi1b7bMfIkxvDzZprc20KivGGcfI3DFO4pbCW4n58mTfwtIdqt6CCCxP5S1vG25IYa3sBJ2r6zhxgr_SViBIwzVGk7y9aXVa1MOs_BqayOBPJE1GVXJvDDGbTMi-_K-kEiXPSxXScGmV9mLd3hQ80-LfbidMcB0uYZ7ZGcQ4XR45OisQl-x4U3F8mM85yaYoTi1Sa4Pvwmhn6ly59b9AUp6Rt4_yi8OkVGGNldam-Y8VL8-wtgYhSn4FQukK_Wj_FsE-NjHz9sQ5L7RtKGA0Hb0xmlkbl?></g></svg>