<?plantuml 1.2026.1?><svg xmlns="http://www.w3.org/2000/svg" xmlns:xlink="http://www.w3.org/1999/xlink" contentStyleType="text/css" data-diagram-type="DESCRIPTION" height="551px" preserveAspectRatio="none" style="width:1106px;height:551px;background:#FFFFFF;" version="1.1" viewBox="0 0 1106 551" width="1106px" zoomAndPan="magnify"><defs/><g><!--cluster Servidor propio (Linux)--><g class="cluster" data-qualified-name="Servidor propio .Linux." data-source-line="8" id="ent0002"><polygon fill="none" points="16,184.28,26,174.28,564,174.28,564,524.84,554,534.84,16,534.84,16,184.28" style="stroke:#181818;stroke-width:1.5;"/><line style="stroke:#181818;stroke-width:1.5;" x1="554" x2="564" y1="184.28" y2="174.28"/><line style="stroke:#181818;stroke-width:1.5;" x1="16" x2="554" y1="184.28" y2="184.28"/><line style="stroke:#181818;stroke-width:1.5;" x1="554" x2="554" y1="184.28" y2="534.84"/><text fill="#000000" font-family="Arial" font-size="10" font-weight="bold" lengthAdjust="spacing" textLength="130.8301" x="220.585" y="196.5622">Servidor propio (Linux)</text></g><!--cluster Docker Compose--><g class="cluster" data-qualified-name="Servidor propio .Linux..Docker Compose" data-source-line="9" id="ent0003"><polygon fill="none" points="40,227.28,50,217.28,540,217.28,540,500.84,530,510.84,40,510.84,40,227.28" style="stroke:#181818;stroke-width:1.5;"/><line style="stroke:#181818;stroke-width:1.5;" x1="530" x2="540" y1="227.28" y2="217.28"/><line style="stroke:#181818;stroke-width:1.5;" x1="40" x2="530" y1="227.28" y2="227.28"/><line style="stroke:#181818;stroke-width:1.5;" x1="530" x2="530" y1="227.28" y2="510.84"/><text fill="#000000" font-family="Arial" font-size="10" font-weight="bold" lengthAdjust="spacing" textLength="94.3359" x="238.832" y="239.5622">Docker Compose</text></g><!--cluster Next.js App Router--><g class="cluster" data-qualified-name="Servidor propio .Linux..Docker Compose.Next.js App Router" data-source-line="10" id="ent0004"><polygon fill="none" points="64,270.28,74,260.28,516,260.28,516,373.56,506,383.56,64,383.56,64,270.28" style="stroke:#181818;stroke-width:1.5;"/><line style="stroke:#181818;stroke-width:1.5;" x1="506" x2="516" y1="270.28" y2="260.28"/><line style="stroke:#181818;stroke-width:1.5;" x1="64" x2="506" y1="270.28" y2="270.28"/><line style="stroke:#181818;stroke-width:1.5;" x1="506" x2="506" y1="270.28" y2="383.56"/><text fill="#000000" font-family="Arial" font-size="10" font-weight="bold" lengthAdjust="spacing" textLength="106.7627" x="232.6187" y="282.5622">Next.js App Router</text></g><!--cluster Internet--><g class="cluster" data-qualified-name="Internet" data-source-line="19" id="ent0009"><polygon fill="none" points="627,270.28,637,260.28,1089,260.28,1089,373.56,1079,383.56,627,383.56,627,270.28" style="stroke:#181818;stroke-width:1.5;"/><line style="stroke:#181818;stroke-width:1.5;" x1="1079" x2="1089" y1="270.28" y2="260.28"/><line style="stroke:#181818;stroke-width:1.5;" x1="627" x2="1079" y1="270.28" y2="270.28"/><line style="stroke:#181818;stroke-width:1.5;" x1="1079" x2="1079" y1="270.28" y2="383.56"/><text fill="#000000" font-family="Arial" font-size="10" font-weight="bold" lengthAdjust="spacing" textLength="46.0156" x="830.9922" y="282.5622">Internet</text></g><!--cluster Cliente--><g class="cluster" data-qualified-name="Cliente" data-source-line="25" id="ent0013"><polygon fill="none" points="54,16,64,6,246,6,246,119.28,236,129.28,54,129.28,54,16" style="stroke:#181818;stroke-width:1.5;"/><line style="stroke:#181818;stroke-width:1.5;" x1="236" x2="246" y1="16" y2="6"/><line style="stroke:#181818;stroke-width:1.5;" x1="54" x2="236" y1="16" y2="16"/><line style="stroke:#181818;stroke-width:1.5;" x1="236" x2="236" y1="16" y2="129.28"/><text fill="#000000" font-family="Arial" font-size="10" font-weight="bold" lengthAdjust="spacing" textLength="39.6582" x="126.1709" y="28.2822">Cliente</text></g><!--entity PG--><g class="entity" data-qualified-name="Servidor propio .Linux..Docker Compose.PG" data-source-line="15" id="ent0008"><path d="M264.21,452.56 C264.21,442.56 311.002,442.56 311.002,442.56 C311.002,442.56 357.794,442.56 357.794,452.56 L357.794,484.8413 C357.794,494.8413 311.002,494.8413 311.002,494.8413 C311.002,494.8413 264.21,494.8413 264.21,484.8413 L264.21,452.56" fill="#F1F1F1" style="stroke:#181818;stroke-width:0.5;"/><path d="M264.21,452.56 C264.21,462.56 311.002,462.56 311.002,462.56 C311.002,462.56 357.794,462.56 357.794,452.56" fill="none" style="stroke:#181818;stroke-width:0.5;"/><text fill="#000000" font-family="Arial" font-size="10" lengthAdjust="spacing" textLength="73.584" x="274.21" y="475.8422">PostgreSQL 16</text><text fill="#000000" font-family="Arial" font-size="10" lengthAdjust="spacing" textLength="69.4189" x="274.21" y="487.4829">(puerto 5432)</text></g><!--entity SC--><g class="entity" data-qualified-name="Servidor propio .Linux..Docker Compose.Next.js App Router.SC" data-source-line="11" id="ent0005"><rect fill="#F1F1F1" height="41.6406" rx="2.5" ry="2.5" style="stroke:#181818;stroke-width:0.5;" width="139.2383" x="80.38" y="320.1"/><rect fill="#F1F1F1" height="10" style="stroke:#181818;stroke-width:0.5;" width="15" x="199.6183" y="325.1"/><rect fill="#F1F1F1" height="2" style="stroke:#181818;stroke-width:0.5;" width="4" x="197.6183" y="327.1"/><rect fill="#F1F1F1" height="2" style="stroke:#181818;stroke-width:0.5;" width="4" x="197.6183" y="331.1"/><text fill="#000000" font-family="Arial" font-size="10" lengthAdjust="spacing" textLength="99.2383" x="95.38" y="349.3822">Server Components</text></g><!--entity SA--><g class="entity" data-qualified-name="Servidor propio .Linux..Docker Compose.Next.js App Router.SA" data-source-line="12" id="ent0006"><rect fill="#F1F1F1" height="41.6406" rx="2.5" ry="2.5" style="stroke:#181818;stroke-width:0.5;" width="112.6758" x="254.66" y="320.1"/><rect fill="#F1F1F1" height="10" style="stroke:#181818;stroke-width:0.5;" width="15" x="347.3358" y="325.1"/><rect fill="#F1F1F1" height="2" style="stroke:#181818;stroke-width:0.5;" width="4" x="345.3358" y="327.1"/><rect fill="#F1F1F1" height="2" style="stroke:#181818;stroke-width:0.5;" width="4" x="345.3358" y="331.1"/><text fill="#000000" font-family="Arial" font-size="10" lengthAdjust="spacing" textLength="72.6758" x="269.66" y="349.3822">Server Actions</text></g><!--entity MW--><g class="entity" data-qualified-name="Servidor propio .Linux..Docker Compose.Next.js App Router.MW" data-source-line="13" id="ent0007"><rect fill="#F1F1F1" height="53.2813" rx="2.5" ry="2.5" style="stroke:#181818;stroke-width:0.5;" width="97.6025" x="402.2" y="314.28"/><rect fill="#F1F1F1" height="10" style="stroke:#181818;stroke-width:0.5;" width="15" x="479.8025" y="319.28"/><rect fill="#F1F1F1" height="2" style="stroke:#181818;stroke-width:0.5;" width="4" x="477.8025" y="321.28"/><rect fill="#F1F1F1" height="2" style="stroke:#181818;stroke-width:0.5;" width="4" x="477.8025" y="325.28"/><text fill="#000000" font-family="Arial" font-size="10" lengthAdjust="spacing" textLength="57.6025" x="417.2" y="343.5622">Middleware</text><text fill="#000000" font-family="Arial" font-size="10" lengthAdjust="spacing" textLength="42.4072" x="417.2" y="355.2029">(Auth.js)</text></g><!--entity Entra--><g class="entity" data-qualified-name="Internet.Entra" data-source-line="20" id="ent0010"><path d="M958.8399,322.3625 C963.2712,317.277 967.0181,317.6458 971.1742,322.6972 C973.1453,316.0988 979.0182,314.2125 984.2349,318.9615 C988.7815,311.7155 992.9637,312.2617 997.656,318.8198 C1000.7098,310.9579 1005.9057,310.4233 1011.4592,316.3102 C1015.8314,309.654 1023.0385,310.4773 1026.2143,317.5921 C1030.4461,312.4877 1035.9669,313.2315 1039.0511,318.9529 C1045.0371,314.3054 1049.1361,315.2623 1052.4908,322.0464 C1057.7395,316.0573 1063.0797,315.9887 1066.8535,323.6035 C1076.2919,328.7937 1077.0307,335.0857 1067.8166,341.2915 C1076.0112,347.6067 1076.5166,355.2459 1066.6097,360.4189 C1063.2367,367.4036 1057.3009,367.5867 1053.1536,361.198 C1048.5146,367.7393 1043.1701,368.9031 1038.4568,361.2751 C1035.8703,367.8003 1030.3077,370.3168 1025.1681,363.8958 C1020.4083,370.8945 1015.893,370.368 1011.2489,363.7774 C1006.71,370.1429 1001.5397,370.2573 998.1028,362.7343 C994.5836,367.8281 988.7507,368.3744 986.0551,361.8782 C981.9032,369.1064 976.0288,369.3198 971.8109,361.9425 C967.9486,368.5643 962.5503,366.8238 959.1355,361.469 C949.0687,357.395 947.8403,350.4595 955.7646,343.0865 C946.0921,336.2381 949.0986,326.33 958.8399,322.3625" fill="#F1F1F1" style="stroke:#181818;stroke-width:0.5;"/><text fill="#000000" font-family="Arial" font-size="10" lengthAdjust="spacing" textLength="89.7266" x="964.29" y="338.5622">Microsoft Entra ID</text><text fill="#000000" font-family="Arial" font-size="10" lengthAdjust="spacing" textLength="93.4229" x="964.29" y="350.2029">(OAuth 2.0 / OIDC)</text></g><!--entity Graph--><g class="entity" data-qualified-name="Internet.Graph" data-source-line="21" id="ent0011"><path d="M783.6506,322.3509 C786.1421,317.3681 790.5565,316.1996 794.6134,320.5028 C797.8213,313.7907 803.2299,312.7303 808.1095,318.7275 C811.5565,313.2351 816.4446,312.0214 820.3177,318.285 C823.5703,310.4822 828.2602,311.5372 833.5131,316.161 C836.5901,309.1613 841.1763,308.48 846.1016,314.3536 C851.0026,308.2875 855.1667,309.9345 858.5703,315.9048 C863.0831,311.0693 867.0971,312.0206 869.9509,317.7003 C874.374,313.1858 879.2455,314.8298 881.3597,320.3305 C886.2374,312.9619 890.8766,313.6601 895.5041,320.5783 C900.1744,315.9668 905.3597,317.6177 907.6113,323.3967 C918.6998,327.1929 920.6494,333.9753 912.8439,342.853 C918.6933,351.5703 916.9302,357.3534 907.3609,361.5489 C904.6879,367.0865 898.8639,367.4641 895.368,362.4875 C892.5728,369.1113 886.4215,370.9128 881.3774,364.9965 C878.8493,370.48 873.7245,370.2675 870.5797,365.6562 C867.2454,372.5731 862.6806,372.2114 857.764,367.3827 C854.9539,373.6044 849.4743,375.5378 844.4726,369.8231 C840.1881,374.3231 835.5266,374.9332 832.5949,368.3706 C827.5318,374.114 822.7958,374.3402 819.4725,366.6686 C815.5311,372.807 809.6129,370.6453 807.2445,365.0319 C803.5129,369.1623 797.7787,368.6556 795.8958,362.9079 C791.5583,367.6852 785.2245,367.524 783.5471,360.1946 C771.7874,359.0322 768.1397,351.8087 774.2623,341.6791 C768.1295,332.6973 770.862,322.142 783.6506,322.3509" fill="#F1F1F1" style="stroke:#181818;stroke-width:0.5;"/><text fill="#000000" font-family="Arial" font-size="10" lengthAdjust="spacing" textLength="98.7549" x="788.96" y="338.5622">Microsoft Graph API</text><text fill="#000000" font-family="Arial" font-size="10" lengthAdjust="spacing" textLength="110.0879" x="788.96" y="350.2029">(Teams, fuera oficina)</text></g><!--entity Resend--><g class="entity" data-qualified-name="Internet.Resend" data-source-line="22" id="ent0012"><path d="M653.266,322.4322 C655.7527,316.7339 661.6295,316.5966 665.1069,321.3049 C667.5631,313.7752 673.8951,313.6537 678.1566,319.5502 C681.0605,311.5858 686.4388,311.5912 691.6498,317.2682 C696.1781,310.2338 700.8762,311.5238 704.9904,317.6867 C709.9894,311.7975 716.3924,313.1066 719.0728,320.2015 C725.2875,315.4604 729.1665,317.0475 731.1223,324.4332 C739.5911,329.34 739.7849,335.619 732.2314,341.5632 C742.3665,348.2078 740.5972,354.5413 731.7687,360.728 C729.1263,368.2008 722.6563,369.2584 718.1372,362.5293 C716.0967,369.8861 711.874,371.4436 705.9097,366.3976 C702.5832,373.4533 697.8728,374.3287 691.7925,369.7345 C685.9902,374.6896 681.4585,373.4411 678.1721,366.7835 C673.7418,371.9924 668.3819,370.5395 666.4717,364.2248 C660.5789,371.1644 654.214,369.7639 651.4528,361.1926 C643.11,356.082 640.699,349.8869 649.3331,342.8179 C640.5789,335.1736 642.4401,326.299 653.266,322.4322" fill="#F1F1F1" style="stroke:#181818;stroke-width:0.5;"/><text fill="#000000" font-family="Arial" font-size="10" lengthAdjust="spacing" textLength="37.1484" x="658.16" y="338.5622">Resend</text><text fill="#000000" font-family="Arial" font-size="10" lengthAdjust="spacing" textLength="65.6738" x="658.16" y="350.2029">(email SMTP)</text></g><!--entity Browser--><g class="entity" data-qualified-name="Cliente.Browser" data-source-line="26" id="ent0014"><rect fill="#F1F1F1" height="53.2813" rx="2.5" ry="2.5" style="stroke:#181818;stroke-width:0.5;" width="160.8789" x="69.56" y="60"/><rect fill="#F1F1F1" height="10" style="stroke:#181818;stroke-width:0.5;" width="15" x="210.4389" y="65"/><rect fill="#F1F1F1" height="2" style="stroke:#181818;stroke-width:0.5;" width="4" x="208.4389" y="67"/><rect fill="#F1F1F1" height="2" style="stroke:#181818;stroke-width:0.5;" width="4" x="208.4389" y="71"/><text fill="#000000" font-family="Arial" font-size="10" lengthAdjust="spacing" textLength="54.7314" x="84.56" y="89.2822">Navegador</text><text fill="#000000" font-family="Arial" font-size="10" lengthAdjust="spacing" textLength="120.8789" x="84.56" y="100.9229">(Chrome / Edge / Safari)</text></g><!--link Browser to SC--><g class="link" data-entity-1="ent0014" data-entity-2="ent0005" data-link-type="dependency" data-source-line="29" id="lnk15"><path d="M150,113.69 C150,164.17 150,268.35 150,313.75" fill="none" id="Browser-to-SC" style="stroke:#444444;stroke-width:1;"/><polygon fill="#444444" points="150,319.75,154,310.75,150,314.75,146,310.75,150,319.75" style="stroke:#444444;stroke-width:1;"/><text fill="#000000" font-family="Arial" font-size="10" lengthAdjust="spacing" textLength="57.749" x="151" y="155.5622">HTTPS :443</text></g><!--link SA to PG--><g class="link" data-entity-1="ent0006" data-entity-2="ent0008" data-link-type="dependency" data-source-line="30" id="lnk16"><path d="M311,362.13 C311,383.93 311,412.7 311,436.33" fill="none" id="SA-to-PG" style="stroke:#444444;stroke-width:1;"/><polygon fill="#444444" points="311,442.33,315,433.33,311,437.33,307,433.33,311,442.33" style="stroke:#444444;stroke-width:1;"/><text fill="#000000" font-family="Arial" font-size="10" lengthAdjust="spacing" textLength="73.54" x="312" y="409.8422">pg / TCP :5432</text></g><!--link MW to Entra--><g class="link" data-entity-1="ent0007" data-entity-2="ent0010" data-link-type="dependency" data-source-line="31" id="lnk17"><path d="M473.19,313.87 C503.63,279.14 562.01,220.6 627,197.47 C754.71,152.02 815.3,128.51 932,197.47 C974.59,222.63 994.2147,274.0678 1003.4247,308.1478" fill="none" id="MW-to-Entra" style="stroke:#444444;stroke-width:1;"/><polygon fill="#444444" points="1004.99,313.94,1006.5035,304.2081,1003.6856,309.1132,998.7805,306.2952,1004.99,313.94" style="stroke:#444444;stroke-width:1;"/><text fill="#000000" font-family="Arial" font-size="10" lengthAdjust="spacing" textLength="67.3438" x="500.5" y="155.5622">OIDC / HTTPS</text></g><!--link SA to Graph--><g class="link" data-entity-1="ent0006" data-entity-2="ent0011" data-link-type="dependency" data-source-line="32" id="lnk18"><path d="M314.82,319.63 C322,286.67 340.97,224.3 385,197.47 C455.4,154.57 684.06,157.2 756,197.47 C800.36,222.3 823.1906,273.9419 834.4706,308.1419" fill="none" id="SA-to-Graph" style="stroke:#444444;stroke-width:1;"/><polygon fill="#444444" points="836.35,313.84,837.3297,304.04,834.7839,309.0916,829.7322,306.5458,836.35,313.84" style="stroke:#444444;stroke-width:1;"/><text fill="#000000" font-family="Arial" font-size="10" lengthAdjust="spacing" textLength="67.5635" x="678.5" y="155.5622">REST / HTTPS</text></g><!--link SA to Resend--><g class="link" data-entity-1="ent0006" data-entity-2="ent0012" data-link-type="dependency" data-source-line="33" id="lnk19"><path d="M314.82,319.63 C322,286.67 340.97,224.3 385,197.47 C434.72,167.17 461.18,177.87 516,197.47 C580.74,220.61 634.8001,274.6249 665.0301,309.3449" fill="none" id="SA-to-Resend" style="stroke:#444444;stroke-width:1;"/><polygon fill="#444444" points="668.97,313.87,666.0768,304.4557,665.6867,310.0991,660.0433,309.7089,668.97,313.87" style="stroke:#444444;stroke-width:1;"/><text fill="#000000" font-family="Arial" font-size="10" lengthAdjust="spacing" textLength="68.9551" x="575" y="155.5622">SMTP / HTTPS</text></g><?plantuml-src TL9BRzf04BxxLupe9P4A2GdfmOTAZg4KAH0NMygbburt35lCZZMxJg9M-U_T1pH8INsmhVqUC_FDcftIdM2n1ucDw5lxZRHTYJr2nagqYVa8BzLlXF7b2QX9uYsnHAwsgjvfD0R6eviJXc2cvvnQOlWq2K-IMEh04ZoIjUGAACRQAj99ukrWK28_AUa47LEd2CxkbEvVpWVm9m68b2dLEsJ8QT-HmOWSiHM-sD4l0rdNmPfwYtp40MelqAXjh7Aqy2Tc0C90cV-NcOKc3xJiFMsff6pnMJ3-r6TPRxUkYVF0NZu4zcjuIs75ep2kqOACtJ2MF-vW_CLfkXxPnN8pkRwAkcAUUDNhCPY5TiDej76UkgLU-h8raw76manR5h2OEgjxNn-kHfTm0VUBQHxz0k4ZvPn5juMiM3XfXM9lFaFZcX50ZQgL5b4UM6_oDHhKqYbmBrGBvR8g8Yy2RstdhN817RPq4jXAFE56k4KxZtpBv2xV1SpandzAqGXMqU_MtI23x0qFlp2KmwzkLobyhwgYX7GokKxAB1uNynIwZVEeyW9IdsQoV80XEoW4a8P471wqGUQnC5qAwrbPlSFYH6cOyH_u5m00?></g></svg>
