<svg xmlns="http://www.w3.org/2000/svg" xmlns:xlink="http://www.w3.org/1999/xlink" contentStyleType="text/css" data-diagram-type="DESCRIPTION" height="623px" preserveAspectRatio="none" style="width:1027px;height:623px;;background:#FFFFFF" version="1.1" viewBox="0 0 1027 623" width="1027px" zoomAndPan="magnify"><?plantuml 1.2026.4beta2?><defs/><g><!--cluster Vercel (Edge)--><g class="cluster" data-qualified-name="Vercel .Edge." data-source-line="8" id="ent0002"><polygon fill="none" points="16,184.28,26,174.28,516,174.28,516,354.56,506,364.56,16,364.56,16,184.28" style="stroke:#181818;stroke-width:1.5;"/><line style="stroke:#181818;stroke-width:1.5;" x1="506" x2="516" y1="184.28" y2="174.28"/><line style="stroke:#181818;stroke-width:1.5;" x1="16" x2="506" y1="184.28" y2="184.28"/><line style="stroke:#181818;stroke-width:1.5;" x1="506" x2="506" y1="184.28" y2="364.56"/><text fill="#000000" font-family="Arial" font-size="10" font-weight="700" lengthAdjust="spacing" textLength="76.1426" x="223.9287" y="196.5622">Vercel (Edge)</text></g><!--cluster Next.js App Router--><g class="cluster" data-qualified-name="Vercel .Edge..Next.js App Router" data-source-line="9" id="ent0003"><polygon fill="none" points="40,227.28,50,217.28,492,217.28,492,330.56,482,340.56,40,340.56,40,227.28" style="stroke:#181818;stroke-width:1.5;"/><line style="stroke:#181818;stroke-width:1.5;" x1="482" x2="492" y1="227.28" y2="217.28"/><line style="stroke:#181818;stroke-width:1.5;" x1="40" x2="482" y1="227.28" y2="227.28"/><line style="stroke:#181818;stroke-width:1.5;" x1="482" x2="482" y1="227.28" y2="340.56"/><text fill="#000000" font-family="Arial" font-size="10" font-weight="700" lengthAdjust="spacing" textLength="106.7627" x="208.6187" y="239.5622">Next.js App Router</text></g><!--cluster Internet--><g class="cluster" data-qualified-name="Internet" data-source-line="16" id="ent0007"><polygon fill="none" points="540,227.28,550,217.28,1002,217.28,1002,330.56,992,340.56,540,340.56,540,227.28" style="stroke:#181818;stroke-width:1.5;"/><line style="stroke:#181818;stroke-width:1.5;" x1="992" x2="1002" y1="227.28" y2="217.28"/><line style="stroke:#181818;stroke-width:1.5;" x1="540" x2="992" y1="227.28" y2="227.28"/><line style="stroke:#181818;stroke-width:1.5;" x1="992" x2="992" y1="227.28" y2="340.56"/><text fill="#000000" font-family="Arial" font-size="10" font-weight="700" lengthAdjust="spacing" textLength="46.0156" x="743.9922" y="239.5622">Internet</text></g><!--cluster Servidor propio (Linux)--><g class="cluster" data-qualified-name="Servidor propio .Linux." data-source-line="22" id="ent0011"><polygon fill="none" points="136,419.56,146,409.56,354,409.56,354,588.84,344,598.84,136,598.84,136,419.56" style="stroke:#181818;stroke-width:1.5;"/><line style="stroke:#181818;stroke-width:1.5;" x1="344" x2="354" y1="419.56" y2="409.56"/><line style="stroke:#181818;stroke-width:1.5;" x1="136" x2="344" y1="419.56" y2="419.56"/><line style="stroke:#181818;stroke-width:1.5;" x1="344" x2="344" y1="419.56" y2="598.84"/><text fill="#000000" font-family="Arial" font-size="10" font-weight="700" lengthAdjust="spacing" textLength="130.8301" x="175.585" y="431.8422">Servidor propio (Linux)</text></g><!--cluster Docker Compose--><g class="cluster" data-qualified-name="Servidor propio .Linux..Docker Compose" data-source-line="23" id="ent0012"><polygon fill="none" points="160,462.56,170,452.56,330,452.56,330,564.84,320,574.84,160,574.84,160,462.56" style="stroke:#181818;stroke-width:1.5;"/><line style="stroke:#181818;stroke-width:1.5;" x1="320" x2="330" y1="462.56" y2="452.56"/><line style="stroke:#181818;stroke-width:1.5;" x1="160" x2="320" y1="462.56" y2="462.56"/><line style="stroke:#181818;stroke-width:1.5;" x1="320" x2="320" y1="462.56" y2="574.84"/><text fill="#000000" font-family="Arial" font-size="10" font-weight="700" lengthAdjust="spacing" textLength="94.3359" x="193.832" y="474.8422">Docker Compose</text></g><!--cluster Cliente--><g class="cluster" data-qualified-name="Cliente" data-source-line="28" id="ent0014"><polygon fill="none" points="463,16,473,6,655,6,655,119.28,645,129.28,463,129.28,463,16" style="stroke:#181818;stroke-width:1.5;"/><line style="stroke:#181818;stroke-width:1.5;" x1="645" x2="655" y1="16" y2="6"/><line style="stroke:#181818;stroke-width:1.5;" x1="463" x2="645" y1="16" y2="16"/><line style="stroke:#181818;stroke-width:1.5;" x1="645" x2="645" y1="16" y2="129.28"/><text fill="#000000" font-family="Arial" font-size="10" font-weight="700" lengthAdjust="spacing" textLength="39.6582" x="535.1709" y="28.2822">Cliente</text></g><!--entity SC--><g class="entity" data-qualified-name="Vercel .Edge..Next.js App Router.SC" data-source-line="10" id="ent0004"><rect fill="#F1F1F1" height="41.6406" rx="2.5" ry="2.5" style="stroke:#181818;stroke-width:0.5;" width="139.2383" x="336.38" y="277.1"/><rect fill="#F1F1F1" height="10" style="stroke:#181818;stroke-width:0.5;" width="15" x="455.6183" y="282.1"/><rect fill="#F1F1F1" height="2" style="stroke:#181818;stroke-width:0.5;" width="4" x="453.6183" y="284.1"/><rect fill="#F1F1F1" height="2" style="stroke:#181818;stroke-width:0.5;" width="4" x="453.6183" y="288.1"/><text fill="#000000" font-family="Arial" font-size="10" lengthAdjust="spacing" textLength="99.2383" x="351.38" y="306.3822">Server Components</text></g><!--entity SA--><g class="entity" data-qualified-name="Vercel .Edge..Next.js App Router.SA" data-source-line="11" id="ent0005"><rect fill="#F1F1F1" height="41.6406" rx="2.5" ry="2.5" style="stroke:#181818;stroke-width:0.5;" width="112.6758" x="188.66" y="277.1"/><rect fill="#F1F1F1" height="10" style="stroke:#181818;stroke-width:0.5;" width="15" x="281.3358" y="282.1"/><rect fill="#F1F1F1" height="2" style="stroke:#181818;stroke-width:0.5;" width="4" x="279.3358" y="284.1"/><rect fill="#F1F1F1" height="2" style="stroke:#181818;stroke-width:0.5;" width="4" x="279.3358" y="288.1"/><text fill="#000000" font-family="Arial" font-size="10" lengthAdjust="spacing" textLength="72.6758" x="203.66" y="306.3822">Server Actions</text></g><!--entity MW--><g class="entity" data-qualified-name="Vercel .Edge..Next.js App Router.MW" data-source-line="12" id="ent0006"><rect fill="#F1F1F1" height="53.2813" rx="2.5" ry="2.5" style="stroke:#181818;stroke-width:0.5;" width="97.6025" x="56.2" y="271.28"/><rect fill="#F1F1F1" height="10" style="stroke:#181818;stroke-width:0.5;" width="15" x="133.8025" y="276.28"/><rect fill="#F1F1F1" height="2" style="stroke:#181818;stroke-width:0.5;" width="4" x="131.8025" y="278.28"/><rect fill="#F1F1F1" height="2" style="stroke:#181818;stroke-width:0.5;" width="4" x="131.8025" y="282.28"/><text fill="#000000" font-family="Arial" font-size="10" lengthAdjust="spacing" textLength="57.6025" x="71.2" y="300.5622">Middleware</text><text fill="#000000" font-family="Arial" font-size="10" lengthAdjust="spacing" textLength="42.4072" x="71.2" y="312.2029">(Auth.js)</text></g><!--entity Entra--><g class="entity" data-qualified-name="Internet.Entra" data-source-line="17" id="ent0008"><path d="M565.8399,279.3625 C570.2712,274.277 574.0181,274.6458 578.1742,279.6972 C580.1453,273.0988 586.0182,271.2125 591.2349,275.9615 C595.7815,268.7155 599.9637,269.2617 604.656,275.8198 C607.7098,267.9579 612.9057,267.4233 618.4592,273.3102 C622.8314,266.654 630.0385,267.4773 633.2143,274.5921 C637.4461,269.4877 642.9669,270.2315 646.0511,275.9529 C652.0371,271.3054 656.1361,272.2623 659.4908,279.0464 C664.7395,273.0573 670.0797,272.9887 673.8535,280.6035 C683.2919,285.7937 684.0307,292.0857 674.8166,298.2915 C683.0112,304.6067 683.5166,312.2459 673.6097,317.4189 C670.2367,324.4036 664.3009,324.5867 660.1536,318.198 C655.5146,324.7393 650.1701,325.9031 645.4568,318.2751 C642.8703,324.8003 637.3077,327.3168 632.1681,320.8958 C627.4083,327.8945 622.893,327.368 618.2489,320.7774 C613.71,327.1429 608.5397,327.2573 605.1028,319.7343 C601.5836,324.8281 595.7507,325.3744 593.0551,318.8782 C588.9032,326.1064 583.0288,326.3198 578.8109,318.9425 C574.9486,325.5643 569.5503,323.8238 566.1355,318.469 C556.0687,314.395 554.8403,307.4595 562.7646,300.0865 C553.0921,293.2381 556.0986,283.33 565.8399,279.3625" fill="#F1F1F1" style="stroke:#181818;stroke-width:0.5;"/><text fill="#000000" font-family="Arial" font-size="10" lengthAdjust="spacing" textLength="89.7266" x="571.29" y="295.5622">Microsoft Entra ID</text><text fill="#000000" font-family="Arial" font-size="10" lengthAdjust="spacing" textLength="93.4229" x="571.29" y="307.2029">(OAuth 2.0 / OIDC)</text></g><!--entity Graph--><g class="entity" data-qualified-name="Internet.Graph" data-source-line="18" id="ent0009"><path d="M724.6506,279.3509 C727.1421,274.3681 731.5565,273.1996 735.6134,277.5028 C738.8213,270.7907 744.2299,269.7303 749.1095,275.7275 C752.5565,270.2351 757.4446,269.0214 761.3177,275.285 C764.5703,267.4822 769.2602,268.5372 774.5131,273.161 C777.5901,266.1613 782.1763,265.48 787.1016,271.3536 C792.0026,265.2875 796.1667,266.9345 799.5703,272.9048 C804.0831,268.0693 808.0971,269.0206 810.9509,274.7003 C815.374,270.1858 820.2455,271.8298 822.3597,277.3305 C827.2374,269.9619 831.8766,270.6601 836.5041,277.5783 C841.1744,272.9668 846.3597,274.6177 848.6113,280.3967 C859.6998,284.1929 861.6494,290.9753 853.8439,299.853 C859.6933,308.5703 857.9302,314.3534 848.3609,318.5489 C845.6879,324.0865 839.8639,324.4641 836.368,319.4875 C833.5728,326.1113 827.4215,327.9128 822.3774,321.9965 C819.8493,327.48 814.7245,327.2675 811.5797,322.6562 C808.2454,329.5731 803.6806,329.2114 798.764,324.3827 C795.9539,330.6044 790.4743,332.5378 785.4726,326.8231 C781.1881,331.3231 776.5266,331.9332 773.5949,325.3706 C768.5318,331.114 763.7958,331.3402 760.4725,323.6686 C756.5311,329.807 750.6129,327.6453 748.2445,322.0319 C744.5129,326.1623 738.7787,325.6556 736.8958,319.9079 C732.5583,324.6852 726.2245,324.524 724.5471,317.1946 C712.7874,316.0322 709.1397,308.8087 715.2623,298.6791 C709.1295,289.6973 711.862,279.142 724.6506,279.3509" fill="#F1F1F1" style="stroke:#181818;stroke-width:0.5;"/><text fill="#000000" font-family="Arial" font-size="10" lengthAdjust="spacing" textLength="98.7549" x="729.96" y="295.5622">Microsoft Graph API</text><text fill="#000000" font-family="Arial" font-size="10" lengthAdjust="spacing" textLength="110.0879" x="729.96" y="307.2029">(Teams, fuera oficina)</text></g><!--entity Resend--><g class="entity" data-qualified-name="Internet.Resend" data-source-line="19" id="ent0010"><path d="M900.266,279.4322 C902.7527,273.7339 908.6295,273.5966 912.1069,278.3049 C914.5631,270.7752 920.8951,270.6537 925.1566,276.5502 C928.0605,268.5858 933.4388,268.5912 938.6498,274.2682 C943.1781,267.2338 947.8762,268.5238 951.9904,274.6867 C956.9894,268.7975 963.3924,270.1066 966.0728,277.2015 C972.2875,272.4604 976.1665,274.0475 978.1223,281.4332 C986.5911,286.34 986.7849,292.619 979.2314,298.5632 C989.3665,305.2078 987.5972,311.5413 978.7687,317.728 C976.1263,325.2008 969.6563,326.2584 965.1372,319.5293 C963.0967,326.8861 958.874,328.4436 952.9097,323.3976 C949.5832,330.4533 944.8728,331.3287 938.7925,326.7345 C932.9902,331.6896 928.4585,330.4411 925.1721,323.7835 C920.7418,328.9924 915.3819,327.5395 913.4717,321.2248 C907.5789,328.1644 901.214,326.7639 898.4528,318.1926 C890.11,313.082 887.699,306.8869 896.3331,299.8179 C887.5789,292.1736 889.4401,283.299 900.266,279.4322" fill="#F1F1F1" style="stroke:#181818;stroke-width:0.5;"/><text fill="#000000" font-family="Arial" font-size="10" lengthAdjust="spacing" textLength="37.1484" x="905.16" y="295.5622">Resend</text><text fill="#000000" font-family="Arial" font-size="10" lengthAdjust="spacing" textLength="65.6738" x="905.16" y="307.2029">(email SMTP)</text></g><!--entity PG--><g class="entity" data-qualified-name="Servidor propio .Linux..Docker Compose.PG" data-source-line="24" id="ent0013"><path d="M198.21,516.56 C198.21,506.56 245.002,506.56 245.002,506.56 C245.002,506.56 291.794,506.56 291.794,516.56 L291.794,548.8413 C291.794,558.8413 245.002,558.8413 245.002,558.8413 C245.002,558.8413 198.21,558.8413 198.21,548.8413 L198.21,516.56" fill="#F1F1F1" style="stroke:#181818;stroke-width:0.5;"/><path d="M198.21,516.56 C198.21,526.56 245.002,526.56 245.002,526.56 C245.002,526.56 291.794,526.56 291.794,516.56" fill="none" style="stroke:#181818;stroke-width:0.5;"/><text fill="#000000" font-family="Arial" font-size="10" lengthAdjust="spacing" textLength="73.584" x="208.21" y="539.8422">PostgreSQL 16</text><text fill="#000000" font-family="Arial" font-size="10" lengthAdjust="spacing" textLength="69.4189" x="208.21" y="551.4829">(puerto 5432)</text></g><!--entity Browser--><g class="entity" data-qualified-name="Cliente.Browser" data-source-line="29" id="ent0015"><rect fill="#F1F1F1" height="53.2813" rx="2.5" ry="2.5" style="stroke:#181818;stroke-width:0.5;" width="160.8789" x="478.56" y="60"/><rect fill="#F1F1F1" height="10" style="stroke:#181818;stroke-width:0.5;" width="15" x="619.4389" y="65"/><rect fill="#F1F1F1" height="2" style="stroke:#181818;stroke-width:0.5;" width="4" x="617.4389" y="67"/><rect fill="#F1F1F1" height="2" style="stroke:#181818;stroke-width:0.5;" width="4" x="617.4389" y="71"/><text fill="#000000" font-family="Arial" font-size="10" lengthAdjust="spacing" textLength="54.7314" x="493.56" y="89.2822">Navegador</text><text fill="#000000" font-family="Arial" font-size="10" lengthAdjust="spacing" textLength="120.8789" x="493.56" y="100.9229">(Chrome / Edge / Safari)</text></g><!--link Browser to SC--><g class="link" data-entity-1="ent0015" data-entity-2="ent0004" data-link-type="dependency" data-source-line="32" id="lnk16"><path d="M546.19,113.48 C539.06,127.16 529.68,144.02 520,158.28 C489.72,202.88 452.334,246.0695 428.654,272.2595" fill="none" id="Browser-to-SC" style="stroke:#444444;stroke-width:1;"/><polygon fill="#444444" points="424.63,276.71,433.633,272.7169,427.9833,273.0012,427.699,267.3515,424.63,276.71" style="stroke:#444444;stroke-width:1;"/><text fill="#000000" font-family="Arial" font-size="10" lengthAdjust="spacing" textLength="57.749" x="529" y="155.5622">HTTPS :443</text></g><!--link SA to PG--><g class="link" data-entity-1="ent0005" data-entity-2="ent0013" data-link-type="dependency" data-source-line="33" id="lnk17"><path d="M245,319.17 C245,361.53 245,453.44 245,500.09" fill="none" id="SA-to-PG" style="stroke:#444444;stroke-width:1;"/><polygon fill="#444444" points="245,506.09,249,497.09,245,501.09,241,497.09,245,506.09" style="stroke:#444444;stroke-width:1;"/><text fill="#000000" font-family="Arial" font-size="10" lengthAdjust="spacing" textLength="73.54" x="246" y="390.8422">pg / TCP :5432</text></g><!--link MW to Entra--><g class="link" data-entity-1="ent0006" data-entity-2="ent0008" data-link-type="dependency" data-source-line="34" id="lnk18"><path d="M111.45,270.78 C119.84,242.25 137.55,198.81 171,179.13 C232.48,142.96 425.7,152.81 492,179.13 C538.38,197.55 573.9805,237.2371 595.8205,266.2371" fill="none" id="MW-to-Entra" style="stroke:#444444;stroke-width:1;"/><polygon fill="#444444" points="599.43,271.03,597.211,261.4344,596.4221,267.036,590.8205,266.2471,599.43,271.03" style="stroke:#444444;stroke-width:1;"/><text fill="#000000" font-family="Arial" font-size="10" lengthAdjust="spacing" textLength="67.3438" x="375.5" y="155.5622">OIDC / HTTPS</text></g><!--link SA to Graph--><g class="link" data-entity-1="ent0005" data-entity-2="ent0009" data-link-type="dependency" data-source-line="35" id="lnk19"><path d="M251.05,276.93 C260.42,248.8 281.4,200.01 319,179.13 C392.44,138.36 621.98,141.35 697,179.13 C734.82,198.18 757.8998,236.5843 771.3398,265.3443" fill="none" id="SA-to-Graph" style="stroke:#444444;stroke-width:1;"/><polygon fill="#444444" points="773.88,270.78,773.6935,260.9329,771.7632,266.2502,766.4459,264.3199,773.88,270.78" style="stroke:#444444;stroke-width:1;"/><text fill="#000000" font-family="Arial" font-size="10" lengthAdjust="spacing" textLength="67.5635" x="301.5" y="155.5622">REST / HTTPS</text></g><!--link SA to Resend--><g class="link" data-entity-1="ent0005" data-entity-2="ent0010" data-link-type="dependency" data-source-line="36" id="lnk20"><path d="M251.05,276.93 C260.42,248.8 281.4,200.01 319,179.13 C372.82,149.26 820.05,147.75 873,179.13 C906.27,198.85 921.9714,236.5109 930.1214,265.0309" fill="none" id="SA-to-Resend" style="stroke:#444444;stroke-width:1;"/><polygon fill="#444444" points="931.77,270.8,933.1432,261.0473,930.3962,265.9924,925.4511,263.2455,931.77,270.8" style="stroke:#444444;stroke-width:1;"/><text fill="#000000" font-family="Arial" font-size="10" lengthAdjust="spacing" textLength="68.9551" x="450" y="155.5622">SMTP / HTTPS</text></g><?plantuml-src TL9DRzf04BtxLupeXKY5X8Jqu4Cbnr2A58YBhURIoyOUO8lPiMRNITGg_xtZNL18c_gorhwFUNgpTgTDerZjeSArQcltXOnRgZr2mbhLaNqFp_KlXD752MYemXlY2hdOwd9dq5eO3QzF68gPdbAgYU73s7zHvAW1H_10pf4Cq8obqsIYgBE3tdVa4cleJwiDdlNWTmGGW2K-k-5F2qdJm8fQXnnGW9Bs3Haq3devyYCofCSRsmDb8K__mqlyw0Cf-Pkqq5LLuvDY_67wIUksClxCSnVtmds9NewXvqRY67GXKLbJMtNoaidIsi7KE5OmduZDNUS3byCBE8Ux-IGDVfxmddB6gjb2air5Mg3Qsu-mRb7CQArBRLIGUzQhV8KMJIKAt2jTGxueii0Bm6lihWLToN8QfaOJz6-rQP_Vj3wXSdSirEAnyKevzQ2iu1bPjs7Clzt2w9ECR2ITRFTwV7KPPcQpjrMbjPPo3qudPI_L8swKX16JTCiaZ_4SkaSWHwxMYdNmkv4NPP4xmyCl3Ah1Pzbn35-B8iiX7e-leZm9rzaiXcOZ7aMQGTp5YXRtC621VEcntuBWNkjb7UORZM4rpOj_iD1Yx7izWdy0?></g></svg>