<svg xmlns="http://www.w3.org/2000/svg" xmlns:xlink="http://www.w3.org/1999/xlink" contentStyleType="text/css" data-diagram-type="DESCRIPTION" height="559px" preserveAspectRatio="none" style="width:1075px;height:559px;background:#FFFFFF;" version="1.1" viewBox="0 0 1075 559" width="1075px" zoomAndPan="magnify"><?plantuml 1.2026.4?><defs/><g><!--cluster Servidor propio (Linux)--><g class="cluster" data-qualified-name="Servidor propio .Linux." data-source-line="10" id="ent0001"><polygon fill="none" points="16,184.28,26,174.28,564,174.28,564,524.84,554,534.84,16,534.84,16,184.28" style="stroke:#181818;stroke-width:1.5;stroke-linejoin:miter;stroke-miterlimit:10;"/><line style="stroke:#181818;stroke-width:1.5;" x1="554" x2="564" y1="184.28" y2="174.28"/><line style="stroke:#181818;stroke-width:1.5;" x1="16" x2="554" y1="184.28" y2="184.28"/><line style="stroke:#181818;stroke-width:1.5;" x1="554" x2="554" y1="184.28" y2="534.84"/><text fill="#000000" font-family="Arial" font-size="10" font-weight="700" lengthAdjust="spacing" textLength="130.8301" x="220.585" y="196.5622">Servidor propio (Linux)</text></g><!--cluster Docker Compose--><g class="cluster" data-qualified-name="Servidor propio .Linux..Docker Compose" data-source-line="11" id="ent0002"><polygon fill="none" points="40,227.28,50,217.28,540,217.28,540,500.84,530,510.84,40,510.84,40,227.28" style="stroke:#181818;stroke-width:1.5;stroke-linejoin:miter;stroke-miterlimit:10;"/><line style="stroke:#181818;stroke-width:1.5;" x1="530" x2="540" y1="227.28" y2="217.28"/><line style="stroke:#181818;stroke-width:1.5;" x1="40" x2="530" y1="227.28" y2="227.28"/><line style="stroke:#181818;stroke-width:1.5;" x1="530" x2="530" y1="227.28" y2="510.84"/><text fill="#000000" font-family="Arial" font-size="10" font-weight="700" lengthAdjust="spacing" textLength="94.3359" x="238.832" y="239.5622">Docker Compose</text></g><!--cluster Next.js App Router--><g class="cluster" data-qualified-name="Servidor propio .Linux..Docker Compose.Next.js App Router" data-source-line="12" id="ent0003"><polygon fill="none" points="64,270.28,74,260.28,516,260.28,516,373.56,506,383.56,64,383.56,64,270.28" style="stroke:#181818;stroke-width:1.5;stroke-linejoin:miter;stroke-miterlimit:10;"/><line style="stroke:#181818;stroke-width:1.5;" x1="506" x2="516" y1="270.28" y2="260.28"/><line style="stroke:#181818;stroke-width:1.5;" x1="64" x2="506" y1="270.28" y2="270.28"/><line style="stroke:#181818;stroke-width:1.5;" x1="506" x2="506" y1="270.28" y2="383.56"/><text fill="#000000" font-family="Arial" font-size="10" font-weight="700" lengthAdjust="spacing" textLength="106.7627" x="232.6187" y="282.5622">Next.js App Router</text></g><!--cluster Internet--><g class="cluster" data-qualified-name="Internet" data-source-line="21" id="ent0008"><polygon fill="none" points="588,270.28,598,260.28,1050,260.28,1050,373.56,1040,383.56,588,383.56,588,270.28" style="stroke:#181818;stroke-width:1.5;stroke-linejoin:miter;stroke-miterlimit:10;"/><line style="stroke:#181818;stroke-width:1.5;" x1="1040" x2="1050" y1="270.28" y2="260.28"/><line style="stroke:#181818;stroke-width:1.5;" x1="588" x2="1040" y1="270.28" y2="270.28"/><line style="stroke:#181818;stroke-width:1.5;" x1="1040" x2="1040" y1="270.28" y2="383.56"/><text fill="#000000" font-family="Arial" font-size="10" font-weight="700" lengthAdjust="spacing" textLength="46.0156" x="791.9922" y="282.5622">Internet</text></g><!--cluster Cliente--><g class="cluster" data-qualified-name="Cliente" data-source-line="27" id="ent0012"><polygon fill="none" points="488,16,498,6,680,6,680,119.28,670,129.28,488,129.28,488,16" style="stroke:#181818;stroke-width:1.5;stroke-linejoin:miter;stroke-miterlimit:10;"/><line style="stroke:#181818;stroke-width:1.5;" x1="670" x2="680" y1="16" y2="6"/><line style="stroke:#181818;stroke-width:1.5;" x1="488" x2="670" y1="16" y2="16"/><line style="stroke:#181818;stroke-width:1.5;" x1="670" x2="670" y1="16" y2="129.28"/><text fill="#000000" font-family="Arial" font-size="10" font-weight="700" lengthAdjust="spacing" textLength="39.6582" x="560.1709" y="28.2822">Cliente</text></g><!--entity PG--><g class="entity" data-qualified-name="Servidor propio .Linux..Docker Compose.PG" data-source-line="17" id="ent0007"><path d="M222.21,452.56 C222.21,442.56 269.002,442.56 269.002,442.56 C269.002,442.56 315.794,442.56 315.794,452.56 L315.794,484.8413 C315.794,494.8413 269.002,494.8413 269.002,494.8413 C269.002,494.8413 222.21,494.8413 222.21,484.8413 L222.21,452.56" fill="#F1F1F1" style="stroke:#181818;stroke-width:0.5;"/><path d="M222.21,452.56 C222.21,462.56 269.002,462.56 269.002,462.56 C269.002,462.56 315.794,462.56 315.794,452.56" fill="none" style="stroke:#181818;stroke-width:0.5;"/><text fill="#000000" font-family="Arial" font-size="10" lengthAdjust="spacing" textLength="73.584" x="232.21" y="475.8422">PostgreSQL 16</text><text fill="#000000" font-family="Arial" font-size="10" lengthAdjust="spacing" textLength="69.4189" x="232.21" y="487.4829">(puerto 5432)</text></g><!--entity SC--><g class="entity" data-qualified-name="Servidor propio .Linux..Docker Compose.Next.js App Router.SC" data-source-line="13" id="ent0004"><rect fill="#F1F1F1" height="41.6406" rx="2.5" ry="2.5" style="stroke:#181818;stroke-width:0.5;" width="139.2383" x="360.38" y="320.1"/><rect fill="#F1F1F1" height="10" style="stroke:#181818;stroke-width:0.5;" width="15" x="479.6183" y="325.1"/><rect fill="#F1F1F1" height="2" style="stroke:#181818;stroke-width:0.5;" width="4" x="477.6183" y="327.1"/><rect fill="#F1F1F1" height="2" style="stroke:#181818;stroke-width:0.5;" width="4" x="477.6183" y="331.1"/><text fill="#000000" font-family="Arial" font-size="10" lengthAdjust="spacing" textLength="99.2383" x="375.38" y="349.3822">Server Components</text></g><!--entity SA--><g class="entity" data-qualified-name="Servidor propio .Linux..Docker Compose.Next.js App Router.SA" data-source-line="14" id="ent0005"><rect fill="#F1F1F1" height="41.6406" rx="2.5" ry="2.5" style="stroke:#181818;stroke-width:0.5;" width="112.6758" x="212.66" y="320.1"/><rect fill="#F1F1F1" height="10" style="stroke:#181818;stroke-width:0.5;" width="15" x="305.3358" y="325.1"/><rect fill="#F1F1F1" height="2" style="stroke:#181818;stroke-width:0.5;" width="4" x="303.3358" y="327.1"/><rect fill="#F1F1F1" height="2" style="stroke:#181818;stroke-width:0.5;" width="4" x="303.3358" y="331.1"/><text fill="#000000" font-family="Arial" font-size="10" lengthAdjust="spacing" textLength="72.6758" x="227.66" y="349.3822">Server Actions</text></g><!--entity MW--><g class="entity" data-qualified-name="Servidor propio .Linux..Docker Compose.Next.js App Router.MW" data-source-line="15" id="ent0006"><rect fill="#F1F1F1" height="53.2813" rx="2.5" ry="2.5" style="stroke:#181818;stroke-width:0.5;" width="97.6025" x="80.2" y="314.28"/><rect fill="#F1F1F1" height="10" style="stroke:#181818;stroke-width:0.5;" width="15" x="157.8025" y="319.28"/><rect fill="#F1F1F1" height="2" style="stroke:#181818;stroke-width:0.5;" width="4" x="155.8025" y="321.28"/><rect fill="#F1F1F1" height="2" style="stroke:#181818;stroke-width:0.5;" width="4" x="155.8025" y="325.28"/><text fill="#000000" font-family="Arial" font-size="10" lengthAdjust="spacing" textLength="57.6025" x="95.2" y="343.5622">Middleware</text><text fill="#000000" font-family="Arial" font-size="10" lengthAdjust="spacing" textLength="42.4072" x="95.2" y="355.2029">(Auth.js)</text></g><!--entity Entra--><g class="entity" data-qualified-name="Internet.Entra" data-source-line="22" id="ent0009"><path d="M613.8399,322.3625 C618.2712,317.277 622.0181,317.6458 626.1742,322.6972 C628.1453,316.0988 634.0182,314.2125 639.2349,318.9615 C643.7815,311.7155 647.9637,312.2617 652.656,318.8198 C655.7098,310.9579 660.9057,310.4233 666.4592,316.3102 C670.8314,309.654 678.0385,310.4773 681.2143,317.5921 C685.4461,312.4877 690.9669,313.2315 694.0511,318.9529 C700.0371,314.3054 704.1361,315.2623 707.4908,322.0464 C712.7395,316.0573 718.0797,315.9887 721.8535,323.6035 C731.2919,328.7937 732.0307,335.0857 722.8166,341.2915 C731.0112,347.6067 731.5166,355.2459 721.6097,360.4189 C718.2367,367.4036 712.3009,367.5867 708.1536,361.198 C703.5146,367.7393 698.1701,368.9031 693.4568,361.2751 C690.8703,367.8003 685.3077,370.3168 680.1681,363.8958 C675.4083,370.8945 670.893,370.368 666.2489,363.7774 C661.71,370.1429 656.5397,370.2573 653.1028,362.7343 C649.5836,367.8281 643.7507,368.3744 641.0551,361.8782 C636.9032,369.1064 631.0288,369.3198 626.8109,361.9425 C622.9486,368.5643 617.5503,366.8238 614.1355,361.469 C604.0687,357.395 602.8403,350.4595 610.7646,343.0865 C601.0921,336.2381 604.0986,326.33 613.8399,322.3625" fill="#F1F1F1" style="stroke:#181818;stroke-width:0.5;"/><text fill="#000000" font-family="Arial" font-size="10" lengthAdjust="spacing" textLength="89.7266" x="619.29" y="338.5622">Microsoft Entra ID</text><text fill="#000000" font-family="Arial" font-size="10" lengthAdjust="spacing" textLength="93.4229" x="619.29" y="350.2029">(OAuth 2.0 / OIDC)</text></g><!--entity Graph--><g class="entity" data-qualified-name="Internet.Graph" data-source-line="23" id="ent0010"><path d="M772.6506,322.3509 C775.1421,317.3681 779.5565,316.1996 783.6134,320.5028 C786.8213,313.7907 792.2299,312.7303 797.1095,318.7275 C800.5565,313.2351 805.4446,312.0214 809.3177,318.285 C812.5703,310.4822 817.2602,311.5372 822.5131,316.161 C825.5901,309.1613 830.1763,308.48 835.1016,314.3536 C840.0026,308.2875 844.1667,309.9345 847.5703,315.9048 C852.0831,311.0693 856.0971,312.0206 858.9509,317.7003 C863.374,313.1858 868.2455,314.8298 870.3597,320.3305 C875.2374,312.9619 879.8766,313.6601 884.5041,320.5783 C889.1744,315.9668 894.3597,317.6177 896.6113,323.3967 C907.6998,327.1929 909.6494,333.9753 901.8439,342.853 C907.6933,351.5703 905.9302,357.3534 896.3609,361.5489 C893.6879,367.0865 887.8639,367.4641 884.368,362.4875 C881.5728,369.1113 875.4215,370.9128 870.3774,364.9965 C867.8493,370.48 862.7245,370.2675 859.5797,365.6562 C856.2454,372.5731 851.6806,372.2114 846.764,367.3827 C843.9539,373.6044 838.4743,375.5378 833.4726,369.8231 C829.1881,374.3231 824.5266,374.9332 821.5949,368.3706 C816.5318,374.114 811.7958,374.3402 808.4725,366.6686 C804.5311,372.807 798.6129,370.6453 796.2445,365.0319 C792.5129,369.1623 786.7787,368.6556 784.8958,362.9079 C780.5583,367.6852 774.2245,367.524 772.5471,360.1946 C760.7874,359.0322 757.1397,351.8087 763.2623,341.6791 C757.1295,332.6973 759.862,322.142 772.6506,322.3509" fill="#F1F1F1" style="stroke:#181818;stroke-width:0.5;"/><text fill="#000000" font-family="Arial" font-size="10" lengthAdjust="spacing" textLength="98.7549" x="777.96" y="338.5622">Microsoft Graph API</text><text fill="#000000" font-family="Arial" font-size="10" lengthAdjust="spacing" textLength="110.0879" x="777.96" y="350.2029">(Teams, fuera oficina)</text></g><!--entity Resend--><g class="entity" data-qualified-name="Internet.Resend" data-source-line="24" id="ent0011"><path d="M948.266,322.4322 C950.7527,316.7339 956.6295,316.5966 960.1069,321.3049 C962.5631,313.7752 968.8951,313.6537 973.1566,319.5502 C976.0605,311.5858 981.4388,311.5912 986.6498,317.2682 C991.1781,310.2338 995.8762,311.5238 999.9904,317.6867 C1004.9894,311.7975 1011.3924,313.1066 1014.0728,320.2015 C1020.2875,315.4604 1024.1665,317.0475 1026.1223,324.4332 C1034.5911,329.34 1034.7849,335.619 1027.2314,341.5632 C1037.3665,348.2078 1035.5972,354.5413 1026.7687,360.728 C1024.1263,368.2008 1017.6563,369.2584 1013.1372,362.5293 C1011.0967,369.8861 1006.874,371.4436 1000.9097,366.3976 C997.5832,373.4533 992.8728,374.3287 986.7925,369.7345 C980.9902,374.6896 976.4585,373.4411 973.1721,366.7835 C968.7418,371.9924 963.3819,370.5395 961.4717,364.2248 C955.5789,371.1644 949.214,369.7639 946.4528,361.1926 C938.11,356.082 935.699,349.8869 944.3331,342.8179 C935.5789,335.1736 937.4401,326.299 948.266,322.4322" fill="#F1F1F1" style="stroke:#181818;stroke-width:0.5;"/><text fill="#000000" font-family="Arial" font-size="10" lengthAdjust="spacing" textLength="37.1484" x="953.16" y="338.5622">Resend</text><text fill="#000000" font-family="Arial" font-size="10" lengthAdjust="spacing" textLength="65.6738" x="953.16" y="350.2029">(email SMTP)</text></g><!--entity Browser--><g class="entity" data-qualified-name="Cliente.Browser" data-source-line="28" id="ent0013"><rect fill="#F1F1F1" height="53.2813" rx="2.5" ry="2.5" style="stroke:#181818;stroke-width:0.5;" width="160.8789" x="503.56" y="60"/><rect fill="#F1F1F1" height="10" style="stroke:#181818;stroke-width:0.5;" width="15" x="644.4389" y="65"/><rect fill="#F1F1F1" height="2" style="stroke:#181818;stroke-width:0.5;" width="4" x="642.4389" y="67"/><rect fill="#F1F1F1" height="2" style="stroke:#181818;stroke-width:0.5;" width="4" x="642.4389" y="71"/><text fill="#000000" font-family="Arial" font-size="10" lengthAdjust="spacing" textLength="54.7314" x="518.56" y="89.2822">Navegador</text><text fill="#000000" font-family="Arial" font-size="10" lengthAdjust="spacing" textLength="120.8789" x="518.56" y="100.9229">(Chrome / Edge / Safari)</text></g><!--link Browser to SC--><g class="link" data-entity-1="ent0013" data-entity-2="ent0004" data-link-type="dependency" data-source-line="31" id="lnk14"><path d="M570.11,113.68 C562.82,127.11 553.63,143.69 545,158.28 C509.73,217.86 467.9353,282.2911 446.0853,315.5511" fill="none" id="Browser-to-SC" style="stroke:#444444;stroke-width:1;"/><polygon fill="#444444" points="443.34,319.73,451.6247,314.4042,446.0853,315.5511,444.9384,310.0117,443.34,319.73" style="stroke:#444444;stroke-width:1;stroke-linejoin:miter;stroke-miterlimit:10;"/><text fill="#000000" font-family="Arial" font-size="10" lengthAdjust="spacing" textLength="57.749" x="552.64" y="155.5622">HTTPS :443</text></g><!--link SA to PG--><g class="link" data-entity-1="ent0005" data-entity-2="ent0007" data-link-type="dependency" data-source-line="32" id="lnk15"><path d="M269,362.13 C269,383.93 269,413.7 269,437.33" fill="none" id="SA-to-PG" style="stroke:#444444;stroke-width:1;"/><polygon fill="#444444" points="269,442.33,273,433.33,269,437.33,265,433.33,269,442.33" style="stroke:#444444;stroke-width:1;stroke-linejoin:miter;stroke-miterlimit:10;"/><text fill="#000000" font-family="Arial" font-size="10" lengthAdjust="spacing" textLength="73.54" x="270" y="409.8422">pg / TCP :5432</text></g><!--link MW to Entra--><g class="link" data-entity-1="ent0006" data-entity-2="ent0009" data-link-type="dependency" data-source-line="33" id="lnk16"><path d="M132.67,313.82 C138.87,279.9 154.95,223.13 195,197.47 C315.13,120.51 383.59,144.35 516,197.47 C574.52,220.95 620.21,275.3013 645.11,309.9113" fill="none" id="MW-to-Entra" style="stroke:#444444;stroke-width:1;"/><polygon fill="#444444" points="648.03,313.97,646.0209,304.3282,645.11,309.9113,639.5269,309.0003,648.03,313.97" style="stroke:#444444;stroke-width:1;stroke-linejoin:miter;stroke-miterlimit:10;"/><text fill="#000000" font-family="Arial" font-size="10" lengthAdjust="spacing" textLength="67.3438" x="400.5" y="155.5622">OIDC / HTTPS</text></g><!--link SA to Graph--><g class="link" data-entity-1="ent0005" data-entity-2="ent0010" data-link-type="dependency" data-source-line="34" id="lnk17"><path d="M272.82,319.63 C280,286.67 298.97,224.3 343,197.47 C419.29,150.98 667.05,153.84 745,197.47 C789.36,222.3 812.5039,274.8916 823.7839,309.0916" fill="none" id="SA-to-Graph" style="stroke:#444444;stroke-width:1;"/><polygon fill="#444444" points="825.35,313.84,826.3297,304.04,823.7839,309.0916,818.7322,306.5458,825.35,313.84" style="stroke:#444444;stroke-width:1;stroke-linejoin:miter;stroke-miterlimit:10;"/><text fill="#000000" font-family="Arial" font-size="10" lengthAdjust="spacing" textLength="67.5635" x="326.5" y="155.5622">REST / HTTPS</text></g><!--link SA to Resend--><g class="link" data-entity-1="ent0005" data-entity-2="ent0011" data-link-type="dependency" data-source-line="35" id="lnk18"><path d="M272.82,319.63 C280,286.67 298.97,224.3 343,197.47 C452.68,130.63 813.05,127.87 921,197.47 C960.87,223.17 975.6831,275.0057 981.6531,308.9157" fill="none" id="SA-to-Resend" style="stroke:#444444;stroke-width:1;"/><polygon fill="#444444" points="982.52,313.84,984.8989,304.2828,981.6531,308.9157,977.0201,305.6699,982.52,313.84" style="stroke:#444444;stroke-width:1;stroke-linejoin:miter;stroke-miterlimit:10;"/><text fill="#000000" font-family="Arial" font-size="10" lengthAdjust="spacing" textLength="68.9551" x="475" y="155.5622">SMTP / HTTPS</text></g><?plantuml-src TL9DJ-Cm4BtdLuow5v2sXKBPGmuhXRHqAz6IRI9nsOiRJr9lKqyqTW3jYl--Zjr29LWV4illOsQURNPAjuB57ZQYtDLCdPOfDSJmvSwloBmn95QYQ-mTQRiIUuI4bMW-ntFr1s5yUG9gadXBB96BhIft6es1yUZcX26OwVbGU-9N55bgmH9io5fo1HHZQHNfAEhjO90ZFodf12rJgmZExfNkNiu7y3S229GfbJjaI6dVai607B4LljZHRmD9syAQEejyn07ANg1Hsr3bQD6Vc0480tdwNsRYcppGae-qfPAomMV1-4kV9PtTkYREFNlvwDcl_Yk55HjXNACP6LipvZ_lOVpDQTeEsSLoCxc-2hfi7lMgrsCm2-s6qMZ3F6L3dUpBbao6AWipRLd0Okgi7lhwS3MwX0juM4pJuES9doddBDej9Dd2IGiKU_CLAjUC0AfKgRG8Sizwbw_He9PEWNkX6iYNHHPu0NXlEssK2-XmIoU1hSGJri9TjFD8jqpkyLt0JDRzBnULO1NyRjqBCiYzuM4BGpdyxkugXXz5aUKGJoRNKPw4usmUGrixZoBD8ExJZ9QFC6G7-G1YduZ3lTRBUinF5yDwbXSVi31Hx6Ty0_y1?></g></svg>