<svg xmlns="http://www.w3.org/2000/svg" xmlns:xlink="http://www.w3.org/1999/xlink" contentStyleType="text/css" data-diagram-type="CLASS" height="547px" preserveAspectRatio="none" style="width:1122px;height:547px;background:#FFFFFF;" version="1.1" viewBox="0 0 1122 547" width="1122px" zoomAndPan="magnify"><?plantuml 1.2026.4?><defs/><g><g class="title" data-source-line="2"><text fill="#000000" font-family="Arial" font-size="14" font-weight="700" lengthAdjust="spacing" textLength="239.3193" x="437.8403" y="22.9951">Diagrama de Clases de Dise&#241;o</text></g><!--cluster Presentaci?n\n(Server Components)--><g class="cluster" data-qualified-name="Presentaci.n.n.Server Components." data-source-line="17" id="ent0001"><path d="M394.5,43.2969 L515.6807,43.2969 A3.75,3.75 0 0 1 518.1807,45.7969 L525.1807,72.5781 L801.5,72.5781 A2.5,2.5 0 0 1 804,75.0781 L804,136.4369 A2.5,2.5 0 0 1 801.5,138.9369 L394.5,138.9369 A2.5,2.5 0 0 1 392,136.4369 L392,45.7969 A2.5,2.5 0 0 1 394.5,43.2969" fill="none" style="stroke:#000000;stroke-width:1.5;"/><line style="stroke:#000000;stroke-width:1.5;" x1="392" x2="525.1807" y1="72.5781" y2="72.5781"/><text fill="#000000" font-family="Arial" font-size="10" font-weight="700" lengthAdjust="spacing" textLength="73.7695" x="419.2056" y="54.5791">Presentaci&#243;n</text><text fill="#000000" font-family="Arial" font-size="10" font-weight="700" lengthAdjust="spacing" textLength="120.1807" x="396" y="66.2197">(Server Components)</text></g><!--cluster L?gica\n(Server Actions)--><g class="cluster" data-qualified-name="L.gica.n.Server Actions." data-source-line="25" id="ent0005"><path d="M160.5,162.9369 L253.0869,162.9369 A3.75,3.75 0 0 1 255.5869,165.4369 L262.5869,192.2181 L1104.5,192.2181 A2.5,2.5 0 0 1 1107,194.7181 L1107,302.6369 A2.5,2.5 0 0 1 1104.5,305.1369 L160.5,305.1369 A2.5,2.5 0 0 1 158,302.6369 L158,165.4369 A2.5,2.5 0 0 1 160.5,162.9369" fill="none" style="stroke:#000000;stroke-width:1.5;"/><line style="stroke:#000000;stroke-width:1.5;" x1="158" x2="262.5869" y1="192.2181" y2="192.2181"/><text fill="#000000" font-family="Arial" font-size="10" font-weight="700" lengthAdjust="spacing" textLength="36.5039" x="189.5415" y="174.2191">L&#243;gica</text><text fill="#000000" font-family="Arial" font-size="10" font-weight="700" lengthAdjust="spacing" textLength="91.5869" x="162" y="185.8597">(Server Actions)</text></g><!--cluster Contratos\n(Zod Schemas)--><g class="cluster" data-qualified-name="Contratos.n.Zod Schemas." data-source-line="46" id="ent0009"><path d="M8.5,329.1369 L93.5527,329.1369 A3.75,3.75 0 0 1 96.0527,331.6369 L103.0527,358.4181 L363.5,358.4181 A2.5,2.5 0 0 1 366,360.9181 L366,422.2769 A2.5,2.5 0 0 1 363.5,424.7769 L8.5,424.7769 A2.5,2.5 0 0 1 6,422.2769 L6,331.6369 A2.5,2.5 0 0 1 8.5,329.1369" fill="none" style="stroke:#000000;stroke-width:1.5;"/><line style="stroke:#000000;stroke-width:1.5;" x1="6" x2="103.0527" y1="358.4181" y2="358.4181"/><text fill="#000000" font-family="Arial" font-size="10" font-weight="700" lengthAdjust="spacing" textLength="55.3906" x="24.3311" y="340.4191">Contratos</text><text fill="#000000" font-family="Arial" font-size="10" font-weight="700" lengthAdjust="spacing" textLength="84.0527" x="10" y="352.0597">(Zod Schemas)</text></g><!--cluster Acceso a Datos\n(Drizzle Queries)--><g class="cluster" data-qualified-name="Acceso a Datos.n.Drizzle Queries." data-source-line="54" id="ent0013"><path d="M392.5,329.1369 L488.1289,329.1369 A3.75,3.75 0 0 1 490.6289,331.6369 L497.6289,358.4181 L724.5,358.4181 A2.5,2.5 0 0 1 727,360.9181 L727,422.2769 A2.5,2.5 0 0 1 724.5,424.7769 L392.5,424.7769 A2.5,2.5 0 0 1 390,422.2769 L390,331.6369 A2.5,2.5 0 0 1 392.5,329.1369" fill="none" style="stroke:#000000;stroke-width:1.5;"/><line style="stroke:#000000;stroke-width:1.5;" x1="390" x2="497.6289" y1="358.4181" y2="358.4181"/><text fill="#000000" font-family="Arial" font-size="10" font-weight="700" lengthAdjust="spacing" textLength="85.5615" x="398.5337" y="340.4191">Acceso a Datos</text><text fill="#000000" font-family="Arial" font-size="10" font-weight="700" lengthAdjust="spacing" textLength="94.6289" x="394" y="352.0597">(Drizzle Queries)</text></g><!--cluster Infraestructura--><g class="cluster" data-qualified-name="Infraestructura" data-source-line="62" id="ent0017"><path d="M578.5,448.7769 L665.4424,448.7769 A3.75,3.75 0 0 1 667.9424,451.2769 L674.9424,466.4175 L989.5,466.4175 A2.5,2.5 0 0 1 992,468.9175 L992,529.9169 A2.5,2.5 0 0 1 989.5,532.4169 L578.5,532.4169 A2.5,2.5 0 0 1 576,529.9169 L576,451.2769 A2.5,2.5 0 0 1 578.5,448.7769" fill="none" style="stroke:#000000;stroke-width:1.5;"/><line style="stroke:#000000;stroke-width:1.5;" x1="576" x2="674.9424" y1="466.4175" y2="466.4175"/><text fill="#000000" font-family="Arial" font-size="10" font-weight="700" lengthAdjust="spacing" textLength="85.9424" x="580" y="460.0591">Infraestructura</text></g><!--class CalendarioParkingPage--><g class="entity" data-qualified-name="Presentaci.n.n.Server Components..CalendarioParkingPage" data-source-line="18" id="ent0002"><rect fill="#F1F1F1" height="37.6406" rx="2.5" ry="2.5" style="stroke:#181818;stroke-width:1.5;" width="122.0449" x="568.98" y="85.2969"/><text fill="#000000" font-family="Arial" font-size="10" lengthAdjust="spacing" textLength="116.0449" x="571.98" y="99.5791">CalendarioParkingPage</text><line style="stroke:#181818;stroke-width:1.5;" x1="569.98" x2="690.0249" y1="106.9375" y2="106.9375"/><line style="stroke:#181818;stroke-width:1.5;" x1="569.98" x2="690.0249" y1="114.9375" y2="114.9375"/></g><!--class BandejaSolicitudesPage--><g class="entity" data-qualified-name="Presentaci.n.n.Server Components..BandejaSolicitudesPage" data-source-line="19" id="ent0003"><rect fill="#F1F1F1" height="37.6406" rx="2.5" ry="2.5" style="stroke:#181818;stroke-width:1.5;" width="125.6582" x="408.17" y="85.2969"/><text fill="#000000" font-family="Arial" font-size="10" lengthAdjust="spacing" textLength="119.6582" x="411.17" y="99.5791">BandejaSolicitudesPage</text><line style="stroke:#181818;stroke-width:1.5;" x1="409.17" x2="532.8282" y1="106.9375" y2="106.9375"/><line style="stroke:#181818;stroke-width:1.5;" x1="409.17" x2="532.8282" y1="114.9375" y2="114.9375"/></g><!--class AdminPage--><g class="entity" data-qualified-name="Presentaci.n.n.Server Components..AdminPage" data-source-line="20" id="ent0004"><rect fill="#F1F1F1" height="37.6406" rx="2.5" ry="2.5" style="stroke:#181818;stroke-width:1.5;" width="62.7041" x="725.65" y="85.2969"/><text fill="#000000" font-family="Arial" font-size="10" lengthAdjust="spacing" textLength="56.7041" x="728.65" y="99.5791">AdminPage</text><line style="stroke:#181818;stroke-width:1.5;" x1="726.65" x2="787.3541" y1="106.9375" y2="106.9375"/><line style="stroke:#181818;stroke-width:1.5;" x1="726.65" x2="787.3541" y1="114.9375" y2="114.9375"/></g><!--class ReservaActions--><g class="entity" data-qualified-name="L.gica.n.Server Actions..ReservaActions" data-source-line="26" id="ent0006"><rect fill="#F1F1F1" height="84.2031" rx="2.5" ry="2.5" style="stroke:#181818;stroke-width:1.5;" width="246.6875" x="506.66" y="204.9369"/><text fill="#000000" font-family="Arial" font-size="10" lengthAdjust="spacing" textLength="77.3242" x="591.3416" y="219.2191">ReservaActions</text><line style="stroke:#181818;stroke-width:1.5;" x1="507.66" x2="752.3475" y1="226.5775" y2="226.5775"/><line style="stroke:#181818;stroke-width:1.5;" x1="507.66" x2="752.3475" y1="234.5775" y2="234.5775"/><text fill="#000000" font-family="Arial" font-size="10" lengthAdjust="spacing" textLength="234.6875" x="512.66" y="247.8597">+createReservation(): ActionResult&lt;Reserva&gt;</text><text fill="#000000" font-family="Arial" font-size="10" lengthAdjust="spacing" textLength="215.6592" x="512.66" y="259.5004">+cancelReservation(): ActionResult&lt;void&gt;</text><text fill="#000000" font-family="Arial" font-size="10" lengthAdjust="spacing" textLength="206.6602" x="512.66" y="271.141">+createCession(): ActionResult&lt;Cesi&#243;n&gt;</text><text fill="#000000" font-family="Arial" font-size="10" lengthAdjust="spacing" textLength="194.6729" x="512.66" y="282.7816">+cancelCession(): ActionResult&lt;void&gt;</text></g><!--class AusenciaActions--><g class="entity" data-qualified-name="L.gica.n.Server Actions..AusenciaActions" data-source-line="32" id="ent0007"><rect fill="#F1F1F1" height="72.5625" rx="2.5" ry="2.5" style="stroke:#181818;stroke-width:1.5;" width="297.4346" x="174.28" y="210.7569"/><text fill="#000000" font-family="Arial" font-size="10" lengthAdjust="spacing" textLength="81.9873" x="282.0036" y="225.0391">AusenciaActions</text><line style="stroke:#181818;stroke-width:1.5;" x1="175.28" x2="470.7146" y1="232.3975" y2="232.3975"/><line style="stroke:#181818;stroke-width:1.5;" x1="175.28" x2="470.7146" y1="240.3975" y2="240.3975"/><text fill="#000000" font-family="Arial" font-size="10" lengthAdjust="spacing" textLength="278.6475" x="180.28" y="253.6797">+submitLeaveRequest(): ActionResult&lt;LeaveRequest&gt;</text><text fill="#000000" font-family="Arial" font-size="10" lengthAdjust="spacing" textLength="285.4346" x="180.28" y="265.3204">+approveLeaveRequest(): ActionResult&lt;LeaveRequest&gt;</text><text fill="#000000" font-family="Arial" font-size="10" lengthAdjust="spacing" textLength="272.9248" x="180.28" y="276.961">+rejectLeaveRequest(): ActionResult&lt;LeaveRequest&gt;</text></g><!--class AdminActions--><g class="entity" data-qualified-name="L.gica.n.Server Actions..AdminActions" data-source-line="37" id="ent0008"><rect fill="#F1F1F1" height="72.5625" rx="2.5" ry="2.5" style="stroke:#181818;stroke-width:1.5;" width="302.6934" x="788.65" y="210.7569"/><text fill="#000000" font-family="Arial" font-size="10" lengthAdjust="spacing" textLength="68.75" x="905.6217" y="225.0391">AdminActions</text><line style="stroke:#181818;stroke-width:1.5;" x1="789.65" x2="1090.3434" y1="232.3975" y2="232.3975"/><line style="stroke:#181818;stroke-width:1.5;" x1="789.65" x2="1090.3434" y1="240.3975" y2="240.3975"/><text fill="#000000" font-family="Arial" font-size="10" lengthAdjust="spacing" textLength="179.7607" x="794.65" y="253.6797">+createSpot(): ActionResult&lt;Spot&gt;</text><text fill="#000000" font-family="Arial" font-size="10" lengthAdjust="spacing" textLength="183.0322" x="794.65" y="265.3204">+updateSpot(): ActionResult&lt;Spot&gt;</text><text fill="#000000" font-family="Arial" font-size="10" lengthAdjust="spacing" textLength="290.6934" x="794.65" y="276.961">+publishAnnouncement(): ActionResult&lt;Announcement&gt;</text></g><!--class ReservaSchema--><g class="entity" data-qualified-name="Contratos.n.Zod Schemas..ReservaSchema" data-source-line="47" id="ent0010"><rect fill="#F1F1F1" height="37.6406" rx="2.5" ry="2.5" style="stroke:#181818;stroke-width:1.5;" width="86.8252" x="263.59" y="371.1369"/><text fill="#000000" font-family="Arial" font-size="10" lengthAdjust="spacing" textLength="80.8252" x="266.59" y="385.4191">ReservaSchema</text><line style="stroke:#181818;stroke-width:1.5;" x1="264.59" x2="349.4152" y1="392.7775" y2="392.7775"/><line style="stroke:#181818;stroke-width:1.5;" x1="264.59" x2="349.4152" y1="400.7775" y2="400.7775"/></g><!--class CesionSchema--><g class="entity" data-qualified-name="Contratos.n.Zod Schemas..CesionSchema" data-source-line="48" id="ent0011"><rect fill="#F1F1F1" height="37.6406" rx="2.5" ry="2.5" style="stroke:#181818;stroke-width:1.5;" width="79.7842" x="149.11" y="371.1369"/><text fill="#000000" font-family="Arial" font-size="10" lengthAdjust="spacing" textLength="73.7842" x="152.11" y="385.4191">CesionSchema</text><line style="stroke:#181818;stroke-width:1.5;" x1="150.11" x2="227.8942" y1="392.7775" y2="392.7775"/><line style="stroke:#181818;stroke-width:1.5;" x1="150.11" x2="227.8942" y1="400.7775" y2="400.7775"/></g><!--class AusenciaSchema--><g class="entity" data-qualified-name="Contratos.n.Zod Schemas..AusenciaSchema" data-source-line="49" id="ent0012"><rect fill="#F1F1F1" height="37.6406" rx="2.5" ry="2.5" style="stroke:#181818;stroke-width:1.5;" width="91.4883" x="22.26" y="371.1369"/><text fill="#000000" font-family="Arial" font-size="10" lengthAdjust="spacing" textLength="85.4883" x="25.26" y="385.4191">AusenciaSchema</text><line style="stroke:#181818;stroke-width:1.5;" x1="23.26" x2="112.7483" y1="392.7775" y2="392.7775"/><line style="stroke:#181818;stroke-width:1.5;" x1="23.26" x2="112.7483" y1="400.7775" y2="400.7775"/></g><!--class IReservaQuery--><g class="entity" data-qualified-name="Acceso a Datos.n.Drizzle Queries..IReservaQuery" data-source-line="55" id="ent0014"><rect fill="#F1F1F1" height="37.6406" rx="2.5" ry="2.5" style="stroke:#181818;stroke-width:1.5;" width="79.96" x="631.02" y="371.1369"/><text fill="#000000" font-family="Arial" font-size="10" font-style="italic" lengthAdjust="spacing" textLength="73.96" x="634.02" y="385.4191">IReservaQuery</text><line style="stroke:#181818;stroke-width:1.5;" x1="632.02" x2="709.98" y1="392.7775" y2="392.7775"/><line style="stroke:#181818;stroke-width:1.5;" x1="632.02" x2="709.98" y1="400.7775" y2="400.7775"/></g><!--class ICesionQuery--><g class="entity" data-qualified-name="Acceso a Datos.n.Drizzle Queries..ICesionQuery" data-source-line="56" id="ent0015"><rect fill="#F1F1F1" height="37.6406" rx="2.5" ry="2.5" style="stroke:#181818;stroke-width:1.5;" width="72.9189" x="523.54" y="371.1369"/><text fill="#000000" font-family="Arial" font-size="10" font-style="italic" lengthAdjust="spacing" textLength="66.9189" x="526.54" y="385.4191">ICesionQuery</text><line style="stroke:#181818;stroke-width:1.5;" x1="524.54" x2="595.4589" y1="392.7775" y2="392.7775"/><line style="stroke:#181818;stroke-width:1.5;" x1="524.54" x2="595.4589" y1="400.7775" y2="400.7775"/></g><!--class ISolicitudQuery--><g class="entity" data-qualified-name="Acceso a Datos.n.Drizzle Queries..ISolicitudQuery" data-source-line="57" id="ent0016"><rect fill="#F1F1F1" height="37.6406" rx="2.5" ry="2.5" style="stroke:#181818;stroke-width:1.5;" width="82.2451" x="405.88" y="371.1369"/><text fill="#000000" font-family="Arial" font-size="10" font-style="italic" lengthAdjust="spacing" textLength="76.2451" x="408.88" y="385.4191">ISolicitudQuery</text><line style="stroke:#181818;stroke-width:1.5;" x1="406.88" x2="487.1251" y1="392.7775" y2="392.7775"/><line style="stroke:#181818;stroke-width:1.5;" x1="406.88" x2="487.1251" y1="400.7775" y2="400.7775"/></g><!--class DrizzleClient--><g class="entity" data-qualified-name="Infraestructura.DrizzleClient" data-source-line="63" id="ent0018"><rect fill="#F1F1F1" height="37.6406" rx="2.5" ry="2.5" style="stroke:#181818;stroke-width:1.5;" width="68.9688" x="591.52" y="478.7769"/><text fill="#000000" font-family="Arial" font-size="10" lengthAdjust="spacing" textLength="62.9688" x="594.52" y="493.0591">DrizzleClient</text><line style="stroke:#181818;stroke-width:1.5;" x1="592.52" x2="659.4888" y1="500.4175" y2="500.4175"/><line style="stroke:#181818;stroke-width:1.5;" x1="592.52" x2="659.4888" y1="508.4175" y2="508.4175"/></g><!--class AuthHelpers--><g class="entity" data-qualified-name="Infraestructura.AuthHelpers" data-source-line="64" id="ent0019"><rect fill="#F1F1F1" height="37.6406" rx="2.5" ry="2.5" style="stroke:#181818;stroke-width:1.5;" width="67.709" x="801.15" y="478.7769"/><text fill="#000000" font-family="Arial" font-size="10" lengthAdjust="spacing" textLength="61.709" x="804.15" y="493.0591">AuthHelpers</text><line style="stroke:#181818;stroke-width:1.5;" x1="802.15" x2="867.859" y1="500.4175" y2="500.4175"/><line style="stroke:#181818;stroke-width:1.5;" x1="802.15" x2="867.859" y1="508.4175" y2="508.4175"/></g><!--class EmailService--><g class="entity" data-qualified-name="Infraestructura.EmailService" data-source-line="65" id="ent0020"><rect fill="#F1F1F1" height="37.6406" rx="2.5" ry="2.5" style="stroke:#181818;stroke-width:1.5;" width="70.7021" x="695.65" y="478.7769"/><text fill="#000000" font-family="Arial" font-size="10" lengthAdjust="spacing" textLength="64.7021" x="698.65" y="493.0591">EmailService</text><line style="stroke:#181818;stroke-width:1.5;" x1="696.65" x2="765.3521" y1="500.4175" y2="500.4175"/><line style="stroke:#181818;stroke-width:1.5;" x1="696.65" x2="765.3521" y1="508.4175" y2="508.4175"/></g><!--class CalendarUtils--><g class="entity" data-qualified-name="Infraestructura.CalendarUtils" data-source-line="66" id="ent0021"><rect fill="#F1F1F1" height="37.6406" rx="2.5" ry="2.5" style="stroke:#181818;stroke-width:1.5;" width="72.9727" x="903.51" y="478.7769"/><text fill="#000000" font-family="Arial" font-size="10" lengthAdjust="spacing" textLength="66.9727" x="906.51" y="493.0591">CalendarUtils</text><line style="stroke:#181818;stroke-width:1.5;" x1="904.51" x2="975.4827" y1="500.4175" y2="500.4175"/><line style="stroke:#181818;stroke-width:1.5;" x1="904.51" x2="975.4827" y1="508.4175" y2="508.4175"/></g><!--link CalendarioParkingPage to ReservaActions--><g class="link" data-entity-1="ent0002" data-entity-2="ent0006" data-link-type="dependency" data-source-line="71" id="lnk22"><path codeLine="71" d="M630,123.2469 C630,143.6869 630,172.5969 630,199.6069" fill="none" id="CalendarioParkingPage-to-ReservaActions" style="stroke:#444444;stroke-width:1.2;stroke-dasharray:7,7;"/><polygon fill="#444444" points="630,204.6069,634,195.6069,630,199.6069,626,195.6069,630,204.6069" style="stroke:#444444;stroke-width:1.2;stroke-linejoin:miter;stroke-miterlimit:10;"/></g><!--link BandejaSolicitudesPage to AusenciaActions--><g class="link" data-entity-1="ent0003" data-entity-2="ent0007" data-link-type="dependency" data-source-line="72" id="lnk23"><path codeLine="72" d="M451.95,123.2469 C428.92,145.1769 393.2407,179.1487 364.0707,206.9287" fill="none" id="BandejaSolicitudesPage-to-AusenciaActions" style="stroke:#444444;stroke-width:1.2;stroke-dasharray:7,7;"/><polygon fill="#444444" points="360.45,210.3769,369.7259,207.0667,364.0707,206.9287,364.2088,201.2735,360.45,210.3769" style="stroke:#444444;stroke-width:1.2;stroke-linejoin:miter;stroke-miterlimit:10;"/></g><!--link AdminPage to AdminActions--><g class="link" data-entity-1="ent0004" data-entity-2="ent0008" data-link-type="dependency" data-source-line="73" id="lnk24"><path codeLine="73" d="M780.55,123.2469 C809.03,145.1769 853.6583,179.5465 889.7383,207.3265" fill="none" id="AdminPage-to-AdminActions" style="stroke:#444444;stroke-width:1.2;stroke-dasharray:7,7;"/><polygon fill="#444444" points="893.7,210.3769,889.0092,201.7168,889.7383,207.3265,884.1286,208.0556,893.7,210.3769" style="stroke:#444444;stroke-width:1.2;stroke-linejoin:miter;stroke-miterlimit:10;"/></g><!--link ReservaActions to ReservaSchema--><g class="link" data-entity-1="ent0006" data-entity-2="ent0010" data-link-type="dependency" data-source-line="75" id="lnk25"><path codeLine="75" d="M552.77,289.5969 C532.54,298.8269 510.39,307.5269 489,313.1369 C446.3,324.3369 430.95,304.6469 390,321.1369 C363.25,331.9069 341.9093,350.8772 326.5193,367.0272" fill="none" id="ReservaActions-to-ReservaSchema" style="stroke:#444444;stroke-width:1.2;stroke-dasharray:7,7;"/><polygon fill="#444444" points="323.07,370.6469,332.1746,366.8909,326.5193,367.0272,326.3831,361.372,323.07,370.6469" style="stroke:#444444;stroke-width:1.2;stroke-linejoin:miter;stroke-miterlimit:10;"/></g><!--link ReservaActions to CesionSchema--><g class="link" data-entity-1="ent0006" data-entity-2="ent0011" data-link-type="dependency" data-source-line="76" id="lnk26"><path codeLine="76" d="M554.42,289.6369 C533.79,299.1069 511.04,307.9169 489,313.1369 C462.71,319.3669 270.3,309.3269 246,321.1369 C224.42,331.6269 210.4999,350.2041 200.9499,366.4841" fill="none" id="ReservaActions-to-CesionSchema" style="stroke:#444444;stroke-width:1.2;stroke-dasharray:7,7;"/><polygon fill="#444444" points="198.42,370.7969,206.424,365.0579,200.9499,366.4841,199.5236,361.01,198.42,370.7969" style="stroke:#444444;stroke-width:1.2;stroke-linejoin:miter;stroke-miterlimit:10;"/></g><!--link AusenciaActions to AusenciaSchema--><g class="link" data-entity-1="ent0007" data-entity-2="ent0012" data-link-type="dependency" data-source-line="77" id="lnk27"><path codeLine="77" d="M204.76,283.7769 C179.68,293.9169 154.13,306.3169 132,321.1369 C111.82,334.6469 96.4176,351.682 84.5476,366.722" fill="none" id="AusenciaActions-to-AusenciaSchema" style="stroke:#444444;stroke-width:1.2;stroke-dasharray:7,7;"/><polygon fill="#444444" points="81.45,370.6469,90.1656,366.0602,84.5476,366.722,83.8858,361.104,81.45,370.6469" style="stroke:#444444;stroke-width:1.2;stroke-linejoin:miter;stroke-miterlimit:10;"/></g><!--link ReservaActions to IReservaQuery--><g class="link" data-entity-1="ent0006" data-entity-2="ent0014" data-link-type="dependency" data-source-line="79" id="lnk28"><path codeLine="79" d="M642.08,289.5569 C649.92,316.5069 658.3519,345.4963 664.3019,365.9263" fill="none" id="ReservaActions-to-IReservaQuery" style="stroke:#444444;stroke-width:1.2;"/><polygon fill="#444444" points="665.7,370.7269,667.0239,360.9674,664.3019,365.9263,659.343,363.2044,665.7,370.7269" style="stroke:#444444;stroke-width:1.2;stroke-linejoin:miter;stroke-miterlimit:10;"/></g><!--link ReservaActions to ICesionQuery--><g class="link" data-entity-1="ent0006" data-entity-2="ent0015" data-link-type="dependency" data-source-line="80" id="lnk29"><path codeLine="80" d="M609.38,289.5569 C595.99,316.5069 581.4247,345.8191 571.2747,366.2491" fill="none" id="ReservaActions-to-ICesionQuery" style="stroke:#444444;stroke-width:1.2;"/><polygon fill="#444444" points="569.05,370.7269,576.6367,364.4465,571.2747,366.2491,569.4721,360.8871,569.05,370.7269" style="stroke:#444444;stroke-width:1.2;stroke-linejoin:miter;stroke-miterlimit:10;"/></g><!--link AusenciaActions to ISolicitudQuery--><g class="link" data-entity-1="ent0007" data-entity-2="ent0016" data-link-type="dependency" data-source-line="81" id="lnk30"><path codeLine="81" d="M354.29,283.5969 C378.68,311.3169 408.2562,344.9338 427.5962,366.9038" fill="none" id="AusenciaActions-to-ISolicitudQuery" style="stroke:#444444;stroke-width:1.2;"/><polygon fill="#444444" points="430.9,370.6569,427.9557,361.2584,427.5962,366.9038,421.9508,366.5444,430.9,370.6569" style="stroke:#444444;stroke-width:1.2;stroke-linejoin:miter;stroke-miterlimit:10;"/></g><!--link IReservaQuery to DrizzleClient--><g class="link" data-entity-1="ent0014" data-entity-2="ent0018" data-link-type="dependency" data-source-line="83" id="lnk31"><path codeLine="83" d="M663.37,408.8769 C655.09,428.3069 643.9196,454.5269 635.6296,473.9869" fill="none" id="IReservaQuery-to-DrizzleClient" style="stroke:#444444;stroke-width:1.2;stroke-dasharray:7,7;"/><polygon fill="#444444" points="633.67,478.5869,640.8773,471.8746,635.6296,473.9869,633.5173,468.7392,633.67,478.5869" style="stroke:#444444;stroke-width:1.2;stroke-linejoin:miter;stroke-miterlimit:10;"/></g><!--link ICesionQuery to DrizzleClient--><g class="link" data-entity-1="ent0015" data-entity-2="ent0018" data-link-type="dependency" data-source-line="84" id="lnk32"><path codeLine="84" d="M571.2,408.8769 C583.33,428.3069 599.9404,454.8866 612.1004,474.3466" fill="none" id="ICesionQuery-to-DrizzleClient" style="stroke:#444444;stroke-width:1.2;stroke-dasharray:7,7;"/><polygon fill="#444444" points="614.75,478.5869,613.3729,468.8348,612.1004,474.3466,606.5885,473.0741,614.75,478.5869" style="stroke:#444444;stroke-width:1.2;stroke-linejoin:miter;stroke-miterlimit:10;"/></g><!--link ISolicitudQuery to DrizzleClient--><g class="link" data-entity-1="ent0016" data-entity-2="ent0018" data-link-type="dependency" data-source-line="85" id="lnk33"><path codeLine="85" d="M471.21,409.1769 C481.7,416.7869 494.25,425.5269 506,432.7769 C533.92,449.9969 562.4245,465.0776 586.7445,477.3276" fill="none" id="ISolicitudQuery-to-DrizzleClient" style="stroke:#444444;stroke-width:1.2;stroke-dasharray:7,7;"/><polygon fill="#444444" points="591.21,479.5769,584.9715,471.9558,586.7445,477.3276,581.3727,479.1006,591.21,479.5769" style="stroke:#444444;stroke-width:1.2;stroke-linejoin:miter;stroke-miterlimit:10;"/></g><!--link ReservaActions to AuthHelpers--><g class="link" data-entity-1="ent0006" data-entity-2="ent0019" data-link-type="dependency" data-source-line="87" id="lnk34"><path codeLine="87" d="M723.11,289.6269 C736.99,298.6169 750.23,309.1069 761,321.1369 C803.46,368.5369 822.8423,438.9822 830.3723,473.4322" fill="none" id="ReservaActions-to-AuthHelpers" style="stroke:#444444;stroke-width:1.2;stroke-dasharray:7,7;"/><polygon fill="#444444" points="831.44,478.3169,833.4259,468.6703,830.3723,473.4322,825.6104,470.3786,831.44,478.3169" style="stroke:#444444;stroke-width:1.2;stroke-linejoin:miter;stroke-miterlimit:10;"/></g><!--link ReservaActions to EmailService--><g class="link" data-entity-1="ent0006" data-entity-2="ent0020" data-link-type="dependency" data-source-line="88" id="lnk35"><path codeLine="88" d="M701.45,289.4469 C711.7,298.5569 720.84,309.1269 727,321.1369 C753.56,372.9169 743.7692,440.2203 736.5492,473.5303" fill="none" id="ReservaActions-to-EmailService" style="stroke:#444444;stroke-width:1.2;stroke-dasharray:7,7;"/><polygon fill="#444444" points="735.49,478.4169,741.3057,470.4685,736.5492,473.5303,733.4873,468.7738,735.49,478.4169" style="stroke:#444444;stroke-width:1.2;stroke-linejoin:miter;stroke-miterlimit:10;"/></g><!--link AdminActions to CalendarUtils--><g class="link" data-entity-1="ent0008" data-entity-2="ent0021" data-link-type="dependency" data-source-line="89" id="lnk36"><path codeLine="89" d="M940,283.6469 C940,337.4769 940,432.6169 940,473.4969" fill="none" id="AdminActions-to-CalendarUtils" style="stroke:#444444;stroke-width:1.2;stroke-dasharray:7,7;"/><polygon fill="#444444" points="940,478.4969,944,469.4969,940,473.4969,936,469.4969,940,478.4969" style="stroke:#444444;stroke-width:1.2;stroke-linejoin:miter;stroke-miterlimit:10;"/></g><?plantuml-src tLR1RXCn4BtxAwnoe1Lgr2Au81GftO2eLA52u8AuJBpJP1gllOozGHHLuYFu4THFw9_m9NWtczJUB1KzXcWFqRpnsFCyRyQUl4Ov9fWn521pb9a6Xwx-DoQ7jx-i46v1feJW4AmNK6d_sXh_5WgK8oRG_VY4hb0U7qMW2f7TYUKS-SESrCAWS_9uy3no0MRxDGQVTi7CQiloqRFcrmq-yfvfMdayLTOq1pWIOauX5qMiD0hXRIczbLFhlGt79KRboHeX7ilVFt-4JvupEZGU5DtUcDQuSvyG9QW5p53k9VbyDliJv2Mop6nHMXC0Tx0dlmkv8b1ceD7am6JFWGEvi_CGP8EUWCdn4YPMao9VvUWIU9GNP1hBTKJesUtDZ1JiAfNtajlcTaVhg2cdbDFtuG9u2ItK058-aOeHFBPW3UqVl6ZN1sDGqSiM6wuNW56exrkmj9GFa_1Pa56VPx3NzP26_flpEkprtKrNeQOKRUNagcb1_WnX6HBxKg7pMy5YSBqzb2NR9Jvu7UDbqE-3bbsdrTf_APFIRaUgZUkDgpB_5xUoccfoyv4njWe45q5kM_unk3fWB9uiT586RvtyZrIpIIhevfFDvKJDiO1UqQoWk_Q4TO5sZEjYRCqnVIEbq5a9ShoR74QafQa4viPCLrTXUB-ha0dNx97no1UWK9ws5DRujnHPqTW3R3hx2ekfF3KN3454N2bVyQwryuZ8JY9nqRMKPfg26AFwylCtg4jajx6zAe1qtVD9uTRm_EX9kuIyCPO1QQhKxUwRelTn80U3OMV4YVvtGkFPcHnYysPOeL5F5g8pEAEDMgdtE2GTeZkcuWEqBjqOXuV3ZdBw7681TJTf73f24ad8vXnfhSKH--0qNez77nTnuVR0IGqdqx0XCYdcFm00?></g></svg>