<svg xmlns="http://www.w3.org/2000/svg" xmlns:xlink="http://www.w3.org/1999/xlink" contentStyleType="text/css" data-diagram-type="CLASS" height="547px" preserveAspectRatio="none" style="width:998px;height:547px;background:#FFFFFF;" version="1.1" viewBox="0 0 998 547" width="998px" zoomAndPan="magnify"><?plantuml 1.2026.4beta2?><defs/><g><g class="title" data-source-line="1"><text fill="#000000" font-family="Arial" font-size="14" font-weight="700" lengthAdjust="spacing" textLength="239.3193" x="375.8403" y="22.9951">Diagrama de Clases de Dise&#241;o</text></g><!--cluster Presentaci?n\n(Server Components)--><g class="cluster" data-qualified-name="Presentaci.n.n.Server Components." data-source-line="16" id="ent0002"><path d="M370.5,43.2969 L491.6807,43.2969 A3.75,3.75 0 0 1 494.1807,45.7969 L501.1807,72.5781 L777.5,72.5781 A2.5,2.5 0 0 1 780,75.0781 L780,136.4369 A2.5,2.5 0 0 1 777.5,138.9369 L370.5,138.9369 A2.5,2.5 0 0 1 368,136.4369 L368,45.7969 A2.5,2.5 0 0 1 370.5,43.2969" fill="none" style="stroke:#000000;stroke-width:1.5;"/><line style="stroke:#000000;stroke-width:1.5;" x1="368" x2="501.1807" y1="72.5781" y2="72.5781"/><text fill="#000000" font-family="Arial" font-size="10" font-weight="700" lengthAdjust="spacing" textLength="73.7695" x="395.2056" y="54.5791">Presentaci&#243;n</text><text fill="#000000" font-family="Arial" font-size="10" font-weight="700" lengthAdjust="spacing" textLength="120.1807" x="372" y="66.2197">(Server Components)</text></g><!--cluster L?gica\n(Server Actions)--><g class="cluster" data-qualified-name="L.gica.n.Server Actions." data-source-line="24" id="ent0006"><path d="M367.5,162.9369 L460.0869,162.9369 A3.75,3.75 0 0 1 462.5869,165.4369 L469.5869,192.2181 L840.5,192.2181 A2.5,2.5 0 0 1 843,194.7181 L843,302.6369 A2.5,2.5 0 0 1 840.5,305.1369 L367.5,305.1369 A2.5,2.5 0 0 1 365,302.6369 L365,165.4369 A2.5,2.5 0 0 1 367.5,162.9369" fill="none" style="stroke:#000000;stroke-width:1.5;"/><line style="stroke:#000000;stroke-width:1.5;" x1="365" x2="469.5869" y1="192.2181" y2="192.2181"/><text fill="#000000" font-family="Arial" font-size="10" font-weight="700" lengthAdjust="spacing" textLength="36.5039" x="396.5415" y="174.2191">L&#243;gica</text><text fill="#000000" font-family="Arial" font-size="10" font-weight="700" lengthAdjust="spacing" textLength="91.5869" x="369" y="185.8597">(Server Actions)</text></g><!--cluster Contratos\n(Zod Schemas)--><g class="cluster" data-qualified-name="Contratos.n.Zod Schemas." data-source-line="45" id="ent0010"><path d="M8.5,329.1369 L93.5527,329.1369 A3.75,3.75 0 0 1 96.0527,331.6369 L103.0527,358.4181 L363.5,358.4181 A2.5,2.5 0 0 1 366,360.9181 L366,422.2769 A2.5,2.5 0 0 1 363.5,424.7769 L8.5,424.7769 A2.5,2.5 0 0 1 6,422.2769 L6,331.6369 A2.5,2.5 0 0 1 8.5,329.1369" fill="none" style="stroke:#000000;stroke-width:1.5;"/><line style="stroke:#000000;stroke-width:1.5;" x1="6" x2="103.0527" y1="358.4181" y2="358.4181"/><text fill="#000000" font-family="Arial" font-size="10" font-weight="700" lengthAdjust="spacing" textLength="55.3906" x="24.3311" y="340.4191">Contratos</text><text fill="#000000" font-family="Arial" font-size="10" font-weight="700" lengthAdjust="spacing" textLength="84.0527" x="10" y="352.0597">(Zod Schemas)</text></g><!--cluster Acceso a Datos\n(Drizzle Queries)--><g class="cluster" data-qualified-name="Acceso a Datos.n.Drizzle Queries." data-source-line="53" id="ent0014"><path d="M392.5,329.1369 L488.1289,329.1369 A3.75,3.75 0 0 1 490.6289,331.6369 L497.6289,358.4181 L724.5,358.4181 A2.5,2.5 0 0 1 727,360.9181 L727,422.2769 A2.5,2.5 0 0 1 724.5,424.7769 L392.5,424.7769 A2.5,2.5 0 0 1 390,422.2769 L390,331.6369 A2.5,2.5 0 0 1 392.5,329.1369" fill="none" style="stroke:#000000;stroke-width:1.5;"/><line style="stroke:#000000;stroke-width:1.5;" x1="390" x2="497.6289" y1="358.4181" y2="358.4181"/><text fill="#000000" font-family="Arial" font-size="10" font-weight="700" lengthAdjust="spacing" textLength="85.5615" x="398.5337" y="340.4191">Acceso a Datos</text><text fill="#000000" font-family="Arial" font-size="10" font-weight="700" lengthAdjust="spacing" textLength="94.6289" x="394" y="352.0597">(Drizzle Queries)</text></g><!--cluster Infraestructura--><g class="cluster" data-qualified-name="Infraestructura" data-source-line="61" id="ent0018"><path d="M569.5,448.7769 L656.4424,448.7769 A3.75,3.75 0 0 1 658.9424,451.2769 L665.9424,466.4175 L980.5,466.4175 A2.5,2.5 0 0 1 983,468.9175 L983,529.9169 A2.5,2.5 0 0 1 980.5,532.4169 L569.5,532.4169 A2.5,2.5 0 0 1 567,529.9169 L567,451.2769 A2.5,2.5 0 0 1 569.5,448.7769" fill="none" style="stroke:#000000;stroke-width:1.5;"/><line style="stroke:#000000;stroke-width:1.5;" x1="567" x2="665.9424" y1="466.4175" y2="466.4175"/><text fill="#000000" font-family="Arial" font-size="10" font-weight="700" lengthAdjust="spacing" textLength="85.9424" x="571" y="460.0591">Infraestructura</text></g><!--class CalendarioParkingPage--><g class="entity" data-qualified-name="Presentaci.n.n.Server Components..CalendarioParkingPage" data-source-line="17" id="ent0003"><rect fill="#F1F1F1" height="37.6406" rx="2.5" ry="2.5" style="stroke:#181818;stroke-width:1.5;" width="122.0449" x="544.98" y="85.2969"/><text fill="#000000" font-family="Arial" font-size="10" lengthAdjust="spacing" textLength="116.0449" x="547.98" y="99.5791">CalendarioParkingPage</text><line style="stroke:#181818;stroke-width:1.5;" x1="545.98" x2="666.0249" y1="106.9375" y2="106.9375"/><line style="stroke:#181818;stroke-width:1.5;" x1="545.98" x2="666.0249" y1="114.9375" y2="114.9375"/></g><!--class BandejaSolicitudesPage--><g class="entity" data-qualified-name="Presentaci.n.n.Server Components..BandejaSolicitudesPage" data-source-line="18" id="ent0004"><rect fill="#F1F1F1" height="37.6406" rx="2.5" ry="2.5" style="stroke:#181818;stroke-width:1.5;" width="125.6582" x="384.17" y="85.2969"/><text fill="#000000" font-family="Arial" font-size="10" lengthAdjust="spacing" textLength="119.6582" x="387.17" y="99.5791">BandejaSolicitudesPage</text><line style="stroke:#181818;stroke-width:1.5;" x1="385.17" x2="508.8282" y1="106.9375" y2="106.9375"/><line style="stroke:#181818;stroke-width:1.5;" x1="385.17" x2="508.8282" y1="114.9375" y2="114.9375"/></g><!--class AdminPage--><g class="entity" data-qualified-name="Presentaci.n.n.Server Components..AdminPage" data-source-line="19" id="ent0005"><rect fill="#F1F1F1" height="37.6406" rx="2.5" ry="2.5" style="stroke:#181818;stroke-width:1.5;" width="62.7041" x="701.65" y="85.2969"/><text fill="#000000" font-family="Arial" font-size="10" lengthAdjust="spacing" textLength="56.7041" x="704.65" y="99.5791">AdminPage</text><line style="stroke:#181818;stroke-width:1.5;" x1="702.65" x2="763.3541" y1="106.9375" y2="106.9375"/><line style="stroke:#181818;stroke-width:1.5;" x1="702.65" x2="763.3541" y1="114.9375" y2="114.9375"/></g><!--class ReservaActions--><g class="entity" data-qualified-name="L.gica.n.Server Actions..ReservaActions" data-source-line="25" id="ent0007"><rect fill="#F1F1F1" height="84.2031" rx="2.5" ry="2.5" style="stroke:#181818;stroke-width:1.5;" width="111.9707" x="548.01" y="204.9369"/><text fill="#000000" font-family="Arial" font-size="10" lengthAdjust="spacing" textLength="77.3242" x="565.3332" y="219.2191">ReservaActions</text><line style="stroke:#181818;stroke-width:1.5;" x1="549.01" x2="658.9807" y1="226.5775" y2="226.5775"/><line style="stroke:#181818;stroke-width:1.5;" x1="549.01" x2="658.9807" y1="234.5775" y2="234.5775"/><text fill="#000000" font-family="Arial" font-size="10" lengthAdjust="spacing" textLength="99.541" x="554.01" y="247.8597">createReservation()</text><text fill="#000000" font-family="Arial" font-size="10" lengthAdjust="spacing" textLength="99.9707" x="554.01" y="259.5004">cancelReservation()</text><text fill="#000000" font-family="Arial" font-size="10" lengthAdjust="spacing" textLength="78.5547" x="554.01" y="271.141">createCession()</text><text fill="#000000" font-family="Arial" font-size="10" lengthAdjust="spacing" textLength="78.9844" x="554.01" y="282.7816">cancelCession()</text></g><!--class AusenciaActions--><g class="entity" data-qualified-name="L.gica.n.Server Actions..AusenciaActions" data-source-line="31" id="ent0008"><rect fill="#F1F1F1" height="72.5625" rx="2.5" ry="2.5" style="stroke:#181818;stroke-width:1.5;" width="131.917" x="381.04" y="210.7569"/><text fill="#000000" font-family="Arial" font-size="10" lengthAdjust="spacing" textLength="81.9873" x="406.0048" y="225.0391">AusenciaActions</text><line style="stroke:#181818;stroke-width:1.5;" x1="382.04" x2="511.957" y1="232.3975" y2="232.3975"/><line style="stroke:#181818;stroke-width:1.5;" x1="382.04" x2="511.957" y1="240.3975" y2="240.3975"/><text fill="#000000" font-family="Arial" font-size="10" lengthAdjust="spacing" textLength="113.1299" x="387.04" y="253.6797">submitLeaveRequest()</text><text fill="#000000" font-family="Arial" font-size="10" lengthAdjust="spacing" textLength="119.917" x="387.04" y="265.3204">approveLeaveRequest()</text><text fill="#000000" font-family="Arial" font-size="10" lengthAdjust="spacing" textLength="107.4072" x="387.04" y="276.961">rejectLeaveRequest()</text></g><!--class AdminActions--><g class="entity" data-qualified-name="L.gica.n.Server Actions..AdminActions" data-source-line="36" id="ent0009"><rect fill="#F1F1F1" height="72.5625" rx="2.5" ry="2.5" style="stroke:#181818;stroke-width:1.5;" width="132.0537" x="694.97" y="210.7569"/><text fill="#000000" font-family="Arial" font-size="10" lengthAdjust="spacing" textLength="68.75" x="726.6219" y="225.0391">AdminActions</text><line style="stroke:#181818;stroke-width:1.5;" x1="695.97" x2="826.0237" y1="232.3975" y2="232.3975"/><line style="stroke:#181818;stroke-width:1.5;" x1="695.97" x2="826.0237" y1="240.3975" y2="240.3975"/><text fill="#000000" font-family="Arial" font-size="10" lengthAdjust="spacing" textLength="62.5" x="700.97" y="253.6797">createSpot()</text><text fill="#000000" font-family="Arial" font-size="10" lengthAdjust="spacing" textLength="65.7715" x="700.97" y="265.3204">updateSpot()</text><text fill="#000000" font-family="Arial" font-size="10" lengthAdjust="spacing" textLength="120.0537" x="700.97" y="276.961">publishAnnouncement()</text></g><!--class ReservaSchema--><g class="entity" data-qualified-name="Contratos.n.Zod Schemas..ReservaSchema" data-source-line="46" id="ent0011"><rect fill="#F1F1F1" height="37.6406" rx="2.5" ry="2.5" style="stroke:#181818;stroke-width:1.5;" width="86.8252" x="263.59" y="371.1369"/><text fill="#000000" font-family="Arial" font-size="10" lengthAdjust="spacing" textLength="80.8252" x="266.59" y="385.4191">ReservaSchema</text><line style="stroke:#181818;stroke-width:1.5;" x1="264.59" x2="349.4152" y1="392.7775" y2="392.7775"/><line style="stroke:#181818;stroke-width:1.5;" x1="264.59" x2="349.4152" y1="400.7775" y2="400.7775"/></g><!--class CesionSchema--><g class="entity" data-qualified-name="Contratos.n.Zod Schemas..CesionSchema" data-source-line="47" id="ent0012"><rect fill="#F1F1F1" height="37.6406" rx="2.5" ry="2.5" style="stroke:#181818;stroke-width:1.5;" width="79.7842" x="149.11" y="371.1369"/><text fill="#000000" font-family="Arial" font-size="10" lengthAdjust="spacing" textLength="73.7842" x="152.11" y="385.4191">CesionSchema</text><line style="stroke:#181818;stroke-width:1.5;" x1="150.11" x2="227.8942" y1="392.7775" y2="392.7775"/><line style="stroke:#181818;stroke-width:1.5;" x1="150.11" x2="227.8942" y1="400.7775" y2="400.7775"/></g><!--class AusenciaSchema--><g class="entity" data-qualified-name="Contratos.n.Zod Schemas..AusenciaSchema" data-source-line="48" id="ent0013"><rect fill="#F1F1F1" height="37.6406" rx="2.5" ry="2.5" style="stroke:#181818;stroke-width:1.5;" width="91.4883" x="22.26" y="371.1369"/><text fill="#000000" font-family="Arial" font-size="10" lengthAdjust="spacing" textLength="85.4883" x="25.26" y="385.4191">AusenciaSchema</text><line style="stroke:#181818;stroke-width:1.5;" x1="23.26" x2="112.7483" y1="392.7775" y2="392.7775"/><line style="stroke:#181818;stroke-width:1.5;" x1="23.26" x2="112.7483" y1="400.7775" y2="400.7775"/></g><!--class IReservaQuery--><g class="entity" data-qualified-name="Acceso a Datos.n.Drizzle Queries..IReservaQuery" data-source-line="54" id="ent0015"><rect fill="#F1F1F1" height="37.6406" rx="2.5" ry="2.5" style="stroke:#181818;stroke-width:1.5;" width="79.96" x="631.02" y="371.1369"/><text fill="#000000" font-family="Arial" font-size="10" font-style="italic" lengthAdjust="spacing" textLength="73.96" x="634.02" y="385.4191">IReservaQuery</text><line style="stroke:#181818;stroke-width:1.5;" x1="632.02" x2="709.98" y1="392.7775" y2="392.7775"/><line style="stroke:#181818;stroke-width:1.5;" x1="632.02" x2="709.98" y1="400.7775" y2="400.7775"/></g><!--class ICesionQuery--><g class="entity" data-qualified-name="Acceso a Datos.n.Drizzle Queries..ICesionQuery" data-source-line="55" id="ent0016"><rect fill="#F1F1F1" height="37.6406" rx="2.5" ry="2.5" style="stroke:#181818;stroke-width:1.5;" width="72.9189" x="523.54" y="371.1369"/><text fill="#000000" font-family="Arial" font-size="10" font-style="italic" lengthAdjust="spacing" textLength="66.9189" x="526.54" y="385.4191">ICesionQuery</text><line style="stroke:#181818;stroke-width:1.5;" x1="524.54" x2="595.4589" y1="392.7775" y2="392.7775"/><line style="stroke:#181818;stroke-width:1.5;" x1="524.54" x2="595.4589" y1="400.7775" y2="400.7775"/></g><!--class ISolicitudQuery--><g class="entity" data-qualified-name="Acceso a Datos.n.Drizzle Queries..ISolicitudQuery" data-source-line="56" id="ent0017"><rect fill="#F1F1F1" height="37.6406" rx="2.5" ry="2.5" style="stroke:#181818;stroke-width:1.5;" width="82.2451" x="405.88" y="371.1369"/><text fill="#000000" font-family="Arial" font-size="10" font-style="italic" lengthAdjust="spacing" textLength="76.2451" x="408.88" y="385.4191">ISolicitudQuery</text><line style="stroke:#181818;stroke-width:1.5;" x1="406.88" x2="487.1251" y1="392.7775" y2="392.7775"/><line style="stroke:#181818;stroke-width:1.5;" x1="406.88" x2="487.1251" y1="400.7775" y2="400.7775"/></g><!--class DrizzleClient--><g class="entity" data-qualified-name="Infraestructura.DrizzleClient" data-source-line="62" id="ent0019"><rect fill="#F1F1F1" height="37.6406" rx="2.5" ry="2.5" style="stroke:#181818;stroke-width:1.5;" width="68.9688" x="582.52" y="478.7769"/><text fill="#000000" font-family="Arial" font-size="10" lengthAdjust="spacing" textLength="62.9688" x="585.52" y="493.0591">DrizzleClient</text><line style="stroke:#181818;stroke-width:1.5;" x1="583.52" x2="650.4888" y1="500.4175" y2="500.4175"/><line style="stroke:#181818;stroke-width:1.5;" x1="583.52" x2="650.4888" y1="508.4175" y2="508.4175"/></g><!--class AuthHelpers--><g class="entity" data-qualified-name="Infraestructura.AuthHelpers" data-source-line="63" id="ent0020"><rect fill="#F1F1F1" height="37.6406" rx="2.5" ry="2.5" style="stroke:#181818;stroke-width:1.5;" width="67.709" x="792.15" y="478.7769"/><text fill="#000000" font-family="Arial" font-size="10" lengthAdjust="spacing" textLength="61.709" x="795.15" y="493.0591">AuthHelpers</text><line style="stroke:#181818;stroke-width:1.5;" x1="793.15" x2="858.859" y1="500.4175" y2="500.4175"/><line style="stroke:#181818;stroke-width:1.5;" x1="793.15" x2="858.859" y1="508.4175" y2="508.4175"/></g><!--class EmailService--><g class="entity" data-qualified-name="Infraestructura.EmailService" data-source-line="64" id="ent0021"><rect fill="#F1F1F1" height="37.6406" rx="2.5" ry="2.5" style="stroke:#181818;stroke-width:1.5;" width="70.7021" x="686.65" y="478.7769"/><text fill="#000000" font-family="Arial" font-size="10" lengthAdjust="spacing" textLength="64.7021" x="689.65" y="493.0591">EmailService</text><line style="stroke:#181818;stroke-width:1.5;" x1="687.65" x2="756.3521" y1="500.4175" y2="500.4175"/><line style="stroke:#181818;stroke-width:1.5;" x1="687.65" x2="756.3521" y1="508.4175" y2="508.4175"/></g><!--class CalendarUtils--><g class="entity" data-qualified-name="Infraestructura.CalendarUtils" data-source-line="65" id="ent0022"><rect fill="#F1F1F1" height="37.6406" rx="2.5" ry="2.5" style="stroke:#181818;stroke-width:1.5;" width="72.9727" x="894.51" y="478.7769"/><text fill="#000000" font-family="Arial" font-size="10" lengthAdjust="spacing" textLength="66.9727" x="897.51" y="493.0591">CalendarUtils</text><line style="stroke:#181818;stroke-width:1.5;" x1="895.51" x2="966.4827" y1="500.4175" y2="500.4175"/><line style="stroke:#181818;stroke-width:1.5;" x1="895.51" x2="966.4827" y1="508.4175" y2="508.4175"/></g><!--link CalendarioParkingPage to ReservaActions--><g class="link" data-entity-1="ent0003" data-entity-2="ent0007" data-link-type="dependency" data-source-line="70" id="lnk23"><path codeLine="70" d="M605.74,123.2469 C605.45,143.6869 605.0544,171.5975 604.6744,198.6075" fill="none" id="CalendarioParkingPage-to-ReservaActions" style="stroke:#444444;stroke-width:1.2;stroke-dasharray:7,7;"/><polygon fill="#444444" points="604.59,204.6069,608.7162,195.664,604.6603,199.6074,600.717,195.5515,604.59,204.6069" style="stroke:#444444;stroke-width:1.2;"/></g><!--link BandejaSolicitudesPage to AusenciaActions--><g class="link" data-entity-1="ent0004" data-entity-2="ent0008" data-link-type="dependency" data-source-line="71" id="lnk24"><path codeLine="71" d="M447,123.2469 C447,145.1769 447,176.5969 447,204.3769" fill="none" id="BandejaSolicitudesPage-to-AusenciaActions" style="stroke:#444444;stroke-width:1.2;stroke-dasharray:7,7;"/><polygon fill="#444444" points="447,210.3769,451,201.3769,447,205.3769,443,201.3769,447,210.3769" style="stroke:#444444;stroke-width:1.2;"/></g><!--link AdminPage to AdminActions--><g class="link" data-entity-1="ent0005" data-entity-2="ent0009" data-link-type="dependency" data-source-line="72" id="lnk25"><path codeLine="72" d="M736.6,123.2469 C740.96,145.1769 747.2306,176.7119 752.7506,204.4919" fill="none" id="AdminPage-to-AdminActions" style="stroke:#444444;stroke-width:1.2;stroke-dasharray:7,7;"/><polygon fill="#444444" points="753.92,210.3769,756.0893,200.7699,752.9455,205.4728,748.2427,202.329,753.92,210.3769" style="stroke:#444444;stroke-width:1.2;"/></g><!--link ReservaActions to ReservaSchema--><g class="link" data-entity-1="ent0007" data-entity-2="ent0011" data-link-type="dependency" data-source-line="74" id="lnk26"><path codeLine="74" d="M566.68,289.3169 C555.84,298.7969 543.3,307.6769 530,313.1369 C501.17,324.9669 419.04,309.8369 390,321.1369 C362.95,331.6669 342.1532,350.1786 326.8332,366.4486" fill="none" id="ReservaActions-to-ReservaSchema" style="stroke:#444444;stroke-width:1.2;stroke-dasharray:7,7;"/><polygon fill="#444444" points="322.72,370.8169,331.802,367.0066,326.1477,367.1767,325.9776,361.5224,322.72,370.8169" style="stroke:#444444;stroke-width:1.2;"/></g><!--link ReservaActions to CesionSchema--><g class="link" data-entity-1="ent0007" data-entity-2="ent0012" data-link-type="dependency" data-source-line="75" id="lnk27"><path codeLine="75" d="M566.79,289.5769 C555.94,299.0569 543.38,307.8769 530,313.1369 C500.62,324.6969 274.43,307.4069 246,321.1369 C224.4,331.5769 210.9807,349.2986 201.4407,365.5986" fill="none" id="ReservaActions-to-CesionSchema" style="stroke:#444444;stroke-width:1.2;stroke-dasharray:7,7;"/><polygon fill="#444444" points="198.41,370.7769,206.4083,365.0299,200.9356,366.4616,199.5039,360.989,198.41,370.7769" style="stroke:#444444;stroke-width:1.2;"/></g><!--link AusenciaActions to AusenciaSchema--><g class="link" data-entity-1="ent0008" data-entity-2="ent0013" data-link-type="dependency" data-source-line="76" id="lnk28"><path codeLine="76" d="M380.82,252.2369 C314.12,258.9269 210.14,276.2669 132,321.1369 C110.52,333.4669 95.4242,350.4676 83.8842,366.0276" fill="none" id="AusenciaActions-to-AusenciaSchema" style="stroke:#444444;stroke-width:1.2;stroke-dasharray:7,7;"/><polygon fill="#444444" points="80.31,370.8469,88.8841,366.0008,83.2885,366.8308,82.4584,361.2352,80.31,370.8469" style="stroke:#444444;stroke-width:1.2;"/></g><!--link ReservaActions to IReservaQuery--><g class="link" data-entity-1="ent0007" data-entity-2="ent0015" data-link-type="dependency" data-source-line="78" id="lnk29"><path codeLine="78" d="M623.74,289.5569 C636.56,316.5069 650.0423,344.8788 659.7623,365.3088" fill="none" id="ReservaActions-to-IReservaQuery" style="stroke:#444444;stroke-width:1.2;"/><polygon fill="#444444" points="662.34,370.7269,662.0854,360.8813,660.1919,366.2118,654.8613,364.3183,662.34,370.7269" style="stroke:#444444;stroke-width:1.2;"/></g><!--link ReservaActions to ICesionQuery--><g class="link" data-entity-1="ent0007" data-entity-2="ent0016" data-link-type="dependency" data-source-line="79" id="lnk30"><path codeLine="79" d="M591.04,289.5569 C582.62,316.5069 573.8585,344.5696 567.4785,364.9996" fill="none" id="ReservaActions-to-ICesionQuery" style="stroke:#444444;stroke-width:1.2;"/><polygon fill="#444444" points="565.69,370.7269,572.191,363.3284,567.1804,365.9542,564.5546,360.9437,565.69,370.7269" style="stroke:#444444;stroke-width:1.2;"/></g><!--link AusenciaActions to ISolicitudQuery--><g class="link" data-entity-1="ent0008" data-entity-2="ent0017" data-link-type="dependency" data-source-line="80" id="lnk31"><path codeLine="80" d="M447,283.5969 C447,311.3169 447,342.6869 447,364.6569" fill="none" id="AusenciaActions-to-ISolicitudQuery" style="stroke:#444444;stroke-width:1.2;"/><polygon fill="#444444" points="447,370.6569,451,361.6569,447,365.6569,443,361.6569,447,370.6569" style="stroke:#444444;stroke-width:1.2;"/></g><!--link IReservaQuery to DrizzleClient--><g class="link" data-entity-1="ent0015" data-entity-2="ent0019" data-link-type="dependency" data-source-line="82" id="lnk32"><path codeLine="82" d="M661.84,408.8769 C651.91,428.3069 638.8793,453.7836 628.9393,473.2436" fill="none" id="IReservaQuery-to-DrizzleClient" style="stroke:#444444;stroke-width:1.2;stroke-dasharray:7,7;"/><polygon fill="#444444" points="626.21,478.5869,633.8662,472.3915,628.4844,474.1341,626.7418,468.7524,626.21,478.5869" style="stroke:#444444;stroke-width:1.2;"/></g><!--link ICesionQuery to DrizzleClient--><g class="link" data-entity-1="ent0016" data-entity-2="ent0019" data-link-type="dependency" data-source-line="83" id="lnk33"><path codeLine="83" d="M569.67,408.8769 C580.15,428.3069 593.9309,453.8465 604.4309,473.3065" fill="none" id="ICesionQuery-to-DrizzleClient" style="stroke:#444444;stroke-width:1.2;stroke-dasharray:7,7;"/><polygon fill="#444444" points="607.28,478.5869,606.5266,468.7669,604.9057,474.1866,599.4861,472.5657,607.28,478.5869" style="stroke:#444444;stroke-width:1.2;"/></g><!--link ISolicitudQuery to DrizzleClient--><g class="link" data-entity-1="ent0017" data-entity-2="ent0019" data-link-type="dependency" data-source-line="84" id="lnk34"><path codeLine="84" d="M471.62,409.1869 C482.07,416.7269 494.47,425.3969 506,432.7769 C531.46,449.0669 555.9523,463.158 578.2323,475.508" fill="none" id="ISolicitudQuery-to-DrizzleClient" style="stroke:#444444;stroke-width:1.2;stroke-dasharray:7,7;"/><polygon fill="#444444" points="583.48,478.4169,577.5477,470.5551,579.1069,475.9928,573.6692,477.5521,583.48,478.4169" style="stroke:#444444;stroke-width:1.2;"/></g><!--link ReservaActions to AuthHelpers--><g class="link" data-entity-1="ent0007" data-entity-2="ent0020" data-link-type="dependency" data-source-line="86" id="lnk35"><path codeLine="86" d="M641.25,289.3369 C651.86,298.6869 664.08,307.5069 677,313.1369 C694.6,320.7969 747.83,309.3769 763,321.1369 C813.01,359.9069 823.0341,435.7969 825.1441,472.3369" fill="none" id="ReservaActions-to-AuthHelpers" style="stroke:#444444;stroke-width:1.2;stroke-dasharray:7,7;"/><polygon fill="#444444" points="825.49,478.3269,828.9645,469.1112,825.2018,473.3352,820.9778,469.5724,825.49,478.3269" style="stroke:#444444;stroke-width:1.2;"/></g><!--link ReservaActions to EmailService--><g class="link" data-entity-1="ent0007" data-entity-2="ent0021" data-link-type="dependency" data-source-line="87" id="lnk36"><path codeLine="87" d="M642.28,289.4369 C652.71,298.5469 664.58,307.2369 677,313.1369 C697.33,322.7869 712.4,304.0069 727,321.1369 C765.26,366.0069 744.9497,437.6738 731.7097,472.7338" fill="none" id="ReservaActions-to-EmailService" style="stroke:#444444;stroke-width:1.2;stroke-dasharray:7,7;"/><polygon fill="#444444" points="729.59,478.3469,736.5116,471.3404,731.3564,473.6693,729.0275,468.5141,729.59,478.3469" style="stroke:#444444;stroke-width:1.2;"/></g><!--link AdminActions to CalendarUtils--><g class="link" data-entity-1="ent0009" data-entity-2="ent0022" data-link-type="dependency" data-source-line="88" id="lnk37"><path codeLine="88" d="M821.3,283.7369 C835.71,294.3869 850.06,307.0269 861,321.1369 C899.59,370.8969 918.3484,438.8642 925.9784,472.6542" fill="none" id="AdminActions-to-CalendarUtils" style="stroke:#444444;stroke-width:1.2;stroke-dasharray:7,7;"/><polygon fill="#444444" points="927.3,478.5069,929.2194,468.8469,926.1987,473.6297,921.4159,470.6089,927.3,478.5069" style="stroke:#444444;stroke-width:1.2;"/></g><?plantuml-src tLN1RXCn4BtxAwnoe3qqQX5SAwKR49KgL0XS49U9Tv9CwxMNiJU8eafy13-2-Wdv4xu4PxDDRTVY7bO-hEQDnfutRsOyUOroGh1WQ43MA2iD3jtcRq8Erx-j4Ew6J0l18LZdq6d_nXh_3XgKOoRGPNnAjoXFJo9GXSZkt7AD_759wiQWS_9qz2fo0MRxBGPVv61bjMNvx6N_vS77tZFDEeyNofh-0IT2B2daeeYLHY6yRQMtScQzj-6vnAWyMIF4S_ddryzmv1MZG-D1qVhU3CQzEqAqe6vWWV8WoUUBEPmYhv1bPPlMcW2uemFvGyWjWR82ZQO69di57CXTN8KWE_GSJ8tNCBMQ5FckHfV0uxeXqrlk8a8lr_SBKh2lLFwJt26tHrh7lPnIJZ-40l0A1gW70iG87WTe0nmURUrW5Eg2lVUlGbValh7jxh4MNQYweknMryqQyfS8gt3rrmwT7q91sx9TOG5Xl0uzyWIuIwjUIcxQseSWNLkdXhQRQNBBiJ6s2qaqGOX3s5WwLPWZ3Duw-HzfPfTKKCrdMykfMc83HSbieSVcn4sXC-D3eGTpJDzOANHMWfpi9uSHQMagWRa9q-rjM5tlEsJ21_R8UEGvA9GN0uKR_7kAR6ai0BkvjiLYAY_Cd25edplbEzwtOHOHcIKIYswWjD8KkZ7Ibr--HTqYkvtjTGEaDnEF53vP7PyyQPUGDy4s8BrAtVvkrE9gbAFHMJRWHNbBzfxPL1QxZRb5eqagHBOseek6LYyu91CYNm7n0mQNFCRnyLdMEIM7k87oItg7h9544h9_HwgrE689JkCLF4fSnC8jm8c6antM4ncB-Iy0?></g></svg>