<svg xmlns="http://www.w3.org/2000/svg" xmlns:xlink="http://www.w3.org/1999/xlink" contentStyleType="text/css" data-diagram-type="STATE" height="414px" preserveAspectRatio="none" style="width:444px;height:414px;background:#FFFFFF;" version="1.1" viewBox="0 0 444 414" width="444px" zoomAndPan="magnify"><?plantuml 1.2026.4?><defs/><g><g class="title" data-source-line="20"><text fill="#000000" font-family="Arial" font-size="14" font-weight="700" lengthAdjust="spacing" textLength="86.3994" x="102.9709" y="22.9951">Estados de</text><text fill="#000000" font-family="Arial" font-size="14" font-weight="700" lengthAdjust="spacing" textLength="140.2188" x="194.2443" y="22.9951">SolicitudAusencia</text></g><rect fill="#D5ECD4" height="40" rx="12.5" ry="12.5" style="stroke:#2E7D32;stroke-width:1.5;" width="63.2061" x="7" y="277.2969"/><text fill="#000000" font-family="Arial" font-size="11" lengthAdjust="spacing" textLength="53.2061" x="12" y="301.105">Aprobada</text><rect fill="#EEEEEE" height="40" rx="12.5" ry="12.5" style="stroke:#888888;stroke-width:1.5;" width="70.4087" x="143.4" y="277.2969"/><text fill="#000000" font-family="Arial" font-size="11" lengthAdjust="spacing" textLength="60.4087" x="148.4" y="301.105">Rechazada</text><rect fill="#EEEEEE" height="40" rx="12.5" ry="12.5" style="stroke:#888888;stroke-width:1.5;" width="67.7285" x="285.74" y="277.2969"/><text fill="#000000" font-family="Arial" font-size="11" lengthAdjust="spacing" textLength="57.7285" x="290.74" y="301.105">Cancelada</text><g class="start_entity" data-qualified-name=".start." data-source-line="26" id="ent0004"><ellipse cx="178.6" cy="53.2969" fill="#222222" rx="10" ry="10" style="stroke:#222222;stroke-width:1;"/></g><rect fill="#FDE8CC" height="40" rx="12.5" ry="12.5" style="stroke:#C45E0A;stroke-width:1.5;" width="65.231" x="145.99" y="150.2969"/><text fill="#000000" font-family="Arial" font-size="11" lengthAdjust="spacing" textLength="55.231" x="150.99" y="174.105">Pendiente</text><g class="end_entity" data-qualified-name=".end." data-source-line="32" id="ent0010"><ellipse cx="178.6" cy="389.2969" fill="none" rx="11" ry="11" style="stroke:#222222;stroke-width:1;"/><ellipse cx="178.6" cy="389.2969" fill="#222222" rx="6" ry="6" style="stroke:#222222;stroke-width:1;"/></g><!--link *start* to Pendiente--><g class="link" data-entity-1="ent0004" data-entity-2="ent0005" data-link-type="dependency" data-source-line="26" id="lnk6"><path d="M178.6,63.7069 C178.6,82.4869 178.6,119.9269 178.6,144.9169" fill="none" id="*start*-to-Pendiente" style="stroke:#444444;stroke-width:1.2;"/><polygon fill="#444444" points="178.6,149.9169,182.6,140.9169,178.6,144.9169,174.6,140.9169,178.6,149.9169" style="stroke:#444444;stroke-width:1.2;stroke-linejoin:miter;stroke-miterlimit:10;"/><text fill="#000000" font-family="Arial" font-size="11" lengthAdjust="spacing" textLength="95.7773" x="179.6" y="104.5073">solicitar ausencia</text><text fill="#000000" font-family="Arial" font-size="11" lengthAdjust="spacing" textLength="63.3252" x="195.8261" y="117.312">(empleado)</text></g><!--link Pendiente to Aprobada--><g class="link" data-entity-1="ent0005" data-entity-2="ent0001" data-link-type="dependency" data-source-line="28" id="lnk7"><path d="M145.49,171.6769 C110.23,174.0669 55.95,183.8969 29.6,220.2969 C17.76,236.6569 21.3632,255.717 27.7032,272.287" fill="none" id="Pendiente-to-Aprobada" style="stroke:#444444;stroke-width:1.2;"/><polygon fill="#444444" points="29.49,276.9569,30.0097,267.1217,27.7032,272.287,22.5379,269.9806,29.49,276.9569" style="stroke:#444444;stroke-width:1.2;stroke-linejoin:miter;stroke-miterlimit:10;"/><text fill="#000000" font-family="Arial" font-size="11" lengthAdjust="spacing" textLength="136.6943" x="30.6" y="231.5073">RRHH / Manager / Admin</text><text fill="#000000" font-family="Arial" font-size="11" lengthAdjust="spacing" textLength="45.708" x="76.0932" y="244.312">aprueba</text></g><!--link Pendiente to Rechazada--><g class="link" data-entity-1="ent0005" data-entity-2="ent0002" data-link-type="dependency" data-source-line="29" id="lnk8"><path d="M177.16,190.3669 C176.55,199.4269 175.91,210.4169 175.6,220.2969 C175.24,232.2869 175.24,235.3069 175.6,247.2969 C175.91,257.1769 176.2141,263.1782 176.8241,272.2382" fill="none" id="Pendiente-to-Rechazada" style="stroke:#444444;stroke-width:1.2;"/><polygon fill="#444444" points="177.16,277.2269,180.5464,267.9785,176.8241,272.2382,172.5644,268.5159,177.16,277.2269" style="stroke:#444444;stroke-width:1.2;stroke-linejoin:miter;stroke-miterlimit:10;"/><text fill="#000000" font-family="Arial" font-size="11" lengthAdjust="spacing" textLength="136.6943" x="176.6" y="231.5073">RRHH / Manager / Admin</text><text fill="#000000" font-family="Arial" font-size="11" lengthAdjust="spacing" textLength="43.5649" x="223.1647" y="244.312">rechaza</text></g><!--link Pendiente to Cancelada--><g class="link" data-entity-1="ent0005" data-entity-2="ent0003" data-link-type="dependency" data-source-line="30" id="lnk9"><path d="M211.5,172.7369 C244.33,176.1269 293.29,186.8869 317.6,220.2969 C329.41,236.5169 328.8368,255.3554 325.6668,271.9754" fill="none" id="Pendiente-to-Cancelada" style="stroke:#444444;stroke-width:1.2;"/><polygon fill="#444444" points="324.73,276.8869,330.3454,268.7957,325.6668,271.9754,322.487,267.2968,324.73,276.8869" style="stroke:#444444;stroke-width:1.2;stroke-linejoin:miter;stroke-miterlimit:10;"/><text fill="#000000" font-family="Arial" font-size="11" lengthAdjust="spacing" textLength="100.7939" x="327.64" y="238.0073">Empleado cancela</text></g><!--link Aprobada to *end*--><g class="link" data-entity-1="ent0001" data-entity-2="ent0010" data-link-type="dependency" data-source-line="32" id="lnk11"><path d="M68.64,317.6069 C100.61,338.1569 145.124,366.7733 165.224,379.6933" fill="none" id="Aprobada-to-*end*" style="stroke:#444444;stroke-width:1.2;"/><polygon fill="#444444" points="169.43,382.3969,164.022,374.1656,165.224,379.6933,159.6963,380.8953,169.43,382.3969" style="stroke:#444444;stroke-width:1.2;stroke-linejoin:miter;stroke-miterlimit:10;"/></g><!--link Rechazada to *end*--><g class="link" data-entity-1="ent0002" data-entity-2="ent0010" data-link-type="dependency" data-source-line="33" id="lnk12"><path d="M178.6,317.3869 C178.6,335.9569 178.6,358.4669 178.6,373.1669" fill="none" id="Rechazada-to-*end*" style="stroke:#444444;stroke-width:1.2;"/><polygon fill="#444444" points="178.6,378.1669,182.6,369.1669,178.6,373.1669,174.6,369.1669,178.6,378.1669" style="stroke:#444444;stroke-width:1.2;stroke-linejoin:miter;stroke-miterlimit:10;"/></g><!--link Cancelada to *end*--><g class="link" data-entity-1="ent0003" data-entity-2="ent0010" data-link-type="dependency" data-source-line="34" id="lnk13"><path d="M289.35,317.6069 C256.99,338.2669 211.8141,367.0958 191.7541,379.9058" fill="none" id="Cancelada-to-*end*" style="stroke:#444444;stroke-width:1.2;"/><polygon fill="#444444" points="187.54,382.5969,197.2781,381.1243,191.7541,379.9058,192.9725,374.3818,187.54,382.5969" style="stroke:#444444;stroke-width:1.2;stroke-linejoin:miter;stroke-miterlimit:10;"/></g><?plantuml-src TPB1Ri8m38RlUGfhNBP9ZC50GmXL0WJYicc2tSOERc8WeYGeIJMDQU--j51I2lCfjZ__-PtMRgJQeS4jnCWtAwDJ9KOwqGPgapmOMqj1GDkT-mP1bXkvSr8hnknfLD0IqyHDj7Alk2KO68d9zVvSxWcQpLBJEdGqr4QGULzBlb5aBJGVEYK4ZT5VvMQhsZnQRkTH5OSV1Z2ih5UAsb9Gb_CCocrS03d4snrwn4kbVXztHiSeT1H1JNI8Y_Qvr1cHIRNeMJorhaavCbkfCCcaA8-gL8d8fBfvi5_6d7G9mTXlBBJrJmxzE9hhH7BfKZ58BIakiT-88__bybUv6HnSuKscX1QAt6TbomK-8xx6_P7t-2dFy62hm4UeE2K1F-KLd7tSVqAz7i4RAI59-TaUs8DnD817vmjrw__1XBobEyO2cqq6upsOpQPJQC0BAboHyQU1y3SjbDydfHWhas67_oVDWQbCXdLwC3uQ0tueCXOSPQpVa8MRYafGA2f_?></g></svg>