<svg xmlns="http://www.w3.org/2000/svg" xmlns:xlink="http://www.w3.org/1999/xlink" contentStyleType="text/css" data-diagram-type="STATE" height="528px" preserveAspectRatio="none" style="width:361px;height:528px;background:#FFFFFF;" version="1.1" viewBox="0 0 361 528" width="361px" zoomAndPan="magnify"><?plantuml 1.2026.4?><defs/><g><g class="title" data-source-line="14"><text fill="#000000" font-family="Arial" font-size="14" font-weight="700" lengthAdjust="spacing" textLength="86.3994" x="105.4248" y="22.9951">Estados de</text><text fill="#000000" font-family="Arial" font-size="14" font-weight="700" lengthAdjust="spacing" textLength="52.4863" x="196.6982" y="22.9951">Cesi&#243;n</text></g><g class="start_entity" data-qualified-name=".start." data-source-line="16" id="ent0001"><ellipse cx="129.2" cy="53.2969" fill="#222222" rx="10" ry="10" style="stroke:#222222;stroke-width:1;"/></g><rect fill="#D5ECD4" height="40" rx="12.5" ry="12.5" style="stroke:#2E7D32;stroke-width:1.5;" width="67.8037" x="95.3" y="150.2969"/><text fill="#000000" font-family="Arial" font-size="11" lengthAdjust="spacing" textLength="57.8037" x="100.3" y="174.105">Disponible</text><rect fill="#D5ECD4" height="40" rx="12.5" ry="12.5" style="stroke:#2E7D32;stroke-width:1.5;" width="68.4053" x="7" y="264.2969"/><text fill="#000000" font-family="Arial" font-size="11" lengthAdjust="spacing" textLength="58.4053" x="12" y="288.105">Reservada</text><rect fill="#D5ECD4" height="40" rx="12.5" ry="12.5" style="stroke:#2E7D32;stroke-width:1.5;" width="67.7285" x="76.34" y="391.2969"/><text fill="#000000" font-family="Arial" font-size="11" lengthAdjust="spacing" textLength="57.7285" x="81.34" y="415.105">Cancelada</text><g class="end_entity" data-qualified-name=".end." data-source-line="23" id="ent0009"><ellipse cx="43.2" cy="503.2969" fill="none" rx="11" ry="11" style="stroke:#222222;stroke-width:1;"/><ellipse cx="43.2" cy="503.2969" fill="#222222" rx="6" ry="6" style="stroke:#222222;stroke-width:1;"/></g><!--link *start* to Disponible--><g class="link" data-entity-1="ent0001" data-entity-2="ent0002" data-link-type="dependency" data-source-line="16" id="lnk3"><path d="M129.2,63.7069 C129.2,82.4869 129.2,119.9269 129.2,144.9169" fill="none" id="*start*-to-Disponible" style="stroke:#444444;stroke-width:1.2;"/><polygon fill="#444444" points="129.2,149.9169,133.2,140.9169,129.2,144.9169,125.2,140.9169,129.2,149.9169" style="stroke:#444444;stroke-width:1.2;stroke-linejoin:miter;stroke-miterlimit:10;"/><text fill="#000000" font-family="Arial" font-size="11" lengthAdjust="spacing" textLength="63.8784" x="187.8453" y="104.5073">ceder plaza</text><text fill="#000000" font-family="Arial" font-size="11" lengthAdjust="spacing" textLength="179.1689" x="130.2" y="117.312">(manual o por regla autom&#225;tica)</text></g><!--link Disponible to Reservada--><g class="link" data-entity-1="ent0002" data-entity-2="ent0004" data-link-type="dependency" data-source-line="18" id="lnk5"><path d="M94.84,180.1769 C74.52,187.3869 50.44,199.8069 38.2,220.2969 C30.4,233.3669 30.826,245.9449 33.876,259.1649" fill="none" id="Disponible-to-Reservada" style="stroke:#444444;stroke-width:1.2;"/><polygon fill="#444444" points="35,264.0369,36.8744,254.368,33.876,259.1649,29.0791,256.1665,35,264.0369" style="stroke:#444444;stroke-width:1.2;stroke-linejoin:miter;stroke-miterlimit:10;"/><text fill="#000000" font-family="Arial" font-size="11" lengthAdjust="spacing" textLength="151.8945" x="39.2" y="231.5073">empleado reserva la cesi&#243;n</text></g><!--link Disponible to Cancelada--><g class="link" data-entity-1="ent0002" data-entity-2="ent0006" data-link-type="dependency" data-source-line="19" id="lnk7"><path d="M163.28,187.9069 C175.68,195.8569 188.34,206.6569 195.2,220.2969 C223.36,276.2769 226.55,307.0369 195.2,361.2969 C184.3,380.1769 167.6821,390.5445 149.1521,398.0745" fill="none" id="Disponible-to-Cancelada" style="stroke:#444444;stroke-width:1.2;"/><polygon fill="#444444" points="144.52,399.9569,154.3637,400.2744,149.1521,398.0745,151.352,392.8629,144.52,399.9569" style="stroke:#444444;stroke-width:1.2;stroke-linejoin:miter;stroke-miterlimit:10;"/><text fill="#000000" font-family="Arial" font-size="11" lengthAdjust="spacing" textLength="106.2725" x="228.9384" y="282.0073">propietario cancela</text><text fill="#000000" font-family="Arial" font-size="11" lengthAdjust="spacing" textLength="127.0693" x="218.54" y="294.812">antes de ser reservada</text></g><!--link Reservada to Cancelada--><g class="link" data-entity-1="ent0004" data-entity-2="ent0006" data-link-type="dependency" data-source-line="21" id="lnk8"><path d="M49.83,304.6969 C56.94,320.2569 67.56,342.5269 78.2,361.2969 C83.92,371.3769 88.1068,378.0331 94.0768,386.9431" fill="none" id="Reservada-to-Cancelada" style="stroke:#444444;stroke-width:1.2;"/><polygon fill="#444444" points="96.86,391.0969,95.1733,381.3935,94.0768,386.9431,88.5273,385.8466,96.86,391.0969" style="stroke:#444444;stroke-width:1.2;stroke-linejoin:miter;stroke-miterlimit:10;"/><text fill="#000000" font-family="Arial" font-size="11" lengthAdjust="spacing" textLength="91.9531" x="88.7686" y="345.5073">cancelar reserva</text><text fill="#000000" font-family="Arial" font-size="11" lengthAdjust="spacing" textLength="111.0903" x="79.2" y="358.312">asociada o la cesi&#243;n</text></g><!--link Reservada to *end*--><g class="link" data-entity-1="ent0004" data-entity-2="ent0009" data-link-type="dependency" data-source-line="23" id="lnk10"><path d="M41.38,304.5569 C41.79,349.1569 42.7542,453.3171 43.0642,487.1371" fill="none" id="Reservada-to-*end*" style="stroke:#444444;stroke-width:1.2;"/><polygon fill="#444444" points="43.11,492.1369,47.0273,483.1006,43.0642,487.1371,39.0277,483.1739,43.11,492.1369" style="stroke:#444444;stroke-width:1.2;stroke-linejoin:miter;stroke-miterlimit:10;"/></g><!--link Cancelada to *end*--><g class="link" data-entity-1="ent0006" data-entity-2="ent0009" data-link-type="dependency" data-source-line="24" id="lnk11"><path d="M95.99,431.3869 C81.55,450.7869 62.8368,475.927 52.3268,490.037" fill="none" id="Cancelada-to-*end*" style="stroke:#444444;stroke-width:1.2;"/><polygon fill="#444444" points="49.34,494.0469,57.9241,489.2186,52.3268,490.037,51.5083,484.4397,49.34,494.0469" style="stroke:#444444;stroke-width:1.2;stroke-linejoin:miter;stroke-miterlimit:10;"/></g><?plantuml-src RP1DJW9148NtVOfAtAW96X1YOWY9eYnTg3jnKTDTGeMUhavtZqPkunay0XUp6GOo6QXblVU--eahTXu3bb2WNYs2LCvCnKg0irbTIYtP453fqmyOYZgmJonEgNY86lh4ogQPkFIC9S5zOBIdzLTU4_JxBJ4cJFGWmL1uMx9UEOeH-bUZbWL3aE-sEEYApSh3kexWtSlCYBGPdjwXiGperjmCb4gSBC5JDXY9-H0O5vCfHTxykV5rCL7g_V83Uhq9F7BquhZ8xZlGb4dWBQvnxivBT1LQ4F2P76XX4R1AKcv-4skyKAgLtQ9UA5BuGeEGKVdnblBm7AoxaDDwjq0tDqMdoJOv7yGp9Gmie7V2tA5BL5-HKNkWGQLQ4uz0JVZWpvGechUgj9VfGl9ZL0kqR_q3?></g></svg>