<svg xmlns="http://www.w3.org/2000/svg" xmlns:xlink="http://www.w3.org/1999/xlink" contentStyleType="text/css" data-diagram-type="DESCRIPTION" height="658px" preserveAspectRatio="none" style="width:451px;height:658px;background:#FFFFFF;" version="1.1" viewBox="0 0 451 658" width="451px" zoomAndPan="magnify"><?plantuml 1.2026.4?><defs/><g><g class="title" data-source-line="19"><text fill="#000000" font-family="Arial" font-size="14" font-weight="700" lengthAdjust="spacing" textLength="338.3242" x="53.2029" y="22.9951">Correspondencia dise&#241;o &#8594; implementaci&#243;n</text></g><!--cluster Dise?o--><g class="cluster" data-qualified-name="Dise.o" data-source-line="23" id="ent0001"><path d="M8.5,65.2969 L47.9521,65.2969 A3.75,3.75 0 0 1 50.4521,67.7969 L57.4521,82.9375 L155.98,82.9375 A2.5,2.5 0 0 1 158.48,85.4375 L158.48,614.7969 A2.5,2.5 0 0 1 155.98,617.2969 L8.5,617.2969 A2.5,2.5 0 0 1 6,614.7969 L6,67.7969 A2.5,2.5 0 0 1 8.5,65.2969" fill="#DCE8F5" style="stroke:#2D6A9F;stroke-width:1.2;"/><line style="stroke:#2D6A9F;stroke-width:1.2;" x1="6" x2="57.4521" y1="82.9375" y2="82.9375"/><text fill="#1A3D5C" font-family="Arial" font-size="10" font-weight="700" lengthAdjust="spacing" textLength="38.4521" x="10" y="76.5791">Dise&#241;o</text><text fill="#1A3D5C" font-family="Arial" font-size="10" font-style="italic" lengthAdjust="spacing" textLength="41.9824" x="65.2488" y="94.2197">&#171;logico&#187;</text></g><!--cluster Implementaci?n--><g class="cluster" data-qualified-name="Implementaci.n" data-source-line="32" id="ent0008"><path d="M312.98,43.2969 L404.6831,43.2969 A3.75,3.75 0 0 1 407.1831,45.7969 L414.1831,60.9375 L434.23,60.9375 A2.5,2.5 0 0 1 436.73,63.4375 L436.73,640.7969 A2.5,2.5 0 0 1 434.23,643.2969 L312.98,643.2969 A2.5,2.5 0 0 1 310.48,640.7969 L310.48,45.7969 A2.5,2.5 0 0 1 312.98,43.2969" fill="#D5ECD4" style="stroke:#2E7D32;stroke-width:1.2;"/><line style="stroke:#2E7D32;stroke-width:1.2;" x1="310.48" x2="414.1831" y1="60.9375" y2="60.9375"/><text fill="#1B5E20" font-family="Arial" font-size="10" font-weight="700" lengthAdjust="spacing" textLength="90.7031" x="314.48" y="54.5791">Implementaci&#243;n</text><text fill="#1B5E20" font-family="Arial" font-size="10" font-style="italic" lengthAdjust="spacing" textLength="38.2471" x="358.4815" y="72.2197">&#171;fisico&#187;</text></g><!--entity V--><g class="entity" data-qualified-name="Dise.o.V" data-source-line="24" id="ent0002"><rect fill="#F1F1F1" height="53.2813" rx="2.5" ry="2.5" style="stroke:#181818;stroke-width:1.2;" width="77.6709" x="43.4" y="107.6569"/><rect fill="#F1F1F1" height="10" style="stroke:#181818;stroke-width:1.2;" width="15" x="101.0709" y="112.6569"/><rect fill="#F1F1F1" height="2" style="stroke:#181818;stroke-width:1.2;" width="4" x="99.0709" y="114.6569"/><rect fill="#F1F1F1" height="2" style="stroke:#181818;stroke-width:1.2;" width="4" x="99.0709" y="118.6569"/><text fill="#000000" font-family="Arial" font-size="10" lengthAdjust="spacing" textLength="30.0879" x="58.4" y="136.9391">Vistas</text><text fill="#000000" font-family="Arial" font-size="10" lengthAdjust="spacing" textLength="37.6709" x="58.4" y="148.5797">(Pages)</text></g><!--entity C--><g class="entity" data-qualified-name="Dise.o.C" data-source-line="25" id="ent0003"><rect fill="#F1F1F1" height="53.2813" rx="2.5" ry="2.5" style="stroke:#181818;stroke-width:1.2;" width="120.4785" x="22" y="195.6569"/><rect fill="#F1F1F1" height="10" style="stroke:#181818;stroke-width:1.2;" width="15" x="122.4785" y="200.6569"/><rect fill="#F1F1F1" height="2" style="stroke:#181818;stroke-width:1.2;" width="4" x="120.4785" y="202.6569"/><rect fill="#F1F1F1" height="2" style="stroke:#181818;stroke-width:1.2;" width="4" x="120.4785" y="206.6569"/><text fill="#000000" font-family="Arial" font-size="10" lengthAdjust="spacing" textLength="70.4346" x="37" y="224.9391">Controladores</text><text fill="#000000" font-family="Arial" font-size="10" lengthAdjust="spacing" textLength="80.4785" x="37" y="236.5797">(Server Actions)</text></g><!--entity R--><g class="entity" data-qualified-name="Dise.o.R" data-source-line="26" id="ent0004"><rect fill="#F1F1F1" height="53.2813" rx="2.5" ry="2.5" style="stroke:#181818;stroke-width:1.2;" width="101.8115" x="31.33" y="283.6569"/><rect fill="#F1F1F1" height="10" style="stroke:#181818;stroke-width:1.2;" width="15" x="113.1415" y="288.6569"/><rect fill="#F1F1F1" height="2" style="stroke:#181818;stroke-width:1.2;" width="4" x="111.1415" y="290.6569"/><rect fill="#F1F1F1" height="2" style="stroke:#181818;stroke-width:1.2;" width="4" x="111.1415" y="294.6569"/><text fill="#000000" font-family="Arial" font-size="10" lengthAdjust="spacing" textLength="61.8115" x="46.33" y="312.9391">Repositorios</text><text fill="#000000" font-family="Arial" font-size="10" lengthAdjust="spacing" textLength="46.416" x="46.33" y="324.5797">(Queries)</text></g><!--entity A--><g class="entity" data-qualified-name="Dise.o.A" data-source-line="27" id="ent0005"><rect fill="#F1F1F1" height="53.2813" rx="2.5" ry="2.5" style="stroke:#181818;stroke-width:1.2;" width="108.6475" x="27.92" y="371.6569"/><rect fill="#F1F1F1" height="10" style="stroke:#181818;stroke-width:1.2;" width="15" x="116.5675" y="376.6569"/><rect fill="#F1F1F1" height="2" style="stroke:#181818;stroke-width:1.2;" width="4" x="114.5675" y="378.6569"/><rect fill="#F1F1F1" height="2" style="stroke:#181818;stroke-width:1.2;" width="4" x="114.5675" y="382.6569"/><text fill="#000000" font-family="Arial" font-size="10" lengthAdjust="spacing" textLength="68.6475" x="42.92" y="400.9391">Autenticaci&#243;n</text><text fill="#000000" font-family="Arial" font-size="10" lengthAdjust="spacing" textLength="42.4072" x="42.92" y="412.5797">(Auth.js)</text></g><!--entity N--><g class="entity" data-qualified-name="Dise.o.N" data-source-line="28" id="ent0006"><rect fill="#F1F1F1" height="53.2813" rx="2.5" ry="2.5" style="stroke:#181818;stroke-width:1.2;" width="110.3174" x="27.08" y="459.6569"/><rect fill="#F1F1F1" height="10" style="stroke:#181818;stroke-width:1.2;" width="15" x="117.3974" y="464.6569"/><rect fill="#F1F1F1" height="2" style="stroke:#181818;stroke-width:1.2;" width="4" x="115.3974" y="466.6569"/><rect fill="#F1F1F1" height="2" style="stroke:#181818;stroke-width:1.2;" width="4" x="115.3974" y="470.6569"/><text fill="#000000" font-family="Arial" font-size="10" lengthAdjust="spacing" textLength="70.3174" x="42.08" y="488.9391">Notificaciones</text><text fill="#000000" font-family="Arial" font-size="10" lengthAdjust="spacing" textLength="44.9512" x="42.08" y="500.5797">(Resend)</text></g><!--entity U--><g class="entity" data-qualified-name="Dise.o.U" data-source-line="29" id="ent0007"><rect fill="#F1F1F1" height="53.2813" rx="2.5" ry="2.5" style="stroke:#181818;stroke-width:1.2;" width="92.7686" x="35.85" y="547.6569"/><rect fill="#F1F1F1" height="10" style="stroke:#181818;stroke-width:1.2;" width="15" x="108.6186" y="552.6569"/><rect fill="#F1F1F1" height="2" style="stroke:#181818;stroke-width:1.2;" width="4" x="106.6186" y="554.6569"/><rect fill="#F1F1F1" height="2" style="stroke:#181818;stroke-width:1.2;" width="4" x="106.6186" y="558.6569"/><text fill="#000000" font-family="Arial" font-size="10" lengthAdjust="spacing" textLength="49.7607" x="50.85" y="576.9391">Utilidades</text><text fill="#000000" font-family="Arial" font-size="10" lengthAdjust="spacing" textLength="52.7686" x="50.85" y="588.5797">(Calendar)</text></g><!--entity FD--><g class="entity" data-qualified-name="Implementaci.n.FD" data-source-line="33" id="ent0009"><path d="M328.98,85.6569 L369.98,85.6569 A3.75,3.75 0 0 1 372.48,88.1569 L379.48,106.6569 L418.228,106.6569 A2.5,2.5 0 0 1 420.728,109.1569 L420.728,144.4381 A2.5,2.5 0 0 1 418.228,146.9381 L328.98,146.9381 A2.5,2.5 0 0 1 326.48,144.4381 L326.48,88.1569 A2.5,2.5 0 0 1 328.98,85.6569" fill="#F1F1F1" style="stroke:#181818;stroke-width:0.5;"/><line style="stroke:#181818;stroke-width:0.5;" x1="326.48" x2="379.48" y1="106.6569" y2="106.6569"/><text fill="#000000" font-family="Arial" font-size="10" lengthAdjust="spacing" textLength="40.3809" x="336.48" y="122.9391">src/app/</text><text fill="#000000" font-family="Arial" font-size="10" lengthAdjust="spacing" textLength="64.248" x="336.48" y="134.5797">(dashboard)/</text></g><!--entity FA--><g class="entity" data-qualified-name="Implementaci.n.FA" data-source-line="34" id="ent0010"><path d="M341.1,181.6569 L382.1,181.6569 A3.75,3.75 0 0 1 384.6,184.1569 L391.6,202.6569 L406.1,202.6569 A2.5,2.5 0 0 1 408.6,205.1569 L408.6,240.4381 A2.5,2.5 0 0 1 406.1,242.9381 L341.1,242.9381 A2.5,2.5 0 0 1 338.6,240.4381 L338.6,184.1569 A2.5,2.5 0 0 1 341.1,181.6569" fill="#F1F1F1" style="stroke:#181818;stroke-width:0.5;"/><line style="stroke:#181818;stroke-width:0.5;" x1="338.6" x2="391.6" y1="202.6569" y2="202.6569"/><text fill="#000000" font-family="Arial" font-size="10" lengthAdjust="spacing" textLength="33.4619" x="348.6" y="218.9391">src/lib/</text><text fill="#000000" font-family="Arial" font-size="10" lengthAdjust="spacing" textLength="39.3604" x="348.6" y="230.5797">actions/</text></g><!--entity FQ--><g class="entity" data-qualified-name="Implementaci.n.FQ" data-source-line="35" id="ent0011"><path d="M340.87,277.6569 L381.87,277.6569 A3.75,3.75 0 0 1 384.37,280.1569 L391.37,298.6569 L406.329,298.6569 A2.5,2.5 0 0 1 408.829,301.1569 L408.829,336.4381 A2.5,2.5 0 0 1 406.329,338.9381 L340.87,338.9381 A2.5,2.5 0 0 1 338.37,336.4381 L338.37,280.1569 A2.5,2.5 0 0 1 340.87,277.6569" fill="#F1F1F1" style="stroke:#181818;stroke-width:0.5;"/><line style="stroke:#181818;stroke-width:0.5;" x1="338.37" x2="391.37" y1="298.6569" y2="298.6569"/><text fill="#000000" font-family="Arial" font-size="10" lengthAdjust="spacing" textLength="33.4619" x="348.37" y="314.9391">src/lib/</text><text fill="#000000" font-family="Arial" font-size="10" lengthAdjust="spacing" textLength="40.459" x="348.37" y="326.5797">queries/</text></g><!--entity FCH--><g class="entity" data-qualified-name="Implementaci.n.FCH" data-source-line="36" id="ent0012"><path d="M341.1,373.6569 L382.1,373.6569 A3.75,3.75 0 0 1 384.6,376.1569 L391.6,394.6569 L406.1,394.6569 A2.5,2.5 0 0 1 408.6,397.1569 L408.6,432.4381 A2.5,2.5 0 0 1 406.1,434.9381 L341.1,434.9381 A2.5,2.5 0 0 1 338.6,432.4381 L338.6,376.1569 A2.5,2.5 0 0 1 341.1,373.6569" fill="#F1F1F1" style="stroke:#181818;stroke-width:0.5;"/><line style="stroke:#181818;stroke-width:0.5;" x1="338.6" x2="391.6" y1="394.6569" y2="394.6569"/><text fill="#000000" font-family="Arial" font-size="10" lengthAdjust="spacing" textLength="33.4619" x="348.6" y="410.9391">src/lib/</text><text fill="#000000" font-family="Arial" font-size="10" lengthAdjust="spacing" textLength="26.0938" x="348.6" y="422.5797">auth/</text></g><!--entity FE--><g class="entity" data-qualified-name="Implementaci.n.FE" data-source-line="37" id="ent0013"><path d="M341.1,469.6569 L382.1,469.6569 A3.75,3.75 0 0 1 384.6,472.1569 L391.6,490.6569 L406.1,490.6569 A2.5,2.5 0 0 1 408.6,493.1569 L408.6,528.4381 A2.5,2.5 0 0 1 406.1,530.9381 L341.1,530.9381 A2.5,2.5 0 0 1 338.6,528.4381 L338.6,472.1569 A2.5,2.5 0 0 1 341.1,469.6569" fill="#F1F1F1" style="stroke:#181818;stroke-width:0.5;"/><line style="stroke:#181818;stroke-width:0.5;" x1="338.6" x2="391.6" y1="490.6569" y2="490.6569"/><text fill="#000000" font-family="Arial" font-size="10" lengthAdjust="spacing" textLength="33.4619" x="348.6" y="506.9391">src/lib/</text><text fill="#000000" font-family="Arial" font-size="10" lengthAdjust="spacing" textLength="30.9473" x="348.6" y="518.5797">email/</text></g><!--entity FC--><g class="entity" data-qualified-name="Implementaci.n.FC" data-source-line="38" id="ent0014"><path d="M337.68,565.6569 L378.68,565.6569 A3.75,3.75 0 0 1 381.18,568.1569 L388.18,586.6569 L409.5306,586.6569 A2.5,2.5 0 0 1 412.0306,589.1569 L412.0306,624.4381 A2.5,2.5 0 0 1 409.5306,626.9381 L337.68,626.9381 A2.5,2.5 0 0 1 335.18,624.4381 L335.18,568.1569 A2.5,2.5 0 0 1 337.68,565.6569" fill="#F1F1F1" style="stroke:#181818;stroke-width:0.5;"/><line style="stroke:#181818;stroke-width:0.5;" x1="335.18" x2="388.18" y1="586.6569" y2="586.6569"/><text fill="#000000" font-family="Arial" font-size="10" lengthAdjust="spacing" textLength="33.4619" x="345.18" y="602.9391">src/lib/</text><text fill="#000000" font-family="Arial" font-size="10" lengthAdjust="spacing" textLength="46.8506" x="345.18" y="614.5797">calendar/</text></g><!--link V to FD--><g class="link" data-entity-1="ent0002" data-entity-2="ent0009" data-link-type="dependency" data-source-line="41" id="lnk15"><path d="M121.37,131.9269 C174.16,128.6369 264.4297,123.0277 321.2697,119.4877" fill="none" id="V-to-FD" style="stroke:#888888;stroke-width:1.2;stroke-dasharray:7,7;"/><polygon fill="#888888" points="326.26,119.1769,317.0288,115.744,321.2697,119.4877,317.526,123.7286,326.26,119.1769" style="stroke:#888888;stroke-width:1.2;stroke-linejoin:miter;stroke-miterlimit:10;"/><text fill="#000000" font-family="Arial" font-size="10" lengthAdjust="spacing" textLength="99.2383" x="184.98" y="118.8991">Server Components</text></g><!--link C to FA--><g class="link" data-entity-1="ent0003" data-entity-2="ent0010" data-link-type="dependency" data-source-line="42" id="lnk16"><path d="M142.84,220.2369 C201.91,218.1969 285.313,215.3093 333.423,213.6493" fill="none" id="C-to-FA" style="stroke:#888888;stroke-width:1.2;stroke-dasharray:7,7;"/><polygon fill="#888888" points="338.42,213.4769,329.2874,209.7896,333.423,213.6493,329.5633,217.7848,338.42,213.4769" style="stroke:#888888;stroke-width:1.2;stroke-linejoin:miter;stroke-miterlimit:10;"/><text fill="#000000" font-family="Arial" font-size="10" lengthAdjust="spacing" textLength="91.7383" x="188.668" y="189.5291">createReservation</text><text fill="#000000" font-family="Arial" font-size="10" lengthAdjust="spacing" textLength="112.1143" x="178.48" y="201.1697">approveLeaveRequest</text><text fill="#000000" font-family="Arial" font-size="10" lengthAdjust="spacing" textLength="9.5361" x="229.7691" y="212.8104">...</text></g><!--link R to FQ--><g class="link" data-entity-1="ent0004" data-entity-2="ent0011" data-link-type="dependency" data-source-line="43" id="lnk17"><path d="M133.64,309.9469 C192.26,309.5469 282.4401,308.9214 333.1801,308.5714" fill="none" id="R-to-FQ" style="stroke:#888888;stroke-width:1.2;stroke-dasharray:7,7;"/><polygon fill="#888888" points="338.18,308.5369,329.1526,304.599,333.1801,308.5714,329.2078,312.5989,338.18,308.5369" style="stroke:#888888;stroke-width:1.2;stroke-linejoin:miter;stroke-miterlimit:10;"/><text fill="#000000" font-family="Arial" font-size="10" lengthAdjust="spacing" textLength="90.2148" x="189.4155" y="283.1691">getAvailableSpots</text><text fill="#000000" font-family="Arial" font-size="10" lengthAdjust="spacing" textLength="118.0859" x="175.48" y="294.8097">getReservationsByDate</text><text fill="#000000" font-family="Arial" font-size="10" lengthAdjust="spacing" textLength="9.5361" x="229.7549" y="306.4504">...</text></g><!--link A to FCH--><g class="link" data-entity-1="ent0005" data-entity-2="ent0012" data-link-type="dependency" data-source-line="44" id="lnk18"><path d="M136.99,399.4069 C195.83,400.6269 283.4111,402.4424 333.1911,403.4824" fill="none" id="A-to-FCH" style="stroke:#888888;stroke-width:1.2;stroke-dasharray:7,7;"/><polygon fill="#888888" points="338.19,403.5869,329.2755,399.3998,333.1911,403.4824,329.1084,407.398,338.19,403.5869" style="stroke:#888888;stroke-width:1.2;stroke-linejoin:miter;stroke-miterlimit:10;"/><text fill="#000000" font-family="Arial" font-size="10" lengthAdjust="spacing" textLength="42.9102" x="213.2246" y="385.5191">config.ts</text><text fill="#000000" font-family="Arial" font-size="10" lengthAdjust="spacing" textLength="49.3994" x="209.98" y="397.1597">helpers.ts</text></g><!--link N to FE--><g class="link" data-entity-1="ent0006" data-entity-2="ent0013" data-link-type="dependency" data-source-line="45" id="lnk19"><path d="M137.67,488.9269 C196.6,491.7769 283.8158,496.006 333.3658,498.396" fill="none" id="N-to-FE" style="stroke:#888888;stroke-width:1.2;stroke-dasharray:7,7;"/><polygon fill="#888888" points="338.36,498.6369,329.5632,494.2079,333.3658,498.396,329.1777,502.1986,338.36,498.6369" style="stroke:#888888;stroke-width:1.2;stroke-linejoin:miter;stroke-miterlimit:10;"/><text fill="#000000" font-family="Arial" font-size="10" lengthAdjust="spacing" textLength="51.792" x="208.98" y="488.1091">sendEmail</text></g><!--link U to FC--><g class="link" data-entity-1="ent0007" data-entity-2="ent0014" data-link-type="dependency" data-source-line="46" id="lnk20"><path d="M129.09,577.7869 C185.98,582.1069 276.9444,589.0278 329.8144,593.0478" fill="none" id="U-to-FC" style="stroke:#888888;stroke-width:1.2;stroke-dasharray:7,7;"/><polygon fill="#888888" points="334.8,593.4269,326.1292,588.756,329.8144,593.0478,325.5226,596.733,334.8,593.4269" style="stroke:#888888;stroke-width:1.2;stroke-linejoin:miter;stroke-miterlimit:10;"/><text fill="#000000" font-family="Arial" font-size="10" lengthAdjust="spacing" textLength="80.4248" x="194.48" y="578.6991">calendar-utils.ts</text></g><?plantuml-src VPB1RjD048RlVefHUg47t3ObK51LoNLR5Gb5DAKzzJBP7ITBDnwpkma2n9K7u4qGZz0tuKcOjPqGjnPxSRJp_V_i_1D_RyeA7Iv0Ku5B6owu36DS46JEe4ryN_tQV2KusDygAbvKN58PJjbfSX_cHjsNv3qSfCCj39tZp_yjvcpPmSvHVRQAKrJtCyVBKhV4HNssY4e8d57V0vvIy2q1EErw7XzRdXd59oS0ErhHKJ6AKEtt18XdPwXVukj2e1XABoBG0HxgaUfhLnY_QJSYfLyyRlSFQDhHAtquxBRh8h7TT4J3_UHxaWGJB47Epf6NvMWgbK7GnjF3BuO_Ftw2MLIM5h8rLERXTvaabee0WS6PsJm8waW5mr9OnpOuQ-G3s9eqPhdv0y3WrlY0_gvyzbuKVdS0wE6sY-GoW6EBckLjGbwJMv63hExMIlAkP48LUnFO6OwAgoKvitQVTD5i6UHhL3ELm78nJp-sSDQ5nnnCKRDo4PqdvAdK3JlkiZV1MADHrroELZXq3NaJ4z-azBORR4nhiwYOLi5MjWm3xzGULjMUs6dqyocZqxjxjU75sIFEcgbms4JKCbalywd9fcMk-dqaaXR8Bti9Mg2nBNBUIwWsWRLFZE0MqlH47Wzle5rglixF9tbJpAIe766WcBLROHn9dbHLZbVqZd0b1Hd2XxioJTDaqiYkH3QZaAtaNJYrT5rna4N8rPQDF_ro9iQDC6k4-MLio6LXPcbKpCbMvBpyJiODSIv0tFfvd3cvQMLHrOxuV2chhnL_0G00?></g></svg>