<svg xmlns="http://www.w3.org/2000/svg" xmlns:xlink="http://www.w3.org/1999/xlink" contentStyleType="text/css" data-diagram-type="DESCRIPTION" height="652px" preserveAspectRatio="none" style="width:968px;height:652px;;background:#FFFFFF" version="1.1" viewBox="0 0 968 652" width="968px" zoomAndPan="magnify"><?plantuml 1.2026.4beta2?><defs/><g><g class="title" data-source-line="19"><text fill="#000000" font-family="Arial" font-size="14" font-weight="700" lengthAdjust="spacing" textLength="179.0127" x="391.4137" y="22.9951">Diagrama de paquetes</text></g><!--cluster Dashboard--><g class="cluster" data-qualified-name="Dashboard" data-source-line="23" id="ent0003"><path d="M451.34,43.2969 L581.9391,43.2969 A3.75,3.75 0 0 1 584.4391,45.7969 L591.4391,62.1016 L951.34,62.1016 A2.5,2.5 0 0 1 953.84,64.6016 L953.84,191.0169 A2.5,2.5 0 0 1 951.34,193.5169 L451.34,193.5169 A2.5,2.5 0 0 1 448.84,191.0169 L448.84,45.7969 A2.5,2.5 0 0 1 451.34,43.2969" fill="#DCE8F5" style="stroke:#2D6A9F;stroke-width:1.5;"/><line style="stroke:#2D6A9F;stroke-width:1.5;" x1="448.84" x2="591.4391" y1="62.1016" y2="62.1016"/><text fill="#000000" font-family="Arial" font-size="11" font-weight="700" lengthAdjust="spacing" textLength="129.5991" x="452.84" y="55.5073">src/app/(dashboard)/</text><text fill="#000000" font-family="Arial" font-size="11" font-style="italic" lengthAdjust="spacing" textLength="37.5278" x="686.5761" y="74.312">&#171;core&#187;</text></g><!--cluster Lib--><g class="cluster" data-qualified-name="Lib" data-source-line="29" id="ent0007"><path d="M175.34,255.5169 L218.2829,255.5169 A3.75,3.75 0 0 1 220.7829,258.0169 L227.7829,274.3216 L502.34,274.3216 A2.5,2.5 0 0 1 504.84,276.8216 L504.84,635.2569 A2.5,2.5 0 0 1 502.34,637.7569 L175.34,637.7569 A2.5,2.5 0 0 1 172.84,635.2569 L172.84,258.0169 A2.5,2.5 0 0 1 175.34,255.5169" fill="#FDE8CC" style="stroke:#C45E0A;stroke-width:1.5;"/><line style="stroke:#C45E0A;stroke-width:1.5;" x1="172.84" x2="227.7829" y1="274.3216" y2="274.3216"/><text fill="#000000" font-family="Arial" font-size="11" font-weight="700" lengthAdjust="spacing" textLength="41.9429" x="176.84" y="267.7273">src/lib/</text><text fill="#000000" font-family="Arial" font-size="11" font-style="italic" lengthAdjust="spacing" textLength="26.5547" x="329.5627" y="286.532">&#171;lib&#187;</text></g><!--entity PKG_Espacios--><g class="entity" data-qualified-name="Dashboard.PKG_Espacios" data-source-line="24" id="ent0004"><path d="M494.9,95.2969 L592.7687,95.2969 A3.75,3.75 0 0 1 595.2687,97.7969 L602.2687,114.1016 L616.7687,114.1016 A2.5,2.5 0 0 1 619.2687,116.6016 L619.2687,167.0156 A2.5,2.5 0 0 1 616.7687,169.5156 L494.9,169.5156 A2.5,2.5 0 0 1 492.4,167.0156 L492.4,97.7969 A2.5,2.5 0 0 1 494.9,95.2969" fill="#D5ECD4" style="stroke:#2E7D32;stroke-width:1.5;"/><line style="stroke:#2E7D32;stroke-width:1.5;" x1="492.4" x2="602.2687" y1="114.1016" y2="114.1016"/><text fill="#000000" font-family="Arial" font-size="11" font-weight="700" lengthAdjust="spacing" textLength="84.8687" x="502.4" y="108.5073">PKG_Espacios</text><text fill="#000000" font-family="Arial" font-size="11" font-style="italic" lengthAdjust="spacing" textLength="54.6455" x="503.4" y="131.312">&#171;modulo&#187;</text><text fill="#000000" font-family="Arial" font-size="11" lengthAdjust="spacing" textLength="45.332" x="508.0567" y="144.1167">parking/</text><text fill="#000000" font-family="Arial" font-size="11" lengthAdjust="spacing" textLength="45.9121" x="507.7667" y="156.9214">oficinas/</text></g><!--entity PKG_RRHH--><g class="entity" data-qualified-name="Dashboard.PKG_RRHH" data-source-line="25" id="ent0005"><path d="M656.87,95.2969 L736.3373,95.2969 A3.75,3.75 0 0 1 738.8373,97.7969 L745.8373,114.1016 L776.8041,114.1016 A2.5,2.5 0 0 1 779.3041,116.6016 L779.3041,167.0156 A2.5,2.5 0 0 1 776.8041,169.5156 L656.87,169.5156 A2.5,2.5 0 0 1 654.37,167.0156 L654.37,97.7969 A2.5,2.5 0 0 1 656.87,95.2969" fill="#D5ECD4" style="stroke:#2E7D32;stroke-width:1.5;"/><line style="stroke:#2E7D32;stroke-width:1.5;" x1="654.37" x2="745.8373" y1="114.1016" y2="114.1016"/><text fill="#000000" font-family="Arial" font-size="11" font-weight="700" lengthAdjust="spacing" textLength="66.4673" x="664.37" y="108.5073">PKG_RRHH</text><text fill="#000000" font-family="Arial" font-size="11" font-style="italic" lengthAdjust="spacing" textLength="54.6455" x="684.5143" y="131.312">&#171;modulo&#187;</text><text fill="#000000" font-family="Arial" font-size="11" lengthAdjust="spacing" textLength="65.0493" x="679.3124" y="144.1167">vacaciones/</text><text fill="#000000" font-family="Arial" font-size="11" lengthAdjust="spacing" textLength="94.9341" x="664.37" y="156.9214">tabl&#243;n/directorio/</text></g><!--entity PKG_Admin--><g class="entity" data-qualified-name="Dashboard.PKG_Admin" data-source-line="26" id="ent0006"><path d="M816.67,95.2969 L900.2354,95.2969 A3.75,3.75 0 0 1 902.7354,97.7969 L909.7354,114.1016 L927.0113,114.1016 A2.5,2.5 0 0 1 929.5113,116.6016 L929.5113,167.0156 A2.5,2.5 0 0 1 927.0113,169.5156 L816.67,169.5156 A2.5,2.5 0 0 1 814.17,167.0156 L814.17,97.7969 A2.5,2.5 0 0 1 816.67,95.2969" fill="#D5ECD4" style="stroke:#2E7D32;stroke-width:1.5;"/><line style="stroke:#2E7D32;stroke-width:1.5;" x1="814.17" x2="909.7354" y1="114.1016" y2="114.1016"/><text fill="#000000" font-family="Arial" font-size="11" font-weight="700" lengthAdjust="spacing" textLength="70.5654" x="824.17" y="108.5073">PKG_Admin</text><text fill="#000000" font-family="Arial" font-size="11" font-style="italic" lengthAdjust="spacing" textLength="54.6455" x="839.5179" y="131.312">&#171;modulo&#187;</text><text fill="#000000" font-family="Arial" font-size="11" lengthAdjust="spacing" textLength="85.3413" x="824.17" y="144.1167">administracion/</text><text fill="#000000" font-family="Arial" font-size="11" lengthAdjust="spacing" textLength="77.2417" x="828.2198" y="156.9214">ajustes/panel/</text></g><!--entity DB--><g class="entity" data-qualified-name="Lib.DB" data-source-line="30" id="ent0008"><path d="M354.58,552.3469 L385.0951,552.3469 A3.75,3.75 0 0 1 387.5951,554.8469 L394.5951,571.1516 L409.0951,571.1516 A2.5,2.5 0 0 1 411.5951,573.6516 L411.5951,611.2609 A2.5,2.5 0 0 1 409.0951,613.7609 L354.58,613.7609 A2.5,2.5 0 0 1 352.08,611.2609 L352.08,554.8469 A2.5,2.5 0 0 1 354.58,552.3469" fill="#FDE8CC" style="stroke:#C45E0A;stroke-width:1.5;"/><line style="stroke:#C45E0A;stroke-width:1.5;" x1="352.08" x2="394.5951" y1="571.1516" y2="571.1516"/><text fill="#000000" font-family="Arial" font-size="11" font-weight="700" lengthAdjust="spacing" textLength="17.5151" x="362.08" y="565.5573">DB</text><text fill="#000000" font-family="Arial" font-size="11" font-style="italic" lengthAdjust="spacing" textLength="26.5547" x="363.08" y="588.362">&#171;lib&#187;</text><text fill="#000000" font-family="Arial" font-size="11" lengthAdjust="spacing" textLength="17.6709" x="367.5219" y="601.1667">db/</text></g><!--entity LIB_AUTH--><g class="entity" data-qualified-name="Lib.LIB_AUTH" data-source-line="31" id="ent0009"><path d="M203.77,429.9269 L275.9111,429.9269 A3.75,3.75 0 0 1 278.4111,432.4269 L285.4111,448.7316 L299.9111,448.7316 A2.5,2.5 0 0 1 302.4111,451.2316 L302.4111,488.8409 A2.5,2.5 0 0 1 299.9111,491.3409 L203.77,491.3409 A2.5,2.5 0 0 1 201.27,488.8409 L201.27,432.4269 A2.5,2.5 0 0 1 203.77,429.9269" fill="#FDE8CC" style="stroke:#C45E0A;stroke-width:1.5;"/><line style="stroke:#C45E0A;stroke-width:1.5;" x1="201.27" x2="285.4111" y1="448.7316" y2="448.7316"/><text fill="#000000" font-family="Arial" font-size="11" font-weight="700" lengthAdjust="spacing" textLength="59.1411" x="211.27" y="443.1373">LIB_AUTH</text><text fill="#000000" font-family="Arial" font-size="11" font-style="italic" lengthAdjust="spacing" textLength="26.5547" x="212.3442" y="465.942">&#171;lib&#187;</text><text fill="#000000" font-family="Arial" font-size="11" lengthAdjust="spacing" textLength="28.7031" x="211.27" y="478.7467">auth/</text></g><!--entity Queries--><g class="entity" data-qualified-name="Lib.Queries" data-source-line="32" id="ent0010"><path d="M339.41,429.9269 L400.2557,429.9269 A3.75,3.75 0 0 1 402.7557,432.4269 L409.7557,448.7316 L424.2557,448.7316 A2.5,2.5 0 0 1 426.7557,451.2316 L426.7557,488.8409 A2.5,2.5 0 0 1 424.2557,491.3409 L339.41,491.3409 A2.5,2.5 0 0 1 336.91,488.8409 L336.91,432.4269 A2.5,2.5 0 0 1 339.41,429.9269" fill="#FDE8CC" style="stroke:#C45E0A;stroke-width:1.5;"/><line style="stroke:#C45E0A;stroke-width:1.5;" x1="336.91" x2="409.7557" y1="448.7316" y2="448.7316"/><text fill="#000000" font-family="Arial" font-size="11" font-weight="700" lengthAdjust="spacing" textLength="47.8457" x="346.91" y="443.1373">Queries</text><text fill="#000000" font-family="Arial" font-size="11" font-style="italic" lengthAdjust="spacing" textLength="26.5547" x="355.8851" y="465.942">&#171;lib&#187;</text><text fill="#000000" font-family="Arial" font-size="11" lengthAdjust="spacing" textLength="44.5049" x="346.91" y="478.7467">queries/</text></g><!--entity SharedActions--><g class="entity" data-qualified-name="Lib.SharedActions" data-source-line="33" id="ent0011"><path d="M199.37,307.5169 L302.3036,307.5169 A3.75,3.75 0 0 1 304.8036,310.0169 L311.8036,326.3216 L326.3036,326.3216 A2.5,2.5 0 0 1 328.8036,328.8216 L328.8036,366.4309 A2.5,2.5 0 0 1 326.3036,368.9309 L199.37,368.9309 A2.5,2.5 0 0 1 196.87,366.4309 L196.87,310.0169 A2.5,2.5 0 0 1 199.37,307.5169" fill="#FDE8CC" style="stroke:#C45E0A;stroke-width:1.5;"/><line style="stroke:#C45E0A;stroke-width:1.5;" x1="196.87" x2="311.8036" y1="326.3216" y2="326.3216"/><text fill="#000000" font-family="Arial" font-size="11" font-weight="700" lengthAdjust="spacing" textLength="89.9336" x="206.87" y="320.7273">SharedActions</text><text fill="#000000" font-family="Arial" font-size="11" font-style="italic" lengthAdjust="spacing" textLength="26.5547" x="215.2408" y="343.532">&#171;lib&#187;</text><text fill="#000000" font-family="Arial" font-size="11" lengthAdjust="spacing" textLength="43.2964" x="206.87" y="356.3367">actions/</text></g><!--entity Calendar--><g class="entity" data-qualified-name="Lib.Calendar" data-source-line="34" id="ent0012"><path d="M366.7,307.5169 L434.9793,307.5169 A3.75,3.75 0 0 1 437.4793,310.0169 L444.4793,326.3216 L458.9793,326.3216 A2.5,2.5 0 0 1 461.4793,328.8216 L461.4793,366.4309 A2.5,2.5 0 0 1 458.9793,368.9309 L366.7,368.9309 A2.5,2.5 0 0 1 364.2,366.4309 L364.2,310.0169 A2.5,2.5 0 0 1 366.7,307.5169" fill="#FDE8CC" style="stroke:#C45E0A;stroke-width:1.5;"/><line style="stroke:#C45E0A;stroke-width:1.5;" x1="364.2" x2="444.4793" y1="326.3216" y2="326.3216"/><text fill="#000000" font-family="Arial" font-size="11" font-weight="700" lengthAdjust="spacing" textLength="55.2793" x="374.2" y="320.7273">Calendar</text><text fill="#000000" font-family="Arial" font-size="11" font-style="italic" lengthAdjust="spacing" textLength="26.5547" x="386.6905" y="343.532">&#171;lib&#187;</text><text fill="#000000" font-family="Arial" font-size="11" lengthAdjust="spacing" textLength="51.5356" x="374.2" y="356.3367">calendar/</text></g><!--entity Auth--><g class="entity" data-qualified-name="Auth" data-source-line="21" id="ent0002"><path d="M312.48,101.6969 L354.9136,101.6969 A3.75,3.75 0 0 1 357.4136,104.1969 L364.4136,120.5016 L419.1851,120.5016 A2.5,2.5 0 0 1 421.6851,123.0016 L421.6851,160.6109 A2.5,2.5 0 0 1 419.1851,163.1109 L312.48,163.1109 A2.5,2.5 0 0 1 309.98,160.6109 L309.98,104.1969 A2.5,2.5 0 0 1 312.48,101.6969" fill="#DCE8F5" style="stroke:#2D6A9F;stroke-width:1.5;"/><line style="stroke:#2D6A9F;stroke-width:1.5;" x1="309.98" x2="364.4136" y1="120.5016" y2="120.5016"/><text fill="#000000" font-family="Arial" font-size="11" font-weight="700" lengthAdjust="spacing" textLength="29.4336" x="319.98" y="114.9073">Auth</text><text fill="#000000" font-family="Arial" font-size="11" font-style="italic" lengthAdjust="spacing" textLength="37.5278" x="342.0686" y="137.712">&#171;core&#187;</text><text fill="#000000" font-family="Arial" font-size="11" lengthAdjust="spacing" textLength="81.7051" x="319.98" y="150.5167">src/app/(auth)/</text></g><!--entity Components--><g class="entity" data-qualified-name="Components" data-source-line="37" id="ent0013"><path d="M8.5,307.5169 L98.9512,307.5169 A3.75,3.75 0 0 1 101.4512,310.0169 L108.4512,326.3216 L125.1738,326.3216 A2.5,2.5 0 0 1 127.6738,328.8216 L127.6738,366.4309 A2.5,2.5 0 0 1 125.1738,368.9309 L8.5,368.9309 A2.5,2.5 0 0 1 6,366.4309 L6,310.0169 A2.5,2.5 0 0 1 8.5,307.5169" fill="#F5F0D5" style="stroke:#9C8C10;stroke-width:1.5;"/><line style="stroke:#9C8C10;stroke-width:1.5;" x1="6" x2="108.4512" y1="326.3216" y2="326.3216"/><text fill="#000000" font-family="Arial" font-size="11" font-weight="700" lengthAdjust="spacing" textLength="77.4512" x="16" y="320.7273">Components</text><text fill="#000000" font-family="Arial" font-size="11" font-style="italic" lengthAdjust="spacing" textLength="51.1758" x="36.249" y="343.532">&#171;shared&#187;</text><text fill="#000000" font-family="Arial" font-size="11" lengthAdjust="spacing" textLength="91.6738" x="16" y="356.3367">src/components/</text></g><!--entity Types--><g class="entity" data-qualified-name="Types" data-source-line="38" id="ent0014"><path d="M550.33,429.9269 L599.8857,429.9269 A3.75,3.75 0 0 1 602.3857,432.4269 L609.3857,448.7316 L629.3471,448.7316 A2.5,2.5 0 0 1 631.8471,451.2316 L631.8471,488.8409 A2.5,2.5 0 0 1 629.3471,491.3409 L550.33,491.3409 A2.5,2.5 0 0 1 547.83,488.8409 L547.83,432.4269 A2.5,2.5 0 0 1 550.33,429.9269" fill="#F5F0D5" style="stroke:#9C8C10;stroke-width:1.5;"/><line style="stroke:#9C8C10;stroke-width:1.5;" x1="547.83" x2="609.3857" y1="448.7316" y2="448.7316"/><text fill="#000000" font-family="Arial" font-size="11" font-weight="700" lengthAdjust="spacing" textLength="36.5557" x="557.83" y="443.1373">Types</text><text fill="#000000" font-family="Arial" font-size="11" font-style="italic" lengthAdjust="spacing" textLength="51.1758" x="559.2507" y="465.942">&#171;shared&#187;</text><text fill="#000000" font-family="Arial" font-size="11" lengthAdjust="spacing" textLength="54.0171" x="557.83" y="478.7467">src/types/</text></g><!--link Dashboard to Lib--><g class="link" data-entity-1="ent0003" data-entity-2="ent0007" data-link-type="dependency" data-source-line="41" id="lnk15"><path d="M454.4204,193.9014 C454.4115,194.1956 454.4026,194.4899 454.3938,194.7842 C454.3762,195.373 454.3588,195.9621 454.3416,196.5514 C454.2728,198.9087 454.2075,201.2692 454.1465,203.6204 C454.0245,208.3228 453.92,212.9881 453.84,217.5169 C453.73,223.7369 450.2,226.4669 453.84,231.5169 C460.41,240.6369 470.42,231.0669 477.84,239.5169 C481.4313,243.6069 484.4264,248.1697 486.9178,253.027 C487.2292,253.6342 487.5327,254.246 487.8286,254.862 C487.9026,255.016 485.4131,268.5499 485.4861,268.7044" fill="none" id="Dashboard-to-Lib" style="stroke:#444444;stroke-width:1.2;stroke-dasharray:7,7;"/><polygon fill="#444444" points="488.0491,274.1295,487.8213,264.2833,485.9133,269.6086,480.5879,267.7006,488.0491,274.1295" style="stroke:#444444;stroke-width:1.2;"/><text fill="#000000" font-family="Arial" font-size="11" lengthAdjust="spacing" textLength="145.4976" x="454.84" y="228.7273">importa l&#243;gica compartida</text></g><!--link Dashboard to Components--><g class="link" data-entity-1="ent0003" data-entity-2="ent0013" data-link-type="dependency" data-source-line="42" id="lnk16"><path d="M450.7663,193.8465 C450.7104,193.9644 450.6541,194.0821 450.5975,194.1995 C450.4841,194.4344 450.3691,194.6683 450.2526,194.9013 C449.3203,196.7654 448.286,198.5686 447.1398,200.2918 C444.8475,203.7381 442.1075,206.8644 438.84,209.5169 C411.05,232.0669 146.37,197.3069 116.84,217.5169 C87.37,237.6669 76.2674,272.8472 71.2874,301.2172" fill="none" id="Dashboard-to-Components" style="stroke:#444444;stroke-width:1.2;stroke-dasharray:7,7;"/><polygon fill="#444444" points="70.25,307.1269,75.7458,298.954,71.1145,302.2022,67.8663,297.5708,70.25,307.1269" style="stroke:#444444;stroke-width:1.2;"/><text fill="#000000" font-family="Arial" font-size="11" lengthAdjust="spacing" textLength="136.0767" x="117.84" y="228.7273">importa componentes UI</text></g><!--link Dashboard to Types--><g class="link" data-entity-1="ent0003" data-entity-2="ent0014" data-link-type="dependency" data-source-line="43" id="lnk17"><path d="M464.7061,193.7306 C464.7645,193.8489 464.8231,193.9669 464.8822,194.0848 C465.0003,194.3204 465.12,194.5552 465.2411,194.7891 C466.2103,196.6599 467.277,198.4717 468.4501,200.2052 C470.7964,203.6723 473.5688,206.8269 476.84,209.5169 C498.85,227.6169 585.32,196.7469 604.84,217.5169 C659.05,275.2169 627.8954,387.8379 606.2654,438.7679" fill="none" id="Dashboard-to-Types" style="stroke:#444444;stroke-width:1.2;stroke-dasharray:7,7;"/><polygon fill="#444444" points="603.92,444.2905,611.1199,437.5703,605.8745,439.6884,603.7564,434.443,603.92,444.2905" style="stroke:#444444;stroke-width:1.2;"/><text fill="#000000" font-family="Arial" font-size="11" lengthAdjust="spacing" textLength="116.2788" x="634.84" y="342.4273">tipos de la aplicaci&#243;n</text></g><!--link PKG_Espacios to SharedActions--><g class="link" data-entity-1="ent0004" data-entity-2="ent0011" data-link-type="dependency" data-source-line="45" id="lnk18"><path d="M533.6,169.7369 C522.24,184.8769 506.97,200.9169 488.84,209.5169 C467.04,219.8569 289.22,200.7869 271.84,217.5169 C248.41,240.0569 249.1207,273.6729 254.0907,301.1129" fill="none" id="PKG_Espacios-to-SharedActions" style="stroke:#444444;stroke-width:1.2;stroke-dasharray:7,7;"/><polygon fill="#444444" points="255.16,307.0169,257.492,297.4481,254.2689,302.0969,249.62,298.8739,255.16,307.0169" style="stroke:#444444;stroke-width:1.2;"/><text fill="#000000" font-family="Arial" font-size="11" lengthAdjust="spacing" textLength="170.4194" x="272.84" y="228.7273">buildCessionActions("parking")</text></g><!--link PKG_Espacios to SharedActions--><g class="link" data-entity-1="ent0004" data-entity-2="ent0011" data-link-type="dependency" data-source-line="46" id="lnk19"><path d="M595.69,169.5869 C613.04,189.5869 625.95,213.8669 608.84,231.5169 C598.7,241.9669 359.98,233.2369 346.84,239.5169 C316.96,253.7869 296.7249,279.1157 282.2949,302.2557" fill="none" id="PKG_Espacios-to-SharedActions-1" style="stroke:#444444;stroke-width:1.2;stroke-dasharray:7,7;"/><polygon fill="#444444" points="279.12,307.3469,287.2764,301.8266,281.7657,303.1042,280.4881,297.5935,279.12,307.3469" style="stroke:#444444;stroke-width:1.2;"/><text fill="#000000" font-family="Arial" font-size="11" lengthAdjust="spacing" textLength="159.1401" x="616.84" y="228.7273">buildCessionActions("office")</text></g><!--link SharedActions to Queries--><g class="link" data-entity-1="ent0011" data-entity-2="ent0010" data-link-type="dependency" data-source-line="48" id="lnk20"><path d="M292.56,369.2969 C310.73,387.6869 329.683,406.8588 347.863,425.2588" fill="none" id="SharedActions-to-Queries" style="stroke:#444444;stroke-width:1.2;stroke-dasharray:7,7;"/><polygon fill="#444444" points="352.08,429.5269,348.5998,420.3134,348.5658,425.9701,342.909,425.9361,352.08,429.5269" style="stroke:#444444;stroke-width:1.2;"/></g><!--link SharedActions to LIB_AUTH--><g class="link" data-entity-1="ent0011" data-entity-2="ent0009" data-link-type="dependency" data-source-line="49" id="lnk21"><path d="M260.09,369.2969 C258.41,387.6869 256.8156,405.1517 255.1356,423.5517" fill="none" id="SharedActions-to-LIB_AUTH" style="stroke:#444444;stroke-width:1.2;stroke-dasharray:7,7;"/><polygon fill="#444444" points="254.59,429.5269,259.3918,420.9279,255.0446,424.5476,251.4249,420.2005,254.59,429.5269" style="stroke:#444444;stroke-width:1.2;"/></g><!--link Queries to DB--><g class="link" data-entity-1="ent0010" data-entity-2="ent0008" data-link-type="dependency" data-source-line="50" id="lnk22"><path d="M381.84,491.7069 C381.84,510.0969 381.84,529.219 381.84,547.609" fill="none" id="Queries-to-DB" style="stroke:#444444;stroke-width:1.2;stroke-dasharray:7,7;"/><polygon fill="#444444" points="381.84,553.609,385.84,544.609,381.84,548.609,377.84,544.609,381.84,553.609" style="stroke:#444444;stroke-width:1.2;"/></g><!--link Lib to Types--><g class="link" data-entity-1="ent0007" data-entity-2="ent0014" data-link-type="dependency" data-source-line="51" id="lnk23"><path d="M505.0056,349.7983 C505.0769,349.8906 505.1486,349.9834 505.2207,350.0768 C505.3649,350.2634 505.5106,350.4521 505.6578,350.6427 C505.9523,351.024 506.2529,351.4131 506.5593,351.8098 C507.1722,352.6033 507.8086,353.4273 508.4669,354.2796 C509.7835,355.9841 511.1877,357.8021 512.6665,359.7168 C515.6242,363.5463 518.8806,367.7625 522.3325,372.2319 C536.14,390.1094 549.4073,407.2884 562.8623,424.7084" fill="none" id="Lib-to-Types" style="stroke:#444444;stroke-width:1.2;stroke-dasharray:7,7;"/><polygon fill="#444444" points="566.53,429.4569,564.1941,419.889,563.4736,425.4998,557.8628,424.7793,566.53,429.4569" style="stroke:#444444;stroke-width:1.2;"/></g><?plantuml-src rLJDRXCn4BxxAQpaG7jfcf10YgfAIKDf1KBGfZUaQcBF9YQRzM9xYm0XyH2y2O_0c_0aZBsRpVwTk67jQURxFe-_cLcxLKaA1dPSOWHPxAvqujx23ldCA8YPxShVgQ_8XyDACWMnXJNEjP5ebXibjWbQouSdame8ZD6VgybHCtcfOsruVnnE9RaY-RNHMI8Bn5Kuh5q1_yOudzVXv-SxBRDONrnmtfSJ57BiGQ7M5i2V_WYVowUZBgLOhGfKFv8u5QAfT004a1XFy1Iwb8Gsc2FxKk0qcZIL3e2y9laCpg8k9Ri1WpAyBff4fxAbT004fJCn5SDJzfqnfroCVA5WJHO2jPXi_9IXGylOtj2UDM80QJeuWinjZWSzNfO6biyereMLO3Sh3KOs2Ojz8dIg958JgPNhmOT4Hqge16pWbNqXvhlNhnvUMc8eRQlKHn0-HZD5R0Uh-FUlP22LGU6qKRfJv_Rs-hgg0NAd4cMT2Kga0nypIpOCKaWmxfIOUOetiVPuQdz0vsD0q3TgLN-fR00MyreXv6T3u6R-CBjVrigb7Xc5jWvydmThQiBHSngukp0DipnLHGk8CP5Wwl3B8jfwgj2xb5nFNAvV3fddbAawnNr9iOrU-YXZJ_YVdp_eumjCwKPCXA9a7lllFdQOStvoSX76e3Wlk29tZ0DEaxfM0hXt4enJ4fgqWv4LMcayMdv_qwG4D_StEPLgw_Sw1WvfhFocq7emLbscd5SR2yzTPIgMb_Idfa0HFjhlQU_udnLqH0kE9C3gUA-m7-5sfjo20b9uwLEqG1LtUSM5lm00?></g></svg>