<svg xmlns="http://www.w3.org/2000/svg" xmlns:xlink="http://www.w3.org/1999/xlink" contentStyleType="text/css" data-diagram-type="DESCRIPTION" height="730px" preserveAspectRatio="none" style="width:1406px;height:730px;background:#FFFFFF;" version="1.1" viewBox="0 0 1406 730" width="1406px" zoomAndPan="magnify"><?plantuml 1.2026.3?><defs/><g><g class="title" data-source-line="20"><text fill="#000000" font-family="Arial" font-size="14" font-weight="700" lengthAdjust="spacing" textLength="179.0127" x="610.4181" y="22.9951">Diagrama de paquetes</text></g><!--cluster Dashboard--><g class="cluster" data-qualified-name="Dashboard" data-source-line="24" id="ent0003"><path d="M8.5,43.2969 L139.0991,43.2969 A3.75,3.75 0 0 1 141.5991,45.7969 L148.5991,62.1016 L682.5,62.1016 A2.5,2.5 0 0 1 685,64.6016 L685,359.6269 A2.5,2.5 0 0 1 682.5,362.1269 L8.5,362.1269 A2.5,2.5 0 0 1 6,359.6269 L6,45.7969 A2.5,2.5 0 0 1 8.5,43.2969" fill="#DCE8F5" style="stroke:#2D6A9F;stroke-width:1.5;"/><line style="stroke:#2D6A9F;stroke-width:1.5;" x1="6" x2="148.5991" y1="62.1016" y2="62.1016"/><text fill="#000000" font-family="Arial" font-size="11" font-weight="700" lengthAdjust="spacing" textLength="129.5991" x="10" y="55.5073">src/app/(dashboard)/</text><text fill="#000000" font-family="Arial" font-size="11" font-style="italic" lengthAdjust="spacing" textLength="37.646" x="330.677" y="74.312">&#171;core&#187;</text></g><!--cluster Lib--><g class="cluster" data-qualified-name="Lib" data-source-line="34" id="ent0011"><path d="M857.5,224.7169 L900.4429,224.7169 A3.75,3.75 0 0 1 902.9429,227.2169 L909.9429,243.5216 L1184.5,243.5216 A2.5,2.5 0 0 1 1187,246.0216 L1187,622.4569 A2.5,2.5 0 0 1 1184.5,624.9569 L857.5,624.9569 A2.5,2.5 0 0 1 855,622.4569 L855,227.2169 A2.5,2.5 0 0 1 857.5,224.7169" fill="#FDE8CC" style="stroke:#C45E0A;stroke-width:1.5;"/><line style="stroke:#C45E0A;stroke-width:1.5;" x1="855" x2="909.9429" y1="243.5216" y2="243.5216"/><text fill="#000000" font-family="Arial" font-size="11" font-weight="700" lengthAdjust="spacing" textLength="41.9429" x="859" y="236.9273">src/lib/</text><text fill="#000000" font-family="Arial" font-size="11" font-style="italic" lengthAdjust="spacing" textLength="26.6729" x="1011.6636" y="255.732">&#171;lib&#187;</text></g><!--entity PKG_P--><g class="entity" data-qualified-name="Dashboard.PKG_P" data-source-line="25" id="ent0004"><path d="M435.12,95.2969 L487.2968,95.2969 A3.75,3.75 0 0 1 489.7968,97.7969 L496.7968,114.1016 L516.8837,114.1016 A2.5,2.5 0 0 1 519.3837,116.6016 L519.3837,154.2109 A2.5,2.5 0 0 1 516.8837,156.7109 L435.12,156.7109 A2.5,2.5 0 0 1 432.62,154.2109 L432.62,97.7969 A2.5,2.5 0 0 1 435.12,95.2969" fill="#D5ECD4" style="stroke:#2E7D32;stroke-width:1.5;"/><line style="stroke:#2E7D32;stroke-width:1.5;" x1="432.62" x2="496.7968" y1="114.1016" y2="114.1016"/><text fill="#000000" font-family="Arial" font-size="11" font-weight="700" lengthAdjust="spacing" textLength="39.1768" x="442.62" y="108.5073">PKG_P</text><text fill="#000000" font-family="Arial" font-size="11" font-style="italic" lengthAdjust="spacing" textLength="54.7637" x="443.62" y="131.312">&#171;modulo&#187;</text><text fill="#000000" font-family="Arial" font-size="11" lengthAdjust="spacing" textLength="45.332" x="448.3358" y="144.1167">parking/</text></g><!--entity PKG_O--><g class="entity" data-qualified-name="Dashboard.PKG_O" data-source-line="26" id="ent0005"><path d="M557.12,95.2969 L610.5858,95.2969 A3.75,3.75 0 0 1 613.0858,97.7969 L620.0858,114.1016 L638.8837,114.1016 A2.5,2.5 0 0 1 641.3837,116.6016 L641.3837,154.2109 A2.5,2.5 0 0 1 638.8837,156.7109 L557.12,156.7109 A2.5,2.5 0 0 1 554.62,154.2109 L554.62,97.7969 A2.5,2.5 0 0 1 557.12,95.2969" fill="#D5ECD4" style="stroke:#2E7D32;stroke-width:1.5;"/><line style="stroke:#2E7D32;stroke-width:1.5;" x1="554.62" x2="620.0858" y1="114.1016" y2="114.1016"/><text fill="#000000" font-family="Arial" font-size="11" font-weight="700" lengthAdjust="spacing" textLength="40.4658" x="564.62" y="108.5073">PKG_O</text><text fill="#000000" font-family="Arial" font-size="11" font-style="italic" lengthAdjust="spacing" textLength="54.7637" x="565.62" y="131.312">&#171;modulo&#187;</text><text fill="#000000" font-family="Arial" font-size="11" lengthAdjust="spacing" textLength="45.9121" x="570.0458" y="144.1167">oficinas/</text></g><!--entity PKG_V--><g class="entity" data-qualified-name="Dashboard.PKG_V" data-source-line="27" id="ent0006"><path d="M32.98,95.2969 L85.6079,95.2969 A3.75,3.75 0 0 1 88.1079,97.7969 L95.1079,114.1016 L123.0293,114.1016 A2.5,2.5 0 0 1 125.5293,116.6016 L125.5293,154.2109 A2.5,2.5 0 0 1 123.0293,156.7109 L32.98,156.7109 A2.5,2.5 0 0 1 30.48,154.2109 L30.48,97.7969 A2.5,2.5 0 0 1 32.98,95.2969" fill="#D5ECD4" style="stroke:#2E7D32;stroke-width:1.5;"/><line style="stroke:#2E7D32;stroke-width:1.5;" x1="30.48" x2="95.1079" y1="114.1016" y2="114.1016"/><text fill="#000000" font-family="Arial" font-size="11" font-weight="700" lengthAdjust="spacing" textLength="39.6279" x="40.48" y="108.5073">PKG_V</text><text fill="#000000" font-family="Arial" font-size="11" font-style="italic" lengthAdjust="spacing" textLength="54.7637" x="45.6228" y="131.312">&#171;modulo&#187;</text><text fill="#000000" font-family="Arial" font-size="11" lengthAdjust="spacing" textLength="65.0493" x="40.48" y="144.1167">vacaciones/</text></g><!--entity PKG_T--><g class="entity" data-qualified-name="Dashboard.PKG_T" data-source-line="28" id="ent0007"><path d="M163.12,95.2969 L214.7382,95.2969 A3.75,3.75 0 0 1 217.2382,97.7969 L224.2382,114.1016 L244.8837,114.1016 A2.5,2.5 0 0 1 247.3837,116.6016 L247.3837,154.2109 A2.5,2.5 0 0 1 244.8837,156.7109 L163.12,156.7109 A2.5,2.5 0 0 1 160.62,154.2109 L160.62,97.7969 A2.5,2.5 0 0 1 163.12,95.2969" fill="#D5ECD4" style="stroke:#2E7D32;stroke-width:1.5;"/><line style="stroke:#2E7D32;stroke-width:1.5;" x1="160.62" x2="224.2382" y1="114.1016" y2="114.1016"/><text fill="#000000" font-family="Arial" font-size="11" font-weight="700" lengthAdjust="spacing" textLength="38.6182" x="170.62" y="108.5073">PKG_T</text><text fill="#000000" font-family="Arial" font-size="11" font-style="italic" lengthAdjust="spacing" textLength="54.7637" x="171.62" y="131.312">&#171;modulo&#187;</text><text fill="#000000" font-family="Arial" font-size="11" lengthAdjust="spacing" textLength="38.5" x="179.7518" y="144.1167">tablon/</text></g><!--entity PKG_A--><g class="entity" data-qualified-name="Dashboard.PKG_A" data-source-line="29" id="ent0008"><path d="M284.83,95.2969 L337.4579,95.2969 A3.75,3.75 0 0 1 339.9579,97.7969 L346.9579,114.1016 L395.1713,114.1016 A2.5,2.5 0 0 1 397.6713,116.6016 L397.6713,154.2109 A2.5,2.5 0 0 1 395.1713,156.7109 L284.83,156.7109 A2.5,2.5 0 0 1 282.33,154.2109 L282.33,97.7969 A2.5,2.5 0 0 1 284.83,95.2969" fill="#D5ECD4" style="stroke:#2E7D32;stroke-width:1.5;"/><line style="stroke:#2E7D32;stroke-width:1.5;" x1="282.33" x2="346.9579" y1="114.1016" y2="114.1016"/><text fill="#000000" font-family="Arial" font-size="11" font-weight="700" lengthAdjust="spacing" textLength="39.6279" x="292.33" y="108.5073">PKG_A</text><text fill="#000000" font-family="Arial" font-size="11" font-style="italic" lengthAdjust="spacing" textLength="54.7637" x="307.6188" y="131.312">&#171;modulo&#187;</text><text fill="#000000" font-family="Arial" font-size="11" lengthAdjust="spacing" textLength="85.3413" x="292.33" y="144.1167">administracion/</text></g><!--entity PKG_AJ--><g class="entity" data-qualified-name="Dashboard.PKG_AJ" data-source-line="30" id="ent0009"><path d="M37.12,276.7169 L93.8407,276.7169 A3.75,3.75 0 0 1 96.3407,279.2169 L103.3407,295.5216 L118.8837,295.5216 A2.5,2.5 0 0 1 121.3837,298.0216 L121.3837,335.6309 A2.5,2.5 0 0 1 118.8837,338.1309 L37.12,338.1309 A2.5,2.5 0 0 1 34.62,335.6309 L34.62,279.2169 A2.5,2.5 0 0 1 37.12,276.7169" fill="#D5ECD4" style="stroke:#2E7D32;stroke-width:1.5;"/><line style="stroke:#2E7D32;stroke-width:1.5;" x1="34.62" x2="103.3407" y1="295.5216" y2="295.5216"/><text fill="#000000" font-family="Arial" font-size="11" font-weight="700" lengthAdjust="spacing" textLength="43.7207" x="44.62" y="289.9273">PKG_AJ</text><text fill="#000000" font-family="Arial" font-size="11" font-style="italic" lengthAdjust="spacing" textLength="54.7637" x="45.62" y="312.732">&#171;modulo&#187;</text><text fill="#000000" font-family="Arial" font-size="11" lengthAdjust="spacing" textLength="43.0171" x="51.4933" y="325.5367">ajustes/</text></g><!--entity PKG_PAN--><g class="entity" data-qualified-name="Dashboard.PKG_PAN" data-source-line="31" id="ent0010"><path d="M159.05,276.7169 L228.946,276.7169 A3.75,3.75 0 0 1 231.446,279.2169 L238.446,295.5216 L252.946,295.5216 A2.5,2.5 0 0 1 255.446,298.0216 L255.446,335.6309 A2.5,2.5 0 0 1 252.946,338.1309 L159.05,338.1309 A2.5,2.5 0 0 1 156.55,335.6309 L156.55,279.2169 A2.5,2.5 0 0 1 159.05,276.7169" fill="#D5ECD4" style="stroke:#2E7D32;stroke-width:1.5;"/><line style="stroke:#2E7D32;stroke-width:1.5;" x1="156.55" x2="238.446" y1="295.5216" y2="295.5216"/><text fill="#000000" font-family="Arial" font-size="11" font-weight="700" lengthAdjust="spacing" textLength="56.896" x="166.55" y="289.9273">PKG_PAN</text><text fill="#000000" font-family="Arial" font-size="11" font-style="italic" lengthAdjust="spacing" textLength="54.7637" x="167.55" y="312.732">&#171;modulo&#187;</text><text fill="#000000" font-family="Arial" font-size="11" lengthAdjust="spacing" textLength="34.2246" x="177.8195" y="325.5367">panel/</text></g><!--entity DB--><g class="entity" data-qualified-name="Lib.DB" data-source-line="35" id="ent0012"><path d="M1036.74,539.5469 L1067.2551,539.5469 A3.75,3.75 0 0 1 1069.7551,542.0469 L1076.7551,558.3516 L1091.2551,558.3516 A2.5,2.5 0 0 1 1093.7551,560.8516 L1093.7551,598.4609 A2.5,2.5 0 0 1 1091.2551,600.9609 L1036.74,600.9609 A2.5,2.5 0 0 1 1034.24,598.4609 L1034.24,542.0469 A2.5,2.5 0 0 1 1036.74,539.5469" fill="#FDE8CC" style="stroke:#C45E0A;stroke-width:1.5;"/><line style="stroke:#C45E0A;stroke-width:1.5;" x1="1034.24" x2="1076.7551" y1="558.3516" y2="558.3516"/><text fill="#000000" font-family="Arial" font-size="11" font-weight="700" lengthAdjust="spacing" textLength="17.5151" x="1044.24" y="552.7573">DB</text><text fill="#000000" font-family="Arial" font-size="11" font-style="italic" lengthAdjust="spacing" textLength="26.6729" x="1045.24" y="575.562">&#171;lib&#187;</text><text fill="#000000" font-family="Arial" font-size="11" lengthAdjust="spacing" textLength="17.6709" x="1049.741" y="588.3667">db/</text></g><!--entity LIB_AUTH--><g class="entity" data-qualified-name="Lib.LIB_AUTH" data-source-line="36" id="ent0013"><path d="M885.93,417.1269 L958.0711,417.1269 A3.75,3.75 0 0 1 960.5711,419.6269 L967.5711,435.9316 L982.0711,435.9316 A2.5,2.5 0 0 1 984.5711,438.4316 L984.5711,476.0409 A2.5,2.5 0 0 1 982.0711,478.5409 L885.93,478.5409 A2.5,2.5 0 0 1 883.43,476.0409 L883.43,419.6269 A2.5,2.5 0 0 1 885.93,417.1269" fill="#FDE8CC" style="stroke:#C45E0A;stroke-width:1.5;"/><line style="stroke:#C45E0A;stroke-width:1.5;" x1="883.43" x2="967.5711" y1="435.9316" y2="435.9316"/><text fill="#000000" font-family="Arial" font-size="11" font-weight="700" lengthAdjust="spacing" textLength="59.1411" x="893.43" y="430.3373">LIB_AUTH</text><text fill="#000000" font-family="Arial" font-size="11" font-style="italic" lengthAdjust="spacing" textLength="26.6729" x="894.4451" y="453.142">&#171;lib&#187;</text><text fill="#000000" font-family="Arial" font-size="11" lengthAdjust="spacing" textLength="28.7031" x="893.43" y="465.9467">auth/</text></g><!--entity Queries--><g class="entity" data-qualified-name="Lib.Queries" data-source-line="37" id="ent0014"><path d="M1021.58,417.1269 L1082.4257,417.1269 A3.75,3.75 0 0 1 1084.9257,419.6269 L1091.9257,435.9316 L1106.4257,435.9316 A2.5,2.5 0 0 1 1108.9257,438.4316 L1108.9257,476.0409 A2.5,2.5 0 0 1 1106.4257,478.5409 L1021.58,478.5409 A2.5,2.5 0 0 1 1019.08,476.0409 L1019.08,419.6269 A2.5,2.5 0 0 1 1021.58,417.1269" fill="#FDE8CC" style="stroke:#C45E0A;stroke-width:1.5;"/><line style="stroke:#C45E0A;stroke-width:1.5;" x1="1019.08" x2="1091.9257" y1="435.9316" y2="435.9316"/><text fill="#000000" font-family="Arial" font-size="11" font-weight="700" lengthAdjust="spacing" textLength="47.8457" x="1029.08" y="430.3373">Queries</text><text fill="#000000" font-family="Arial" font-size="11" font-style="italic" lengthAdjust="spacing" textLength="26.6729" x="1037.996" y="453.142">&#171;lib&#187;</text><text fill="#000000" font-family="Arial" font-size="11" lengthAdjust="spacing" textLength="44.5049" x="1029.08" y="465.9467">queries/</text></g><!--entity SharedActions--><g class="entity" data-qualified-name="Lib.SharedActions" data-source-line="38" id="ent0015"><path d="M881.53,276.7169 L984.4636,276.7169 A3.75,3.75 0 0 1 986.9636,279.2169 L993.9636,295.5216 L1008.4636,295.5216 A2.5,2.5 0 0 1 1010.9636,298.0216 L1010.9636,335.6309 A2.5,2.5 0 0 1 1008.4636,338.1309 L881.53,338.1309 A2.5,2.5 0 0 1 879.03,335.6309 L879.03,279.2169 A2.5,2.5 0 0 1 881.53,276.7169" fill="#FDE8CC" style="stroke:#C45E0A;stroke-width:1.5;"/><line style="stroke:#C45E0A;stroke-width:1.5;" x1="879.03" x2="993.9636" y1="295.5216" y2="295.5216"/><text fill="#000000" font-family="Arial" font-size="11" font-weight="700" lengthAdjust="spacing" textLength="89.9336" x="889.03" y="289.9273">SharedActions</text><text fill="#000000" font-family="Arial" font-size="11" font-style="italic" lengthAdjust="spacing" textLength="26.6729" x="897.3418" y="312.732">&#171;lib&#187;</text><text fill="#000000" font-family="Arial" font-size="11" lengthAdjust="spacing" textLength="43.2964" x="889.03" y="325.5367">actions/</text></g><!--entity Calendar--><g class="entity" data-qualified-name="Lib.Calendar" data-source-line="39" id="ent0016"><path d="M1048.86,276.7169 L1117.1393,276.7169 A3.75,3.75 0 0 1 1119.6393,279.2169 L1126.6393,295.5216 L1141.1393,295.5216 A2.5,2.5 0 0 1 1143.6393,298.0216 L1143.6393,335.6309 A2.5,2.5 0 0 1 1141.1393,338.1309 L1048.86,338.1309 A2.5,2.5 0 0 1 1046.36,335.6309 L1046.36,279.2169 A2.5,2.5 0 0 1 1048.86,276.7169" fill="#FDE8CC" style="stroke:#C45E0A;stroke-width:1.5;"/><line style="stroke:#C45E0A;stroke-width:1.5;" x1="1046.36" x2="1126.6393" y1="295.5216" y2="295.5216"/><text fill="#000000" font-family="Arial" font-size="11" font-weight="700" lengthAdjust="spacing" textLength="55.2793" x="1056.36" y="289.9273">Calendar</text><text fill="#000000" font-family="Arial" font-size="11" font-style="italic" lengthAdjust="spacing" textLength="26.6729" x="1068.7914" y="312.732">&#171;lib&#187;</text><text fill="#000000" font-family="Arial" font-size="11" lengthAdjust="spacing" textLength="51.5356" x="1056.36" y="325.5367">calendar/</text></g><!--entity Auth--><g class="entity" data-qualified-name="Auth" data-source-line="22" id="ent0002"><path d="M714.65,95.2969 L757.0836,95.2969 A3.75,3.75 0 0 1 759.5836,97.7969 L766.5836,114.1016 L821.3551,114.1016 A2.5,2.5 0 0 1 823.8551,116.6016 L823.8551,154.2109 A2.5,2.5 0 0 1 821.3551,156.7109 L714.65,156.7109 A2.5,2.5 0 0 1 712.15,154.2109 L712.15,97.7969 A2.5,2.5 0 0 1 714.65,95.2969" fill="#DCE8F5" style="stroke:#2D6A9F;stroke-width:1.5;"/><line style="stroke:#2D6A9F;stroke-width:1.5;" x1="712.15" x2="766.5836" y1="114.1016" y2="114.1016"/><text fill="#000000" font-family="Arial" font-size="11" font-weight="700" lengthAdjust="spacing" textLength="29.4336" x="722.15" y="108.5073">Auth</text><text fill="#000000" font-family="Arial" font-size="11" font-style="italic" lengthAdjust="spacing" textLength="37.646" x="744.1795" y="131.312">&#171;core&#187;</text><text fill="#000000" font-family="Arial" font-size="11" lengthAdjust="spacing" textLength="81.7051" x="722.15" y="144.1167">src/app/(auth)/</text></g><!--entity Components--><g class="entity" data-qualified-name="Components" data-source-line="42" id="ent0017"><path d="M711.66,276.7169 L802.1112,276.7169 A3.75,3.75 0 0 1 804.6112,279.2169 L811.6112,295.5216 L828.3338,295.5216 A2.5,2.5 0 0 1 830.8338,298.0216 L830.8338,335.6309 A2.5,2.5 0 0 1 828.3338,338.1309 L711.66,338.1309 A2.5,2.5 0 0 1 709.16,335.6309 L709.16,279.2169 A2.5,2.5 0 0 1 711.66,276.7169" fill="#F5F0D5" style="stroke:#9C8C10;stroke-width:1.5;"/><line style="stroke:#9C8C10;stroke-width:1.5;" x1="709.16" x2="811.6112" y1="295.5216" y2="295.5216"/><text fill="#000000" font-family="Arial" font-size="11" font-weight="700" lengthAdjust="spacing" textLength="77.4512" x="719.16" y="289.9273">Components</text><text fill="#000000" font-family="Arial" font-size="11" font-style="italic" lengthAdjust="spacing" textLength="51.2939" x="739.3499" y="312.732">&#171;shared&#187;</text><text fill="#000000" font-family="Arial" font-size="11" lengthAdjust="spacing" textLength="91.6738" x="719.16" y="325.5367">src/components/</text></g><!--entity Types--><g class="entity" data-qualified-name="Types" data-source-line="43" id="ent0018"><path d="M1213.49,417.1269 L1263.0457,417.1269 A3.75,3.75 0 0 1 1265.5457,419.6269 L1272.5457,435.9316 L1292.5071,435.9316 A2.5,2.5 0 0 1 1295.0071,438.4316 L1295.0071,476.0409 A2.5,2.5 0 0 1 1292.5071,478.5409 L1213.49,478.5409 A2.5,2.5 0 0 1 1210.99,476.0409 L1210.99,419.6269 A2.5,2.5 0 0 1 1213.49,417.1269" fill="#F5F0D5" style="stroke:#9C8C10;stroke-width:1.5;"/><line style="stroke:#9C8C10;stroke-width:1.5;" x1="1210.99" x2="1272.5457" y1="435.9316" y2="435.9316"/><text fill="#000000" font-family="Arial" font-size="11" font-weight="700" lengthAdjust="spacing" textLength="36.5557" x="1220.99" y="430.3373">Types</text><text fill="#000000" font-family="Arial" font-size="11" font-style="italic" lengthAdjust="spacing" textLength="51.2939" x="1222.3516" y="453.142">&#171;shared&#187;</text><text fill="#000000" font-family="Arial" font-size="11" lengthAdjust="spacing" textLength="54.0171" x="1220.99" y="465.9467">src/types/</text></g><g class="entity" data-qualified-name="GMN28" data-source-line="59" id="ent0029"><path d="M943,679.9569 L943,715.5663 A0,0 0 0 0 943,715.5663 L1184.9937,715.5663 A0,0 0 0 0 1184.9937,715.5663 L1184.9937,689.9569 L1174.9937,679.9569 L1068,679.9569 L1064,601.3169 L1060,679.9569 L943,679.9569 A0,0 0 0 0 943,679.9569" fill="#FEFFDD" style="stroke:#181818;stroke-width:0.5;"/><path d="M1174.9937,679.9569 L1174.9937,689.9569 L1184.9937,689.9569 L1174.9937,679.9569" fill="#FEFFDD" style="stroke:#181818;stroke-width:0.5;"/><text fill="#000000" font-family="Arial" font-size="11" lengthAdjust="spacing" textLength="220.9937" x="949" y="695.1673">schema.ts es la fuente &#250;nica de verdad.</text><text fill="#000000" font-family="Arial" font-size="11" lengthAdjust="spacing" textLength="199.1816" x="949" y="707.972">Los tipos de la app se infieren de &#233;l.</text></g><!--link Dashboard to Lib--><g class="link" data-entity-1="ent0003" data-entity-2="ent0011" data-link-type="dependency" data-source-line="46" id="lnk19"><path d="M685.0267,146.0715 C685.058,146.1212 685.0894,146.1709 685.1209,146.2205 C685.1839,146.3198 685.2473,146.4189 685.3111,146.5179 C685.8216,147.3097 686.3581,148.0918 686.9212,148.8567 C689.1737,151.9163 691.8525,154.6994 695,156.7169 C731.06,179.8369 1035.4,196.1869 1078,200.7169 C1096.21,202.6469 1146.45,196.3969 1160,208.7169 C1164.0275,212.3794 1167.3516,216.6198 1170.0843,221.2406 C1170.4259,221.8182 1170.7583,222.4017 1171.0816,222.9908 C1171.2433,223.2854 1171.4027,223.5813 1171.5599,223.8786 C1171.6385,224.0272 1168.9527,237.6553 1169.0302,237.8046" fill="none" id="Dashboard-to-Lib" style="stroke:#444444;stroke-width:1.2;stroke-dasharray:7,7;"/><polygon fill="#444444" points="1171.794,243.1302,1171.1987,233.2993,1169.4908,238.6922,1164.098,236.9843,1171.794,243.1302" style="stroke:#444444;stroke-width:1.2;"/><text fill="#000000" font-family="Arial" font-size="11" lengthAdjust="spacing" textLength="145.4976" x="1079" y="197.9273">importa l&#243;gica compartida</text></g><!--link Dashboard to Components--><g class="link" data-entity-1="ent0003" data-entity-2="ent0017" data-link-type="dependency" data-source-line="47" id="lnk20"><path d="M685.1775,142.7812 C685.2562,142.9329 685.3353,143.0855 685.4148,143.239 C685.7331,143.8531 686.0589,144.4816 686.3919,145.1241 C691.72,155.4038 698.9,169.2556 706.825,184.5444 C722.675,215.1219 738.7436,246.1201 751.6986,271.1101" fill="none" id="Dashboard-to-Components" style="stroke:#444444;stroke-width:1.2;stroke-dasharray:7,7;"/><polygon fill="#444444" points="754.46,276.4369,753.869,266.6058,752.1588,271.9979,746.7667,270.2877,754.46,276.4369" style="stroke:#444444;stroke-width:1.2;"/><text fill="#000000" font-family="Arial" font-size="11" lengthAdjust="spacing" textLength="136.0767" x="716.17" y="197.9273">importa componentes UI</text></g><!--link Dashboard to Types--><g class="link" data-entity-1="ent0003" data-entity-2="ent0018" data-link-type="dependency" data-source-line="48" id="lnk21"><path d="M685.0167,146.3911 C685.0798,146.4902 685.1433,146.5891 685.2072,146.6879 C685.7185,147.4781 686.2568,148.2571 686.8228,149.017 C689.0869,152.0569 691.795,154.7919 695,156.7169 C745.94,187.3269 1186.23,145.4569 1229,186.7169 C1291.34,246.8569 1275.391,361.6224 1262.571,416.2424" fill="none" id="Dashboard-to-Types" style="stroke:#444444;stroke-width:1.2;stroke-dasharray:7,7;"/><polygon fill="#444444" points="1261.2,422.0837,1267.1507,414.2358,1262.3425,417.216,1259.3624,412.4078,1261.2,422.0837" style="stroke:#444444;stroke-width:1.2;"/><text fill="#000000" font-family="Arial" font-size="11" lengthAdjust="spacing" textLength="116.2788" x="1274.57" y="311.6373">tipos de la aplicaci&#243;n</text></g><!--link PKG_P to SharedActions--><g class="link" data-entity-1="ent0004" data-entity-2="ent0015" data-link-type="dependency" data-source-line="50" id="lnk22"><path d="M432.4,151.4169 C411.62,166.0269 394.36,184.7869 410,200.7169 C427.05,218.0769 825.62,199.1569 848,208.7169 C880.53,222.6069 904.2909,248.2813 921.5709,271.5313" fill="none" id="PKG_P-to-SharedActions" style="stroke:#444444;stroke-width:1.2;stroke-dasharray:7,7;"/><polygon fill="#444444" points="925.15,276.3469,922.9918,266.7374,922.1674,272.3339,916.571,271.5095,925.15,276.3469" style="stroke:#444444;stroke-width:1.2;"/><text fill="#000000" font-family="Arial" font-size="11" lengthAdjust="spacing" textLength="170.4194" x="411" y="197.9273">buildCessionActions("parking")</text></g><!--link PKG_O to SharedActions--><g class="link" data-entity-1="ent0005" data-entity-2="ent0015" data-link-type="dependency" data-source-line="51" id="lnk23"><path d="M589.13,156.8669 C586.62,171.9569 587.05,189.4069 598,200.7169 C607.67,210.6969 835.26,203.1669 848,208.7169 C880.44,222.8369 904.2013,248.4784 921.5013,271.6584" fill="none" id="PKG_O-to-SharedActions" style="stroke:#444444;stroke-width:1.2;stroke-dasharray:7,7;"/><polygon fill="#444444" points="925.09,276.4669,922.9126,266.8617,922.0994,272.4598,916.5013,271.6467,925.09,276.4669" style="stroke:#444444;stroke-width:1.2;"/><text fill="#000000" font-family="Arial" font-size="11" lengthAdjust="spacing" textLength="159.1401" x="599" y="197.9273">buildCessionActions("office")</text></g><!--link SharedActions to Queries--><g class="link" data-entity-1="ent0015" data-entity-2="ent0014" data-link-type="dependency" data-source-line="53" id="lnk24"><path d="M970.82,338.4569 C990.78,361.6769 1014.368,389.1076 1034.318,412.3076" fill="none" id="SharedActions-to-Queries" style="stroke:#444444;stroke-width:1.2;stroke-dasharray:7,7;"/><polygon fill="#444444" points="1038.23,416.8569,1035.3949,407.4249,1034.97,413.0658,1029.3291,412.6409,1038.23,416.8569" style="stroke:#444444;stroke-width:1.2;"/></g><!--link SharedActions to LIB_AUTH--><g class="link" data-entity-1="ent0015" data-entity-2="ent0013" data-link-type="dependency" data-source-line="54" id="lnk25"><path d="M942.61,338.4569 C940.77,361.6769 938.7069,387.6759 936.8569,410.8759" fill="none" id="SharedActions-to-LIB_AUTH" style="stroke:#444444;stroke-width:1.2;stroke-dasharray:7,7;"/><polygon fill="#444444" points="936.38,416.8569,941.0827,408.2033,936.7774,411.8727,933.1081,407.5674,936.38,416.8569" style="stroke:#444444;stroke-width:1.2;"/></g><!--link Queries to DB--><g class="link" data-entity-1="ent0014" data-entity-2="ent0012" data-link-type="dependency" data-source-line="55" id="lnk26"><path d="M1064,478.9069 C1064,497.2969 1064,516.419 1064,534.809" fill="none" id="Queries-to-DB" style="stroke:#444444;stroke-width:1.2;stroke-dasharray:7,7;"/><polygon fill="#444444" points="1064,540.809,1068,531.809,1064,535.809,1060,531.809,1064,540.809" style="stroke:#444444;stroke-width:1.2;"/></g><!--link Lib to Types--><g class="link" data-entity-1="ent0011" data-entity-2="ent0018" data-link-type="dependency" data-source-line="56" id="lnk27"><path d="M1187.0344,330.6554 C1187.0733,330.7571 1187.1123,330.8591 1187.1514,330.9612 C1187.4645,331.7785 1187.785,332.61 1188.1125,333.4544 C1193.3525,346.9644 1200.395,363.7669 1208,378.1269 C1214.94,391.2369 1220.3204,400.0489 1228.2404,411.8189" fill="none" id="Lib-to-Types" style="stroke:#444444;stroke-width:1.2;stroke-dasharray:7,7;"/><polygon fill="#444444" points="1231.59,416.7969,1229.8842,407.0969,1228.7986,412.6486,1223.2469,411.5631,1231.59,416.7969" style="stroke:#444444;stroke-width:1.2;"/></g><?plantuml-src nPJ1RXCn48RlVWghEL0kQLCQQ55LAMbLA5HjKLEkrSIUJKmtzc9xYm0XyH2y1EVUkEPDU1B6tircTxCSE67jQUQRt_O_utNtIcTWOS4b9f2d_ineVmaBv2Eh86MkAt-ZlY0V36h93CGzp71ih4GxcIjnhz4vFkWFQn1OQpxLatljv8b9ZUMz_RXgoId9pwp9jIo9ixZOvWduLyRvk8aV7IsCp5DpVCnvJmvHoFq0nRDk067rzl25VBRNfPIgQKdr4ea7GhILra24nFuGTw5BIHYB1TcJ0W-IOLjf3HHdai_XCEbISdEmAEFjac6oApUKra1KEXG7Oh3BlZ7cbK-HdogOaOL0BIORF-ReqJ6sCdJBMR43MRQp3RcVFztPujNHmF4HnRfO2Mu-DM1bk-1qbOYTgWgfYTJAMOIhPX1-_VRLtNKTD8aIIeFh9A_gv0C84ChGh7Mox-kiXsbgT2StgNCW5qehvsrKxkH73Vv3xlnV3Z1wqpH0Ozfz_T5bw5N3Ovgoo1RJHk25cZODbItWTDmu5xMj9N0-lXlTJbxNAHe5gyhJL-2x8jXG4vxSQ74tSUX6HQfE2qXHIx1D_AICRbnLc4L6JTI-qAzcETHKgMQ9_vpX9Zq9KSQUyDy_ljF7Jp6Z7L4BHSaYzjy_jduUlDy_ZcqjrqkkwBRM0q-NZpCbW0Tdm7ebeLssDgPMLXc9Zj-UjqkYEwkTlCgC2x-353XagGeFQVce6OlpM1Gq-XkAfhbAvGdzsIbGXhTNxthhQIoz-fTIaz1JHwfaJJueh8PmCrFDSOcKxeKKFO6QdxnsRyQqySYdndkpu2OfNeiJSrn0dqma6N8YoODvVFbB1_V9dGUq4cIVq0kogsbQnXrofHE55dM8Bd-cVKO3nyDMx0y0?></g></svg>