<svg xmlns="http://www.w3.org/2000/svg" xmlns:xlink="http://www.w3.org/1999/xlink" contentStyleType="text/css" data-diagram-type="DESCRIPTION" height="652px" preserveAspectRatio="none" style="width:968px;height:652px;background:#FFFFFF;" version="1.1" viewBox="0 0 968 652" width="968px" zoomAndPan="magnify"><?plantuml 1.2026.4?><defs/><g><g class="title" data-source-line="20"><text fill="#000000" font-family="Arial" font-size="14" font-weight="700" lengthAdjust="spacing" textLength="179.0127" x="391.4137" y="22.9951">Diagrama de paquetes</text></g><!--cluster Dashboard--><g class="cluster" data-qualified-name="Dashboard" data-source-line="24" id="ent0002"><path d="M451.34,43.2969 L581.9391,43.2969 A3.75,3.75 0 0 1 584.4391,45.7969 L591.4391,62.1016 L951.34,62.1016 A2.5,2.5 0 0 1 953.84,64.6016 L953.84,191.0169 A2.5,2.5 0 0 1 951.34,193.5169 L451.34,193.5169 A2.5,2.5 0 0 1 448.84,191.0169 L448.84,45.7969 A2.5,2.5 0 0 1 451.34,43.2969" fill="#DCE8F5" style="stroke:#2D6A9F;stroke-width:1.5;"/><line style="stroke:#2D6A9F;stroke-width:1.5;" x1="448.84" x2="591.4391" y1="62.1016" y2="62.1016"/><text fill="#000000" font-family="Arial" font-size="11" font-weight="700" lengthAdjust="spacing" textLength="129.5991" x="452.84" y="55.5073">src/app/(dashboard)/</text><text fill="#000000" font-family="Arial" font-size="11" font-style="italic" lengthAdjust="spacing" textLength="37.646" x="686.517" y="74.312">&#171;core&#187;</text></g><!--cluster Lib--><g class="cluster" data-qualified-name="Lib" data-source-line="30" id="ent0006"><path d="M176.34,255.5169 L219.2829,255.5169 A3.75,3.75 0 0 1 221.7829,258.0169 L228.7829,274.3216 L503.34,274.3216 A2.5,2.5 0 0 1 505.84,276.8216 L505.84,635.2569 A2.5,2.5 0 0 1 503.34,637.7569 L176.34,637.7569 A2.5,2.5 0 0 1 173.84,635.2569 L173.84,258.0169 A2.5,2.5 0 0 1 176.34,255.5169" fill="#FDE8CC" style="stroke:#C45E0A;stroke-width:1.5;"/><line style="stroke:#C45E0A;stroke-width:1.5;" x1="173.84" x2="228.7829" y1="274.3216" y2="274.3216"/><text fill="#000000" font-family="Arial" font-size="11" font-weight="700" lengthAdjust="spacing" textLength="41.9429" x="177.84" y="267.7273">src/lib/</text><text fill="#000000" font-family="Arial" font-size="11" font-style="italic" lengthAdjust="spacing" textLength="26.6729" x="330.5036" y="286.532">&#171;lib&#187;</text></g><!--entity PKG_Espacios--><g class="entity" data-qualified-name="Dashboard.PKG_Espacios" data-source-line="25" id="ent0003"><path d="M494.9,95.2969 L592.7687,95.2969 A3.75,3.75 0 0 1 595.2687,97.7969 L602.2687,114.1016 L616.7687,114.1016 A2.5,2.5 0 0 1 619.2687,116.6016 L619.2687,167.0156 A2.5,2.5 0 0 1 616.7687,169.5156 L494.9,169.5156 A2.5,2.5 0 0 1 492.4,167.0156 L492.4,97.7969 A2.5,2.5 0 0 1 494.9,95.2969" fill="#D5ECD4" style="stroke:#2E7D32;stroke-width:1.5;"/><line style="stroke:#2E7D32;stroke-width:1.5;" x1="492.4" x2="602.2687" y1="114.1016" y2="114.1016"/><text fill="#000000" font-family="Arial" font-size="11" font-weight="700" lengthAdjust="spacing" textLength="84.8687" x="502.4" y="108.5073">PKG_Espacios</text><text fill="#000000" font-family="Arial" font-size="11" font-style="italic" lengthAdjust="spacing" textLength="54.7637" x="503.4" y="131.312">&#171;modulo&#187;</text><text fill="#000000" font-family="Arial" font-size="11" lengthAdjust="spacing" textLength="45.332" x="508.1158" y="144.1167">parking/</text><text fill="#000000" font-family="Arial" font-size="11" lengthAdjust="spacing" textLength="45.9121" x="507.8258" y="156.9214">oficinas/</text></g><!--entity PKG_RRHH--><g class="entity" data-qualified-name="Dashboard.PKG_RRHH" data-source-line="26" id="ent0004"><path d="M656.87,95.2969 L736.3373,95.2969 A3.75,3.75 0 0 1 738.8373,97.7969 L745.8373,114.1016 L776.8041,114.1016 A2.5,2.5 0 0 1 779.3041,116.6016 L779.3041,167.0156 A2.5,2.5 0 0 1 776.8041,169.5156 L656.87,169.5156 A2.5,2.5 0 0 1 654.37,167.0156 L654.37,97.7969 A2.5,2.5 0 0 1 656.87,95.2969" fill="#D5ECD4" style="stroke:#2E7D32;stroke-width:1.5;"/><line style="stroke:#2E7D32;stroke-width:1.5;" x1="654.37" x2="745.8373" y1="114.1016" y2="114.1016"/><text fill="#000000" font-family="Arial" font-size="11" font-weight="700" lengthAdjust="spacing" textLength="66.4673" x="664.37" y="108.5073">PKG_RRHH</text><text fill="#000000" font-family="Arial" font-size="11" font-style="italic" lengthAdjust="spacing" textLength="54.7637" x="684.4552" y="131.312">&#171;modulo&#187;</text><text fill="#000000" font-family="Arial" font-size="11" lengthAdjust="spacing" textLength="65.0493" x="679.3124" y="144.1167">vacaciones/</text><text fill="#000000" font-family="Arial" font-size="11" lengthAdjust="spacing" textLength="94.9341" x="664.37" y="156.9214">tabl&#243;n/directorio/</text></g><!--entity PKG_Admin--><g class="entity" data-qualified-name="Dashboard.PKG_Admin" data-source-line="27" id="ent0005"><path d="M816.67,95.2969 L900.2354,95.2969 A3.75,3.75 0 0 1 902.7354,97.7969 L909.7354,114.1016 L927.0113,114.1016 A2.5,2.5 0 0 1 929.5113,116.6016 L929.5113,167.0156 A2.5,2.5 0 0 1 927.0113,169.5156 L816.67,169.5156 A2.5,2.5 0 0 1 814.17,167.0156 L814.17,97.7969 A2.5,2.5 0 0 1 816.67,95.2969" fill="#D5ECD4" style="stroke:#2E7D32;stroke-width:1.5;"/><line style="stroke:#2E7D32;stroke-width:1.5;" x1="814.17" x2="909.7354" y1="114.1016" y2="114.1016"/><text fill="#000000" font-family="Arial" font-size="11" font-weight="700" lengthAdjust="spacing" textLength="70.5654" x="824.17" y="108.5073">PKG_Admin</text><text fill="#000000" font-family="Arial" font-size="11" font-style="italic" lengthAdjust="spacing" textLength="54.7637" x="839.4588" y="131.312">&#171;modulo&#187;</text><text fill="#000000" font-family="Arial" font-size="11" lengthAdjust="spacing" textLength="85.3413" x="824.17" y="144.1167">administracion/</text><text fill="#000000" font-family="Arial" font-size="11" lengthAdjust="spacing" textLength="77.2417" x="828.2198" y="156.9214">ajustes/panel/</text></g><!--entity DB--><g class="entity" data-qualified-name="Lib.DB" data-source-line="31" id="ent0007"><path d="M355.58,552.3469 L386.0951,552.3469 A3.75,3.75 0 0 1 388.5951,554.8469 L395.5951,571.1516 L410.0951,571.1516 A2.5,2.5 0 0 1 412.5951,573.6516 L412.5951,611.2609 A2.5,2.5 0 0 1 410.0951,613.7609 L355.58,613.7609 A2.5,2.5 0 0 1 353.08,611.2609 L353.08,554.8469 A2.5,2.5 0 0 1 355.58,552.3469" fill="#FDE8CC" style="stroke:#C45E0A;stroke-width:1.5;"/><line style="stroke:#C45E0A;stroke-width:1.5;" x1="353.08" x2="395.5951" y1="571.1516" y2="571.1516"/><text fill="#000000" font-family="Arial" font-size="11" font-weight="700" lengthAdjust="spacing" textLength="17.5151" x="363.08" y="565.5573">DB</text><text fill="#000000" font-family="Arial" font-size="11" font-style="italic" lengthAdjust="spacing" textLength="26.6729" x="364.08" y="588.362">&#171;lib&#187;</text><text fill="#000000" font-family="Arial" font-size="11" lengthAdjust="spacing" textLength="17.6709" x="368.581" y="601.1667">db/</text></g><!--entity LIB_AUTH--><g class="entity" data-qualified-name="Lib.LIB_AUTH" data-source-line="32" id="ent0008"><path d="M204.77,429.9269 L276.9111,429.9269 A3.75,3.75 0 0 1 279.4111,432.4269 L286.4111,448.7316 L300.9111,448.7316 A2.5,2.5 0 0 1 303.4111,451.2316 L303.4111,488.8409 A2.5,2.5 0 0 1 300.9111,491.3409 L204.77,491.3409 A2.5,2.5 0 0 1 202.27,488.8409 L202.27,432.4269 A2.5,2.5 0 0 1 204.77,429.9269" fill="#FDE8CC" style="stroke:#C45E0A;stroke-width:1.5;"/><line style="stroke:#C45E0A;stroke-width:1.5;" x1="202.27" x2="286.4111" y1="448.7316" y2="448.7316"/><text fill="#000000" font-family="Arial" font-size="11" font-weight="700" lengthAdjust="spacing" textLength="59.1411" x="212.27" y="443.1373">LIB_AUTH</text><text fill="#000000" font-family="Arial" font-size="11" font-style="italic" lengthAdjust="spacing" textLength="26.6729" x="213.2851" y="465.942">&#171;lib&#187;</text><text fill="#000000" font-family="Arial" font-size="11" lengthAdjust="spacing" textLength="28.7031" x="212.27" y="478.7467">auth/</text></g><!--entity Queries--><g class="entity" data-qualified-name="Lib.Queries" data-source-line="33" id="ent0009"><path d="M340.41,429.9269 L401.2557,429.9269 A3.75,3.75 0 0 1 403.7557,432.4269 L410.7557,448.7316 L425.2557,448.7316 A2.5,2.5 0 0 1 427.7557,451.2316 L427.7557,488.8409 A2.5,2.5 0 0 1 425.2557,491.3409 L340.41,491.3409 A2.5,2.5 0 0 1 337.91,488.8409 L337.91,432.4269 A2.5,2.5 0 0 1 340.41,429.9269" fill="#FDE8CC" style="stroke:#C45E0A;stroke-width:1.5;"/><line style="stroke:#C45E0A;stroke-width:1.5;" x1="337.91" x2="410.7557" y1="448.7316" y2="448.7316"/><text fill="#000000" font-family="Arial" font-size="11" font-weight="700" lengthAdjust="spacing" textLength="47.8457" x="347.91" y="443.1373">Queries</text><text fill="#000000" font-family="Arial" font-size="11" font-style="italic" lengthAdjust="spacing" textLength="26.6729" x="356.826" y="465.942">&#171;lib&#187;</text><text fill="#000000" font-family="Arial" font-size="11" lengthAdjust="spacing" textLength="44.5049" x="347.91" y="478.7467">queries/</text></g><!--entity SharedActions--><g class="entity" data-qualified-name="Lib.SharedActions" data-source-line="34" id="ent0010"><path d="M200.37,307.5169 L303.3036,307.5169 A3.75,3.75 0 0 1 305.8036,310.0169 L312.8036,326.3216 L327.3036,326.3216 A2.5,2.5 0 0 1 329.8036,328.8216 L329.8036,366.4309 A2.5,2.5 0 0 1 327.3036,368.9309 L200.37,368.9309 A2.5,2.5 0 0 1 197.87,366.4309 L197.87,310.0169 A2.5,2.5 0 0 1 200.37,307.5169" fill="#FDE8CC" style="stroke:#C45E0A;stroke-width:1.5;"/><line style="stroke:#C45E0A;stroke-width:1.5;" x1="197.87" x2="312.8036" y1="326.3216" y2="326.3216"/><text fill="#000000" font-family="Arial" font-size="11" font-weight="700" lengthAdjust="spacing" textLength="89.9336" x="207.87" y="320.7273">SharedActions</text><text fill="#000000" font-family="Arial" font-size="11" font-style="italic" lengthAdjust="spacing" textLength="26.6729" x="216.1818" y="343.532">&#171;lib&#187;</text><text fill="#000000" font-family="Arial" font-size="11" lengthAdjust="spacing" textLength="43.2964" x="207.87" y="356.3367">actions/</text></g><!--entity Calendar--><g class="entity" data-qualified-name="Lib.Calendar" data-source-line="35" id="ent0011"><path d="M367.7,307.5169 L435.9793,307.5169 A3.75,3.75 0 0 1 438.4793,310.0169 L445.4793,326.3216 L459.9793,326.3216 A2.5,2.5 0 0 1 462.4793,328.8216 L462.4793,366.4309 A2.5,2.5 0 0 1 459.9793,368.9309 L367.7,368.9309 A2.5,2.5 0 0 1 365.2,366.4309 L365.2,310.0169 A2.5,2.5 0 0 1 367.7,307.5169" fill="#FDE8CC" style="stroke:#C45E0A;stroke-width:1.5;"/><line style="stroke:#C45E0A;stroke-width:1.5;" x1="365.2" x2="445.4793" y1="326.3216" y2="326.3216"/><text fill="#000000" font-family="Arial" font-size="11" font-weight="700" lengthAdjust="spacing" textLength="55.2793" x="375.2" y="320.7273">Calendar</text><text fill="#000000" font-family="Arial" font-size="11" font-style="italic" lengthAdjust="spacing" textLength="26.6729" x="387.6314" y="343.532">&#171;lib&#187;</text><text fill="#000000" font-family="Arial" font-size="11" lengthAdjust="spacing" textLength="51.5356" x="375.2" y="356.3367">calendar/</text></g><!--entity Auth--><g class="entity" data-qualified-name="Auth" data-source-line="22" id="ent0001"><path d="M312.48,101.6969 L354.9136,101.6969 A3.75,3.75 0 0 1 357.4136,104.1969 L364.4136,120.5016 L419.1851,120.5016 A2.5,2.5 0 0 1 421.6851,123.0016 L421.6851,160.6109 A2.5,2.5 0 0 1 419.1851,163.1109 L312.48,163.1109 A2.5,2.5 0 0 1 309.98,160.6109 L309.98,104.1969 A2.5,2.5 0 0 1 312.48,101.6969" fill="#DCE8F5" style="stroke:#2D6A9F;stroke-width:1.5;"/><line style="stroke:#2D6A9F;stroke-width:1.5;" x1="309.98" x2="364.4136" y1="120.5016" y2="120.5016"/><text fill="#000000" font-family="Arial" font-size="11" font-weight="700" lengthAdjust="spacing" textLength="29.4336" x="319.98" y="114.9073">Auth</text><text fill="#000000" font-family="Arial" font-size="11" font-style="italic" lengthAdjust="spacing" textLength="37.646" x="342.0095" y="137.712">&#171;core&#187;</text><text fill="#000000" font-family="Arial" font-size="11" lengthAdjust="spacing" textLength="81.7051" x="319.98" y="150.5167">src/app/(auth)/</text></g><!--entity Components--><g class="entity" data-qualified-name="Components" data-source-line="38" id="ent0012"><path d="M8.5,307.5169 L98.9512,307.5169 A3.75,3.75 0 0 1 101.4512,310.0169 L108.4512,326.3216 L125.1738,326.3216 A2.5,2.5 0 0 1 127.6738,328.8216 L127.6738,366.4309 A2.5,2.5 0 0 1 125.1738,368.9309 L8.5,368.9309 A2.5,2.5 0 0 1 6,366.4309 L6,310.0169 A2.5,2.5 0 0 1 8.5,307.5169" fill="#F5F0D5" style="stroke:#9C8C10;stroke-width:1.5;"/><line style="stroke:#9C8C10;stroke-width:1.5;" x1="6" x2="108.4512" y1="326.3216" y2="326.3216"/><text fill="#000000" font-family="Arial" font-size="11" font-weight="700" lengthAdjust="spacing" textLength="77.4512" x="16" y="320.7273">Components</text><text fill="#000000" font-family="Arial" font-size="11" font-style="italic" lengthAdjust="spacing" textLength="51.2939" x="36.1899" y="343.532">&#171;shared&#187;</text><text fill="#000000" font-family="Arial" font-size="11" lengthAdjust="spacing" textLength="91.6738" x="16" y="356.3367">src/components/</text></g><!--entity Types--><g class="entity" data-qualified-name="Types" data-source-line="39" id="ent0013"><path d="M569.33,429.9269 L618.8857,429.9269 A3.75,3.75 0 0 1 621.3857,432.4269 L628.3857,448.7316 L648.3471,448.7316 A2.5,2.5 0 0 1 650.8471,451.2316 L650.8471,488.8409 A2.5,2.5 0 0 1 648.3471,491.3409 L569.33,491.3409 A2.5,2.5 0 0 1 566.83,488.8409 L566.83,432.4269 A2.5,2.5 0 0 1 569.33,429.9269" fill="#F5F0D5" style="stroke:#9C8C10;stroke-width:1.5;"/><line style="stroke:#9C8C10;stroke-width:1.5;" x1="566.83" x2="628.3857" y1="448.7316" y2="448.7316"/><text fill="#000000" font-family="Arial" font-size="11" font-weight="700" lengthAdjust="spacing" textLength="36.5557" x="576.83" y="443.1373">Types</text><text fill="#000000" font-family="Arial" font-size="11" font-style="italic" lengthAdjust="spacing" textLength="51.2939" x="578.1916" y="465.942">&#171;shared&#187;</text><text fill="#000000" font-family="Arial" font-size="11" lengthAdjust="spacing" textLength="54.0171" x="576.83" y="478.7467">src/types/</text></g><!--link Dashboard to Lib--><g class="link" data-entity-1="ent0002" data-entity-2="ent0006" data-link-type="dependency" data-source-line="42" id="lnk14"><path d="M454.4204,193.9014 C454.4115,194.1956 454.4026,194.4899 454.3938,194.7842 C454.3762,195.373 454.3588,195.9621 454.3416,196.5514 C454.2728,198.9087 454.2075,201.2692 454.1465,203.6204 C454.0245,208.3228 453.92,212.9881 453.84,217.5169 C453.73,223.7369 450.17,226.4869 453.84,231.5169 C460.72,240.9369 471.09,230.7969 478.84,239.5169 C482.4562,243.5856 485.4702,248.1323 487.9752,252.9778 C488.2883,253.5835 488.5935,254.1938 488.8909,254.8085 C488.9653,254.9622 486.8905,269.406 486.9639,269.5602" fill="none" id="Dashboard-to-Lib" style="stroke:#444444;stroke-width:1.2;stroke-dasharray:7,7;"/><polygon fill="#444444" points="489.1125,274.075,488.8569,264.2295,486.9639,269.5602,481.6332,267.6672,489.1125,274.075" style="stroke:#444444;stroke-width:1.2;stroke-linejoin:miter;stroke-miterlimit:10;"/><text fill="#000000" font-family="Arial" font-size="11" lengthAdjust="spacing" textLength="145.4976" x="454.84" y="228.7273">importa l&#243;gica compartida</text></g><!--link Dashboard to Components--><g class="link" data-entity-1="ent0002" data-entity-2="ent0012" data-link-type="dependency" data-source-line="43" id="lnk15"><path d="M450.7702,193.8465 C450.7143,193.9644 450.658,194.0821 450.6013,194.1995 C450.4879,194.4344 450.3729,194.6683 450.2563,194.9013 C449.3238,196.7654 448.2892,198.5686 447.1427,200.2918 C444.8497,203.7381 442.1088,206.8644 438.84,209.5169 C410.96,232.1369 145.39,197.1369 115.84,217.5169 C86.53,237.7169 75.5543,273.8553 70.8143,302.2153" fill="none" id="Dashboard-to-Components" style="stroke:#444444;stroke-width:1.2;stroke-dasharray:7,7;"/><polygon fill="#444444" points="69.99,307.1469,75.4189,298.9294,70.8143,302.2153,67.5284,297.6106,69.99,307.1469" style="stroke:#444444;stroke-width:1.2;stroke-linejoin:miter;stroke-miterlimit:10;"/><text fill="#000000" font-family="Arial" font-size="11" lengthAdjust="spacing" textLength="136.0767" x="116.84" y="228.7273">importa componentes UI</text></g><!--link Dashboard to Types--><g class="link" data-entity-1="ent0002" data-entity-2="ent0013" data-link-type="dependency" data-source-line="44" id="lnk16"><path d="M464.7061,193.7306 C464.7645,193.8489 464.8231,193.9669 464.8822,194.0848 C465.0003,194.3204 465.12,194.5552 465.2411,194.7891 C466.2103,196.6599 467.277,198.4717 468.4501,200.2052 C470.7964,203.6723 473.5688,206.8269 476.84,209.5169 C498.85,227.6169 585.15,196.9069 604.84,217.5169 C659.43,274.6669 637.5195,382.8725 621.2195,433.9725" fill="none" id="Dashboard-to-Types" style="stroke:#444444;stroke-width:1.2;stroke-dasharray:7,7;"/><polygon fill="#444444" points="619.7,438.736,626.2459,431.3772,621.2195,433.9725,618.6242,428.9461,619.7,438.736" style="stroke:#444444;stroke-width:1.2;stroke-linejoin:miter;stroke-miterlimit:10;"/><text fill="#000000" font-family="Arial" font-size="11" lengthAdjust="spacing" textLength="116.2788" x="639.94" y="342.4273">tipos de la aplicaci&#243;n</text></g><!--link PKG_Espacios to SharedActions--><g class="link" data-entity-1="ent0003" data-entity-2="ent0010" data-link-type="dependency" data-source-line="46" id="lnk17"><path d="M533.6,169.7369 C522.24,184.8769 506.97,200.9169 488.84,209.5169 C467.04,219.8569 289.15,200.7069 271.84,217.5169 C248.52,240.1469 249.7146,274.7352 254.9346,302.1452" fill="none" id="PKG_Espacios-to-SharedActions" style="stroke:#444444;stroke-width:1.2;stroke-dasharray:7,7;"/><polygon fill="#444444" points="255.87,307.0569,258.1157,297.4675,254.9346,302.1452,250.2569,298.9641,255.87,307.0569" style="stroke:#444444;stroke-width:1.2;stroke-linejoin:miter;stroke-miterlimit:10;"/><text fill="#000000" font-family="Arial" font-size="11" lengthAdjust="spacing" textLength="170.4194" x="272.84" y="228.7273">buildCessionActions("parking")</text></g><!--link PKG_Espacios to SharedActions--><g class="link" data-entity-1="ent0003" data-entity-2="ent0010" data-link-type="dependency" data-source-line="47" id="lnk18"><path d="M595.69,169.5869 C613.04,189.5769 625.95,213.8669 608.84,231.5169 C598.74,241.9269 360.93,233.2569 347.84,239.5169 C317.96,253.7869 297.2079,279.9755 282.7679,303.1055" fill="none" id="PKG_Espacios-to-SharedActions-1" style="stroke:#444444;stroke-width:1.2;stroke-dasharray:7,7;"/><polygon fill="#444444" points="280.12,307.3469,288.2792,301.8308,282.7679,303.1055,281.4931,297.5942,280.12,307.3469" style="stroke:#444444;stroke-width:1.2;stroke-linejoin:miter;stroke-miterlimit:10;"/><text fill="#000000" font-family="Arial" font-size="11" lengthAdjust="spacing" textLength="159.1401" x="617.35" y="228.7273">buildCessionActions("office")</text></g><!--link SharedActions to Queries--><g class="link" data-entity-1="ent0010" data-entity-2="ent0009" data-link-type="dependency" data-source-line="49" id="lnk19"><path d="M293.56,369.2969 C311.73,387.6869 331.3858,407.5701 349.5658,425.9701" fill="none" id="SharedActions-to-Queries" style="stroke:#444444;stroke-width:1.2;stroke-dasharray:7,7;"/><polygon fill="#444444" points="353.08,429.5269,349.5998,420.3134,349.5658,425.9701,343.909,425.9361,353.08,429.5269" style="stroke:#444444;stroke-width:1.2;stroke-linejoin:miter;stroke-miterlimit:10;"/></g><!--link SharedActions to LIB_AUTH--><g class="link" data-entity-1="ent0010" data-entity-2="ent0008" data-link-type="dependency" data-source-line="50" id="lnk20"><path d="M261.09,369.2969 C259.41,387.6869 257.7246,406.1476 256.0446,424.5476" fill="none" id="SharedActions-to-LIB_AUTH" style="stroke:#444444;stroke-width:1.2;stroke-dasharray:7,7;"/><polygon fill="#444444" points="255.59,429.5269,260.3918,420.9279,256.0446,424.5476,252.4249,420.2005,255.59,429.5269" style="stroke:#444444;stroke-width:1.2;stroke-linejoin:miter;stroke-miterlimit:10;"/></g><!--link Queries to DB--><g class="link" data-entity-1="ent0009" data-entity-2="ent0007" data-link-type="dependency" data-source-line="51" id="lnk21"><path d="M382.84,491.7069 C382.84,510.0969 382.84,530.219 382.84,548.609" fill="none" id="Queries-to-DB" style="stroke:#444444;stroke-width:1.2;stroke-dasharray:7,7;"/><polygon fill="#444444" points="382.84,553.609,386.84,544.609,382.84,548.609,378.84,544.609,382.84,553.609" style="stroke:#444444;stroke-width:1.2;stroke-linejoin:miter;stroke-miterlimit:10;"/></g><!--link Lib to Types--><g class="link" data-entity-1="ent0006" data-entity-2="ent0013" data-link-type="dependency" data-source-line="52" id="lnk22"><path d="M505.8689,347.935 C506.0257,348.1051 506.1845,348.2773 506.3452,348.4517 C506.6666,348.8004 506.9957,349.1576 507.3323,349.5228 C512.7184,355.3669 520.0244,363.2931 528.2638,372.2319 C544.7425,390.1094 561.5664,408.3602 577.6214,425.7802" fill="none" id="Lib-to-Types" style="stroke:#444444;stroke-width:1.2;stroke-dasharray:7,7;"/><polygon fill="#444444" points="581.01,429.4569,577.8519,420.1281,577.6214,425.7802,571.9693,425.5498,581.01,429.4569" style="stroke:#444444;stroke-width:1.2;stroke-linejoin:miter;stroke-miterlimit:10;"/></g><?plantuml-src rLJDRXCn4BxxAQpaG7jfcf10YgfAIKDf1KBGfZUaQcBF9YQRzM9xYm0XyH2y2O_0c_0aZBsRpVwTk67jQURxFe-_cLcxLKaA1dPSOWHPxAvqujx23ldCA8YPxShVgQ_8XyDACWMnXJNEjP5ebXibjWbQouSdame8ZD6VgybHCtcfOsruVnnE9RaY-RNHMI8Bn5Kuh5q1_yOudzVXv-SxBRDONrnmtfSJ57BiGQ7M5i2V_WYVowUZBgLOhGfKFv8u5QAfT004a1XFy1Iwb8Gsc2FxKk0qcZIL3e2y9laCpg8k9Ri1WpAyBff4fxAbT004fJCn5SDJzfqnfroCVA5WJHO2jPXi_9IXGylOtj2UDM80QJeuWinjZWSzNfO6biyereMLO3Sh3KOs2Ojz8dIg958JgPNhmOT4Hqge16pWbNqXvhlNhnvUMc8eRQlKHn0-HZD5R0Uh-FUlP22LGU6qKRfJv_Rs-hgg0NAd4cMT2Kga0nypIpOCKaWmxfIOUOetiVPuQdz0vsD0q3TgLN-fR00MyreXv6T3u6R-CBjVrigb7Xc5jWvydmThQiBHSngukp0DipnLHGk8CP5Wwl3B8jfwgj2xb5nFNAvV3fddbAawnNr9iOrU-YXZJ_YVdp_eumjCwKPCXA9a7lllFdQOStvoSX76e3Wlk29tZ0DEaxfM0hXt4enJ4fgqWv4LMcayMdv_qwG4D_StEPLgw_Sw1WvfhFocq7emLbscd5SR2yzTPIgMb_Idfa0HFjhlQU_udnLqH0kE9C3gUA-m7-5sfjo20b9uwLEqG1LtUSK5zXS0?></g></svg>