<?xml version="1.0" encoding="us-ascii" standalone="no"?><svg xmlns="http://www.w3.org/2000/svg" xmlns:xlink="http://www.w3.org/1999/xlink" contentStyleType="text/css" height="713px" preserveAspectRatio="none" style="width:1311px;height:713px;background:#FFFFFF;" version="1.1" viewBox="0 0 1311 713" width="1311px" zoomAndPan="magnify"><defs/><g><text fill="#000000" font-family="Arial" font-size="14" font-weight="bold" lengthAdjust="spacing" textLength="157" x="570" y="22.6738">Diagrama de paquetes</text><!--cluster Dashboard--><g id="cluster_Dashboard"><path d="M8.5,42.6406 L123.5,42.6406 A3.75,3.75 0 0 1 126,45.1406 L133,60.9297 L636.5,60.9297 A2.5,2.5 0 0 1 639,63.4297 L639,354.1406 A2.5,2.5 0 0 1 636.5,356.6406 L8.5,356.6406 A2.5,2.5 0 0 1 6,354.1406 L6,45.1406 A2.5,2.5 0 0 1 8.5,42.6406 " fill="#DCE8F5" style="stroke:#2D6A9F;stroke-width:1.5;"/><line style="stroke:#2D6A9F;stroke-width:1.5;" x1="6" x2="133" y1="60.9297" y2="60.9297"/><text fill="#000000" font-family="Arial" font-size="11" font-weight="bold" lengthAdjust="spacing" textLength="114" x="10" y="54.5986">src/app/(dashboard)/</text><text fill="#000000" font-family="Arial" font-size="11" font-style="italic" lengthAdjust="spacing" textLength="34" x="309.5" y="72.8877">&#171;core&#187;</text></g><!--cluster Lib--><g id="cluster_Lib"><path d="M803.5,221.6406 L841.5,221.6406 A3.75,3.75 0 0 1 844,224.1406 L851,239.9297 L1115.5,239.9297 A2.5,2.5 0 0 1 1118,242.4297 L1118,614.1406 A2.5,2.5 0 0 1 1115.5,616.6406 L803.5,616.6406 A2.5,2.5 0 0 1 801,614.1406 L801,224.1406 A2.5,2.5 0 0 1 803.5,221.6406 " fill="#FDE8CC" style="stroke:#C45E0A;stroke-width:1.5;"/><line style="stroke:#C45E0A;stroke-width:1.5;" x1="801" x2="851" y1="239.9297" y2="239.9297"/><text fill="#000000" font-family="Arial" font-size="11" font-weight="bold" lengthAdjust="spacing" textLength="37" x="805" y="233.5986">src/lib/</text><text fill="#000000" font-family="Arial" font-size="11" font-style="italic" lengthAdjust="spacing" textLength="25" x="951" y="251.8877">&#171;lib&#187;</text></g><!--entity PKG_P--><g id="elem_PKG_P"><path d="M407.5,93.6406 L455.5,93.6406 A3.75,3.75 0 0 1 458,96.1406 L465,111.9297 L480.5,111.9297 A2.5,2.5 0 0 1 483,114.4297 L483,151.0078 A2.5,2.5 0 0 1 480.5,153.5078 L407.5,153.5078 A2.5,2.5 0 0 1 405,151.0078 L405,96.1406 A2.5,2.5 0 0 1 407.5,93.6406 " fill="#D5ECD4" style="stroke:#2E7D32;stroke-width:1.5;"/><line style="stroke:#2E7D32;stroke-width:1.5;" x1="405" x2="465" y1="111.9297" y2="111.9297"/><text fill="#000000" font-family="Arial" font-size="11" font-weight="bold" lengthAdjust="spacing" textLength="35" x="415" y="106.5986">PKG_P</text><text fill="#000000" font-family="Arial" font-size="11" font-style="italic" lengthAdjust="spacing" textLength="48" x="415" y="128.8877">&#171;modulo&#187;</text><text fill="#000000" font-family="Arial" font-size="11" lengthAdjust="spacing" textLength="38" x="420" y="141.1768">parking/</text></g><!--entity PKG_O--><g id="elem_PKG_O"><path d="M520.5,93.6406 L569.5,93.6406 A3.75,3.75 0 0 1 572,96.1406 L579,111.9297 L593.5,111.9297 A2.5,2.5 0 0 1 596,114.4297 L596,151.0078 A2.5,2.5 0 0 1 593.5,153.5078 L520.5,153.5078 A2.5,2.5 0 0 1 518,151.0078 L518,96.1406 A2.5,2.5 0 0 1 520.5,93.6406 " fill="#D5ECD4" style="stroke:#2E7D32;stroke-width:1.5;"/><line style="stroke:#2E7D32;stroke-width:1.5;" x1="518" x2="579" y1="111.9297" y2="111.9297"/><text fill="#000000" font-family="Arial" font-size="11" font-weight="bold" lengthAdjust="spacing" textLength="36" x="528" y="106.5986">PKG_O</text><text fill="#000000" font-family="Arial" font-size="11" font-style="italic" lengthAdjust="spacing" textLength="48" x="528" y="128.8877">&#171;modulo&#187;</text><text fill="#000000" font-family="Arial" font-size="11" lengthAdjust="spacing" textLength="41" x="531.5" y="141.1768">oficinas/</text></g><!--entity PKG_V--><g id="elem_PKG_V"><path d="M33,93.6406 L82,93.6406 A3.75,3.75 0 0 1 84.5,96.1406 L91.5,111.9297 L117,111.9297 A2.5,2.5 0 0 1 119.5,114.4297 L119.5,151.0078 A2.5,2.5 0 0 1 117,153.5078 L33,153.5078 A2.5,2.5 0 0 1 30.5,151.0078 L30.5,96.1406 A2.5,2.5 0 0 1 33,93.6406 " fill="#D5ECD4" style="stroke:#2E7D32;stroke-width:1.5;"/><line style="stroke:#2E7D32;stroke-width:1.5;" x1="30.5" x2="91.5" y1="111.9297" y2="111.9297"/><text fill="#000000" font-family="Arial" font-size="11" font-weight="bold" lengthAdjust="spacing" textLength="36" x="40.5" y="106.5986">PKG_V</text><text fill="#000000" font-family="Arial" font-size="11" font-style="italic" lengthAdjust="spacing" textLength="48" x="46" y="128.8877">&#171;modulo&#187;</text><text fill="#000000" font-family="Arial" font-size="11" lengthAdjust="spacing" textLength="59" x="40.5" y="141.1768">vacaciones/</text></g><!--entity PKG_T--><g id="elem_PKG_T"><path d="M157.5,93.6406 L205.5,93.6406 A3.75,3.75 0 0 1 208,96.1406 L215,111.9297 L230.5,111.9297 A2.5,2.5 0 0 1 233,114.4297 L233,151.0078 A2.5,2.5 0 0 1 230.5,153.5078 L157.5,153.5078 A2.5,2.5 0 0 1 155,151.0078 L155,96.1406 A2.5,2.5 0 0 1 157.5,93.6406 " fill="#D5ECD4" style="stroke:#2E7D32;stroke-width:1.5;"/><line style="stroke:#2E7D32;stroke-width:1.5;" x1="155" x2="215" y1="111.9297" y2="111.9297"/><text fill="#000000" font-family="Arial" font-size="11" font-weight="bold" lengthAdjust="spacing" textLength="35" x="165" y="106.5986">PKG_T</text><text fill="#000000" font-family="Arial" font-size="11" font-style="italic" lengthAdjust="spacing" textLength="48" x="165" y="128.8877">&#171;modulo&#187;</text><text fill="#000000" font-family="Arial" font-size="11" lengthAdjust="spacing" textLength="32" x="173" y="141.1768">tablon/</text></g><!--entity PKG_A--><g id="elem_PKG_A"><path d="M270.5,93.6406 L319.5,93.6406 A3.75,3.75 0 0 1 322,96.1406 L329,111.9297 L367.5,111.9297 A2.5,2.5 0 0 1 370,114.4297 L370,151.0078 A2.5,2.5 0 0 1 367.5,153.5078 L270.5,153.5078 A2.5,2.5 0 0 1 268,151.0078 L268,96.1406 A2.5,2.5 0 0 1 270.5,93.6406 " fill="#D5ECD4" style="stroke:#2E7D32;stroke-width:1.5;"/><line style="stroke:#2E7D32;stroke-width:1.5;" x1="268" x2="329" y1="111.9297" y2="111.9297"/><text fill="#000000" font-family="Arial" font-size="11" font-weight="bold" lengthAdjust="spacing" textLength="36" x="278" y="106.5986">PKG_A</text><text fill="#000000" font-family="Arial" font-size="11" font-style="italic" lengthAdjust="spacing" textLength="48" x="290" y="128.8877">&#171;modulo&#187;</text><text fill="#000000" font-family="Arial" font-size="11" lengthAdjust="spacing" textLength="72" x="278" y="141.1768">administracion/</text></g><!--entity PKG_AJ--><g id="elem_PKG_AJ"><path d="M35.5,272.6406 L90.5,272.6406 A3.75,3.75 0 0 1 93,275.1406 L100,290.9297 L114.5,290.9297 A2.5,2.5 0 0 1 117,293.4297 L117,330.0078 A2.5,2.5 0 0 1 114.5,332.5078 L35.5,332.5078 A2.5,2.5 0 0 1 33,330.0078 L33,275.1406 A2.5,2.5 0 0 1 35.5,272.6406 " fill="#D5ECD4" style="stroke:#2E7D32;stroke-width:1.5;"/><line style="stroke:#2E7D32;stroke-width:1.5;" x1="33" x2="100" y1="290.9297" y2="290.9297"/><text fill="#000000" font-family="Arial" font-size="11" font-weight="bold" lengthAdjust="spacing" textLength="42" x="43" y="285.5986">PKG_AJ</text><text fill="#000000" font-family="Arial" font-size="11" font-style="italic" lengthAdjust="spacing" textLength="48" x="43" y="307.8877">&#171;modulo&#187;</text><text fill="#000000" font-family="Arial" font-size="11" lengthAdjust="spacing" textLength="38" x="48" y="320.1768">ajustes/</text></g><!--entity PKG_PAN--><g id="elem_PKG_PAN"><path d="M154.5,272.6406 L217.5,272.6406 A3.75,3.75 0 0 1 220,275.1406 L227,290.9297 L241.5,290.9297 A2.5,2.5 0 0 1 244,293.4297 L244,330.0078 A2.5,2.5 0 0 1 241.5,332.5078 L154.5,332.5078 A2.5,2.5 0 0 1 152,330.0078 L152,275.1406 A2.5,2.5 0 0 1 154.5,272.6406 " fill="#D5ECD4" style="stroke:#2E7D32;stroke-width:1.5;"/><line style="stroke:#2E7D32;stroke-width:1.5;" x1="152" x2="227" y1="290.9297" y2="290.9297"/><text fill="#000000" font-family="Arial" font-size="11" font-weight="bold" lengthAdjust="spacing" textLength="50" x="162" y="285.5986">PKG_PAN</text><text fill="#000000" font-family="Arial" font-size="11" font-style="italic" lengthAdjust="spacing" textLength="48" x="162" y="307.8877">&#171;modulo&#187;</text><text fill="#000000" font-family="Arial" font-size="11" lengthAdjust="spacing" textLength="29" x="171.5" y="320.1768">panel/</text></g><!--entity DB--><g id="elem_DB"><path d="M1001.5,532.6406 L1028.5,532.6406 A3.75,3.75 0 0 1 1031,535.1406 L1038,550.9297 L1052.5,550.9297 A2.5,2.5 0 0 1 1055,553.4297 L1055,590.0078 A2.5,2.5 0 0 1 1052.5,592.5078 L1001.5,592.5078 A2.5,2.5 0 0 1 999,590.0078 L999,535.1406 A2.5,2.5 0 0 1 1001.5,532.6406 " fill="#FDE8CC" style="stroke:#C45E0A;stroke-width:1.5;"/><line style="stroke:#C45E0A;stroke-width:1.5;" x1="999" x2="1038" y1="550.9297" y2="550.9297"/><text fill="#000000" font-family="Arial" font-size="11" font-weight="bold" lengthAdjust="spacing" textLength="14" x="1009" y="545.5986">DB</text><text fill="#000000" font-family="Arial" font-size="11" font-style="italic" lengthAdjust="spacing" textLength="25" x="1009" y="567.8877">&#171;lib&#187;</text><text fill="#000000" font-family="Arial" font-size="11" lengthAdjust="spacing" textLength="15" x="1014" y="580.1768">db/</text></g><!--entity LIB_AUTH--><g id="elem_LIB_AUTH"><path d="M857.5,411.6406 L922.5,411.6406 A3.75,3.75 0 0 1 925,414.1406 L932,429.9297 L946.5,429.9297 A2.5,2.5 0 0 1 949,432.4297 L949,469.0078 A2.5,2.5 0 0 1 946.5,471.5078 L857.5,471.5078 A2.5,2.5 0 0 1 855,469.0078 L855,414.1406 A2.5,2.5 0 0 1 857.5,411.6406 " fill="#FDE8CC" style="stroke:#C45E0A;stroke-width:1.5;"/><line style="stroke:#C45E0A;stroke-width:1.5;" x1="855" x2="932" y1="429.9297" y2="429.9297"/><text fill="#000000" font-family="Arial" font-size="11" font-weight="bold" lengthAdjust="spacing" textLength="52" x="865" y="424.5986">LIB_AUTH</text><text fill="#000000" font-family="Arial" font-size="11" font-style="italic" lengthAdjust="spacing" textLength="25" x="865" y="446.8877">&#171;lib&#187;</text><text fill="#000000" font-family="Arial" font-size="11" lengthAdjust="spacing" textLength="24" x="865.5" y="459.1768">auth/</text></g><!--entity Queries--><g id="elem_Queries"><path d="M986.5,411.6406 L1043.5,411.6406 A3.75,3.75 0 0 1 1046,414.1406 L1053,429.9297 L1067.5,429.9297 A2.5,2.5 0 0 1 1070,432.4297 L1070,469.0078 A2.5,2.5 0 0 1 1067.5,471.5078 L986.5,471.5078 A2.5,2.5 0 0 1 984,469.0078 L984,414.1406 A2.5,2.5 0 0 1 986.5,411.6406 " fill="#FDE8CC" style="stroke:#C45E0A;stroke-width:1.5;"/><line style="stroke:#C45E0A;stroke-width:1.5;" x1="984" x2="1053" y1="429.9297" y2="429.9297"/><text fill="#000000" font-family="Arial" font-size="11" font-weight="bold" lengthAdjust="spacing" textLength="44" x="994" y="424.5986">Queries</text><text fill="#000000" font-family="Arial" font-size="11" font-style="italic" lengthAdjust="spacing" textLength="25" x="1001" y="446.8877">&#171;lib&#187;</text><text fill="#000000" font-family="Arial" font-size="11" lengthAdjust="spacing" textLength="39" x="994" y="459.1768">queries/</text></g><!--entity SharedActions--><g id="elem_SharedActions"><path d="M954,272.6406 L1048,272.6406 A3.75,3.75 0 0 1 1050.5,275.1406 L1057.5,290.9297 L1072,290.9297 A2.5,2.5 0 0 1 1074.5,293.4297 L1074.5,330.0078 A2.5,2.5 0 0 1 1072,332.5078 L954,332.5078 A2.5,2.5 0 0 1 951.5,330.0078 L951.5,275.1406 A2.5,2.5 0 0 1 954,272.6406 " fill="#FDE8CC" style="stroke:#C45E0A;stroke-width:1.5;"/><line style="stroke:#C45E0A;stroke-width:1.5;" x1="951.5" x2="1057.5" y1="290.9297" y2="290.9297"/><text fill="#000000" font-family="Arial" font-size="11" font-weight="bold" lengthAdjust="spacing" textLength="81" x="961.5" y="285.5986">SharedActions</text><text fill="#000000" font-family="Arial" font-size="11" font-style="italic" lengthAdjust="spacing" textLength="25" x="968" y="307.8877">&#171;lib&#187;</text><text fill="#000000" font-family="Arial" font-size="11" lengthAdjust="spacing" textLength="38" x="961.5" y="320.1768">actions/</text></g><!--entity Calendar--><g id="elem_Calendar"><path d="M828,272.6406 L890,272.6406 A3.75,3.75 0 0 1 892.5,275.1406 L899.5,290.9297 L914,290.9297 A2.5,2.5 0 0 1 916.5,293.4297 L916.5,330.0078 A2.5,2.5 0 0 1 914,332.5078 L828,332.5078 A2.5,2.5 0 0 1 825.5,330.0078 L825.5,275.1406 A2.5,2.5 0 0 1 828,272.6406 " fill="#FDE8CC" style="stroke:#C45E0A;stroke-width:1.5;"/><line style="stroke:#C45E0A;stroke-width:1.5;" x1="825.5" x2="899.5" y1="290.9297" y2="290.9297"/><text fill="#000000" font-family="Arial" font-size="11" font-weight="bold" lengthAdjust="spacing" textLength="49" x="835.5" y="285.5986">Calendar</text><text fill="#000000" font-family="Arial" font-size="11" font-style="italic" lengthAdjust="spacing" textLength="25" x="845.5" y="307.8877">&#171;lib&#187;</text><text fill="#000000" font-family="Arial" font-size="11" lengthAdjust="spacing" textLength="45" x="835.5" y="320.1768">calendar/</text></g><!--entity Auth--><g id="elem_Auth"><path d="M668.5,93.6406 L707.5,93.6406 A3.75,3.75 0 0 1 710,96.1406 L717,111.9297 L765.5,111.9297 A2.5,2.5 0 0 1 768,114.4297 L768,151.0078 A2.5,2.5 0 0 1 765.5,153.5078 L668.5,153.5078 A2.5,2.5 0 0 1 666,151.0078 L666,96.1406 A2.5,2.5 0 0 1 668.5,93.6406 " fill="#DCE8F5" style="stroke:#2D6A9F;stroke-width:1.5;"/><line style="stroke:#2D6A9F;stroke-width:1.5;" x1="666" x2="717" y1="111.9297" y2="111.9297"/><text fill="#000000" font-family="Arial" font-size="11" font-weight="bold" lengthAdjust="spacing" textLength="26" x="676" y="106.5986">Auth</text><text fill="#000000" font-family="Arial" font-size="11" font-style="italic" lengthAdjust="spacing" textLength="34" x="695" y="128.8877">&#171;core&#187;</text><text fill="#000000" font-family="Arial" font-size="11" lengthAdjust="spacing" textLength="72" x="676" y="141.1768">src/app/(auth)/</text></g><!--entity Components--><g id="elem_Components"><path d="M665.5,272.6406 L750.5,272.6406 A3.75,3.75 0 0 1 753,275.1406 L760,290.9297 L774.5,290.9297 A2.5,2.5 0 0 1 777,293.4297 L777,330.0078 A2.5,2.5 0 0 1 774.5,332.5078 L665.5,332.5078 A2.5,2.5 0 0 1 663,330.0078 L663,275.1406 A2.5,2.5 0 0 1 665.5,272.6406 " fill="#F5F0D5" style="stroke:#9C8C10;stroke-width:1.5;"/><line style="stroke:#9C8C10;stroke-width:1.5;" x1="663" x2="760" y1="290.9297" y2="290.9297"/><text fill="#000000" font-family="Arial" font-size="11" font-weight="bold" lengthAdjust="spacing" textLength="72" x="673" y="285.5986">Components</text><text fill="#000000" font-family="Arial" font-size="11" font-style="italic" lengthAdjust="spacing" textLength="46" x="690.5" y="307.8877">&#171;shared&#187;</text><text fill="#000000" font-family="Arial" font-size="11" lengthAdjust="spacing" textLength="81" x="673" y="320.1768">src/components/</text></g><!--entity Types--><g id="elem_Types"><path d="M1145,411.6406 L1192,411.6406 A3.75,3.75 0 0 1 1194.5,414.1406 L1201.5,429.9297 L1219,429.9297 A2.5,2.5 0 0 1 1221.5,432.4297 L1221.5,469.0078 A2.5,2.5 0 0 1 1219,471.5078 L1145,471.5078 A2.5,2.5 0 0 1 1142.5,469.0078 L1142.5,414.1406 A2.5,2.5 0 0 1 1145,411.6406 " fill="#F5F0D5" style="stroke:#9C8C10;stroke-width:1.5;"/><line style="stroke:#9C8C10;stroke-width:1.5;" x1="1142.5" x2="1201.5" y1="429.9297" y2="429.9297"/><text fill="#000000" font-family="Arial" font-size="11" font-weight="bold" lengthAdjust="spacing" textLength="34" x="1152.5" y="424.5986">Types</text><text fill="#000000" font-family="Arial" font-size="11" font-style="italic" lengthAdjust="spacing" textLength="46" x="1154" y="446.8877">&#171;shared&#187;</text><text fill="#000000" font-family="Arial" font-size="11" lengthAdjust="spacing" textLength="49" x="1152.5" y="459.1768">src/types/</text></g><g id="elem_GMN28"><path d="M919.5,671.6406 L919.5,706.2188 A0,0 0 0 0 919.5,706.2188 L1134.5,706.2188 A0,0 0 0 0 1134.5,706.2188 L1134.5,681.6406 L1124.5,671.6406 L1031,671.6406 L1027,592.8306 L1023,671.6406 L919.5,671.6406 A0,0 0 0 0 919.5,671.6406 " fill="#FEFFDD" style="stroke:#181818;stroke-width:0.5;"/><path d="M1124.5,671.6406 L1124.5,681.6406 L1134.5,681.6406 L1124.5,671.6406 " fill="#FEFFDD" style="stroke:#181818;stroke-width:0.5;"/><text fill="#000000" font-family="Arial" font-size="11" lengthAdjust="spacing" textLength="194" x="925.5" y="686.5986">schema.ts es la fuente &#250;nica de verdad.</text><text fill="#000000" font-family="Arial" font-size="11" lengthAdjust="spacing" textLength="174" x="925.5" y="698.8877">Los tipos de la app se infieren de &#233;l.</text></g><!--link Dashboard to Lib--><g id="link_Dashboard_Lib"><path d="M639.0201,143.1032 C639.1444,143.2975 639.2702,143.4913 639.3976,143.6845 C639.9074,144.4573 640.4423,145.2207 641.003,145.9673 C643.2456,148.9538 645.9,151.6706 649,153.6406 C651.61,155.3006 1088.73,203.5406 1091,205.6406 C1094.93,209.2744 1098.1805,213.4673 1100.8591,218.0269 C1101.5288,219.1668 1099.4486,214.9785 1100.0485,216.1612 " fill="none" id="Dashboard-to-Lib" style="stroke:#444444;stroke-width:1.2;stroke-dasharray:7.0,7.0;"/><polygon fill="#444444" points="1102.7626,221.5123,1102.2588,211.6763,1100.5009,217.0531,1095.1241,215.2951,1102.7626,221.5123" style="stroke:#444444;stroke-width:1.2;"/><text fill="#000000" font-family="Arial" font-size="11" lengthAdjust="spacing" textLength="122" x="1027" y="194.5986">importa l&#243;gica compartida</text></g><!--link Dashboard to Components--><g id="link_Dashboard_Components"><path d="M639.0843,140.7294 C639.3902,141.338 639.7034,141.9608 640.0236,142.5975 C645.1459,152.7844 652.0469,166.5081 659.6588,181.6456 C674.8825,211.9206 690.2545,242.4902 702.6245,267.0902 " fill="none" id="Dashboard-to-Components" style="stroke:#444444;stroke-width:1.2;stroke-dasharray:7.0,7.0;"/><polygon fill="#444444" points="705.32,272.4506,704.8504,262.613,703.0738,267.9836,697.7032,266.2069,705.32,272.4506" style="stroke:#444444;stroke-width:1.2;"/><text fill="#000000" font-family="Arial" font-size="11" lengthAdjust="spacing" textLength="115" x="668" y="194.5986">importa componentes UI</text></g><!--link Dashboard to Types--><g id="link_Dashboard_Types"><path d="M639.0089,143.413 C639.0402,143.4614 639.0716,143.5098 639.1032,143.5582 C639.1662,143.655 639.2296,143.7516 639.2934,143.848 C639.804,144.6195 640.3408,145.38 640.9044,146.122 C643.1587,149.09 645.8425,151.7606 649,153.6406 C697.68,182.6306 1117.26,144.2706 1158,183.6406 C1219.71,243.2706 1203.8968,351.6584 1191.3168,405.4284 " fill="none" id="Dashboard-to-Types" style="stroke:#444444;stroke-width:1.2;stroke-dasharray:7.0,7.0;"/><polygon fill="#444444" points="1189.95,411.2706,1195.8951,403.4185,1191.089,406.4021,1188.1054,401.596,1189.95,411.2706" style="stroke:#444444;stroke-width:1.2;"/><text fill="#000000" font-family="Arial" font-size="11" lengthAdjust="spacing" textLength="100" x="1203" y="306.5986">tipos de la aplicaci&#243;n</text></g><!--link PKG_P to SharedActions--><g id="link_PKG_P_SharedActions"><path d="M404.79,151.7406 C388.52,166.1506 376.28,183.7206 390,197.6406 C400.61,208.4006 920.38,199.0906 934,205.6406 C962.79,219.4906 981.6546,244.2351 995.0146,267.0151 " fill="none" id="PKG_P-to-SharedActions" style="stroke:#444444;stroke-width:1.2;stroke-dasharray:7.0,7.0;"/><polygon fill="#444444" points="998.05,272.1906,996.9473,262.4037,995.5205,267.8776,990.0466,266.4508,998.05,272.1906" style="stroke:#444444;stroke-width:1.2;"/><text fill="#000000" font-family="Arial" font-size="11" lengthAdjust="spacing" textLength="149" x="391" y="194.5986">buildCessionActions("parking")</text></g><!--link PKG_O to SharedActions--><g id="link_PKG_O_SharedActions"><path d="M548.23,153.8906 C545.66,168.9306 546.01,186.4106 557,197.6406 C571.66,212.6106 915.15,196.5006 934,205.6406 C962.74,219.5806 981.6083,244.3188 994.9883,267.0688 " fill="none" id="PKG_O-to-SharedActions" style="stroke:#444444;stroke-width:1.2;stroke-dasharray:7.0,7.0;"/><polygon fill="#444444" points="998.03,272.2406,996.9153,262.4551,995.4952,267.9308,990.0195,266.5107,998.03,272.2406" style="stroke:#444444;stroke-width:1.2;"/><text fill="#000000" font-family="Arial" font-size="11" lengthAdjust="spacing" textLength="142" x="558" y="194.5986">buildCessionActions("office")</text></g><!--link SharedActions to Queries--><g id="link_SharedActions_Queries"><path d="M1015.97,332.6906 C1018.34,355.9406 1021.0487,382.4218 1023.4287,405.6618 " fill="none" id="SharedActions-to-Queries" style="stroke:#444444;stroke-width:1.2;stroke-dasharray:7.0,7.0;"/><polygon fill="#444444" points="1024.04,411.6306,1027.1023,402.2699,1023.5306,406.6566,1019.1439,403.085,1024.04,411.6306" style="stroke:#444444;stroke-width:1.2;"/></g><!--link SharedActions to LIB_AUTH--><g id="link_SharedActions_LIB_AUTH"><path d="M989.46,332.6906 C970.62,355.9406 948.106,383.7278 929.286,406.9678 " fill="none" id="SharedActions-to-LIB_AUTH" style="stroke:#444444;stroke-width:1.2;stroke-dasharray:7.0,7.0;"/><polygon fill="#444444" points="925.51,411.6306,934.2825,407.1537,928.6567,407.7449,928.0655,402.1191,925.51,411.6306" style="stroke:#444444;stroke-width:1.2;"/></g><!--link Queries to DB--><g id="link_Queries_DB"><path d="M1027,471.7506 C1027,490.1906 1027,507.9606 1027,526.4206 " fill="none" id="Queries-to-DB" style="stroke:#444444;stroke-width:1.2;stroke-dasharray:7.0,7.0;"/><polygon fill="#444444" points="1027,532.4206,1031,523.4206,1027,527.4206,1023,523.4206,1027,532.4206" style="stroke:#444444;stroke-width:1.2;"/></g><!--link Lib to Types--><g id="link_Lib_Types"><path d="M1118.0572,326.5572 C1118.1335,326.7612 1118.2101,326.966 1118.2872,327.1717 C1118.4414,327.583 1118.5973,327.9977 1118.755,328.4156 C1123.8,341.7881 1130.6,358.4206 1138,372.6406 C1144.88,385.8606 1150.2818,394.7983 1158.1418,406.5883 " fill="none" id="Lib-to-Types" style="stroke:#444444;stroke-width:1.2;stroke-dasharray:7.0,7.0;"/><polygon fill="#444444" points="1161.47,411.5806,1159.8059,401.8734,1158.6965,407.4204,1153.1495,406.311,1161.47,411.5806" style="stroke:#444444;stroke-width:1.2;"/></g><!--SRC=[nPJ1RXCn48RlVWghEL0kQLCQQ55LAMbLA5HjKLEkrSIUJKmtzc9xYm0XyH2y1EVUkEPDU1B6tircTxCSE67jQUQRt_O_utNtIcTWOS4b9f2d_ineVmaBv2Eh86MkAt-ZlY0V36h93CGzp71ih4GxcIjnhz4vFkWFQn1OQpxLatljv8b9ZUMz_RXgoId9pwp9jIo9ixZOvWduLyRvk8aV7IsCp5DpVCnvJmvHoFq0nRDk067rzl25VBRNfPIgQKdr4ea7GhILra24nFuGTw5BIHYB1TcJ0W-IOLjf3HHdai_XCEbISdEmAEFjac6oApUKra1KEXG7Oh3BlZ7cbK-HdogOaOL0BIORF-ReqJ6sCdJBMR43MRQp3RcVFztPujNHmF4HnRfO2Mu-DM1bk-1qbOYTgWgfYTJAMOIhPX1-_VRLtNKTD8aIIeFh9A_gv0C84ChGh7Mox-kiXsbgT2StgNCW5qehvsrKxkH73Vv3xlnV3Z1wqpH0Ozfz_T5bw5N3Ovgoo1RJHk25cZODbItWTDmu5xMj9N0-lXlTJbxNAHe5gyhJL-2x8jXG4vxSQ74tSUX6HQfE2qXHIx1D_AICRbnLc4L6JTI-qAzcETHKgMQ9_vpX9Zq9KSQUyDy_ljF7Jp6Z7L4BHSaYzjy_jduUlDy_ZcqjrqkkwBRM0q-NZpCbW0Tdm7ebeLssDgPMLXc9Zj-UjqkYEwkTlCgC2x-353XagGeFQVce6OlpM1Gq-XkAfhbAvGdzsIbGXhTNxthhQIoz-fTIaz1JHwfaJJueh8PmCrFDSOcKxeKKFO6QdxnsRyQqySYdndkpu2OfNeiJSrn0dqma6N8YoODvVFbB1_V9dGUq4cIVq0kogsbQnXrofHE55dM8Bd-cVKO3nyDMx0y0]--></g></svg>