<?xml version="1.0" encoding="us-ascii" standalone="no"?><svg xmlns="http://www.w3.org/2000/svg" xmlns:xlink="http://www.w3.org/1999/xlink" contentStyleType="text/css" height="928px" preserveAspectRatio="none" style="width:1007px;height:928px;background:#FFFFFF;" version="1.1" viewBox="0 0 1007 928" width="1007px" zoomAndPan="magnify"><defs/><g><text fill="#000000" font-family="Arial" font-size="14" font-weight="bold" lengthAdjust="spacing" textLength="271" x="369.25" y="27.6738">Secuencia: aprobarSolicitudAusencia()</text><rect fill="none" height="414.625" style="stroke:#000000;stroke-width:1.5;" width="723.5" x="277" y="393.8203"/><rect fill="none" height="305.4688" style="stroke:#000000;stroke-width:1.5;" width="703.5" x="287" y="495.9766"/><line style="stroke:#181818;stroke-width:0.5;stroke-dasharray:5.0,5.0;" x1="47" x2="47" y1="113.9297" y2="851.7344"/><line style="stroke:#181818;stroke-width:0.5;stroke-dasharray:5.0,5.0;" x1="226" x2="226" y1="113.9297" y2="851.7344"/><line style="stroke:#181818;stroke-width:0.5;stroke-dasharray:5.0,5.0;" x1="354" x2="354" y1="113.9297" y2="851.7344"/><line style="stroke:#181818;stroke-width:0.5;stroke-dasharray:5.0,5.0;" x1="605.5" x2="605.5" y1="113.9297" y2="851.7344"/><line style="stroke:#181818;stroke-width:0.5;stroke-dasharray:5.0,5.0;" x1="810.5" x2="810.5" y1="113.9297" y2="851.7344"/><line style="stroke:#181818;stroke-width:0.5;stroke-dasharray:5.0,5.0;" x1="917.5" x2="917.5" y1="113.9297" y2="851.7344"/><text fill="#000000" font-family="Arial" font-size="11" lengthAdjust="spacing" textLength="79" x="5" y="111.5986">Manager / RRHH</text><ellipse cx="47.5" cy="50.1406" fill="#E2E2F0" rx="8" ry="8" style="stroke:#181818;stroke-width:0.5;"/><path d="M47.5,58.1406 L47.5,85.1406 M34.5,66.1406 L60.5,66.1406 M47.5,85.1406 L34.5,100.1406 M47.5,85.1406 L60.5,100.1406 " fill="none" style="stroke:#181818;stroke-width:0.5;"/><text fill="#000000" font-family="Arial" font-size="11" lengthAdjust="spacing" textLength="79" x="5" y="860.6924">Manager / RRHH</text><ellipse cx="47.5" cy="871.5234" fill="#E2E2F0" rx="8" ry="8" style="stroke:#181818;stroke-width:0.5;"/><path d="M47.5,879.5234 L47.5,906.5234 M34.5,887.5234 L60.5,887.5234 M47.5,906.5234 L34.5,921.5234 M47.5,906.5234 L60.5,921.5234 " fill="none" style="stroke:#181818;stroke-width:0.5;"/><rect fill="#E2E2F0" height="38.5781" rx="2.5" ry="2.5" style="stroke:#181818;stroke-width:1.5;" width="121" x="166" y="74.3516"/><text fill="#000000" font-family="Arial" font-size="11" lengthAdjust="spacing" textLength="56" x="198.5" y="91.3096">P&#225;gina RSC</text><text fill="#000000" font-family="Arial" font-size="11" lengthAdjust="spacing" textLength="107" x="173" y="103.5986">/vacaciones/gestionar</text><rect fill="#E2E2F0" height="38.5781" rx="2.5" ry="2.5" style="stroke:#181818;stroke-width:1.5;" width="121" x="166" y="850.7344"/><text fill="#000000" font-family="Arial" font-size="11" lengthAdjust="spacing" textLength="56" x="198.5" y="867.6924">P&#225;gina RSC</text><text fill="#000000" font-family="Arial" font-size="11" lengthAdjust="spacing" textLength="107" x="173" y="879.9814">/vacaciones/gestionar</text><rect fill="#E2E2F0" height="38.5781" rx="2.5" ry="2.5" style="stroke:#181818;stroke-width:1.5;" width="115" x="297" y="74.3516"/><text fill="#000000" font-family="Arial" font-size="11" lengthAdjust="spacing" textLength="95" x="307" y="91.3096">Tabla de solicitudes</text><text fill="#000000" font-family="Arial" font-size="11" lengthAdjust="spacing" textLength="101" x="304" y="103.5986">(componente cliente)</text><rect fill="#E2E2F0" height="38.5781" rx="2.5" ry="2.5" style="stroke:#181818;stroke-width:1.5;" width="115" x="297" y="850.7344"/><text fill="#000000" font-family="Arial" font-size="11" lengthAdjust="spacing" textLength="95" x="307" y="867.6924">Tabla de solicitudes</text><text fill="#000000" font-family="Arial" font-size="11" lengthAdjust="spacing" textLength="101" x="304" y="879.9814">(componente cliente)</text><rect fill="#E2E2F0" height="38.5781" rx="2.5" ry="2.5" style="stroke:#181818;stroke-width:1.5;" width="132" x="539.5" y="74.3516"/><text fill="#000000" font-family="Arial" font-size="11" lengthAdjust="spacing" textLength="118" x="546.5" y="91.3096">approveLeaveRequest()</text><text fill="#000000" font-family="Arial" font-size="11" lengthAdjust="spacing" textLength="67" x="572" y="103.5986">Server Action</text><rect fill="#E2E2F0" height="38.5781" rx="2.5" ry="2.5" style="stroke:#181818;stroke-width:1.5;" width="132" x="539.5" y="850.7344"/><text fill="#000000" font-family="Arial" font-size="11" lengthAdjust="spacing" textLength="118" x="546.5" y="867.6924">approveLeaveRequest()</text><text fill="#000000" font-family="Arial" font-size="11" lengthAdjust="spacing" textLength="67" x="572" y="879.9814">Server Action</text><rect fill="#E2E2F0" height="38.5781" rx="2.5" ry="2.5" style="stroke:#181818;stroke-width:1.5;" width="70" x="775.5" y="74.3516"/><text fill="#000000" font-family="Arial" font-size="11" lengthAdjust="spacing" textLength="23" x="799" y="91.3096">Auth</text><text fill="#000000" font-family="Arial" font-size="11" lengthAdjust="spacing" textLength="56" x="782.5" y="103.5986">(helpers.ts)</text><rect fill="#E2E2F0" height="38.5781" rx="2.5" ry="2.5" style="stroke:#181818;stroke-width:1.5;" width="70" x="775.5" y="850.7344"/><text fill="#000000" font-family="Arial" font-size="11" lengthAdjust="spacing" textLength="23" x="799" y="867.6924">Auth</text><text fill="#000000" font-family="Arial" font-size="11" lengthAdjust="spacing" textLength="56" x="782.5" y="879.9814">(helpers.ts)</text><rect fill="#E2E2F0" height="38.5781" rx="2.5" ry="2.5" style="stroke:#181818;stroke-width:1.5;" width="125" x="855.5" y="74.3516"/><text fill="#000000" font-family="Arial" font-size="11" lengthAdjust="spacing" textLength="70" x="883" y="91.3096">Base de datos</text><text fill="#000000" font-family="Arial" font-size="11" lengthAdjust="spacing" textLength="111" x="862.5" y="103.5986">(Drizzle + PostgreSQL)</text><rect fill="#E2E2F0" height="38.5781" rx="2.5" ry="2.5" style="stroke:#181818;stroke-width:1.5;" width="125" x="855.5" y="850.7344"/><text fill="#000000" font-family="Arial" font-size="11" lengthAdjust="spacing" textLength="70" x="883" y="867.6924">Base de datos</text><text fill="#000000" font-family="Arial" font-size="11" lengthAdjust="spacing" textLength="111" x="862.5" y="879.9814">(Drizzle + PostgreSQL)</text><polygon fill="#444444" points="214.5,138.2188,224.5,142.2188,214.5,146.2188,218.5,142.2188" style="stroke:#444444;stroke-width:1.0;"/><line style="stroke:#444444;stroke-width:1.2;" x1="47.5" x2="220.5" y1="142.2188" y2="142.2188"/><text fill="#000000" font-family="Arial" font-size="11" lengthAdjust="spacing" textLength="155" x="54.5" y="137.8877">accede a /vacaciones/gestionar</text><polygon fill="#444444" points="906,164.5078,916,168.5078,906,172.5078,910,168.5078" style="stroke:#444444;stroke-width:1.0;"/><line style="stroke:#444444;stroke-width:1.2;" x1="226.5" x2="912" y1="168.5078" y2="168.5078"/><text fill="#000000" font-family="Arial" font-size="11" lengthAdjust="spacing" textLength="188" x="233.5" y="164.1768">consulta solicitudes del manager/RRHH</text><polygon fill="#444444" points="237.5,190.7969,227.5,194.7969,237.5,198.7969,233.5,194.7969" style="stroke:#444444;stroke-width:1.0;"/><line style="stroke:#444444;stroke-width:1.2;stroke-dasharray:2.0,2.0;" x1="231.5" x2="917" y1="194.7969" y2="194.7969"/><text fill="#000000" font-family="Arial" font-size="11" lengthAdjust="spacing" textLength="92" x="243.5" y="190.4658">SolicitudAusencia[]</text><polygon fill="#444444" points="58.5,217.0859,48.5,221.0859,58.5,225.0859,54.5,221.0859" style="stroke:#444444;stroke-width:1.0;"/><line style="stroke:#444444;stroke-width:1.2;stroke-dasharray:2.0,2.0;" x1="52.5" x2="225.5" y1="221.0859" y2="221.0859"/><text fill="#000000" font-family="Arial" font-size="11" lengthAdjust="spacing" textLength="148" x="64.5" y="216.7549">tabla de solicitudes pendientes</text><polygon fill="#444444" points="342.5,243.375,352.5,247.375,342.5,251.375,346.5,247.375" style="stroke:#444444;stroke-width:1.0;"/><line style="stroke:#444444;stroke-width:1.2;" x1="47.5" x2="348.5" y1="247.375" y2="247.375"/><text fill="#000000" font-family="Arial" font-size="11" lengthAdjust="spacing" textLength="183" x="54.5" y="243.0439">selecciona solicitud y pulsa "Aprobar"</text><polygon fill="#444444" points="58.5,269.6641,48.5,273.6641,58.5,277.6641,54.5,273.6641" style="stroke:#444444;stroke-width:1.0;"/><line style="stroke:#444444;stroke-width:1.2;stroke-dasharray:2.0,2.0;" x1="52.5" x2="353.5" y1="273.6641" y2="273.6641"/><text fill="#000000" font-family="Arial" font-size="11" lengthAdjust="spacing" textLength="227" x="64.5" y="269.333">panel de detalle con campo de notas (opcional)</text><polygon fill="#444444" points="342.5,295.9531,352.5,299.9531,342.5,303.9531,346.5,299.9531" style="stroke:#444444;stroke-width:1.0;"/><line style="stroke:#444444;stroke-width:1.2;" x1="47.5" x2="348.5" y1="299.9531" y2="299.9531"/><text fill="#000000" font-family="Arial" font-size="11" lengthAdjust="spacing" textLength="129" x="54.5" y="295.6221">introduce notas y confirma</text><polygon fill="#444444" points="593.5,322.2422,603.5,326.2422,593.5,330.2422,597.5,326.2422" style="stroke:#444444;stroke-width:1.0;"/><line style="stroke:#444444;stroke-width:1.2;" x1="354.5" x2="599.5" y1="326.2422" y2="326.2422"/><text fill="#000000" font-family="Arial" font-size="11" lengthAdjust="spacing" textLength="173" x="361.5" y="321.9111">approveLeaveRequest({ id, notas })</text><polygon fill="#444444" points="798.5,348.5313,808.5,352.5313,798.5,356.5313,802.5,352.5313" style="stroke:#444444;stroke-width:1.0;"/><line style="stroke:#444444;stroke-width:1.2;" x1="605.5" x2="804.5" y1="352.5313" y2="352.5313"/><text fill="#000000" font-family="Arial" font-size="11" lengthAdjust="spacing" textLength="82" x="612.5" y="348.2002">getCurrentUser()</text><polygon fill="#444444" points="616.5,374.8203,606.5,378.8203,616.5,382.8203,612.5,378.8203" style="stroke:#444444;stroke-width:1.0;"/><line style="stroke:#444444;stroke-width:1.2;stroke-dasharray:2.0,2.0;" x1="610.5" x2="809.5" y1="378.8203" y2="378.8203"/><text fill="#000000" font-family="Arial" font-size="11" lengthAdjust="spacing" textLength="133" x="622.5" y="374.4893">AuthUser { id, perfil: { rol } }</text><path d="M277,393.8203 L335,393.8203 L335,398.1094 L325,408.1094 L277,408.1094 L277,393.8203 " fill="#EEEEEE" style="stroke:#000000;stroke-width:1.5;"/><rect fill="none" height="414.625" style="stroke:#000000;stroke-width:1.5;" width="723.5" x="277" y="393.8203"/><text fill="#000000" font-family="Arial" font-size="11" font-weight="bold" lengthAdjust="spacing" textLength="13" x="292" y="404.7783">alt</text><text fill="#000000" font-family="Arial" font-size="11" font-weight="bold" lengthAdjust="spacing" textLength="166" x="350" y="405.7783">[rol sin permisos (empleado)]</text><polygon fill="#444444" points="365.5,422.3984,355.5,426.3984,365.5,430.3984,361.5,426.3984" style="stroke:#444444;stroke-width:1.0;"/><line style="stroke:#444444;stroke-width:1.2;stroke-dasharray:2.0,2.0;" x1="359.5" x2="604.5" y1="426.3984" y2="426.3984"/><text fill="#000000" font-family="Arial" font-size="11" lengthAdjust="spacing" textLength="102" x="371.5" y="422.0674">Error &#8212; sin permisos</text><line style="stroke:#000000;stroke-width:1.0;stroke-dasharray:2.0,2.0;" x1="277" x2="1000.5" y1="435.3984" y2="435.3984"/><polygon fill="#444444" points="906,450.6875,916,454.6875,906,458.6875,910,454.6875" style="stroke:#444444;stroke-width:1.0;"/><line style="stroke:#444444;stroke-width:1.2;" x1="605.5" x2="912" y1="454.6875" y2="454.6875"/><text fill="#000000" font-family="Arial" font-size="11" lengthAdjust="spacing" textLength="177" x="612.5" y="450.3564">consulta estado actual de la solicitud</text><polygon fill="#444444" points="616.5,476.9766,606.5,480.9766,616.5,484.9766,612.5,480.9766" style="stroke:#444444;stroke-width:1.0;"/><line style="stroke:#444444;stroke-width:1.2;stroke-dasharray:2.0,2.0;" x1="610.5" x2="917" y1="480.9766" y2="480.9766"/><text fill="#000000" font-family="Arial" font-size="11" lengthAdjust="spacing" textLength="47" x="622.5" y="476.6455">{ estado }</text><path d="M287,495.9766 L345,495.9766 L345,500.2656 L335,510.2656 L287,510.2656 L287,495.9766 " fill="#EEEEEE" style="stroke:#000000;stroke-width:1.5;"/><rect fill="none" height="305.4688" style="stroke:#000000;stroke-width:1.5;" width="703.5" x="287" y="495.9766"/><text fill="#000000" font-family="Arial" font-size="11" font-weight="bold" lengthAdjust="spacing" textLength="13" x="302" y="506.9346">alt</text><text fill="#000000" font-family="Arial" font-size="11" font-weight="bold" lengthAdjust="spacing" textLength="176" x="360" y="507.9346">[manager Y estado = pendiente]</text><polygon fill="#444444" points="906,524.5547,916,528.5547,906,532.5547,910,528.5547" style="stroke:#444444;stroke-width:1.0;"/><line style="stroke:#444444;stroke-width:1.2;" x1="605.5" x2="912" y1="528.5547" y2="528.5547"/><text fill="#000000" font-family="Arial" font-size="11" lengthAdjust="spacing" textLength="187" x="612.5" y="524.2236">UPDATE estado &#8594; aprobada_manager</text><polygon fill="#444444" points="616.5,550.8438,606.5,554.8438,616.5,558.8438,612.5,554.8438" style="stroke:#444444;stroke-width:1.0;"/><line style="stroke:#444444;stroke-width:1.2;stroke-dasharray:2.0,2.0;" x1="610.5" x2="917" y1="554.8438" y2="554.8438"/><text fill="#000000" font-family="Arial" font-size="11" lengthAdjust="spacing" textLength="15" x="622.5" y="550.5127">OK</text><line style="stroke:#444444;stroke-width:1.2;" x1="605.5" x2="647.5" y1="581.1328" y2="581.1328"/><line style="stroke:#444444;stroke-width:1.2;" x1="647.5" x2="647.5" y1="581.1328" y2="594.1328"/><line style="stroke:#444444;stroke-width:1.2;" x1="606.5" x2="647.5" y1="594.1328" y2="594.1328"/><polygon fill="#444444" points="616.5,590.1328,606.5,594.1328,616.5,598.1328,612.5,594.1328" style="stroke:#444444;stroke-width:1.0;"/><text fill="#000000" font-family="Arial" font-size="11" lengthAdjust="spacing" textLength="191" x="612.5" y="576.8018">revalidatePath("/vacaciones/gestionar")</text><polygon fill="#444444" points="365.5,616.4219,355.5,620.4219,365.5,624.4219,361.5,620.4219" style="stroke:#444444;stroke-width:1.0;"/><line style="stroke:#444444;stroke-width:1.2;stroke-dasharray:2.0,2.0;" x1="359.5" x2="604.5" y1="620.4219" y2="620.4219"/><text fill="#000000" font-family="Arial" font-size="11" lengthAdjust="spacing" textLength="209" x="371.5" y="616.0908">OK &#8212; { nuevoEstado: aprobada_manager }</text><line style="stroke:#000000;stroke-width:1.0;stroke-dasharray:2.0,2.0;" x1="287" x2="990.5" y1="629.4219" y2="629.4219"/><text fill="#000000" font-family="Arial" font-size="11" font-weight="bold" lengthAdjust="spacing" textLength="242" x="292" y="639.3799">[RRHH/admin Y estado = aprobada_manager]</text><polygon fill="#444444" points="906,657,916,661,906,665,910,661" style="stroke:#444444;stroke-width:1.0;"/><line style="stroke:#444444;stroke-width:1.2;" x1="605.5" x2="912" y1="661" y2="661"/><text fill="#000000" font-family="Arial" font-size="11" lengthAdjust="spacing" textLength="165" x="612.5" y="656.6689">UPDATE estado &#8594; aprobada_rrhh</text><polygon fill="#444444" points="616.5,683.2891,606.5,687.2891,616.5,691.2891,612.5,687.2891" style="stroke:#444444;stroke-width:1.0;"/><line style="stroke:#444444;stroke-width:1.2;stroke-dasharray:2.0,2.0;" x1="610.5" x2="917" y1="687.2891" y2="687.2891"/><text fill="#000000" font-family="Arial" font-size="11" lengthAdjust="spacing" textLength="15" x="622.5" y="682.958">OK</text><line style="stroke:#444444;stroke-width:1.2;" x1="605.5" x2="647.5" y1="713.5781" y2="713.5781"/><line style="stroke:#444444;stroke-width:1.2;" x1="647.5" x2="647.5" y1="713.5781" y2="726.5781"/><line style="stroke:#444444;stroke-width:1.2;" x1="606.5" x2="647.5" y1="726.5781" y2="726.5781"/><polygon fill="#444444" points="616.5,722.5781,606.5,726.5781,616.5,730.5781,612.5,726.5781" style="stroke:#444444;stroke-width:1.0;"/><text fill="#000000" font-family="Arial" font-size="11" lengthAdjust="spacing" textLength="191" x="612.5" y="709.2471">revalidatePath("/vacaciones/gestionar")</text><polygon fill="#444444" points="365.5,748.8672,355.5,752.8672,365.5,756.8672,361.5,752.8672" style="stroke:#444444;stroke-width:1.0;"/><line style="stroke:#444444;stroke-width:1.2;stroke-dasharray:2.0,2.0;" x1="359.5" x2="604.5" y1="752.8672" y2="752.8672"/><text fill="#000000" font-family="Arial" font-size="11" lengthAdjust="spacing" textLength="187" x="371.5" y="748.5361">OK &#8212; { nuevoEstado: aprobada_rrhh }</text><line style="stroke:#000000;stroke-width:1.0;stroke-dasharray:2.0,2.0;" x1="287" x2="990.5" y1="761.8672" y2="761.8672"/><text fill="#000000" font-family="Arial" font-size="11" font-weight="bold" lengthAdjust="spacing" textLength="107" x="292" y="771.8252">[transici&#243;n inv&#225;lida]</text><polygon fill="#444444" points="365.5,789.4453,355.5,793.4453,365.5,797.4453,361.5,793.4453" style="stroke:#444444;stroke-width:1.0;"/><line style="stroke:#444444;stroke-width:1.2;stroke-dasharray:2.0,2.0;" x1="359.5" x2="604.5" y1="793.4453" y2="793.4453"/><text fill="#000000" font-family="Arial" font-size="11" lengthAdjust="spacing" textLength="227" x="371.5" y="789.1143">Error &#8212; no puedes aprobar en el estado actual</text><polygon fill="#444444" points="58.5,829.7344,48.5,833.7344,58.5,837.7344,54.5,833.7344" style="stroke:#444444;stroke-width:1.0;"/><line style="stroke:#444444;stroke-width:1.2;stroke-dasharray:2.0,2.0;" x1="52.5" x2="353.5" y1="833.7344" y2="833.7344"/><text fill="#000000" font-family="Arial" font-size="11" lengthAdjust="spacing" textLength="198" x="64.5" y="829.4033">actualiza estado en tabla o muestra error</text><!--SRC=[nLHTRXCn47xtAKRX9H6qKH6yLA9IchIgr493qZmWYj3KEqsiUkt5zWOrLIMUE03Y0Zq3H-XDUXB6pcwpeK7YZPNoiplVVFFDD-FrLyeKw327Z2wnrE7Gcl0ESuAUKwY5tnGVgmN1pauZwEbBIKPIppdxzMocv9KXxs5d- -NVG7shhODdhzBL0F5tK58LQCA-THcv9jlh1l02vTNKsT9a5TLXkeG8AcY2CSbOJE4kOE7i1RgnrKmSognN-XHfTuH06JYtzHODJib15qQZewCMe8U9Q4Y1rl3-RgeCmcZSFpVTEKgKohAixfHyu7_eKjQGQTOJp_128xi7lgvF_joqfSqBpZU1G6eLVpk9eDzVJyU2rS_fX71EesYW3-tEkHcJcxFUdeorK-AujvxOAyECwyn85-JyTl1B_lXu7RYFdgA-38EDoWPEBHRiu7COMX-cZiRlJvQvWtqX9h2rbxe4DbPAuaI4ZNw8X6BqO9-nqXhFwuDD6xYgXdnfVJSQBnYwjU9_Ch6FdofInamO43Pu2mMPB1dgAxNzFaCzQP9HOaC1N4DHQezird95MeAnDJcxm_AYCHHGio7S0aZaiSM7nWPsf6sBnAaxZLBA16UpKjQWwvXvgLoE8l7lyQoYUnicUmCgUr6btNO4unWTHyRuAOL-wHntDl7aU7dJywsQBjx502mvUEYNIk_odRCQRk6MTrs7TEELYU5SUSiTK5vemins14IYhRgB0pwb3Xw-_Lp32zAUAkIVa-K6c8Ut8fIOZDCDhpcd6cvIUrEZMHT0L5Rj0Noe8szMasJ8Mid9SD0xEwY13zz_L6SymyyLJSfe5ZmzRf2a9uxcg1LlFGqnpDgjpOUwyvXM6tDwd5ov0LFIt1ua3RjF171Z0D6iz4RfOfQpYutUDWh-jnQTcyt-Nt-n-ggvuD1udl3zByDxFx-_YnMVKAvsoLW-SXIFQVLM1ZBCjBuxaTna8dwQ1t8PL8l7JUFKvHl0GXwFZ-D8h2H-0m00]--></g></svg>