<svg xmlns="http://www.w3.org/2000/svg" xmlns:xlink="http://www.w3.org/1999/xlink" contentStyleType="text/css" data-diagram-type="SEQUENCE" height="440px" preserveAspectRatio="none" style="width:580px;height:440px;background:#FFFFFF;" version="1.1" viewBox="0 0 580 440" width="580px" zoomAndPan="magnify"><?plantuml 1.2026.4beta2?><defs/><g><g class="participant-lifeline" data-entity-uid="part1" data-qualified-name="M" data-source-line="8" id="part1-lifeline"><g><title>Manager</title><rect fill="#000000" fill-opacity="0.00000" height="286.0469" width="8" x="25.9165" y="76.6406"/><line style="stroke:#181818;stroke-width:0.5;stroke-dasharray:5,5;" x1="29" x2="29" y1="76.6406" y2="362.6875"/></g></g><g class="participant-lifeline" data-entity-uid="part2" data-qualified-name="Page" data-source-line="9" id="part2-lifeline"><g><title>BandejaSolicitudes</title><rect fill="#000000" fill-opacity="0.00000" height="286.0469" width="8" x="158.7642" y="76.6406"/><line style="stroke:#181818;stroke-width:0.5;stroke-dasharray:5,5;" x1="162.2642" x2="162.2642" y1="76.6406" y2="362.6875"/></g></g><g class="participant-lifeline" data-entity-uid="part3" data-qualified-name="Action" data-source-line="10" id="part3-lifeline"><g><title>approveLeaveRequest</title><rect fill="#000000" fill-opacity="0.00000" height="286.0469" width="8" x="361.0259" y="76.6406"/><line style="stroke:#181818;stroke-width:0.5;stroke-dasharray:5,5;" x1="364.9688" x2="364.9688" y1="76.6406" y2="362.6875"/></g></g><g class="participant-lifeline" data-entity-uid="part4" data-qualified-name="DB" data-source-line="11" id="part4-lifeline"><g><title>PostgreSQL</title><rect fill="#000000" fill-opacity="0.00000" height="286.0469" width="8" x="533.6392" y="76.6406"/><line style="stroke:#181818;stroke-width:0.5;stroke-dasharray:5,5;" x1="536.7988" x2="536.7988" y1="76.6406" y2="362.6875"/></g></g><g class="participant participant-head" data-entity-uid="part1" data-qualified-name="M" data-source-line="8" id="part1-head"><text fill="#000000" font-family="Arial" font-size="10" lengthAdjust="spacing" textLength="43.833" x="5" y="74.2822">Manager</text><ellipse cx="29.9165" cy="13.5" fill="#E2E2F0" rx="8" ry="8" style="stroke:#181818;stroke-width:0.5;"/><path d="M29.9165,21.5 L29.9165,48.5 M16.9165,29.5 L42.9165,29.5 M29.9165,48.5 L16.9165,63.5 M29.9165,48.5 L42.9165,63.5" fill="none" style="stroke:#181818;stroke-width:0.5;"/></g><g class="participant participant-tail" data-entity-uid="part1" data-qualified-name="M" data-source-line="8" id="part1-tail"><text fill="#000000" font-family="Arial" font-size="10" lengthAdjust="spacing" textLength="43.833" x="5" y="370.9697">Manager</text><ellipse cx="29.9165" cy="381.8281" fill="#E2E2F0" rx="8" ry="8" style="stroke:#181818;stroke-width:0.5;"/><path d="M29.9165,389.8281 L29.9165,416.8281 M16.9165,397.8281 L42.9165,397.8281 M29.9165,416.8281 L16.9165,431.8281 M29.9165,416.8281 L42.9165,431.8281" fill="none" style="stroke:#181818;stroke-width:0.5;"/></g><g class="participant participant-head" data-entity-uid="part2" data-qualified-name="Page" data-source-line="9" id="part2-head"><rect fill="#E2E2F0" height="37.2813" rx="2.5" ry="2.5" style="stroke:#181818;stroke-width:1.5;" width="109" x="108.2642" y="38.3594"/><text fill="#000000" font-family="Arial" font-size="10" lengthAdjust="spacing" textLength="95" x="115.2642" y="54.6416">BandejaSolicitudes</text><text fill="#000000" font-family="Arial" font-size="10" lengthAdjust="spacing" textLength="24.6582" x="150.4351" y="66.2822">Page</text></g><g class="participant participant-tail" data-entity-uid="part2" data-qualified-name="Page" data-source-line="9" id="part2-tail"><rect fill="#E2E2F0" height="37.2813" rx="2.5" ry="2.5" style="stroke:#181818;stroke-width:1.5;" width="109" x="108.2642" y="361.6875"/><text fill="#000000" font-family="Arial" font-size="10" lengthAdjust="spacing" textLength="95" x="115.2642" y="377.9697">BandejaSolicitudes</text><text fill="#000000" font-family="Arial" font-size="10" lengthAdjust="spacing" textLength="24.6582" x="150.4351" y="389.6104">Page</text></g><g class="participant participant-head" data-entity-uid="part3" data-qualified-name="Action" data-source-line="10" id="part3-head"><rect fill="#E2E2F0" height="37.2813" rx="2.5" ry="2.5" style="stroke:#181818;stroke-width:1.5;" width="126.1143" x="301.9688" y="38.3594"/><text fill="#000000" font-family="Arial" font-size="10" lengthAdjust="spacing" textLength="112.1143" x="308.9688" y="54.6416">approveLeaveRequest</text><text fill="#000000" font-family="Arial" font-size="10" lengthAdjust="spacing" textLength="75.2686" x="327.3916" y="66.2822">(Server Action)</text></g><g class="participant participant-tail" data-entity-uid="part3" data-qualified-name="Action" data-source-line="10" id="part3-tail"><rect fill="#E2E2F0" height="37.2813" rx="2.5" ry="2.5" style="stroke:#181818;stroke-width:1.5;" width="126.1143" x="301.9688" y="361.6875"/><text fill="#000000" font-family="Arial" font-size="10" lengthAdjust="spacing" textLength="112.1143" x="308.9688" y="377.9697">approveLeaveRequest</text><text fill="#000000" font-family="Arial" font-size="10" lengthAdjust="spacing" textLength="75.2686" x="327.3916" y="389.6104">(Server Action)</text></g><g class="participant participant-head" data-entity-uid="part4" data-qualified-name="DB" data-source-line="11" id="part4-head"><text fill="#000000" font-family="Arial" font-size="10" lengthAdjust="spacing" textLength="57.6807" x="505.7988" y="74.2822">PostgreSQL</text><path d="M519.6392,29 C519.6392,19 537.6392,19 537.6392,19 C537.6392,19 555.6392,19 555.6392,29 L555.6392,55 C555.6392,65 537.6392,65 537.6392,65 C537.6392,65 519.6392,65 519.6392,55 L519.6392,29" fill="#E2E2F0" style="stroke:#181818;stroke-width:0.5;"/><path d="M519.6392,29 C519.6392,39 537.6392,39 537.6392,39 C537.6392,39 555.6392,39 555.6392,29" fill="none" style="stroke:#181818;stroke-width:0.5;"/></g><g class="participant participant-tail" data-entity-uid="part4" data-qualified-name="DB" data-source-line="11" id="part4-tail"><text fill="#000000" font-family="Arial" font-size="10" lengthAdjust="spacing" textLength="57.6807" x="505.7988" y="370.9697">PostgreSQL</text><path d="M519.6392,383.3281 C519.6392,373.3281 537.6392,373.3281 537.6392,373.3281 C537.6392,373.3281 555.6392,373.3281 555.6392,383.3281 L555.6392,409.3281 C555.6392,419.3281 537.6392,419.3281 537.6392,419.3281 C537.6392,419.3281 519.6392,419.3281 519.6392,409.3281 L519.6392,383.3281" fill="#E2E2F0" style="stroke:#181818;stroke-width:0.5;"/><path d="M519.6392,383.3281 C519.6392,393.3281 537.6392,393.3281 537.6392,393.3281 C537.6392,393.3281 555.6392,393.3281 555.6392,383.3281" fill="none" style="stroke:#181818;stroke-width:0.5;"/></g><g class="message" data-entity-1="part1" data-entity-2="part2" data-source-line="13" id="msg1"><polygon fill="#181818" points="150.7642,100.2813,160.7642,104.2813,150.7642,108.2813,154.7642,104.2813" style="stroke:#181818;stroke-width:1;"/><line style="stroke:#181818;stroke-width:1.5;" x1="29.9165" x2="156.7642" y1="104.2813" y2="104.2813"/><text fill="#000000" font-family="Arial" font-size="10" lengthAdjust="spacing" textLength="66.1377" x="36.9165" y="99.9229">abre bandeja</text></g><g class="message" data-entity-1="part2" data-entity-2="part2" data-source-line="15" id="msg2"><line style="stroke:#181818;stroke-width:1.5;" x1="162.7642" x2="204.7642" y1="141.5625" y2="141.5625"/><line style="stroke:#181818;stroke-width:1.5;" x1="204.7642" x2="204.7642" y1="141.5625" y2="154.5625"/><line style="stroke:#181818;stroke-width:1.5;" x1="163.7642" x2="204.7642" y1="154.5625" y2="154.5625"/><polygon fill="#181818" points="173.7642,150.5625,163.7642,154.5625,173.7642,158.5625,169.7642,154.5625" style="stroke:#181818;stroke-width:1;"/><text fill="#000000" font-family="Arial" font-size="10" lengthAdjust="spacing" textLength="143.4375" x="169.7642" y="125.5635">carga solicitudes pendientes</text><text fill="#000000" font-family="Arial" font-size="10" lengthAdjust="spacing" textLength="96.6504" x="169.7642" y="137.2041">(filtro: manager_id)</text></g><g class="message" data-entity-1="part2" data-entity-2="part1" data-source-line="17" id="msg3"><polygon fill="#181818" points="40.9165,176.2031,30.9165,180.2031,40.9165,184.2031,36.9165,180.2031" style="stroke:#181818;stroke-width:1;"/><line style="stroke:#181818;stroke-width:1.5;stroke-dasharray:2,2;" x1="34.9165" x2="161.7642" y1="180.2031" y2="180.2031"/><text fill="#000000" font-family="Arial" font-size="10" lengthAdjust="spacing" textLength="108.8477" x="46.9165" y="175.8447">solicitudes del equipo</text></g><g class="message" data-entity-1="part1" data-entity-2="part2" data-source-line="19" id="msg4"><polygon fill="#181818" points="150.7642,213.4844,160.7642,217.4844,150.7642,221.4844,154.7642,217.4844" style="stroke:#181818;stroke-width:1;"/><line style="stroke:#181818;stroke-width:1.5;" x1="29.9165" x2="156.7642" y1="217.4844" y2="217.4844"/><text fill="#000000" font-family="Arial" font-size="10" lengthAdjust="spacing" textLength="97.5977" x="36.9165" y="201.4854">selecciona solicitud</text><text fill="#000000" font-family="Arial" font-size="10" lengthAdjust="spacing" textLength="99.9268" x="36.9165" y="213.126">+ aprueba con nota</text></g><g class="message" data-entity-1="part2" data-entity-2="part3" data-source-line="21" id="msg5"><polygon fill="#181818" points="353.0259,239.125,363.0259,243.125,353.0259,247.125,357.0259,243.125" style="stroke:#181818;stroke-width:1;"/><line style="stroke:#181818;stroke-width:1.5;" x1="162.7642" x2="359.0259" y1="243.125" y2="243.125"/><text fill="#000000" font-family="Arial" font-size="10" lengthAdjust="spacing" textLength="178.2617" x="169.7642" y="238.7666">approveLeaveRequest({ id, level })</text></g><g class="message" data-entity-1="part3" data-entity-2="part3" data-source-line="23" id="msg6"><line style="stroke:#181818;stroke-width:1.5;" x1="365.0259" x2="407.0259" y1="280.4063" y2="280.4063"/><line style="stroke:#181818;stroke-width:1.5;" x1="407.0259" x2="407.0259" y1="280.4063" y2="293.4063"/><line style="stroke:#181818;stroke-width:1.5;" x1="366.0259" x2="407.0259" y1="293.4063" y2="293.4063"/><polygon fill="#181818" points="376.0259,289.4063,366.0259,293.4063,376.0259,297.4063,372.0259,293.4063" style="stroke:#181818;stroke-width:1;"/><text fill="#000000" font-family="Arial" font-size="10" lengthAdjust="spacing" textLength="130.9863" x="372.0259" y="264.4072">requireManagerOrAbove()</text><text fill="#000000" font-family="Arial" font-size="10" lengthAdjust="spacing" textLength="149.4287" x="372.0259" y="276.0479">ausenciaSchema.parse(input)</text></g><g class="message" data-entity-1="part3" data-entity-2="part4" data-source-line="25" id="msg7"><polygon fill="#181818" points="525.6392,315.0469,535.6392,319.0469,525.6392,323.0469,529.6392,319.0469" style="stroke:#181818;stroke-width:1;"/><line style="stroke:#181818;stroke-width:1.5;" x1="365.0259" x2="531.6392" y1="319.0469" y2="319.0469"/><text fill="#000000" font-family="Arial" font-size="10" lengthAdjust="spacing" textLength="148.6133" x="372.0259" y="314.6885">transita a aprobado_manager</text></g><g class="message" data-entity-1="part3" data-entity-2="part2" data-source-line="27" id="msg8"><polygon fill="#181818" points="173.7642,340.6875,163.7642,344.6875,173.7642,348.6875,169.7642,344.6875" style="stroke:#181818;stroke-width:1;"/><line style="stroke:#181818;stroke-width:1.5;stroke-dasharray:2,2;" x1="167.7642" x2="364.0259" y1="344.6875" y2="344.6875"/><text fill="#000000" font-family="Arial" font-size="10" lengthAdjust="spacing" textLength="150.5908" x="179.7642" y="340.3291">ActionResult&lt;LeaveRequest&gt;</text></g><?plantuml-src TPB1JYCn38RlUGghfwaM41ouL0Yf5TeJPO7XM0bv4hVDaZfPErF4hlRToNI0JWLSHXdxz-_FSVJ9SqB13GJFb5yIGOhXfVin-f5pjCGsv9-Hymrk2ARYCNoTh_rVWhFJGLBfJqjiQIeIdn_MtZungSBPoVb0LBxPMv-GyooA8_bEg6jqyTdp2fOOb8n1cwF071bN980ASpCmWz4CsT5lh6CeeTmwqWNV5kseqtQ7Gpcc975BruHRkk_8DI-ugacsnNrgiuyytfNsP-CmOuDACBgDcbT2zTtrBdyrCsOEnvUx7XF0HWYQdiMOBhRFMPGLWku98H4xJvmxs6hfGvOuWKq_uwDtutU7OZ6V75Gw2b2mVOe7xPK2MLk01tqM_0CmIKiDWeqC7FC0hP-lW7--aEeVU7S4WRQbsVy2qsk7LT8n2BsjvPTCc-9HZHUChPR7uB6sQzhWIRbxfQeijyq7FbUp2MH1LfyHiCECJLdyuziTxAKV4_Q1UzBo42-6j9Ul?></g></svg>