<svg xmlns="http://www.w3.org/2000/svg" xmlns:xlink="http://www.w3.org/1999/xlink" contentStyleType="text/css" data-diagram-type="SEQUENCE" height="440px" preserveAspectRatio="none" style="width:581px;height:440px;background:#FFFFFF;" version="1.1" viewBox="0 0 581 440" width="581px" zoomAndPan="magnify"><?plantuml 1.2026.4?><defs/><g><g class="participant-lifeline" data-entity-uid="part1" data-qualified-name="R" data-source-line="10" id="part1-lifeline"><g><title>RRHH</title><rect fill="#000000" fill-opacity="0.00000" height="286.0469" width="8" x="18.4678" y="76.6406"/><line style="stroke:#181818;stroke-width:0.5;stroke-dasharray:5,5;" x1="22" x2="22" y1="76.6406" y2="362.6875"/></g></g><g class="participant-lifeline" data-entity-uid="part2" data-qualified-name="Page" data-source-line="11" id="part2-lifeline"><g><title>BandejaSolicitudes</title><rect fill="#000000" fill-opacity="0.00000" height="286.0469" width="8" x="164.5527" y="76.6406"/><line style="stroke:#181818;stroke-width:0.5;stroke-dasharray:5,5;" x1="168.0527" x2="168.0527" y1="76.6406" y2="362.6875"/></g></g><g class="participant-lifeline" data-entity-uid="part3" data-qualified-name="Action" data-source-line="12" id="part3-lifeline"><g><title>approveLeaveRequest</title><rect fill="#000000" fill-opacity="0.00000" height="286.0469" width="8" x="370.7744" y="76.6406"/><line style="stroke:#181818;stroke-width:0.5;stroke-dasharray:5,5;" x1="374.7173" x2="374.7173" y1="76.6406" y2="362.6875"/></g></g><g class="participant-lifeline" data-entity-uid="part4" data-qualified-name="DB" data-source-line="13" id="part4-lifeline"><g><title>PostgreSQL</title><rect fill="#000000" fill-opacity="0.00000" height="286.0469" width="8" x="534.2031" y="76.6406"/><line style="stroke:#181818;stroke-width:0.5;stroke-dasharray:5,5;" x1="537.3628" x2="537.3628" y1="76.6406" y2="362.6875"/></g></g><g class="participant participant-head" data-entity-uid="part1" data-qualified-name="R" data-source-line="10" id="part1-head"><text fill="#000000" font-family="Arial" font-size="10" lengthAdjust="spacing" textLength="28.9355" x="5" y="74.2822">RRHH</text><ellipse cx="22.4678" cy="13.5" fill="#E2E2F0" rx="8" ry="8" style="stroke:#181818;stroke-width:0.5;"/><path d="M22.4678,21.5 L22.4678,48.5 M9.4678,29.5 L35.4678,29.5 M22.4678,48.5 L9.4678,63.5 M22.4678,48.5 L35.4678,63.5" fill="none" style="stroke:#181818;stroke-width:0.5;"/></g><g class="participant participant-tail" data-entity-uid="part1" data-qualified-name="R" data-source-line="10" id="part1-tail"><text fill="#000000" font-family="Arial" font-size="10" lengthAdjust="spacing" textLength="28.9355" x="5" y="370.9697">RRHH</text><ellipse cx="22.4678" cy="381.8281" fill="#E2E2F0" rx="8" ry="8" style="stroke:#181818;stroke-width:0.5;"/><path d="M22.4678,389.8281 L22.4678,416.8281 M9.4678,397.8281 L35.4678,397.8281 M22.4678,416.8281 L9.4678,431.8281 M22.4678,416.8281 L35.4678,431.8281" fill="none" style="stroke:#181818;stroke-width:0.5;"/></g><g class="participant participant-head" data-entity-uid="part2" data-qualified-name="Page" data-source-line="11" id="part2-head"><rect fill="#E2E2F0" height="37.2813" rx="2.5" ry="2.5" style="stroke:#181818;stroke-width:1.5;" width="109" x="114.0527" y="38.3594"/><text fill="#000000" font-family="Arial" font-size="10" lengthAdjust="spacing" textLength="95" x="121.0527" y="54.6416">BandejaSolicitudes</text><text fill="#000000" font-family="Arial" font-size="10" lengthAdjust="spacing" textLength="24.6582" x="156.2236" y="66.2822">Page</text></g><g class="participant participant-tail" data-entity-uid="part2" data-qualified-name="Page" data-source-line="11" id="part2-tail"><rect fill="#E2E2F0" height="37.2813" rx="2.5" ry="2.5" style="stroke:#181818;stroke-width:1.5;" width="109" x="114.0527" y="361.6875"/><text fill="#000000" font-family="Arial" font-size="10" lengthAdjust="spacing" textLength="95" x="121.0527" y="377.9697">BandejaSolicitudes</text><text fill="#000000" font-family="Arial" font-size="10" lengthAdjust="spacing" textLength="24.6582" x="156.2236" y="389.6104">Page</text></g><g class="participant participant-head" data-entity-uid="part3" data-qualified-name="Action" data-source-line="12" id="part3-head"><rect fill="#E2E2F0" height="37.2813" rx="2.5" ry="2.5" style="stroke:#181818;stroke-width:1.5;" width="126.1143" x="311.7173" y="38.3594"/><text fill="#000000" font-family="Arial" font-size="10" lengthAdjust="spacing" textLength="112.1143" x="318.7173" y="54.6416">approveLeaveRequest</text><text fill="#000000" font-family="Arial" font-size="10" lengthAdjust="spacing" textLength="75.2686" x="337.1401" y="66.2822">(Server Action)</text></g><g class="participant participant-tail" data-entity-uid="part3" data-qualified-name="Action" data-source-line="12" id="part3-tail"><rect fill="#E2E2F0" height="37.2813" rx="2.5" ry="2.5" style="stroke:#181818;stroke-width:1.5;" width="126.1143" x="311.7173" y="361.6875"/><text fill="#000000" font-family="Arial" font-size="10" lengthAdjust="spacing" textLength="112.1143" x="318.7173" y="377.9697">approveLeaveRequest</text><text fill="#000000" font-family="Arial" font-size="10" lengthAdjust="spacing" textLength="75.2686" x="337.1401" y="389.6104">(Server Action)</text></g><g class="participant participant-head" data-entity-uid="part4" data-qualified-name="DB" data-source-line="13" id="part4-head"><text fill="#000000" font-family="Arial" font-size="10" lengthAdjust="spacing" textLength="57.6807" x="506.3628" y="74.2822">PostgreSQL</text><path d="M520.2031,29 C520.2031,19 538.2031,19 538.2031,19 C538.2031,19 556.2031,19 556.2031,29 L556.2031,55 C556.2031,65 538.2031,65 538.2031,65 C538.2031,65 520.2031,65 520.2031,55 L520.2031,29" fill="#E2E2F0" style="stroke:#181818;stroke-width:0.5;"/><path d="M520.2031,29 C520.2031,39 538.2031,39 538.2031,39 C538.2031,39 556.2031,39 556.2031,29" fill="none" style="stroke:#181818;stroke-width:0.5;"/></g><g class="participant participant-tail" data-entity-uid="part4" data-qualified-name="DB" data-source-line="13" id="part4-tail"><text fill="#000000" font-family="Arial" font-size="10" lengthAdjust="spacing" textLength="57.6807" x="506.3628" y="370.9697">PostgreSQL</text><path d="M520.2031,383.3281 C520.2031,373.3281 538.2031,373.3281 538.2031,373.3281 C538.2031,373.3281 556.2031,373.3281 556.2031,383.3281 L556.2031,409.3281 C556.2031,419.3281 538.2031,419.3281 538.2031,419.3281 C538.2031,419.3281 520.2031,419.3281 520.2031,409.3281 L520.2031,383.3281" fill="#E2E2F0" style="stroke:#181818;stroke-width:0.5;"/><path d="M520.2031,383.3281 C520.2031,393.3281 538.2031,393.3281 538.2031,393.3281 C538.2031,393.3281 556.2031,393.3281 556.2031,383.3281" fill="none" style="stroke:#181818;stroke-width:0.5;"/></g><g class="message" data-entity-1="part1" data-entity-2="part2" data-source-line="15" id="msg1"><polygon fill="#181818" points="156.5527,100.2813,166.5527,104.2813,156.5527,108.2813,160.5527,104.2813" style="stroke:#181818;stroke-width:1;stroke-linejoin:miter;stroke-miterlimit:10;"/><line style="stroke:#181818;stroke-width:1.5;" x1="22.4678" x2="162.5527" y1="104.2813" y2="104.2813"/><text fill="#000000" font-family="Arial" font-size="10" lengthAdjust="spacing" textLength="66.1377" x="29.4678" y="99.9229">abre bandeja</text></g><g class="message" data-entity-1="part2" data-entity-2="part2" data-source-line="17" id="msg2"><line style="stroke:#181818;stroke-width:1.5;" x1="168.5527" x2="210.5527" y1="141.5625" y2="141.5625"/><line style="stroke:#181818;stroke-width:1.5;" x1="210.5527" x2="210.5527" y1="141.5625" y2="154.5625"/><line style="stroke:#181818;stroke-width:1.5;" x1="169.5527" x2="210.5527" y1="154.5625" y2="154.5625"/><polygon fill="#181818" points="179.5527,150.5625,169.5527,154.5625,179.5527,158.5625,175.5527,154.5625" style="stroke:#181818;stroke-width:1;stroke-linejoin:miter;stroke-miterlimit:10;"/><text fill="#000000" font-family="Arial" font-size="10" lengthAdjust="spacing" textLength="143.4375" x="175.5527" y="125.5635">carga solicitudes pendientes</text><text fill="#000000" font-family="Arial" font-size="10" lengthAdjust="spacing" textLength="80.7324" x="175.5527" y="137.2041">(filtro: entity_id)</text></g><g class="message" data-entity-1="part2" data-entity-2="part1" data-source-line="19" id="msg3"><polygon fill="#181818" points="33.4678,176.2031,23.4678,180.2031,33.4678,184.2031,29.4678,180.2031" style="stroke:#181818;stroke-width:1;stroke-linejoin:miter;stroke-miterlimit:10;"/><line style="stroke:#181818;stroke-width:1.5;stroke-dasharray:2,2;" x1="27.4678" x2="167.5527" y1="180.2031" y2="180.2031"/><text fill="#000000" font-family="Arial" font-size="10" lengthAdjust="spacing" textLength="122.085" x="39.4678" y="175.8447">solicitudes de la entidad</text></g><g class="message" data-entity-1="part1" data-entity-2="part2" data-source-line="21" id="msg4"><polygon fill="#181818" points="156.5527,213.4844,166.5527,217.4844,156.5527,221.4844,160.5527,217.4844" style="stroke:#181818;stroke-width:1;stroke-linejoin:miter;stroke-miterlimit:10;"/><line style="stroke:#181818;stroke-width:1.5;" x1="22.4678" x2="162.5527" y1="217.4844" y2="217.4844"/><text fill="#000000" font-family="Arial" font-size="10" lengthAdjust="spacing" textLength="97.5977" x="29.4678" y="201.4854">selecciona solicitud</text><text fill="#000000" font-family="Arial" font-size="10" lengthAdjust="spacing" textLength="99.9268" x="29.4678" y="213.126">+ aprueba con nota</text></g><g class="message" data-entity-1="part2" data-entity-2="part3" data-source-line="23" id="msg5"><polygon fill="#181818" points="362.7744,239.125,372.7744,243.125,362.7744,247.125,366.7744,243.125" style="stroke:#181818;stroke-width:1;stroke-linejoin:miter;stroke-miterlimit:10;"/><line style="stroke:#181818;stroke-width:1.5;" x1="168.5527" x2="368.7744" y1="243.125" y2="243.125"/><text fill="#000000" font-family="Arial" font-size="10" lengthAdjust="spacing" textLength="182.2217" x="175.5527" y="238.7666">approveLeaveRequest({ id, notes })</text></g><g class="message" data-entity-1="part3" data-entity-2="part3" data-source-line="25" id="msg6"><line style="stroke:#181818;stroke-width:1.5;" x1="374.7744" x2="416.7744" y1="280.4063" y2="280.4063"/><line style="stroke:#181818;stroke-width:1.5;" x1="416.7744" x2="416.7744" y1="280.4063" y2="293.4063"/><line style="stroke:#181818;stroke-width:1.5;" x1="375.7744" x2="416.7744" y1="293.4063" y2="293.4063"/><polygon fill="#181818" points="385.7744,289.4063,375.7744,293.4063,385.7744,297.4063,381.7744,293.4063" style="stroke:#181818;stroke-width:1;stroke-linejoin:miter;stroke-miterlimit:10;"/><text fill="#000000" font-family="Arial" font-size="10" lengthAdjust="spacing" textLength="101.6211" x="381.7744" y="264.4072">requireHROrAbove()</text><text fill="#000000" font-family="Arial" font-size="10" lengthAdjust="spacing" textLength="149.4287" x="381.7744" y="276.0479">ausenciaSchema.parse(input)</text></g><g class="message" data-entity-1="part3" data-entity-2="part4" data-source-line="27" id="msg7"><polygon fill="#181818" points="526.2031,315.0469,536.2031,319.0469,526.2031,323.0469,530.2031,319.0469" style="stroke:#181818;stroke-width:1;stroke-linejoin:miter;stroke-miterlimit:10;"/><line style="stroke:#181818;stroke-width:1.5;" x1="374.7744" x2="532.2031" y1="319.0469" y2="319.0469"/><text fill="#000000" font-family="Arial" font-size="10" lengthAdjust="spacing" textLength="98.4912" x="381.7744" y="314.6885">transita a approved</text></g><g class="message" data-entity-1="part3" data-entity-2="part2" data-source-line="29" id="msg8"><polygon fill="#181818" points="179.5527,340.6875,169.5527,344.6875,179.5527,348.6875,175.5527,344.6875" style="stroke:#181818;stroke-width:1;stroke-linejoin:miter;stroke-miterlimit:10;"/><line style="stroke:#181818;stroke-width:1.5;stroke-dasharray:2,2;" x1="173.5527" x2="373.7744" y1="344.6875" y2="344.6875"/><text fill="#000000" font-family="Arial" font-size="10" lengthAdjust="spacing" textLength="150.5908" x="185.5527" y="340.3291">ActionResult&lt;LeaveRequest&gt;</text></g><?plantuml-src TPB1Rjim38RlUWeYkpXOLwo7NOAXGDAYoA7eEdl700CjCOuMXN8fEaKsxDqdEsZZOAqFXiJ_8_bJKjfwRb5m1pNQRIEnOtSJGnJuS3Ty9hqImJFfeILeOpZqcv7cQ8rTqBl8-e0xWhbu36_hbVzDSFLv92PwweWjpKNYyu-DjrkcbE3gyii8od_rrhV8keZYIDu3qmPTVFRSm1f38cFGQfwdB9TBm0Ib6LM2oGBPqI-iOiWXxHob5JzYGvEUxHVdEBQjn3tT4-wfx6qdNN5HaUn9O6xLHvuEgSUrSQXOOoAOFCQaZL3r_NxGRnV6bF3fUkWn0wo5yXKCNepfOoVDeZG8wUGGMcBdYRKtMwnzK8apo7klXv_UJLyAv0hbx2pH4GGSI8Vkp42YGDPcowDEA_u8s4f7DOAD31nrPEuuORR-_v4KVy2xYvxFFVzcFqTsd2MPz4BByflCwvnUJ5UCNShFm6DbDxJ3otpmYOfyhPsUbRXTp405ENb5m9V-xeIy3dKCb9Joq_iwDdXj_W40?></g></svg>