<svg xmlns="http://www.w3.org/2000/svg" xmlns:xlink="http://www.w3.org/1999/xlink" contentStyleType="text/css" data-diagram-type="SEQUENCE" height="451px" preserveAspectRatio="none" style="width:497px;height:451px;;background:#FFFFFF" version="1.1" viewBox="0 0 497 451" width="497px" zoomAndPan="magnify"><?plantuml 1.2026.4beta2?><defs/><g><g class="participant-lifeline" data-entity-uid="part1" data-qualified-name="E" data-source-line="8" id="part1-lifeline"><g><title>Empleado</title><rect fill="#000000" fill-opacity="0.00000" height="297.6875" width="8" x="28.9658" y="76.6406"/><line style="stroke:#181818;stroke-width:0.5;stroke-dasharray:5,5;" x1="32" x2="32" y1="76.6406" y2="374.3281"/></g></g><g class="participant-lifeline" data-entity-uid="part2" data-qualified-name="Page" data-source-line="9" id="part2-lifeline"><g><title>CalendarioParking</title><rect fill="#000000" fill-opacity="0.00000" height="297.6875" width="8" x="144.3916" y="76.6406"/><line style="stroke:#181818;stroke-width:0.5;stroke-dasharray:5,5;" x1="147.6982" x2="147.6982" y1="76.6406" y2="374.3281"/></g></g><g class="participant-lifeline" data-entity-uid="part3" data-qualified-name="Action" data-source-line="10" id="part3-lifeline"><g><title>createReservation</title><rect fill="#000000" fill-opacity="0.00000" height="297.6875" width="8" x="293.6553" y="76.6406"/><line style="stroke:#181818;stroke-width:0.5;stroke-dasharray:5,5;" x1="296.7861" x2="296.7861" y1="76.6406" y2="374.3281"/></g></g><g class="participant-lifeline" data-entity-uid="part4" data-qualified-name="DB" data-source-line="11" id="part4-lifeline"><g><title>PostgreSQL</title><rect fill="#000000" fill-opacity="0.00000" height="297.6875" width="8" x="450.2969" y="76.6406"/><line style="stroke:#181818;stroke-width:0.5;stroke-dasharray:5,5;" x1="453.4565" x2="453.4565" y1="76.6406" y2="374.3281"/></g></g><g class="participant participant-head" data-entity-uid="part1" data-qualified-name="E" data-source-line="8" id="part1-head"><text fill="#000000" font-family="Arial" font-size="10" lengthAdjust="spacing" textLength="49.9316" x="5" y="74.2822">Empleado</text><ellipse cx="32.9658" cy="13.5" fill="#E2E2F0" rx="8" ry="8" style="stroke:#181818;stroke-width:0.5;"/><path d="M32.9658,21.5 L32.9658,48.5 M19.9658,29.5 L45.9658,29.5 M32.9658,48.5 L19.9658,63.5 M32.9658,48.5 L45.9658,63.5" fill="none" style="stroke:#181818;stroke-width:0.5;"/></g><g class="participant participant-tail" data-entity-uid="part1" data-qualified-name="E" data-source-line="8" id="part1-tail"><text fill="#000000" font-family="Arial" font-size="10" lengthAdjust="spacing" textLength="49.9316" x="5" y="382.6104">Empleado</text><ellipse cx="32.9658" cy="393.4688" fill="#E2E2F0" rx="8" ry="8" style="stroke:#181818;stroke-width:0.5;"/><path d="M32.9658,401.4688 L32.9658,428.4688 M19.9658,409.4688 L45.9658,409.4688 M32.9658,428.4688 L19.9658,443.4688 M32.9658,428.4688 L45.9658,443.4688" fill="none" style="stroke:#181818;stroke-width:0.5;"/></g><g class="participant participant-head" data-entity-uid="part2" data-qualified-name="Page" data-source-line="9" id="part2-head"><rect fill="#E2E2F0" height="37.2813" rx="2.5" ry="2.5" style="stroke:#181818;stroke-width:1.5;" width="105.3867" x="95.6982" y="38.3594"/><text fill="#000000" font-family="Arial" font-size="10" lengthAdjust="spacing" textLength="91.3867" x="102.6982" y="54.6416">CalendarioParking</text><text fill="#000000" font-family="Arial" font-size="10" lengthAdjust="spacing" textLength="24.6582" x="136.0625" y="66.2822">Page</text></g><g class="participant participant-tail" data-entity-uid="part2" data-qualified-name="Page" data-source-line="9" id="part2-tail"><rect fill="#E2E2F0" height="37.2813" rx="2.5" ry="2.5" style="stroke:#181818;stroke-width:1.5;" width="105.3867" x="95.6982" y="373.3281"/><text fill="#000000" font-family="Arial" font-size="10" lengthAdjust="spacing" textLength="91.3867" x="102.6982" y="389.6104">CalendarioParking</text><text fill="#000000" font-family="Arial" font-size="10" lengthAdjust="spacing" textLength="24.6582" x="136.0625" y="401.251">Page</text></g><g class="participant participant-head" data-entity-uid="part3" data-qualified-name="Action" data-source-line="10" id="part3-head"><rect fill="#E2E2F0" height="37.2813" rx="2.5" ry="2.5" style="stroke:#181818;stroke-width:1.5;" width="105.7383" x="244.7861" y="38.3594"/><text fill="#000000" font-family="Arial" font-size="10" lengthAdjust="spacing" textLength="91.7383" x="251.7861" y="54.6416">createReservation</text><text fill="#000000" font-family="Arial" font-size="10" lengthAdjust="spacing" textLength="75.2686" x="260.021" y="66.2822">(Server Action)</text></g><g class="participant participant-tail" data-entity-uid="part3" data-qualified-name="Action" data-source-line="10" id="part3-tail"><rect fill="#E2E2F0" height="37.2813" rx="2.5" ry="2.5" style="stroke:#181818;stroke-width:1.5;" width="105.7383" x="244.7861" y="373.3281"/><text fill="#000000" font-family="Arial" font-size="10" lengthAdjust="spacing" textLength="91.7383" x="251.7861" y="389.6104">createReservation</text><text fill="#000000" font-family="Arial" font-size="10" lengthAdjust="spacing" textLength="75.2686" x="260.021" y="401.251">(Server Action)</text></g><g class="participant participant-head" data-entity-uid="part4" data-qualified-name="DB" data-source-line="11" id="part4-head"><text fill="#000000" font-family="Arial" font-size="10" lengthAdjust="spacing" textLength="57.6807" x="422.4565" y="74.2822">PostgreSQL</text><path d="M436.2969,29 C436.2969,19 454.2969,19 454.2969,19 C454.2969,19 472.2969,19 472.2969,29 L472.2969,55 C472.2969,65 454.2969,65 454.2969,65 C454.2969,65 436.2969,65 436.2969,55 L436.2969,29" fill="#E2E2F0" style="stroke:#181818;stroke-width:0.5;"/><path d="M436.2969,29 C436.2969,39 454.2969,39 454.2969,39 C454.2969,39 472.2969,39 472.2969,29" fill="none" style="stroke:#181818;stroke-width:0.5;"/></g><g class="participant participant-tail" data-entity-uid="part4" data-qualified-name="DB" data-source-line="11" id="part4-tail"><text fill="#000000" font-family="Arial" font-size="10" lengthAdjust="spacing" textLength="57.6807" x="422.4565" y="382.6104">PostgreSQL</text><path d="M436.2969,394.9688 C436.2969,384.9688 454.2969,384.9688 454.2969,384.9688 C454.2969,384.9688 472.2969,384.9688 472.2969,394.9688 L472.2969,420.9688 C472.2969,430.9688 454.2969,430.9688 454.2969,430.9688 C454.2969,430.9688 436.2969,430.9688 436.2969,420.9688 L436.2969,394.9688" fill="#E2E2F0" style="stroke:#181818;stroke-width:0.5;"/><path d="M436.2969,394.9688 C436.2969,404.9688 454.2969,404.9688 454.2969,404.9688 C454.2969,404.9688 472.2969,404.9688 472.2969,394.9688" fill="none" style="stroke:#181818;stroke-width:0.5;"/></g><g class="message" data-entity-1="part1" data-entity-2="part2" data-source-line="13" id="msg1"><polygon fill="#181818" points="136.3916,100.2813,146.3916,104.2813,136.3916,108.2813,140.3916,104.2813" style="stroke:#181818;stroke-width:1;"/><line style="stroke:#181818;stroke-width:1.5;" x1="32.9658" x2="142.3916" y1="104.2813" y2="104.2813"/><text fill="#000000" font-family="Arial" font-size="10" lengthAdjust="spacing" textLength="83.4668" x="39.9658" y="99.9229">selecciona fecha</text></g><g class="message" data-entity-1="part2" data-entity-2="part2" data-source-line="15" id="msg2"><line style="stroke:#181818;stroke-width:1.5;" x1="148.3916" x2="190.3916" y1="141.5625" y2="141.5625"/><line style="stroke:#181818;stroke-width:1.5;" x1="190.3916" x2="190.3916" y1="141.5625" y2="154.5625"/><line style="stroke:#181818;stroke-width:1.5;" x1="149.3916" x2="190.3916" y1="154.5625" y2="154.5625"/><polygon fill="#181818" points="159.3916,150.5625,149.3916,154.5625,159.3916,158.5625,155.3916,154.5625" style="stroke:#181818;stroke-width:1;"/><text fill="#000000" font-family="Arial" font-size="10" lengthAdjust="spacing" textLength="114.9316" x="155.3916" y="125.5635">consulta disponibilidad</text><text fill="#000000" font-family="Arial" font-size="10" lengthAdjust="spacing" textLength="111.4941" x="155.3916" y="137.2041">(spots + reservations)</text></g><g class="message" data-entity-1="part2" data-entity-2="part1" data-source-line="17" id="msg3"><polygon fill="#181818" points="43.9658,176.2031,33.9658,180.2031,43.9658,184.2031,39.9658,180.2031" style="stroke:#181818;stroke-width:1;"/><line style="stroke:#181818;stroke-width:1.5;stroke-dasharray:2,2;" x1="37.9658" x2="147.3916" y1="180.2031" y2="180.2031"/><text fill="#000000" font-family="Arial" font-size="10" lengthAdjust="spacing" textLength="91.4258" x="49.9658" y="175.8447">plazas disponibles</text></g><g class="message" data-entity-1="part1" data-entity-2="part2" data-source-line="19" id="msg4"><polygon fill="#181818" points="136.3916,213.4844,146.3916,217.4844,136.3916,221.4844,140.3916,217.4844" style="stroke:#181818;stroke-width:1;"/><line style="stroke:#181818;stroke-width:1.5;" x1="32.9658" x2="142.3916" y1="217.4844" y2="217.4844"/><text fill="#000000" font-family="Arial" font-size="10" lengthAdjust="spacing" textLength="85.1953" x="39.9658" y="201.4854">confirma reserva</text><text fill="#000000" font-family="Arial" font-size="10" lengthAdjust="spacing" textLength="82.5537" x="39.9658" y="213.126">(id_plaza, fecha)</text></g><g class="message" data-entity-1="part2" data-entity-2="part3" data-source-line="21" id="msg5"><polygon fill="#181818" points="285.6553,239.125,295.6553,243.125,285.6553,247.125,289.6553,243.125" style="stroke:#181818;stroke-width:1;"/><line style="stroke:#181818;stroke-width:1.5;" x1="148.3916" x2="291.6553" y1="243.125" y2="243.125"/><text fill="#000000" font-family="Arial" font-size="10" lengthAdjust="spacing" textLength="125.2637" x="155.3916" y="238.7666">createReservation(input)</text></g><g class="message" data-entity-1="part3" data-entity-2="part3" data-source-line="23" id="msg6"><line style="stroke:#181818;stroke-width:1.5;" x1="297.6553" x2="339.6553" y1="280.4063" y2="280.4063"/><line style="stroke:#181818;stroke-width:1.5;" x1="339.6553" x2="339.6553" y1="280.4063" y2="293.4063"/><line style="stroke:#181818;stroke-width:1.5;" x1="298.6553" x2="339.6553" y1="293.4063" y2="293.4063"/><polygon fill="#181818" points="308.6553,289.4063,298.6553,293.4063,308.6553,297.4063,304.6553,293.4063" style="stroke:#181818;stroke-width:1;"/><text fill="#000000" font-family="Arial" font-size="10" lengthAdjust="spacing" textLength="67.2314" x="304.6553" y="264.4072">requireAuth()</text><text fill="#000000" font-family="Arial" font-size="10" lengthAdjust="spacing" textLength="142.6416" x="304.6553" y="276.0479">reservaSchema.parse(input)</text></g><g class="message" data-entity-1="part3" data-entity-2="part4" data-source-line="25" id="msg7"><polygon fill="#181818" points="442.2969,326.6875,452.2969,330.6875,442.2969,334.6875,446.2969,330.6875" style="stroke:#181818;stroke-width:1;"/><line style="stroke:#181818;stroke-width:1.5;" x1="297.6553" x2="448.2969" y1="330.6875" y2="330.6875"/><text fill="#000000" font-family="Arial" font-size="10" lengthAdjust="spacing" textLength="102.5293" x="304.6553" y="314.6885">comprueba conflicto</text><text fill="#000000" font-family="Arial" font-size="10" lengthAdjust="spacing" textLength="96.2695" x="304.6553" y="326.3291">INSERT reservation</text></g><g class="message" data-entity-1="part3" data-entity-2="part2" data-source-line="27" id="msg8"><polygon fill="#181818" points="159.3916,352.3281,149.3916,356.3281,159.3916,360.3281,155.3916,356.3281" style="stroke:#181818;stroke-width:1;"/><line style="stroke:#181818;stroke-width:1.5;stroke-dasharray:2,2;" x1="153.3916" x2="296.6553" y1="356.3281" y2="356.3281"/><text fill="#000000" font-family="Arial" font-size="10" lengthAdjust="spacing" textLength="120.2197" x="165.3916" y="351.9697">ActionResult&lt;Reserva&gt;</text></g><?plantuml-src TL71JYCn3BtdAwoUMYqWE711AwHsEoiXhL2NuLW9kOdRiPf9PfqC2Bv-FJEKJX5S8ZllFVlPJdiE3GhMu3bGVcq8ckXVkyIa3ypH5bkVVyUGxx4cc0kZ_nel-OtWwd849lhNKh0q5ualZnNRVQ2KuEhYUaJIDxFb1aDUH74atn5JXIw-SDZ15dqYOz3cA53KZIT501CKPbGD9h_GKt0e75SeMcUt3YlSqQIZTi4fsmfXfWTA9C-OEOPrc9OQay3STlci5mwnSPXnWubWieefxuJAltzwVBamfe3psxx3ZUx0axMgGDYIhT2Oxl-8snYIBX31SMfYu0rxTkYqjwOvmG-GewCqEyXLNzn0u_5DMnwadj99RwszPQdnK4ABidlgHMU3czdHpZ2NYZwlOQe7QBCo1yQOAtfW5fgtkPhErk6zJMahgl52bvle2_5oqJch6sbfWxr7pth9TRYxBuk7n_6yHzd7JCE7sjEb_NntUViV?></g></svg>