<?xml version="1.0" encoding="us-ascii" standalone="no"?><svg xmlns="http://www.w3.org/2000/svg" xmlns:xlink="http://www.w3.org/1999/xlink" contentStyleType="text/css" height="769px" preserveAspectRatio="none" style="width:1011px;height:769px;background:#FFFFFF;" version="1.1" viewBox="0 0 1011 769" width="1011px" zoomAndPan="magnify"><defs/><g><text fill="#000000" font-family="Arial" font-size="14" font-weight="bold" lengthAdjust="spacing" textLength="188" x="412.5" y="27.6738">Secuencia: reservarPlaza()</text><rect fill="none" height="255.8906" style="stroke:#000000;stroke-width:1.5;" width="776" x="228" y="393.8203"/><rect fill="none" height="160.7344" style="stroke:#000000;stroke-width:1.5;" width="756" x="238" y="481.9766"/><line style="stroke:#181818;stroke-width:0.5;stroke-dasharray:5.0,5.0;" x1="31" x2="31" y1="113.9297" y2="693"/><line style="stroke:#181818;stroke-width:0.5;stroke-dasharray:5.0,5.0;" x1="203" x2="203" y1="113.9297" y2="693"/><line style="stroke:#181818;stroke-width:0.5;stroke-dasharray:5.0,5.0;" x1="305" x2="305" y1="113.9297" y2="693"/><line style="stroke:#181818;stroke-width:0.5;stroke-dasharray:5.0,5.0;" x1="541" x2="541" y1="113.9297" y2="693"/><line style="stroke:#181818;stroke-width:0.5;stroke-dasharray:5.0,5.0;" x1="794" x2="794" y1="113.9297" y2="693"/><line style="stroke:#181818;stroke-width:0.5;stroke-dasharray:5.0,5.0;" x1="921" x2="921" y1="113.9297" y2="693"/><text fill="#000000" font-family="Arial" font-size="11" lengthAdjust="spacing" textLength="46" x="5" y="111.5986">Empleado</text><ellipse cx="31" cy="50.1406" fill="#E2E2F0" rx="8" ry="8" style="stroke:#181818;stroke-width:0.5;"/><path d="M31,58.1406 L31,85.1406 M18,66.1406 L44,66.1406 M31,85.1406 L18,100.1406 M31,85.1406 L44,100.1406 " fill="none" style="stroke:#181818;stroke-width:0.5;"/><text fill="#000000" font-family="Arial" font-size="11" lengthAdjust="spacing" textLength="46" x="5" y="701.958">Empleado</text><ellipse cx="31" cy="712.7891" fill="#E2E2F0" rx="8" ry="8" style="stroke:#181818;stroke-width:0.5;"/><path d="M31,720.7891 L31,747.7891 M18,728.7891 L44,728.7891 M31,747.7891 L18,762.7891 M31,747.7891 L44,762.7891 " fill="none" style="stroke:#181818;stroke-width:0.5;"/><rect fill="#E2E2F0" height="38.5781" rx="2.5" ry="2.5" style="stroke:#181818;stroke-width:1.5;" width="70" x="168" y="74.3516"/><text fill="#000000" font-family="Arial" font-size="11" lengthAdjust="spacing" textLength="56" x="175" y="91.3096">P&#225;gina RSC</text><text fill="#000000" font-family="Arial" font-size="11" lengthAdjust="spacing" textLength="38" x="184" y="103.5986">/parking</text><rect fill="#E2E2F0" height="38.5781" rx="2.5" ry="2.5" style="stroke:#181818;stroke-width:1.5;" width="70" x="168" y="692"/><text fill="#000000" font-family="Arial" font-size="11" lengthAdjust="spacing" textLength="56" x="175" y="708.958">P&#225;gina RSC</text><text fill="#000000" font-family="Arial" font-size="11" lengthAdjust="spacing" textLength="38" x="184" y="721.2471">/parking</text><rect fill="#E2E2F0" height="38.5781" rx="2.5" ry="2.5" style="stroke:#181818;stroke-width:1.5;" width="115" x="248" y="74.3516"/><text fill="#000000" font-family="Arial" font-size="11" lengthAdjust="spacing" textLength="51" x="280" y="91.3096">Calendario</text><text fill="#000000" font-family="Arial" font-size="11" lengthAdjust="spacing" textLength="101" x="255" y="103.5986">(componente cliente)</text><rect fill="#E2E2F0" height="38.5781" rx="2.5" ry="2.5" style="stroke:#181818;stroke-width:1.5;" width="115" x="248" y="692"/><text fill="#000000" font-family="Arial" font-size="11" lengthAdjust="spacing" textLength="51" x="280" y="708.958">Calendario</text><text fill="#000000" font-family="Arial" font-size="11" lengthAdjust="spacing" textLength="101" x="255" y="721.2471">(componente cliente)</text><rect fill="#E2E2F0" height="38.5781" rx="2.5" ry="2.5" style="stroke:#181818;stroke-width:1.5;" width="111" x="486" y="74.3516"/><text fill="#000000" font-family="Arial" font-size="11" lengthAdjust="spacing" textLength="97" x="493" y="91.3096">createReservation()</text><text fill="#000000" font-family="Arial" font-size="11" lengthAdjust="spacing" textLength="67" x="508" y="103.5986">Server Action</text><rect fill="#E2E2F0" height="38.5781" rx="2.5" ry="2.5" style="stroke:#181818;stroke-width:1.5;" width="111" x="486" y="692"/><text fill="#000000" font-family="Arial" font-size="11" lengthAdjust="spacing" textLength="97" x="493" y="708.958">createReservation()</text><text fill="#000000" font-family="Arial" font-size="11" lengthAdjust="spacing" textLength="67" x="508" y="721.2471">Server Action</text><rect fill="#E2E2F0" height="38.5781" rx="2.5" ry="2.5" style="stroke:#181818;stroke-width:1.5;" width="109" x="740" y="74.3516"/><text fill="#000000" font-family="Arial" font-size="11" lengthAdjust="spacing" textLength="66" x="761.5" y="91.3096">Auth + Config</text><text fill="#000000" font-family="Arial" font-size="11" lengthAdjust="spacing" textLength="95" x="747" y="103.5986">(helpers / config.ts)</text><rect fill="#E2E2F0" height="38.5781" rx="2.5" ry="2.5" style="stroke:#181818;stroke-width:1.5;" width="109" x="740" y="692"/><text fill="#000000" font-family="Arial" font-size="11" lengthAdjust="spacing" textLength="66" x="761.5" y="708.958">Auth + Config</text><text fill="#000000" font-family="Arial" font-size="11" lengthAdjust="spacing" textLength="95" x="747" y="721.2471">(helpers / config.ts)</text><rect fill="#E2E2F0" height="38.5781" rx="2.5" ry="2.5" style="stroke:#181818;stroke-width:1.5;" width="125" x="859" y="74.3516"/><text fill="#000000" font-family="Arial" font-size="11" lengthAdjust="spacing" textLength="70" x="886.5" y="91.3096">Base de datos</text><text fill="#000000" font-family="Arial" font-size="11" lengthAdjust="spacing" textLength="111" x="866" y="103.5986">(Drizzle + PostgreSQL)</text><rect fill="#E2E2F0" height="38.5781" rx="2.5" ry="2.5" style="stroke:#181818;stroke-width:1.5;" width="125" x="859" y="692"/><text fill="#000000" font-family="Arial" font-size="11" lengthAdjust="spacing" textLength="70" x="886.5" y="708.958">Base de datos</text><text fill="#000000" font-family="Arial" font-size="11" lengthAdjust="spacing" textLength="111" x="866" y="721.2471">(Drizzle + PostgreSQL)</text><polygon fill="#444444" points="191,138.2188,201,142.2188,191,146.2188,195,142.2188" style="stroke:#444444;stroke-width:1.0;"/><line style="stroke:#444444;stroke-width:1.2;" x1="31" x2="197" y1="142.2188" y2="142.2188"/><text fill="#000000" font-family="Arial" font-size="11" lengthAdjust="spacing" textLength="86" x="38" y="137.8877">accede a /parking</text><polygon fill="#444444" points="909.5,164.5078,919.5,168.5078,909.5,172.5078,913.5,168.5078" style="stroke:#444444;stroke-width:1.0;"/><line style="stroke:#444444;stroke-width:1.2;" x1="203" x2="915.5" y1="168.5078" y2="168.5078"/><text fill="#000000" font-family="Arial" font-size="11" lengthAdjust="spacing" textLength="213" x="210" y="164.1768">consulta plazas disponibles (fecha, entidad)</text><polygon fill="#444444" points="214,190.7969,204,194.7969,214,198.7969,210,194.7969" style="stroke:#444444;stroke-width:1.0;"/><line style="stroke:#444444;stroke-width:1.2;stroke-dasharray:2.0,2.0;" x1="208" x2="920.5" y1="194.7969" y2="194.7969"/><text fill="#000000" font-family="Arial" font-size="11" lengthAdjust="spacing" textLength="84" x="220" y="190.4658">PlazaConEstado[]</text><polygon fill="#444444" points="42,217.0859,32,221.0859,42,225.0859,38,221.0859" style="stroke:#444444;stroke-width:1.0;"/><line style="stroke:#444444;stroke-width:1.2;stroke-dasharray:2.0,2.0;" x1="36" x2="202" y1="221.0859" y2="221.0859"/><text fill="#000000" font-family="Arial" font-size="11" lengthAdjust="spacing" textLength="148" x="48" y="216.7549">muestra calendario con plazas</text><polygon fill="#444444" points="293.5,243.375,303.5,247.375,293.5,251.375,297.5,247.375" style="stroke:#444444;stroke-width:1.0;"/><line style="stroke:#444444;stroke-width:1.2;" x1="31" x2="299.5" y1="247.375" y2="247.375"/><text fill="#000000" font-family="Arial" font-size="11" lengthAdjust="spacing" textLength="121" x="38" y="243.0439">selecciona fecha y plaza</text><polygon fill="#444444" points="42,269.6641,32,273.6641,42,277.6641,38,273.6641" style="stroke:#444444;stroke-width:1.0;"/><line style="stroke:#444444;stroke-width:1.2;stroke-dasharray:2.0,2.0;" x1="36" x2="304.5" y1="273.6641" y2="273.6641"/><text fill="#000000" font-family="Arial" font-size="11" lengthAdjust="spacing" textLength="114" x="48" y="269.333">di&#225;logo de confirmaci&#243;n</text><polygon fill="#444444" points="293.5,295.9531,303.5,299.9531,293.5,303.9531,297.5,299.9531" style="stroke:#444444;stroke-width:1.0;"/><line style="stroke:#444444;stroke-width:1.2;" x1="31" x2="299.5" y1="299.9531" y2="299.9531"/><text fill="#000000" font-family="Arial" font-size="11" lengthAdjust="spacing" textLength="42" x="38" y="295.6221">confirma</text><polygon fill="#444444" points="529.5,322.2422,539.5,326.2422,529.5,330.2422,533.5,326.2422" style="stroke:#444444;stroke-width:1.0;"/><line style="stroke:#444444;stroke-width:1.2;" x1="305.5" x2="535.5" y1="326.2422" y2="326.2422"/><text fill="#000000" font-family="Arial" font-size="11" lengthAdjust="spacing" textLength="174" x="312.5" y="321.9111">createReservation({ spotId, fecha })</text><polygon fill="#444444" points="782.5,348.5313,792.5,352.5313,782.5,356.5313,786.5,352.5313" style="stroke:#444444;stroke-width:1.0;"/><line style="stroke:#444444;stroke-width:1.2;" x1="541.5" x2="788.5" y1="352.5313" y2="352.5313"/><text fill="#000000" font-family="Arial" font-size="11" lengthAdjust="spacing" textLength="229" x="548.5" y="348.2002">obtiene usuario autenticado + config del m&#243;dulo</text><polygon fill="#444444" points="552.5,374.8203,542.5,378.8203,552.5,382.8203,548.5,378.8203" style="stroke:#444444;stroke-width:1.0;"/><line style="stroke:#444444;stroke-width:1.2;stroke-dasharray:2.0,2.0;" x1="546.5" x2="793.5" y1="378.8203" y2="378.8203"/><text fill="#000000" font-family="Arial" font-size="11" lengthAdjust="spacing" textLength="134" x="558.5" y="374.4893">AuthUser &#183; ResourceConfig</text><path d="M228,393.8203 L286,393.8203 L286,398.1094 L276,408.1094 L228,408.1094 L228,393.8203 " fill="#EEEEEE" style="stroke:#000000;stroke-width:1.5;"/><rect fill="none" height="255.8906" style="stroke:#000000;stroke-width:1.5;" width="776" x="228" y="393.8203"/><text fill="#000000" font-family="Arial" font-size="11" font-weight="bold" lengthAdjust="spacing" textLength="13" x="243" y="404.7783">alt</text><text fill="#000000" font-family="Arial" font-size="11" font-weight="bold" lengthAdjust="spacing" textLength="254" x="301" y="405.7783">[m&#243;dulo deshabilitado o fecha fuera del plazo]</text><polygon fill="#444444" points="316.5,422.3984,306.5,426.3984,316.5,430.3984,312.5,426.3984" style="stroke:#444444;stroke-width:1.0;"/><line style="stroke:#444444;stroke-width:1.2;stroke-dasharray:2.0,2.0;" x1="310.5" x2="540.5" y1="426.3984" y2="426.3984"/><text fill="#000000" font-family="Arial" font-size="11" lengthAdjust="spacing" textLength="150" x="322.5" y="422.0674">Error &#8212; operaci&#243;n no permitida</text><line style="stroke:#000000;stroke-width:1.0;stroke-dasharray:2.0,2.0;" x1="228" x2="1004" y1="435.3984" y2="435.3984"/><text fill="#000000" font-family="Arial" font-size="11" font-weight="bold" lengthAdjust="spacing" textLength="68" x="233" y="445.3564">[todo v&#225;lido]</text><polygon fill="#444444" points="909.5,462.9766,919.5,466.9766,909.5,470.9766,913.5,466.9766" style="stroke:#444444;stroke-width:1.0;"/><line style="stroke:#444444;stroke-width:1.2;" x1="541.5" x2="915.5" y1="466.9766" y2="466.9766"/><text fill="#000000" font-family="Arial" font-size="11" lengthAdjust="spacing" textLength="235" x="548.5" y="462.6455">INSERT INTO reservations (spotId, userId, fecha)</text><path d="M238,481.9766 L296,481.9766 L296,486.2656 L286,496.2656 L238,496.2656 L238,481.9766 " fill="#EEEEEE" style="stroke:#000000;stroke-width:1.5;"/><rect fill="none" height="160.7344" style="stroke:#000000;stroke-width:1.5;" width="756" x="238" y="481.9766"/><text fill="#000000" font-family="Arial" font-size="11" font-weight="bold" lengthAdjust="spacing" textLength="13" x="253" y="492.9346">alt</text><text fill="#000000" font-family="Arial" font-size="11" font-weight="bold" lengthAdjust="spacing" textLength="216" x="311" y="493.9346">[plaza o usuario ya reservados ese d&#237;a]</text><polygon fill="#444444" points="552.5,510.5547,542.5,514.5547,552.5,518.5547,548.5,514.5547" style="stroke:#444444;stroke-width:1.0;"/><line style="stroke:#444444;stroke-width:1.2;stroke-dasharray:2.0,2.0;" x1="546.5" x2="920.5" y1="514.5547" y2="514.5547"/><text fill="#000000" font-family="Arial" font-size="11" lengthAdjust="spacing" textLength="152" x="558.5" y="510.2236">violaci&#243;n de &#237;ndice &#250;nico parcial</text><polygon fill="#444444" points="316.5,536.8438,306.5,540.8438,316.5,544.8438,312.5,540.8438" style="stroke:#444444;stroke-width:1.0;"/><line style="stroke:#444444;stroke-width:1.2;stroke-dasharray:2.0,2.0;" x1="310.5" x2="540.5" y1="540.8438" y2="540.8438"/><text fill="#000000" font-family="Arial" font-size="11" lengthAdjust="spacing" textLength="212" x="322.5" y="536.5127">Error &#8212; plaza ya reservada para esa fecha</text><line style="stroke:#000000;stroke-width:1.0;stroke-dasharray:2.0,2.0;" x1="238" x2="994" y1="549.8438" y2="549.8438"/><polygon fill="#444444" points="552.5,565.1328,542.5,569.1328,552.5,573.1328,548.5,569.1328" style="stroke:#444444;stroke-width:1.0;"/><line style="stroke:#444444;stroke-width:1.2;stroke-dasharray:2.0,2.0;" x1="546.5" x2="920.5" y1="569.1328" y2="569.1328"/><text fill="#000000" font-family="Arial" font-size="11" lengthAdjust="spacing" textLength="100" x="558.5" y="564.8018">reserva creada { id }</text><line style="stroke:#444444;stroke-width:1.2;" x1="541.5" x2="583.5" y1="595.4219" y2="595.4219"/><line style="stroke:#444444;stroke-width:1.2;" x1="583.5" x2="583.5" y1="595.4219" y2="608.4219"/><line style="stroke:#444444;stroke-width:1.2;" x1="542.5" x2="583.5" y1="608.4219" y2="608.4219"/><polygon fill="#444444" points="552.5,604.4219,542.5,608.4219,552.5,612.4219,548.5,608.4219" style="stroke:#444444;stroke-width:1.0;"/><text fill="#000000" font-family="Arial" font-size="11" lengthAdjust="spacing" textLength="122" x="548.5" y="591.0908">revalidatePath("/parking")</text><polygon fill="#444444" points="316.5,630.7109,306.5,634.7109,316.5,638.7109,312.5,634.7109" style="stroke:#444444;stroke-width:1.0;"/><line style="stroke:#444444;stroke-width:1.2;stroke-dasharray:2.0,2.0;" x1="310.5" x2="540.5" y1="634.7109" y2="634.7109"/><text fill="#000000" font-family="Arial" font-size="11" lengthAdjust="spacing" textLength="127" x="322.5" y="630.3799">OK &#8212; reserva confirmada</text><polygon fill="#444444" points="42,671,32,675,42,679,38,675" style="stroke:#444444;stroke-width:1.0;"/><line style="stroke:#444444;stroke-width:1.2;stroke-dasharray:2.0,2.0;" x1="36" x2="304.5" y1="675" y2="675"/><text fill="#000000" font-family="Arial" font-size="11" lengthAdjust="spacing" textLength="156" x="48" y="670.6689">confirmaci&#243;n o mensaje de error</text><!--SRC=[TLJ1JXin4BtxAqRf9H44HDLUE2251IJK2b92JgM7mPuaBbuxjRrKf4BgH_G7-01E72hrsFn9lwHZxswQ2BfIibhFU_DctinkkD5sZXvBK3J1oiGJP-CPbWG3hz68y59yf1S4UtjhmK1VAhAI1jwxhvSpBMyiXG1xEw__1ogSSHvUlSdN6eZ_evPwZZOUEg_8hsTxkmQyHdapzQwogabraYyXeew6O4GoYMdS1q-1_2tweS45Tdj2e8nCw1oNSqEeN0Smm5YiAKDdk7oOQejmCIgkx2w7M7UQWKESqYQsG4DMeTVkodQbA-VEaeq4qkXqxsLQKMoIf2UCT56N5hMptTwL7V43UHZ8T91fey4cRL356Mn1uUn4JrbkHcPEFi0ko7oq4qEjbu35PBh9FiH0F4XG65rWzf7NYmMRjGL35-BKq-Z3-vf-T2Z46Fe7kLtO1vIIc8ZGUY5oW057XnncyS3BWJ1F7WTGEh0B-jfGWEw4v0otWRtG2bLFCAF_BtEU2lTp72BFukEd9Z43nXmjAmhH8yYLnqchaMbAB0e61Z8a9Tk6aFNWhWO9ZhR9b5u-63TroO9ibozHwkMJNSlJdejCFE01fCDdm_e6t60yLTkDsdrFC9BnZUzCSjUHvqzGXIhNZLLC5aZkaWslnyML62YNJweoJhJKVYkR3iQi2Rz_0ekxoakg9yyxR69Bv2HXXjVQwEGWkAQaIKLiN198HZW1AMc_xVEONq8FVxx_0CSBLDi0rW4_b3eDIf3XPOcECzwoRLgr6PgHdvwDZYyk-NPvthvXoHcUT-jCnOShXthCJZNdeN2DhIjtsBAL2q1fFvUFo620Pa-o5RVQcQP87jxoqIej-VxBQkdIDqEcZrKYlTnZhRgcXOc4hDUi2tDJlyzq6tpU02Pz0wtWVYMq0jqY6yGhCiGuwtPMtulUivBEt-LwLccRRLEv0Aj4-gslxCQQicqbsO2VyqjCgJln5m00]--></g></svg>