<?xml version="1.0" encoding="us-ascii" standalone="no"?><svg xmlns="http://www.w3.org/2000/svg" xmlns:xlink="http://www.w3.org/1999/xlink" contentStyleType="text/css" height="940px" preserveAspectRatio="none" style="width:1330px;height:940px;background:#FFFFFF;" version="1.1" viewBox="0 0 1330 940" width="1330px" zoomAndPan="magnify"><defs/><g><text fill="#000000" font-family="Arial" font-size="14" font-weight="bold" lengthAdjust="spacing" textLength="213" x="557" y="27.6738">Secuencia: registrarVisitante()</text><rect fill="none" height="251.8906" style="stroke:#000000;stroke-width:1.5;" width="938" x="282.5" y="498.9766"/><line style="stroke:#181818;stroke-width:0.5;stroke-dasharray:5.0,5.0;" x1="31" x2="31" y1="113.9297" y2="863.3125"/><line style="stroke:#181818;stroke-width:0.5;stroke-dasharray:5.0,5.0;" x1="231.5" x2="231.5" y1="113.9297" y2="863.3125"/><line style="stroke:#181818;stroke-width:0.5;stroke-dasharray:5.0,5.0;" x1="349.5" x2="349.5" y1="113.9297" y2="863.3125"/><line style="stroke:#181818;stroke-width:0.5;stroke-dasharray:5.0,5.0;" x1="678" x2="678" y1="113.9297" y2="863.3125"/><line style="stroke:#181818;stroke-width:0.5;stroke-dasharray:5.0,5.0;" x1="930.5" x2="930.5" y1="113.9297" y2="863.3125"/><line style="stroke:#181818;stroke-width:0.5;stroke-dasharray:5.0,5.0;" x1="1057.5" x2="1057.5" y1="113.9297" y2="863.3125"/><line style="stroke:#181818;stroke-width:0.5;stroke-dasharray:5.0,5.0;" x1="1170.5" x2="1170.5" y1="113.9297" y2="863.3125"/><text fill="#000000" font-family="Arial" font-size="11" lengthAdjust="spacing" textLength="46" x="5" y="111.5986">Empleado</text><ellipse cx="31" cy="50.1406" fill="#E2E2F0" rx="8" ry="8" style="stroke:#181818;stroke-width:0.5;"/><path d="M31,58.1406 L31,85.1406 M18,66.1406 L44,66.1406 M31,85.1406 L18,100.1406 M31,85.1406 L44,100.1406 " fill="none" style="stroke:#181818;stroke-width:0.5;"/><text fill="#000000" font-family="Arial" font-size="11" lengthAdjust="spacing" textLength="46" x="5" y="872.2705">Empleado</text><ellipse cx="31" cy="883.1016" fill="#E2E2F0" rx="8" ry="8" style="stroke:#181818;stroke-width:0.5;"/><path d="M31,891.1016 L31,918.1016 M18,899.1016 L44,899.1016 M31,918.1016 L18,933.1016 M31,918.1016 L44,933.1016 " fill="none" style="stroke:#181818;stroke-width:0.5;"/><rect fill="#E2E2F0" height="38.5781" rx="2.5" ry="2.5" style="stroke:#181818;stroke-width:1.5;" width="101" x="181.5" y="74.3516"/><text fill="#000000" font-family="Arial" font-size="11" lengthAdjust="spacing" textLength="56" x="204" y="91.3096">P&#225;gina RSC</text><text fill="#000000" font-family="Arial" font-size="11" lengthAdjust="spacing" textLength="87" x="188.5" y="103.5986">/parking/visitantes</text><rect fill="#E2E2F0" height="38.5781" rx="2.5" ry="2.5" style="stroke:#181818;stroke-width:1.5;" width="101" x="181.5" y="862.3125"/><text fill="#000000" font-family="Arial" font-size="11" lengthAdjust="spacing" textLength="56" x="204" y="879.2705">P&#225;gina RSC</text><text fill="#000000" font-family="Arial" font-size="11" lengthAdjust="spacing" textLength="87" x="188.5" y="891.5596">/parking/visitantes</text><rect fill="#E2E2F0" height="38.5781" rx="2.5" ry="2.5" style="stroke:#181818;stroke-width:1.5;" width="115" x="292.5" y="74.3516"/><text fill="#000000" font-family="Arial" font-size="11" lengthAdjust="spacing" textLength="93" x="303.5" y="91.3096">Formulario de visita</text><text fill="#000000" font-family="Arial" font-size="11" lengthAdjust="spacing" textLength="101" x="299.5" y="103.5986">(componente cliente)</text><rect fill="#E2E2F0" height="38.5781" rx="2.5" ry="2.5" style="stroke:#181818;stroke-width:1.5;" width="115" x="292.5" y="862.3125"/><text fill="#000000" font-family="Arial" font-size="11" lengthAdjust="spacing" textLength="93" x="303.5" y="879.2705">Formulario de visita</text><text fill="#000000" font-family="Arial" font-size="11" lengthAdjust="spacing" textLength="101" x="299.5" y="891.5596">(componente cliente)</text><rect fill="#E2E2F0" height="38.5781" rx="2.5" ry="2.5" style="stroke:#181818;stroke-width:1.5;" width="142" x="607" y="74.3516"/><text fill="#000000" font-family="Arial" font-size="11" lengthAdjust="spacing" textLength="128" x="614" y="91.3096">createVisitorReservation()</text><text fill="#000000" font-family="Arial" font-size="11" lengthAdjust="spacing" textLength="67" x="644.5" y="103.5986">Server Action</text><rect fill="#E2E2F0" height="38.5781" rx="2.5" ry="2.5" style="stroke:#181818;stroke-width:1.5;" width="142" x="607" y="862.3125"/><text fill="#000000" font-family="Arial" font-size="11" lengthAdjust="spacing" textLength="128" x="614" y="879.2705">createVisitorReservation()</text><text fill="#000000" font-family="Arial" font-size="11" lengthAdjust="spacing" textLength="67" x="644.5" y="891.5596">Server Action</text><rect fill="#E2E2F0" height="38.5781" rx="2.5" ry="2.5" style="stroke:#181818;stroke-width:1.5;" width="109" x="876.5" y="74.3516"/><text fill="#000000" font-family="Arial" font-size="11" lengthAdjust="spacing" textLength="66" x="898" y="91.3096">Auth + Config</text><text fill="#000000" font-family="Arial" font-size="11" lengthAdjust="spacing" textLength="95" x="883.5" y="103.5986">(helpers / config.ts)</text><rect fill="#E2E2F0" height="38.5781" rx="2.5" ry="2.5" style="stroke:#181818;stroke-width:1.5;" width="109" x="876.5" y="862.3125"/><text fill="#000000" font-family="Arial" font-size="11" lengthAdjust="spacing" textLength="66" x="898" y="879.2705">Auth + Config</text><text fill="#000000" font-family="Arial" font-size="11" lengthAdjust="spacing" textLength="95" x="883.5" y="891.5596">(helpers / config.ts)</text><rect fill="#E2E2F0" height="38.5781" rx="2.5" ry="2.5" style="stroke:#181818;stroke-width:1.5;" width="125" x="995.5" y="74.3516"/><text fill="#000000" font-family="Arial" font-size="11" lengthAdjust="spacing" textLength="70" x="1023" y="91.3096">Base de datos</text><text fill="#000000" font-family="Arial" font-size="11" lengthAdjust="spacing" textLength="111" x="1002.5" y="103.5986">(Drizzle + PostgreSQL)</text><rect fill="#E2E2F0" height="38.5781" rx="2.5" ry="2.5" style="stroke:#181818;stroke-width:1.5;" width="125" x="995.5" y="862.3125"/><text fill="#000000" font-family="Arial" font-size="11" lengthAdjust="spacing" textLength="70" x="1023" y="879.2705">Base de datos</text><text fill="#000000" font-family="Arial" font-size="11" lengthAdjust="spacing" textLength="111" x="1002.5" y="891.5596">(Drizzle + PostgreSQL)</text><rect fill="#E2E2F0" height="38.5781" rx="2.5" ry="2.5" style="stroke:#181818;stroke-width:1.5;" width="80" x="1130.5" y="74.3516"/><text fill="#000000" font-family="Arial" font-size="11" lengthAdjust="spacing" textLength="37" x="1152" y="91.3096">Resend</text><text fill="#000000" font-family="Arial" font-size="11" lengthAdjust="spacing" textLength="66" x="1137.5" y="103.5986">(API de email)</text><rect fill="#E2E2F0" height="38.5781" rx="2.5" ry="2.5" style="stroke:#181818;stroke-width:1.5;" width="80" x="1130.5" y="862.3125"/><text fill="#000000" font-family="Arial" font-size="11" lengthAdjust="spacing" textLength="37" x="1152" y="879.2705">Resend</text><text fill="#000000" font-family="Arial" font-size="11" lengthAdjust="spacing" textLength="66" x="1137.5" y="891.5596">(API de email)</text><polygon fill="#444444" points="220,138.2188,230,142.2188,220,146.2188,224,142.2188" style="stroke:#444444;stroke-width:1.0;"/><line style="stroke:#444444;stroke-width:1.2;" x1="31" x2="226" y1="142.2188" y2="142.2188"/><text fill="#000000" font-family="Arial" font-size="11" lengthAdjust="spacing" textLength="135" x="38" y="137.8877">accede a /parking/visitantes</text><polygon fill="#444444" points="1046,164.5078,1056,168.5078,1046,172.5078,1050,168.5078" style="stroke:#444444;stroke-width:1.0;"/><line style="stroke:#444444;stroke-width:1.2;" x1="232" x2="1052" y1="168.5078" y2="168.5078"/><text fill="#000000" font-family="Arial" font-size="11" lengthAdjust="spacing" textLength="188" x="239" y="164.1768">consulta visitas pr&#243;ximas del empleado</text><polygon fill="#444444" points="243,190.7969,233,194.7969,243,198.7969,239,194.7969" style="stroke:#444444;stroke-width:1.0;"/><line style="stroke:#444444;stroke-width:1.2;stroke-dasharray:2.0,2.0;" x1="237" x2="1057" y1="194.7969" y2="194.7969"/><text fill="#000000" font-family="Arial" font-size="11" lengthAdjust="spacing" textLength="89" x="249" y="190.4658">ReservaVisitante[]</text><polygon fill="#444444" points="42,217.0859,32,221.0859,42,225.0859,38,221.0859" style="stroke:#444444;stroke-width:1.0;"/><line style="stroke:#444444;stroke-width:1.2;stroke-dasharray:2.0,2.0;" x1="36" x2="231" y1="221.0859" y2="221.0859"/><text fill="#000000" font-family="Arial" font-size="11" lengthAdjust="spacing" textLength="177" x="48" y="216.7549">lista de visitas + bot&#243;n "Nueva visita"</text><polygon fill="#444444" points="338,243.375,348,247.375,338,251.375,342,247.375" style="stroke:#444444;stroke-width:1.0;"/><line style="stroke:#444444;stroke-width:1.2;" x1="31" x2="344" y1="247.375" y2="247.375"/><text fill="#000000" font-family="Arial" font-size="11" lengthAdjust="spacing" textLength="96" x="38" y="243.0439">pulsa "Nueva visita"</text><polygon fill="#444444" points="1046,269.6641,1056,273.6641,1046,277.6641,1050,273.6641" style="stroke:#444444;stroke-width:1.0;"/><line style="stroke:#444444;stroke-width:1.2;" x1="350" x2="1052" y1="273.6641" y2="273.6641"/><text fill="#000000" font-family="Arial" font-size="11" lengthAdjust="spacing" textLength="230" x="357" y="269.333">consulta plazas de visitante disponibles (fecha)</text><polygon fill="#444444" points="361,295.9531,351,299.9531,361,303.9531,357,299.9531" style="stroke:#444444;stroke-width:1.0;"/><line style="stroke:#444444;stroke-width:1.2;stroke-dasharray:2.0,2.0;" x1="355" x2="1057" y1="299.9531" y2="299.9531"/><text fill="#000000" font-family="Arial" font-size="11" lengthAdjust="spacing" textLength="72" x="367" y="295.6221">[{ id, etiqueta }]</text><polygon fill="#444444" points="42,322.2422,32,326.2422,42,330.2422,38,326.2422" style="stroke:#444444;stroke-width:1.0;"/><line style="stroke:#444444;stroke-width:1.2;stroke-dasharray:2.0,2.0;" x1="36" x2="349" y1="326.2422" y2="326.2422"/><text fill="#000000" font-family="Arial" font-size="11" lengthAdjust="spacing" textLength="203" x="48" y="321.9111">muestra formulario con plazas disponibles</text><polygon fill="#444444" points="338,348.5313,348,352.5313,338,356.5313,342,352.5313" style="stroke:#444444;stroke-width:1.0;"/><line style="stroke:#444444;stroke-width:1.2;" x1="31" x2="344" y1="352.5313" y2="352.5313"/><text fill="#000000" font-family="Arial" font-size="11" lengthAdjust="spacing" textLength="253" x="38" y="348.2002">rellena datos (nombre, empresa, email, fecha, plaza)</text><polygon fill="#444444" points="338,374.8203,348,378.8203,338,382.8203,342,378.8203" style="stroke:#444444;stroke-width:1.0;"/><line style="stroke:#444444;stroke-width:1.2;" x1="31" x2="344" y1="378.8203" y2="378.8203"/><text fill="#000000" font-family="Arial" font-size="11" lengthAdjust="spacing" textLength="42" x="38" y="374.4893">confirma</text><polygon fill="#444444" points="666,401.1094,676,405.1094,666,409.1094,670,405.1094" style="stroke:#444444;stroke-width:1.0;"/><line style="stroke:#444444;stroke-width:1.2;" x1="350" x2="672" y1="405.1094" y2="405.1094"/><text fill="#000000" font-family="Arial" font-size="11" lengthAdjust="spacing" textLength="304" x="357" y="400.7783">createVisitorReservation({ spotId, fecha, nombreVisitante, ... })</text><polygon fill="#444444" points="919,427.3984,929,431.3984,919,435.3984,923,431.3984" style="stroke:#444444;stroke-width:1.0;"/><line style="stroke:#444444;stroke-width:1.2;" x1="678" x2="925" y1="431.3984" y2="431.3984"/><text fill="#000000" font-family="Arial" font-size="11" lengthAdjust="spacing" textLength="229" x="685" y="427.0674">obtiene usuario autenticado + config del m&#243;dulo</text><polygon fill="#444444" points="689,453.6875,679,457.6875,689,461.6875,685,457.6875" style="stroke:#444444;stroke-width:1.0;"/><line style="stroke:#444444;stroke-width:1.2;stroke-dasharray:2.0,2.0;" x1="683" x2="930" y1="457.6875" y2="457.6875"/><text fill="#000000" font-family="Arial" font-size="11" lengthAdjust="spacing" textLength="134" x="695" y="453.3564">AuthUser &#183; ResourceConfig</text><polygon fill="#444444" points="1046,479.9766,1056,483.9766,1046,487.9766,1050,483.9766" style="stroke:#444444;stroke-width:1.0;"/><line style="stroke:#444444;stroke-width:1.2;" x1="678" x2="1052" y1="483.9766" y2="483.9766"/><text fill="#000000" font-family="Arial" font-size="11" lengthAdjust="spacing" textLength="160" x="685" y="479.6455">INSERT INTO visitor_reservations</text><path d="M282.5,498.9766 L340.5,498.9766 L340.5,503.2656 L330.5,513.2656 L282.5,513.2656 L282.5,498.9766 " fill="#EEEEEE" style="stroke:#000000;stroke-width:1.5;"/><rect fill="none" height="251.8906" style="stroke:#000000;stroke-width:1.5;" width="938" x="282.5" y="498.9766"/><text fill="#000000" font-family="Arial" font-size="11" font-weight="bold" lengthAdjust="spacing" textLength="13" x="297.5" y="509.9346">alt</text><text fill="#000000" font-family="Arial" font-size="11" font-weight="bold" lengthAdjust="spacing" textLength="153" x="355.5" y="510.9346">[plaza ya reservada ese d&#237;a]</text><polygon fill="#444444" points="689,527.5547,679,531.5547,689,535.5547,685,531.5547" style="stroke:#444444;stroke-width:1.0;"/><line style="stroke:#444444;stroke-width:1.2;stroke-dasharray:2.0,2.0;" x1="683" x2="1057" y1="531.5547" y2="531.5547"/><text fill="#000000" font-family="Arial" font-size="11" lengthAdjust="spacing" textLength="117" x="695" y="527.2236">violaci&#243;n de &#237;ndice &#250;nico</text><polygon fill="#444444" points="361,553.8438,351,557.8438,361,561.8438,357,557.8438" style="stroke:#444444;stroke-width:1.0;"/><line style="stroke:#444444;stroke-width:1.2;stroke-dasharray:2.0,2.0;" x1="355" x2="677" y1="557.8438" y2="557.8438"/><text fill="#000000" font-family="Arial" font-size="11" lengthAdjust="spacing" textLength="245" x="367" y="553.5127">Error &#8212; plaza ya tiene reserva de visitante ese d&#237;a</text><line style="stroke:#000000;stroke-width:1.0;stroke-dasharray:2.0,2.0;" x1="282.5" x2="1220.5" y1="566.8438" y2="566.8438"/><text fill="#000000" font-family="Arial" font-size="11" font-weight="bold" lengthAdjust="spacing" textLength="103" x="287.5" y="576.8018">[inserci&#243;n exitosa]</text><polygon fill="#444444" points="689,594.4219,679,598.4219,689,602.4219,685,598.4219" style="stroke:#444444;stroke-width:1.0;"/><line style="stroke:#444444;stroke-width:1.2;stroke-dasharray:2.0,2.0;" x1="683" x2="1057" y1="598.4219" y2="598.4219"/><text fill="#000000" font-family="Arial" font-size="11" lengthAdjust="spacing" textLength="22" x="695" y="594.0908">{ id }</text><polygon fill="#444444" points="1158.5,620.7109,1168.5,624.7109,1158.5,628.7109,1162.5,624.7109" style="stroke:#444444;stroke-width:1.0;"/><line style="stroke:#444444;stroke-width:1.2;" x1="678" x2="1164.5" y1="624.7109" y2="624.7109"/><text fill="#000000" font-family="Arial" font-size="11" lengthAdjust="spacing" textLength="239" x="685" y="620.3799">env&#237;a email al visitante (fecha, plaza, .ics adjunto)</text><polygon fill="#444444" points="689,647,679,651,689,655,685,651" style="stroke:#444444;stroke-width:1.0;"/><line style="stroke:#444444;stroke-width:1.2;stroke-dasharray:2.0,2.0;" x1="683" x2="1169.5" y1="651" y2="651"/><text fill="#000000" font-family="Arial" font-size="11" lengthAdjust="spacing" textLength="38" x="695" y="646.6689">enviado</text><polygon fill="#444444" points="1046,673.2891,1056,677.2891,1046,681.2891,1050,677.2891" style="stroke:#444444;stroke-width:1.0;"/><line style="stroke:#444444;stroke-width:1.2;" x1="678" x2="1052" y1="677.2891" y2="677.2891"/><text fill="#000000" font-family="Arial" font-size="11" lengthAdjust="spacing" textLength="153" x="685" y="672.958">UPDATE notification_sent = true</text><line style="stroke:#444444;stroke-width:1.2;" x1="678" x2="720" y1="703.5781" y2="703.5781"/><line style="stroke:#444444;stroke-width:1.2;" x1="720" x2="720" y1="703.5781" y2="716.5781"/><line style="stroke:#444444;stroke-width:1.2;" x1="679" x2="720" y1="716.5781" y2="716.5781"/><polygon fill="#444444" points="689,712.5781,679,716.5781,689,720.5781,685,716.5781" style="stroke:#444444;stroke-width:1.0;"/><text fill="#000000" font-family="Arial" font-size="11" lengthAdjust="spacing" textLength="171" x="685" y="699.2471">revalidatePath("/parking/visitantes")</text><polygon fill="#444444" points="361,738.8672,351,742.8672,361,746.8672,357,742.8672" style="stroke:#444444;stroke-width:1.0;"/><line style="stroke:#444444;stroke-width:1.2;stroke-dasharray:2.0,2.0;" x1="355" x2="677" y1="742.8672" y2="742.8672"/><text fill="#000000" font-family="Arial" font-size="11" lengthAdjust="spacing" textLength="106" x="367" y="738.5361">OK &#8212; { id: reservaId }</text><polygon fill="#444444" points="42,772.1563,32,776.1563,42,780.1563,38,776.1563" style="stroke:#444444;stroke-width:1.0;"/><line style="stroke:#444444;stroke-width:1.2;stroke-dasharray:2.0,2.0;" x1="36" x2="349" y1="776.1563" y2="776.1563"/><text fill="#000000" font-family="Arial" font-size="11" lengthAdjust="spacing" textLength="203" x="48" y="771.8252">confirmaci&#243;n con datos de la visita o error</text><path d="M1175,789.1563 L1175,848.1563 L1323,848.1563 L1323,799.1563 L1313,789.1563 L1175,789.1563 " fill="#FEFFDD" style="stroke:#181818;stroke-width:0.5;"/><path d="M1313,789.1563 L1313,799.1563 L1323,799.1563 L1313,789.1563 " fill="#FEFFDD" style="stroke:#181818;stroke-width:0.5;"/><text fill="#000000" font-family="Arial" font-size="11" lengthAdjust="spacing" textLength="122" x="1181" y="804.1143">El visitante recibe el email</text><text fill="#000000" font-family="Arial" font-size="11" lengthAdjust="spacing" textLength="127" x="1181" y="816.4033">con la fecha, la plaza y un</text><text fill="#000000" font-family="Arial" font-size="11" lengthAdjust="spacing" textLength="97" x="1181" y="828.6924">archivo .ics adjunto.</text><text fill="#000000" font-family="Arial" font-size="11" lengthAdjust="spacing" textLength="122" x="1181" y="840.9814">No tiene acceso al portal.</text><!--SRC=[TLJ1RXit4BtpAmRgHK9a6IxQYu44a6KPC5eugcNb4WV1Y3kI67D9bUIggGC3_OZyG3uW9nyAz5ZzIR-aGt9NMZdE7hGhpioRcVTcwE-KMQF34WfQOAN3XJNX2ak2eLEeXN_EFbNt12SdBQEdtoioaeREsJzkLahU6V8UJWO_VizfPBLryCDFwMavyMzGKgtHX3Fh2d9jj9zRZdEKTqjdArFKK1Vf4IAee0cc96CoXQVWQAbySEZUAAy20rEt9mJAm56TSRdMX8Nj07gOYLPww4osNvRA85nFHxVcc4sSV7cyQL1yYfdWaWx3BgmhAurEMIODilkjwKfRhgqX3WIfLNpt4i1eT1Wk7M6WLAjrr-J9RJ0eQxgzMpFbF-HWAED1YfuE3wE7LLZ12nXPir1BpheYlIRduHXaEXe4dzD6nz5YUHXzXfvYqGK6wpdwtAdxUsRp1Koi3qj7qzz-pU7dPuUHiL1JSCXmSXaHg4Ibi-iuVWenWwDNYIqu1PIIs0dX6LP5yc7VypFsvAezZntMF7fOk-tZHrNoLq6QqsJv13iVxV5hsdQ2ltrNexBBZEsQ1mBtwdXkS6x3zj50vwgYJPEjKrSz6d7Ckj8UdzhPyasbQuttgJpODGM5yYo-ccloq5sGN66lAJc1l_q4gkW31SKxmXWFxn9qNMvPKHnWMEmdYxFj4ksns_KwqffuUfEMq3Msd3lgHyOSUUndXVgGYkbdh5uhF8sBAr7KFKw7yV1xi_a9k8PmMUpmShgT07qO30Rmq1CCms3ry36YdGVU1OBALwalh0AlXfAiAOkIPpOfNMuVYqfRqOGUDJN5WnbN0l_-7NMtbPEKnr_KsP8ybrVJyVKDlsvUPrsiU-_s7NY1EcGMu4-4sb8WKDo8xLSK0BLWAUj6MOrInP5XeRTVJQ4al_ynIbfsZOaR9iTytpduxw_FU_ZSSvtaS59s-KZpbpBiajFGHwxPFwqZpWqyr1bVvLtZOp8RniWQ0-eMVhSjECkYf0SiFbGcs1x3P80TFEEek5uDVg9oDZaVtenPug0Mh5IaxprlVu2N45n5E-U4u7XTjE8Xf0c6LRVpt3tQUyBOwryINR6tquQbozWcNp6YlHZDa6Q6uaxaQMT6TREaO86Y0a9mmKowMgu2s4LzBN77RNOSIJLd4NIcZiqHbB5grZGs8a9bs8fEhjJ67j0uuFChMsiSRpflemHhwmBgGUmXKaVYVm00]--></g></svg>